<?xml version="1.0" encoding="UTF-8"?>
<svg id="Layer_4" data-name="Layer 4" xmlns="http://www.w3.org/2000/svg" viewBox="0 0 7799.83 1526.56">
  <defs>
    <style>
      .cls-1 {
        fill: none;
        stroke-width: 95.06px;
      }

      .cls-1, .cls-2 {
        stroke: #942a26;
        stroke-miterlimit: 10;
      }

      .cls-2 {
        fill: #942a26;
        stroke-width: 1.19px;
      }
    </style>
  </defs>
  <polyline class="cls-1" points="3656.8 73.34 4173 1389.77 4637.92 58.07"/>
  <path class="cls-2" d="M3613.19,90.87c-1.02-9.7-1.93-20.03,2.45-28.75,3.28-6.52,9.18-11.35,15.44-15.1,11.49-6.89,25.11-10.83,38.38-9.02,13.27,1.81,25.98,9.95,31.45,22.17"/>
  <path class="cls-2" d="M4592.74,43.43c3.33-4.23,6.08-7.63,10.32-10.88,4.67-3.57,8.77-7.48,14.21-9.96,8.41-3.83,18.13-4.07,27.16-2.15,7.87,1.67,15.87,4.77,22.87,8.75,6.32,3.59,9.36,9.98,12.25,16.58,1.97,4.49,4.01,9.09,4.82,13.96.67,4.08-.14,8.54-1.52,12.4-.71,1.97-3.85,6.05-3.55,7.31"/>
</svg>