<?xml version="1.0" encoding="UTF-8"?>
<svg id="Layer_2" data-name="Layer 2" xmlns="http://www.w3.org/2000/svg" viewBox="0 0 541.51 510.04">
  <defs>
    <style>
      .cls-1 {
        fill: #941a1d;
        stroke: #941a1d;
        stroke-miterlimit: 10;
      }
    </style>
  </defs>
  <path class="cls-1" d="M6.26,55.53c3.64,4.6,8.17,8.32,12.55,12.26l14.12,12.73c6.02,5.43,12.04,10.86,18.06,16.29,7.06,6.36,14.11,12.73,21.17,19.09,7.81,7.05,15.62,14.09,23.44,21.14,8.29,7.48,16.58,14.95,24.87,22.43,8.49,7.66,16.98,15.31,25.47,22.97s16.82,15.17,25.23,22.76c8.05,7.26,16.11,14.53,24.16,21.79,7.42,6.69,14.84,13.38,22.26,20.07l19.51,17.6,15.94,14.37,11.52,10.39,6.28,5.66c.3.27.61.55.91.82l.02-.02.86-.79,2.07-1.89,3.2-2.93,4.26-3.9,5.24-4.8,6.15-5.63,6.99-6.4c2.58-2.36,5.17-4.73,7.75-7.09,2.81-2.57,5.63-5.15,8.44-7.72l9.05-8.28,9.59-8.78c3.35-3.07,6.7-6.13,10.06-9.2s6.96-6.37,10.45-9.56l10.76-9.85c3.67-3.36,7.33-6.71,11-10.07s7.45-6.81,11.17-10.22l11.26-10.3,11.28-10.32,11.22-10.27c3.7-3.38,7.4-6.77,11.09-10.15l10.89-9.96c3.54-3.24,7.07-6.47,10.61-9.71l10.26-9.39c3.28-3,6.55-6,9.83-8.99l9.33-8.54c2.92-2.67,5.83-5.34,8.75-8.01l8.1-7.41c2.46-2.25,4.92-4.5,7.38-6.75l6.58-6.02,5.7-5.22,4.76-4.35,3.73-3.42c1.53-1.4,3.33-2.73,4.45-4.43.98-1.48,1.5-3.55,2.08-5.25.72-2.08,1.37-4.19,1.96-6.32.7-2.54,1.31-5.11,1.79-7.7.51-2.77.89-5.57,1.05-8.38s.12-5.59-.26-8.35c-.36-2.62-1.02-5.22-2.13-7.62s-2.62-4.48-4.58-6.18c-2.19-1.91-4.82-3.22-7.59-4.04-3.61-1.06-7.43-1.32-11.18-1.19-5.18.19-10.31,1.12-15.33,2.37-4.12,1.03-8.18,2.28-12.19,3.68-2.86,1-6,1.59-8.46,3.46-.89.67-1.66,1.52-2.5,2.27l-3.12,2.8-9.05,8.12c-4.1,3.68-8.2,7.36-12.3,11.03-4.98,4.47-9.96,8.94-14.94,13.41-5.66,5.08-11.32,10.15-16.98,15.23-6.14,5.5-12.27,11.01-18.41,16.51s-12.82,11.5-19.23,17.25-12.96,11.63-19.45,17.45-12.7,11.4-19.05,17.09c-6.02,5.4-12.04,10.8-18.06,16.2-5.48,4.92-10.97,9.84-16.45,14.76-4.75,4.26-9.49,8.52-14.24,12.77-3.81,3.41-7.61,6.83-11.42,10.24l-7.99,7.17-3.96,3.55-.32.29s-.04-.03-.04-.03c-1.04-.92-2.07-1.84-3.11-2.77l-7.62-6.78-11.45-10.2-14.61-13.01-17.09-15.22c-6.3-5.61-12.6-11.21-18.89-16.82l-20.02-17.83-20.47-18.23c-6.75-6.01-13.5-12.02-20.25-18.03s-12.9-11.48-19.35-17.22c-5.92-5.27-11.85-10.55-17.77-15.82l-15.51-13.81-12.58-11.2-8.98-7.99c-.97-.86-2-1.69-2.92-2.6-4.31-4.26-12.27-4.63-17.99-5.39-5.78-.76-11.68-1.05-17.49-.37s-11.51,2.33-16.11,5.91C4.37,12.76,1.64,18.74.83,25.09c-.65,5.1-.29,10.29.61,15.34.46,2.55,1.06,5.07,1.75,7.56.52,1.89.89,4.6,2.06,6.21.33.45.67.9,1.01,1.33Z"/>
  <path class="cls-1" d="M6.26,268.97c3.64,4.6,8.17,8.32,12.55,12.26l14.12,12.73c6.02,5.43,12.04,10.86,18.06,16.29,7.06,6.36,14.11,12.73,21.17,19.09,7.81,7.05,15.62,14.09,23.44,21.14l24.87,22.43c8.49,7.66,16.98,15.31,25.47,22.97,8.41,7.59,16.82,15.17,25.23,22.76,8.05,7.26,16.11,14.53,24.16,21.79l22.26,20.07c6.5,5.87,13.01,11.73,19.51,17.6,5.31,4.79,10.62,9.58,15.94,14.37,3.84,3.46,7.68,6.93,11.52,10.39l6.28,5.66c.3.27.61.55.91.82l.02-.02.86-.79,2.07-1.89,3.2-2.93,4.26-3.9,5.24-4.8c2.05-1.88,4.1-3.75,6.15-5.63l6.99-6.4,7.75-7.09c2.81-2.57,5.63-5.15,8.44-7.72,3.02-2.76,6.03-5.52,9.05-8.28l9.59-8.78c3.35-3.07,6.7-6.13,10.06-9.2,3.48-3.19,6.96-6.37,10.45-9.56,3.59-3.28,7.17-6.56,10.76-9.85,3.67-3.36,7.33-6.71,11-10.07s7.45-6.81,11.17-10.22,7.51-6.87,11.26-10.3,7.52-6.88,11.28-10.32l11.22-10.27c3.7-3.38,7.4-6.77,11.09-10.15s7.26-6.64,10.89-9.96c3.54-3.24,7.07-6.47,10.61-9.71l10.26-9.39c3.28-3,6.55-6,9.83-8.99s6.22-5.69,9.33-8.54l8.75-8.01,8.1-7.41c2.46-2.25,4.92-4.5,7.38-6.75l6.58-6.02,5.7-5.22,4.76-4.35,3.73-3.42c1.53-1.4,3.33-2.73,4.45-4.43.98-1.48,1.5-3.55,2.08-5.25.72-2.08,1.37-4.19,1.96-6.32.7-2.54,1.31-5.11,1.79-7.7.51-2.77.89-5.57,1.05-8.38s.12-5.59-.26-8.35c-.36-2.62-1.02-5.22-2.13-7.62s-2.62-4.48-4.58-6.18c-2.19-1.91-4.82-3.22-7.59-4.04-3.61-1.06-7.43-1.32-11.18-1.19-5.18.19-10.31,1.12-15.33,2.37-4.12,1.03-8.18,2.28-12.19,3.68-2.86,1-6,1.59-8.46,3.46-.89.67-1.66,1.52-2.5,2.27l-3.12,2.8-9.05,8.12c-4.1,3.68-8.2,7.36-12.3,11.03-4.98,4.47-9.96,8.94-14.94,13.41-5.66,5.08-11.32,10.15-16.98,15.23-6.14,5.5-12.27,11.01-18.41,16.51s-12.82,11.5-19.23,17.25c-6.48,5.82-12.96,11.63-19.45,17.45-6.35,5.7-12.7,11.4-19.05,17.09l-18.06,16.2c-5.48,4.92-10.97,9.84-16.45,14.76-4.75,4.26-9.49,8.52-14.24,12.77-3.81,3.41-7.61,6.83-11.42,10.24l-7.99,7.17-3.96,3.55-.32.29s-.04-.03-.04-.03c-1.04-.92-2.07-1.84-3.11-2.77-2.54-2.26-5.08-4.52-7.62-6.78l-11.45-10.2-14.61-13.01c-5.7-5.07-11.39-10.14-17.09-15.22-6.3-5.61-12.6-11.21-18.89-16.82-6.67-5.94-13.35-11.88-20.02-17.83s-13.65-12.15-20.47-18.23-13.5-12.02-20.25-18.03-12.9-11.48-19.35-17.22c-5.92-5.27-11.85-10.55-17.77-15.82l-15.51-13.81-12.58-11.2-8.98-7.99c-.97-.86-2-1.69-2.92-2.6-4.31-4.26-12.27-4.63-17.99-5.39-5.78-.76-11.68-1.05-17.49-.37s-11.51,2.33-16.11,5.91c-5.13,3.99-7.85,9.97-8.66,16.32-.65,5.1-.29,10.29.61,15.34.46,2.55,1.06,5.07,1.75,7.56.52,1.89.89,4.6,2.06,6.21.33.45.67.9,1.01,1.33Z"/>
</svg>