<?xml version="1.0" encoding="UTF-8"?>
<svg id="Layer_3" data-name="Layer 3" xmlns="http://www.w3.org/2000/svg" viewBox="0 0 1114 878">
  <defs>
    <style>
      .cls-1 {
        fill: #51392a;
      }

      .cls-2 {
        fill: #d9d9d9;
      }

      .cls-3 {
        fill: #231f20;
        stroke: #231f20;
        stroke-width: .25px;
      }

      .cls-3, .cls-4 {
        stroke-miterlimit: 10;
      }

      .cls-5 {
        fill: #ddc6c5;
      }

      .cls-6 {
        fill: #786258;
      }

      .cls-7 {
        fill: #616161;
      }

      .cls-8 {
        fill: #fff0dd;
      }

      .cls-4 {
        fill: none;
        stroke: #000;
        stroke-width: 3px;
      }
    </style>
  </defs>
  <path class="cls-2" d="M923.33,380.22c-.84,6.96,2.52,14.06.99,20.9-.48,2.15-1.43,4.18-1.87,6.33-.71,3.46-.09,7.04.53,10.52,1.08,6.02,3.59,11.57,4.58,17.6,1.27,7.73-.39,15.8,1.46,23.41,1.85,7.6.93,16.58,4.82,23.36,1.41,2.46,3.12,4.78,4.14,7.43,1.19,3.09,1.38,6.49,2.54,9.6,1.63,4.36,5.23,7.93,9.6,9.53.83.3,1.74.57,2.28,1.27.61.77.59,1.84.6,2.83.08,9.14,4.6,17.58,9.01,25.6,2.31,4.2,4.62,8.4,6.93,12.6-1.25,23.4,11.83,44.83,17.17,67.64,1.09,4.65.47,10.41.95,15.16.41,4.06.77,8.25-.48,12.14-.7,2.18-1.89,4.2-2.36,6.44-.83,3.96.65,8.18-.47,12.07-.82,2.86-2.99,5.25-3.46,8.19-.56,3.5,1.39,6.86,3.26,9.87,3.97,6.38,10.92,11.03,13.63,18.03,1.21,3.14,1.84,6.47,2.98,9.63s2.92,6.26,5.78,8.03c2.31,1.43,4.4,3.16,6.48,4.9,1.67,1.39,3.84,1.89,5.81,2.81,5.2,2.43,10.27,5.13,15.18,8.09,3.83-.17,6.74,1.73,10.38,2.91,3.74,1.21,7.69,1.59,11.6,1.96,3,.29,6,.57,9.01.86,5.82.55,11.55,1.34,17.27,2.51,5.73,1.17,11.71,1.98,17.37.54,2.93-.75,5.7-1.9,8.14-3.69l-.29-417.58c-3.68-6.3-6.27-12.38-9.26-19.03s-6.63-13.21-12.12-18.01c-10.65-9.31-24.73-13.67-38.46-17.08-7.78-1.93-15.52-4.05-23.5-3.31-7.98.73-15.85,2.54-23.85,2.89-2.77.12-5.63,1.08-8.19,2.15-2.93,1.23-5.87,3.16-6.89,6.17-.83,2.43-.26,5.09.11,7.63.48,3.33.58,6.79-.45,10s-3.34,6.13-6.51,7.24c-6.69,2.36-13.67,3.72-20.33,6.19-5.14,1.91-9.38,6.79-12.71,11.07-7.33,9.42-11.63,21.24-11.69,33.21-.01,2.11-1.68,3.96-3.18,5.44s-3.24,2.73-4.68,4.28c-5.02,5.39-6.22,13.77-1.83,19.69Z"/>
  <path class="cls-8" d="M66.24,125.93c-17.5-6.67-35.21-12.79-53.09-18.36-1.79-.56-3.8-.12-5.66-.31-.23-.02-.48-.04-.67.09-.44.3-.16.97.16,1.4,2.28,3.1,4.57,6.19,6.85,9.29-3.79,3.88-5.77,9.46-5.25,14.86.74,7.76,4.82,14.71,11.07,19.36s13.53,7.88,19.41,13c-1.23-.45-2.75.23-3.25,1.44-.75,1.83.41,2.96,1.76,3.81,1.86,1.16,3.48,2.82,5.19,4.2,3.72,3.01,7.54,5.91,11.44,8.68,6.48,4.6,11.72,7.84,17.64,13.14,5.93,5.3,11.18,11.48,14.62,18.65-2.64-.78-5.41-1.11-8.16-.97-.61.03-1.26.09-1.77.43-.74.48-1.05,1.4-1.12,2.28-.16,2.04.81,4.13,2.47,5.33,6.12,4.41,11.23,9.08,16.53,14.45s9.88,11.78,11.42,19.17c-1.09-.23-2.21-.47-3.32-.36s-2.24.63-2.81,1.59-.39,2.38.56,2.97c3.91,2.41,5.35,7.84,9.56,9.69,2.94,1.29,6.26,1.52,9.22,2.75,4.59,1.91,7.87,6.02,10.6,10.17s5.22,8.6,9.01,11.82c.85.72,1.8,1.43,2.21,2.46.41,1.03.11,2.12.42,3.15.37,1.26,1.37,2.31,2.33,3.17,3.03,2.72,6.81,4.5,10.71,5.65,1.73.51,3.55.94,4.96,2.06,2.05,1.63,2.8,4.36,3.32,6.92s1.01,5.29,2.75,7.24c.67.75,1.51,1.37,2,2.25.74,1.32.54,2.95.32,4.45-.35,2.34.26,4.79,1.22,6.95,1.45,3.26,4.42,5.58,7.44,7.49s6.26,3.58,8.75,6.14c1.73,1.77,3.03,3.9,4.32,6.01,1.93,3.16,3.88,6.36,5.09,9.86,2.63,7.62,12.47,9.99,15.73,17.37.73,1.66,1.19,3.43,1.93,5.09s1.82,3.25,3.43,4.1,3.81.75,5.02-.59c4.67-1.34,9.92-2.98,14.33-5.04,1.15,3.09,1.24,6.45,1.32,9.75.11,4.7,2.28,9.55,4.06,13.9,2.29,5.62,3.58,11.65,3.77,17.72.05,1.47.04,3,.65,4.35.19.43.65.89,1.06.65.2-.11.28-.35.35-.56,1.72-5.37,3.45-10.73,5.17-16.1,2.26-7.03,4.52-14.08,6.02-21.3,1.73-8.3,6.22-15.94,6.44-24.41.08-3.07.44-5.79,1.23-8.76,3.1-11.62,8.09-22.67,11-34.34.61-2.44.34-5.23,1.31-7.55,5.79-13.94,10.43-28.36,13.86-43.07.06-.24.09-.54-.1-.7-.13-.11-.32-.1-.5-.09-2.55.15-5.11-1.5-6.02-3.89-11.14-7-17.25-17.89-27.01-26.7-2.96-2.67-6.16-5.04-9.36-7.41l-12.51-9.26c-16.34-12.09-31.54-23.2-47.36-35.97-3.67-2.96-7.54-4.97-11.33-7.79-4.77-3.54-10.21-6.02-15.12-9.34-2.35-1.59-4.3-3.62-6.56-5.25-2.82-2.03-6.06-3.67-9.06-5.43-12.27-7.21-24.8-13.98-37.56-20.3-14.58-7.22-27.25-15.67-42.46-21.46Z"/>
  <path class="cls-8" d="M626.78,871.48c-2.85-10.09-5.71-20.18-8.56-30.28-.7-2.47-1.4-4.94-2.38-7.31-2.14-5.15-4.43-10.61-6.99-15.57-1.93-3.74-3.86-7.49-5.78-11.24-2.75-5.36-5.48-10.72-8.21-16.08-.99-1.95-2.37-3.44-3.42-5.29-1.39-2.46-2.28-5.37-3.31-8-4.28-10.86-8.01-21.94-12.45-32.74-5.8-14.11-11.6-28.23-17.95-42.1-6.15-13.41-6.46-28.44-10.03-42.66-5.54-22.02-.77-45.87-.84-68.57-.02-7.2.61-14.4,1.9-21.48.85-4.7,1.99-9.36,2.59-14.1.49-3.94.6-7.92.71-11.88.29-10.43.52-20.88,1.17-31.3,1.14-18.12-.26-35.47.09-53.62.4-21.02-2.69-42.48-9.55-62.36-2.67-7.73-4.89-15.62-6.63-23.61-.44-2.03-.86-4.12-.63-6.18s1.21-4.16,3-5.23c19.41,4.73,39.79,12.01,54.48,25.56-.92-2.92.48-6.09,2.36-8.52s4.26-4.47,5.8-7.12c1.19-2.05,1.83-4.42,1.82-6.79,0-1.62-.28-3.31.35-4.79.52-1.23,1.59-2.12,2.45-3.14,3.2-3.77,3.57-9.11,3.79-14.05.34-7.89-2.9-16.41.32-23.62.85-1.89,2.16-3.54,3.19-5.33s1.81-3.88,1.42-5.92c-.82-4.32.56-8.82.83-13.21.04-.68.14-1.48.73-1.83.68-.42,1.57.04,2.11.62s.95,1.33,1.66,1.7c1.22.64,2.81-.21,3.42-1.44s.53-2.69.36-4.06c-1.08-8.73.18-18.74.18-27.67,0-10.44.1-20.88.3-31.32.08-4.58,2.19-8.73,4.25-12.71,2.21-4.28,2.91-8.3,4.45-12.83.71-2.09,1.24-4.25,1.6-6.43.69-4.25.68-8.58.67-12.89,0-2.09,0-4.18-.01-6.27-.01-4.95-.52-9.92-2.17-14.59-.35-.99-.74-1.98-.81-3.03-.18-2.74,1.86-5.47,1.01-8.09-1.92-5.95,1.77-12.02,3.16-18.12,1.1-4.83,1.71-9.77,1.8-14.72.07-3.32.07-6.67-.75-9.89-.89-3.49-2.53-7.06-1.59-10.53,1-3.7,2.47-7.02,2.85-10.83.28-2.8.25-5.65.87-8.4.34-1.51.87-2.97,1.25-4.46.53-2.07.78-4.2,1.04-6.33.26-2.16.51-4.32.77-6.48.45-3.8.4-7.25-.91-10.84-.94-2.57-2.62-4.81-3.53-7.39-1.3-3.71-.78-8.19-2.75-11.66-1.13-1.99-3.76-3.53-4.38-5.75s.4-5.13,1.04-7.14c1.83-5.73,4.15-10.69.58-16.3l-1.6-.03c-3.28,1.02-5.69,3.26-7.6,6.11s-3.51,5.97-5.98,8.36c-8.93,8.65-18.3,18.16-28.41,25.39-1.97,1.41-4.48,2.8-6.24,4.48-9.11,8.71-18.68,16.94-28.67,24.62-3.15,2.42-6.82,5.19-10.07,7.47-6.07,4.25-12.6,7.8-18.78,11.88s-12.1,8.78-16.38,14.83c-2.9,4.09-6.87,7.52-10.98,10.4-.92.65-1.96,1.4-2.1,2.51-.18,1.4,1.11,2.51,2.27,3.32,7.66,5.32,15.84,10.35,21.35,17.88s13.15,12.12,14.81,20.94c-1.87.19-3.74.38-5.61.57-1.06.11-2.17.23-3.07.82-.83.55-1.38,1.43-1.82,2.32-1.4,2.8-2.09,5.94-1.98,9.07.28,8.23,5.64,15.16,9.33,22.52.66,1.31,1.29,2.68,1.4,4.15.27,3.5-2.41,6.46-4.89,8.93-2.4,2.39-4.73,4.84-7.06,7.3-.99,1.04-2.42,2.12-3.21,3.31-.72,1.09-.88,2.48-1.22,3.76-1.54,5.9-1.86,12.12-.92,18.15.15,1,.48,1.65,1.17,2.39,3.75,4.06,7.93,7.72,11.34,12.07,3.5,4.45,4.28,9.94,1.26,14.96-1.41,2.35-2.53,1.96-5.08,2.12-2.37.15-4.74.48-6.95,1.4-1.99.83-3.92,2.35-4.28,4.47-.66,3.88,4.16,7.4,2.92,11.14-.14.42-.38.84-.78,1.04-.39.19-.85.14-1.28.14-2.39.02-4.39,2.04-5.14,4.31s-.51,4.73-.2,7.1c.34,2.6,1.39,3.38,1.32,6-.01.53-.06,1.07-.28,1.55-.4.86-1.3,1.36-2.18,1.7-2.38.95-5.02,1.21-7.32,2.34-.5.24-.99.54-1.29,1-.25.38-.34.85-.42,1.3-.24,1.41-.34,2.84-.32,4.26.03,1.78.19,3.77-.98,5.11-.81,5.15-4.96,8.58-9.76,10.61s-10.21,2.15-15.38,1.54-10.25-1.93-15.41-2.67c-.57-.08-1.24-.12-1.62.31-.7.78.34,1.9,1.25,2.42,8.26,4.7,16.87,9.52,26.35,10.18.99.07,1.43.31,2.43.29,2.58,10.75,6.06,21.28,10.38,31.45,1.2,2.83,2.47,5.64,3.25,8.62.95,3.64,1.14,7.44,1.18,11.21.04,4.77-.16,9.55-.6,14.3-.78,8.33-.5,18.67-3.56,26.46-1.45,3.69-3.52,7.12-4.94,10.83-3.62,9.49-2.67,20.08-.88,30.08,2.84,15.82-2.86,33.04-9.23,47.8-2.69,6.22-9.32,9.64-15.65,12.06s-13.09,3.47-19.78,4.5c-5.91-.33-11.81-.51-17.73-.35-1.3.03-2.72.13-3.69,1-.68.61-1.02,1.52-1.29,2.39-3.08,10.02-.33,20.94-2.19,31.26-1.7-3.25-3.4-6.5-5.1-9.74-4.07-7.79-8.19-15.69-10.1-24.27-.64-2.89-1.03-5.83-1.34-8.77-.24-2.26-.43-4.55-.16-6.8.26-2.15.95-4.22,1.7-6.24s.7-3.91,1.04-6.05c.7-4.41,2.38-8.6,4.03-12.72-.96-.12-1.82.53-2.6,1.11-5.22,3.88-11.91,5.73-18.38,5.1-12.4-1.21-25.2-1.48-37.32-4.4-8.91-2.15-15.62-9.78-22.44-15.9-.37,4.82.21,9.7,1.69,14.3.78,2.44,1.82,4.83,2.07,7.38.51,5.27,1.54,10.73,1.94,16.01.39,5.2.13,10.88-3.17,14.91-2.15,2.63-5.41,4.29-7.12,7.22-1.61,2.76-1.57,6.14-1.49,9.33.12,4.42.23,8.84.35,13.26.27,10.14-.71,20.92-4.48,30.34-1.02,2.54-2.93,5.44-5.64,5.06-1.24-.17-2.26-1.04-3.2-1.86-3.79-3.32-7.59-6.65-11.38-9.97-3.69-3.24-6.77-7.27-10.63-10.5-5.34-4.46-11.21-9.03-18.14-9.59,1.77,2.56,2.78,5.65,2.85,8.77.03,1.43-.11,2.93.46,4.25,1.85,4.31,2.5,10.22,3.35,14.83,2.57,13.9,6.01,27.56,9.34,41.29,1.33,5.47,2.66,10.96,3.36,16.56.33,2.66-.07,5.4-.06,8.09,0,2.93.15,5.86.42,8.79.34,3.75.9,7.47,1.3,11.21.49,4.58.68,9.06,1.86,13.53,3.03,11.49.48,23.26-6.1,33.11-1.84,2.76-4.82,5.42-6.16,8.44-.44,1-.45,2.14-.83,3.18-.61,1.66-1.51,3.23-2.32,4.8-6.45,12.49-11.88,25.57-15.29,39.22-3.17,12.7-4.06,25.89-7.4,38.55-3.16,11.99-5.51,24.11-7.14,36.4"/>
  <path class="cls-8" d="M444.43,503.39c-4.49,3.17-4.3,9.91-7.3,14.51-2.09,3.2-5.57,5.16-8.46,7.66s-5.38,6.27-4.34,9.95c.1.35.24.71.51.96.27.25.65.35,1,.44,10.65,2.66,22.34.85,31.69-4.9,1.79-1.1,3.55-2.4,4.55-4.25,5.24-9.68,10.36-19.47,13.61-29.98,1.91-6.19-1.47-12.86-2.79-19.2-2.66,3.37-5.33,6.75-7.99,10.12-1.59,2.01-3.21,4.05-5.32,5.51-2.96,2.05-6.6,2.77-9.94,4.11s-6.69,3.71-7.38,7.24"/>
  <path class="cls-5" d="M758.72,217.59c.5-.12,1.03.19,1.32.62s.38.95.44,1.47c.39,3.26-.35,6.53-1.07,9.73s-1.46,6.48-1.08,9.73c.38,3.26,2.47,6.04,5.09,8.02,2.37,1.79,5.44,2.38,8.4,2.48s5.94-.25,8.9-.09,6.02.89,8.27,2.84c1.14.98,2.01,2.24,2.78,3.53,1.17,1.98,2.29,3.16,3.14,5.29.81,2.03,1.63,4.09,3,5.79,1.65,2.05,4.06,3.48,6.65,3.94,3.38.6,6.83-.41,9.99-1.75s6.33-1.93,9.27-3.7c2.18-1.31,4.58-2.68,7.1-2.35.95.12,3.76,1.48,4.57.74.66-.6.75-3.49,1.05-4.42.97-3.01,2.56-5.81,4.57-8.23.93-1.12,1.97-2.18,3.23-2.92,1.07-.63,2.26-1.01,3.46-1.31,1.8-.46,3.66-.75,5.51-.61.69.05,1.37.17,2.05.31,7.84,1.61,14.93,6.6,19.1,13.44.58.94,1.1,1.93,1.39,3,.39,1.46-.19,3.53.53,4.81.58,1.04,1.42,1.1,1.54,2.5.3,3.6.17,6.73,1.63,10.17,1.2,2.83,4.35,4.14,6.93,5.55,4.85,2.65,9.73,5.53,13.25,9.79,1.5,1.81,2.57,3.68,3.72,5.73.88,1.57,1.77,3.13,2.65,4.7.32.56.64,1.14.77,1.77.15.7.06,1.42-.07,2.12-.31,1.65-.85,3.25-1.6,4.75-.93,1.86-2.22,3.9-1.51,5.86,1.67.02,3.24-.77,4.69-1.6,4.51-2.58,9-5.29,12.25-9.34,1.89-2.35,3.78-4.7,5.67-7.05,2.63-3.28,5.3-6.58,8.63-9.14,1.11-.85,2.3-1.62,3.63-2.06,1.23-.41,2.53-.52,3.83-.54,5.75-.12,11.38,1.37,17.12,1.48,4.44.09,10.01.42,12.63-3.97,2.76-4.63.35-10.83,2.42-15.8.7-1.67,1.86-3.1,3.01-4.5.27-.34.62-.7,1.05-.67.25.02.46.17.67.31,1.98,1.4,3.95,2.79,5.93,4.19.14.1.29.21.32.38.03.15-.06.31-.14.44-.39.66-.95,1.24-1.17,1.98-1.38,4.62,1.99,9.61.97,14.32-.48,2.21-1.16,4.41-2.42,6.29-.83,1.24-1.95,2.35-3.27,3.05-1.23.65-2.13.35-3.41.53-3.29.47-6.56,2.41-9.67,3.52-3.68,1.31-7.43,2.45-10.92,4.2s-6.24,4.55-8.88,7.43c-4.13,4.51-7.63,9.99-9.41,15.84-1.11,3.65-2.17,7.33-3.15,11.02-.56,2.11-.52,3.56-.77,5.73-.18,1.56-.5,3.11-.96,4.62-.24.78-.51,1.55-.91,2.26-.43.76-1,1.44-1.56,2.12-.76.91-1.37,1.91-2.23,2.73-4.18,3.95-6.57,9.74-6.4,15.49.05,1.74.39,3.37.57,5.1.55,5.42,1.1,10.85,1.65,16.27.04.39.08.8-.08,1.16-.17.38-.53.64-.89.86-4.43,2.72-10,2.49-15.19,2.16-6.45-.4-12.98-.82-19.1-2.9-3.04-1.03-6.12-1.75-9.23-2.53-9.38-2.38-17.85-7.35-26.4-11.86-6.15-3.24-15.26-5.92-22.21-3.97-1.54.43-2.99,1.12-4.43,1.8-2.01.95-2.61,1.14-4.64,2.05-2.36,1.06-4.71,2.16-6.78,3.71-1.83,1.36-3.4,3.05-5.25,4.38-1.66,1.19-3.51,2.09-5.4,2.86-5.16,2.11-10.89,2.65-16.43,3.24-7.14.77-14.55-1.29-20.28-5.63-.75-.57-1.48-1.19-1.94-2-1.16-2.04-.34-4.57-.2-6.92.24-4.1-1.97-8.25-5.5-10.35-1.78-1.06-3.83-1.61-5.61-2.68s-3.06-3.2-2.52-5.2c1.25-4.64-1.56-10.01-6.08-11.64-1.67-.6-3.61-.8-4.83-2.09-1.6-1.69-1.21-4.37-1.01-6.69.37-4.37,1.41-10.61-1.86-13.53-2.55-2.28-6.33-2.33-9.76-2.26-3.05.07-6.1.14-9.15.2-.47.01-1,0-1.32-.35-.25-.27-.29-.66-.32-1.02-.8-9.92,1.14-20.04,5.57-28.95,2.06-4.16,4.73-8.33,4.65-12.97-.05-2.79-.85-4.93-1.8-7.56-1.96-5.43-4.02-11.03-8.01-15.2-.5-.53-1.05-1.04-1.36-1.7-.28-.58-.36-1.23-.42-1.87-.87-9.13-1.56-18.35,1.96-26.81,2.04-4.91,4.12-9.99,4.09-15.31-.02-3.75-1.08-7.43-1.09-11.18,0-.53.03-1.11.37-1.52.37-.47,1.02-.61,1.61-.7,2.35-.36,4.75-.43,7.11-.21,5.24.49,7.09,6.92,11.72,9.43,4.33,2.34,9.86,1.47,14.16,3.86,1.14.63,2.02,1.35,3.16,1.99Z"/>
  <path class="cls-5" d="M236.95,706.71c12.2,17.19,26.05,32.23,39.25,48.66.25.31.54.64.93.66.65.03.98-.75,1.15-1.38,1.8-6.65,6.05-12.32,10.21-17.81,1.44-1.9,1.86-4.2,3.04-6.27,2.97-5.24,2.71-11.63,2.37-17.65-.4-6.93-2.23-13.76-2.29-20.71-.03-4.07-1.11-8.04-1.09-12.11.03-5.5-.53-10.71-1.47-16.13-1.24-7.18-2.01-13.32-4.05-20.32-.46-1.57-.95-3.19-.77-4.82.1,0,.35.49.25.48s-.15-.13-.18-.23c-2.06-6.28-3.7-12.7-5.33-19.1-1.14-4.5-2.3-9.08-1.97-13.71.28-3.97-1.45-7.34-2.63-11.14-1.5-4.82-2.38-9.81-2.98-14.82-.05-.44-.37-.7-.75-.94-2.83-1.8-5.42-3.94-8-6.07-10.94-9.03-18.7-22.52-18.56-36.71.1-9.96-1.62-19.87-1.6-29.83.03-12.81.51-25.86.71-38.66.04-2.77.4-5.52.87-8.24.24-1.39.51-2.78.79-4.17.26-1.28.84-2.83.81-4.13-.03-1.22-.49-2.58-.68-3.8-.22-1.42-.42-2.84-.59-4.26-.16-1.31-.3-2.63-.41-3.95-.1-1.12.05-2.18-.07-3.3-.29-2.76-.59-5.51-.88-8.27-.13-1.18-.25-2.36-.31-3.54-.04-.91-.04-1.82-.14-2.72-.18-1.66-.82-3.13-1.26-4.72s-.92-3.04-1.54-4.53c-1.29-3.11-2.82-6.15-3.62-9.44-.58-2.4-.76-4.9-.52-7.36.18-1.85.03-3.53-.62-5.27-.04-.11-.09-.22-.19-.27-.11-.05-.24-.01-.36.03-.72.25-1.43.51-2.15.76-2.16.77-4.52,2.22-6.74,2.63-2.46.45-4.53.48-6.87,1.69-1.87.97-3.66,2.18-5.25,3.55-1.48,1.28-3.06,2.08-4.77,3.09-7.34,4.34-13.3,10.99-16.78,18.78s-7.44,14.87-8.64,23.3c-1.2,8.43-1.27,16.98-2.17,25.45-.95,8.98.25,17.63.21,26.56-.04,8.32-.27,16.58.5,24.96,1.64,17.93,5.4,35.58,9.14,53.16,5.34,25.07,9.87,50.36,16.26,75.3,5.47,21.4,17.08,39.43,29.78,57.33Z"/>
  <path class="cls-5" d="M554.46,471.56c-.26,4.39-.2,8.79.19,13.17.04.47.1.97.36,1.36.37.55,1.06.77,1.71.89,2.35.42,4.86-.14,6.81-1.51-.3.21,9.07,20.23,9.94,22.04,3.73,7.84,7.83,15.5,12.29,22.95,3.25,5.44,5.45,11.36,8.42,16.94s5.96,10.63,9.03,15.86c6.66,11.34,13.78,22.42,21.33,33.19,12.4,17.68,28.28,33.45,46.02,45.76,3.09,2.15,6.83,2.98,10.13,4.79,4.95,2.72,10.32,4.67,15.86,5.76,3.42.67,6.78,1.72,10.22,2.32,4.58.81,9.3-.19,13.66-1.8,2.05-.76,4.06-1.67,5.84-2.93,3.59-2.54,6.09-6.41,7.69-10.5s2.41-8.46,3.2-12.79.27-8.55,1.35-12.75c.72-2.8,1.71-5.54,2.28-8.37.66-3.25.78-6.58.89-9.89.1-2.98.21-5.95.31-8.93.17-4.91-.62-9.82-.22-14.71.4-4.9,1.77-9.81,4.66-13.79.31-.43.74-.9,1.27-.86.54.04.88.57,1.14,1.04,2.06,3.63,4.61,6.98,7.54,9.97,2.61,2.67,5.33,6.1,8.5,8.08,1.42.89,3,1.48,4.4,2.39,1.31.86,2.43,1.99,3.74,2.85s2.94,1.43,4.45,1c2.08-.61,3.17-2.85,3.9-4.9.77-2.18.87-3.9,2.2-5.76s2.82-3.49,4.1-5.34c1.13-1.62,2.26-3.25,3.68-4.63,2.26-2.19,5.23-3.65,8.34-4.1,2.78-.41,5.34-1.88,8.02-2.73,4.18-1.33,8.59-.32,12.68-1.91,1.52-.59,3.05-1.36,4.02-2.66,1.11-1.48,1.34-3.44,1.26-5.28-.15-3.5-1.3-6.82-2.13-10.18-.72-2.9-.46-5.89-1.06-8.7-1.27-5.94-6.3-12.46-10.04-17.07-3.82-4.71-8.06-9.88-13.71-12.25-1.07-1.67-2.37-2.96-3.71-4.43-3.9-4.3-3.62-10.98-6.56-15.99-4.78-8.14-7.64-16.3-8.92-25.66-1.68-12.3-7.88-23.36-13.11-34.62-1.93-4.15-5.51-7.72-9.12-10.54-1.49-1.17-3.15-2.25-5.03-2.44-.84-.09-1.74.03-2.42.52s-1.09,1.44-.78,2.22c-1.76.25-3.15-1.35-4.57-2.42-1.92-1.46-4.43-2.11-6.82-1.76-5.8-1.15-11.83,1.69-16.7,5.05s-9.59,7.32-15.36,8.63c-9.66,2.2-18.51,7.67-26.49,13.54-3.23,2.37-6.36,5.01-8.54,8.37s-3.3,7.59-2.25,11.45c4.13,15.12,8.68,30.76,8.71,46.43.01,7.69.22,14.92.39,22.61.01.64-.03,1.41-.57,1.75-.42.27-.98.16-1.44-.03-1.18-.48-2.13-1.39-3.01-2.31-7.82-8.11-13.25-18.41-21.77-25.78-4.34-3.75-6.49-7.77-10.89-11.44-1.79-1.5-3.68-2.94-5.05-4.83-1.14-1.56-1.89-3.36-2.54-5.18-.98-2.73-1.75-5.53-2.32-8.37-2.34-11.81-5.52-23.95-12.35-33.86-1.66-2.4-3.52-4.85-3.9-7.74-.87-6.61-4.99-11.79-8.17-17.65-1.22-2.23-2.73-4.29-4.24-6.33-1.8-2.43-3.59-4.86-5.39-7.29-9.01-12.2-24.46-17.91-38.83-22.77-4.28-1.45-8.6-2.82-12.87-4.33-1.69-.6-3.55-1.19-5.23-.55-.27.1-.54.25-.71.48-.19.27-.23.62-.25.95-.63,8.2,1.41,16.35,3.43,24.33,3.54,13.96,8.1,27.2,10.59,41.39.99,5.63.68,11.28,1.4,16.95,1.2,9.45,1.67,16.09,1.1,25.61Z"/>
  <path class="cls-5" d="M353.06,403.81c.16-.03-.03.27-.12.15s.03-.3.15-.39.29-.2.27-.36c-.36-3.94.03-7.95,1.14-11.75.55-1.88,1.33-3.78,2.79-5.09s4.39-1.97,6.07-.96c.79,1.76,1.58,3.52,2.37,5.28.36.79.91,1.71,1.77,1.68.69-.02,1.18-.66,1.54-1.25,3.82-6.31,4.3-13.88,4.61-21.06s-.35-15.39-1.4-22.46c-.61-4.07-2.42-7.85-3.68-11.76-.94-2.93-1.57-5.95-2.2-8.97-1.51-7.25-3.01-14.49-4.52-21.74-.72-3.46-1.07-6.38-.68-9.92.37-3.33,1.16-6.6,1.52-9.93,1.19-10.99-.96-24.33-7-33.72-.82-1.27-1.73-2.51-2.31-3.9s-.81-3.02-.23-4.42c1.04-2.5,4.11-3.34,6.78-3.75,10.6-1.63,20.26-3.24,30.79-1.22,6.63,1.27,13.36-1.23,19.56-3.9,4.1-1.77,8.18-3.64,11.85-6.19,8.04-5.59,14.31-13.92,19.26-22.36,3.58-6.11,7.16-12.23,10.74-18.34,1.66-2.84,3.38-5.74,5.95-7.79,1.71-1.36,3.72-2.28,5.71-3.19,7.07-3.22,13.61-7.53,20.98-9.95,1.86-.61,3.5-1.91,4.51-3.6.51-.84.87-1.79,1.54-2.52.82-.9,2.02-1.37,3.22-1.52s2.42-.02,3.63.14c3.34.43,6.83,1.11,10.2,1.01,5.39,1.2,10.67,2.86,15.78,4.95.49.2,1.21.74.93,1.19-1.24,1.98-2.44,4.07-2.79,6.38-.34,2.24.13,4.49.71,6.65.26.98.15,1.8.3,2.78.15,1.04.55,2.03.98,2.98,2.71,5.97,5.08,11.26,8.52,16.84.81,1.31.51,3.06-.27,4.39s-1.97,2.35-3.05,3.45c-1.28,1.31-2.43,2.75-3.61,4.15-1.87,2.2-4.21,3.65-6.03,5.88-1.07,1.31-1.87,2.83-2.54,4.39-.87,2.03-1.56,4.2-1.58,6.43,0,1.12-.07,1.88-.33,2.97s-.42,2.11-.52,3.18c-.31,3.39.7,6.77,2.08,9.88.45,1.01.94,2,1.62,2.86.51.64,1.12,1.2,1.73,1.74,1.57,1.39,2.99,2.65,4.61,3.98,4.46,3.68,8.68,10.05,6.65,15.46-.66,1.76-2.07,3.23-3.81,3.96-.8.34-1.66.52-2.52.7-1.87.39-3.75.76-5.63,1.11-1.49.28-3.19,0-4.51.9-1.06.72-1.62,2-1.74,3.27s.15,2.54.47,3.78c.52,2.01,1.35,3.93,2.42,5.7.69,1.13.31,2.78-.8,3.51-.66.43-1.46.53-2.2.78-.94.31-2.11.48-2.68,1.28-1.1,1.56-1.37,3.56-1.38,5.47s.3,3.65.05,5.54c.84,1.24,1.33,2.71,1.42,4.21.02.37.01.77-.2,1.07-.16.24-.43.38-.68.51-3,1.55-6.37,2.41-9.12,4.36-.58.41-1.14.88-1.45,1.52-.51,1.03-.23,2.24-.49,3.32-.16.65-.22,1.34-.19,2.01.02.39.38,1.35.27,1.68-1.17,3.46-2.43,7.05-5.05,9.6-2.44,2.38-5.77,3.57-9.06,4.46-2.39.65-4.83,1.19-7.31,1.27-3.87.13-7.68-.86-11.43-1.85-2.87-.75-5.94-1.47-8.81-2.22-8.38,7.82-13.43,19.19-12.56,30.61-1.32,2.63-2.65,5.26-3.97,7.89-.91,1.81-1.83,3.65-2.27,5.62-.41,1.85-.4,3.77-.33,5.66.13,3.26.49,6.88.93,10.11.72,5.26,4.3,11.34,1.49,15.84-3.22,5.15-8.61,12.17-8.33,18.46.33,7.4-.22,14.82-2.19,21.99-2.53,9.22-5.05,18.44-7.58,27.66-.73,2.67-1.47,5.36-2.58,7.89-1.43,3.26-2.52,6.49-3.51,9.9-1.51,5.19-5.64,9.21-10.08,12.31-1.71,1.19-3.5,2.3-5.48,2.94-2.83.92-5.88.86-8.85.75-3.61-.13-7.22-.31-10.82-.5-2.65-.13-5.3-.27-7.94-.51-6.53-.59-12.8-3.02-19.33-3.52-5.32-.41-9.76-4.04-13.82-7.51-1.07-.92-2.46-1.67-3.41-2.71-1.81-1.96-3.51-4.03-5.07-6.19-.29-.41-.59-.83-.7-1.32-.14-.65.06-1.33.26-1.96.83-2.67,1.51-5.41,1.65-8.2.27-5.4-1.49-10.75-1.11-16.14.34-4.87-2.18-9.35-2.12-14.24.07-5.2,2.06-9.05,5.8-12.46,3.91-3.56,8.7-7.12,12.13-11.11,2.95-3.43,4.69-8.84,5.23-13.29.52-4.26-.69-6.77.97-10.72Z"/>
  <path class="cls-7" d="M869.04,594.58c1.95,4.64,6.28,7.87,10.82,10.03s9.45,3.47,14.02,5.58,7.68,5.97,10.88,9.85c6.73,8.13,16.94,12.37,26.73,16.3,4.77,1.92,9.7,3.87,14.85,3.79.57,0,1.17-.05,1.65-.36.71-.46.97-1.37,1.14-2.2.74-3.55.89-7.21.88-10.84-.02-8.48-.04-16.96-.05-25.44-.01-6.39-.05-12.93-2.2-18.96-2.15-6.02-5.92-10.85-12.04-12.69-4.81-1.44-9.61-2.89-14.42-4.33-1.45-.43-2.92-.88-4.16-1.75-2.06-1.44-3.2-3.82-4.25-6.09-1.34-2.89-2.71-5.93-2.53-9.11.31-5.64,4.94-9.7,7.07-14.93,1.18-2.89,2.07-5.95,2.02-9.07-.04-2.42-.64-4.79-1.12-7.16-1.71-8.35-1.12-16.85-2.27-25.29-2.2-16.11-1.18-31.11-1.84-47.36-.37-9.27-.68-18.92,3.11-27.38.91-2.03,2.04-3.96,3-5.97.96,3.62,1.92,7.24,2.89,10.86.41,1.54.82,3.08,1.49,4.53.7,1.52,1.61,2.21,1.7,3.88.09.13.12.29.15.45.82,4.7,1.88,9.48,1.53,14.24-.32,4.3-.63,8.64.1,12.89.24,1.38.71,2.56.75,3.96.15,5.03.34,10.22,2.41,14.81.39.87.54,1.73.92,2.6,1.25,2.86,2.5,5.73,3.93,8.5,1.06,2.05,1.9,3.94,1.93,6.24.03,2.02.38,4.04,1.04,5.95,1.11,3.21,2.81,5.5,6.02,6.62.66,1.26,2.11,1.88,3.47,2.3s2.83.8,3.81,1.84c.8.85.9,2.1.99,3.27.29,3.82.6,7.71,2.06,11.24.72,1.74,1.72,3.39,1.41,5.24,3.03,4.92,6.06,9.85,9.08,14.77.58.95.62,1.99,1.04,3.02.78,1.92,1.16,3.98,1.47,6.03.56,3.66.92,7.34,1.1,11.03.15,3.19.25,6.53,1.32,9.59,2.08,5.93,4.41,11.77,7,17.5.96,2.13,1.3,4.18,1.66,6.49.97,6.12,4.3,10.83,5.3,16.94.85,5.18,1.69,10.37,1.97,15.62.14,2.61.11,5.22-.07,7.83-.17,2.37.16,4.47-.94,6.71-.48.98-1.13,1.89-1.51,2.92-.56,1.52-.48,3.2-.39,4.82.07,1.36-.4,1.35-.12,2.68.65,3.1,1.23,6.61-.55,9.23-.51.75-1.18,1.37-1.73,2.1-2.42,3.25-1.71,7.93.11,11.55s4.31,7.83,7.19,10.68c3.18,3.15,6.09,7.04,7.86,11.16,1.12,2.61,1.77,5.39,2.83,8.03,1.88,4.69,4.16,7.9,8.24,10.88,8.42,6.16,17.6,11.41,27.45,14.85,4.4,1.54,9.04,2.18,13.61,3.01s8.91,2,13.47,2.46c1.31.13,2.76.38,4.07.18,1.04-.16,1.59-.22,2.65.08,2.68.78,5.37,1.49,8.11,2.03,2.45.49,5.42,1.33,7.93,1.16,3.04-.21,6.09-.42,9.13-.63,2.3-.16,4.63-.32,6.82-1.06,1.99-.67,4.4-1.7,6.38-1.02v126.55l-150.56,3.3c-.74.1,5.01-9.8,7.17-14.08.55-1.09,1.08-2.21,1.38-3.4.29-1.14.35-2.33.68-3.45.51-1.73,1.61-3.22,2.69-4.67,5.38-7.21,11.63-15.76,16.64-23.23,7.02-10.45,11.35-21.24,10.38-34.09-.19-2.5-.34-2.91-2.8-3.49-4.71-1.12-9.51-1.66-14.2-2.96-8.97-2.5-17.66-6.51-24.25-13.23-9.77-9.95-24.12-12.41-38.03-13.46-10.27-.77-20.11-4.26-29.81-7.72-5.77-2.06-11.56-4.12-16.96-7.01-5.4-2.89-12.86-5.67-13.85-11.71-.61-3.72-.83-7.51-.64-11.28.05-1.08.14-2.17-.07-3.22-.26-1.29-.94-2.45-1.69-3.53-2.49-3.62-5.83-6.66-9.67-8.81-7.94-4.44-17.65-4.96-25.44-9.66-3.92-2.36-8.09-3.94-12.03-6.32-4.2-2.54-8.17-5.44-11.86-8.66-6.14-5.37-13.35-9.03-20.93-12.08-2.35-.95-4.71-1.89-7.1-2.74-7.11-2.53-14.57-4.21-21.26-7.69-2.81-1.46-4.12-1.24-6.76-2.99-1.97-1.31-3.94-2.62-5.91-3.94-.27-.18-.56-.38-.73-.66-.22-.37-.22-.82-.19-1.25.4-7.51,6.25-13.47,6.52-20.99.07-2.05.47-4.1,1.18-6.02.24-.65.53-1.32,1.06-1.78.61-.53,1.43-.72,2.21-.93,5.06-1.34,9.5-4.26,13.61-7.42,3.81-2.93,7.52-5.19,10.3-9.21,4.52-6.54,8.8-13.28,13.12-19.96,3.57-5.52,5.52-12.28,10.51-16.57,3.87-3.32,9.04-4.65,14.06-5.58,6.72-1.24,13.53-1.93,20.33-2.62,1.46,6.77,7.28,12.56,12.95,16.53,5.67,3.97,12.09,6.74,18.02,10.31,5.93,3.57,10.85,6.66,13.54,13.04Z"/>
  <path class="cls-1" d="M349.4,103.23c-3.08,3.73-6.17,7.48-9.84,10.63-4.68,4.02-10.2,6.98-14.86,11.03s-8.55,9.68-8.32,15.84c.34,8.86-1.3,17.66-1.87,26.5-.04.58-.1,1.22-.52,1.62-.44.43-1.13.46-1.75.5-4.11.31-7.93,3.06-9.54,6.85-3.9,9.2,2.76,18,6.31,25.99,3.98,8.96,4.43,19.42,1.26,28.69-1.17,3.42-1.85,7.32-3.44,10.57-8.05,16.54-14.15,34.03-18.11,51.99-2.38,10.8-8.05,20.56-10.63,31.32-3.16,13.19-10.2,26.56-12.54,39.92-.97,5.52-1.04,11.3-3.23,16.46-1.06,2.52-1.34,5.78-2.15,8.39-3.92,12.59-7.35,25.34-10.28,38.2-1.41,6.19-2.47,12.23-3.25,18.48s-2.97,12.07-2.66,18.28c.04.73.11,1.47.22,2.19.44,2.87-.96,5.23-1,8.13-.01,1.01.01,2.02.04,3.03.11,4.41.09,8.82.15,13.22.03,2.18.2,4.36-.06,6.51s-.49,4.43-.41,6.65c.09,2.46.46,4.78.36,7.22-.1,2.62.07,5.26.33,7.87.52,5.25,1.46,10.47,1.68,15.75.15,3.62-.03,7.34,1.09,10.79.73,2.25,1.53,4.47,2.44,6.65s.99,4.16,2.12,6.18c2.52,4.52,5.51,8.82,9.26,12.39,2.83,2.7,6.1,4.99,9.71,6.5,1.65.69,3.03.93,4.6,1.91,1.78,1.12,3.53,2.27,5.26,3.47,6.92,4.77,13.44,10.13,19.45,15.99,1.02,1,2.03,2.01,3.02,3.04,2.62,2.71,5.57,4.88,8.3,7.48,1.11,1.06,2.42,2.19,3.95,2.06,1.65-.14,2.78-1.71,3.59-3.15,1.24-2.2,2.3-4.49,3.19-6.85.54-1.43.22-3.13.54-4.65.79-3.79,1.57-7.58,2.06-11.42.65-5.17-.07-10.36-.64-15.53-.42-3.78.01-7.67.1-11.47.04-1.92.97-3.69,2.1-5.24,1.38-1.88,2.78-3.77,4.59-5.23.93-.75,1.97-1.37,2.76-2.27.78-.89,1.29-2.02,1.42-3.2.11-.95.18-2.01.45-2.93.82-2.72,1.1-5.59.83-8.42s-.33-5.44-.98-8.09c-.26-1.07-.53-2.14-.79-3.21-.58-2.36-.75-4.9-1.55-7.19-1.28-3.64-2.22-7.39-2.8-11.2s-.11-7.52.14-11.27c.17-2.46,1.34-4.24,1.91-6.64.56-2.33-.09-4.46,0-6.77s-.11-4.48-.56-6.82c-.67-3.51-1.33-7.02-2-10.53-.37-1.94-.33-3.91-.29-5.87.04-1.82-.27-3.71-.19-5.49.16-3.5,2.9-7.06,5.21-9.47,2.71-2.82,5.91-5.11,8.81-7.74,1.4-1.27,3.07-2.65,4.31-4.07.72-.82,1.25-1.78,1.73-2.76,3.3-6.83,3.69-14.66,4.03-22.24.1-2.19.21-4.26.56-6.43.34-2.11.68-4.23,1.46-6.22s2.03-3.86,3.84-4.99c.4-.25.82-.46,1.29-.53.47-.07.95.02,1.41.16,2.11.63,3.88,2.28,4.66,4.33.35.93.51,1.91.82,2.85.71,2.15,2.58-2.35,2.9-3.01,3.65-7.52,2.46-16.05,2.92-24.19.27-4.66.53-9.35-.18-13.96-.24-1.55-.4-3.11-.73-4.64-.66-3.05-2.21-5.85-3.27-8.77-.79-2.19-1.39-4.44-1.79-6.74-.38-2.15-.25-4.13-.81-6.24-1.29-4.87-2.3-9.82-3.03-14.81-.41-2.8-1.09-4.72-1.72-7.48-.92-3.97-.98-8.13-.19-12.12.19-.96.19-1.94.43-2.88.38-1.5.93-3.04,1.23-4.55s.13-3.21.15-4.77c0-1.91.08-3.72-.28-5.6-.39-2.01-1.28-3.87-1.78-5.85-.44-1.71-.59-3.49-1.07-5.2-.75-2.62-2.26-4.94-3.75-7.21,0-.7-.33-1.76-.68-2.37-1.08-1.82-3.77-4.79-3.08-6.67s4.54-3.59,6.22-4.24c.88-.34,1.8-.61,2.63-1.06,6.25-3.37,14.73-1.75,21.81-1.13,4.98.44,9.97,1.47,14.93.84,7.95-1.02,14.59-4.94,21.49-9.03,2.11-1.25,4.15-2.64,5.89-4.36,2.97-2.95,5.96-5.39,8.51-8.82,3.68-4.95,7.21-10.01,10.57-15.18,2.83-4.35,4.65-8.67,7.26-13.16,1.19-2.04,2.39-4.1,3.9-5.92,4.42-5.31,11.08-8.14,17.54-10.58,3.61-1.36,7.29-3.28,10.78-4.93,1.15-.55,2.33-1.11,3.28-1.95.96-.85,1.65-1.95,2.49-2.91,1.28-1.48,3.59-3.52,5.64-3.73,2.35-.24,5.6.95,7.96,1.33,4.3.71,8.75.52,12.98,1.7,1.99.56,3.8,1.88,5.84,2.47,2.6.75,5.27,1.45,7.98,1.33,1.75-.07,3.84-.85,4.07-2.59.06-.47-.03-.95-.14-1.42-.48-1.99-1.33-3.88-2.48-5.57-1.09-1.59-2.44-2.98-3.78-4.35-2.08-2.14-4.17-4.29-6.25-6.43-.73-.75-.99-1.85-1.82-2.46-2.54-1.86-4.91-3.96-7.06-6.26-.36-.38-.84-.7-1.18-1.09-4.57-5.23-10.19-9.53-16.42-12.58s-13.06-5.63-19.02-9.2c-5.35-3.2-11.94-2.88-16.95-6.58-1.66-1.23-3.21-2.58-4.83-3.85-6.1-4.78-13.16-8.32-20.64-10.35-8.76-2.38-17.38-4.42-26.45-4.03-4.56.2-9.05,1.1-13.53,2.01-9.54,1.93-19.1,3.86-28.5,6.36-1.63-.3-3.37.77-4.85,1.51-3.54,1.79-7.68,2.5-10.2,5.56Z"/>
  <path class="cls-1" d="M411.6,508.98c2.41-5.58,4.81-11.17,7.22-16.75.31-.71.38-1.69.63-2.42,2.91-8.57,5.72-17.18,8.41-25.83.69-2.2.5-3.99,1.22-6.18,2.24-6.8,4.51-13.81,4.09-20.96-.11-1.77-.38-3.53-.41-5.31-.08-4.16,1.68-8.96,3.65-12.63.65-1.21,1.38-2.38,2.18-3.51.64-.89,1.33-1.78,1.67-2.82.34-1.03.31-2.14.28-3.23-.06-1.91.12-4.39-.28-6.26-1.53-7.13-3.91-15.92-1.12-22.66.88-2.12,1.75-4.25,2.63-6.37.99-2.4,1.98-4.81,2.58-7.33,1.2-5.03.81-10.47,2.93-15.19,1.02-2.28,2.56-4.25,3.92-6.33.7-1.07,1.17-2.3,1.87-3.35.4-.6-.02-.78.83-.85.43-.04,1.16.52,1.51.73,7.87,4.56,16.5,7.79,25.43,9.52,1.46.28,2.97.53,4.44.28.32.42.4.95.54,1.46,1.65,6.11,3.38,12.2,5.11,18.29.17.6.18,1.15.41,1.74,1.88,4.92,3.76,9.84,5.65,14.76.79,2.05.76,3.94,1.46,6.02,2.7,7.97.64,16.55.06,24.95-.62,9.02-1.55,19.31-4.59,27.87-1.45,4.07-4.11,7.57-5.33,11.83s-1.64,8.38-.98,12.59c.98,6.22,1.69,12.47,2.12,18.75.16,2.29.68,4.79.32,7.06-1.31,8.34-2.64,16.77-5.8,24.6-.83,2.05-1.1,4.23-2.01,6.25-2.56,5.7-6.58,10.97-12.16,13.79-2.06,1.04-4.27,1.72-6.47,2.4-5.24,1.61-10.05,5.2-15.51,4.67-8.6-.83-17.08-.55-25.6.88-1.26,10.48-1.82,21.05-1.67,31.6-5.72-7.93-9.34-16.79-13.31-25.72s-4.57-20.12-1.2-29.69c1.06-3.02,2.5-6.01,2.54-9.22,4.44,2.48,8.12,6.55,11.23,10.58.93,1.2,1.56,2.58,2.21,3.94.72,1.51.34,2.61.83,4.11.33,1.03,1.17,1.83,2.11,2.36,1.95,1.09,5.11,1.58,7.3,1.93,4.03.65,8.14-.18,12.12-1.05,2.42-.53,4.86-1.08,7.1-2.15,1.83-.87,3.48-2.06,5.09-3.28,1.63-1.24,3.24-2.51,4.69-3.96,5.14-5.18,7.82-12.24,10.35-19.08,1.29-3.48,2.87-6.76,3.76-10.37,1.06-4.27,1.35-8.83.07-13.04-1.19-3.93-2.24-7.77-3.48-11.69.05,1.98-1.08,3.78-2.18,5.43-2.9,4.38-5.87,8.84-9.96,12.14-3.02,2.42-6.55,4.13-10.19,5.45-2.07.75-4.23,1.4-5.98,2.74-1.62,1.24-2.66,3.09-2.72,5.14-.08,2.63-.61,4.43-1.96,6.73-2.21,3.75-4.6,7.68-8.45,9.73-3.17,1.69-4.9,5.45-6.9,8.45-.57.86-1.3,1.84-2.34,1.84-.63,0-1.18-.38-1.69-.75-3.78-2.7-7.65-5.54-10.07-9.5-.46-.75-.87-1.55-1.05-2.41-.4-1.88.3-3.81,1.11-5.56s.98-3.39,1.74-5.16Z"/>
  <path class="cls-6" d="M747.94,145.61c-1.73.64-2.9,2.22-4.11,3.62-1.4,1.62-2.98,3.07-4.55,4.51-2.66,2.45-5.34,4.91-8.39,6.85s-6.52,3.35-10.14,3.49c-1.54.06-3.18-.09-4.5.7-.94.56-1.56,1.52-2.4,2.23-.75.63-1.67,1.06-2.35,1.77-1.5,1.56-1.45,4-1.31,6.15.29,4.37.38,8.55.44,12.94.03,2.13.07,4.27.37,6.38.27,1.82.74,3.61,1.41,5.33.4,1.04.89,2.07,1.64,2.9s1.79,1.44,2.91,1.47c1.96.04,3.48-1.63,5.31-2.33,1.17-.45,2.44-.49,3.69-.53,1.09-.04,2.2-.07,3.25.24.97.28,1.83.85,2.66,1.43,2.02,1.42,3.94,2.98,5.74,4.68,2.32,2.19,4.54,4.25,7.59,5.17,1.37.41,2.81.51,4.22.76,3.54.63,6.84,2.21,10.08,3.78.39.19.79.38,1.09.69.35.36.55.85.68,1.33.77,2.75-.07,5.65-.75,8.42-.67,2.7-1.21,5.44-1.6,8.2-.33,2.31.39,4.77,1.4,6.87s2.62,3.99,4.72,5c1.34.64,2.83.91,4.3,1.05,4.51.42,9.14-.29,13.56.73,2.51.58,4.9,1.72,6.92,3.32,2.93,2.31,4.62,5.78,6.47,9.02.78,1.36,1.56,2.73,2.34,4.09.48.85.98,1.71,1.68,2.39,1.25,1.21,3.04,1.71,4.78,1.85,1.81.15,3.47-.41,5.24-.43s2.83-.15,4.44-.9c3.66-1.71,7.32-3.43,10.98-5.14,1.7-.8,3.59-1.61,5.4-1.09.7.2,1.34.6,2.06.76,1.7.39,2.14-.83,2.17-2.24s.49-2.43,1.16-3.73c1.45-2.85,3.27-5.52,5.4-7.91.96-1.08,2.02-2.13,3.36-2.65,1.1-.43,2.31-.48,3.5-.52,1.53-.05,3.06-.11,4.59-.16,2.25-.08,4.17-.11,6.11,1.04,2.14,1.26,4.21,2.49,6.23,3.96,1.72,1.26,3.5,2.34,4.9,3.96,1.5,1.73,2.96,3.5,4.2,5.43,3.42,5.31,3.37,11.28,3.55,17.4.05,1.78,1.4,3.28,2.76,4.43.59.5,1.24.94,1.89,1.37,2.41,1.62,4.99,2.94,7.42,4.5s4.72,3.64,6.92,5.65c3.2,2.92,6.3,5.78,8.42,9.62.93,1.68,1.25,3.6,1.56,5.49.11.69.19,1.4.06,2.09-.26,1.33-1.25,2.37-1.93,3.54-.93,1.6-1.27,3.53-.96,5.35,2.19.11,4.23-1.01,6.13-2.09,2.26-1.28,4.55-2.59,6.32-4.48.97-1.04,1.77-2.24,2.56-3.43.65-.98,1.64-1.7,2.46-2.53,3.33-3.38,5.93-7.42,9.23-10.83,3.3-3.41,7.61-6.27,12.35-6.28,4.36-.01,8.62,1.34,12.97,1.63,3.08.21,6.2.41,9.22-.19,1.29-.25,2.57-.67,3.62-1.46,2.28-1.72,2.94-4.8,3.44-7.61.33-1.85.83-4.04.8-5.91-.02-1.65-.49-2.68.53-4.26.63-.97,1.45-1.79,2.09-2.74,2.71-4.09,1.11-9.75-.13-14.11-1.42-4.99-3.69-9.74-6.7-13.96-2.37-3.32-5.21-6.37-6.74-10.15-.52-1.28-.73-2.99-1.37-4.22-3.18-6.12-6.06-12.4-8.63-18.81-1.87-4.67-3.26-8.69-5.87-12.99-1.08-1.78-2.23-3.51-3.19-5.35-1.54-2.95-2.56-6.14-4.19-9.04-.61-1.09-1.1-2.2-1.93-3.13-5.28-5.82-8.05-13.48-12.73-19.79-.82-1.11-1.43-2.44-2.34-3.47-2.44-2.77-4.39-5.93-6.54-8.95-8.93-12.55-21.59-22.66-36.28-27.29-6.67-2.1-13.5-4.94-20.16-7.06-6.66-2.12-13.6-3.7-20.58-3.35-1.41.07-2.12.65-3.5.96-3.32.73-6.64,1.46-9.96,2.2-5.84,1.29-11.69,2.58-17.37,4.42-6.36,2.07-12.57,4.76-18.59,7.66-9.79,4.72-19.58,9.45-29.28,14.36-2.93,1.48-5.84,2.98-8.75,4.5-.57.3-1.16.61-1.53,1.14-.29.41-.41.92-.35,1.41-.78.29-.82.61-1.6.9Z"/>
  <path class="cls-4" d="M290.9,279.31c-14.06-6.2-21.7-21.38-33.64-31.05-8.11-6.57-16.62-12.62-25.23-18.52s-16.34-11.66-24.19-18.23c-16.3-13.64-33.54-26.16-51.56-37.43-29.03-18.16-59.27-34.27-90.67-47.93-16.93-7.37-34.42-13.73-52.2-18.73-11.66-3.27-4.95,5.04-.02,9.28,7.13,6.13,14.15,12.41,20.75,19.12,9.62,9.77,19.52,21.1,33.09,23.07,26.2,3.81,46.85,24.78,69.74,38.07,15.5,8.99,31.82,16.15,46.02,27.07"/>
  <path class="cls-4" d="M310.38,170.02c-1.33.33-2.75.56-4.01,1.4-2.66,1.78-4.35,5.1-4.76,8.22-.61,4.67,1.06,9.34,3.23,13.52,2.18,4.17,4.89,8.08,6.65,12.44,4.73,11.72-2.79,29.51-6.45,41.04-3.15,9.91-6.96,19.62-11.38,29.03-4.05,8.63-5.71,16.86-8.39,25.98-.63,2.16-1.51,4.37-2.37,6.45-5.52,13.35-7.62,28.65-13.63,41.43-4.9,10.44-3.66,22.27-6.97,33.06-3.99,12.97-9.13,25.36-12.35,38.62-6.23,25.71-8.88,52.29-7.76,78.72.84,19.82-.18,40.77,8.04,58.82,1.99,4.38,4.39,8.71,8.02,11.87,3.93,3.42,8.98,5.21,13.65,7.51,14.88,7.33,26.2,20.08,37.94,31.81.94.94,1.96,1.92,3.25,2.24,3.19.78,5.73-2.65,7.02-5.67,4.64-10.82,6.24-22.93,4.59-34.59-.76-5.36-2.14-11.07.13-15.98,1.68-3.64,5.1-6.14,7.45-9.39,5.92-8.18,4.22-19.47,1.52-29.2-2.7-9.73-6.17-20.06-3-29.65,3.36-10.17-1.29-21.61-1.3-32.33,0-3.8.01-7.72,1.44-11.24,3.36-8.25,13.32-11.93,17.81-19.63,2.6-4.46,3.1-9.8,3.54-14.94.56-6.53.57-13.19,2.87-19.33,1.08-2.89,3.33-6.18,6.37-5.64,2.98.53,3.99,4.21,4.39,7.21.99.81,2.59.33,3.4-.67s1.03-2.33,1.22-3.6c.78-5.1,1.56-10.2,2.34-15.3,4.45-29.08-15.32-57.63-10.84-86.7,1.68-10.93.69-21.5-4.65-31.18-1.46-2.65-3.34-5.04-4.93-7.61-.39-.63-.77-1.38-.5-2.07.16-.39.5-.67.84-.93,6.09-4.6,13.99-6.71,21.56-5.78,6.44.8,12.95.37,19.43.22s13.18-1.16,18.64-4.66c8.86-5.68,14.56-7.71,20.9-16.11,6.34-8.4,11.05-17.9,16.92-26.64,1.8-2.68,2.89-5.66,5.08-8.02,4.09-4.43,9.58-7.29,15.08-9.75,2.9-1.3,5.83-2.51,8.8-3.64,3.88-1.48,7.91-3.06,9.98-6.67.49-.86.9-1.78,1.59-2.49,1.55-1.57,4.03-1.62,6.23-1.49,3.6.22,7.19.64,10.74,1.26,7,1.22,13.58,4.47,20.64,5.22,1.56.16,3.26.24,4.57-.64,1.68-1.13,2.1-3.54,1.49-5.47s-2-3.51-3.37-5c-6.82-7.45-13.94-14.62-21.35-21.47-5.18-4.8-10.75-9.58-17.54-11.51-2.62-.75-5.38-1.05-7.87-2.15-4.56-2-7.98-6.5-12.89-7.31-12.85-2.11-20.68-13.06-32.85-17.7s-25.44-7.12-38.29-5.01c-20.17,3.31-42.3,6.43-57.26,20.36-4.21,3.92-7.81,8.59-12.71,11.6-8.6,5.28-14.91,14.09-14.67,24.27.13,5.33.08,10.67-.13,16-.09,2.13-.22,4.34-1.24,6.2-.96,1.75-2.39,2.28-3.92,2.66Z"/>
  <path class="cls-4" d="M15.02,117.77c-3.93,5.23-8.08,11.25-7.1,17.72.77,5.09,4.55,9.13,8.24,12.72,7.59,7.38,16.4,11.97,24.82,18.01,9.98,7.15,21.39,14.78,32.86,19.18,8.4,3.22,16.05,8.08,23.63,12.91,18.9,12.03,40.56,19.74,57.25,34.68"/>
  <path class="cls-4" d="M310.74,204.15c.48,3.05,2.25,5.78,4.43,7.97s4.8,3.89,7.36,5.61c12.16,8.17,24.19,17.55,30.95,30.55"/>
  <path class="cls-4" d="M41.74,167.55c-1.06-.66-2.2-1.34-3.45-1.32s-2.56,1.07-2.36,2.31c.1.65.58,1.16,1.04,1.63,13.39,13.6,33.42,20.33,43.85,36.31,1.74,2.67,3.17,5.54,5.13,8.05,4.17,5.34,10.38,8.6,16.39,11.71,5.56,2.87,12.3,5.26,17.72,8.39,5.88,3.39,11.79,6.8,18.12,9.26,7.02,2.73,14.45,4.26,21.64,6.51,12.89,4.02,24.95,10.3,36.86,16.66,19.04,10.17,38.96,21.68,48.93,40.82"/>
  <path class="cls-4" d="M525.01,164.55c-3.22,5.58-2.93,12.6-.99,18.74s5.37,11.68,8.33,17.4c.65,1.27,1.3,2.63,1.16,4.05-.13,1.32-.93,2.47-1.78,3.47-5.41,6.36-12.52,10.07-15.55,18.32-2.64,7.21-1.69,15.82,2.95,22.01,2.99,3.98,7.21,6.92,10.15,10.94,2.94,4.02,4.27,10.02,1.01,13.79-1.36,1.58-3.32,2.51-5.27,3.23-3.22,1.18-7.75-.11-10.43,1.39-2.2,1.23-2.47,4.39-1.6,6.76s2.56,4.37,3.43,6.74c.28.76.41,1.75-.24,2.23-.36.27-.84.28-1.29.32-3.76.33-6.81,4.23-6.24,7.96.54,3.49,3.68,6.87,2.2,10.07-1.14,2.46-4.27,3.03-6.9,3.71s-5.64,2.58-5.16,5.25c1.02,5.75-.2,8.98-3.78,13.6-2.91,3.76-7.53,5.89-12.21,6.73-13.77,2.47-24.11-3.3-35.54-9.91-18.6-10.76-35.65-26.5-47.26-44.6"/>
  <path class="cls-4" d="M89.14,217.9c-2.33-1.13-4.78-2.01-7.29-2.62-1.47-.36-3.03-.62-4.47-.15s-2.67,1.88-2.45,3.37c.17,1.16,1.12,2.03,2.01,2.79,4.26,3.66,8.51,7.32,12.77,10.98,6.16,5.3,12.64,11.08,14.77,18.92.43,1.56.68,3.22,1.59,4.56,3.33,4.94,13.77,4.63,18.92,5.87,8.29,1.99,16.3,4.97,24.28,7.93,9.26,3.44,18.53,6.88,27.79,10.32,5.1,1.89,10.21,3.8,14.97,6.42,7.24,4,13.6,9.71,17.9,16.78"/>
  <path class="cls-4" d="M456.75,336.46c-5.26,4.34-8.95,10.54-10.25,17.23-.48,2.45-.64,4.95-1.14,7.39-.97,4.7-3.15,9.05-5.3,13.33-6.29,12.48,3.03,27.66-1.65,40.41-.96,2.61-2.65,4.89-3.82,7.41-2.83,6.1-2.45,13.13-2.93,19.84-.87,11.93-5.22,23.95-8.62,35.35-3.59,12.04-9.36,23.28-13.62,35.08-5.61,15.56-8.3,33.75.09,48,4.65,7.9,7.96,17.08,11.82,25.4.69-13,1.01-26.03.96-39.05-.02-3.8-.02-7.78,1.73-11.16-.9-5.36,3.72-9.96,7.82-13.53s8.82-7.23,9.9-12.55c.36-1.77.29-3.65,1.07-5.28.95-1.97,2.95-3.18,4.84-4.28,4.15-2.4,8.3-4.8,12.44-7.2,6.49-3.75,10.45-11.24,12.33-18.5,1.86,7.58,3.73,15.38,2.68,23.11-.59,4.37-2.1,8.55-3.68,12.67-3.21,8.39-7.05,17.1-14.36,22.33-6.26,4.47-14.26,5.76-21.96,5.85-3.94-.67-7.81-1.45-11.5-2.99"/>
  <path class="cls-4" d="M109.4,258.71c-1.65-1.14-3.51-1.97-5.45-2.45-1.59-.38-3.7-.27-4.29,1.25-.47,1.21.37,2.52,1.23,3.5,3.76,4.34,8.63,7.71,14.02,9.71,2.38.88,4.9,1.52,7.03,2.91,1.58,1.03,2.88,2.44,4.13,3.87,3.56,4.07,6.83,8.4,9.78,12.94,2.23,3.44,4.61,4.71,8.3,6.5s7.68,2.85,11.64,3.9c4.35,1.15,8.71,2.31,13.06,3.46,12.35,3.28,24.49,6.89,36.2,11.99,12.98,5.65,26.37,11.58,35.94,22.02"/>
  <path class="cls-4" d="M486.94,350.87c-.12,14.6,8.45,27.73,11.96,41.9,2.1,8.5,2.36,17.44.75,26.05-1.66,8.85-.86,16.84-4.39,25.12-1.87,4.38-4.3,8.55-5.54,13.14-1.5,5.52-1.21,11.35-.82,17.06.81,11.74,1.97,23.79-1.34,35.09-2.97,10.12-3.29,21.53-11.04,28.69-6.84,6.32-16.35,8.92-25.62,9.86-9.27.94-18.64.43-27.89,1.55"/>
  <path class="cls-4" d="M142.28,296.08c-1.16.87-1.42,2.59-.93,3.96s1.56,2.44,2.68,3.36c1.46,1.2,3.07,2.22,4.77,3.04,4.12,1.98,9.09,3,11.7,6.74,1.81,2.6,2.04,5.95,2.92,8.99s3.01,6.25,6.18,6.4c13.77.66,24.55,5.86,36.03,13.5,2.13,1.41,4.2,2.93,6.51,4.03,2.7,1.28,5.64,1.97,8.57,2.58,4.36.91,8.74,1.7,13.15,2.35"/>
  <path class="cls-4" d="M330.18,494.59c7.47,9.2,18.28,15.62,29.92,17.77,7.11,1.31,14.36,1.07,21.55,1.42,6.64.33,13.26.71,19.69-1.4,4.92-1.61,9.5-4.73,12.04-9.24.67-1.18.42-2.72,1.19-3.84"/>
  <path class="cls-4" d="M168.33,328.96c-1.77,3.6-.57,8.08,1.88,11.25,2.45,3.17,5.94,5.34,9.31,7.51,3.37,2.17,6.78,4.52,8.93,7.91,1.28,2.02,2.05,4.33,3.34,6.34,1.87,2.91,4.84,5.1,8.17,6.02,14.56,4.04,28.62,6.23,43.72,5.66"/>
  <path class="cls-4" d="M264.26,374.05c-8.72,4.07-17.31,8.44-25.74,13.08-.56.31-1.13.63-1.48,1.17-.4.61-.43,1.37-.45,2.09-.11,3.96-.21,7.95.58,11.83.87,4.26,2.77,8.22,4.13,12.35,3.44,10.42,3.35,21.62,3.23,32.59-.02,1.4.18,2.82.18,4.22"/>
  <path class="cls-4" d="M453.33,339.37c11.65,8.7,26.73,10.96,41.13,12.96,5.46.76,9.23.29,14.6,1.57,10.64,2.55,21.28,5.1,31.92,7.64,7.26,1.74,11,1.96,17.92,4.75,22.09,8.92,43.24,24.19,51.39,46.58,4.01,11.01,12.25,20.32,15.41,31.6,3.46,12.36,4.18,26.64,13.58,35.37,11.94,11.09,23.26,22.95,32.17,36.59,1.27,1.95,2.94,4.17,5.27,4.06,1.94-15.92.61-32.23-3.88-47.63-.65-2.23-1.24-4.02-1.89-6.25-2.33-8.02-4.15-16.57-2.07-24.67,1.84-7.19,9.62-11.7,15.58-16.12,3.15-2.34,6.34-4.7,9.96-6.23,4.06-1.72,8.53-2.34,12.57-4.12,2.33.45,4.62-.94,6.57-2.28s3.57-3.1,5.41-4.59c3.14-2.55,6.87-4.29,10.73-5.51,4.38-1.39,9.34-2.08,13.42.02,5.62,2.9,7.55,9.85,11.39,14.88"/>
  <path class="cls-4" d="M195.74,366.98c-.67-.44-1.59-.45-2.27-.03,5.29,8.05,15.73,12.75,18.09,22.08.51,2.02.92,4.55,2.9,5.2.58.19,1.2.17,1.81.14,7.99-.46,15.84-3.16,22.42-7.72"/>
  <path class="cls-4" d="M495.26,121.78c2.94-1.51,5.16-4.09,7.33-6.59,8.01-9.21,16.57-18.33,27.42-23.92,22.8-11.74,40.03-32.15,61.01-46.89,13.34-9.37,25.46-18.66,33.44-33.45,1-1.86,1.97-3.83,3.62-5.15,1.22-.98,2.89-1.53,4.38-1.06,7.73,2.42-5.58,36.09-8,41.3-6.16,13.28-14.48,25.44-22.99,37.35-8.11,11.35-17.58,23.31-31.16,26.49"/>
  <path class="cls-4" d="M537.1,360.35c-1.2,14.98,4.66,29.49,8.8,43.94,4.41,15.41,6.92,31.36,7.47,47.38,1.44,42.16-.41,82.92-4.96,124.86-2.76,25.43-4.78,50.79-2.49,76.27,2.36,26.18,10.32,48.91,21.7,71.95,4.93,9.98,7.92,20.79,11.75,31.24,14.5,39.56,41.43,74.9,47.64,116.58"/>
  <path class="cls-4" d="M632.92,24.05c-1.52,2.82.04,6.29,1.84,8.95s3.96,5.48,3.64,8.67c-.26,2.64-2.18,4.77-4,6.71-8.76,9.33-17.72,19.15-21.52,31.37-2.89,9.29-7.65,18.2-11.82,26.99-.82,1.73-1.68,3.5-3.02,4.88-1.37,1.42-3.15,2.35-4.92,3.22-3.72,1.82-7.53,3.45-11.42,4.89"/>
  <path class="cls-4" d="M553.53,486.58c2.68.14,5.48.24,7.9-.9,2.82-1.33,4.64-4.11,6.14-6.85,1.86-3.41,3.47-6.99,5.76-10.13,2.29-3.14,5.42-5.88,9.2-6.77"/>
  <path class="cls-4" d="M638.57,41.13c.05,3.52,2.28,6.58,3.6,9.85,3.77,9.4-.17,19.89-1.72,29.9-1.27,8.24-1.05,17.21-5.82,24.05-6.04,8.67-16.06,15.34-24.21,21.85-6.78,5.42-13.59,10.87-19.48,17.25-6.6,7.16-12.22,15.64-20.75,20.36"/>
  <path class="cls-4" d="M271.87,577.78c4.03,33.34,17.2,65.25,19.36,98.76.84,13.04,1.62,24.2,2.66,37.22.34,4.21.67,8.51-.32,12.61-1,4.19-3.31,7.92-5.49,11.64-15.81,27.04-26.05,57.32-29.9,88.4-.4,3.21-1.89,7.39-2.9,10.45-3.5,10.56-5.78,21.52-6.78,32.6"/>
  <path class="cls-4" d="M635.78,100.98c3.6,8.68,4.61,18.41,2.86,27.64-1.39,7.39-4.51,14.59-4.08,22.1.13,2.28.58,4.66-.23,6.8-.77,2.06-2.57,3.52-4.29,4.89-11.91,9.47-23.81,18.94-35.72,28.41-2.77.19-4.43,2.6-6.61,4.32-8.04,6.34-15.43,13.51-22.01,21.36"/>
  <path class="cls-4" d="M276.51,757.67c-12.32-17.26-26.73-32.93-39.5-49.86-12.77-16.93-24.06-35.5-28.94-56.14-11.29-47.8-23.7-96.59-26.48-145.63-.95-16.8-.56-30.77-.05-47.59.51-16.82,4.17-34.45,15.38-47,3.98-4.46,8.76-8.1,13.75-11.35,2.56-1.67,5.18-3.25,7.81-4.79,2.47-1.45,5.49-1.42,8.12-2.73"/>
  <path class="cls-4" d="M633.32,157.67c4.9,17.92,4.15,37.34-2.12,54.82-2.2,6.14-5.09,12.16-5.63,18.66-.35,4.23.22,8.83-2.08,12.4-1.22,1.88-3.09,3.21-4.94,4.48-8.55,5.88-17.33,11.42-26.31,16.61-7.85,4.54-16.24,5.13-23.71,10.32-6.2,4.3-11.95,9.25-17.13,14.73"/>
  <path class="cls-4" d="M564.72,482.94c1.43,5.81,2.88,11.64,5.09,17.2,1.89,4.74,4.31,9.25,6.73,13.74,8.37,15.56,16.75,31.13,25.12,46.69,11.92,22.16,27.69,42.24,44.1,61.32s39.21,31.47,63.63,32.62c4.87.23,9.95-.02,14.24-2.32,8.15-4.37,10.97-14.47,13-23.49,3.36-14.91,6.44-30.04,5.54-45.29-.47-8-1.43-16.83,3.33-23.28,3.94-5.35.85-13.08-3.49-18.11s-10.25-8.37-15.66-12.23c-5.4-3.86-10.62-8.69-12.42-15.08-1.26-4.5-.69-9.29-.1-13.93.94-7.49-.97-15-6.19-20.44"/>
  <path class="cls-4" d="M625.83,238.26c-1.61,4.87-1.55,10.11-1.48,15.24.2,13.42.39,26.84.59,40.27,0,.36-.01.78-.29,1.02-.23.2-.58.21-.89.18-3.03-.26-5.66-2.11-8.51-3.19-10.63-4.04-21.8,4.31-31.26,8.11-7.42,2.98-15.38,4.14-23.01,6.4-1.79.53-3.86,1-5.51,1.89-1.45.78-2.67,2.26-3.95,3.33-2.79,2.31-5.93,4.38-9.54,5.09"/>
  <path class="cls-4" d="M748.24,407.29c-.68-1.68.9-3.6,2.68-3.89s3.56.55,5.07,1.53c7.9,5.12,12.24,14.15,15.69,22.9,3.58,9.09,6.63,18.39,9.11,27.84,2.41,9.16,6.9,17.55,9.84,26.55.82,2.52,1.34,5.62-.48,7.55-1.69,1.8-4.73,1.63-6.84.33s-3.51-3.44-4.94-5.46c-6.14-8.7-13.74-16.25-21.29-23.75-3.37-3.35-6.9-6.8-11.39-8.39-10.54-3.73-13.6-17.62-18.23-27.8"/>
  <path class="cls-4" d="M616.46,292.26c.3,5.55.59,11.18-.55,16.62s-3.91,10.77-8.56,13.82c-4.42,2.91-9.93,3.44-15.19,4.07-6.04.72-12.05,1.69-18.01,2.88-3.05.61-6.08,1.28-9.1,2.02-2.73.66-5.71,1.01-8.23,2.23-2.8,1.37-5.45,2.86-8.29,4.17"/>
  <path class="cls-4" d="M677.55,457.31c-.81,2.52.39,5.31,2.23,7.21s4.26,3.11,6.53,4.46,4.53,2.98,5.72,5.33c1.13,2.23,1.23,4.94,2.71,6.96,2.53,3.45,8.24,3.08,11.33.12,3.09-2.95,4.02-7.55,3.94-11.82-.06-2.91-2.28-5.06-4.7-6.68-2.42-1.62-5.1-3.14-6.49-5.7-.46-.85-.76-1.83-.63-2.79.12-.89.59-1.7,1.19-2.36,1.63-1.81,4.19-2.61,6.62-2.47s4.75,1.14,6.8,2.44c3.5,2.23,6.4,5.41,8.28,9.11,1.82,3.57,3.05,7.98,6.69,9.65,1.55.71,3.5.74,4.87-.28.78-.03,1.03-1.1,1.24-1.85.48-1.78.71-3.63.67-5.48-.03-1.69-.28-3.45.36-5.02.79-1.95,2.83-3.17,4.91-3.51s4.2.08,6.24.59c1.47.37,3.09.77,4.43.06"/>
  <path class="cls-4" d="M611.91,317.42c-1.75,2.29-2.21,5.33-2.02,8.21.19,2.87.95,5.68,1.4,8.52,1.07,6.9.2,14.1-2.49,20.55-.67,1.6-1.48,3.2-2.8,4.33-3.16,2.71-8.97,2.41-12.88,2.42-5.72.02-11.44-.25-17.13-.8"/>
  <path class="cls-4" d="M734.63,466.28c-1.54,3.27-1.32,7.18.03,10.53,1.35,3.35,3.74,6.19,6.41,8.62,2.99,2.72,6.38,4.99,10.03,6.73,4.29,2.04,8.9,3.32,13.34,4.99s8.84,3.83,12.13,7.25,5.34,8.33,4.36,12.98"/>
  <path class="cls-4" d="M593.92,387.34c-.44-2.35.41-4.79,1.69-6.81s2.96-3.77,4.41-5.67c1.54-2.03,2.82-4.26,3.8-6.62.95-2.28,1.51-5.17-.13-7.01"/>
  <path class="cls-4" d="M677.02,517.24c-.3,6.29-.6,12.58-.89,18.88-.13,2.79-.27,5.6-.94,8.31-.87,3.5-2.61,6.71-3.86,10.1-1.8,4.9-2.55,10.12-3.29,15.3-.87,6.09-.5,13.13.84,19.13,1.45,6.53,4.23,13.07,3.1,19.66"/>
  <path class="cls-4" d="M746.88,552.27c3.83,12.09,12.65,22.52,23.93,28.32,2.36,1.21,5.22,2.23,7.59,1.04,1.88-.94,2.88-3,3.7-4.93,2.54-5.98,6.32-11.45,11.48-15.4,1.62-1.24,3.35-2.34,5.24-3.09,2.02-.79,4.17-1.16,6.31-1.52,3.44-.58,6.88-1.16,10.32-1.75,3.22-.55,6.91-.22,9.08-2.67,1.33-1.5,1.86-3.58,1.85-5.58s-.49-3.97-.97-5.92c-.52-2.11-1.05-4.22-1.57-6.33s.38-1.98-.32-3.98c-4.78-13.59-13.73-25.68-25.33-34.23-1.76-1.3-3.6-2.53-5.03-4.18-2.32-2.68-1.57-4.05-1.51-7.2"/>
  <path class="cls-4" d="M730.06,645.99c7.42,5.84,15.93,10.3,24.96,13.08,12,3.7,24.27,7.45,34.48,14.77,10.21,7.32,20.01,15.7,31.9,19.77,6.42,2.2,13.27,3.06,19.56,5.58,6.3,2.53,12.31,7.29,13.71,13.93.78,3.71.04,7.55.12,11.34.08,3.79,1.3,7.99,4.63,9.8,17.67,9.59,33.6,18.77,53.6,20.83,6.27.65,12.63.11,18.85,1.13,7.45,1.23,14.51,4.75,19.97,9.97,13.91,13.28,35.69,15.28,54.19,20.53.72.2,1.81.17,1.86-.58,11.75,2.52,23.59,4.35,35.57,3.43,11.98-.92,24.22-5.81,31.28-15.53,6.55-9.01,7.82-20.74,8.14-31.87"/>
  <path class="cls-4" d="M995.57,785.05c-.04.43-.08.87-.12,1.3-.55,5.85.26,11.96-1.3,17.63-4.75,17.15-17.5,30.68-27.64,45.31-.89,1.29-.77,2.63-1.35,4.09-1.94,4.96-5.71,9.03-7.81,13.92-.2.47-.39.96-.36,1.46.04.68-.91.96-.51,1.5l150.92-2.44-.3-541.44c-22.58-19.58-58.42-24.96-87.2-20.47-10.12,1.58-20.46,3.79-30.24,6.85-3.26,1.02-6.47,2.15-9.69,3.28-4.27,1.5-8.86,2.58-12.83,4.76-19.42,10.65-31.56,26.3-43.73,44.8-1.4-.3-2,1.72-1.92,3.15.39,7.76,2.22,15.37,2.67,23.12.51,8.8-2.04,13.55-5.34,21.19-6.28,14.52-5.76,30.94-5.19,46.42.44,12.17.89,24.38,2.74,36.41.52,3.35.93,6.72,1.08,10.11s-.43,6.35.6,9.51"/>
  <path class="cls-4" d="M826.51,546.53c-.75,4.16-1.47,8.6.16,12.51,1.14,2.73,3.31,4.87,5.43,6.93,2.56,2.49,5.14,5,8.06,7.05,5.89,4.13,12.99,6.28,18.89,10.41,3.61,2.52,6.71,5.76,9.07,9.47,2.17,3.41,3.89,7.39,7.34,9.49,7.06,4.29,12.57,5.84,19.88,9.68,4.6,2.42,8.05,6.5,11.79,10.1,9.83,9.44,22.41,15.97,35.79,18.59,1.14.22,2.38.41,3.43-.1.93-.45,1.54-1.37,2.04-2.28,2.48-4.49,3.48-9.77,2.81-14.86-1.44-10.93.27-22.11-1.58-32.97-1.27-7.47-3.65-15.53-9.99-19.69-6.86-4.49-16.4-3.07-23.17-7.68-6.76-4.61-8.45-15.16-3.47-21.65,4.65-6.05,6.7-13.88,5.76-21.45-.31-2.46-.91-4.88-1.07-7.36"/>
  <path class="cls-4" d="M737.8,621.45c1-4.07,5.42-6.11,9.21-7.89,9.43-4.44,18.18-10.96,23.45-19.95,1.65-2.82,2.96-5.86,4.99-8.42,1.99-2.5,4.72-4.61,5.61-7.68.68-2.38,2-4.58,3.8-6.28"/>
  <path class="cls-4" d="M932.83,350.84c1.16-8.52,3.1-17.02,6.84-24.76s9.41-14.72,16.85-19.02c4.39-2.54,9.28-4.09,14.17-5.44,8.17-2.24,16.48-3.94,24.87-5.1,16.2-2.22,31.04-4.29,47.39-3.93s32.9,3.33,47.39,10.92c3.99,2.09,7.88,4.58,10.62,8.15,4.54,5.89,5.31,13.76,5.91,21.17"/>
  <path class="cls-4" d="M877.37,277.88c.05.36.14.72.26,1.06,1.02,2.9,4.5,4.63,6.98,6.02,7.82,4.39,15.21,10.05,19.78,17.76,2.05,3.46,3.49,7.84,1.7,11.45-.57,1.14-1.43,2.13-1.91,3.31s-.48,2.72.5,3.54c6.49-1.36,11.64-6.23,15.85-11.35,4.2-5.12,8.67-10.56,13.49-15.12,4.09-3.87,10.43-3.95,16-3.11,5.57.84,11.29,2.35,16.72.87,2.15-.59,4.26-1.72,5.48-3.59,2.8-4.29-.12-10.24,1.61-15.07.68-1.9,2.04-3.49,2.75-5.38,2.28-6.08-2.16-18.22-5.34-23.56-4.63-7.79-10.52-14.64-13.69-23.27-9.34-25.51-22.49-49.61-38.88-71.28-3.64-4.81-7.45-9.52-11.82-13.7-14.89-14.25-34.47-23.76-54.8-27.09-19.32-3.17-39.05,2.93-56.62,11.58-17.57,8.65-36.81,14.56-51.42,27.6-4.26,3.81-8.58,7.56-12.94,11.26-2.13,1.81-4.41,3.66-7.15,4.18-2.1.39-4.3-.04-6.38.46-4.78,1.16-7.02,6.64-7.82,11.5-.48,2.91-.07,3.85.21,6.79.41,4.37.83,8.73,1.24,13.1.28,2.94.89,6.39,3.56,7.66,3.47,1.65,7.25-1.72,11.08-1.99,3.29-.23,6.28,1.88,8.64,4.19s4.5,4.98,7.48,6.41c5.2,2.5,12.28.9,16.23,5.1,2.04.13,1.26-1.44,2.08.43s.85,4,.61,6.03c-.43,3.8-1.72,7.45-2.2,11.24-.48,3.79-.03,7.98,2.54,10.81,2.85,3.15,7.5,3.83,11.74,3.84s8.66-.42,12.58,1.2c3.41,1.41,6.09,4.28,7.78,7.56,1.46,2.83,2.3,6.04,4.39,8.44,2.52,2.89,6.56,4.13,10.39,3.99s7.52-1.5,11-3.11c3.26-1.51,6.44-3.59,10-4.35,1.9-.4,6.44.16,5.92,3.41,1.1-6.93,2.65-14.62,8.38-18.69,3.58-2.54,8.31-3.15,12.6-2.23s8.18,3.24,11.53,6.09c5.23,4.46,9.4,10.85,10.23,17.77.32,2.67-.74,5.67-.37,8.22Z"/>
  <path class="cls-4" d="M1106.59,324.15c-1.14-7.52-4.77-14.39-8.36-21.09-2.37-4.42-4.76-8.86-7.92-12.76-8.33-10.28-21.13-15.77-33.7-19.89-11.48-3.76-23.64-6.74-35.57-4.8-9.12,1.48-18.45,1.23-27.44,3.38-2.73.65-5.64,1.54-7.32,3.78-1.55,2.05-1.72,4.83-1.41,7.38s1.06,5.05,1.12,7.62c.11,4.39-1.87,8.78-5.24,11.59"/>
  <path class="cls-4" d="M572.28,240.19c5.03-1.8,9.69-4.65,13.59-8.3,4.65-4.36,8.45-10.01,14.35-12.43,2.52-1.03,5.27-1.39,7.79-2.41s4.95-2.94,5.41-5.62"/>
  <path class="cls-4" d="M720.33,202.81c-.56,4.71,1.04,9.45.67,14.17-.29,3.71-1.77,7.2-2.87,10.76-1.78,5.74-2.47,11.57-2.6,17.51-.13,5.99-1.42,11.66,1.42,17.33,1.74,3.48,4.7,6.19,6.72,9.51,2.94,4.82,3.73,10.9,2.14,16.31-3.34,11.34-10.79,22.02-9.92,33.81.15,1.99.9,4.26,2.78,4.94.61.22,1.27.24,1.92.23,4.39-.12,8.98-1.96,13.01-.22,3.02,1.3,4.94,4.42,5.67,7.62,1.08,4.77-2.5,12.52,1.73,15.79,1.67,1.29,3.77,1.87,5.72,2.69s3.92,2.03,4.71,3.98c1.06,2.62-.31,5.54-.48,8.36-.03.56-.01,1.13.22,1.64.67,1.41,2.56,1.56,4.1,1.84,3.22.57,6.15,2.61,7.8,5.43s1.99,6.38.91,9.46c-1.59,4.52,2.6,8.22,6.91,10.3,8.19,3.96,20.24,3.25,28.34-.11,5.28-2.19,10.62-4.41,15.21-7.81,2.17-1.6,4.16-3.46,6.5-4.79,2.69-1.52,5.73-2.29,8.76-2.92,5.08-1.06,10.74-1.71,15.16,1.03,2.8-.25,5.52,1,8.01,2.31,9.77,5.16,19.44,10.66,29.89,14.28,10.45,3.61,21.89,5.26,32.59,2.5,3.27-.84,6.77-.96,9.37-3.12"/>
  <path class="cls-4" d="M926.08,361.57c-2.44,3.52-3.89,7.7-4.17,11.97-.18,2.74.18,5.65,1.78,7.88,2.49,3.47,7.2,4.4,11.46,4.71,11.39.82,22.92-.97,33.59-5.02,5.37-2.04,10.38-4.69,15.24-7.72,4.46-2.78,7.63-6.09,12.83-7.9,4.96-1.72,10.12-3.01,15.37-3.08,13.26-.18,25.26,7.24,37.94,11.12,11.58,3.54,25.19,5.25,37.28,4.89,6.74-.2,13.53-1.45,19.56-4.46"/>
  <path class="cls-4" d="M921.81,409.28c-.16,6.86,2.71,13.38,4.33,20.05,2.28,9.35,2.13,19.1,2.77,28.71s2.22,19.5,7.45,27.58c4.39,6.78,2.08,17.94,9.17,21.82,5.45,2.99,12.33,1.65,17.89-1.12s10.39-6.86,15.96-9.63c6.39-3.18,12.47-3.2,19.23-4.15,8.11-1.14,16.16-2.55,24.32-3.33,27.11-2.58,55.89.48,78.57,15.54,1.48.98,2.95,2.04,3.97,3.49,1.85,2.63,1.9,6.08,1.88,9.3"/>
  <path class="cls-4" d="M277.95,607.23c37.68,20.84,82.62,22.79,125.69,23.09,25.46.17,51.65-.2,75.18-9.91,15.38-6.34,31.05-12,46.6-17.92,8.36-3.18,17.34-6.87,21.88-14.58"/>
  <path class="cls-4" d="M954.07,508.96c.21,8.76,1.88,17.48,4.92,25.69.41,1.11,1.07,2.38,2.24,2.48.6.05,1.17-.24,1.71-.51,14.31-7.38,30.03-12.01,46.06-13.58,22.05-2.16,41.76.59,62.3,8.89,5.9,2.39,11.73,5.27,18.04,6.05s13.44-1.05,16.99-6.34"/>
  <path class="cls-4" d="M280.87,620.29c6.62-.47,12.95,2.64,18.65,6.04,9.1,5.44,17.61,11.85,26.89,16.96s19.63,8.94,30.22,8.58"/>
  <path class="cls-4" d="M373.17,646.28c5.45-2.52,10-6.72,15.46-9.22,5.67-2.6,12.02-3.24,18.23-3.85,14.35-1.4,28.71-2.8,43.06-4.2,15.89-1.55,32.13,4.19,47.71.72,6.9-1.54,13.2-5.06,20.01-6.96,9.04-2.52,18.9-2.05,27.66,1.32"/>
  <path class="cls-4" d="M962.15,536.84c-.08,3.61,2.83,6.46,4.74,9.53,6.62,10.65,1.35,25.44,7.27,36.5,1.79-.69,1.39-3.28,1.87-5.13.61-2.32,2.89-3.74,5.04-4.81,4.81-2.39,9.89-4.23,15.11-5.46,4.67-1.1,6.89-.68,11.5-1.99,10.91-3.11,22.11-5.58,33.45-5.59,11.34-.01,22.91,2.57,32.33,8.87,5.54,3.7,12.16,6.07,18.65,7.6,4.95,1.17,10.38,1.68,14.94-.56"/>
  <path class="cls-4" d="M289.21,658.61c8.03-2.62,16.69-3.25,25.01-1.82,12.54,2.16,24.12,8.87,36.81,9.7,7.54.5,15-1.15,22.09-3.58,3.07-1.05,5.94-2.53,9.18-2.77s6.02-.25,9.2-1.1c14.07-3.74,26.36-12.32,40.61-15.52,19.9-4.48,40.44,2.25,59.66,9.07,5.7,2.02,12.07,1.63,18.12,1.94,2.59.13,5.22.17,7.76-.34,10.12-2.02,16.98-12,26.88-14.92"/>
  <path class="cls-4" d="M974.19,581.81c1.87,3.47,3.25,7.2,4.08,11.05.9,4.17,1.19,8.55,3.07,12.38,4-2.67,8.75-4.19,13.56-4.35,1.3-.04,2.68-.01,3.77-.72,21.4-.45,42.26.42,63.46,3.32,4.83.66,9.64,1.5,14.37,2.7,10.94,2.78,21.38,7.54,30.65,13.98"/>
  <path class="cls-4" d="M292.06,697.56c14.95-5.8,31.53.31,47.5,1.86,14.57,1.41,29.2-1.07,43.81-2.16s29.92-.64,42.93,6.09c6.81,3.53,13.84,8.88,21.29,7.08"/>
  <path class="cls-4" d="M388.08,684.55c10.66-1.71,21.56-3.41,32.19-1.56,7.66,1.34,14.88,4.48,22.32,6.75,36.29,11.1,72.24-3.58,105.39-17.46"/>
  <path class="cls-4" d="M554.45,694.74c-14.22,12.2-33.65,16.31-52.33,17.68s-37.65.45-55.96,4.44c-25.14,5.49-51.95,5.55-77.57,8.05s-52.22,2.96-75.19-8.08"/>
  <path class="cls-4" d="M979.91,601.89c4.89,8.45,6.15,18.46,7.3,28.16.54,4.56,1.09,9.21.18,13.71-.75,3.75-2.49,7.27-2.92,11.07-.55,4.79.85,10.3-2.23,14.02s-.83,8.94,1.19,13.31c3.05,6.62,9.38,11.2,12.9,17.59,2.06,3.74,3.08,7.95,4.75,11.88s4.25,7.77,8.19,9.42,2.81,2.07,6.63,4.35c3.38,2.02,6.76,4.04,10.29,5.8,9.62,4.78,19.32,6.64,29.82,7.46,12.01.94,23.6,4.01,35.76,4.12,5.06.05,10.38-.31,14.66-3"/>
  <path class="cls-4" d="M538.08,741.91c5.96.36,12.61,1.14,16.43,5.74,3.3,3.98,3.45,9.68,2.78,14.81-1.66,12.77-7.22,26.17-2.05,37.96,1.63,3.71,4.21,6.91,6.86,9.97,8.22,9.54,17.37,18.41,23.89,29.19s10.16,24.12,6.17,36.06"/>
  <path class="cls-4" d="M537.76,760.79c-.82,13.78-1.55,28.13,3.78,40.86,3.36,8.02,8.93,14.91,13.02,22.59,6.25,11.75,8.89,25.38,7.47,38.61"/>
  <path class="cls-4" d="M483.99,713.05c-.99,6.07-1.51,12.21-1.53,18.36-.02,5.5.49,11.38,3.92,15.68"/>
  <path class="cls-4" d="M468.63,722.4c-3.01,26.38-4.13,54.5,8.26,77.99,5.56,10.55,13.57,19.57,20.29,29.42,6.71,9.85,12.29,21.18,11.9,33.1"/>
  <path class="cls-4" d="M443.95,732.64c-3.14,10.54-6.28,21.9-2.82,32.34,3.63,10.96,13.72,18.4,19.68,28.29,13.62,22.59,3.4,52.31,11.13,77.53"/>
  <path class="cls-4" d="M301.2,745.55l-7.29,42.56c-1.63,9.51-3.26,19.04-3.84,28.68-1.01,16.78,1.23,33.76,6.55,49.71"/>
  <path class="cls-4" d="M320.86,863.18c2.79-5.04,5.67-10.5,5.07-16.23-.29-2.75-1.37-5.34-2.44-7.89-1.53-3.66-3.07-7.31-4.6-10.97-3.91-9.32-7.9-19.31-6.05-29.24,1.47-7.88,6.43-14.58,11.25-20.98"/>
  <path class="cls-4" d="M358.72,725.64c-.97,31.21-.25,62.47,2.14,93.61,1.28,16.63,2.88,34.19-4.35,49.22"/>
  <path class="cls-4" d="M379.09,868.89c-1.07-18.22-.55-36.54,1.57-54.67,1.25-10.72,3.06-21.43,2.81-32.22s-2.73-21.86-9.22-30.48c-3.47-4.6-8.32-9.84-6.26-15.22"/>
  <path class="cls-4" d="M422.41,721.33c-5.53,10.68-6.73,23.21-5.21,35.13s5.63,23.37,10.27,34.46c3.99,9.53,8.48,19.3,8.18,29.63-.35,12.06-7.24,23.91-4.37,35.63,1.02,4.16-.23,8.75,1.29,12.75"/>
  <path class="cls-4" d="M950,633.35c-.41,1.59.19,3.32,1.23,4.59s2.47,2.16,3.93,2.93c4.44,2.35,9.34,3.81,14.34,4.27,4.07.38,8.26.11,12.14,1.4,1.08.36,2.21.91,2.72,1.93.77,1.52-.1,3.43.47,5.04"/>
  <path class="cls-4" d="M984.15,613.21c-.12,2.76,1.44,5.39,3.55,7.18s4.71,2.87,7.31,3.83c2.65.98,5.33,1.87,8.04,2.65.51.15,1.36-.06,1.14-.54,27.42.97,49.87,11.71,76.35,4.53,8.66-2.35,17.7-2.93,25.98-6.38"/>
  <path class="cls-4" d="M837.83,306.13c.21,2.62.66,5.66,2.95,6.97,2.09,1.19,4.73.32,6.9-.73,4.89-2.36,10.06-5.25,13.32-9.6,4.52-6.03,8.9-12.16,13.13-18.39,1.12-1.65,2.8-3.67,3.31-5.64s-.24-4.17.24-6.24"/>
  <path class="cls-4" d="M1005.29,267.25c-1.5.17-2.88.06-4.36.31-2.42.4-4.87.82-7.08,1.86-2.37,1.12-5.51,2.3-8.19,1.76-.97-.2-1.86-.64-2.73-1.11-1.17-.63-2.31-1.32-3.28-2.22-1.69-1.59-2.74-3.82-2.89-6.13-.16-2.47-.42-3.53-.92-5.96"/>
  <path class="cls-3" d="M509.13,298.94c-4.04-1.62-6.7-2.75-11-2.09-1.4.21-4.11,1.27-5.45,1.72-1.68.57-2.63,2.76-4.4,2.91-2.28.2-4.53.02-5.8-1.01-.67-.55-2.2-.49-2.72-.16-.74.46-.73,1.06-.74,1.93-.02,1.78.87,2.27,2.16,2.28,3.46.01,5.03,1.85,7.19,1.22s3-1.37,4.88-2.62c8.84-5.87,10.67-2.53,13.17,1.42.75,1.18,2.09,2.02,3.46,2.23.25.04.53.03.73-.13.31-.26.24-.74.15-1.14-.5-2.03-1.14-4.54-1.64-6.57Z"/>
  <path class="cls-3" d="M523.41,222.2c.69-.17,1.38-.41,2.09-.45s1.48.15,1.95.69c.5.58.54,1.42.56,2.19,0,.37.02.74-.11,1.09-.15.42-.48.76-.82,1.05-2.61,2.22-6.42,2.52-9.75,1.73-.45-.11-.96-.29-1.13-.72-.42-1.11,1.15-4.11,2.18-4.74,1.33-.82,3.53-.53,5.02-.82Z"/>
  <path class="cls-3" d="M472.64,214.19c2.89.26,5.95,1.09,8.81,1.64,3.08.59,6.15,1.29,9.26,1.7,2.37.31,4.77.46,7.16.27,1.02-.08,1.78-.12,2.72-.51s1.74-.96,2.78-.93c.75.02,1.46.36,2.08.8.91.65,1.71,1.65,1.64,2.77-.11,1.66-1.58,3.22-3.2,3.34-.83.06-1.66-.11-2.47-.28-5.71-1.21-11.31-2.63-16.95-4.02-3.15-.77-6.6-.99-9.83-1.14-1.89-.09-3.79.07-5.64.49-.71.16-1.46.36-2.17.16s-1.31-.97-1.02-1.65c.1-.25.31-.44.52-.62,1.73-1.47,4.06-2.21,6.32-2.01Z"/>
  <path class="cls-3" d="M463.12,231.71c2.8-.14,5.49-1.06,8.22-1.69s5.66-.97,8.29.01c1.48.55,2.84,1.52,4.42,1.67,1.54.14,3.13-.59,4.02-1.85.72-1.02,2.38-1.15,3.47-.55s1.68,1.99,1.34,3.19c-.36,1.29-1.58,2.14-2.79,2.72-1.87.9-4.02,1.43-6.01.85-1.51-.44-2.77-1.47-4.21-2.1-2.42-1.07-5.35-.92-7.66.38-.77.43-1.72.52-2.53.86-2.25.95-4.92,1.07-7.09-.06-.51-.26-1.02-.66-1.1-1.22-.07-.45.16-.89.38-1.29.29-.53.68-1.11,1.26-.91Z"/>
  <path class="cls-3" d="M720.65,267.84c1.33-3.69,5.4-6.19,9.3-5.69,2.32.3,4.45,1.51,6.78,1.77s4.84.19,7.27.25c1.58.04,3.2.08,4.71-.41s2.92-1.58,3.32-3.11c.25-.93.02-2.09-.83-2.55-1.14-.63-2.47.29-3.61.91-2.57,1.38-5.7,1.26-8.55.63s-5.6-1.72-8.49-2.17c-1.99-.31-4.04-.21-6.06-.29-.93-.04-1.87-.05-2.77.17-.86.21-1.65.64-2.41,1.1-.92.56-1.87,1.27-2.17,2.3-.3,1.03.11,2.13.6,3.09.72,1.4,1.86,2.82,2.91,3.99Z"/>
  <path class="cls-3" d="M739.35,279.37c1.45.68,2.75,1.65,4.21,2.3,2.51,1.11,5.34,1.21,8.09,1.23.76,0,1.54,0,2.23-.31s1.27-1.01,1.18-1.76c-.11-.94-1.13-1.49-2.06-1.68-1.51-.31-3.07-.12-4.59-.38-1.83-.31-3.49-1.25-5.17-2.04-2.67-1.26-5.51-2.17-8.42-2.7-1.23-.22-2.51-.38-3.7,0s-2.25,1.41-2.29,2.66c-.07,2.58,2.49,1.79,3.97,1.62,2.23-.26,4.52.11,6.55,1.07Z"/>
  <path class="cls-3" d="M736.53,325.36c1.04-.55,1.87-1.45,2.91-1.98s2.53-.57,3.2.4c.5.73.32,1.77-.2,2.5s-1.29,1.21-2.04,1.7-1.51,1-1.98,1.76c-.5.82-.58,1.87-.22,2.75-.64-2.31-2.42-4.27-4.66-5.13-.74-.28-1.94-.46-2.36-1.19.52-.38,1.29-.22,1.91-.21,1.2.02,2.34-.04,3.42-.61Z"/>
  <path class="cls-3" d="M752.49,358.77c.38-1.56,1.88-2.54,3.28-3.33s2.92-1.68,3.44-3.2c.14-.42.2-.89.05-1.31-.84-2.36-6.39.45-7.75.98-2.29.89-4.78,1.28-7.24,1.14,0,.21.27.28.47.31,1.71.18,3.44.58,4.89,1.52s2.57,2.48,2.66,4.2"/>
  <path class="cls-3" d="M922.89,412.84l-2.51-1.7c-.19-.13-.39-.27-.47-.49-.13-.35.12-.72.34-1.03.98-1.34,3.32-8.7,4.57-8.46.06,1.77-.87,3.89-1.2,5.68-.13.69-1.24,5.64-.72,5.99Z"/>
</svg>