<?xml version="1.0" encoding="UTF-8"?>
<svg id="Layer_3" data-name="Layer 3" xmlns="http://www.w3.org/2000/svg" viewBox="0 0 708.66 822.05">
  <defs>
    <style>
      .cls-1, .cls-2, .cls-3, .cls-4, .cls-5, .cls-6, .cls-7 {
        stroke: #000;
        stroke-miterlimit: 10;
      }

      .cls-1, .cls-3, .cls-4 {
        fill: #c1272d;
      }

      .cls-1, .cls-5, .cls-6 {
        stroke-width: .25px;
      }

      .cls-2, .cls-3 {
        stroke-width: 1.02px;
      }

      .cls-2, .cls-7 {
        fill: none;
      }

      .cls-4, .cls-7 {
        stroke-width: 3.06px;
      }

      .cls-5 {
        fill: #b3b3b3;
      }

      .cls-6 {
        fill: #4d4d4d;
      }
    </style>
  </defs>
  <path class="cls-5" d="M353.59,292.02s-22.3-17.52-28.02-14.54v13.12l2.49,4.21-.4,4.12s-16.6-5.84-13.77,10.34l3.04,8.45,3.91,3.6-1.11,3.5-5.87-.75,8.63,32.12,6.37,40.75v81.48l4.24,120.19,5.04,54.77,7.78,68.63,8.7,81,8.5-52.87,5.53-53.71,5.06-36.35,4.93-43.85,2.17-45.24,1.85-40.17v-48.48l-1.61-51.53-1.12-27.18,1.99-20.88,3.89-28.78,3.78-13.84,5.59-16.08-5.59,1.98-.95-5.2,5.43-5.91,1.12-7.32-.03-6.01-5.56-4.32-6.01.64-1.72-3.73.79-5.25-.79-11.81-28.28,14.88Z"/>
  <path class="cls-6" d="M313.57,274.59s-31.1-1.15-38.89,6.35c0,0,19.26,10.89,11.45,19.7-7.81,8.8-9.67,10.36-9.67,10.36,0,0-18.96,4.84-23.61-10.36-4.65-15.2,5.79-26.11,5.79-26.11,0,0,25.6-16.78,47.55-12.43,0,0,29.22-16.65,22.47-25.15l1.04-19s29.06-6.98,46.46-1.24l3.77,1.24-.6,21.19s-2.87,12.68,29.56,22.5l32.56,6.66s20.56,6.11,15.41,30.63c0,0-14.53,28.74-34.76,1.13,0,0-1.54-10.61,11.44-20.11,0,0-27.01-10.12-51.66-2.81l-28.28,14.88-28.56-16.57-11.47-.85Z"/>
  <path class="cls-1" d="M333.27,204.68s-14.47,3.77-3.57,13.27c0,0,24.14-8.5,50.23,0,0,0,3.39-8.03-2.39-13.27h-44.26Z"/>
  <path class="cls-1" d="M352.03,2.45s-20.77,23.98.52,23.99c0,0,28.55,4.01-.52-23.99Z"/>
  <path class="cls-6" d="M333.27,204.68l-7.68-12.84v-13.1l4.69-12.58,4.89-12.59,1.21-13.1-.33-13.53-7.39-16,5.12-14.25,3.19-16.36s1.58-23.71-9.33-33.3c-10.91-9.59,20.75-20.4,20.75-20.4l15.08-.2,6.2,3.25,3.37,3.73,6.33,3.48,1.59,6.17-9.55,18.56s-4.33,21.47,4.23,40.14l4.48,9.18-8.71,14.98.67,19.56,10.51,26.73,2.8,9.94-.92,11.32-6.94,11.21h-44.26Z"/>
  <path class="cls-7" d="M352.03,2.45s-14.54,18-5.19,24h14.53s12.46-5-9.34-24Z"/>
  <path class="cls-7" d="M346.84,26.45s-5.71-.5-9.86,6.5h34.32s2.01-4-9.92-6.5"/>
  <path class="cls-7" d="M336.97,32.95c-16.61,4-8.31,16-8.31,16,0,0,24.92-9,49.84-1,0,0,9.45-11-7.21-15"/>
  <path class="cls-7" d="M328.67,48.95c18.69,23,0,62,0,62,0,0,17.65,18.29,0,59.15,0,0-8.72,25.06,4.73,33.97.47.31.97.61,1.5.88h41.27s12.19,6.52,0,11.76c0,0-22.58-4.76-46.46,1.24,0,0-10.48-7,2.03-12"/>
  <path class="cls-7" d="M378.5,47.95c-20.77,26,1.62,63,1.62,63,0,0-19.27,18-1.62,52,17.65,34-4.15,43-4.15,43"/>
  <path class="cls-7" d="M379.27,215l.28,4.95v7c-4.15,23,12.46,28,12.46,28,7.27,7,41.53,11,41.53,11,29.07,6,23.88,29,23.88,29-1.04,20-23.88,15.41-23.88,15.41-25.96-8.59,0-30.41,0-30.41-44.65-17-79.94,12.07-79.94,12.07,0,0-31.15-31.07-78.91-11.07,0,0,20.77,12,8.31,24,0,0-10.38,16.51-26.48,1.75,0,0-12.98-14.75.52-29.75,0,0,15.57-16,49.84-16,0,0,22.84-10,21.8-24l1.04-19"/>
  <path class="cls-7" d="M325.6,278.11v10.48s-1.08,7.36,9.3,9.36c0,0,10.38,2,13.5,21l2.08,91,1.04,48,4.65,166.45,3.65-300.45s3.11-24,16.61-27c0,0,3.11-1,6.23-8v-10.84"/>
  <path class="cls-7" d="M330.74,301.95s-21.97-14.23-16.18,10.89c0,0,.6,7.1,16.18,16.61,0,0,11.42,4.51,14.54,20.51,0,0-1.88-32.76-6.23-38l-8.31-10Z"/>
  <path class="cls-7" d="M380.58,299.95s20.77-12,13.5,15c0,0-4.15,7-18.69,15-3.43,1.89-5.46,5.58-7.02,8.95-.78,1.67-1.45,3.38-2.05,5.12-.37,1.07-.72,2.16-1.04,3.25-.25.83-.28,1.82-.95,2.47-.26-.39.14-1.24.14-1.79s-.02-1.03-.02-1.54c-.01-1.37,0-2.73.02-4.1.06-3.62.24-7.24.58-10.84.65-6.91,1.51-15.15,5.76-21,.73-1,1.71-1.63,2.52-2.52.01-.01,7.27-8,7.27-8Z"/>
  <path class="cls-7" d="M330.29,206.6l2.98-1.92"/>
  <path class="cls-7" d="M345.28,405.08s0-17.14-2.08-42.14-29.61-39.01-29.61-39.01c0,0,10.38,23.28,15.84,81.14v118.55l4.42,87.32,6.23,62,16.07,135.64,11.96-100.64,10.38-89,4.15-86.43v-76.06l-2.72-43.52s1.69-55,11.03-78l4.66-11.01s-27.5,8.01-29.58,38.01c0,0-3.6,12.46-1.8,44.23"/>
  <line class="cls-7" x1="381.08" y1="292.02" x2="382.66" y2="298.93"/>
  <line class="cls-7" x1="328.85" y1="295.47" x2="327.27" y2="300.05"/>
  <line class="cls-7" x1="320.84" y1="322.09" x2="318.8" y2="327.1"/>
  <line class="cls-7" x1="388.73" y1="322.09" x2="390.47" y2="326.06"/>
  <path class="cls-4" d="M353.59,140.47s36.79,54.8.74,57.64c0,0-35,2.89-.74-57.64Z"/>
  <path class="cls-7" d="M329.44,222.85s40.76,14.1,6.5,50.1"/>
  <path class="cls-7" d="M379.54,219.95s-41.1,21-7.05,53"/>
  <path class="cls-2" d="M266.31,281.84c-.23,4.42,2.5,8.86,6.64,10.79,1.32.62,2.76,1,3.99,1.76,1.47.91,2.56,2.37,3.01,4,.33,1.2.29,2.55-.41,3.59s-2.16,1.64-3.34,1.15"/>
  <path class="cls-2" d="M258.79,293.33c-.15,1.59-.29,3.21.08,4.76s1.33,3.06,2.84,3.71"/>
  <path class="cls-2" d="M441.35,279.51c.26,1.93-.02,3.96-1.03,5.64-2.32,3.87-7.9,5.2-9.9,9.24-1.27,2.56-.65,5.87,1.47,7.83.4.37,1,.7,1.47.41"/>
  <path class="cls-2" d="M380.12,309.27c-3.32,3.33-5.66,7.55-6.69,12.06"/>
  <path class="cls-2" d="M377.96,322.68c1.12.05,2.14-.59,3.02-1.26,4.5-3.37,8.18-8.31,8.24-13.8"/>
  <path class="cls-2" d="M319.79,304.45c.39,2.31-.44,4.72.18,6.98.34,1.22,1.08,2.3,1.81,3.35,3.98,5.73,8.32,11.75,14.89,14.49"/>
  <path class="cls-2" d="M327.43,308.64c1.47.78,2.97,1.58,4.16,2.72s2.07,2.69,2.01,4.31"/>
  <path class="cls-2" d="M334.53,286.12c1.41-.44,2.92.25,4.18,1.02,2.4,1.48,4.56,3.33,6.36,5.47"/>
  <path class="cls-2" d="M365.63,300.64c.15-1.49,1.03-2.86,2.17-3.87s2.56-1.71,3.98-2.31c1.1-.46,2.26-.9,3.07-1.76,1.22-1.3,1.33-3.21,1.37-4.95"/>
  <polygon class="cls-3" points="354.61 297.93 349.64 304.45 354.61 313.96 358.99 304.45 354.61 297.93"/>
  <polygon class="cls-3" points="354.33 258.36 347.36 268.95 354.62 284.95 361.89 268.95 354.33 258.36"/>
  <path class="cls-2" d="M343.28,243.75c.44.69.7,1.53.5,2.31-.29,1.13-1.46,1.86-2.64,2.11-1.19.25-2.65,0-3.26-1.02-.23-.39-.31-.85-.38-1.3-.55-4.06,3.39-5.85,5.77-2.1Z"/>
  <path class="cls-2" d="M340.89,257.42c-.17.2-.44.29-.69.37-.81.24-1.63.42-2.46.54-2.56.38-1.96-4.76.22-5.54.92-.32,1.81-.24,2.44.52.55.67,1.07,3.41.49,4.1Z"/>
  <path class="cls-2" d="M333.63,262.14c.8.63,1.36,1.7.95,2.61-.33.74-1.18,1.13-1.99,1.33-1.16.3-2.38.37-3.57.2-.21-.03-.42-.07-.6-.18-1.11-.7-.62-3.98.39-4.67,1.26-.86,3.76-.13,4.82.71Z"/>
  <path class="cls-2" d="M321.6,266.42c1.25-.65,3-.16,3.7,1.02.14.24.25.51.28.78.11.97-.74,1.85-1.7,2.16s-2.01.19-3.01.07c-.18-.02-.37-.05-.52-.15-.19-.14-.26-.39-.29-.62-.15-1.12.35-2.31,1.26-3.02"/>
  <path class="cls-2" d="M370.54,244.32c.56,1.57-.28,3.48-1.84,4.19-.66.3-1.4.39-2.13.44-.64.04-1.32.04-1.88-.27-.45-.24-.78-.66-1.02-1.09-.58-1.03-.75-2.31-.28-3.4,1.23-2.84,6.09-2.83,7.15.13Z"/>
  <path class="cls-2" d="M368.26,254.08c.49-.45,1.27-.51,1.9-.26s1.09.78,1.4,1.36c.49.91.59,2.13-.14,2.88-.69.71-1.83.74-2.83.72-.54-.01-1.1-.03-1.58-.28-1.06-.55-1.25-1.91-1.3-3.06,0-.16-.01-.32.07-.46.08-.14.24-.22.39-.29.78-.37,1.58-.68,2.41-.93"/>
  <path class="cls-2" d="M373.96,262.62c.39-.47,1.09-.61,1.7-.48s1.13.48,1.6.87c.53.44,1.05.98,1.12,1.65.08.72-.41,1.42-1.06,1.77s-1.45.4-2.19.29c-.6-.08-1.22-.28-1.61-.73-.4-.46-.5-1.11-.39-1.7s.4-1.13.71-1.65c.09-.16.2-.33.39-.39s.42.1.36.28"/>
  <path class="cls-2" d="M384.47,266.38l1.91-.32c.16-.03.32-.05.46.02.21.1.27.35.39.54.31.5,1.03.66,1.31,1.18.33.61-.15,1.33-.64,1.83-.47.48-1.03.93-1.7,1.04-.82.14-1.63-.25-2.36-.63-.27-.14-.55-.28-.73-.52-.19-.23-.26-.53-.27-.83-.06-1.13.78-2.25,1.91-2.55"/>
  <path class="cls-2" d="M373.62,178.74c.17,1.9.28,3.81.31,5.71.06,3.28-.09,6.62-1.21,9.72s-3.35,5.95-6.48,7.24"/>
  <path class="cls-2" d="M364.51,130.13v14.31"/>
  <path class="cls-2" d="M342.51,149.07c-.24,4.21-3.01,7.81-5,11.56-.94,1.77-1.72,3.62-2.33,5.52"/>
  <path class="cls-2" d="M334.59,122.53s20.55-9.3,38.46.55"/>
  <path class="cls-2" d="M328.67,110.95s21.93-11,51.46,0"/>
  <path class="cls-2" d="M336.97,67s16.61-5.95,32.7,0"/>
  <path class="cls-2" d="M336.97,79.13s16.54-6.81,33.19,0"/>
  <path class="cls-2" d="M327.43,343.48s12.8,1.46,11.17,53.46"/>
  <path class="cls-2" d="M379.93,343.48s-10.77.35-9.21,55.4"/>
  <line class="cls-2" x1="342.16" y1="472.95" x2="345.28" y2="562.19"/>
  <line class="cls-2" x1="367.27" y1="472.95" x2="365.63" y2="562.19"/>
  <line class="cls-2" x1="370.93" y1="583.09" x2="370.93" y2="619.54"/>
  <line class="cls-2" x1="356.16" y1="669.6" x2="356.16" y2="800.33"/>
  <line class="cls-2" x1="352.55" y1="4.95" x2="354.4" y2="26.44"/>
  <path class="cls-2" d="M348.39,25.95s1.04-26,3.63-23.5c6.75,6.5,7.01,23.99,7.01,23.99"/>
</svg>