<?xml version="1.0" encoding="UTF-8"?>
<svg xmlns="http://www.w3.org/2000/svg" viewBox="0 0 1920 1080">
  <defs>
    <style>
      .cls-1 {
        fill: #ffb93d;
      }

      .cls-1, .cls-2, .cls-3, .cls-4, .cls-5, .cls-6 {
        stroke: #000;
      }

      .cls-1, .cls-3 {
        stroke-width: 10px;
      }

      .cls-7, .cls-8, .cls-9 {
        font-family: TimesNewRomanPS-BoldMT, 'Times New Roman';
        font-weight: 700;
      }

      .cls-7, .cls-10 {
        font-size: 90px;
      }

      .cls-2 {
        fill: #ffccd3;
      }

      .cls-2, .cls-4 {
        stroke-miterlimit: 10;
      }

      .cls-3 {
        fill: #ad0013;
      }

      .cls-8, .cls-11 {
        font-size: 100px;
      }

      .cls-11, .cls-10 {
        font-family: TimesNewRomanPSMT, 'Times New Roman';
      }

      .cls-4, .cls-12 {
        fill: #fff;
      }

      .cls-13 {
        fill: #ae0009;
      }

      .cls-5 {
        stroke-width: .5px;
      }

      .cls-14 {
        letter-spacing: -.09em;
      }

      .cls-15 {
        letter-spacing: -.02em;
      }

      .cls-16 {
        letter-spacing: -.06em;
      }

      .cls-6 {
        fill: none;
        stroke-width: 7px;
      }

      .cls-9 {
        fill: #ffb4ac;
        font-size: 24px;
      }
    </style>
  </defs>
  <g id="Layer_1" data-name="Layer 1">
    <rect class="cls-2" x="-.5" y="-.5" width="1920" height="1080"/>
  </g>
  <g id="Layer_3" data-name="Layer 3">
    <text class="cls-9" transform="translate(17.69 35.91)"><tspan x="0" y="0">“These violent delights have violent ends</tspan><tspan class="cls-16" x="415.36" y="0"> </tspan><tspan x="420.04" y="0">And in thei</tspan><tspan class="cls-15" x="534.74" y="0">r</tspan><tspan x="544.96" y="0" xml:space="preserve"> triumph die, like fi</tspan><tspan class="cls-15" x="742.97" y="0">r</tspan><tspan x="753.19" y="0">e and powde</tspan><tspan class="cls-14" x="881.21" y="0">r</tspan><tspan x="889.66" y="0">,</tspan><tspan class="cls-15" x="895.66" y="0"> </tspan><tspan x="901.23" y="0">Which as they kiss consume.</tspan><tspan class="cls-15" x="1192.61" y="0"> </tspan><tspan x="1198.17" y="0">The sweetest honey Is loathsome in his own deliciousness</tspan><tspan class="cls-16" x="1778.23" y="0"> </tspan><tspan x="1782.9" y="0">And in the </tspan><tspan x="0" y="28.8">taste confounds the appetite.</tspan><tspan class="cls-15" x="292" y="28.8"> </tspan><tspan x="297.56" y="28.8">The</tspan><tspan class="cls-15" x="337.57" y="28.8">r</tspan><tspan x="347.79" y="28.8">efo</tspan><tspan class="cls-15" x="378.43" y="28.8">r</tspan><tspan x="388.65" y="28.8">e love moderately; long love doth so;</tspan><tspan class="cls-15" x="761.93" y="28.8"> </tspan><tspan class="cls-14" x="767.5" y="28.8">T</tspan><tspan x="781.3" y="28.8">oo swift arrives as tardy as too slo</tspan><tspan class="cls-16" x="1127.26" y="28.8">w</tspan><tspan x="1143.27" y="28.8">.” “My bounty is as boundless as the sea, My love as deep; the mo</tspan><tspan class="cls-15" x="1811.31" y="28.8">r</tspan><tspan x="1821.53" y="28.8">e I give </tspan><tspan x="0" y="57.6">to thee,</tspan><tspan class="cls-15" x="74.64" y="57.6"> </tspan><tspan x="80.2" y="57.6">The mo</tspan><tspan class="cls-15" x="158.2" y="57.6">r</tspan><tspan x="168.42" y="57.6">e I have, fo</tspan><tspan class="cls-15" x="280.41" y="57.6">r</tspan><tspan x="290.62" y="57.6" xml:space="preserve"> both a</tspan><tspan class="cls-15" x="361.31" y="57.6">r</tspan><tspan x="371.53" y="57.6">e infinite.” “Don&apos;t waste you</tspan><tspan class="cls-15" x="661.52" y="57.6">r</tspan><tspan x="671.74" y="57.6" xml:space="preserve"> love on somebod</tspan><tspan class="cls-16" x="847.09" y="57.6">y</tspan><tspan x="857.77" y="57.6">, who doesn&apos;t value it.” “thus with a kiss I die” “Good night, good night! parting is such sweet sor</tspan><tspan class="cls-15" x="1849.92" y="57.6">r</tspan><tspan x="1860.14" y="57.6">o</tspan><tspan class="cls-16" x="1872.14" y="57.6">w</tspan><tspan x="1888.15" y="57.6">, </tspan><tspan x="0" y="86.4">That I shall say good night till it be mor</tspan><tspan class="cls-15" x="406.05" y="86.4">r</tspan><tspan x="416.27" y="86.4">o</tspan><tspan class="cls-16" x="428.27" y="86.4">w</tspan><tspan x="444.28" y="86.4">.” “Did my heart love till now? forswea</tspan><tspan class="cls-15" x="844.23" y="86.4">r</tspan><tspan x="854.45" y="86.4" xml:space="preserve"> it, sight! Fo</tspan><tspan class="cls-15" x="977.11" y="86.4">r</tspan><tspan x="987.33" y="86.4" xml:space="preserve"> I ne&apos;e</tspan><tspan class="cls-15" x="1049.99" y="86.4">r</tspan><tspan x="1060.21" y="86.4" xml:space="preserve"> saw true beauty till this night.” “Fo</tspan><tspan class="cls-15" x="1428.22" y="86.4">r</tspan><tspan x="1438.44" y="86.4" xml:space="preserve"> neve</tspan><tspan class="cls-15" x="1491.09" y="86.4">r</tspan><tspan x="1501.31" y="86.4" xml:space="preserve"> was a story of mo</tspan><tspan class="cls-15" x="1685.95" y="86.4">r</tspan><tspan x="1696.17" y="86.4">e woe than this of </tspan><tspan x="0" y="115.2">Juliet and he</tspan><tspan class="cls-15" x="132.02" y="115.2">r</tspan><tspan x="142.24" y="115.2" xml:space="preserve"> Romeo.” “Do not swea</tspan><tspan class="cls-15" x="380.21" y="115.2">r</tspan><tspan x="390.43" y="115.2" xml:space="preserve"> by the moon, fo</tspan><tspan class="cls-15" x="555.11" y="115.2">r</tspan><tspan x="565.32" y="115.2" xml:space="preserve"> she changes constantl</tspan><tspan class="cls-16" x="791.34" y="115.2">y</tspan><tspan x="802.02" y="115.2">. then you</tspan><tspan class="cls-15" x="902.71" y="115.2">r</tspan><tspan x="912.93" y="115.2" xml:space="preserve"> love would also change.” “Love is heavy and light, bright and dark, hot and cold, sick and </tspan><tspan x="0" y="144">health</tspan><tspan class="cls-16" x="64.01" y="144">y</tspan><tspan x="74.68" y="144">, asleep and awake- its everything except what it is!” “What&apos;s in a name? that which we call a </tspan><tspan class="cls-15" x="1033.31" y="144">r</tspan><tspan x="1043.53" y="144">ose By any othe</tspan><tspan class="cls-15" x="1202.87" y="144">r</tspan><tspan x="1213.09" y="144" xml:space="preserve"> name would smell as sweet.” “</tspan><tspan class="cls-15" x="1528.41" y="144">W</tspan><tspan x="1551.97" y="144">isely and slow; they stumble that </tspan><tspan x="0" y="172.8">run fast.” “I defy you, stars.” “O, he</tspan><tspan class="cls-15" x="371.34" y="172.8">r</tspan><tspan x="381.56" y="172.8">e</tspan><tspan class="cls-15" x="392.21" y="172.8" xml:space="preserve"> W</tspan><tspan x="421.35" y="172.8">ill I set up my everlasting </tspan><tspan class="cls-15" x="685.34" y="172.8">r</tspan><tspan x="695.55" y="172.8">est,</tspan><tspan class="cls-16" x="729.54" y="172.8"> </tspan><tspan x="734.21" y="172.8">And shake the yoke of inauspicious stars F</tspan><tspan class="cls-15" x="1169.62" y="172.8">r</tspan><tspan x="1179.84" y="172.8">om this world-wearied flesh. Eyes, look you</tspan><tspan class="cls-15" x="1623.84" y="172.8">r</tspan><tspan x="1634.06" y="172.8" xml:space="preserve"> last!</tspan><tspan class="cls-16" x="1684.05" y="172.8"> </tspan><tspan x="1688.73" y="172.8">Arms, take you</tspan><tspan class="cls-15" x="1845.39" y="172.8">r</tspan><tspan x="1855.61" y="172.8" xml:space="preserve"> last </tspan><tspan x="0" y="201.6">embrace! and, lips, O you</tspan><tspan class="cls-15" x="262.68" y="201.6"> </tspan><tspan x="268.24" y="201.6">The doors of b</tspan><tspan class="cls-15" x="416.93" y="201.6">r</tspan><tspan x="427.15" y="201.6">eath, seal with a righteous kiss</tspan><tspan class="cls-16" x="737.84" y="201.6" xml:space="preserve"> A</tspan><tspan x="758.52" y="201.6" xml:space="preserve"> dateless bargain to eng</tspan><tspan class="cls-15" x="998.52" y="201.6">r</tspan><tspan x="1008.74" y="201.6">ossing death!” “</tspan><tspan class="cls-16" x="1172.77" y="201.6">A</tspan><tspan x="1188.77" y="201.6" xml:space="preserve"> glooming peace this morning with it brings;The sun, fo</tspan><tspan class="cls-15" x="1755.49" y="201.6">r</tspan><tspan x="1765.71" y="201.6" xml:space="preserve"> sor</tspan><tspan class="cls-15" x="1803.7" y="201.6">r</tspan><tspan x="1813.92" y="201.6">o</tspan><tspan class="cls-16" x="1825.92" y="201.6">w</tspan><tspan x="1841.93" y="201.6">, will </tspan><tspan x="0" y="230.4">not show his head: Go hence, to have mo</tspan><tspan class="cls-15" x="415.36" y="230.4">r</tspan><tspan x="425.58" y="230.4">e talk of these sad things; Some shall be pardon&apos;d, and some punished: Fo</tspan><tspan class="cls-15" x="1179.05" y="230.4">r</tspan><tspan x="1189.27" y="230.4" xml:space="preserve"> neve</tspan><tspan class="cls-15" x="1241.92" y="230.4">r</tspan><tspan x="1252.14" y="230.4" xml:space="preserve"> was a story of mo</tspan><tspan class="cls-15" x="1436.78" y="230.4">r</tspan><tspan x="1447" y="230.4">e woe</tspan><tspan class="cls-15" x="1503.63" y="230.4"> </tspan><tspan x="1509.2" y="230.4">Than this of Juliet and he</tspan><tspan class="cls-15" x="1771.27" y="230.4">r</tspan><tspan x="1781.48" y="230.4"> </tspan><tspan x="0" y="259.2">Romeo.”“These violent delights have violent ends</tspan><tspan class="cls-16" x="505.34" y="259.2"> </tspan><tspan x="510.01" y="259.2">And in thei</tspan><tspan class="cls-15" x="624.71" y="259.2">r</tspan><tspan x="634.93" y="259.2" xml:space="preserve"> triumph die, like fi</tspan><tspan class="cls-15" x="832.95" y="259.2">r</tspan><tspan x="843.16" y="259.2">e and powde</tspan><tspan class="cls-14" x="971.19" y="259.2">r</tspan><tspan x="979.64" y="259.2">,</tspan><tspan class="cls-15" x="985.64" y="259.2"> </tspan><tspan x="991.21" y="259.2">Which as they kiss consume.</tspan><tspan class="cls-15" x="1282.58" y="259.2"> </tspan><tspan x="1288.15" y="259.2">The sweetest honey Is loathsome in his own deliciousness </tspan><tspan x="0" y="288">And in the taste confounds the appetite.</tspan><tspan class="cls-15" x="406.03" y="288"> </tspan><tspan x="411.6" y="288">The</tspan><tspan class="cls-15" x="451.61" y="288">r</tspan><tspan x="461.82" y="288">efo</tspan><tspan class="cls-15" x="492.47" y="288">r</tspan><tspan x="502.69" y="288">e love moderately; long love doth so;</tspan><tspan class="cls-15" x="875.96" y="288"> </tspan><tspan class="cls-14" x="881.53" y="288">T</tspan><tspan x="895.34" y="288">oo swift arrives as tardy as too slo</tspan><tspan class="cls-16" x="1241.3" y="288">w</tspan><tspan x="1257.3" y="288">.” “My bounty is as boundless as the sea, My love as deep; the </tspan><tspan x="0" y="316.8">mo</tspan><tspan class="cls-15" x="31.99" y="316.8">r</tspan><tspan x="42.21" y="316.8">e I give to thee,</tspan><tspan class="cls-15" x="196.16" y="316.8"> </tspan><tspan x="201.73" y="316.8">The mo</tspan><tspan class="cls-15" x="279.73" y="316.8">r</tspan><tspan x="289.95" y="316.8">e I have, fo</tspan><tspan class="cls-15" x="401.93" y="316.8">r</tspan><tspan x="412.15" y="316.8" xml:space="preserve"> both a</tspan><tspan class="cls-15" x="482.84" y="316.8">r</tspan><tspan x="493.05" y="316.8">e infinite.” “Don&apos;t waste you</tspan><tspan class="cls-15" x="783.05" y="316.8">r</tspan><tspan x="793.27" y="316.8" xml:space="preserve"> love on somebod</tspan><tspan class="cls-16" x="968.61" y="316.8">y</tspan><tspan x="979.29" y="316.8">, who doesn&apos;t value it.” “thus with a kiss I die” “Good night, good night! parting is such </tspan><tspan x="0" y="345.6">sweet sor</tspan><tspan class="cls-15" x="93.96" y="345.6">r</tspan><tspan x="104.18" y="345.6">o</tspan><tspan class="cls-16" x="116.18" y="345.6">w</tspan><tspan x="132.19" y="345.6">,</tspan><tspan class="cls-15" x="138.19" y="345.6"> </tspan><tspan x="143.75" y="345.6">That I shall say good night till it be mor</tspan><tspan class="cls-15" x="549.81" y="345.6">r</tspan><tspan x="560.03" y="345.6">o</tspan><tspan class="cls-16" x="572.03" y="345.6">w</tspan><tspan x="588.04" y="345.6">.” “Did my heart love till now? forswea</tspan><tspan class="cls-15" x="987.98" y="345.6">r</tspan><tspan x="998.2" y="345.6" xml:space="preserve"> it, sight! Fo</tspan><tspan class="cls-15" x="1120.86" y="345.6">r</tspan><tspan x="1131.08" y="345.6" xml:space="preserve"> I ne&apos;e</tspan><tspan class="cls-15" x="1193.74" y="345.6">r</tspan><tspan x="1203.96" y="345.6" xml:space="preserve"> saw true beauty till this night.” “Fo</tspan><tspan class="cls-15" x="1571.98" y="345.6">r</tspan><tspan x="1582.2" y="345.6" xml:space="preserve"> neve</tspan><tspan class="cls-15" x="1634.85" y="345.6">r</tspan><tspan x="1645.07" y="345.6" xml:space="preserve"> was a story of mo</tspan><tspan class="cls-15" x="1829.71" y="345.6">r</tspan><tspan x="1839.93" y="345.6">e woe </tspan><tspan x="0" y="374.4">than this of Juliet and he</tspan><tspan class="cls-15" x="254.05" y="374.4">r</tspan><tspan x="264.27" y="374.4" xml:space="preserve"> Romeo.” “Do not swea</tspan><tspan class="cls-15" x="502.24" y="374.4">r</tspan><tspan x="512.46" y="374.4" xml:space="preserve"> by the moon, fo</tspan><tspan class="cls-15" x="677.13" y="374.4">r</tspan><tspan x="687.35" y="374.4" xml:space="preserve"> she changes constantl</tspan><tspan class="cls-16" x="913.37" y="374.4">y</tspan><tspan x="924.05" y="374.4">. then you</tspan><tspan class="cls-15" x="1024.73" y="374.4">r</tspan><tspan x="1034.95" y="374.4" xml:space="preserve"> love would also change.” “Love is heavy and light, bright and dark, hot and cold, </tspan><tspan x="0" y="403.2">sick and health</tspan><tspan class="cls-16" x="154.71" y="403.2">y</tspan><tspan x="165.39" y="403.2">, asleep and awake- its everything except what it is!” “What&apos;s in a name? that which we call a </tspan><tspan class="cls-15" x="1124.02" y="403.2">r</tspan><tspan x="1134.23" y="403.2">ose By any othe</tspan><tspan class="cls-15" x="1293.57" y="403.2">r</tspan><tspan x="1303.79" y="403.2" xml:space="preserve"> name would smell as sweet.” “</tspan><tspan class="cls-15" x="1619.11" y="403.2">W</tspan><tspan x="1642.68" y="403.2">isely and slow; they </tspan><tspan x="0" y="432">stumble that run fast.” “I defy you, stars.” “O, he</tspan><tspan class="cls-15" x="506.02" y="432">r</tspan><tspan x="516.23" y="432">e</tspan><tspan class="cls-15" x="526.89" y="432" xml:space="preserve"> W</tspan><tspan x="556.02" y="432">ill I set up my everlasting </tspan><tspan class="cls-15" x="820.01" y="432">r</tspan><tspan x="830.23" y="432">est,</tspan><tspan class="cls-16" x="864.21" y="432"> </tspan><tspan x="868.89" y="432">And shake the yoke of inauspicious stars F</tspan><tspan class="cls-15" x="1304.3" y="432">r</tspan><tspan x="1314.52" y="432">om this world-wearied flesh. Eyes, look you</tspan><tspan class="cls-15" x="1758.52" y="432">r</tspan><tspan x="1768.73" y="432" xml:space="preserve"> last!</tspan><tspan class="cls-16" x="1818.73" y="432"> </tspan><tspan x="1823.4" y="432">Arms, </tspan><tspan x="0" y="460.8">take you</tspan><tspan class="cls-15" x="87.34" y="460.8">r</tspan><tspan x="97.56" y="460.8" xml:space="preserve"> last embrace! and, lips, O you</tspan><tspan class="cls-15" x="408.23" y="460.8"> </tspan><tspan x="413.8" y="460.8">The doors of b</tspan><tspan class="cls-15" x="562.49" y="460.8">r</tspan><tspan x="572.71" y="460.8">eath, seal with a righteous kiss</tspan><tspan class="cls-16" x="883.39" y="460.8" xml:space="preserve"> A</tspan><tspan x="904.08" y="460.8" xml:space="preserve"> dateless bargain to eng</tspan><tspan class="cls-15" x="1144.08" y="460.8">r</tspan><tspan x="1154.3" y="460.8">ossing death!” “</tspan><tspan class="cls-16" x="1318.32" y="460.8">A</tspan><tspan x="1334.33" y="460.8" xml:space="preserve"> glooming peace this morning with it brings;The sun, </tspan><tspan x="0" y="489.6">fo</tspan><tspan class="cls-15" x="19.99" y="489.6">r</tspan><tspan x="30.21" y="489.6" xml:space="preserve"> sor</tspan><tspan class="cls-15" x="68.2" y="489.6">r</tspan><tspan x="78.42" y="489.6">o</tspan><tspan class="cls-16" x="90.42" y="489.6">w</tspan><tspan x="106.43" y="489.6">, will not show his head: Go hence, to have mo</tspan><tspan class="cls-15" x="577.12" y="489.6">r</tspan><tspan x="587.34" y="489.6">e talk of these sad things; Some shall be pardon&apos;d, and some punished: Fo</tspan><tspan class="cls-15" x="1340.81" y="489.6">r</tspan><tspan x="1351.03" y="489.6" xml:space="preserve"> neve</tspan><tspan class="cls-15" x="1403.68" y="489.6">r</tspan><tspan x="1413.9" y="489.6" xml:space="preserve"> was a story of mo</tspan><tspan class="cls-15" x="1598.54" y="489.6">r</tspan><tspan x="1608.76" y="489.6">e woe</tspan><tspan class="cls-15" x="1665.4" y="489.6"> </tspan><tspan x="1670.96" y="489.6">Than this of Juliet </tspan><tspan x="0" y="518.4">and he</tspan><tspan class="cls-15" x="68.7" y="518.4">r</tspan><tspan x="78.91" y="518.4" xml:space="preserve"> Romeo.”“These violent delights have violent ends</tspan><tspan class="cls-16" x="590.25" y="518.4"> </tspan><tspan x="594.93" y="518.4">And in thei</tspan><tspan class="cls-15" x="709.63" y="518.4">r</tspan><tspan x="719.85" y="518.4" xml:space="preserve"> triumph die, like fi</tspan><tspan class="cls-15" x="917.86" y="518.4">r</tspan><tspan x="928.08" y="518.4">e and powde</tspan><tspan class="cls-14" x="1056.11" y="518.4">r</tspan><tspan x="1064.55" y="518.4">,</tspan><tspan class="cls-15" x="1070.55" y="518.4"> </tspan><tspan x="1076.12" y="518.4">Which as they kiss consume.</tspan><tspan class="cls-15" x="1367.5" y="518.4"> </tspan><tspan x="1373.06" y="518.4">The sweetest honey Is loathsome in his own </tspan><tspan x="0" y="547.2">deliciousness</tspan><tspan class="cls-16" x="132.02" y="547.2"> </tspan><tspan x="136.7" y="547.2">And in the taste confounds the appetite.</tspan><tspan class="cls-15" x="542.73" y="547.2"> </tspan><tspan x="548.3" y="547.2">The</tspan><tspan class="cls-15" x="588.3" y="547.2">r</tspan><tspan x="598.52" y="547.2">efo</tspan><tspan class="cls-15" x="629.17" y="547.2">r</tspan><tspan x="639.39" y="547.2">e love moderately; long love doth so;</tspan><tspan class="cls-15" x="1012.66" y="547.2"> </tspan><tspan class="cls-14" x="1018.23" y="547.2">T</tspan><tspan x="1032.04" y="547.2">oo swift arrives as tardy as too slo</tspan><tspan class="cls-16" x="1378" y="547.2">w</tspan><tspan x="1394" y="547.2">.” “My bounty is as boundless as the sea, My love </tspan><tspan x="0" y="576">as deep; the mo</tspan><tspan class="cls-15" x="159.32" y="576">r</tspan><tspan x="169.54" y="576">e I give to thee,</tspan><tspan class="cls-15" x="323.48" y="576"> </tspan><tspan x="329.05" y="576">The mo</tspan><tspan class="cls-15" x="407.05" y="576">r</tspan><tspan x="417.27" y="576">e I have, fo</tspan><tspan class="cls-15" x="529.25" y="576">r</tspan><tspan x="539.47" y="576" xml:space="preserve"> both a</tspan><tspan class="cls-15" x="610.16" y="576">r</tspan><tspan x="620.38" y="576">e infinite.” “Don&apos;t waste you</tspan><tspan class="cls-15" x="910.37" y="576">r</tspan><tspan x="920.59" y="576" xml:space="preserve"> love on somebod</tspan><tspan class="cls-16" x="1095.94" y="576">y</tspan><tspan x="1106.61" y="576">, who doesn&apos;t value it.” “thus with a kiss I die” “Good night, good night! </tspan><tspan x="0" y="604.8">parting is such sweet sor</tspan><tspan class="cls-15" x="250.66" y="604.8">r</tspan><tspan x="260.88" y="604.8">o</tspan><tspan class="cls-16" x="272.88" y="604.8">w</tspan><tspan x="288.89" y="604.8">,</tspan><tspan class="cls-15" x="294.89" y="604.8"> </tspan><tspan x="300.46" y="604.8">That I shall say good night till it be mor</tspan><tspan class="cls-15" x="706.51" y="604.8">r</tspan><tspan x="716.73" y="604.8">o</tspan><tspan class="cls-16" x="728.73" y="604.8">w</tspan><tspan x="744.74" y="604.8">.” “Did my heart love till now? forswea</tspan><tspan class="cls-15" x="1144.69" y="604.8">r</tspan><tspan x="1154.91" y="604.8" xml:space="preserve"> it, sight! Fo</tspan><tspan class="cls-15" x="1277.57" y="604.8">r</tspan><tspan x="1287.79" y="604.8" xml:space="preserve"> I ne&apos;e</tspan><tspan class="cls-15" x="1350.45" y="604.8">r</tspan><tspan x="1360.66" y="604.8" xml:space="preserve"> saw true beauty till this night.” “Fo</tspan><tspan class="cls-15" x="1728.68" y="604.8">r</tspan><tspan x="1738.9" y="604.8" xml:space="preserve"> neve</tspan><tspan class="cls-15" x="1791.55" y="604.8">r</tspan><tspan x="1801.77" y="604.8" xml:space="preserve"> was a </tspan><tspan x="0" y="633.6">story of mo</tspan><tspan class="cls-15" x="115.97" y="633.6">r</tspan><tspan x="126.19" y="633.6">e woe than this of Juliet and he</tspan><tspan class="cls-15" x="442.88" y="633.6">r</tspan><tspan x="453.09" y="633.6" xml:space="preserve"> Romeo.” “Do not swea</tspan><tspan class="cls-15" x="691.07" y="633.6">r</tspan><tspan x="701.29" y="633.6" xml:space="preserve"> by the moon, fo</tspan><tspan class="cls-15" x="865.96" y="633.6">r</tspan><tspan x="876.18" y="633.6" xml:space="preserve"> she changes constantl</tspan><tspan class="cls-16" x="1102.2" y="633.6">y</tspan><tspan x="1112.87" y="633.6">. then you</tspan><tspan class="cls-15" x="1213.56" y="633.6">r</tspan><tspan x="1223.78" y="633.6" xml:space="preserve"> love would also change.” “Love is heavy and light, bright and </tspan><tspan x="0" y="662.4">dark, hot and cold, sick and health</tspan><tspan class="cls-16" x="354.76" y="662.4">y</tspan><tspan x="365.44" y="662.4">, asleep and awake- its everything except what it is!” “What&apos;s in a name? that which we call a </tspan><tspan class="cls-15" x="1324.07" y="662.4">r</tspan><tspan x="1334.29" y="662.4">ose By any othe</tspan><tspan class="cls-15" x="1493.62" y="662.4">r</tspan><tspan x="1503.84" y="662.4" xml:space="preserve"> name would smell as sweet.” “</tspan><tspan class="cls-15" x="1819.16" y="662.4">W</tspan><tspan x="1842.73" y="662.4">isely </tspan><tspan x="0" y="691.2">and slow; they stumble that run fast.” “I defy you, stars.” “O, he</tspan><tspan class="cls-15" x="660.04" y="691.2">r</tspan><tspan x="670.25" y="691.2">e</tspan><tspan class="cls-15" x="680.91" y="691.2" xml:space="preserve"> W</tspan><tspan x="710.04" y="691.2">ill I set up my everlasting </tspan><tspan class="cls-15" x="974.03" y="691.2">r</tspan><tspan x="984.25" y="691.2">est,</tspan><tspan class="cls-16" x="1018.23" y="691.2"> </tspan><tspan x="1022.91" y="691.2">And shake the yoke of inauspicious stars F</tspan><tspan class="cls-15" x="1458.32" y="691.2">r</tspan><tspan x="1468.54" y="691.2">om this world-wearied flesh. Eyes, look </tspan><tspan x="0" y="720">you</tspan><tspan class="cls-15" x="37.35" y="720">r</tspan><tspan x="47.57" y="720" xml:space="preserve"> last!</tspan><tspan class="cls-16" x="97.56" y="720"> </tspan><tspan x="102.23" y="720">Arms, take you</tspan><tspan class="cls-15" x="258.89" y="720">r</tspan><tspan x="269.11" y="720" xml:space="preserve"> last embrace! and, lips, O you</tspan><tspan class="cls-15" x="579.79" y="720"> </tspan><tspan x="585.35" y="720">The doors of b</tspan><tspan class="cls-15" x="734.04" y="720">r</tspan><tspan x="744.26" y="720">eath, seal with a righteous kiss</tspan><tspan class="cls-16" x="1054.95" y="720" xml:space="preserve"> A</tspan><tspan x="1075.63" y="720" xml:space="preserve"> dateless bargain to eng</tspan><tspan class="cls-15" x="1315.63" y="720">r</tspan><tspan x="1325.85" y="720">ossing death!” “</tspan><tspan class="cls-16" x="1489.88" y="720">A</tspan><tspan x="1505.88" y="720" xml:space="preserve"> glooming peace this morning with it </tspan><tspan x="0" y="748.8">brings;The sun, fo</tspan><tspan class="cls-15" x="187.38" y="748.8">r</tspan><tspan x="197.6" y="748.8" xml:space="preserve"> sor</tspan><tspan class="cls-15" x="235.59" y="748.8">r</tspan><tspan x="245.81" y="748.8">o</tspan><tspan class="cls-16" x="257.81" y="748.8">w</tspan><tspan x="273.82" y="748.8">, will not show his head: Go hence, to have mo</tspan><tspan class="cls-15" x="744.52" y="748.8">r</tspan><tspan x="754.73" y="748.8">e talk of these sad things; Some shall be pardon&apos;d, and some punished: Fo</tspan><tspan class="cls-15" x="1508.2" y="748.8">r</tspan><tspan x="1518.42" y="748.8" xml:space="preserve"> neve</tspan><tspan class="cls-15" x="1571.07" y="748.8">r</tspan><tspan x="1581.29" y="748.8" xml:space="preserve"> was a story of mo</tspan><tspan class="cls-15" x="1765.93" y="748.8">r</tspan><tspan x="1776.15" y="748.8">e woe</tspan><tspan class="cls-15" x="1832.79" y="748.8"> </tspan><tspan x="1838.36" y="748.8">Than </tspan><tspan x="0" y="777.6">this of Juliet and he</tspan><tspan class="cls-15" x="201.36" y="777.6">r</tspan><tspan x="211.58" y="777.6" xml:space="preserve"> Romeo.”“These violent delights have violent ends</tspan><tspan class="cls-16" x="722.92" y="777.6"> </tspan><tspan x="727.59" y="777.6">And in thei</tspan><tspan class="cls-15" x="842.3" y="777.6">r</tspan><tspan x="852.52" y="777.6" xml:space="preserve"> triumph die, like fi</tspan><tspan class="cls-15" x="1050.53" y="777.6">r</tspan><tspan x="1060.75" y="777.6">e and powde</tspan><tspan class="cls-14" x="1188.77" y="777.6">r</tspan><tspan x="1197.22" y="777.6">,</tspan><tspan class="cls-15" x="1203.22" y="777.6"> </tspan><tspan x="1208.79" y="777.6">Which as they kiss consume.</tspan><tspan class="cls-15" x="1500.16" y="777.6"> </tspan><tspan x="1505.73" y="777.6">The sweetest honey Is loathsome in his </tspan><tspan x="0" y="806.4">own deliciousness</tspan><tspan class="cls-16" x="180.7" y="806.4"> </tspan><tspan x="185.38" y="806.4">And in the taste confounds the appetite.</tspan><tspan class="cls-15" x="591.41" y="806.4"> </tspan><tspan x="596.98" y="806.4">The</tspan><tspan class="cls-15" x="636.98" y="806.4">r</tspan><tspan x="647.2" y="806.4">efo</tspan><tspan class="cls-15" x="677.85" y="806.4">r</tspan><tspan x="688.07" y="806.4">e love moderately; long love doth so;</tspan><tspan class="cls-15" x="1061.34" y="806.4"> </tspan><tspan class="cls-14" x="1066.91" y="806.4">T</tspan><tspan x="1080.71" y="806.4">oo swift arrives as tardy as too slo</tspan><tspan class="cls-16" x="1426.68" y="806.4">w</tspan><tspan x="1442.68" y="806.4">.” “My bounty is as boundless as the sea, My </tspan><tspan x="0" y="835.2">love as deep; the mo</tspan><tspan class="cls-15" x="206.64" y="835.2">r</tspan><tspan x="216.86" y="835.2">e I give to thee,</tspan><tspan class="cls-15" x="370.8" y="835.2"> </tspan><tspan x="376.37" y="835.2">The mo</tspan><tspan class="cls-15" x="454.37" y="835.2">r</tspan><tspan x="464.59" y="835.2">e I have, fo</tspan><tspan class="cls-15" x="576.57" y="835.2">r</tspan><tspan x="586.79" y="835.2" xml:space="preserve"> both a</tspan><tspan class="cls-15" x="657.48" y="835.2">r</tspan><tspan x="667.7" y="835.2">e infinite.” “Don&apos;t waste you</tspan><tspan class="cls-15" x="957.69" y="835.2">r</tspan><tspan x="967.91" y="835.2" xml:space="preserve"> love on somebod</tspan><tspan class="cls-16" x="1143.26" y="835.2">y</tspan><tspan x="1153.93" y="835.2">, who doesn&apos;t value it.” “thus with a kiss I die” “Good night, good night! </tspan><tspan x="0" y="864">parting is such sweet sor</tspan><tspan class="cls-15" x="250.66" y="864">r</tspan><tspan x="260.88" y="864">o</tspan><tspan class="cls-16" x="272.88" y="864">w</tspan><tspan x="288.89" y="864">,</tspan><tspan class="cls-15" x="294.89" y="864"> </tspan><tspan x="300.46" y="864">That I shall say good night till it be mor</tspan><tspan class="cls-15" x="706.51" y="864">r</tspan><tspan x="716.73" y="864">o</tspan><tspan class="cls-16" x="728.73" y="864">w</tspan><tspan x="744.74" y="864">.” “Did my heart love till now? forswea</tspan><tspan class="cls-15" x="1144.69" y="864">r</tspan><tspan x="1154.91" y="864" xml:space="preserve"> it, sight! Fo</tspan><tspan class="cls-15" x="1277.57" y="864">r</tspan><tspan x="1287.79" y="864" xml:space="preserve"> I ne&apos;e</tspan><tspan class="cls-15" x="1350.45" y="864">r</tspan><tspan x="1360.66" y="864" xml:space="preserve"> saw true beauty till this night.” “Fo</tspan><tspan class="cls-15" x="1728.68" y="864">r</tspan><tspan x="1738.9" y="864" xml:space="preserve"> neve</tspan><tspan class="cls-15" x="1791.55" y="864">r</tspan><tspan x="1801.77" y="864" xml:space="preserve"> was a </tspan><tspan x="0" y="892.8">story of mo</tspan><tspan class="cls-15" x="115.97" y="892.8">r</tspan><tspan x="126.19" y="892.8">e woe than this of Juliet and he</tspan><tspan class="cls-15" x="442.88" y="892.8">r</tspan><tspan x="453.09" y="892.8" xml:space="preserve"> Romeo.” “Do not swea</tspan><tspan class="cls-15" x="691.07" y="892.8">r</tspan><tspan x="701.29" y="892.8" xml:space="preserve"> by the moon, fo</tspan><tspan class="cls-15" x="865.96" y="892.8">r</tspan><tspan x="876.18" y="892.8" xml:space="preserve"> she changes constantl</tspan><tspan class="cls-16" x="1102.2" y="892.8">y</tspan><tspan x="1112.87" y="892.8">. then you</tspan><tspan class="cls-15" x="1213.56" y="892.8">r</tspan><tspan x="1223.78" y="892.8" xml:space="preserve"> love would also change.” “Love is heavy and light, bright and </tspan><tspan x="0" y="921.6">dark, hot and cold, sick and health</tspan><tspan class="cls-16" x="354.76" y="921.6">y</tspan><tspan x="365.44" y="921.6">, asleep and awake- its everything except what it is!” “What&apos;s in a name? that which we call a </tspan><tspan class="cls-15" x="1324.07" y="921.6">r</tspan><tspan x="1334.29" y="921.6">ose By any othe</tspan><tspan class="cls-15" x="1493.62" y="921.6">r</tspan><tspan x="1503.84" y="921.6" xml:space="preserve"> name would smell as sweet.” “</tspan><tspan class="cls-15" x="1819.16" y="921.6">W</tspan><tspan x="1842.73" y="921.6">isely </tspan><tspan x="0" y="950.4">and slow; they stumble that run fast.” “I defy you, stars.” “O, he</tspan><tspan class="cls-15" x="660.04" y="950.4">r</tspan><tspan x="670.25" y="950.4">e</tspan><tspan class="cls-15" x="680.91" y="950.4" xml:space="preserve"> W</tspan><tspan x="710.04" y="950.4">ill I set up my everlasting </tspan><tspan class="cls-15" x="974.03" y="950.4">r</tspan><tspan x="984.25" y="950.4">est,</tspan><tspan class="cls-16" x="1018.23" y="950.4"> </tspan><tspan x="1022.91" y="950.4">And shake the yoke of inauspicious stars F</tspan><tspan class="cls-15" x="1458.32" y="950.4">r</tspan><tspan x="1468.54" y="950.4">om this world-wearied flesh. Eyes, look </tspan><tspan x="0" y="979.2">you</tspan><tspan class="cls-15" x="37.35" y="979.2">r</tspan><tspan x="47.57" y="979.2" xml:space="preserve"> last!</tspan><tspan class="cls-16" x="97.56" y="979.2"> </tspan><tspan x="102.23" y="979.2">Arms, take you</tspan><tspan class="cls-15" x="258.89" y="979.2">r</tspan><tspan x="269.11" y="979.2" xml:space="preserve"> last embrace! and, lips, O you</tspan><tspan class="cls-15" x="579.79" y="979.2"> </tspan><tspan x="585.35" y="979.2">The doors of b</tspan><tspan class="cls-15" x="734.04" y="979.2">r</tspan><tspan x="744.26" y="979.2">eath, seal with a righteous kiss</tspan><tspan class="cls-16" x="1054.95" y="979.2" xml:space="preserve"> A</tspan><tspan x="1075.63" y="979.2" xml:space="preserve"> dateless bargain to eng</tspan><tspan class="cls-15" x="1315.63" y="979.2">r</tspan><tspan x="1325.85" y="979.2">ossing death!” “</tspan><tspan class="cls-16" x="1489.88" y="979.2">A</tspan><tspan x="1505.88" y="979.2" xml:space="preserve"> glooming peace this morning with it </tspan><tspan x="0" y="1008">brings;The sun, fo</tspan><tspan class="cls-15" x="187.38" y="1008">r</tspan><tspan x="197.6" y="1008" xml:space="preserve"> sor</tspan><tspan class="cls-15" x="235.59" y="1008">r</tspan><tspan x="245.81" y="1008">o</tspan><tspan class="cls-16" x="257.81" y="1008">w</tspan><tspan x="273.82" y="1008">, will not show his head: Go hence, to have mo</tspan><tspan class="cls-15" x="744.52" y="1008">r</tspan><tspan x="754.73" y="1008">e talk of these sad things; Some shall be pardon&apos;d, and some punished: Fo</tspan><tspan class="cls-15" x="1508.2" y="1008">r</tspan><tspan x="1518.42" y="1008" xml:space="preserve"> neve</tspan><tspan class="cls-15" x="1571.07" y="1008">r</tspan><tspan x="1581.29" y="1008" xml:space="preserve"> was a story of mo</tspan><tspan class="cls-15" x="1765.93" y="1008">r</tspan><tspan x="1776.15" y="1008">e woe</tspan><tspan class="cls-15" x="1832.79" y="1008"> </tspan><tspan x="1838.36" y="1008">Than </tspan><tspan x="0" y="1036.8">this of Juliet and he</tspan><tspan class="cls-15" x="201.36" y="1036.8">r</tspan><tspan x="211.58" y="1036.8" xml:space="preserve"> Romeo.”“These violent delights have violent ends</tspan><tspan class="cls-16" x="722.92" y="1036.8"> </tspan><tspan x="727.59" y="1036.8">And in thei</tspan><tspan class="cls-15" x="842.3" y="1036.8">r</tspan><tspan x="852.52" y="1036.8" xml:space="preserve"> triumph die, like fi</tspan><tspan class="cls-15" x="1050.53" y="1036.8">r</tspan><tspan x="1060.75" y="1036.8">e and powde</tspan><tspan class="cls-14" x="1188.77" y="1036.8">r</tspan><tspan x="1197.22" y="1036.8">,</tspan><tspan class="cls-15" x="1203.22" y="1036.8"> </tspan><tspan x="1208.79" y="1036.8">Which as they kiss consume.</tspan><tspan class="cls-15" x="1500.16" y="1036.8"> </tspan><tspan x="1505.73" y="1036.8">The sweetest honey Is loathsome in his </tspan></text>
  </g>
  <g id="Layer_2" data-name="Layer 2">
    <g>
      <g>
        <g id="Layer_4" data-name="Layer 4">
          <path class="cls-1" d="M912.25,291.16c-1.63,8.17-3.27,16.35-2.26,24.65,1.26,10.69,6.92,20.37,13.58,28.8,3.02,3.65,6.41,7.29,10.82,9.06,2.89,1.13,5.91,1.26,9.06,1.38,2.52,0,5.16,0,7.04-1.51,1.38-1.13,2.01-2.77,2.64-4.28,1.13-3.27,1.89-6.79,2.01-10.31.13-4.15-.38-8.43,0-12.58s1.76-8.55,5.16-11.07c1.51-6.16,3.14-11.19,6.16-16.73,1.51-2.64,3.27-5.41,6.16-6.41,5.03-1.76,9.94,2.77,15.09,3.77,4.65,1.01,9.81-1.13,12.45-5.16s2.64-9.56,0-13.46c-4.15-6.16-3.02-12.2-4.65-19.49-1.63-7.29-2.14-14.97.38-21.88,5.66-16.22,8.17-31.19,15.72-46.66-5.79,7.42-6.79,17.73-4.4,26.91,2.39,9.18,7.55,17.23,13.33,24.65,14.09,18.24,20.5,37.73,32.95,57.1.5.75,1.38,1.63,2.14,1.13,3.9-7.8,7.67-15.72,11.57-23.52,3.9-7.8,5.66-13.21,11.32-17.98,2.39-2.01,5.03-3.65,7.42-5.79,6.29-5.41,10.19-13.08,13.83-20.63s3.77-10.19,6.54-14.84c5.53-9.56,10.19-19.75,13.71-30.31-.5,6.92,2.14,13.71,4.65,20.25,3.77,9.68,7.29,19.62,8.68,29.93,1.89,13.33,1.01,28.55,13.33,37.1,2.01,1.38,4.28,2.52,6.67,2.39,2.26-.13,4.28-1.38,5.79-3.02s2.64-3.65,3.65-5.53c4.15-7.8,5.41-16.1,8.17-24.52,2.26-6.79,4.28-13.58,6.67-20.37,3.77-10.69,8.3-21.13,13.71-31.19-.5,12.45.63,24.9,3.02,37.1,4.4,21.38,12.07,39.74,24.15,57.98,2.64,4.02,5.66,7.92,9.68,10.56s9.18,4.02,13.71,2.52c1.76-.63,3.4-1.63,4.9-2.52,4.53-2.77,9.18-5.66,13.71-8.43,10.56-6.54,21.25-7.92,30.44-16.35s16.35-18.74,23.14-29.3c2.77-4.28,5.53-8.68,9.94-11.19-2.26.63-3.4,2.89-4.4,5.03-2.89,6.54-5.91,13.21-6.67,20.25-.5,4.4,0,8.8-.5,13.21-.25,2.89-1.01,5.79-.88,8.8.13,4.15,1.89,7.92,2.64,12.07,1.13,6.54-.38,13.33-3.27,19.37s-6.79,11.32-10.82,16.73c-7.29,9.81-11.57,22.64-11.19,34.84,0,3.14.63,6.41,2.39,9.06,2.64,3.9,7.42,5.79,12.07,5.91s9.18-1.13,13.71-2.39c6.16-1.76,12.2-3.52,18.36-5.28s5.16-.63,8.17-1.89c11.7-5.16,23.39-10.56,33.08-18.86,9.68-8.17,17.36-19.62,18.61-32.32-2.01,8.17-3.4,16.48-4.15,24.78-.25,3.77-.5,7.55-1.51,11.07-.88,3.02-2.39,5.79-3.9,8.43-5.79,10.44-12.07,20.75-18.99,30.56-12.2,17.61-24.78,35.84-27.29,57.22-4.53,37.98-4.15,74.58-21.51,108.79,1.01-.75,1.89-1.89,2.77-2.77,4.78-4.9,12.2-5.53,18.86-6.92,25.15-5.16,46.91-24.02,55.59-48.17-8.3,12.7-13.46,27.04-18.49,41.25-2.01,5.79-4.02,11.44-6.16,17.23-4.15,11.57-10.06,20.75-16.1,31.32-2.39,4.28-4.9,8.68-5.03,13.46,0,2.39.75,5.16,2.89,6.29,2.39,1.13,5.16,0,7.42-1.38,6.67-4.15,11.82-10.31,16.85-16.35,4.65-5.53,9.31-11.19,13.96-16.73-10.82,13.08-7.42,33.83-17.98,47.16-17.48,22.13-44.02,33.45-70.05,44.52-3.14,1.26-6.29,2.64-8.55,5.03-1.51,1.63-2.52,3.65-3.14,5.79-.88,2.89-1.01,6.16.5,8.68,1.38,2.26,3.77,3.77,6.16,4.9,4.02,2.01,8.3,3.65,12.7,4.9,22.13,6.41,40.75,15.22,63.76,15.59,14.59.25,29.3-1.26,43.01-6.29-2.64-.75-5.28,1.13-7.42,2.89-14.97,12.45-29.93,24.9-44.9,37.23s-26.91,21-43.39,25.15c-4.02,1.01-8.3,1.63-12.33,2.77-4.9,1.38-9.56,3.4-14.21,5.53-8.68,4.02-17.1,8.68-24.65,14.59-7.55,5.91-18.36,10.69-24.4,19.87-3.9,5.91-6.04,13.08-6.04,20.12,0,2.01.13,4.02,1.01,5.66.75,1.38,2.01,2.52,3.27,3.52,5.28,3.77,11.95,4.9,18.49,4.65,6.54-.25,12.83-1.76,19.24-2.64,15.72-2.26,32.07-1.13,47.54-5.03-4.02,3.4-8.3,6.92-12.33,10.31-3.52,3.14-7.17,6.16-10.82,9.18-9.06,7.17-18.86,13.58-29.18,18.74-10.31,5.16-5.66,3.9-8.55,6.04-5.91,4.4-11.95,8.68-18.61,11.95-5.41,2.64-11.19,4.4-16.98,6.16-13.96,4.28-27.92,8.68-42.13,12.2-4.4,1.13-8.93,2.14-13.46,1.89,15.85,2.26,31.69,4.53,47.41,7.67,3.4.63,6.67,1.38,9.94,2.64,13.21,5.28,21,19.24,33.83,25.28-17.73-5.41-36.98-5.53-54.71-.25-17.73,5.28-6.79,2.77-10.44,4.15-12.2,4.53-24.9,8.05-37.98,9.06-13.08,1.01-26.41-.63-38.23-6.16,3.14,11.19,10.44,20.88,19.12,28.67,7.29,6.54,15.85,12.45,24.52,16.73,8.68,4.28,15.34,11.82,23.14,17.1,5.03,3.4,10.19,6.67,15.6,9.31-29.43-4.78-58.98-8.68-88.66-11.95-11.95-1.26-22.76-5.28-33.96-9.56-2.14-.88-4.53-1.63-6.79-1.01-2.39.75-4.02,2.89-5.91,4.53-7.67,6.67-20.12,4.15-28.55,9.81s-14.84,8.3-17.1,16.22c-2.26,7.92-1.26,16.6,1.38,24.4-1.13-3.52-4.02-6.16-6.79-8.55-8.8-7.55-18.24-14.46-28.17-20.5-14.97-9.31-22.39-25.91-37.86-34.21-2.52-1.38-5.53-2.64-8.3-2.01-3.27.63-5.53,3.52-7.29,6.29-7.67,12.2-11.19,27.29-22.01,36.85-4.9,4.4-11.44,7.55-13.96,13.71,6.04-6.54,9.56-15.47,9.43-24.4s-3.77-17.86-10.06-24.27c-6.29-6.41-1.13-4.4-2.64-6.41-4.53-5.66-8.17-12.07-10.56-18.86-1.76-5.16-3.02-10.44-4.78-15.6s-4.53-10.06-8.8-13.46c-5.41-4.28-12.7-5.53-19.49-6.54-6.79-1.01-13.96-.38-21-.75-2.64-.13-5.28-.25-7.8,0-7.67,1.13-13.83,6.79-19.49,12.2-4.65,4.4-9.31,8.8-13.96,13.33-4.4,4.15-8.8,8.55-11.07,14.21,4.65-6.54,8.93-13.58,10.19-21.38,2.14-13.21-4.53-26.03-10.94-37.86s-3.52-10.06-7.42-14.71c-14.09-16.98-39.11-25.91-59.49-17.23-6.54,2.77-12.33,7.17-18.61,10.56s-13.58,5.91-20.5,4.4c-7.42,1.13-12.33-1.76-18.99-5.16-13.96-7.29-27.29-15.72-39.87-25.28,9.18,4.53,19.24,9.06,29.3,6.92,11.32-2.39,19.12-12.58,26.54-21.38s17.48-17.86,28.93-16.48c22.01,2.77,44.65-.38,66.28,4.65,5.03,1.13,10.69,3.02,12.95,7.67-10.56-24.02-27.04-46.91-50.94-57.73-5.91-2.64-12.45-4.78-17.1-9.43-11.19-11.57-26.54-18.11-36.22-30.94-3.4-4.53-6.67-9.56-11.44-12.7-3.65-2.39-8.17-3.65-11.32-6.79-4.15-4.15-5.41-10.82-10.06-14.21-5.91-4.4-14.21-1.76-21.63-1.26-11.95.75-24.15-5.66-30.44-15.85,6.41,4.28,14.84,5.41,22.13,2.89,7.29-2.52,13.33-8.55,15.72-15.85,3.65-10.69-11.82-17.36-20.75-24.52-11.57-9.31-24.4-17.1-38.11-23.02,13.71,10.06,30.94,15.09,47.79,14.09,2.52-.13,5.16-.5,7.17-1.76,5.16-3.4,4.65-11.57,1.01-16.48s-9.56-7.8-14.59-11.44c-10.44-7.55-17.73-19.37-20-32.2,3.02.88,5.41,3.27,7.8,5.28,2.39,2.01,5.41,3.9,8.55,3.52s5.91-4.02,4.28-6.67c1.38-5.79.75-12.45-1.89-17.73-1.01-2.14-2.39-4.15-3.77-6.16-5.41-8.05-10.69-16.1-16.1-24.15-10.44-15.59-26.91-25.15-40.75-37.98-4.28-4.02-8.68-8.05-11.7-13.21-2.77-4.78-4.15-10.19-5.28-15.47-2.77-12.2-4.9-24.52-7.04-36.72,2.64,5.53,5.41,11.07,8.43,16.35,5.79,10.44,13.71,21.38,25.4,23.52,2.52.5,5.41.25,6.92-1.63.75-1.01,1.01-2.26,1.26-3.65,2.01-13.71-3.9-22.76-9.81-34.33s-9.31-25.4-9.31-38.74c0-3.27.25-6.67,1.01-9.81,1.01-4.4,3.27-8.55,5.28-12.58,4.78-9.06,9.43-17.98,14.21-27.04s2.14-24.4-2.89-34.96c7.55,13.96,2.77,31.06,0,46.78-3.02,17.1-3.4,34.59-1.01,51.82.25,1.89,1.38,4.4,3.14,3.9,3.4,6.79,6.92,13.33,11.82,19.12s11.7,10.19,19.24,10.94c6.54.63,13.08-1.51,18.86-4.65,10.31-5.66,18.99-14.21,24.65-24.52,5.66-10.31,16.6-17.48,16.6-29.05,0-15.09-11.57-27.67-14.59-42.51-3.02-14.84,4.9-34.59,11.07-51.44-2.01,3.14-.25,7.29,2.14,10.06s5.66,4.9,7.55,8.05c1.76,3.14,2.01,6.92,2.89,10.44,2.14,8.43,8.17,15.85,16.22,19.49,8.05,3.65,17.48,3.4,25.28-.5,7.8-3.9,12.45-3.9,17.61-7.8,5.53-4.15,10.44-9.56,13.58-15.72s4.4-13.58,2.89-20.37c-3.02-13.46-11.07-22.01-10.69-35.84.13-7.8,2.64-15.34,5.16-22.64,8.05-22.64,15.09-46.78,12.7-70.68,2.77,8.05,6.41,15.85,10.82,23.14,6.92,11.7,15.72,22.39,20.12,35.21,2.89,8.43,3.9,17.36,6.79,25.78,5.28,15.85,16.73,28.8,27.92,41.25,11.19,12.45,25.28,23.9,38.74,36.09,2.14,2.01,4.53,4.02,7.55,4.02,3.4-10.69-5.66-21.76-4.28-32.82,1.89-14.59,20.5-22.01,24.02-36.35,3.52-14.34,4.4-15.85,7.42-23.52.38-.88.63-1.63,1.38-2.14.5-.38,1.26-.5,1.89-.63,3.52-.75,6.54-3.27,8.55-6.29s3.4-6.41,4.65-9.81c5.41-14.46,14.21-27.79,23.77-39.87-7.29,19.49-14.71,39.74-12.58,60.37,4.65-4.15,9.43-8.3,14.09-12.45-12.58,12.58-20.88,28.93-24.4,46.41l1.38-.25Z"/>
        </g>
        <g id="hjerte">
          <path class="cls-3" d="M964.82,422.84c-3.27-4.4-7.17-8.3-11.07-12.2-9.81-9.81-19.87-19.87-32.57-25.66s-13.96-6.41-21-9.18c-3.77-1.38-7.67-2.77-11.57-4.02-4.02-1.38-7.92-2.64-11.95-4.02-3.27-1.13-6.54-2.14-9.94-3.02-5.91-1.38-11.95-1.89-17.98-2.39-13.71-1.13-28.05,0-41.75,1.38-4.9.5-9.81,1.13-14.59,2.64-3.52,1.13-6.79,2.64-10.19,4.15-4.78,2.14-9.56,4.4-14.34,6.54-18.11,8.3-32.95,21.88-48.67,34.21-15.72,12.33-30.18,26.91-39.24,44.65-9.06,17.73-15.85,31.82-21.38,50.05-5.28,17.1-6.79,33.83-6.67,51.56.13,17.73,0,14.46,2.01,22.26,2.01,7.8,5.53,16.48,9.18,24.4,5.66,11.95,12.33,23.52,19.75,34.59,7.42,11.07,16.6,19.24,22.01,30.18s16.48,22.64,24.65,32.95c8.17,10.31,18.11,22.26,27.29,33.2,9.31,10.94,18.86,21.76,28.55,32.45,9.43,10.31,18.86,20.12,28.17,30.56,9.31,10.44,20,22.64,30.06,33.83,10.06,11.19,20.12,22.51,30.31,33.83,10.19,11.32,18.49,21.76,29.68,30.56,21.25,16.73,41.63,34.71,63.13,51.06,19.62,14.97,41.25,26.66,59.86,43.14.63.63,1.13.38,1.13-.38,1.89.38,2.14.25,3.77-1.26s3.9-3.65,5.79-5.53l28.17-29.55,20.88-24.4,11.07-12.45,26.54-34.84,65.27-94.07,30.31-52.44c4.02-7.8,8.17-15.59,12.2-23.39l9.31-17.73c2.89-5.53,4.78-11.82,7.92-16.98,11.19-18.49,17.48-38.99,24.15-59.36,6.92-21,13.08-42.26,18.86-63.64,1.51-5.79.88-9.43,2.26-15.09,6.29-25.78,8.43-52.57,6.41-79.11-1.76-23.39-11.82-43.64-24.27-63.26-5.79-9.18-12.33-17.98-20.12-25.66s-16.73-13.08-25.28-19.62c-7.92-6.04-16.1-11.57-24.9-16.22s-18.36-7.42-27.42-11.44c-7.55-3.4-15.59-5.66-23.77-7.04s-14.59-.63-22.01-1.01c-16.1-.88-32.95-.25-48.17,5.16-4.53,1.63-9.18,3.27-13.71,4.9-7.29,2.64-14.34,5.79-21.51,8.93-5.03,2.14-9.94,4.28-14.59,7.17-7.67,4.65-14.21,11.07-19.12,18.74-13.83,21.76-41.63,38.36-50.94,62.38v-.5Z"/>
        </g>
        <g id="jomfru_maria" data-name="jomfru maria">
          <path class="cls-5" d="M955.64,616.26l-2.89.88c-.63.25-1.26.38-1.89.75-.38.13-.63.38-1.01.63-.5.38-1.01.75-1.38,1.26-.13.25-.25.63-.38,1.01-.25,1.01-.38,2.14.13,3.14s1.01,1.26,1.63,1.63,1.38.75,2.14.75h1.51c.5,0,1.01-.25,1.26-.63.13-.13.38-.38.5-.63.25-.25.38-.63.63-.88.75-1.13,1.89-2.01,3.14-2.64s.38-.25.63-.38c.5-.25,1.13-.38,1.63-.63.38-.13.88-.38,1.26-.75.75-.63,1.51-1.13,1.89-2.01s.75-1.76.88-2.64-.5-1.26-1.01-1.63-1.38-.25-1.89,0-.88.75-1.26,1.26-.75.88-1.26,1.26-1.13.5-1.63.5c-1.01,0-1.76-.5-2.64-.13v-.13Z"/>
          <path class="cls-5" d="M960.41,624.94l-1.26.25c-.38,0-.75.13-1.13.25,0,0-.25,0-.38.13-.5.25-.88.88-.88,1.51s.25,1.26.75,1.51c0,0,.25.13.38.25h.63c.5,0,.88,0,1.38-.13s.88-.13,1.38-.25h.38c.13,0,.38-.13.5-.25.63-.38,1.13-1.01,1.51-1.63s0-.25.13-.25c.13-.25.38-.5.63-.63s.5-.25.75-.38c.25-.25.38-.63.38-1.01,0-.5,0-1.13-.5-1.51-.25-.25-.63-.63-1.01-.75-.5-.13-1.01,0-1.38.25s-.75.63-1.01,1.01-.38.63-.63.88c0,.13-.13.25-.25.38,0,.13-.13.25-.25.25l-.13.13Z"/>
          <path class="cls-5" d="M956.14,567.09c.13,1.13.75,2.14,1.63,2.77s.88.88,1.51,1.13c.25,0,.38,0,.63.13h1.13c.38,0,.75-.25,1.01-.38.75-.38,1.26-1.26,1.38-2.14s.13-1.38.13-2.01c0-.38,0-.88-.13-1.26s-.38-1.01-.63-1.51,0,0,0,0v-.13h1.26c.25,0,.5,0,.75-.25.5-.13,1.01-.5,1.51-.75.88-.63,1.89-1.13,2.52-2.01s.75-1.01,1.13-1.51c.13-.25.25-.38.38-.63.25-.38.38-.63.63-1.01s.38-.75.5-1.26c0-.25,0-.63.25-.75.13-.25.38-.5.63-.63.38-.25.5-.88.5-1.26s-.13-1.01-.5-1.26-.13-.13-.25-.13c-.75-.38-1.63-.5-2.39,0s-1.01.63-1.51,1.01c-.25.25-.5.38-.75.63-.38.25-.75.63-1.01.88-2.39,2.14-5.53,3.14-8.55,4.4s-2.14.75-3.27,1.13c-1.26.38-2.52.75-3.9,1.01s-1.51.75-2.14,1.13c-.63.25-1.26.63-1.76,1.01s-1.01.75-1.51,1.13c-.5.5-1.13,1.13-1.13,2.01s.63,1.76,1.51,2.14,1.76.38,2.77.38c2.01,0,4.02-.13,5.91-1.01.5-.25,1.01-.5,1.63-.5l.13-.5Z"/>
          <path class="cls-5" d="M934.88,552.25c-.25.75-.38,1.63-.38,2.52-.13,1.76.25,3.4.63,5.03,0,.25.38.63.5.88s.25.38.5.63c.5.38,1.13.63,1.76.63s1.26-.38,1.63-.88c0-.13.13-.38.25-.5.13-.25.25-.5.25-.75,0-.38.25-.88.25-1.26.25-1.13,0-2.39.13-3.65,0-.63,0-1.13.38-1.63s.63-1.01,1.01-1.51h0c.13-.13.25-.38.38-.5.13-.25.38-.38.5-.5.25-.25.63-.38.88-.63.75-.38,1.51-.88,1.89-1.76,0-.13.25-.13.38-.25.5-.25,1.01-.38,1.51-.63.88-.38,1.63-.75,2.52-1.01.25,0,.63-.25.88-.38.5-.13.88-.38,1.38-.5s.75-.38,1.13-.5c.5-.25,1.13-.5,1.76-.88.25,0,.5-.25.88-.38.5-.25,1.13-.5,1.63-.75.13,0,.38-.13.5-.25,1.51-.75,3.02-1.63,4.53-2.39s1.76-1.26,2.52-2.01l.5-.5c.38-.38.75-.75,1.13-1.26.88-1.13,1.51-2.39,1.89-3.9,2.52.5,4.78,1.13,7.29,1.89s1.13.5,1.63.75c2.39,1.01,4.65,2.14,6.92,3.4s1.89,1.13,2.64,1.89,1.38,1.76,2.01,2.64.88,1.26,1.26,1.89.25.63.5,1.01c.38.63.75,1.26.88,2.01v2.26c0,2.01,0,4.15.13,6.29s0,2.52.25,3.77,1.01,2.39,2.01,3.27,2.39,1.26,3.65,1.76,2.64.75,4.02.5c2.14-.25,4.15,0,6.29-.13s2.77-.5,4.02-.75,2.39-.38,3.52.25c1.26.75,2.01,2.14,3.14,3.14s3.14,2.77,3.65,4.65c1.13,3.9,2.26,7.67,2.64,11.82s.25,5.79.63,8.55c0,.75.25,1.51-.25,2.14-.25.25-.63.5-1.01.63-.75.38-1.38.88-2.01,1.38-1.76,1.51-3.02,3.65-4.65,5.41s-2.39,2.89-3.77,4.28-1.76,4.4-2.89,6.54-.13.5-.25.75c-.25.38-.38.75-.63,1.13-.25.5-.63,1.01-1.01,1.51-.75.88-1.89,1.26-2.64,2.14-1.63,1.51-3.65,2.39-5.16,4.15s-3.52,4.65-5.28,7.04-5.91,4.4-8.93,6.54c-1.38,1.01-2.77,2.01-3.9,3.14-2.39,2.39-5.41,4.15-8.8,4.65s-6.79,0-10.19-.5-3.4-.63-5.03-1.01c-.88-.13-1.76-.38-2.52-.38-1.26,0-2.39.63-3.14,1.51s-.75.88-.88,1.38c-.25.75-.25,1.63-.38,2.39-.25,1.38-.38,2.77-.75,4.02s-1.13,1.89-1.63,2.89c-.75,1.51-1.01,3.14-1.01,4.9s.5,3.27.88,4.9,0,1.38.38,2.01c.38,1.01.75,2.01,1.26,3.02,0,.13.13.38.25.38.13.13.38.13.63.13.5,0,1.13-.13,1.63-.25,3.52-1.13,7.17-1.76,10.56-3.27,1.89-.88,3.52-2.01,5.41-3.02s3.9-2.01,5.91-3.02c3.27-1.76,6.79-2.39,9.68-4.65s5.16-4.53,7.42-7.04,5.28-4.9,6.92-8.17c1.63-3.27.75-1.38,1.13-2.14s.75-1.63,1.01-2.52c.5-1.51,1.13-2.89,1.63-4.4.75-2.14,1.89-4.02,3.52-5.66.38-.38.75-.63,1.01-1.13,1.76-3.52,4.78-6.16,6.54-9.68,1.76-3.52,1.26-2.52,1.63-4.02.25-.63.38-1.26.63-1.89.25-.5.75-1.01,1.13-1.51.5-.63,1.01-1.26,1.51-1.76.88-1.13,2.01-2.14,3.02-3.27.75-.88,1.51-1.63,2.26-2.39,1.01-.88,2.26-1.76,2.89-2.89s.88-1.13,1.26-1.76.63-1.38.63-2.14c0-2.26-.25-4.4-.38-6.67s0-3.27-.13-4.9c0-.63,0-1.38.25-2.01s.75-1.13.63-1.76,0-1.26-.25-1.89v-.75c0-.75-.25-1.51-.38-2.26-.5-2.64-2.01-5.03-3.14-7.55s-3.02-5.03-2.64-7.8c.13-1.01-.38-2.14-1.26-2.52s-1.89-.13-2.52.5c-.25.25-.38.38-.5.63-.25.25-.63.5-.88.63-.63.25-1.26.38-1.76.63-1.89.75-4.02.88-6.16,1.01s-2.39.25-3.65,0c-.38,0-.63-.25-1.01-.25-1.13-.38-2.26-.75-3.4-1.13s-2.26-1.51-3.27-2.52c-.63-.63-1.13-1.26-1.38-2.14s-.38-1.38-.38-2.14l.63-.63.25-.25c.25-.38.25-.75.25-1.13,0-2.01-.25-4.02-1.13-5.79-1.01-2.14-2.26-4.4-3.65-6.16-.5-.63-1.13-1.13-1.63-1.63-.88-.75-1.89-1.51-2.77-2.26s-1.63-1.13-2.39-1.63-2.01-1.13-3.14-1.63c-3.9-1.89-8.05-3.02-12.33-3.27-.75.13-1.63.5-2.26.88-2.01,1.26-3.27,3.4-4.15,5.53s-.38.63-.5,1.01c-.25.38-.5.88-.88,1.26-.38.38-.75.63-1.13.88s-.88.75-1.38,1.01c-.75.5-1.38.88-2.26,1.26s-.63.25-.88.5-.63.5-1.01.63c-1.38.88-2.89,1.38-4.53,2.01-.25,0-.63.25-.75.25s-.63.25-.88.38c-.5.13-.88.38-1.26.63s-.75.38-1.26.5c-.25.13-.63.25-.88.38-.75.38-1.51.5-2.26.88s-1.51.75-2.39,1.01c-1.01.38-2.01.88-3.02,1.51-.63.38-1.38.75-1.89,1.26-.63.63-1.38,1.26-2.01,1.89s-1.01,1.38-1.26,2.14l.13-.38Z"/>
          <path class="cls-5" d="M919.29,583.31c-.25.38-.75.63-1.26.88,0,0-.25.25-.25.38v.25c.25.5.5,1.01.75,1.51s.63.88.63,1.38,0,1.01-.25,1.51c-.38,0-.75-.13-1.13-.38-.5-.25-1.01-.63-1.51-1.01s-.88-.88-1.01-1.38-.25-.38-.38-.63c-.63-.75-1.13-1.51-1.51-2.26-.25-.38-.38-.88-.63-1.26-.25-.5-.5-1.13-.63-1.76s-.25-1.26-.38-1.89,0-1.01-.13-1.51c0-.25-.13-.5-.13-.88v-.25h.13c.25,0,.5,0,.63.13.75.5,1.38.75,2.01,1.26s1.63.88,2.52,1.13.5,0,.75.13c.25,0,.5.13.88.13s.63,0,.75-.25c.5-.38,1.01-.38,1.63-.63s.63,0,.88,0,.38.25.63.38c.38.25.63.75.75,1.13v.63c-.13.5-.5.88-1.01,1.13s-.25.25-.5.25c-.5.38-1.01.75-1.51,1.13-.25.25-.5.38-.75.63v.13Z"/>
          <path class="cls-5" d="M1030.09,594.88h0v-.25h-.25v.25c0,.25-.25.5-.38.75,0,.13-.25.25-.25.5-.25.5-.5,1.01-.88,1.51-.25.5-.63,1.01-.88,1.51.5,1.63,1.01,3.14,1.51,4.78.5,1.76,1.13,3.52,1.38,5.28s.13.88.25,1.38v.5c0,.13,0,.25-.13.38-.25.5-.25,1.01-.25,1.38v.88c.38,1.63.75,3.27,1.13,4.9s0,.25,0,.38c.5,1.26.88,2.64,1.38,3.9s.5.88.75,1.26c.13.25.25.5.25.75v.63c0,.38-.25.75-.25,1.01-.5,1.76,0,3.52.63,5.28s1.63,3.9,2.64,5.66,1.63,2.26,2.52,3.52,2.39,3.02,3.4,4.65,1.89,2.89,2.77,4.4.38.5.5.88c.13.25.38.63.5,1.01.25.5.5,1.01.63,1.51s.5,1.13.5,1.63v1.51c.13.5.25.88.38,1.38s0,.38,0,.63,0,.5.13.75v.75c0,.25,0,.5.25.88.13.5.38,1.13.5,1.63s0,.25.13.38c.38.75.75,1.63,1.13,2.39,0,0,0,.25.13.25.38.25.25.5.38.88.75,1.89,1.26,3.9,2.26,5.53.38.63,1.01,1.38,1.76,1.26.63,0,1.13-.5,1.51-.88,1.26-1.26,3.14-1.89,4.65-2.77.25-.13.5-.25.63-.5.5-.75,1.38-1.13,2.01-1.89s1.26-1.51,1.51-2.52.5-2.39.63-3.52c-.25-.38-.63-.38-1.01-.5-.25-.13-.5-.38-.88-.5-.38-.25-.88-.5-1.38-.75-.38-.13-.63-.38-1.01-.5-.5-.25-.88-.5-1.38-.88-.88-.63-1.76-1.13-2.52-1.76l-2.77-2.01c-.25-.13-.38-.38-.25-.63v-1.26c0-.38,0-.25-.25-.5-.38-.63-.75-1.26-1.13-1.89s-.5-.88-.88-1.26c-.63-.88-1.38-1.63-2.01-2.52s-1.51-2.14-2.26-3.4c-.38-.63-.75-1.26-1.13-1.76-.13-.25-.25-.5-.38-.88-.38-.5-.75-1.01-1.01-1.51s-.5-1.13-.88-1.51c-.88-1.13-1.63-2.39-2.39-3.65s-1.89-2.89-2.77-4.53-1.51-2.64-2.14-4.02,0-.38-.13-.5c-.5-1.13-1.01-2.14-1.51-3.27,0-.25-.25-.5-.25-.88,0-.5-.25-1.01-.5-1.51s-.25-.5-.38-.75,0-.5-.25-.75c-.38-1.01-.5-2.14-.63-3.14s-.25-.75-.13-1.26c0-.13,0-.38.13-.5,0-.25.13-.63,0-1.01,0-1.13-.38-2.14-.5-3.14s-.63-1.89-.75-2.77,0-.25,0-.25c-.13-.38-.25-.88-.38-1.26s0-.25,0-.25c0-.25,0-.5-.25-.75v-.38c0-.63-.38-1.13-.63-1.76s-.38-1.13-.5-1.63,0-.25,0-.38c-.13-.5-.25-1.13-.38-1.63s-.13-.38-.13-.63c0-.38-.13-.63-.25-1.01,0-.38-.13-.75-.25-1.13h0c-.13,0-.25.25-.38.38s0,.38,0,.5h.5l.5-.5Z"/>
          <path class="cls-5" d="M1000.28,713.98c0-.5.25-1.01.38-1.51s.25-1.13.38-1.63c0-.5.25-1.01.5-1.38s.75-.75,1.26-.63c.5,0,.88.38,1.13.88.25.5.25,1.01.38,1.51s.13,1.26.13,2.01v8.68c0,1.63,0,3.4.25,5.03,0,.25,0,.5.38.63h.25c.25,0,.5-.25.63-.38,1.63-1.01,3.14-2.26,4.53-3.65s1.01-.88,1.51-1.26c1.38-1.26,2.89-2.52,4.28-3.9l1.38-1.38c.38-.38.75-.75,1.26-1.01s1.13-.25,1.51,0c.13,0,.38.25.5.38.5.63.63,1.51.25,2.14s-1.01,1.38-1.51,2.14c-.88,1.38-1.89,2.39-2.89,3.65-.88,1.01-1.89,2.14-2.64,3.4s-.88,2.26-.88,3.52c0,1.13.13,2.26.75,3.27.88,1.76,1.38,3.4,2.52,5.16,1.01,1.51,2.14,3.14,3.27,4.65s2.14,2.77,2.52,4.53v.88c0,.5-.5,1.01-1.01,1.13s-1.13,0-1.63-.25c-2.77-1.63-5.03-4.15-7.8-5.79s-1.01-.63-1.51-.88c-.38-.13-.88-.38-1.26-.38-.5,0-1.01.25-1.38.75s-.5.88-.75,1.38c-.25.75-.38,1.38-.38,2.14v7.17c0,2.39-.38,2.77-.63,4.28,0,.5,0,.88-.25,1.38s-.5.88-.88,1.01c-.25.13-.63.25-1.01.25h-.75c-.5-.25-.75-.75-.88-1.26-.38-1.01-.38-2.01-.5-3.02,0-.75-.25-1.38-.25-2.14s-.38-1.63-.5-2.39-.25-1.51-.5-2.26c-.5-1.89-1.01-3.65-1.51-5.53s-.25-.88-.5-1.26c-.38-.38-1.01-.75-1.51-.5s-1.26.75-1.89,1.13-1.13.63-1.76,1.01c-.38.25-.75.5-1.13.75-1.13.75-2.39,1.38-3.52,2.14-.38.25-.75.5-1.13.88-.5.38-1.01.63-1.51.88-.75.5-1.63,1.01-2.52,1.13-.5.13-1.13.13-1.63,0s-.88-.88-.75-1.38c0-.25.25-.5.38-.75.75-1.26,1.89-2.26,3.02-3.14s2.52-2.01,3.77-2.77c2.14-1.38,3.65-3.52,5.28-5.53s1.01-1.26,1.26-2.14.13-1.76-.25-2.52-1.01-1.89-1.51-2.89c-.13-.25-.25-.63-.5-.88-.13-.25-.38-.5-.5-.75-.5-.63-1.01-1.26-1.51-1.89-1.13-1.51-2.26-3.14-3.52-4.53s-.63-.88-1.01-1.38-.88-1.13-1.13-1.76c-.13-.38-.25-.88,0-1.26s.75-.63,1.13-.5c.5,0,1.01.25,1.38.5s.75.63,1.13,1.01c.75.75,1.51,1.51,2.14,2.26,2.52,2.52,4.65,5.28,7.29,7.55.13.13.25.25.5.25s.63,0,.88-.25.38-.5.5-.75c.63-1.38.5-3.02.5-4.4v-9.31c0-1.13,0,0,0,0v-.25Z"/>
          <path class="cls-5" d="M951.99,670.34v1.13c0,.25-.13.5-.13.75v1.63c0,.63.13,1.38.38,2.01.25.88.75,1.76,1.26,2.64.38.63.63,1.13,1.01,1.76,1.13,1.63,2.89,2.64,4.65,3.65s3.65,1.76,5.41,2.52,3.52,2.01,5.41,3.02c1.13.63,2.14,1.26,3.14,1.89.63.5,1.38,1.01,1.89,1.51,1.51,1.38,3.27,2.77,4.78,4.15s2.77,3.27,4.28,4.9c.63.75,1.26,1.38,1.89,2.01,1.01,1.01,1.89,2.14,2.89,3.14s2.14,2.14,3.27,3.14c.63.5,1.26,1.13,2.01,1.38,1.26.63,2.64,1.26,4.02,1.63s2.89.5,4.4.75c1.26.13,2.39,0,3.52-.38.38,0,.88-.25,1.26-.38.5-.13.88-.25,1.38-.5,1.01-.38,1.76-1.13,2.52-1.89.63-.75,1.38-1.38,1.89-2.14s1.26-1.76,1.89-2.64c1.38-2.26,3.02-4.28,4.4-6.54s1.51-3.4,2.26-5.03c2.01-4.28,4.65-8.17,8.3-11.44s1.76-1.63,2.89-2.26c3.52-1.89,7.17-3.4,11.07-4.28,1.26-.25,2.39-1.26,3.4-1.89,1.76-1.13,3.4-2.52,4.65-4.15s.75-.13,1.13,0c.5.13,1.01.5,1.51.88.38.38.75.88.88,1.51v.63l-.25.25c-.38.38-.75.63-1.13.88-1.26.75-2.14,2.01-3.4,2.77s-1.63,1.13-2.64,1.63c-1.01.63-2.14,1.01-3.27,1.26-1.13.38-2.26.75-3.52,1.13s-2.39.63-3.52,1.26c-1.89.88-3.9,2.01-5.41,3.52-.88.88-1.89,1.63-2.64,2.64l-1.26,1.26c-.38.38-.75,1.13-1.01,1.63s-.75,1.13-1.01,1.76-.88,1.51-1.26,2.39c0,.25-.25.5-.38.75-.13.38-.38.75-.5,1.13-.38.88-.75,1.76-1.13,2.64-.25.5-.5,1.13-.75,1.63-.25.38-.38.88-.63,1.26s-.25.25-.25.5-.13.5-.38.63c-.13.25-.25.38-.38.63-1.01,1.26-1.89,2.39-3.02,3.65s-.38.5-.5.75-.25.5-.38.75c-.75,1.38-1.76,2.52-2.89,3.52-2.01,1.89-4.4,3.14-7.04,3.77s-5.79.38-8.93,0c-3.14-.38-4.65-1.89-6.67-3.52s-2.39-1.89-3.52-2.89c-.5-.38-.88-.88-1.38-1.26-.5-.5-.88-1.01-1.26-1.51-1.38-2.01-3.52-3.52-5.16-5.28s-2.77-3.27-4.53-4.4c-.38-.25-.75-.5-1.01-.75-1.89-1.89-4.4-2.52-6.79-3.65s-3.14-1.13-4.65-1.63c-.75-.25-1.51-.5-2.14-.88-1.01-.63-2.26-1.01-3.4-1.63-.38-.25-.75-.38-1.01-.63-.38-.25-.75-.5-1.01-.75-1.13-.75-2.39-1.38-3.52-2.26s-2.14-1.89-3.14-3.02-2.14-2.14-3.27-3.14-1.89-2.52-2.77-3.77c-.25-.38-.38-.75-.5-1.13-.25-.88,0-1.89.38-2.64.38-.5.88-.88,1.26-1.26.75-.63,1.63-1.26,2.39-1.89.25-.25.5-.38.88-.5.25,0,.63-.13,1.01-.13h2.26c.75,0,1.38.63,1.76,1.26v.5l-.25-.38Z"/>
          <path class="cls-5" d="M949.47,637.64l1.13,1.63c.63.75,1.13,1.63,1.63,2.52.5,1.13.75,2.39,1.01,3.65s1.13.63,1.89.63c1.76,0,3.65,0,5.41-.5,1.01-.25,1.89-.5,2.89-.63,0-.38-.63-.63-.88-.75-2.26-1.51-4.9-2.77-6.67-4.78s-1.38-1.38-2.01-2.26c-.63-.88-1.26-1.76-1.89-2.64s-.63-.88-1.01-1.26-.13-.38-.25-.5c-.38-.5-.63-1.13-1.01-1.63s-.88-1.26-1.26-1.76c-.75-.88-1.13-2.01-1.89-2.89s-1.38-1.76-2.01-2.64c-1.01-1.51-2.26-2.77-3.65-4.02s-1.38-1.13-1.89-1.63-1.13-1.63-1.63-2.39-.75-1.26-1.13-2.01-.5-.88-.88-1.26c-.25-.25-.5-.5-.88-.63s-.75-.13-1.01,0c-.63.25-.75,1.01-.88,1.63v1.26c.25,1.26,1.01,2.39,1.76,3.52.63.88,1.13,1.63,1.76,2.52s1.26,1.38,1.89,2.01c1.51,1.38,2.89,2.77,4.15,4.28s3.02,4.28,4.4,6.41l3.02,4.53-.13-.38Z"/>
          <path class="cls-5" d="M950.23,655.5c-.38.5-.75,1.01-1.26,1.38-.38.25-.75.5-1.13.75-.88.5-1.63.88-2.52,1.38-3.4,1.89-5.53,5.16-7.42,8.55s-1.89,3.14-3.27,4.15c-.38.38-1.01.63-1.51.5-.63-.13-1.01-.88-1.26-1.63-.63-1.89-1.63-4.15-1.38-6.04.25-3.27-.75-6.41-1.51-9.56-.13-.75-.38-1.38-.38-2.14-.38-2.01-.38-4.15,0-6.16s.5-3.52,1.26-5.28,1.01-2.89,1.76-4.28c.25-.5.63-1.01.75-1.63.38-.88.63-1.89.88-2.89.63-2.64.88-5.03.88-7.67s-.25-4.78,0-7.17-.13-3.02,0-4.65c.25-.25.63-.5.88-.75l.25-.25v-.5c-.38-.63-.88-1.38-1.26-2.01-1.13-1.63-1.89-3.4-2.89-5.16s-1.76-3.27-2.64-4.9-.5-.75-.63-1.13c-.25-.63-.63-1.38-1.26-1.63-.5-.25-1.01-.13-1.51,0s-.88.5-1.38.75c-.5.38-.88.63-1.13,1.13-.25.5-.25,1.01-.25,1.51,0,1.13.25,2.26.63,3.4,1.51,4.4,2.26,8.93,3.02,13.46s.25,10.06,0,15.09-3.02,11.07-4.9,16.48-.75,9.18-.75,13.83-1.01,4.15-1.76,6.29c-1.89,5.03-2.64,10.69-2.77,16.1s0,3.02.25,4.4v.63c0,.25-.25.38-.5.63-2.01,1.89-3.77,3.9-5.28,6.04s-.75,1.76-.88,2.77c0,.5,0,1.01.25,1.38.25.38.63.5,1.01.75.5.13,1.01.25,1.38,0,.25,0,.38-.25.5-.38.5-.38.88-.63,1.38-1.01,3.27-2.26,6.92-4.02,9.81-6.92s6.54-7.17,10.19-10.56,1.38-1.38,2.14-2.01c2.14-1.89,4.28-3.77,6.41-5.53s3.52-1.76,5.41-2.77c1.13-.63,2.14-1.26,3.02-2.14.5-.38,1.01-.88,1.26-1.51.88-1.51.38-3.4-.25-5.03l-1.13-8.43-.5.38Z"/>
          <path class="cls-5" d="M1064.8,662.04c.5-.75,1.13-1.38,2.01-1.89.5-.38,1.13-.63,1.76-.63s1.26.25,1.63.75.38,1.13.25,1.76-.25,1.13-.38,1.76c0,1.26.88,2.14,1.63,3.02.75,1.01,1.63,1.89,2.39,2.77s1.13,1.89,1.89,2.77,1.76,2.01,2.52,3.02c1.63,2.14,3.27,4.15,4.9,6.29,2.89,4.02,5.79,7.8,8.8,11.82,3.02,4.02,4.9,5.16,7.42,7.67.38.38.75.75,1.38.75s1.01-.63,1.38-1.26c1.26-2.39,2.52-4.65,3.52-7.17s.63-2.26.63-3.52c0-2.64-.13-5.41-.13-8.05s-.13-5.53-.38-8.3,0-3.77.13-5.53c0-4.15.5-8.05-.13-12.2s-1.51-6.67-2.64-9.81-4.02-7.8-4.15-12.07-.25-10.94,0-16.6,1.01-10.82.5-16.35-.5-3.9-1.01-5.79c-1.13-3.52-2.26-7.04-3.27-10.56s-.88-3.4-1.13-5.16c-.13-1.13-.25-2.26-.5-3.4-.25-.88-.5-1.76-.88-2.52-1.26-3.4-2.01-6.92-2.52-10.56s-.5-3.14-.88-4.65l-3.77-12.2c-1.26-4.28-4.9-8.05-6.54-12.2s-6.79-9.43-10.94-13.33-3.14-1.76-4.53-2.52c-9.31-5.03-19.49-9.94-26.16-18.49-6.67-8.55-1.38-1.76-1.89-2.77-.5-.88-.88-1.89-1.13-2.77-1.13-3.52-2.14-7.17-2.89-10.82s-3.02-8.55-4.4-13.08-3.9-11.7-8.55-15.59-6.29-7.8-10.82-10.06c-3.02-1.51-6.41-2.26-9.68-3.4s-2.39-1.38-3.4-2.39c-1.38-1.26-2.89-2.52-4.53-3.77-2.26-1.63-4.78-3.27-7.55-3.27-3.14,0-6.04-1.38-9.06-1.51-3.02-.13-6.29,0-9.18.63s-5.66,1.76-8.43,2.52c-6.16,1.89-12.45,3.77-18.49,5.91-5.79,2.01-10.94,5.53-15.34,9.68-.75.75-1.38,1.63-2.14,2.52s-1.38,1.13-2.01,1.76c-1.76,1.51-3.52,3.14-5.16,4.78-3.4,3.4-6.54,6.92-9.31,10.69-4.78,6.29-7.55,13.46-10.44,20.75s-1.51,7.8-1.63,11.95c0,2.01,0,4.02.13,6.04,0,2.14-.25,4.4-.13,6.54,0,1.63.25,3.4.5,5.03s0,2.89.25,4.4c.25,3.02,1.51,5.91,3.4,8.05.13.25.38.38.63.5.5.13,1.01,0,1.51-.38,1.63-1.13,3.14-2.52,4.4-4.02s4.28-2.64,6.79-3.27,5.03-.88,7.67-1.13,3.52-1.26,5.16-2.39c4.02-2.89,6.92-7.42,11.32-9.56s3.9-.88,5.53.25c1.13.75,1.76,1.89,2.14,3.14.63,1.63,1.13,3.52,2.01,5.03s2.14,3.02,3.9,3.65c5.16,1.63,10.69.25,15.97,1.76,5.28,1.51,5.28-.13,7.92.38s2.26.63,3.52,1.13c.63.25,1.26.63,1.51,1.26.13.75-.5,1.51-1.01,1.89-1.76,1.38-3.9,2.26-6.04,2.64-3.9,0-7.92.13-11.7,0s-5.28-.25-7.92-.88c-.88-.25-1.76-.5-2.77-.75-3.27-.88-6.54-1.26-9.94-1.51-1.38,0-2.64-.13-4.02,0-2.01,0-3.9,1.01-5.91,1.51-1.13.25-2.39.63-3.65.88-4.28.88-8.93,1.13-12.45,3.65-3.52,2.52-3.52,1.63-5.03,2.64-.63.38-1.51.88-2.14,1.51s-1.01,1.51-1.51,2.14l-3.27,4.9c-.25.5-.63.88-1.01,1.26-.88.75-2.01,1.26-3.14,1.26s-2.26-.25-3.4-.5c-1.01-.38-1.89-.75-2.52-1.51-1.01-1.26-2.14-2.39-2.77-3.77s-.88-3.02-1.13-4.65c-.38-1.89-.63-3.65-1.01-5.53s-.88-3.14-1.26-4.9c-.75-3.27-.75-6.54-.88-9.94,0-3.77,0-7.29.63-11.07.25-1.76,0-3.77.5-5.53.63-2.01,1.26-4.02,1.63-6.16.5-2.52.75-5.03,1.51-7.42.38-1.26.75-2.39,1.13-3.65.38-1.38.88-2.77,1.51-4.02.25-.5.63-1.01.88-1.38.38-.63.75-1.13,1.13-1.76,1.38-2.14,2.64-4.4,4.02-6.54,2.52-4.15,5.16-7.92,7.8-12.07s3.14-3.9,4.65-5.91c.63-.88,1.38-1.63,2.14-2.39.5-.5,1.13-.88,1.63-1.38,2.01-1.89,3.9-3.9,5.91-5.79,1.76-1.51,3.65-2.77,5.41-4.4s3.77-3.02,5.79-4.28c.63-.38,1.26-.75,2.01-1.13,1.89-1.13,3.9-2.14,5.91-3.14s.75-.25,1.01-.38c3.77-1.89,7.42-3.77,11.32-5.28s3.27-.63,4.78-1.01c1.01-.25,2.14-.38,3.14-.5h2.89c5.28,0,10.56-.13,15.85,0,3.4,0,6.79.25,9.94,1.26,5.16,1.51,10.06,3.02,14.97,5.03,1.38.63,2.77,1.13,4.15,2.01,2.39,1.38,4.4,3.4,6.92,4.65,6.67,3.02,11.07,9.31,16.35,14.34,4.53,4.28,8.3,9.31,10.82,14.97,2.52,5.66,5.79,11.7,7.92,18.11s3.77,8.55,6.16,12.7c2.39,4.15,9.56,9.18,14.97,13.08,5.41,3.9,7.29,7.29,11.07,11.07s6.04,7.55,9.06,11.44c2.26,2.89,4.15,5.91,5.53,9.31.5,1.13.63,2.39.88,3.52.88,4.65,3.14,9.06,4.65,13.58,1.01,3.02,1.26,6.29,2.39,9.18,3.77,10.06,7.04,20,8.3,30.81,1.26,10.82-1.01,12.95.25,19.49,1.26,6.54.75,6.67,2.39,9.94s3.77,6.29,5.79,9.31.5,2.26,1.01,3.4c1.38,3.65,1.38,7.29,1.26,11.19s-.25,8.55-.5,12.7-.25,2.77-.25,4.28v2.52c0,2.64.5,5.28,1.01,7.92s.5,2.14.88,3.4c1.26,3.77,1.76,7.8,1.51,11.82-.63,7.67-1.26,15.47.5,23.02,1.76,7.55.25,1.89,0,3.02s-.63,2.26-1.63,2.77c-.63.38-1.26.5-2.01.5h-1.51c-1.76-.38-3.02-1.89-4.15-3.02s-3.14-3.4-4.78-5.16c-3.14-3.52-6.41-6.92-9.56-10.44-3.02-3.27-6.29-6.04-9.43-9.18s-3.02-3.14-4.4-4.9-2.14-3.65-3.27-5.41c-2.64-3.9-5.53-7.8-8.68-11.44s-4.9-6.67-7.55-9.81v-2.01l-.63.13Z"/>
          <path class="cls-5" d="M919.04,588.97c1.63.75,3.02,2.01,4.15,3.4s2.14,2.89,3.14,4.4c.13.25.38.5.38.88s0,.63-.25.88c-.13.13-.38.25-.63.25-.75.25-1.51.13-2.26,0s-1.26-.88-1.63-1.51c-1.01-1.76-2.39-3.02-4.02-4.15s-3.02-2.64-4.4-4.02-3.27-3.9-3.77-6.29-.25-.75-.38-1.13c-.5-1.51-1.01-3.14-1.51-4.78-.88-3.02-1.38-5.91-2.14-8.93s-.63-1.76-1.01-2.64c-.5-.88-.88-1.76-1.38-2.64-.75-1.38-1.89-2.52-2.64-3.9-.25-.63-.63-1.38-.13-1.76.25-.25.63-.38.88-.38.63-.13,1.38-.25,2.01,0l.75.75c.63.88,1.13,1.76,1.76,2.64,1.38,2.01,2.26,4.28,3.14,6.54,1.26,3.27,2.01,6.79,2.52,10.31l7.29,12.07h.13Z"/>
          <path class="cls-5" d="M906.71,554.51c-1.38-.38-2.89-.5-4.4-.63s-.75-.25-1.01-.63c-.25-.25-.38-.5-.5-.75-.5-1.01-1.01-2.26-1.63-3.14s-.63-1.13-.88-1.63c0-.25-.13-.5-.25-.75s-.25-.25-.5-.38c-.75-.25-1.51-.38-2.26-.5-.25,0-.5,0-.75.13s-.38.5-.38.75,0,.63.13.88c.75,2.14,2.01,4.02,3.14,6.04v-.25c1.01,1.51,2.01,2.77,3.02,4.28l.25.25h.25c1.38,0,2.89-.25,4.28-.38,1.01,0,2.14.25,3.02.75s.88.5,1.38.88.38.38.63.38.5.13.75.38c.5.38,1.13.63,1.63.88s1.13.75,1.63,1.13c1.13.75,2.14,1.51,3.14,2.26s2.52,2.01,3.65,3.14c2.39,2.14,4.15,4.65,5.41,7.55s2.01,5.03,2.01,7.67.38,5.53.63,8.43c.25,2.89.5,2.39.88,3.52.63,2.14,1.26,4.28,1.89,6.41s2.64,5.66,4.28,8.3c.75,1.13,2.01,1.63,3.14,2.14s2.89,0,4.15-.38c1.13-.38,1.51-1.26,2.26-2.01s1.63-1.51,2.64-2.01,1.13-.63,1.89-.75c.88-.13,1.76-.38,2.64-.5.5,0,.88-.13,1.38-.38,1.13-.38,2.01-1.38,2.26-2.52s.5-.88.63-1.38c.25-.75.13-1.51-.38-2.14s-1.26-.88-2.01-.75h-.38c-.25.13-.38.38-.38.63-.25.5-.38.88-.63,1.38-.13.38-.25.63-.5.88s-.63.38-1.01.38c-1.76.25-3.27.75-4.9,1.38s-.38,0-.63.25c-1.13.75-2.39,1.51-3.27,2.52-.25.38-.5.63-.75,1.01s-.63.5-1.13.5h-.88c-.75,0-1.26-.5-1.76-1.01s-.75-1.01-1.01-1.51c0-.13-.25-.38-.25-.5-.75-1.38-1.38-2.89-2.01-4.4s-1.01-2.52-1.51-3.9c-.75-2.14-1.13-4.4-1.26-6.67s0-.75,0-1.26c0-2.01-.38-4.02-.88-6.04-.38-1.63-.63-3.4-1.01-5.03s-.38-1.63-.75-2.52c-.88-2.26-2.01-4.4-3.27-6.41s-3.27-4.02-5.53-5.66-1.89-1.51-2.89-2.26c-.63-.5-1.13-.88-1.76-1.38-1.51-1.13-3.14-2.14-4.78-2.89l-5.28-2.01.38.25Z"/>
          <path class="cls-5" d="M1116.87,718.26l-2.52,2.64s-.25.25-.25.38c-.13.38,0,.75.25,1.01.5.5.88.88,1.26,1.51s.88,1.26,1.51,1.76c.5.63,1.13,1.13,1.63,1.76,2.89,3.14,5.28,6.41,8.3,9.43s3.02,4.28,4.53,6.41c.63.75,1.13,1.63,1.76,2.39.5.75,1.13,1.51,1.63,2.26,1.38,2.01,2.26,4.28,3.14,6.54s.88,2.26,1.13,3.4.63,2.77.88,4.28c.38,2.01.75,4.02.75,6.16s-.5,4.15-1.01,6.16-1.38,4.02-2.64,5.79c-3.14,4.02-6.67,7.55-11.19,10.06s-1.76,1.63-2.77,2.26c-.75.5-1.63,1.01-2.52,1.38-3.02,1.63-6.04,3.27-9.31,4.15-2.14.63-4.28,1.51-6.29,2.39s-4.02,1.63-6.16,2.52c-5.53,2.26-11.32,3.65-17.1,5.03s-4.9,1.01-7.42,1.51c-.63.13-1.26.25-1.89.38-.63,0-1.26,0-1.89.13-1.38,0-2.89.38-4.28.63-1.13.13-2.26.38-3.27.5-3.02.5-6.04.75-9.06,1.38-.75.13-1.51.25-2.26.38h-8.93c-2.14,0-5.79.25-8.68.38-3.02.13-6.04.38-8.93.88-4.65,1.01-9.43,1.51-14.21,1.51s-2.26,0-3.4-.25c-4.15-.63-8.17-1.26-12.33-1.89-4.15-.63-3.4-.13-5.03-.25-.75,0-1.38,0-2.14-.25-.63,0-1.13-.25-1.76-.25-2.64-.5-5.41-.5-8.05,0-5.66.88-11.19.5-16.85.63-5.66.13-11.95.75-17.86-.13-3.27.25-6.67-.38-9.94-1.01-4.02-.75-8.05-1.51-12.07-2.39-7.67-1.63-15.22-3.52-22.13-7.04-6.92-3.52-11.32-3.77-17.1-5.28-5.79-1.51-6.54-1.76-9.81-3.02-1.51-.63-3.27-1.13-4.65-2.01s-2.64-1.51-3.9-2.14c-3.77-2.14-7.17-4.53-9.81-7.92-.75-1.01-1.76-1.89-2.52-2.89-1.26-1.63-2.26-3.4-2.89-5.28s-.5-1.63-.75-2.39-.13-2.26-.13-3.27c0-1.13.13-2.26.38-3.27.5-3.65,3.14-6.79,5.28-9.94,2.14-3.14,4.28-5.03,6.67-7.67,1.01-1.01,2.01-2.14,3.02-3.14,2.14-2.26,4.53-4.4,6.79-6.54s3.9-3.9,5.91-5.79c1.76-1.76,3.65-3.65,5.16-5.53s1.13-1.38,1.76-2.26c1.01-1.13,2.14-2.39,3.14-3.52s2.14-2.52,3.4-3.4c1.01-.63,2.01-1.38,3.02-2.26,2.64-2.14,5.41-4.02,8.05-6.16,1.63-1.38,3.4-2.52,5.16-3.77s1.63-1.38,2.52-1.89,2.01-1.13,2.89-1.63c.5-.25,1.13-.63,1.63-1.01-.38-.5-.63-1.26-.88-1.76-.38-1.01-.88-1.89-1.38-2.77-.25,0-.38.13-.5.38-.25.25-.5.38-.75.63-.63.5-1.13,1.01-1.63,1.51-.88,1.01-1.89,1.51-2.77,2.52s-2.77,2.14-4.15,3.27c-.5.38-.88.75-1.38,1.13s-.38.25-.63.5c-.25.25-.63.5-.88.75-.38.25-.63.38-1.01.63-1.26.88-2.52,1.76-3.77,2.77s-1.01.88-1.63,1.38-1.26.88-1.89,1.26c-1.01.75-1.89,1.63-2.89,2.26s-.25,0-.38.13c-1.76,1.13-3.52,2.14-5.41,3.27s-2.01,1.51-3.14,2.39c-.25.25-.63.5-.88.75-8.17,8.17-18.11,14.34-24.9,23.64s-13.83,17.1-18.36,27.29-3.52,4.15-5.66,6.04c-4.9,4.4-7.92,10.94-8.05,17.48-.25,10.06,11.7,16.1,19.12,22.89,1.13,1.13,2.39,2.14,3.9,2.77,1.13.5,2.52.63,3.65.25s2.52,0,3.65,0c2.89.38,5.79.88,8.55,1.51,6.29,1.38,12.45,1.89,18.86,2.52,6.41.63,4.65.25,7.04.38,4.28,0,8.68-.5,12.95,0,.88,0,1.76.25,2.52.25,6.04.25,11.95,0,17.86.38,5.91.38,6.92,1.51,10.56,1.76,3.14.25,6.29.5,9.43.75h2.01c6.54,0,13.21.38,19.75.25,1.38,0,2.89,0,4.28-.25s2.77,0,4.28,0c3.14,0,6.16,0,9.31-.25,4.28,0,8.55-.25,12.7-.5s8.8-.75,13.08-1.38c1.01-.13,2.01-.38,3.02-.38h1.51c.5,0,1.01,0,1.63-.13,2.14-.13,4.4-.38,6.54-.5s1.51,0,2.14,0c1.01,0,2.14-.13,3.14-.25s2.01,0,3.02,0h6.54c2.14,0,.38,0,.5,0,.88,0,1.76.13,2.77,0h1.13c1.76-.13,3.4-.25,5.16-.38s3.4-.13,5.03-.38c.88,0,1.76-.25,2.64-.25h3.77c10.56-2.89,21.88-.25,32.82-.88.38,0,.75,0,.88-.38,0-.13,2.39.13,2.64.13.88,0,1.76,0,2.77.13,1.76,0,3.65.25,5.41.38,3.52.25,7.04.5,10.56.5h3.14c.75,0,1.51,0,2.39-.13.88,0,1.89-.25,2.77-.5,1.13-.25,2.26-.5,3.27-.75,3.4-.75,6.79.13,10.31.25h2.64c.75,0,1.51-.13,2.14-.38,3.14-1.13,6.79-.75,10.19-1.26,5.41-.63,10.31-1.01,15.59-2.01.25,0,.63,0,.75-.38,5.16-8.17,13.58-13.83,18.49-22.13,4.9-8.3,0-5.28-.38-7.8s-.38-1.38-.5-2.01c-1.01-3.27-2.14-6.54-4.15-9.31s-2.89-3.9-4.65-5.53c-1.01-.88-2.26-1.76-3.27-2.64-1.38-1.26-2.52-2.64-3.65-4.02s-2.39-3.4-3.27-5.16c-1.63-3.4-3.77-6.41-5.66-9.68s-.75-.75-1.26-1.38c-2.39-3.27-4.9-6.54-7.92-9.18-4.78-4.15-9.43-8.05-13.83-12.58s-1.89-3.14-2.89-4.78c-2.01-3.14-4.02-5.66-5.79-9.06s-.25-.38-.25-.63l-3.77,4.15h-.5Z"/>
        </g>
        <g id="finjustering">
          <path class="cls-13" d="M963.18,431.64c-.13,0-.25,0-.38.13-.38.25-.25.75,0,1.13.5,1.51,1.01,2.89,1.51,4.4,0,0,0,.13.13.25h.25c.63,0,1.13-.25,1.63-.63.63-.38,1.13-.88,1.38-1.63.25-.5.25-1.01.38-1.51.13-.75.25-1.51.38-2.26s.25-.63,0-.88-.75,0-1.01,0c-.75,0-1.51.25-2.26.25s-1.38.38-2.14.38l.13.38Z"/>
        </g>
        <g>
          <path class="cls-4" d="M421.72,134.14l78.46,155.56,140.73-35.21,94.64-9.75,76.61-.93,68.73,7.83,47.47,15.47,85.11,39.01s198.31,77.99,312.08,12.3c0,0,15.71,7.53,48.28-90.21,0,0,98.06-57.86,222.83-17.26,0,0-30.87-80.12-176.98-66.19,0,0,119.68-44.44,144.3-108.71,0,0-100.87,27.53-207.99,26.89,0,0-125.62-38.09-131.06,28.24,0,0,6.59,32.97,149.87,23.79,0,0-103.74,60.79-222.39,34.62,0,0-417.18-163.06-598.82-66.4l-131.87,50.94Z"/>
          <path class="cls-4" d="M504.8,291.58l111.53-28.79,26.54,47.48s15.95,30.08-45.2,34.46c0,0-121.16,31.44-161.09,93.15,0,0-31.71-27.64,49.4-113.45,0,0-98.72,25.49-133.41-27.22,0,0,109.06-.85,127.7-34.42"/>
          <polygon class="cls-12" points="1224.93 91.19 1215.59 148.01 1321.76 171.62 1385.2 123.94 1371.13 97.57 1224.93 91.19"/>
          <path class="cls-6" d="M421.72,134.14l78.46,155.56,114.54-29.74,13.05-3.39s226.97-39.77,313.91,18.16c0,0,185.24,98.85,330.05,61.35,0,0,67.44-9.1,77.91-44.46l26.7-85.02,1.84-8.44v-87.18s-74.11,62.83-240.64,36.46c0,0-378-163.08-593.17-60.05l-122.66,46.74Z"/>
          <path class="cls-6" d="M1215.04,151.67l11.47-75.35s18.11-40.9,125.23-13.35c0,0,185.38.21,207.96-33.14l14.35-13.37-17.78,34.58s-45.4,61.09-141.35,94.36c0,0,116.47-19.11,177.77,53.52l12.01,13.81-31.82-7.02s-77.2-30.22-199.05,22.5l-5.71,3.2"/>
          <path class="cls-6" d="M1374.8,111.22s-129.88,15.74-149.87-17.18"/>
          <path class="cls-6" d="M614.71,259.96l26.19,46.17s20.91,33.28-37.84,36.96c0,0-151.67,44.16-171.04,105.03l-4.69,9.88,3.35-35.07s-2.81-53.06,64.81-99.87c0,0-89.89,31.95-136.91-19.78l-6.02-6.06s87.59,5.29,132.03-38.41"/>
          <path class="cls-6" d="M506.4,288.08s-26.34,45.58,134.5,18.04"/>
        </g>
      </g>
      <text class="cls-10" transform="translate(514.64 227.02) rotate(-20.58)"><tspan x="0" y="0"> </tspan></text>
      <text class="cls-10" transform="translate(535.04 219.36) rotate(-18.14)"><tspan x="0" y="0"> </tspan></text>
      <text class="cls-11" transform="translate(555.8 212.53) rotate(-15.9)"><tspan x="0" y="0"> </tspan></text>
      <text class="cls-8" transform="translate(578.37 205.01) rotate(-11.45)"><tspan x="0" y="0">G</tspan></text>
      <text class="cls-8" transform="translate(652.9 189.96) rotate(-5.18)"><tspan x="0" y="0">A</tspan></text>
      <text class="cls-8" transform="translate(722.86 182.79) rotate(1.92)"><tspan x="0" y="0">M</tspan></text>
      <text class="cls-8" transform="translate(815.16 186.59) rotate(9)"><tspan x="0" y="0">E</tspan></text>
      <text class="cls-8" transform="translate(879.76 197.53) rotate(13.1)"><tspan x="0" y="0"> </tspan></text>
      <text class="cls-8" transform="translate(903.5 203.05) rotate(15.34)"><tspan x="0" y="0"> </tspan></text>
      <text class="cls-8" transform="translate(926.97 209.48) rotate(17.58)"><tspan x="0" y="0"> </tspan></text>
      <text class="cls-8" transform="translate(949.25 216.19) rotate(29.82)"><tspan x="0" y="0">O</tspan></text>
      <text class="cls-8" transform="translate(1023.29 257.59) rotate(20.42)"><tspan x="0" y="0">V</tspan></text>
      <text class="cls-8" transform="translate(1097.62 284.58) rotate(11.23)"><tspan x="0" y="0">E</tspan></text>
      <text class="cls-8" transform="translate(1171.03 298.81) rotate(.54)"><tspan x="0" y="0">R</tspan></text>
      <text class="cls-7" transform="translate(1249.19 297.41) rotate(-7.56)"><tspan x="0" y="0"> </tspan></text>
      <text/>
    </g>
  </g>
</svg>