<?xml version="1.0" encoding="UTF-8"?>
<svg xmlns="http://www.w3.org/2000/svg" viewBox="0 0 1920 1080">
  <defs>
    <style>
      .cls-1, .cls-2, .cls-3, .cls-4, .cls-5, .cls-6, .cls-7, .cls-8, .cls-9, .cls-10, .cls-11, .cls-12 {
        stroke-miterlimit: 10;
      }

      .cls-1, .cls-2, .cls-3, .cls-5, .cls-7, .cls-8, .cls-10, .cls-11 {
        stroke-width: .25px;
      }

      .cls-1, .cls-4, .cls-6, .cls-9, .cls-13, .cls-12 {
        stroke: #000;
      }

      .cls-2 {
        fill: #786258;
      }

      .cls-2, .cls-3, .cls-5, .cls-7, .cls-8, .cls-10, .cls-11 {
        stroke: #000250;
      }

      .cls-3 {
        fill: #616161;
      }

      .cls-4 {
        fill: #f8a600;
        stroke-width: 5px;
      }

      .cls-14 {
        font-family: TimesNewRomanPS-BoldMT, 'Times New Roman';
        font-size: 100px;
        font-weight: 700;
      }

      .cls-5 {
        fill: #000306;
      }

      .cls-6, .cls-15 {
        fill: #fff;
      }

      .cls-7 {
        fill: #fff0dd;
      }

      .cls-8 {
        fill: #ddc6c5;
      }

      .cls-9 {
        fill: #cce4ff;
      }

      .cls-10 {
        fill: #51342f;
      }

      .cls-11 {
        fill: #d9d9d9;
      }

      .cls-13 {
        stroke-width: 7px;
      }

      .cls-13, .cls-12 {
        fill: none;
      }

      .cls-12 {
        stroke-width: 3px;
      }
    </style>
  </defs>
  <g id="Layer_1" data-name="Layer 1">
    <rect class="cls-9" width="1920" height="1080"/>
    <g>
      <path class="cls-4" d="M762.97,1082.27c-2.5-9.59-6.77-18.72-12.52-26.78-2.85-4-6.44-7.98-11.25-8.99-2.69-.57-5.48-.13-8.22.11-11.42,1-24.19-2.2-30.59-11.71-5.67-8.42-4.99-19.42-7.18-29.33,6.25,9.7,16.59,16.66,27.92,18.8s23.5-.57,32.85-7.32c2.27-1.64,4.44-3.59,5.52-6.16.94-2.25.97-4.76.89-7.19-.29-9.91-1.97-19.78-4.97-29.23-2.36-7.44-5.44-12.46-10.36-18.52-2.15-2.66-4.56-5.15-6.2-8.14-1.77-3.23-2.56-6.9-3.19-10.53-2.74-15.78-2.9-32.01-.47-47.84.76-4.93,2.29-9.94,5.9-13.39-.84,10.61-.86,21.4,1.56,31.77s7.42,20.35,15.4,27.4c4.1,3.62,9.48,6.52,14.84,5.47,5.04-.98,8.86-5.24,11.1-9.85,3.15-6.47,3.92-13.82,4.13-21.02.37-12.74-.84-25.47-2.05-38.16-.68-7.12.57-14.06-.35-21.16s-3.9-14.2-9.51-18.64c-4.3-3.4-9.74-4.98-14.46-7.77-8.67-5.12-14.49-14.21-17.29-23.88s-2.83-19.93-1.97-29.96c.46-5.36-3.33-10.85-7.37-14.39,5.01,6.52,15.22,8.63,17.91,16.39,1.4,4.05.29,8.72,2.06,12.62,1.72,3.79,5.73,5.94,9.53,7.62,6.49,2.87,13.21,5.22,20.08,7,2.55.66,5.41,1.21,7.69-.1,2.08-1.19,3.1-3.63,3.58-5.98,1.22-6.05-.32-12.27-1.84-18.25-1.06-4.14-2.11-8.28-3.17-12.43-6.19-24.28-29.21-38.46-52.74-47.05-10.45-3.81-21.48-5.76-32.16-8.86-10.68-3.1-21.32-7.55-29.2-15.4-11.32-11.27-17.48-23.84-23.94-38.45-3.29-7.44-6.59-14.9-9.31-22.57,5.49,7.46,12.71,13.63,20.92,17.9,2.06,1.07,4.42,2.04,6.65,1.39,2.76-.81,4.25-3.78,4.99-6.56,2.5-9.32-.06-19.83-6.56-26.96-6.17-6.76-15.28-10.33-21.33-17.2-3.28-3.72-5.5-8.24-7.68-12.7-6.34-12.97-18.5-19.68-28.06-30.5-11.19-12.67-22.51-25.53-30.07-40.65s-14.37-28.02-22.02-42.83c-3.16-6.11-6.33-12.28-8.27-18.88-2.47-8.4-2.86-17.26-3.24-26.01-.26,2.32,1.35,4.38,2.85,6.16,8.12,9.57,16.24,19.15,24.36,28.72,4.48,5.28,9,10.6,14.46,14.86,4.83,3.77,10.35,6.65,16.2,8.46,4.08,1.26,8.54,1.99,12.56.57,4.64-1.63,7.96-5.9,9.65-10.51s1.99-9.61,2.27-14.51c.87-15.16-9.79-26.06-18.8-38.28-21.78-29.55-30.69-69.42-32.84-105.67-.51-8.66-.57-17.42,1.24-25.9s5.61-16.72,11.89-22.7c3.5-3.33,7.28-6.06,11.66-8.09,8.18-3.79,16.65-7.12,24.09-12.22s13.91-12.28,15.99-21.05c1.8-7.57.19-15.49-1.42-23.1-.36,5.92,3.71,11.04,6.67,16.17,6.59,11.4,8.26,25.55,4.48,38.16-3.04,10.18-9.33,19.06-13.39,28.88s-5.62,21.83.5,30.51c3.62,5.13,9.52,8.37,15.68,9.56s12.57.47,18.63-1.15c3.82-1.02,7.65-2.42,11.01-4.55,1.57-1,2.44-1.7,4.25-2.27s3.58-1.26,5.09-2.43c4.68-3.62,8.98-7.77,13.42-11.67,4.13-3.65,8.31-7.35,11.39-11.93,2.76-4.11,4.54-8.78,6.3-13.41,4.78-12.59,9.56-25.17,14.35-37.76,1.8-4.74,3.95-9.89,8.46-12.23,3.71-1.92,7.95-1.34,11.95-1.4,4.81-.08,8.34-1.57,12.17-4.52,8.23-6.34,15.05-14.51,19.82-23.74-3.87,10.1-7.19,20.41-9.93,30.87-1.88,7.18-6.47,15.28-10.63,21.48-2.77,4.13-6.03,7.99-8.03,12.54-3.69,8.36-1.65,16.5-2.55,25.15s-.88,15.77,1.24,24.09c.86,3.39,2.08,6.89,4.74,9.16,1.7,1.45,3.84,2.26,5.98,2.89,11.6,3.41,24.37,1.99,35.4-2.96s20.38-13.26,27.48-23.05c4.61-6.35,8.35-13.41,10.28-21.01,1.46-5.75,1.86-11.73,1.8-17.66-.08-6.89-.82-13.76-2.17-20.51-1.23-6.13-3.76-10.64-5.72-16.32-1.67-4.85-4.99-8.85-7.03-13.51-1.81-4.14-2.41-8.55-4.64-12.57-.47-.85-.98-1.74-.99-2.72,1.96.57,3.78,1.54,5.59,2.5,4.95,2.64,9.91,5.28,14.86,7.92,3.58,1.91,7.32,2.89,10.4,5.54,6.65,5.71,11.31,13.68,13.98,21.96,3.25,10.09,3.74,20.9,2.84,31.46-1.13,13.35,15.92,23.38,29.03,20.66,9.18-1.91,15.81-10.26,18.98-19.08,3.17-8.83,3.65-18.35,5.31-27.59,3.97-22,14.99-42.67,31.06-58.23,9.73-9.42,22.42-17.3,35.91-16.14-4.43,3.31-8.53,7.13-11.75,11.62-8.11,11.3-9.95,26.99-4.04,39.57,5.91,12.58,19.62,21.28,33.5,20.6s26.92-11.13,29.98-24.69c7.55-33.5,42.87-50.01,77.11-52.63,7.59-.58,16.14.07,21.28,5.67,3.4,3.7,4.62,8.84,5.71,13.74,2.36,10.57,4.73,21.13,7.09,31.7-2.07-6.22-4.21-12.57-8.27-17.72-4.06-5.15-10.48-8.93-16.97-8.04-6.26.85-11.18,5.7-15.01,10.72-13.28,17.43-19.04,40.4-15.55,62.04s16.17,41.64,34.25,54.02c5.91,4.04,13.11,7.4,20.04,5.61,3.41-.88,6.42-2.95,8.99-5.36,15.16-14.25,15.13-37.91,14.01-58.69-1.08,23.22,17.33,45.65,10.91,68-4.69,16.31-21.24,26.57-27.9,42.17-9.47,22.21,3.3,47.44,18.03,66.58,5.4,7.01,12.21,13.51,20.78,15.72,13.38,3.45,27.63-4.82,35.17-16.39,7.54-11.58,9.73-25.76,11.09-39.52-.98,9.77,3.92,19.03,7.89,28.02,3.96,8.99,7.06,19.58,2.66,28.37-5.8,11.6-21.75,14.5-29.02,25.23-1.89,2.79-3.1,5.99-4.25,9.16-5.85,16.19-10.66,32.75-14.38,49.56-2.45,11.06-4.42,22.63-1.72,33.63,2.7,11,11.25,21.31,22.49,22.68,12.24,1.5,23.65-8.03,28.56-19.34,2.83-6.54,4.22-14.01,9.18-19.12,5.58-5.75,14.15-7.02,21.68-9.75,7.53-2.73,15.35-9.06,14.23-16.99-5.17,11.58-2.58,25.48-7.73,37.06-2.45,5.51-6.53,10.17-8.92,15.7-4.13,9.57-3.04,20.57-2.73,30.71.35,11.41-3.31,23.37-5.47,34.34-2.01,10.22-12.1,18.55-21.07,22.77-12.19,5.72-26.34,8.36-35.95,17.79-8.23,8.07-11.63,19.72-14.71,30.83-6.67,24-13.4,48.5-12.18,73.37.37,7.49,3.23,16.79,10.69,17.58,4.56.48,8.65-2.69,11.85-5.98,14.45-14.88,21.83-36.36,19.56-56.98,5.59,13.15,11.26,26.6,12.28,40.86,1.08,15.06-3.32,30.46-12.19,42.68-10.8.1-23.26,8.89-29.53,17.68-6.27,8.79-9.49,19.36-12.19,29.81-1.56,6.02-2.98,12.36-1.46,18.38s6.94,11.53,13.13,10.99c6.71-.58,10.91-7.4,13.55-13.6,2.97-6.97,5.42-14.71,3.44-22.02,6.76,11.64,11.4,25.97,6.36,38.45-6.59,16.33-28.19,26-27.74,43.6.08,3.1,1.1,6.43,3.68,8.14,1.75,1.16,3.98,1.39,6.06,1.16,11.15-1.24,17.06-13.26,24.46-21.68,12.57-14.29,32.27-19.52,50.77-24.03-13.54,5.75-28.97,14.3-30.31,28.95-.49,5.36,1.11,10.77.48,16.12-.95,8.09-6.82,14.76-13.31,19.69s-13.84,8.71-19.85,14.21c-11.21,10.29-16.64,26.5-13.88,41.46.53,2.9,1.51,5.98,3.93,7.67,2.72,1.9,6.46,1.45,9.58.32,12.41-4.49,19.53-17.33,24.6-29.51.86,4.99-.09,10.06.77,15.05,1.38,7.96,2.76,16.03,2.12,24.09s-3.55,16.24-9.53,21.67c-6.21,5.64-14.83,7.64-23.11,8.98-14.35,2.32-28.93,3.26-43.46,2.79l-411.9,1.77Z"/>
      <path class="cls-7" d="M732.11,461.6c.67,1,1.35,1.99,2.05,2.98,8.97,12.67,12.83,28.33,22.11,40.98,2.18-2.83,4.4-5.77,5.3-9.23,1.92-7.4-1.49-15.12-1.34-22.76.18-9.94-3.18-19.98-1.06-29.69,1.45-6.65,6.68-12.69,5.21-19.34-.06-.25-.39.22-.13.29s.44-.22.55-.46c1.81-4.12,4.37-7.9,7.52-11.11,4.21-4.29,9.39-7.49,13.91-11.45.15-.13.31-.27.5-.3.67-.13.9.87.81,1.55-.34,2.78-.31,5.63-1.07,8.32s-1.47,5.19-2.21,7.78c-.27.96-.55,1.93-.82,2.89-.25.87-.49,1.74-.57,2.64-.12,1.34.14,2.68.47,3.99.54,2.15.92,4.3,2.08,6.19,1.26,2.04,2.51,4.08,3.77,6.11,1.6,2.6,3.27,5.67,2.28,8.57-.53,1.56-1.77,2.78-2.43,4.28-.82,1.88-.85,4.3.14,6.1,1.44,2.59,3.99,4.53,6.87,5.21,1.32.31,2.69.38,3.96.85,3.25,1.22,4.92,4.77,5.93,8.09,2.46,8.06,4.93,17.33,1.6,25.07-2.58,5.99-5.16,11.99-7.74,17.98-.75,1.74-.92,3.61-1.63,5.36-2.57,6.31-5.14,12.63-7.72,18.94-.36.87-.72,1.76-1.27,2.53-.94,1.32-2.43,2.23-4.03,2.48-1.26.19-2.35-.94-3.04.14.34,3.63.65,7.41-.6,10.84-1.18,3.2-3.61,5.76-6.07,8.12-3.64,3.48-7.5,6.78-10.57,10.77s-5.34,8.84-5.19,13.87c.15,4.96,2.99,10.52,1.82,15.34,1.53,3.48,3.22,6.89,5.04,10.23,1.49,2.72,3.09,5.43,3.92,8.43.69,2.49,1.39,5.28.44,7.69-1.54,3.89-2.81,7.99-2.73,12.17.03,1.54.24,3.06.55,4.57,1.16,5.62,5.25,10.15,7.25,15.53,1.46,3.93,3.6,7.57,5.28,11.41s2.95,8.01,2.51,12.17c-3.05-.52-5.8-2.09-8.63-3.34s-5.99-1.59-9.08-1.8c-8.62-.6-17.51-1.28-25.17-5.27-7.81-4.07-13.57-11.2-18.18-18.69-1.62-2.62-3.14-5.34-5.28-7.56s-4.6-3.08-7.56-3.9c-1.75-.48-3.49-.96-5.24-1.45-.66-.18-1.35-.39-1.81-.89-1.04-1.16-.22-2.94.15-4.45.69-2.83-.6-6.03-3.07-7.57-2.38-1.49-5.62-1.55-7.53-3.61-2.25-2.44-1.79-6.86-4.6-8.63-.9-.56-1.98-.73-2.97-1.09-3.25-1.16-5.44-4.34-6.34-7.67s-1.27-7.79-.48-11.15c1.05-4.48-1.72-8.92-4.66-12.46s-6.34-7.16-6.88-11.73c-.38-3.21.74-6.4,2.04-9.35.32-.73.66-1.49.68-2.29.02-1.33-.84-2.48-1.61-3.57-4.76-6.69-8.46-14.26-6.63-22.26.69-3.03-.33-6.21-1.79-8.96s-3.37-5.25-4.66-8.08c-1.72-3.77-2.28-8.05-1.59-12.14.37-2.16,1.74-4.72,3.91-4.44-7.38-6.5-7-16.72-8.83-26.38-.4-2.1.88-4.17.9-6.31.02-2.56-1.71-4.74-3.01-6.95-2.15-3.67-3.22-7.96-3.05-12.22.11-2.75.73-5.51.35-8.24-.44-3.12-2.14-5.89-3.34-8.81-2.41-5.89-2.49-12.57-.63-18.66-2.27-8.01-2.96-16.47-2.03-24.74.21-1.84.51-3.72,1.38-5.35,1.26-2.35,3.56-3.92,5.77-5.41,2.12,1.21,3.91,3,5.14,5.11-.68-5.71-1.35-11.62.37-17.1,1.31-4.16,3.97-8.07,3.76-12.43,3.5,2.59,5.62,6.59,7.8,10.36,3.25,5.63,6.87,11.04,10.83,16.18,1.91,2.47,4.84,5.16,7.72,3.97,4.52,3.29,6.77,7.99,10.03,12.52,7.46,10.35,18.23,18.08,25.08,28.84,1.74,2.73,3.19,5.63,4.55,8.56,1.23,2.65,1.54,5.68,3.02,8.1,1.63,2.66,3.27,5.32,4.9,7.99,1.49,2.43,3.02,4.84,4.63,7.23Z"/>
      <path class="cls-7" d="M878.54,538.12c3.34.91,5.88,3.54,8.25,6.06,2.15,2.28,4.32,4.33,6.36,6.7,6.71,7.77,13.6,14.83,17.48,24.34,2.86,7.02,5.72,14.03,8.58,21.05.64,1.58,1.04,3.21,1.43,4.87,1.43,6.2,3.44,12.27,5.99,18.09.51,1.17,1.37,2.55,1.54,3.82.49,3.91,1.45,7.76,2.84,11.45.97,2.57,2.17,5.09,4.01,7.13,1.84,2.04,4.38,3.55,7.12,3.68-3.42,2.02-7.67,1.72-11.63,1.47-12.52-.79-25.33-2.57-37.41.84-5.3,1.5-10.86,2.08-16.36,1.72-1.79-.12-3.59-.34-5.3-.88-2.27-.72-4.32-1.98-6.34-3.23-6.22-3.85-13.5-5.96-15.86-13.77-.98-3.26-1.05-7.02-3.38-9.5-2.26-2.41-5.88-2.77-8.93-4.04-4.02-1.67-7.1-4.99-10.23-8.01-2.27-2.19-4.67-4.6-5.18-7.71-.35-2.15.26-4.32.67-6.46,2.25-11.68-1.36-24.15,2.33-35.46.64-1.98,1.51-3.91,1.77-5.97.51-3.99,3.52-6.74,5.96-9.65,4.42-5.25,9.65-8.37,16.49-9,10.13-.92,19.99-.22,29.81,2.46Z"/>
      <path class="cls-7" d="M763.66,1078.41c1.31-10.96,3.5-21.81,6.55-32.42,1.68-5.85,2.25-11.71,5.49-17.04,2.08-3.42,4.8-6.39,7.2-9.59,8.69-11.62,11.46-26.21,12.81-40.65,1.66-17.67,8.58-34.27,16.4-50.02,3.72-7.48,6.74-14.42,9.41-22.28,2.86-8.45,4.57-17.28,5.06-26.19.26-4.79.17-9.6.67-14.37.56-5.43,1.64-10.74,2.65-16.1,1.62-8.58,7.19-15.85,13.1-22.27,5.91-6.42,12.43-12.47,16.7-20.08,2.42-4.3,3.82-9.61,4.85-14.44.84-3.93.29-8.01-.26-11.99-.07-.54-.16-1.1-.46-1.56s-.9-.77-1.41-.57c-.54.21-1.1.9-1.52.5-.71-4.94,4.21-9.29,3.93-14.27-.78-13.59-4.85-26.98-11.78-38.7,2.76.25,5.38.8,8.05,1.55,6.63,1.87,13.27,3.73,19.9,5.6,2.16.61,4.33,1.22,6.36,2.17,1.97.92,3.77,2.14,5.57,3.35,2.6,1.75,5.2,3.51,7.8,5.26,2.78,0,5.69-.2,8.47-.2.82,0,1.65,0,2.44-.19,1.2-.29,2.27-1.01,3.48-1.29,2.63-.6,5.23.99,7.91,1.3,7.52.86,13.86,5.17,21.38,5.94s15.36-.22,22.05-3.76c.53,9.98,2.09,19.91,4.64,29.58,3.84,14.52,1.91,27.88,3.95,42.76,2.35,17.16,3.78,34.53,5.71,51.73.36,3.21.02,6.36.36,9.65.47,4.47.74,8.96.83,13.45.17,8.98-.43,17.98-1.8,26.86-1.09,7.09-.48,14.34.87,21.35.67,3.48,1.56,6.91,2.5,10.33.9,3.23.88,6.58,1.42,9.92,1.57,9.66,4.66,18.98,6.61,28.56.86,4.25.72,8.56,1.39,12.73.63,3.97,3.19,7.37,3.86,11.28.55,3.26.59,6.19,1.51,9.49,2.38,8.54,4.49,17.2,5.26,26.05.88,10.24,2.63,20.86,4.64,30.94"/>
      <path class="cls-10" d="M812.16,602.91c-1.04.59-1.66,1.71-2.05,2.84-1.48,4.35-.03,9.18,2.16,13.23.83,1.54,1.81,3.22,1.44,4.93-2.1-1.12-4.93-.63-6.54,1.13-1.48,1.63-1.82,3.98-1.88,6.18-.1,4.02.54,8.02,1.19,11.99.49,3.07.99,6.13,1.48,9.2.58,3.58-.16,7.38,1.88,10.39.78,1.16,1.83,2.1,2.86,3.04,5.97,5.4,12.02,10.86,19.12,14.67,1.51.81,3.11,1.57,4.28,2.83,1.88,2.02,2.34,4.94,2.71,7.68.43,3.12.85,6.24,1.28,9.36.18,1.31.19,2.84.2,4.16,0,.37,0,.76-.2,1.07-.23.36-.68.52-.98.83-.82.85-.24,2.32-.73,3.39-.4.88-1.49,1.3-2.46,1.17s-1.81-.7-2.55-1.33c-2.23-1.9-4.06-4.65-6.95-5.12-2.14-.35-4.32.68-6.45.31-3.58-.63-5.68-4.97-7.72-7.58-.45-.57-.93-1.16-1.6-1.42-1.21-.46-2.5.33-3.74.68-2.42.7-5.01-.26-7.15-1.58s-4.04-3.04-6.32-4.11c-1.73-.81-3.64-1.23-5.3-2.19-3.66-2.13-5.41-6.57-5.71-10.79-.5-7.18-4.67-11.66-8.34-17.84-3.02-5.08-5.82-10.98-5.36-17.05s4.32-11.78,2.08-17.89c-.67-1.82-1.83-3.42-2.89-5.05-3.57-5.5-6.13-11.66-7.5-18.07-1.01-4.72-.38-8.65-.43-13.47-.01-1.4.03-2.9.84-4.04,0-1.24.51-2.43,1.1-3.52,2.55-4.66,5.74-8.96,9.45-12.76,1.09-1.11,2.58-1.79,3.79-2.77,2.73-2.2,5.54-4.49,7.12-7.62,1.27-2.52,1.65-5.48,1.05-8.24-.22-.99.14-2.05.13-3.06,0-.24,0-.5.15-.7.11-.15.29-.23.46-.29,1.04-.41,2.19-.55,3.29-.39.33.05.67.12.98,0,.24-.1.42-.3.59-.51,1.46-1.77,2.65-3.77,3.51-5.89,5.11-12.58,8.95-24.98,13.67-37.71.31-.83.44-1.88.79-2.69,2.05-4.68,2.63-9.99,1.64-15-1.15-5.78-2.63-12.84-7.44-16.24-3.39-2.4-7.92-3.28-10.49-6.53-.71-.89-1.24-1.99-1.17-3.12.12-2,2.04-3.51,2.32-5.5.43-3.08,1.02-5.87-.14-8.76-1.21-3.01-3.44-5.49-5.02-8.33-3.27-5.86-3.56-13.28-.76-19.37,2.48-5.38,1.68-11.04,1.06-16.93s-1.4-12.02.62-17.59c1.07-2.95,3.04-5.64,5.6-7.46,4.67-3.32,8.81-7.12,13.07-10.92,3.62-3.22,8.92-5.43,13.29-7.55,10.39-5.05,21.35-8.8,32.27-12.53,5.11-1.75,10.62-1.68,15.93-2.64,1.46-.26,3.16-.46,4.25.55,1.13,1.04,1.01,2.82.88,4.35-.46,5.78.45,12.01,4.2,16.43,2.82,3.32,4.97,7.45,6.4,11.57,1.65,4.77,1.9,9.9,2.12,14.94.16,3.47.31,6.95.47,10.42.36,8.01-4.28,15.7-3.96,23.71.05,1.26.14,2.55-.14,3.78-.75,3.34-3.97,5.59-5.15,8.8-2.09,5.68-9.08,9.25-13.42,13.47-1.65,1.6-3.31,3.21-4.79,4.97-2.37,2.81-4.28,6.02-5.59,9.45-3.84,10.03-.85,19.97,5.04,28.65,4.52,6.66,10.44,12.23,16.31,17.73,6.29,5.9,12.23,10.82,19.1,16.04,1.33,1.01,2.68,2.02,4.17,2.78,8.18,4.16,14.97,10.99,22.19,16.57,7.79,6.02,15.74,11.83,23.84,17.42,5.21,3.59,8.21,10.12,10.89,15.85,3.77,8.08,4.03,17.32,3.77,26.24-.24,8.37,5.22,15.39,3.95,23.66-.55,3.59-2.16,7-4.58,9.71-2.1,2.36-2.16,4.76-4.72,6.6s-5.89,2.74-8.96,1.99c-1.35-.33-2.6-.96-3.78-1.69-6.55-4.06-10.88-11.49-11.18-19.19-.41-10.71-8.27-19.98-11.01-30.35-.27-1.01-.16-1.63-.59-2.58-4.02-8.99-8.04-17.99-12.06-26.98-2.67-5.98-7.27-8.42-11.53-13.4-3-3.52-6.09-7.1-10.1-9.41-2.54-1.46-3.73-2.51-6.33-3.84-2.49-1.27-5.32-1.68-8.09-2.07-7.85-1.11-15.9-2.22-23.63-.49-3.5.78-7.36,1.86-10.25,3.96-3.3,2.4-6.06,5.5-7.83,9.23-1.29,2.72-1.85,5.72-2.4,8.68-.63,3.44-1.27,6.87-1.9,10.31-.97,5.28-1.07,10.6-1.53,15.93s.44,10.62.42,15.9c-.03,6.88-5.94,1.11-9.99,3.4Z"/>
      <path class="cls-2" d="M927.32,309.46c-.25,1.2-.35,2.42-.46,3.64-.28,3.2-1.26,6.96-.16,10.07.54,1.55,1.67,2.97,3.23,3.48.92.3,1.99.25,2.77-.33.44-.33.76-.8,1.02-1.29,1.36-2.62,1.05-5.85,2.33-8.51.88-1.84,2.51-3.29,4.44-3.96,1.87-3.21,6.52-3.97,10.24-4.21,3.63-.23,7.45-.4,10.74,1.17,4.73,2.26,7.29,8.21,5.8,13.24-.33,1.11-.83,2.27-.47,3.37,1.15,3.55,7.66,2.35,10.24,2.27,2.33-.07,4.79.18,6.69,1.53,1.89,1.34,2.93,3.55,4.42,5.33.81.97,1.76,1.82,2.82,2.51.93.61,2,1.12,3.12,1.08,2.5-.07,4.09-2.62,6.18-3.99,4-2.61,7.59-5.16,10.82-8.68s7.01-7.06,11.75-7.64c4.25-.53,8.5,1.5,11.6,4.45,3.51,3.33,5.86,7.88,6.53,12.67s-.32,9.81-2.78,13.98c-.94,1.6-2.11,3.12-2.56,4.92s.1,4.04,1.79,4.81c9.84,4.47,19.62,8.09,29.56,12.34,4.65,1.99,9.44,3.89,13.12,7.37,1.93,1.82,3.84,4,6.46,4.41.64.1,1.31.09,1.91.35,1.58.69,1.84,2.84,1.55,4.54s-.85,3.54-.08,5.08c.36.71,1.1,1.32,1.89,1.18.42-.07.77-.33,1.1-.59,1.91-1.51,3.6-3.29,5.01-5.27.9-1.26.81-2.79,1.57-4.13,3.83-6.78,5.69-14.66,5.32-22.44-.42-8.54.79-17.1,1.68-25.6.81-7.74-.46-14.87-.46-22.65,0-2.17,0-4.35-.44-6.47-.77-3.71-2.81-7.01-4.81-10.22-2.55-4.08-4.8-8.34-7.53-12.3-2.92-4.27-7.18-7.36-11.05-10.78-4.42-3.91-8.89-7.84-14.04-10.72-2.87-1.6-5.91-2.86-8.85-4.32-2.88-1.43-5.65-3.07-8.3-4.88-4.45-3.05-10.1-4.41-15.37-5.57-2.27-.5-4.59-.67-6.91-.84-8.45-.61-17.38-1.13-24.94,2.68-6.17,3.11-12.51,7.88-16.07,13.8-1.02,1.69-1.93,3.52-3.48,4.74-3.21,2.54-6.39,2.35-10.12,3.26-4.19,1.02-7.99,3.26-11.66,5.45-3.97,2.37-7.99,4.78-11.16,8.14-1.12,1.19-2.14,2.5-3.46,3.46-1.5,1.08-3.31,1.64-4.99,2.42-6.58,3.07-14,10.33-15.51,17.67Z"/>
      <path class="cls-8" d="M818.8,627.81l-6.2-2.98c-.68-.33-1.46-.67-2.18-.43-.43.14-.77.46-1.08.78-2.47,2.57-3.89,6.13-3.87,9.7.03,5.88,3.78,11.57,2.53,17.32-.64,2.96.19,6.88,1.85,9.41.72,1.09,1.69,1.99,2.67,2.85,3.91,3.49,7.97,6.8,12.17,9.93,3.53,2.63,7.01,5.61,11.28,6.7-.27-4.38-.88-8.73-1.8-13.02-.37-1.72-.79-3.45-.77-5.21.05-2.86,1.28-5.54,2.49-8.13-.28-.88.1-1.86.51-2.69s.96-1.59,1.27-2.46c.65-1.81.19-3.8.07-5.73s.32-4.16,2.02-5.07c4.73-2.53,7.33-8.01,6.78-13.35-.08-.73-.23-1.49-.69-2.06-.43-.54-1.08-.86-1.71-1.16-5.83-2.82-11.38-6.22-16.54-10.13-4.01-3.05-6.54-7.91-11.52-8.66-1.93-.29-4.24.18-5.16,1.91-.39.72-.47,1.56-.55,2.38-.28,2.91-.55,5.94.47,8.68.6,1.62,1.61,3.04,2.61,4.45,1.63,2.29,3.71,4.71,5.35,7Z"/>
      <path class="cls-8" d="M957.14,580.87c.75,5.06,1.27,10.15,1.55,15.26.3,5.42,1.51,9.65,2.44,15,.75,4.3,1.5,8.65,1.24,13-.39,6.51-3.04,12.75-6.86,18.03-.16.22-.33.47-.29.74.02.16.12.3.23.43.99,1.23,2.64,1.8,4.22,1.79s3.12-.53,4.57-1.16c1.51-.65,2.97-1.43,4.27-2.44,1.59-1.23,2.91-2.77,4.21-4.31.68-.8,1.37-1.61,1.85-2.55.46-.91.71-1.91.95-2.9.92-3.74,1.84-7.48,2.76-11.22.46-1.87,1.18-2.29,1.12-4.21-.09-2.97.43-5.92.68-8.89,1.12-13.24-2.31-26.74-.92-39.96.35-3.33.7-6.65,1.04-9.98.46-4.37.91-8.8.13-13.12-1.06-5.91-4.47-11.39-5.53-17.3-.47-2.63-.57-5.33-.3-7.99.3-2.92,1.05-5.82.89-8.75-.1-1.75-.84-3.66-2.48-4.25-1.23.7-2.92.44-3.89-.59-.53-.57-.85-1.32-1.4-1.87-.88-.87-2.21-1.08-3.44-1.22-2.45-.27-4.93-.43-7.36-.04s-4.82,1.39-6.53,3.16c-.48.5-.95,1.08-1.63,1.26-.86.23-1.74-.29-2.38-.91-2.47-2.39-2.93-6.26-5.2-8.84-.65-.73-1.81-1.35-2.53-.69-.36.33-.44.86-.51,1.35-.6,3.96-2.38,7.74-5.05,10.72-1.15,1.29-2.46,2.49-3.06,4.11-.33-.01-.55.34-.65.65-.77,2.21-.02,4.65.92,6.79s2.1,4.29,2.17,6.62c.05,1.92-.65,3.79-1.57,5.47-4.1-1.08-7.38-4.17-9.67-7.74s-3.65-7.63-4.99-11.65c-2.19-6.57-4-13.45-3.71-20.36.06-1.47.2-2.95.54-4.39.95-4.06,3.45-7.56,5.89-10.94,6.24-8.65,15.03-15.74,25.14-19.15,3.34-1.13,6.85-1.91,9.91-3.67s5.68-4.81,5.73-8.34c.07-4-1.41-7.64-3.69-10.94-2.28-3.29-4.88-6.62-5.37-10.6-.14-1.14-.07-2.37.56-3.32s1.97-1.52,2.98-.98c.78.41,1.15,1.29,1.57,2.07,2.93,5.43,10.19,8.08,11.66,14.07.56,2.26.19,4.78,1.33,6.81,1.82,3.26,6.28,3.55,10.01,3.8,4.12.28,8.2,1.01,12.16,2.18-1.6-7.57-2.02-14.82.42-22.17,1.91-5.75,5.76-10.7,10.25-14.77s9.63-7.34,14.75-10.58c7.55-4.79,15.27-8.29,23.95-6.19,2.09.51,4.13,1.37,6.28,1.41,2.83.05,5.47-1.32,7.97-2.65,2.59-1.38,5.04-1.08,7.92-.92,3.09.17,6.16.57,9.19,1.21,6.05,1.28,11.91,3.49,17.28,6.55.77.44,1.54.9,2.38,1.17,3.7,1.22,6.02,3.69,9.01,6.1,2.84,2.29,6.13,4.41,9.92,4.3.41-.01.9-.1,1.07-.48.18-.4-.11-.84-.39-1.17-2.7-3.23-5.81-6.11-9.24-8.55-2.67-1.9-5.55-3.54-7.97-5.76-1.49-1.36-2.8-2.97-3.65-4.81-.43-.94-.83-1.91-.65-2.91s.77-1.94.08-2.94c-.36-.53-.98-.81-1.59-1.03-.69-.25-1.4-.45-2.12-.6-.41-.09-.83-.16-1.19-.36-.4-.22-.7-.56-.99-.91-.91-1.06-1.82-2.11-2.72-3.17-4.22-4.9-12.03-5.01-17.07-9.06-6.39-5.13-15.86-5.75-23.32-9.17-1.66-.76-3.37-1.59-4.48-3.03s-1.39-3.7-.13-5.02,1.52-3.21,2.27-4.93c1.96-4.5,2.16-9.54,2.34-14.45.05-1.36-.52-1.89-1.09-3.13-1.65-3.56-3.93-6.9-7.07-9.25s-7.22-3.61-11.06-2.85c-1.51.3-2.6,1.91-3.73,2.95-4.99,4.56-10.44,8.63-16.23,12.12-2.93,1.77-4.82,5.47-8.22,5.88-1.74.21-3.44-.8-4.59-2.13s-1.89-2.95-2.75-4.48c-.5-.89-1.07-1.78-1.9-2.39-1.55-1.14-4.77-1.04-6.65-1.15-1.95-.11-3.93-.01-5.85-.4s-3.83-1.37-4.77-3.09c-.82-1.52-.73-3.49.24-4.92,2.22-3.27-1.32-7.97-4.49-10.33s-7.45-3.06-11.27-2.08c-2.47.63-5.24.82-7.55,1.91-1.47.69-2.75,1.71-3.96,2.79-1.27,1.14-2.48,2.38-3.21,3.92-.71,1.49-.92,3.17-1.04,4.82-.13,1.74-.17,3.48-.21,5.22-.08,3.38-.16,6.76-.24,10.14-.15,6.25,1.59,12.36,3.35,18.36.94,3.23,2.08,6.4,2.95,9.65,1.48,5.5,2.19,11.21,2.12,16.9,0,.31-.03.66-.28.85-.2.15-.48.14-.73.12-12.4-1.09-23.75-10.1-27.61-21.94-5.91-5.06-11.5-10.1-18.12-14.19s-14-7.18-21.76-7.86c-.21-.02-.44-.03-.61.1-.2.15-.23.42-.25.67-.44,5.56-.84,11.37,1.26,16.54,1.1,2.69,2.82,5.05,4.56,7.36.74.97,1.92,2.09,2.24,3.26.37,1.36.44,2.73.97,4.11,1.35,3.57,2.3,7.27,3.24,10.97,1.55,6.05.67,12.42-.42,18.47-.48,2.64-.65,5.88-1.78,8.28-1.3,2.75-2.28,5.22-1.9,8.35.34,2.8,1.61,5.51,1.32,8.31-.21,2-1.25,3.89-2.83,5.14-.81.64-1.84,1.24-2.01,2.26-4.53,4.7-8.92,8.29-13.45,12.99-3.85,4-7.74,8.05-10.5,12.87-1.12,1.96-1.65,4.06-2.2,6.25-.89,3.56-.63,7.33.3,10.88s2.5,6.89,4.23,10.13c5.93,11.12,15.39,19.16,24.34,27.76,2.23,2.14,4.54,4.21,7.07,5.99,6.14,4.33,12.45,8.57,18.72,12.73.8.53,1.6,1.06,2.36,1.64,1.21.92,2.31,1.96,3.42,3,10.79,10.15,23.09,16.76,34.29,26.45,5.37,4.64,9.03,9.85,10.07,16.88Z"/>
      <path class="cls-11" d="M1155.8,480.51c-.52,3.83-2.58,7.42-5.61,9.81-1.05.82-2.26,1.58-2.77,2.81-.33.78-.33,1.66-.32,2.51.05,4.92.09,9.84.14,14.76.03,3.11-2.65,5.58-4.79,7.84s-4.97,4-8.07,4.22c-2.49.18-5.1-.62-7.42.3-1.81.71-3.1,2.35-4.83,3.22-1.73.87-3.75.91-5.68.8-4.31-.26-8.54-1.21-12.74-2.15-5.09-1.15-10.02-2.87-14.87-4.77-2.02-.79-4.03-2.14-6.18-1.39s-3.73,2.85-4.37,4.87c-.75,2.38-.5,4.96.05,7.38s1.4,4.79,1.85,7.24c.52,2.85.49,5.81-.09,8.65-.99,4.8-.34,7.8-1.9,12.44-.3.9-.64,1.83-.53,2.77.15,1.27,1.08,2.29,1.85,3.32,4.03,5.42,3.78,13.61-.57,18.77.33,7.7.66,15.63.99,23.33.1,2.23.19,4.49-.35,6.66-.51,2.05-1.55,3.92-2.3,5.9-1.09,2.9-1.53,6.01-1.95,9.08-.89,6.47-1.28,12.44-1.51,18.97-.06,1.6-.1,3.21.17,4.79.58,3.46,2.59,6.53,3.49,9.92,1.31,4.96.05,10.53-3.27,14.44-.26.3-.53.6-.9.77-.86.39-1.85-.1-2.61-.67-4.43-3.34-7.05-9.18-10.3-13.54-3.96-5.34-10.11-8.62-16.03-11.33-5.54-2.53-11.53-4.78-17.58-4.06-8.71,1.04-16.53,6.81-25.44,6.3-4.69-.27-9.06-.91-13.29-3.06-5.11-2.6-9.99-5.48-15.21-7.78-.92-.41-1.3-1.37-1.85-2.21-.17-.26-.34-.55-.34-.87,0-.48.38-.86.72-1.2,2.13-2.07,5.18-5.13,4.91-8.21-.32-3.72,1.23-7.3,2.17-10.82,1.19-4.44,1.4-8.88,1.84-13.4.49-5.05.69-10.12.6-15.19-.07-3.85-.28-7.68-.93-11.48-.38-2.24-.84-4.5-.82-6.78.01-1.13.32-2.16.44-3.26.11-1.03-.04-2.09-.04-3.13-.02-5.11.5-10.21,1.54-15.21.9-4.32.07-8.93-1.69-12.97-.49-1.11-1.1-2.21-1.18-3.43-.12-1.74-.56-3.39-1.12-5.04-.96-2.82-1.63-5.76-1.88-8.73s.41-5.72.36-8.59c-.1-5.81,1.07-11.32,4.39-16.2,1.19-1.75,1.31-3.67,1.89-5.7.47-1.63.79-3.3,1.29-4.92.73-2.37,1.82-4.61,2.9-6.84.7-1.43,1.39-2.86,2.09-4.29.55-1.12.17-2.03.63-3.19,3.04-7.63,4.05-16.06,2.92-24.2-.18-1.28-.56-2.15-.95-3.38-1.13-3.55-1.11-7.39-.44-11.05.67-3.66,1.98-7.18,3.41-10.61s5.14-6,7.63-8.72c1.15-1.26,2.16-2.77,3.65-3.61,2.05-1.15,3.66-2.51,5.4-4.09,4.73-4.32,10.45-7.54,16.59-9.34.69-.2,1.39-.39,2.03-.7,2.11-1.01,4.47-.82,6.81-.88,4.15-.09,8.07,1.92,12.2,2.32,3.34-1.89,7.44-2.75,11.24-3.3,6.5-.94,13.16.2,19.36,2.34s12.02,5.25,17.8,8.37c2.35,1.27,3.77,3.89,5.92,5.47.97.71,2.01,1.39,3.2,1.55.68.09,1.37,0,2.06,0,4.36,0,6.92,3.4,9.41,6.46,3.2,3.94,6.36,7.9,9.48,11.9,6.15,7.86,12.16,15.83,18.02,23.9,5.86,8.07,12.61,16.25,11.26,26.14Z"/>
      <path class="cls-3" d="M874.9,649.67c4.58-.09,9.25-.08,13.73-1.04,10.43-2.25,21.79-3.67,32.25-1.57,7.24,1.46,14.62.11,21.92.08,1.78,0,3.37.04,5.12-.28s3.59-.63,5.39-.92,3.76-.58,5.64-.85c.94-.13,1.89-.27,2.83-.39.52-.07,1.97,0,2.37-.32.95-.76,1.95-1.47,3.09-1.89s2.43-.52,3.55-.05c.59.25,1.11.64,1.63,1.02,3.13,2.27,6.46,4.28,9.85,6.13,11.15,6.12,26.35,8.79,37.02,1.86,3.46-2.25,7.8-2.83,11.9-2.35s8.01,1.95,11.81,3.55c5.97,2.51,11.96,5.52,16.7,10.02,2.29,2.18,3.95,4.52,5.3,7.34s3.51,5.2,5.33,7.82c.66.94,1.64,2.03,2.73,1.66.53-.18.89-.67,1.2-1.14,1.57-2.38,4.73-5.42,4.82-8.27.1-3.06.18-6.21-.85-9.1-.61-1.7-1.58-3.25-2.3-4.91-2.24-5.2-1.56-10.92-.87-16.54.96-7.83,1.93-15.71,4.15-23.28.57-1.94,1.22-3.86,1.52-5.86.52-3.45-.03-7.32-.19-10.8-.15-3.25-.31-6.5-.46-9.75-.07-1.49-.14-2.99.05-4.46.28-2.14,1.11-4.17,1.76-6.23.92-2.92,1.49-6.03.91-9.03-.54-2.8-2.02-4.29-3.87-6.25-1.73-1.83-.24-4.09.61-6.2.62-1.55,1.09-3.18,1.21-4.84.1-1.48-.07-2.96-.21-4.44-.28-2.95-.44-5.92-.47-8.89-.02-2.19.78-5.64-.29-7.54-.94-1.67-.93-3.69-.89-5.6.03-1.33.07-2.69.54-3.94s1.44-2.38,2.74-2.68c.83-.19,1.69-.02,2.52.14,4.51.9,9.04,1.81,13.38,3.34,2.03.71,4.01,1.56,6.07,2.18,5.58,1.66,12.26,3.84,17.73,1.84,1.91-.7,2.89-2.87,4.68-3.83,1.32-.71,2.89-.67,4.38-.7,5.63-.12,11.75-1.83,14.86-6.52,2.31-3.49,2.46-7.85,2.19-11.89-.24-3.54-1.8-8.2.56-11.36,1.06-1.42,2.8-2.16,4.07-3.4,1.07-1.04,2.92-8.18,4.96-4.97,6.98,10.95,11.74,23.15,16.45,35.25.99,2.54,1.97,5.4,2.44,8.09,2.47,14.11,4.89,27.64,5.11,41.96.12,7.93.24,15.88,1.1,23.77.3,2.8.7,5.59.79,8.4.11,3.55-.26,7.1-.72,10.62-.92,6.93-1.8,15.81-4.66,22.19-1.87,4.17-3.76,8.41-4.39,12.93-.26,1.87-.3,3.76-.48,5.64-.57,5.74-2.86,11.07-4.21,16.62s-3.67,11.03-5.53,16.53c-.93,2.76-1.87,5.55-2.05,8.46-.23,3.76.28,7.47-.04,11.21-.35,4.13-.06,8.28-.51,12.42-1.17,10.7-7.69,20.56-11.98,30.43-1.17,2.68-3,5.07-5.3,6.88-.57.45-1.19.89-1.55,1.53-.37.66-.41,1.45-.44,2.21-.34,8.15-.63,16.6,2.51,24.13,2.32,5.56,4.67,10.51,5.89,16.45.82,3.99.65,8.11.69,12.19.09,8.77,2.18,14.93,2.2,23.7.01,4.1.02,8.19.03,12.29,0,.48,0,.99-.29,1.38-.34.47-.97.62-1.54.73-8.03,1.57-16.09,3.14-24.26,3.41-8.97.3-16.17-2.26-24.63-4.33-8.28-2.03-14.76-5.44-21.84-10.21-1.47-.99-2.86-2.11-4.15-3.33-.23-.22-.45-.44-.71-.62-.6,4.47,2.44,8.48,3.33,12.9.56,2.79,1.12,5.58,1.68,8.37.26,1.27.51,2.56.46,3.86-.07,1.75-.71,3.43-1.5,5-1.9,3.76-5.2,7.32-9.41,7.54-.46.02-.98,0-1.32-.33-.39-.36-.42-.96-.42-1.49,0-6.01.47-12.15-1.26-17.9-1.46,2.54-2.86,5.13-3.88,7.88-1.81,4.86-3.62,9.73-5.43,14.59-.63,1.7-1.39,3.55-3.01,4.35-1.13.56-2.45.5-3.71.41-8.04-.53-15.73-2.84-23.73-1.92-1.96.23-3.92-.35-5.82-.89-4.55-1.28-9.26-1.86-13.84-3.02-6.29-1.58-13.35-2.4-19.38-4.8-1.83-.73-3.66-1.46-5.49-2.19-.24-.09-.48-.19-.66-.36-.39-.35-.47-.91-.53-1.42-.65-5.6-1.31-11.21-1.96-16.81-.18-1.55-.28-3.12-.55-4.65-1.9-10.72-3.57-22.25-4.18-33.11-1.07-19.26-3.22-38.45-6.29-57.49-.31-1.89-.49-5.14-1.81-6.65-1.56-1.8-3.07-.42-5.38.13-4.51,1.09-9.22,1.44-13.86,1.41-9.03-.05-17.29-4.87-26.08-6.92-2.56-.6-6.06-1.98-7.47.24-.92,1.45-2.9,1.72-4.61,1.85-3.09.22-6.32.43-9.18-.78-2.47-1.04-4.4-3.03-6.57-4.62-1.5-1.1-3.28-1.69-4.86-2.67-4.7-2.9-10.39-3.54-15.63-5.29-5.53-1.85-11.03-2.19-16.26-4.76-2-.98-4.22-1.47-6.2-2.49-2.58-1.33-4.66-3.27-5.37-6.08-2.09-8.33-4.17-16.67-6.26-25-1.23-4.91-2.79-10.09-2.98-15.18-.06-1.72.29-3.21-.08-4.92-.49-2.28-1.31-4.44-1.6-6.77-.51-4.04.8-6.44,2.06-10.04s1.25-7.79,1.83-11.4c.2-1.27.41-2.55.94-3.72,1.72-3.78,6.33-5.46,8.44-9.04-.24-.35-.17-.77.25-.81,4.31,8.71,12.32,15.52,21.61,18.39,1.66.51,3.66.77,5.39.74Z"/>
      <path class="cls-5" d="M1009.8,1080.26c-.16-2.55-1.11-4.98-1.9-7.42-2.95-9.06-3.77-18.66-4.57-28.16-.93-11.04-7.21-21.4-6.14-32.43.24-2.44-.72-4.43-1.59-6.72-3.09-8.17-5.06-16.77-5.86-25.47-.35-3.84-1.8-7.41-2.66-11.17-1.86-8.14-3.72-16.3-4.65-24.6s-.95-16.16-1.59-24.15c-.9-11.02.79-21.51,1.18-32.55.23-6.46.64-12.96-.12-19.38,1.67.64,3.31,1.37,4.92,2.17,6.97,3.47,15.16,4.47,22.85,5.71,2.9.47,5.8.79,8.66,1.49,4.89,1.19,9.88,1.99,14.89,2.37,6.99.53,14.01.79,21.01,1.11.6.03,1.36-.05,1.55-.62,1.36-4.11,4.18-7.62,5.62-11.7s3.07-8.5,4.91-12.62c1.84,5.44,2.6,11.23,2.21,16.96-.02.36-.04.76.17,1.06.38.51,1.16.37,1.75.14,3.37-1.29,6.27-3.76,8.07-6.88.8-1.39,1.36-2.83,2.1-4.26,1.74-3.38.94-7.45.1-11.15-.19-.85-.36-1.69-.73-2.48-1.63-3.54-2.82-7.27-3.56-11.09.85,0,1.57.57,2.24,1.08,1.72,1.31,3.56,2.46,5.48,3.44,5.58,2.83,11.01,5.66,17.03,7.39,9.37,2.7,18.51,4.18,28.25,4.48,7.49.22,14.9-1.97,22.34-2.85.59,5.66,1.17,11.33,1.76,16.99,1.43,13.78,2.72,27.84.18,41.46-3.01,16.14-3.51,33.47-4.24,49.9-.78,17.5-.48,35.12,2.29,52.45,3.52,22.11,9.24,43.55,15.57,65.02"/>
      <path class="cls-12" d="M821.49,604.3c2.33-12.61.41-25.65,1.95-38.38s8.04-26.37,20.28-30.18c5.23-1.63,10.85-1.25,16.31-.84,7.21.54,14.67,1.17,21.01,4.65,4.78,2.62,8.58,6.69,12.14,10.82,8.83,10.24,16.91,21.45,21.37,34.21,5.8,16.56,11.59,33.13,17.39,49.69.92,2.64,1.89,5.35,3.72,7.46,4.26,4.9,12.4,5.02,17.74,1.33,5.34-3.7,8.09-10.28,8.67-16.75s-.74-12.94-2.04-19.3-2.62-12.86-2.45-19.35c.25-9.45-6.04-17.76-12.76-24.4-26.74-26.39-65.46-40.63-85.56-72.36-4.17-6.58-6.58-12.33-7.59-20.05-1.09-8.33,3.85-16.31,9.81-22.22s13.15-10.58,18.53-17.02c1.01-1.21,1.98-2.52,2.44-4.03.89-2.87-.14-5.93-.64-8.89-1-5.93,2.71-12.02,3.34-18,1.15-10.99,1.51-22.7-3.76-32.41-1.74-3.2-4.05-6.08-5.56-9.4-2.23-4.88-2.6-10.4-2.31-15.76.06-1.16.1-2.48-.7-3.32-.68-.72-1.75-.86-2.74-.9-6.8-.32-13.43,1.9-19.88,4.09-7.25,2.46-14.51,4.93-21.72,7.51-5.23,1.87-10.47,3.82-15.18,6.77-6.9,4.32-12.04,11.41-19.19,15.31-4.97,2.72-7.41,8.66-7.76,14.32s2.15,11.22,1.56,16.86c-.48,4.61-2.31,8.95-3.54,13.41s-1.84,9.39.07,13.61c1.21,2.68,3.33,4.85,4.77,7.42,2.63,4.71,4.5,12.24.86,16.23-1.58,1.73-1.63,4.51-.46,6.54s3.36,3.32,5.64,3.83c2.4.53,5.08.34,7.07,1.77,1.08.78,1.81,1.94,2.43,3.12,4.32,8.15,4.81,17.92,3,26.96s-6.35,15.79-9.16,24.58c-1.69,5.29-3.38,10.59-5.07,15.88-1.07,3.34-2.58,7.14-5.94,8.15-4.32,1.3-8.19-2.87-10.75-6.59-11.24-16.36-21.57-33.35-30.97-50.83s-18.77-34.1-27.14-51.67c-5.86-12.31-17.06-20.38-25.7-30.93s-16.11-23.02-16.35-36.65c.11,7.87,1.13,15.74,3.03,23.38-1.72-.1-2.95-1.63-3.96-3.04-3.32-4.64-6.64-9.28-9.96-13.91-1.68-2.34-2.6-4.92-4.28-7.26-3.1-4.33-5.65-9.05-7.57-14.02-1.14,1.84-.8,4.19-1.05,6.35-.21,1.8-.85,3.52-1.39,5.25-3.4,10.99-2.45,23.26,2.62,33.58,11.93,24.31,42.45,36.32,52.75,61.36,3.09,7.52,4.31,15.73,7.76,23.09s10.15,14.11,18.28,14.08"/>
      <path class="cls-12" d="M691.2,619.87c-1.67,4.13.06,9.34,3.87,11.66,1.91,1.16,4.19,1.63,6.09,2.8s3.43,3.56,2.52,5.61c-.39.87-1.17,1.58-1.29,2.52-.27,2.21,2.82,2.91,5.01,3.27,7.58,1.23,12.71,8.19,16.8,14.68,4.09,6.5,8.67,13.64,16.06,15.74,6.78,1.93,13.41,4.8,20.41,5.6,5.9.67,12.07.22,17.56,2.48,2.09.86,4.02,2.09,6.15,2.83,2.13.74,4.42.97,6.49,1.84,3.46,1.46,5.96,4.53,9.09,6.61s7.83,2.91,10.31.09c1.4-1.6,2.44,1.58,3.86,3.16s2.39,3.54,3.92,5.02,3.98,2.37,5.78,1.24c.74-.46,1.28-1.22,2.08-1.57,1.64-.71,3.49.61,4.41,2.14s1.37,3.36,2.58,4.68,3.68,1.76,4.62.24c.48-.77.38-1.74.55-2.63s.89-1.85,1.77-1.66c.57.12.92.67,1.19,1.19,2.01,3.81,2.85,8.18,5.16,11.82,2.39,3.76,6.33,6.51,10.69,7.45,6.72,1.45,12.4,4.04,19.03,5.85,3.77,1.02,7.57,2.06,11.06,3.82,5.36,2.7,9.99,7.08,15.85,8.37,4.29.94,8.95.04,12.58-2.43,12.58.68,23.11,7.11,35.71,7.19,7.35.04,14.7-1.83,21.13-5.4,3.91-2.17,6.91-.52,11.15-1.93,23.37-7.72,45.28-19.83,64.25-35.52,6.88-5.69,13.3-11.94,18.88-18.91,4.34-5.42,11.62-14.93,11.55-22.27-.03-3.73-3-7.74-3.82-11.45-.9-4.07-1.08-8.31-.48-12.43,1.05-7.27,1.72-15.36,3.79-22.41,1.07-3.65,2.42-7.24,2.98-11.01.59-3.97.29-8.03-.28-12.01-.7-4.83-1.78-9.84-.36-14.51.51-1.67,1.32-3.23,1.8-4.91,1.62-5.62-1.05-12.18-6.13-15.06,2.35-1.59,3.66-4.09,4.44-6.82.48-1.71.59-3.5.69-5.28.36-6.23.68-12.68-1.56-18.51-.61-1.58-1.41-3.16-1.42-4.85-.02-3.62,3.42-6.17,6.49-8.08"/>
      <path class="cls-12" d="M678.78,384.36c-.08,7.68,5.27,14.87,4.24,22.49"/>
      <path class="cls-12" d="M653.4,395.86c-1.98-4.03-4.19-7.95-6.6-11.73-.46-.72-.95-1.46-1.7-1.86-2.03-1.08-4.36.93-5.45,2.96-2.27,4.22-2.7,9.17-2.67,13.95.07,10.95,2.61,22.41,9.92,30.56,4.73,5.27,8.45,11.42,13.55,16.34,7.75,7.48,17.17,13.02,25.29,20.11,3.69,3.22,7.24,6.85,11.82,8.59"/>
      <path class="cls-12" d="M756.47,506.03c4.54-3.34,5.72-9.66,5.34-15.28s-1.98-11.19-1.54-16.8c.58-7.36-1.01-14.65-1.13-22.03s.65-14.94,3.79-21.61c1.26-2.68,1.55-5.49,3.12-8,5.29-8.44,12.41-15.73,20.74-21.21.54-.35,1.16-.04,1.7-.39"/>
      <path class="cls-12" d="M638.73,413.05c-.72,3.21-1.44,6.44-1.54,9.73-.21,6.35,1.89,12.61,5.03,18.13s7.32,10.37,11.58,15.09c10.22,11.32,21.22,22.18,34.3,30.03,15.19,9.13,24.59,19.86,35.28,34"/>
      <path class="cls-12" d="M781.74,543.03l.64,10.37c.09,1.47.17,3-.39,4.36-.61,1.45-1.87,2.51-3.07,3.52-7.81,6.52-15.57,14.01-18.31,23.8-3.5,12.53,2.05,25.78,8.9,36.85,4.11,6.64-1.62,14.71-1.52,22.52.1,8.1,4.87,15.29,9.23,22.11s8.65,14.5,7.62,22.53c-1.43,11.21,1.03,23.55,9.79,30.69"/>
      <path class="cls-12" d="M644.2,443.14c-3.27,8.08-1.31,17.55,3.22,25s11.34,13.19,18.29,18.45c6.65,5.04,13.54,9.76,20.21,14.78,13.01,9.8,25.4,21.04,33.24,35.31,2.6,4.73,4.68,9.76,7.65,14.26s7.04,8.56,12.2,10.16"/>
      <path class="cls-12" d="M867.94,338.65c18.38.18,36.44,9.54,47.19,24.45,4.79,6.65,8.76,14.78,16.37,17.83,3.11,1.25,6.54,1.48,9.71,2.57s6.29,3.46,6.69,6.78c.32,2.66-1.18,5.33-.64,7.96.51,2.51,2.71,4.26,4.27,6.3,3.52,4.6,3.69,11.5.39,16.26-2.18,3.15,1.1,7.54,3.33,10.66s4.87,6.2,5.46,9.98c.88,5.65-3.21,11.03-8.11,13.98s-10.61,4.2-15.88,6.43c-7.72,3.27-13.49,9.52-18.31,16.37-2.39,3.4-4.44,7.14-5.26,11.22-1.05,5.24-.03,10.65,1,15.89,1.56,7.95,3.32,16.34,8.79,22.32,2.77,3.03,6.37,5.28,8.84,8.56,2.58,3.43,3.95,7.95,4.67,12.15.71,4.11,2.07,7.03,4.78,10.23,2.01,2.38,4.12,4.67,6.32,6.87,1.41,1.42,2.07,3.61,3.57,4.94"/>
      <path class="cls-12" d="M649.32,470.32c-4.61,8.03-3.16,18.5,1.64,26.41s12.44,13.68,20.33,18.51,16.25,8.98,23.54,14.67"/>
      <path class="cls-12" d="M843.36,712.27c-3.4-10.25-5.65-20.87-6.69-31.62-.3-3.07-1.34-6-2.06-9-1.4-5.84-1.4-12.23,1.27-17.61,1.29-2.59,3.22-5.39,2.21-8.1-1.6-4.27,2.54-8.76,5.77-11.99,1-1,2.1-1.9,2.96-3.01s1.5-2.49,1.36-3.9c-.1-.96-.54-1.85-1.01-2.7-1.01-1.82-2.63-3.79-4.7-3.53-6.61-2.38-12.05-6.31-16.52-11.73-1.79-2.17-3.47-4.63-6.04-5.78-.99-.44-2.06-.67-3.13-.88-1.69-.34-3.6-.61-5.02.37-1.23.85-1.72,2.41-2.04,3.87-1,4.65-.83,9.92,2.17,13.6,1.17,1.43,2.7,2.53,4.05,3.79,1.58,1.46,2.95,3.16,4.04,5.01.48.16.07.99-.43.92s-.8-.57-1.06-1.01c-1.38-2.41-3.41-4.45-5.82-5.84-.37-.21-.77-.41-1.19-.39-.45.02-.84.29-1.2.57-4.52,3.52-6.79,9.71-5.61,15.32.88,4.17,3.47,7.93,3.72,12.18.16,2.79-.7,5.64,0,8.34.62,2.41,2.38,4.34,4.08,6.16,7.15,7.64,14.76,12.51,23.92,17.56"/>
      <path class="cls-12" d="M658.15,506.62c-1.12-1.3-3.4-.88-4.5.44s-1.28,3.16-1.24,4.88c.16,6.61,2.99,12.96,7.07,18.17s9.34,9.37,14.83,13.04c6.09,4.07,12.53,7.62,19.24,10.58"/>
      <path class="cls-12" d="M846.23,622.6c2.56,9.18,8,17.99,16.42,22.46,7.86,4.18,17.27,4.12,26.11,3.09,8.84-1.04,17.7-2.95,26.56-2.13,16.3,1.51,28.34.03,44.64-1.44,2.5-.23,5.42-.75,6.55-2.99,2.17-1.1,4.35-2.53,6.18-4.13s3.29-3.77,3.52-6.19c.18-1.85-.33-3.84.51-5.5.27-.55.68-1.02.97-1.55,1.39-2.54,0-5.8.89-8.56,4.53-13.95-.04-26.85.35-41.5.15-5.52.49-10.23.96-15.73.43-5.02.86-10.1.04-15.07-.94-5.72-3.49-11.05-4.75-16.7-1.53-6.83-1.13-14.08,1.15-20.69,3.01-8.75,5.72-17.56,9.13-26.16,3.49-8.8,7.05-17.97,6.33-27.41-.11-1.41-.35-2.89-1.27-3.96-1.79-2.08-5.08-1.6-7.74-.93-3.24-.11-7-.24-9.96-1.56s-5.49-4.1-5.54-7.34c-.02-1.18.29-2.35.21-3.52-.17-2.65-2.23-4.79-4.45-6.25s-4.73-2.48-6.72-4.24c-.46-.41-.9-.87-1.08-1.46-.17-.56-.08-1.16.04-1.73.36-1.67,1.03-3.28,1.95-4.72,1-1.56.59-3.15-.1-4.87-.41-1.02-1.09-1.91-1.72-2.81-2.07-2.93-3.77-6.1-5.47-9.27-.48-.89-.97-1.8-1.16-2.8s-.06-2.11.6-2.88c1.93-2.26,1.27-5.67-.79-7.81-1.7-1.76-4.38-2.66-5.34-4.91-.48-1.13-.42-2.41-.41-3.64.05-5.54-1.03-11.1-3.17-16.21-1.36-3.27-1.36-6.55-2.54-9.89-2.33-6.59-2.28-13.75-2.21-20.75.05-4.81.11-9.71,1.65-14.27,2.46-1.88,3.17-4.39,5.68-6.2,1.71-1.23,3.86-1.65,5.95-1.93,4.2-.56,8.63-.65,12.49,1.09s6.96,5.74,6.49,9.96c-.26,2.31-1.51,4.74-.49,6.83,1.01,2.07,3.71,2.61,6,2.53,3.95-.14,8.41-1.21,11.49,1.26,1.4,1.12,2.23,2.8,3.04,4.4s1.72,3.25,3.21,4.26,3.74,1.12,4.93-.22c4.36-4.93,10.16-6.97,14.82-11.62,3.94-3.93,8.39-8.05,13.94-8.52,3.87-.33,7.77,1.28,10.61,3.93s4.66,6.27,5.57,10.05c1.66,6.94.23,14.57-3.84,20.43-1.31,1.89-1,3.68.52,5.41s3.76,2.61,5.91,3.43c4.85,1.85,9.71,3.71,14.56,5.56,5.89,2.25,9.93,4.42,15.74,6.88,2.7,1.14,5.51,2.36,7.41,4.59.92,1.08,1.59,2.35,2.51,3.42s2.21,1.97,3.62,1.92c.61-.02,1.21-.23,1.82-.17,1.07.1,1.94,1,2.25,2.03s.13,2.14-.23,3.16c-.31.9-.77,1.8-.71,2.75.04.62.31,1.21.62,1.76,1.51,2.67,3.97,4.65,6.38,6.56,3.48,2.76,6.96,5.52,10.43,8.27,14.79,11.73,23.65,28.8,35.9,43.16,2.9,3.4,5.81,6.81,8.26,10.55,1.77,2.69,3.31,5.62,3.81,8.8.44,2.81.05,5.73.74,8.49,1.22,4.89,5.56,8.43,7.3,13.16,3.95,10.78,8.52,20.92,12.11,31.82,1.53,4.63,2.42,9.44,3.16,14.26,1.84,11.85,2.82,23.84,2.95,35.83.2,18.74,2.49,35.91-1.46,54.23-1.28,5.95-3.91,11.46-5.34,17.3-1.3,5.34-1.49,10.86-3.06,16.23-3.35,11.4-8.52,22.42-9.55,34.39-.37,4.3-.19,8.64-.44,12.95-.92,15.54-7.48,30.17-14.84,43.9-1.85,3.44-5.7,3.52-8.58,6.16-3.16,2.9-6.33,5.81-9.82,8.3-13.78,9.83-31.28,12.38-48.05,14.66-6.17.84-10.92,2.15-17.15,2.1-8.15-.07-16.09-2.37-24.16-3.54-14.02-2.03-28.29-.61-42.38.81-15.65,1.58-31.96.68-46.28-5.84-2.17-.99-4.29-2.12-6.57-2.83-2-.62-4.08-.91-6.16-1.11-12.5-1.17-25.3.95-36.75,6.11-7.12,3.21-13.79-2.11-21.58-2.74-7.79-.63-16.52.78-21.46,6.83,6.38-7.29,8.76-17.9,6.09-27.22-2.36-8.25-4.78-16.41-8.27-24.25-1.58-3.55-3.49-7.43-7.12-8.85"/>
      <path class="cls-12" d="M661.35,532.61c-.22,4.96-.43,9.95.34,14.86s2.61,9.76,6.01,13.37c5.2,5.52,13.11,7.33,20.53,8.87"/>
      <path class="cls-12" d="M930.58,533.24c1.2-2.74,1.78-5.85,1.05-8.76-.57-2.28-1.92-4.31-2.46-6.6-.82-3.48.47-7.37,3.19-9.69.73-.62,1.55-1.13,2.16-1.86,1.77-2.09,1.36-5.18,1.98-7.85.46-1.95,2.14-4.03,4.07-3.48,1.21.34,1.93,1.61,2.27,2.82s.46,2.52,1.1,3.61c.85,1.45,2.48,2.29,3.42,3.68,1.55,2.3.83,5.43-.33,7.95s-2.72,5.02-2.71,7.79"/>
      <path class="cls-12" d="M975.24,508.92c.18-1.8-1.73-3.3-3.55-3.24s-3.4,1.24-4.63,2.57c-2.49,2.72-3.99,6.31-4.17,9.99-.04.88-.03,1.74.07,2.61"/>
      <path class="cls-12" d="M670.24,564.78c-2.9,2.35-4.34,6.24-4.18,9.97s1.8,7.3,4.12,10.23c2.65,3.34,6.28,6.1,7.63,10.15,1.97,5.93-1.62,12.86,1.04,18.52,1.69,3.59,5.49,5.67,9.22,7.01.6.21,1.22.42,1.85.38,1.09-.07,1.99-.83,2.87-1.48,5.98-4.44,13.89-5,21.32-5.41,2.85-.15,5.9-.26,8.32,1.25,2.97,1.86,5.03,6.05,8.5,5.57"/>
      <path class="cls-12" d="M947.83,508.37c.76-1.95,2.15-3.64,3.92-4.76,2.83-1.79,6.34-2.04,9.68-2.18,1.84-.08,3.8-.11,5.35.88,1.38.88,2.32,2.5,3.9,2.92.52.14,1.06.13,1.59.2,1.15.14,2.26.65,3.12,1.43"/>
      <path class="cls-12" d="M864.38,777.72c1.93,9.4.49,19.46-4.01,27.93-7.12,13.41-21.14,22.25-27.72,35.93-9.61,19.97-1.08,45.12-10.76,65.06-7.3,15.03-13.92,28.61-19.25,44.44-3.34,9.9-6.7,19.91-7.6,30.31-.51,5.84-.24,11.77-1.51,17.49-3.92,17.56-21.57,30.03-23.95,47.87-1.3,9.75-4.59,21.25-5.57,31.04"/>
      <path class="cls-12" d="M966.74,745.34c2.22,18.66,4.43,37.32,6.65,55.98.85,7.19,1.71,14.38,2.56,21.56,2.28,19.17,4.57,38.38,5.27,57.69.67,18.56-1.81,36.86-.07,55.42,3.62,38.76,16.92,75.76,22.9,114.12,1.62,10.42,2.7,20.95,5.15,31.21"/>
      <path class="cls-12" d="M874.93,647.98c-3.85,11.75-7.66,24.26-4.77,36.29,3.3,13.75,14.83,24.4,18.13,38.15,1.37,5.71,1.28,11.83,3.7,17.18"/>
      <path class="cls-12" d="M968.88,640.41c5.67,3.91,11.38,7.84,17.69,10.6s13.32,4.3,20.12,3.19c4.68-.76,9.06-2.74,13.6-4.09,7.31-2.18,15.03-1.44,21.86,1.86,5.79,2.8,12.38,5.81,17.1,10.29,5.06,4.81,9.13,11.34,13.5,16.87"/>
      <path class="cls-12" d="M1141.53,756.87c-.8,6.94-.22,14.04,1.71,20.76,1.53,5.34,3.9,10.43,5.24,15.83,1.32,5.33,1.61,10.85,1.9,16.33,1.11,21.29,2.21,42.58,3.32,63.87,2.49,47.86-9.64,94.82-.72,141.91.89,4.71,1.84,10.17,2.99,14.82,3.94,15.97,7.88,31.95,11.81,47.92"/>
      <path class="cls-12" d="M980.55,867.08c22.58,8.64,46.83,12.89,71,12.45,1.46-.03,3.02-.1,4.24-.91,1.18-.79,1.83-2.13,2.41-3.42,2.2-4.86,4.12-9.83,5.76-14.91.82-2.54,1.86-5.22,2.17-7.88.05-.46.57-5.94,1.77-4.58.54.61-.16,3.52-.17,4.31-.04,2.25.17,4.54.25,6.8.18,4.7.35,9.41.53,14.11,5.16.37,9.78-3.93,11.29-8.88s.55-10.31-.96-15.25c-1.11-3.62-2.21-7.31-3.45-10.89-.19-.53-1.5-2.7-1.3-3.18.61-1.45,3.84,3.1,4.42,3.66,2.35,2.24,5.02,4.13,7.92,5.59,20.05,10.11,44.13,12.03,65.94,6.67"/>
      <path class="cls-12" d="M1078.19,664.67c-.65,4.97.9,9.92,1.51,14.89,1.54,12.53-2.88,24.95-7.22,36.8-3.83,10.44-4.36,20.21-6.53,31.12-5.43,27.29-8.83,54.98-10.16,82.76-.61,12.73,1.95,26.49,4.97,38.88.06.26.15.56.4.66s.59-.21.41-.4"/>
      <path class="cls-12" d="M1057.02,877.1c-1.09,2.97-1.14,6.2-1.12,9.36.07,10.81.84,21.61,2.3,32.32,4.32,31.78,4.48,62.55,9.79,94.18,1.77,10.52,3.54,21.05,6.17,31.38,1.43,5.62,3.12,11.18,5.06,16.64"/>
      <path class="cls-12" d="M1146.32,454.84c-2.66-1.29-5.39-2.59-8.33-2.84s-6.18.78-7.75,3.28c-.82,1.31-1.12,2.88-1.37,4.4-.89,5.4-1.47,11.06.24,16.26,1.58,4.83,5,8.84,8.81,12.2,3.16,2.78,7.43,5.33,11.36,3.83,3.13-1.2,4.85-4.61,5.49-7.89.64-3.29.51-6.71,1.36-9.94"/>
      <path class="cls-12" d="M992.13,454.07c.02-5.14-1.85-10.11-2.16-15.23-.47-7.75,2.71-15.4,7.53-21.49s11.19-10.76,17.79-14.85c6.86-4.25,14.52-8.07,22.58-7.65,8.74.45,16.39,5.75,23.5,10.85,22.06,15.83,53.87,15.27,73.23,34.31"/>
      <path class="cls-12" d="M981.37,489.61c4.04,1.71,8.75.34,12.56-1.84s7.16-5.14,11.15-6.97c4.6-2.11,9.78-2.58,14.85-2.62,18.65-.17,38.56,5.96,49.64,20.97"/>
      <path class="cls-12" d="M1136.85,488.35c-2.16,9.28-8.6,17.46-17.11,21.74-.48.24-1.03.48-1.55.32s-.83-.92-.41-1.26"/>
      <path class="cls-12" d="M1049.2,396.87c7.92-4.27,17.63-4.18,26.24-1.58,8.61,2.6,16.33,7.49,23.76,12.55,4.65,3.18,9.84,6.6,15.43,5.87"/>
      <path class="cls-12" d="M1108.31,423.94c-11.95-14.67-31.37-22.9-50.23-21.29"/>
      <path class="cls-12" d="M990.91,437.52c6.06-9.29,14.14-17.41,23.98-22.52s21.49-7.07,32.24-4.36c15.95,4.01,27.69,17.17,41.62,25.9,10.37,6.5,19.47,14.88,29.19,22.32,3.19,2.44,6.55,4.96,10.51,5.65"/>
      <path class="cls-12" d="M1146.96,493.58c.74,5.07,1.48,10.25.52,15.28s-3.95,9.98-8.7,11.88c-3.64,1.46-7.85,1.01-11.44,2.59-1.72.76-3.21,1.95-4.9,2.75-5.55,2.62-12.07.69-17.89-1.27-7.78-2.63-15.56-5.26-23.35-7.88-8.18-2.76-13.58-9.18-20.45-14.41-4.79-3.64-9.63-7.32-15.1-9.83-6.8-3.12-14.32-4.32-21.77-4.94-5.18-.43-10.52-.58-15.47,1-5.15,1.65-9.53,5.05-13.64,8.56-5.9,5.04-11.49,10.42-17.08,15.8-1.11,1.07-1.45,1.76-2.49,2.9"/>
      <path class="cls-12" d="M978.61,537.96c2.34-12.16,11.09-22.9,22.54-27.63s25.23-3.33,35.48,3.62c5.37,3.64,9.72,8.62,15.07,12.3s12.39,5.95,18.32,3.33c3.62-1.6,6.27-4.76,9.42-7.15"/>
      <path class="cls-12" d="M978.79,559.67c11.17-10.86,24.13-21.93,39.69-22.52,11.52-.43,22.45,5.08,31.85,11.75,7.68,5.45,15.55,12.05,24.96,12.13"/>
      <path class="cls-12" d="M978.77,578.3c8.87-5.3,18.35-9.78,28.46-11.93,10.11-2.15,20.92-1.84,30.45,2.16,8.49,3.57,15.54,9.85,23.6,14.32,3.12,1.73,6.51,3.21,10.07,3.22,3.56,0,7.32-1.8,8.72-5.08"/>
      <path class="cls-12" d="M890.3,797.06c-4.27,15.96,8.68,32.14,6.67,48.54-1.05,8.56-6.04,16.03-10.36,23.49s-8.21,15.92-6.74,24.42"/>
      <path class="cls-12" d="M892.41,909.13c.64,6.5,1.22,13.32-1.38,19.31-1.23,2.83-3.12,5.31-4.84,7.87-9.07,13.48-13.8,29.83-13.35,46.07"/>
      <path class="cls-12" d="M909.35,878.76c.29,57.72,2.92,115.42,7.9,172.93"/>
      <path class="cls-12" d="M938.24,1069.23c2-31.97-1.02-64.02-4.04-95.92-3.36-35.48-6.71-70.96-10.07-106.44-2.31-24.42,3.05-48.53,8.85-72.37"/>
      <path class="cls-12" d="M953.38,801.88c-4.1,33.5-7.89,67.22-6.34,100.94,2.52,55.03,19.13,110.64,6.84,164.34"/>
      <path class="cls-12" d="M984.03,1082.51c-3.38-9.61,3.68-19.4,6.36-29.22,5.1-18.72-6.02-37.65-16.87-53.74-3.36-4.98-6.77-10-8.81-15.65-3.32-9.18-2.77-19.26-1.76-28.97,1.66-15.89,4.45-31.67,8.34-47.17,4.51-17.96,3.29-37.82-3.25-55.15-1.67-4.42-3.89-8.68-4.73-13.33-1.08-5.99.2-12.13,1.42-18.09s2.35-12.16.99-18.09c-1.36-5.93-5.9-11.57-11.95-12.26"/>
      <path class="cls-12" d="M883.86,375.3c1.69,7.52,4.88,14.62,7.1,22s3.44,15.39,1.15,22.75"/>
      <path class="cls-12" d="M873.37,438.33c-.43,3.41,1.28,6.66,2.4,9.9.23.67.44,1.37.44,2.09-.03,2.57-2.84,4.29-5.41,4.46s-5.11-.67-7.68-.68c-3.21,0-6.41,1.34-8.64,3.66"/>
      <path class="cls-12" d="M1039.03,359.57c-1.13-1.39-2.53-2.91-4.32-2.87-2.19.05-3.53,2.31-5.01,3.92-1.86,2.01-4.52,3.27-7.25,3.4s-5.51-.86-7.53-2.71"/>
      <path class="cls-12" d="M1093.19,393.33c8.07-8.71,11.33-20.9,12.32-32.74.98-11.84-.03-23.77.88-35.62,2.52-33.09-26.58-57.91-56.84-71.54-10.21-4.6-21.49-7.35-32.62-6.11s-22.05,6.83-28.2,16.19c-1.32,2.01-2.47,4.23-4.43,5.61-1.61,1.14-3.6,1.58-5.51,2.09-10.96,2.94-21.02,9.15-28.57,17.61-2.31.34-5.76,1.73-7.72,3-4.56,2.95-9.3,6.09-11.98,10.81-2.74,4.82-2.96,10.61-3.11,16.15-.08,3.01.21,6.69,2.92,8.01,1.18.58,2.65.51,3.78-.17"/>
      <path class="cls-1" d="M943.27,355.37c.49-1.12,1.08-2.24,2-3.06,1.93-1.71,4.8-1.67,7.2-2.59,1.15-.44,2.2-1.12,3.08-1.98.78-.76,1.46-1.79,1.31-2.87-.15-1.11-1.16-1.95-2.24-2.23s-2.23-.1-3.32.15c-4.63,1.04-8.91,3.21-13.13,5.37-.25.13-.51.26-.67.49-.16.22-.2.51-.21.78-.03.7.12,1.39.27,2.07.49,2.12,1.03,4.23,1.64,6.32.48,1.66.84,3.96,1.78,5.37,1.04-2.42,1.19-5.31,2.3-7.81Z"/>
      <path class="cls-1" d="M906.46,370.18c-2.14.93-4.31,1.87-6.12,3.33-1.26,1.02-2.33,2.26-3.35,3.52-1.2,1.48-2.38,3-3.17,4.74s-1.19,3.7-.77,5.56c.07.31.17.62.38.85.51.55,1.48.35,2-.18s.74-1.29.99-2c1.23-3.5,3.75-6.51,6.91-8.45s6.95-2.8,10.65-2.56c2.13.14,4.24.63,6.37.57.31,0,.62-.03.9-.17.68-.34.87-1.24.74-1.98-.21-1.2-1-2.21-1.76-3.17-.73-.91-1.68-2.76-2.68-3.34s-2.16-.01-3.24.29c-2.65.74-5.39,1.76-7.85,2.99Z"/>
      <path class="cls-1" d="M908.03,388.54c-1.14.54-2.3,1.18-2.95,2.25-.64,1.06-.64,2.47-.03,3.55s1.82,1.79,3.06,1.82c2.84.08,5.24-3.03,8.01-2.39,1.4.32,2.54,1.59,3.98,1.57,1.66-.02,2.83-1.87,2.72-3.53s-1.1-3.12-2.1-4.45c-.52-.7-1.36-2.02-2.27-2.22s-2.3.46-3.15.7c-2.5.69-4.93,1.59-7.28,2.71Z"/>
      <path class="cls-1" d="M948.77,368.07c-.67,1.44-1.22,3.2-.38,4.55.46.73,1.25,1.19,2.03,1.54,1.96.88,4.36,1.26,6.17.1,1.08-.69,1.81-1.91,1.92-3.19s-.41-2.6-1.36-3.46c-.32-.29-.69-.54-.9-.91-.55-.93.11-2.12.91-2.84,1.03-.92,2.33-1.52,3.29-2.51s1.48-2.66.61-3.74c-3.77-4.66-11.09,7.89-12.29,10.46Z"/>
      <path class="cls-1" d="M948.61,416.66c-1.49.94-2.76,2.23-3.67,3.74-.75,1.24-1.24,2.91-.38,4.07.89,1.19,2.63,1.16,4.07,1.52,1.53.38,2.87,1.28,4.17,2.17-.64-1.77-1.27-3.71-.66-5.49.59-1.71,2.2-2.83,3.27-4.28.72-.98,1.2-2.13,1.38-3.33.26-1.66-1.07-4.93-3.02-3.07-.74.7-.96,1.85-1.79,2.58-1,.88-2.27,1.39-3.38,2.09Z"/>
      <path class="cls-1" d="M960.43,411.5c.78.96,1,2.31.7,3.51-.51,2.02-2.38,3.7-2.18,5.77.24,2.58,3.52,4.01,3.86,6.58-1.99-.46-3.84-1.49-5.28-2.93-.75-.75-1.4-1.66-1.57-2.71-.25-1.61.68-3.14,1.46-4.58.46-.86.9-1.83.96-2.81.07-1.2-.7-1.66-.93-2.67-.5-2.2,2.18-1.13,2.98-.15Z"/>
    </g>
    <g>
      <path class="cls-6" d="M507.39,100.57l66.75,132.34,119.72-29.96,80.51-8.29,65.17-.79,58.47,6.66,40.39,13.16,72.4,33.19s168.7,66.35,265.48,10.46c0,0,13.37,6.4,41.07-76.74,0,0,83.42-49.22,189.56-14.68,0,0-26.26-68.15-150.56-56.31,0,0,101.81-37.8,122.76-92.48,0,0-85.81,23.42-176.93,22.87,0,0-106.87-32.4-111.49,24.02,0,0,5.61,28.05,127.49,20.24,0,0-88.26,51.72-189.19,29.45,0,0-354.9-138.71-509.41-56.49l-112.19,43.33Z"/>
      <path class="cls-6" d="M578.07,234.51l94.88-24.49,22.58,40.39s13.57,25.59-38.45,29.32c0,0-103.07,26.75-137.04,79.24,0,0-26.97-23.51,42.03-96.51,0,0-83.98,21.68-113.49-23.16,0,0,92.78-.72,108.63-29.28"/>
      <polygon class="cls-15" points="1190.69 64.03 1182.74 112.37 1273.06 132.46 1327.03 91.89 1315.06 69.46 1190.69 64.03"/>
      <path class="cls-13" d="M507.39,100.57l66.75,132.34,97.44-25.3,11.1-2.88s193.09-33.83,267.05,15.45c0,0,157.59,84.09,280.77,52.19,0,0,57.37-7.74,66.28-37.82l22.71-72.33,1.57-7.18v-74.16s-63.05,53.45-204.71,31.02c0,0-321.56-138.74-504.61-51.08l-104.35,39.76Z"/>
      <path class="cls-13" d="M1182.27,115.48l9.76-64.1s15.41-34.79,106.53-11.35c0,0,157.7.18,176.92-28.19l12.21-11.37-15.12,29.42s-38.62,51.97-120.25,80.27c0,0,99.08-16.25,151.22,45.53l10.22,11.75-27.07-5.97s-65.67-25.71-169.34,19.14l-4.86,2.73"/>
      <path class="cls-13" d="M1318.18,81.07s-110.49,13.39-127.49-14.61"/>
      <path class="cls-13" d="M671.58,207.6l22.28,39.28s17.79,28.31-32.19,31.45c0,0-129.03,37.57-145.5,89.35l-3.99,8.4,2.85-29.84s-2.39-45.14,55.14-84.96c0,0-76.47,27.18-116.47-16.82l-5.12-5.16s74.51,4.5,112.32-32.67"/>
      <path class="cls-13" d="M579.44,231.53s-22.41,38.77,114.42,15.35"/>
    </g>
  </g>
  <g id="Layer_2" data-name="Layer 2">
    <text class="cls-14" transform="translate(599.48 192.09) rotate(-21.34)"><tspan x="0" y="0"> </tspan></text>
    <text class="cls-14" transform="translate(621.81 183.36) rotate(-17.84)"><tspan x="0" y="0"> </tspan></text>
    <text class="cls-14" transform="translate(640.23 175.99) rotate(-12.3)"><tspan x="0" y="0">Y</tspan></text>
    <text class="cls-14" transform="translate(708.39 160.74) rotate(-3.49)"><tspan x="0" y="0">O</tspan></text>
    <text class="cls-14" transform="translate(783.62 156.18) rotate(5.33)"><tspan x="0" y="0">U</tspan></text>
    <text class="cls-14" transform="translate(853.75 163.82) rotate(11.02)"><tspan x="0" y="0"> </tspan></text>
    <text class="cls-14" transform="translate(877.49 168.42) rotate(13.92)"><tspan x="0" y="0"> </tspan></text>
    <text class="cls-14" transform="translate(900.95 174.22) rotate(16.78)"><tspan x="0" y="0"> </tspan></text>
    <text class="cls-14" transform="translate(923.09 173.41) rotate(28.9)"><tspan x="0" y="0">W</tspan></text>
    <text class="cls-14" transform="translate(1020.54 223.11) rotate(15.53)"><tspan x="0" y="0">O</tspan></text>
    <text class="cls-14" transform="translate(1105.39 245.84) rotate(2.33)"><tspan x="0" y="0">N</tspan></text>
  </g>
</svg>