<?xml version="1.0" encoding="UTF-8"?>
<svg xmlns="http://www.w3.org/2000/svg" viewBox="0 0 1920 1080">
  <defs>
    <style>
      .cls-1 {
        fill: #51392a;
      }

      .cls-2 {
        fill: #d9d9d9;
      }

      .cls-3 {
        fill: #231f20;
        stroke: #231f20;
        stroke-width: .25px;
      }

      .cls-3, .cls-4, .cls-5, .cls-6, .cls-7 {
        stroke-miterlimit: 10;
      }

      .cls-8, .cls-9 {
        font-size: 62.55px;
      }

      .cls-10 {
        font-size: 83.4px;
      }

      .cls-9, .cls-11, .cls-12, .cls-13, .cls-14, .cls-15 {
        font-family: TimesNewRomanPSMT, 'Times New Roman';
      }

      .cls-11 {
        font-size: 50px;
      }

      .cls-12 {
        font-size: 45px;
      }

      .cls-13 {
        font-size: 48px;
      }

      .cls-14 {
        font-size: 52.65px;
      }

      .cls-4 {
        fill: #fff;
      }

      .cls-4, .cls-5, .cls-6, .cls-7 {
        stroke: #000;
      }

      .cls-16 {
        fill: #ddc6c5;
      }

      .cls-5 {
        fill: #00025f;
      }

      .cls-17 {
        fill: #786258;
      }

      .cls-6 {
        stroke-width: 5px;
      }

      .cls-6, .cls-7 {
        fill: none;
      }

      .cls-18 {
        fill: #616161;
      }

      .cls-19 {
        fill: #fff0dd;
      }

      .cls-7 {
        stroke-width: 3px;
      }
    </style>
  </defs>
  <g id="Layer_2" data-name="Layer 2">
    <polyline class="cls-5" points="0 1077.95 1923.61 1081.96 1922.68 0 0 0"/>
    <path class="cls-4" d="M821.46,537.47l-.72,49.41s-27.06,60.62,63.47,37.32l90.53-33.3,95.18-7.74s79.77-.59,109.76,29.4c0,0,5.6-38.56-48.02-75.1,0,0,30.48-33.2,98.4,6.78,0,0-15.39-69.98-122.03-86.64l-11.66-83.22s-119.96-35.39-274.92-7.74l274.92-132.3-7.94-138.29s12.94-53.32-133.68-43.32c0,0-39.32-12.09-377.88,63.93l-94.83,20.13-1.07-73.23s-7.19-67.47-145.75,10.84l-101.99,12.84s-98.59-7.85-114.23-34.51c0,0,16.37,56.68,43.68,76.66,0,0-25.33,23.5-105.64-10.75,0,0-4.64,54.11,134.97,90.74l8.82,77.45s3.92,58.73,260.63,15.62l-258.58,130.17s-7.88,59.98,5.45,151.62c13.33,91.64,516.38-25.69,516.38-25.69l96.77-21.09Z"/>
    <g>
      <path class="cls-6" d="M190.82,125.22s-5,66.65,10,161.62c15,94.97,607.31-55.82,607.31-55.82,0,0,189.94-34.99,288.24,3.33,0,0-1.67-143.29-13.33-156.62,0,0,1.67-24.99-128.29-24.99s-429.87,76.64-429.87,76.64c0,0-268.25,53.32-334.06-4.17Z"/>
      <path class="cls-6" d="M198.32,432.63s1.67,79.98,10,151.62c8.33,71.64,383.22,3.33,383.22,3.33l288.09-62.78s176.77-12.2,230.08,19.46c0,0,.07-134.96-15.8-169.11,0,0-86.36-39.15-321.03,0,0,0-441.27,130.79-574.56,57.48Z"/>
      <path class="cls-6" d="M190.82,125.22s-10.83-35.82,94.14-45.82c0,0,31.66-6.66,63.31,5,0,0,118.3,36.66,131.63-15,0,0,5-66.65-109.97-11.66l-41.65,19.99"/>
      <path class="cls-6" d="M192,209.39S58.36,177.7,56.7,114.39c0,0,58.32,33.32,109.97,18.33,0,0-38.32-28.32-48.32-83.31,0,0,16.23,35.89,118.91,37.94"/>
      <line class="cls-6" x1="198.32" y1="432.63" x2="472.86" y2="300.69"/>
      <line class="cls-6" x1="810.65" y1="369.32" x2="1096.38" y2="234.35"/>
      <line class="cls-6" x1="479.9" y1="69.4" x2="482.04" y2="136.8"/>
      <path class="cls-6" d="M1109.7,544.26s-3.33,33.32-63.31,43.32l-64.98,3.33s-83.31-21.66-128.29-21.66c0,0-39.99,5-36.66,36.66,0,0,0,26.66,51.65,23.33,0,0,103.3-31.66,106.63-38.32"/>
      <path class="cls-6" d="M1108.04,457.62s104.97,19.99,124.96,88.31c0,0-63.31-38.32-103.3-10,0,0,54.98,41.65,49.98,76.64,0,0-54.15-37.23-117.05-28.61"/>
    </g>
    <line class="cls-6" x1="821.46" y1="582.58" x2="821.46" y2="537.47"/>
  </g>
  <g id="Layer_1" data-name="Layer 1">
    <g>
      <path class="cls-2" d="M1745.32,608.88c-.81,6.74,2.44,13.62.96,20.25-.47,2.08-1.39,4.04-1.82,6.13-.69,3.35-.09,6.82.52,10.19,1.04,5.83,3.47,11.2,4.44,17.05,1.23,7.49-.38,15.3,1.41,22.68,1.79,7.36.9,16.06,4.67,22.63,1.37,2.39,3.02,4.63,4.01,7.2,1.15,3,1.34,6.29,2.46,9.3,1.58,4.22,5.07,7.68,9.3,9.23.8.29,1.68.56,2.21,1.23.59.75.57,1.79.58,2.74.08,8.86,4.46,17.03,8.72,24.79,2.24,4.07,4.47,8.14,6.71,12.2-1.21,22.66,11.46,43.42,16.63,65.52,1.05,4.5.45,10.08.92,14.68.4,3.93.74,7.99-.47,11.75-.68,2.11-1.83,4.07-2.29,6.24-.81,3.83.63,7.93-.45,11.69-.8,2.77-2.9,5.09-3.36,7.93-.54,3.39,1.34,6.64,3.16,9.56,3.84,6.18,10.58,10.68,13.2,17.47,1.17,3.04,1.78,6.27,2.89,9.33,1.11,3.06,2.83,6.07,5.6,7.77,2.24,1.38,4.26,3.06,6.27,4.75,1.61,1.35,3.72,1.83,5.62,2.72,5.03,2.35,9.94,4.97,14.7,7.84,3.71-.16,6.52,1.68,10.05,2.82,3.62,1.17,7.45,1.54,11.24,1.9,2.91.28,5.82.55,8.72.83,5.64.54,11.18,1.3,16.73,2.43,5.55,1.13,11.34,1.92,16.83.52,2.84-.72,5.52-1.84,7.88-3.57l-.28-404.47c-3.56-6.1-6.08-11.99-8.97-18.44-2.89-6.45-6.42-12.8-11.74-17.45-10.32-9.02-23.95-13.24-37.25-16.54-7.53-1.87-15.03-3.92-22.76-3.21-7.73.71-15.35,2.46-23.11,2.8-2.68.12-5.45,1.05-7.93,2.08-2.84,1.19-5.68,3.06-6.68,5.97-.8,2.36-.25,4.93.11,7.39.47,3.23.56,6.58-.43,9.68s-3.23,5.93-6.31,7.02c-6.48,2.28-13.24,3.6-19.69,5.99-4.98,1.85-9.09,6.58-12.31,10.72-7.1,9.12-11.26,20.58-11.32,32.16-.01,2.05-1.63,3.83-3.08,5.27s-3.13,2.65-4.53,4.15c-4.86,5.22-6.02,13.34-1.77,19.07Z"/>
      <path class="cls-19" d="M915.14,362.57c-16.95-6.46-34.1-12.39-51.43-17.78-1.74-.54-3.68-.11-5.48-.3-.22-.02-.46-.04-.65.08-.42.29-.15.94.15,1.35,2.21,3,4.43,6,6.64,9-3.67,3.76-5.59,9.17-5.09,14.4.72,7.52,4.67,14.25,10.72,18.76,6.06,4.51,13.11,7.63,18.8,12.59-1.19-.43-2.67.22-3.15,1.4-.73,1.77.4,2.87,1.71,3.69,1.8,1.12,3.37,2.73,5.02,4.07,3.6,2.92,7.3,5.73,11.08,8.41,6.28,4.46,11.35,7.59,17.09,12.72,5.74,5.13,10.83,11.12,14.16,18.07-2.56-.75-5.24-1.07-7.91-.94-.59.03-1.22.09-1.72.41-.71.46-1.02,1.36-1.08,2.21-.15,1.98.79,4,2.39,5.16,5.93,4.27,10.88,8.8,16.01,13.99s9.57,11.41,11.06,18.56c-1.06-.23-2.14-.45-3.21-.35s-2.17.61-2.72,1.54-.38,2.31.54,2.88c3.79,2.33,5.19,7.6,9.26,9.39,2.85,1.25,6.06,1.47,8.93,2.66,4.45,1.85,7.62,5.83,10.27,9.85s5.06,8.33,8.73,11.45c.82.7,1.74,1.38,2.14,2.39.39.99.11,2.05.4,3.05.36,1.22,1.33,2.24,2.25,3.07,2.93,2.64,6.6,4.35,10.38,5.47,1.67.49,3.44.91,4.81,1.99,1.98,1.58,2.71,4.22,3.22,6.71s.98,5.13,2.66,7.02c.65.73,1.47,1.32,1.94,2.18.72,1.28.52,2.86.31,4.31-.34,2.26.25,4.64,1.18,6.73,1.41,3.16,4.28,5.41,7.21,7.26s6.06,3.47,8.47,5.95c1.67,1.72,2.94,3.78,4.19,5.82,1.87,3.06,3.76,6.16,4.93,9.55,2.55,7.38,12.08,9.68,15.24,16.82.71,1.61,1.16,3.33,1.87,4.93s1.77,3.15,3.32,3.98,3.69.73,4.86-.58c4.53-1.3,9.61-2.89,13.88-4.88,1.12,2.99,1.2,6.25,1.28,9.44.11,4.55,2.21,9.25,3.93,13.47,2.22,5.44,3.47,11.28,3.65,17.16.05,1.43.04,2.91.63,4.21.19.41.63.86,1.02.63.19-.11.27-.34.34-.55,1.67-5.2,3.34-10.39,5.01-15.59,2.19-6.81,4.38-13.63,5.84-20.64,1.67-8.04,6.02-15.44,6.23-23.65.08-2.98.43-5.61,1.19-8.49,3-11.25,7.84-21.96,10.65-33.26.59-2.36.33-5.07,1.27-7.32,5.61-13.51,10.1-27.47,13.42-41.72.05-.23.09-.52-.1-.67-.13-.1-.31-.09-.48-.08-2.47.15-4.95-1.46-5.83-3.77-10.79-6.78-16.7-17.33-26.16-25.86-2.86-2.58-5.97-4.88-9.07-7.18l-12.12-8.97c-15.83-11.71-30.55-22.47-45.87-34.84-3.55-2.87-7.31-4.82-10.97-7.54-4.62-3.43-9.89-5.84-14.65-9.05-2.28-1.54-4.17-3.51-6.36-5.08-2.73-1.97-5.87-3.55-8.77-5.26-11.89-6.98-24.02-13.54-36.38-19.66-14.12-7-26.4-15.17-41.13-20.79Z"/>
      <path class="cls-19" d="M1458.07,1084.72c-2.76-9.78-5.53-19.55-8.29-29.33-.68-2.39-1.35-4.79-2.31-7.08-2.07-4.99-4.29-10.28-6.77-15.08-1.87-3.63-3.74-7.26-5.6-10.89-2.66-5.19-5.31-10.38-7.95-15.58-.96-1.89-2.3-3.33-3.31-5.12-1.35-2.38-2.2-5.21-3.21-7.75-4.15-10.52-7.76-21.25-12.06-31.71-5.62-13.67-11.23-27.34-17.39-40.77-5.95-12.99-6.25-27.55-9.72-41.32-5.37-21.33-.74-44.43-.81-66.42-.02-6.97.59-13.95,1.84-20.81.83-4.55,1.93-9.06,2.5-13.66.48-3.82.58-7.67.69-11.51.28-10.1.5-20.23,1.14-30.31,1.1-17.55-.25-34.35.08-51.93.39-20.36-2.6-41.15-9.25-60.4-2.59-7.49-4.73-15.13-6.43-22.87-.43-1.97-.83-3.99-.61-5.99s1.18-4.03,2.91-5.06c18.8,4.58,38.54,11.64,52.77,24.76-.89-2.83.47-5.9,2.29-8.25s4.13-4.33,5.62-6.9c1.15-1.99,1.77-4.28,1.77-6.58,0-1.56-.27-3.2.34-4.64.51-1.19,1.54-2.06,2.38-3.04,3.1-3.65,3.46-8.83,3.67-13.61.33-7.64-2.81-15.9.31-22.88.82-1.83,2.09-3.42,3.09-5.17s1.75-3.76,1.38-5.73c-.8-4.19.54-8.54.8-12.79.04-.66.14-1.43.71-1.78.66-.4,1.52.04,2.05.6s.92,1.29,1.61,1.65c1.18.62,2.72-.2,3.32-1.4s.51-2.61.35-3.93c-1.04-8.45.17-18.15.17-26.8,0-10.11.1-20.23.29-30.34.08-4.44,2.13-8.46,4.12-12.31,2.14-4.14,2.82-8.04,4.31-12.43.69-2.03,1.2-4.11,1.55-6.23.66-4.12.66-8.31.65-12.48,0-2.02,0-4.05-.01-6.07-.01-4.8-.5-9.61-2.1-14.13-.34-.96-.72-1.92-.78-2.94-.17-2.66,1.8-5.3.98-7.83-1.86-5.76,1.71-11.64,3.06-17.55,1.07-4.68,1.65-9.46,1.75-14.26.06-3.22.06-6.46-.73-9.58-.86-3.38-2.45-6.83-1.54-10.2.97-3.58,2.39-6.8,2.76-10.49.27-2.71.25-5.47.84-8.13.33-1.46.84-2.87,1.21-4.32.51-2.01.76-4.07,1-6.13.25-2.09.5-4.18.74-6.27.44-3.68.38-7.02-.89-10.5-.91-2.49-2.54-4.66-3.41-7.16-1.26-3.59-.75-7.93-2.66-11.29-1.09-1.93-3.64-3.42-4.24-5.57-.57-2.07.39-4.97,1.01-6.91,1.77-5.55,4.02-10.36.56-15.78l-1.55-.03c-3.17.99-5.51,3.16-7.36,5.92s-3.4,5.78-5.79,8.09c-8.65,8.38-17.72,17.59-27.52,24.6-1.91,1.37-4.34,2.71-6.04,4.33-8.82,8.44-18.09,16.4-27.77,23.85-3.05,2.35-6.6,5.03-9.76,7.23-5.88,4.11-12.2,7.55-18.19,11.5s-11.72,8.51-15.87,14.36c-2.81,3.96-6.66,7.29-10.64,10.07-.89.63-1.89,1.35-2.03,2.44-.18,1.36,1.07,2.43,2.2,3.21,7.42,5.16,15.34,10.02,20.68,17.32,5.13,7.02,12.73,11.74,14.34,20.28-1.81.18-3.62.37-5.43.55-1.03.1-2.11.22-2.97.79-.81.53-1.33,1.39-1.76,2.25-1.36,2.71-2.02,5.76-1.92,8.78.28,7.97,5.47,14.69,9.04,21.82.64,1.27,1.25,2.6,1.36,4.02.26,3.39-2.33,6.25-4.74,8.65-2.32,2.32-4.58,4.69-6.84,7.07-.96,1.01-2.34,2.06-3.11,3.21-.7,1.05-.85,2.4-1.18,3.65-1.49,5.72-1.8,11.74-.9,17.58.15.97.47,1.6,1.13,2.32,3.63,3.93,7.68,7.48,10.99,11.69,3.39,4.31,4.15,9.63,1.23,14.49-1.37,2.28-2.45,1.9-4.92,2.05-2.29.14-4.6.46-6.73,1.36-1.93.81-3.8,2.27-4.15,4.33-.64,3.76,4.03,7.17,2.83,10.79-.13.41-.37.81-.75,1.01-.38.19-.82.13-1.24.13-2.31.02-4.26,1.98-4.98,4.18s-.49,4.58-.19,6.88c.33,2.52,1.34,3.27,1.28,5.81-.01.51-.06,1.04-.28,1.5-.39.83-1.26,1.31-2.11,1.65-2.31.92-4.86,1.17-7.09,2.27-.48.23-.96.52-1.25.97-.24.37-.33.82-.41,1.26-.23,1.36-.33,2.75-.31,4.13.03,1.72.19,3.65-.94,4.95-.79,4.99-4.8,8.31-9.45,10.28s-9.89,2.09-14.9,1.49c-5.01-.6-9.92-1.87-14.92-2.58-.55-.08-1.2-.12-1.57.3-.68.76.33,1.84,1.21,2.35,8,4.55,16.34,9.22,25.52,9.86.96.07,1.39.3,2.35.28,2.5,10.41,5.87,20.61,10.05,30.46,1.16,2.74,2.4,5.47,3.15,8.35.92,3.53,1.11,7.21,1.14,10.86.04,4.62-.16,9.25-.59,13.86-.75,8.06-.49,18.09-3.45,25.63-1.4,3.58-3.41,6.9-4.78,10.49-3.51,9.19-2.59,19.45-.85,29.14,2.75,15.32-2.77,32.01-8.94,46.3-2.6,6.03-9.03,9.34-15.16,11.68-6.13,2.35-12.67,3.36-19.16,4.36-5.72-.32-11.44-.49-17.17-.34-1.26.03-2.64.12-3.58.96-.66.59-.99,1.47-1.25,2.32-2.99,9.7-.32,20.29-2.12,30.28-1.65-3.15-3.29-6.29-4.94-9.44-3.95-7.54-7.93-15.2-9.78-23.51-.62-2.8-1-5.65-1.3-8.5-.23-2.19-.42-4.4-.15-6.59.25-2.09.92-4.08,1.64-6.04s.68-3.79,1.01-5.86c.68-4.27,2.3-8.33,3.9-12.32-.93-.12-1.76.52-2.51,1.07-5.06,3.76-11.54,5.55-17.81,4.94-12.01-1.17-24.41-1.43-36.14-4.27-8.63-2.09-15.13-9.47-21.74-15.4-.35,4.66.21,9.4,1.64,13.85.76,2.36,1.77,4.68,2,7.14.49,5.11,1.49,10.39,1.88,15.51.38,5.03.13,10.54-3.07,14.45-2.08,2.54-5.24,4.16-6.9,6.99-1.56,2.67-1.52,5.94-1.44,9.04.11,4.28.23,8.56.34,12.84.26,9.83-.68,20.26-4.34,29.39-.98,2.46-2.84,5.27-5.46,4.9-1.2-.17-2.19-1-3.1-1.8-3.67-3.22-7.35-6.44-11.02-9.66-3.58-3.13-6.56-7.05-10.29-10.17-5.17-4.32-10.85-8.75-17.57-9.29,1.72,2.48,2.69,5.47,2.76,8.49.03,1.39-.11,2.84.44,4.11,1.8,4.17,2.42,9.9,3.25,14.37,2.49,13.46,5.82,26.69,9.05,40,1.29,5.3,2.58,10.62,3.25,16.04.32,2.57-.07,5.23-.06,7.84,0,2.84.14,5.68.4,8.51.33,3.63.87,7.24,1.25,10.86.47,4.44.66,8.78,1.8,13.1,2.93,11.13.46,22.53-5.91,32.07-1.79,2.67-4.67,5.25-5.97,8.18-.43.97-.43,2.07-.8,3.08-.59,1.61-1.46,3.13-2.24,4.65-6.25,12.1-11.51,24.77-14.81,37.98-3.07,12.3-3.94,25.08-7.17,37.34-3.06,11.61-5.34,23.35-6.91,35.25"/>
      <path class="cls-19" d="M1281.45,728.18c-4.35,3.07-4.17,9.59-7.07,14.06-2.02,3.1-5.4,5-8.2,7.42-2.8,2.42-5.21,6.07-4.2,9.64.1.34.23.69.5.93.27.24.62.34.97.42,10.31,2.57,21.64.82,30.69-4.74,1.73-1.07,3.44-2.33,4.41-4.12,5.07-9.38,10.04-18.86,13.18-29.04,1.85-6-1.42-12.45-2.71-18.6-2.58,3.27-5.16,6.53-7.74,9.8-1.54,1.95-3.11,3.93-5.15,5.34-2.86,1.98-6.4,2.68-9.63,3.98s-6.48,3.59-7.15,7.01"/>
      <path class="cls-16" d="M1585.87,451.36c.49-.11,1,.18,1.27.6s.37.92.43,1.42c.37,3.16-.34,6.33-1.04,9.43-.7,3.1-1.41,6.27-1.04,9.43.37,3.16,2.39,5.85,4.93,7.77,2.29,1.73,5.27,2.31,8.14,2.4s5.75-.24,8.62-.08,5.84.87,8.01,2.75c1.1.95,1.95,2.17,2.69,3.42,1.13,1.92,2.22,3.06,3.04,5.13.78,1.96,1.58,3.96,2.91,5.61,1.6,1.99,3.93,3.37,6.44,3.81,3.27.58,6.62-.4,9.67-1.7s6.13-1.87,8.98-3.59c2.11-1.27,4.43-2.59,6.87-2.28.92.12,3.64,1.44,4.43.72.64-.58.72-3.38,1.02-4.28.94-2.91,2.48-5.62,4.43-7.98.9-1.09,1.91-2.11,3.13-2.83,1.03-.61,2.19-.98,3.35-1.27,1.74-.44,3.55-.73,5.34-.59.67.05,1.33.16,1.98.3,7.6,1.56,14.46,6.39,18.5,13.02.56.91,1.07,1.87,1.34,2.91.38,1.41-.18,3.41.51,4.66.56,1.01,1.38,1.06,1.49,2.42.29,3.49.16,6.52,1.58,9.86,1.16,2.74,4.21,4.01,6.72,5.37,4.7,2.56,9.43,5.35,12.84,9.48,1.45,1.75,2.49,3.57,3.6,5.55.86,1.52,1.71,3.03,2.57,4.55.31.54.62,1.1.75,1.71.14.68.06,1.38-.07,2.06-.3,1.6-.82,3.15-1.55,4.6-.9,1.8-2.15,3.78-1.46,5.67,1.62.02,3.14-.75,4.54-1.55,4.37-2.5,8.72-5.12,11.87-9.05,1.83-2.28,3.66-4.55,5.49-6.83,2.55-3.17,5.13-6.38,8.36-8.85,1.07-.82,2.23-1.57,3.51-1.99,1.19-.39,2.45-.5,3.71-.53,5.57-.11,11.02,1.33,16.58,1.44,4.3.08,9.7.41,12.23-3.84,2.67-4.48.34-10.49,2.34-15.31.67-1.62,1.8-3,2.92-4.36.27-.32.6-.68,1.02-.65.24.02.45.16.65.3,1.92,1.35,3.83,2.7,5.75,4.05.13.09.28.21.31.37.03.15-.05.3-.13.43-.38.64-.92,1.2-1.14,1.92-1.34,4.48,1.93,9.31.94,13.87-.46,2.14-1.12,4.27-2.34,6.09-.81,1.2-1.89,2.27-3.17,2.95-1.19.63-2.07.34-3.31.52-3.18.46-6.36,2.33-9.37,3.41-3.56,1.27-7.2,2.38-10.58,4.07s-6.04,4.41-8.6,7.19c-4,4.37-7.39,9.67-9.12,15.34-1.08,3.54-2.1,7.1-3.05,10.67-.55,2.04-.51,3.45-.74,5.55-.17,1.52-.48,3.01-.93,4.47-.23.75-.5,1.5-.88,2.19-.42.74-.97,1.4-1.51,2.05-.74.88-1.32,1.85-2.16,2.64-4.05,3.83-6.36,9.43-6.2,15,.05,1.69.38,3.26.55,4.94.53,5.25,1.07,10.51,1.6,15.76.04.38.07.78-.08,1.12-.16.37-.52.62-.87.84-4.29,2.63-9.69,2.41-14.71,2.1-6.24-.39-12.57-.79-18.5-2.81-2.94-1-5.93-1.69-8.94-2.46-9.08-2.31-17.29-7.12-25.58-11.49-5.96-3.14-14.78-5.74-21.51-3.85-1.49.42-2.9,1.08-4.3,1.75-1.94.92-2.53,1.1-4.49,1.98-2.28,1.02-4.56,2.1-6.57,3.59-1.77,1.32-3.29,2.95-5.09,4.24-1.6,1.16-3.4,2.02-5.23,2.77-5,2.04-10.55,2.56-15.92,3.14-6.92.74-14.1-1.25-19.64-5.45-.72-.55-1.43-1.15-1.88-1.94-1.13-1.98-.33-4.43-.2-6.7.23-3.97-1.91-7.99-5.33-10.03-1.73-1.03-3.71-1.56-5.43-2.6s-2.96-3.1-2.44-5.04c1.21-4.5-1.51-9.7-5.89-11.27-1.62-.58-3.49-.77-4.67-2.02-1.55-1.64-1.17-4.23-.98-6.48.36-4.23,1.36-10.28-1.8-13.11-2.47-2.21-6.14-2.26-9.45-2.18-2.96.07-5.91.13-8.87.2-.45.01-.97,0-1.28-.34-.24-.26-.28-.64-.31-.99-.78-9.6,1.11-19.41,5.39-28.04,2-4.03,4.58-8.06,4.5-12.56-.04-2.71-.82-4.78-1.74-7.32-1.9-5.26-3.89-10.69-7.76-14.72-.49-.51-1.01-1.01-1.32-1.64-.27-.56-.35-1.19-.41-1.81-.84-8.84-1.51-17.77,1.9-25.97,1.98-4.76,3.99-9.67,3.96-14.83-.02-3.63-1.05-7.2-1.05-10.83,0-.52.03-1.07.35-1.48.36-.45.99-.59,1.56-.68,2.28-.35,4.6-.42,6.89-.2,5.08.47,6.87,6.7,11.36,9.13,4.19,2.27,9.55,1.43,13.72,3.74,1.11.61,1.96,1.31,3.06,1.93Z"/>
      <path class="cls-16" d="M1080.49,925.12c11.81,16.65,25.23,31.22,38.02,47.14.24.3.52.62.9.64.63.03.95-.73,1.12-1.34,1.74-6.44,5.86-11.93,9.89-17.25,1.39-1.84,1.81-4.07,2.94-6.07,2.88-5.07,2.63-11.27,2.29-17.09-.38-6.72-2.16-13.33-2.22-20.06-.03-3.94-1.08-7.79-1.05-11.73.03-5.33-.52-10.37-1.43-15.62-1.21-6.96-1.95-12.9-3.92-19.68-.44-1.52-.92-3.09-.74-4.67.1,0,.34.48.24.46s-.15-.13-.18-.22c-2-6.08-3.58-12.3-5.16-18.5-1.11-4.35-2.23-8.8-1.91-13.28.27-3.84-1.41-7.11-2.55-10.79-1.45-4.67-2.31-9.5-2.88-14.35-.05-.43-.36-.68-.73-.91-2.74-1.74-5.25-3.81-7.75-5.88-10.59-8.75-18.11-21.82-17.98-35.56.1-9.64-1.57-19.25-1.55-28.89.03-12.41.5-25.04.69-37.45.04-2.68.38-5.34.84-7.98.23-1.35.5-2.7.76-4.04.25-1.24.81-2.74.78-4-.03-1.18-.48-2.5-.66-3.68-.22-1.37-.41-2.75-.57-4.13-.15-1.27-.29-2.55-.4-3.83-.1-1.09.04-2.11-.07-3.2-.29-2.67-.57-5.34-.86-8.01-.12-1.14-.24-2.28-.3-3.43-.04-.88-.04-1.76-.13-2.64-.18-1.61-.8-3.04-1.23-4.58s-.9-2.95-1.49-4.39c-1.25-3.01-2.73-5.96-3.51-9.14-.56-2.33-.74-4.75-.51-7.13.17-1.79.02-3.42-.6-5.11-.04-.1-.09-.21-.18-.26-.11-.05-.23-.01-.35.03-.69.25-1.39.49-2.08.74-2.09.74-4.38,2.15-6.53,2.54-2.39.44-4.39.46-6.66,1.64-1.81.94-3.54,2.11-5.08,3.44-1.43,1.24-2.96,2.01-4.62,2.99-7.11,4.2-12.88,10.65-16.26,18.19-3.37,7.53-7.21,14.41-8.37,22.57-1.17,8.16-1.23,16.45-2.1,24.65-.92,8.69.24,17.08.2,25.73-.03,8.06-.26,16.06.49,24.18,1.59,17.37,5.23,34.46,8.85,51.49,5.17,24.28,9.56,48.78,15.75,72.94,5.3,20.73,16.54,38.19,28.84,55.53Z"/>
      <path class="cls-16" d="M1388.03,697.35c-.25,4.25-.19,8.52.19,12.76.04.46.09.94.35,1.32.36.53,1.03.75,1.66.86,2.27.41,4.7-.13,6.59-1.47-.29.2,8.79,19.59,9.62,21.35,3.62,7.59,7.59,15.01,11.9,22.23,3.15,5.27,5.28,11.01,8.15,16.41,2.75,5.17,5.77,10.29,8.75,15.36,6.45,10.99,13.34,21.71,20.66,32.15,12.01,17.13,27.4,32.4,44.58,44.33,3,2.08,6.61,2.88,9.81,4.64,4.79,2.64,10,4.53,15.36,5.58,3.32.65,6.57,1.66,9.9,2.25,4.43.78,9.01-.18,13.23-1.75,1.98-.74,3.93-1.62,5.66-2.84,3.48-2.46,5.89-6.2,7.45-10.17,1.56-3.97,2.33-8.19,3.1-12.39s.26-8.28,1.31-12.35c.7-2.71,1.65-5.36,2.21-8.11.64-3.15.75-6.37.86-9.58.1-2.88.2-5.76.3-8.65.16-4.76-.6-9.51-.21-14.25.39-4.74,1.71-9.51,4.51-13.36.3-.42.72-.87,1.23-.83.52.04.85.55,1.11,1.01,2,3.52,4.47,6.76,7.3,9.65,2.53,2.58,5.16,5.91,8.23,7.83,1.37.86,2.91,1.43,4.26,2.32,1.27.83,2.35,1.93,3.63,2.76s2.85,1.39,4.31.96c2.02-.59,3.07-2.76,3.78-4.74.75-2.11.84-3.77,2.13-5.58s2.73-3.38,3.98-5.17c1.09-1.57,2.19-3.15,3.56-4.48,2.19-2.12,5.06-3.53,8.08-3.98,2.69-.39,5.17-1.82,7.77-2.65,4.05-1.29,8.32-.31,12.28-1.85,1.47-.57,2.95-1.31,3.9-2.58,1.07-1.43,1.3-3.33,1.22-5.12-.15-3.39-1.26-6.6-2.06-9.86-.69-2.81-.45-5.71-1.03-8.42-1.23-5.75-6.1-12.06-9.73-16.53-3.7-4.56-7.81-9.57-13.28-11.86-1.04-1.62-2.3-2.86-3.59-4.29-3.78-4.16-3.5-10.64-6.35-15.48-4.63-7.88-7.4-15.79-8.64-24.85-1.63-11.91-7.63-22.62-12.7-33.53-1.87-4.02-5.34-7.47-8.83-10.21-1.44-1.13-3.05-2.18-4.87-2.37-.81-.08-1.68.03-2.35.51s-1.05,1.39-.75,2.16c-1.71.24-3.06-1.3-4.43-2.35-1.86-1.41-4.29-2.04-6.6-1.71-5.62-1.11-11.46,1.64-16.18,4.89s-9.29,7.09-14.87,8.36c-9.36,2.13-17.93,7.43-25.66,13.12-3.13,2.3-6.16,4.85-8.27,8.11s-3.2,7.35-2.18,11.09c4,14.64,8.41,29.8,8.44,44.97.01,7.45.21,14.45.38,21.9.01.62-.03,1.36-.56,1.69-.41.26-.95.15-1.39-.03-1.15-.46-2.06-1.35-2.92-2.24-7.57-7.86-12.84-17.83-21.09-24.97-4.2-3.63-6.29-7.52-10.55-11.09-1.74-1.45-3.56-2.85-4.89-4.67-1.1-1.51-1.83-3.25-2.46-5.01-.95-2.64-1.7-5.36-2.24-8.11-2.27-11.44-5.35-23.2-11.96-32.8-1.6-2.33-3.41-4.69-3.78-7.5-.84-6.41-4.83-11.42-7.92-17.1-1.18-2.16-2.65-4.15-4.11-6.13l-5.22-7.06c-8.73-11.82-23.69-17.35-37.61-22.05-4.15-1.4-8.33-2.73-12.46-4.19-1.64-.58-3.44-1.15-5.06-.53-.26.1-.52.24-.69.47-.19.26-.22.6-.25.92-.61,7.95,1.37,15.84,3.33,23.56,3.43,13.52,7.85,26.35,10.26,40.09.96,5.45.66,10.93,1.35,16.42,1.16,9.16,1.61,15.59,1.06,24.8Z"/>
      <path class="cls-16" d="M1192.96,631.73c.15-.03-.03.26-.12.14s.03-.29.15-.38.28-.2.26-.35c-.35-3.82.03-7.7,1.11-11.38.54-1.82,1.29-3.66,2.7-4.93s4.26-1.91,5.88-.93c.77,1.7,1.53,3.41,2.3,5.11.34.77.88,1.66,1.72,1.63.67-.02,1.14-.64,1.49-1.22,3.7-6.11,4.17-13.45,4.47-20.4.3-7.01-.34-14.91-1.36-21.76-.59-3.94-2.34-7.6-3.56-11.4-.91-2.84-1.52-5.77-2.13-8.69-1.46-7.02-2.92-14.04-4.38-21.06-.7-3.35-1.04-6.18-.66-9.61.36-3.23,1.12-6.39,1.47-9.62,1.15-10.65-.93-23.57-6.78-32.66-.79-1.23-1.67-2.43-2.24-3.78s-.78-2.93-.22-4.28c1.01-2.42,3.98-3.23,6.57-3.63,10.26-1.58,19.63-3.14,29.83-1.18,6.42,1.23,12.94-1.19,18.94-3.78,3.97-1.71,7.93-3.53,11.48-5.99,7.79-5.41,13.86-13.48,18.66-21.66,3.47-5.92,6.94-11.84,10.4-17.76,1.61-2.75,3.27-5.56,5.76-7.54,1.66-1.32,3.61-2.21,5.53-3.09,6.84-3.12,13.18-7.29,20.32-9.64,1.81-.59,3.39-1.85,4.37-3.48.49-.82.84-1.73,1.49-2.44.79-.87,1.96-1.32,3.12-1.47s2.35-.02,3.51.14c3.24.42,6.61,1.07,9.88.98,5.22,1.16,10.34,2.77,15.28,4.79.47.19,1.17.72.9,1.15-1.2,1.92-2.36,3.94-2.7,6.18-.33,2.17.12,4.35.68,6.44.25.95.15,1.74.29,2.69.15,1.01.53,1.97.95,2.89,2.62,5.79,4.92,10.91,8.25,16.31.78,1.27.5,2.96-.26,4.25s-1.91,2.28-2.96,3.34c-1.24,1.27-2.35,2.66-3.5,4.02-1.81,2.13-4.08,3.54-5.84,5.7-1.04,1.27-1.81,2.74-2.46,4.25-.85,1.96-1.51,4.07-1.53,6.23,0,1.08-.07,1.82-.32,2.88s-.41,2.05-.5,3.08c-.3,3.28.68,6.55,2.01,9.57.43.97.91,1.94,1.57,2.77.49.62,1.08,1.16,1.68,1.69,1.53,1.34,2.89,2.57,4.46,3.86,4.32,3.56,8.41,9.73,6.44,14.97-.64,1.71-2.01,3.13-3.69,3.84-.78.33-1.61.51-2.44.68-1.81.38-3.63.74-5.45,1.07-1.45.27-3.09,0-4.37.88-1.02.69-1.57,1.94-1.68,3.17s.15,2.46.46,3.66c.5,1.94,1.3,3.8,2.35,5.52.67,1.1.3,2.7-.77,3.4-.63.41-1.42.52-2.14.75-.91.3-2.04.46-2.59,1.24-1.06,1.51-1.33,3.45-1.33,5.29s.29,3.54.05,5.37c.81,1.2,1.29,2.63,1.38,4.08.02.36.01.74-.19,1.04-.16.23-.41.37-.66.5-2.9,1.51-6.17,2.33-8.83,4.23-.56.4-1.1.86-1.41,1.47-.5,1-.22,2.17-.48,3.22-.15.63-.21,1.3-.18,1.94.02.38.37,1.31.26,1.62-1.14,3.35-2.36,6.83-4.89,9.3-2.36,2.3-5.59,3.45-8.77,4.32-2.32.63-4.68,1.16-7.08,1.23-3.75.12-7.44-.84-11.07-1.79-2.78-.73-5.75-1.42-8.53-2.15-8.11,7.57-13.01,18.59-12.16,29.65-1.28,2.55-2.56,5.1-3.84,7.65-.88,1.75-1.77,3.53-2.2,5.45-.4,1.79-.39,3.65-.32,5.48.13,3.16.47,6.67.9,9.8.7,5.09,4.17,10.98,1.44,15.34-3.11,4.99-8.34,11.79-8.07,17.88.32,7.17-.22,14.36-2.12,21.3-2.45,8.93-4.89,17.86-7.34,26.79-.71,2.59-1.42,5.19-2.5,7.65-1.39,3.16-2.44,6.28-3.4,9.59-1.46,5.03-5.47,8.92-9.76,11.92-1.65,1.15-3.39,2.22-5.31,2.85-2.74.89-5.69.83-8.58.72-3.5-.13-6.99-.3-10.48-.48-2.56-.13-5.13-.26-7.69-.49-6.32-.58-12.39-2.92-18.73-3.41-5.15-.4-9.46-3.91-13.38-7.27-1.04-.89-2.38-1.62-3.31-2.62-1.75-1.9-3.4-3.9-4.91-5.99-.28-.39-.57-.8-.68-1.28-.14-.63.06-1.28.25-1.9.8-2.59,1.46-5.24,1.6-7.94.26-5.23-1.45-10.42-1.08-15.64.33-4.72-2.11-9.06-2.05-13.79.07-5.03,1.99-8.76,5.62-12.07,3.79-3.45,8.42-6.9,11.75-10.76,2.86-3.32,4.54-8.56,5.06-12.87.5-4.12-.67-6.55.94-10.38Z"/>
      <path class="cls-18" d="M1692.73,816.51c1.89,4.49,6.08,7.62,10.48,9.72,4.4,2.09,9.15,3.36,13.58,5.41s7.44,5.79,10.54,9.54c6.51,7.88,16.41,11.98,25.89,15.79,4.62,1.86,9.4,3.75,14.38,3.67.55,0,1.13-.05,1.6-.35.69-.45.94-1.33,1.1-2.13.72-3.44.86-6.99.85-10.5-.02-8.22-.03-16.43-.05-24.65-.01-6.19-.05-12.53-2.13-18.36-2.08-5.83-5.73-10.51-11.66-12.29-4.66-1.4-9.31-2.8-13.97-4.19-1.4-.42-2.83-.85-4.03-1.69-1.99-1.39-3.1-3.7-4.11-5.9-1.3-2.8-2.62-5.75-2.45-8.83.3-5.46,4.78-9.39,6.85-14.46,1.14-2.8,2-5.76,1.96-8.78-.04-2.34-.62-4.64-1.09-6.93-1.66-8.09-1.08-16.32-2.2-24.5-2.13-15.61-1.15-30.13-1.78-45.87-.36-8.97-.66-18.32,3.01-26.52.88-1.97,1.98-3.83,2.91-5.78.93,3.5,1.86,7.01,2.79,10.51.4,1.49.79,2.99,1.44,4.39.68,1.47,1.56,2.14,1.64,3.75.09.12.12.28.15.43.8,4.55,1.82,9.18,1.48,13.79-.31,4.16-.61,8.37.09,12.48.23,1.33.69,2.48.73,3.83.15,4.88.33,9.9,2.33,14.35.38.84.52,1.68.89,2.52,1.21,2.77,2.42,5.55,3.81,8.24,1.02,1.98,1.84,3.81,1.87,6.05.03,1.96.37,3.91,1.01,5.77,1.07,3.11,2.72,5.33,5.83,6.41.64,1.22,2.04,1.82,3.36,2.23s2.74.77,3.69,1.78c.78.82.88,2.04.96,3.17.28,3.7.58,7.46,2,10.89.69,1.68,1.67,3.29,1.37,5.08,2.93,4.77,5.87,9.54,8.8,14.31.56.92.6,1.93,1.01,2.93.76,1.86,1.12,3.86,1.43,5.84.54,3.54.89,7.11,1.06,10.69.15,3.09.25,6.33,1.28,9.29,2.01,5.75,4.28,11.4,6.78,16.95.93,2.07,1.26,4.05,1.61,6.29.94,5.93,4.16,10.49,5.13,16.41.82,5.02,1.64,10.05,1.91,15.13.14,2.53.11,5.06-.07,7.59-.16,2.29.15,4.33-.91,6.5-.47.95-1.09,1.83-1.46,2.82-.54,1.48-.46,3.1-.37,4.66.07,1.31-.38,1.31-.11,2.6.63,3.01,1.19,6.4-.54,8.94-.49.73-1.15,1.33-1.67,2.03-2.35,3.15-1.65,7.68.11,11.19,1.78,3.55,4.17,7.59,6.96,10.35,3.08,3.05,5.9,6.81,7.62,10.81,1.09,2.53,1.72,5.22,2.74,7.78,1.82,4.54,4.03,7.65,7.98,10.54,8.15,5.96,17.05,11.05,26.59,14.38,4.27,1.49,8.76,2.11,13.19,2.92s8.63,1.94,13.04,2.38c1.27.13,2.68.37,3.95.17,1.01-.16,1.54-.22,2.57.08,2.59.75,5.2,1.44,7.85,1.97,2.37.47,5.25,1.29,7.68,1.12,2.95-.2,5.89-.41,8.84-.61,2.23-.15,4.49-.31,6.6-1.03,1.93-.65,4.26-1.65,6.18-.99v122.58l-145.83,3.19c-.72.1,4.85-9.49,6.94-13.64.53-1.06,1.05-2.14,1.34-3.29.28-1.1.34-2.25.66-3.35.49-1.68,1.56-3.12,2.6-4.52,5.21-6.99,11.26-15.27,16.12-22.5,6.8-10.12,11-20.57,10.05-33.02-.18-2.42-.33-2.82-2.71-3.39-4.56-1.08-9.21-1.61-13.75-2.87-8.68-2.42-17.11-6.31-23.49-12.81-9.46-9.64-23.36-12.02-36.83-13.04-9.94-.75-19.48-4.13-28.87-7.48-5.59-1.99-11.2-3.99-16.42-6.79-5.23-2.8-12.45-5.49-13.41-11.34-.59-3.61-.8-7.27-.62-10.92.05-1.04.13-2.1-.07-3.12-.25-1.25-.91-2.37-1.63-3.42-2.42-3.51-5.65-6.45-9.36-8.53-7.69-4.3-17.1-4.81-24.64-9.36-3.8-2.29-7.84-3.82-11.65-6.13-4.06-2.46-7.91-5.27-11.49-8.39-5.95-5.2-12.93-8.74-20.27-11.7-2.28-.92-4.56-1.84-6.87-2.66-6.89-2.45-14.11-4.07-20.59-7.45-2.72-1.41-4-1.2-6.55-2.9-1.91-1.27-3.82-2.54-5.72-3.82-.27-.18-.54-.36-.7-.64-.21-.36-.21-.8-.19-1.21.39-7.27,6.06-13.05,6.32-20.33.07-1.99.46-3.97,1.15-5.83.23-.63.52-1.28,1.02-1.72.59-.52,1.39-.7,2.14-.9,4.9-1.3,9.21-4.13,13.18-7.19,3.69-2.84,7.29-5.03,9.98-8.92,4.38-6.34,8.52-12.86,12.71-19.33,3.46-5.35,5.35-11.9,10.18-16.05,3.75-3.22,8.76-4.51,13.62-5.4,6.51-1.2,13.11-1.87,19.69-2.54,1.41,6.56,7.05,12.17,12.55,16.01s11.71,6.52,17.46,9.99c5.75,3.46,10.51,6.45,13.11,12.63Z"/>
      <path class="cls-1" d="M1189.41,340.59c-2.98,3.61-5.98,7.24-9.53,10.3-4.54,3.89-9.88,6.76-14.39,10.68s-8.29,9.37-8.06,15.35c.33,8.58-1.25,17.1-1.81,25.67-.04.56-.1,1.18-.5,1.57-.43.42-1.1.44-1.7.49-3.98.3-7.68,2.96-9.24,6.63-3.78,8.91,2.68,17.44,6.11,25.17,3.85,8.67,4.29,18.81,1.22,27.79-1.14,3.31-1.8,7.09-3.33,10.24-7.8,16.02-13.7,32.96-17.54,50.35-2.31,10.46-7.8,19.92-10.29,30.33-3.06,12.77-9.88,25.73-12.14,38.66-.94,5.35-1.01,10.94-3.12,15.94-1.03,2.44-1.3,5.6-2.09,8.12-3.8,12.2-7.12,24.54-9.95,37-1.36,5.99-2.39,11.85-3.14,17.9s-2.88,11.69-2.58,17.71c.04.71.1,1.42.21,2.12.43,2.78-.93,5.06-.97,7.88-.01.98.01,1.96.04,2.94.11,4.27.09,8.54.14,12.81.03,2.11.2,4.22-.06,6.3s-.47,4.29-.4,6.44c.08,2.38.44,4.63.35,6.99-.1,2.54.07,5.09.32,7.62.51,5.09,1.42,10.14,1.63,15.25.15,3.51-.03,7.11,1.06,10.45.71,2.18,1.49,4.33,2.36,6.44s.96,4.03,2.05,5.98c2.44,4.38,5.34,8.54,8.96,12,2.74,2.61,5.91,4.83,9.41,6.3,1.6.67,2.94.9,4.45,1.85,1.72,1.08,3.42,2.2,5.1,3.36,6.7,4.62,13.01,9.81,18.84,15.49.99.97,1.97,1.95,2.93,2.94,2.54,2.63,5.39,4.72,8.03,7.25,1.07,1.03,2.34,2.12,3.82,1.99,1.6-.14,2.69-1.65,3.48-3.05,1.2-2.13,2.23-4.35,3.09-6.64.52-1.39.22-3.03.52-4.51.76-3.67,1.52-7.34,1.99-11.06.63-5-.07-10.03-.62-15.04-.41-3.66.01-7.43.1-11.11.04-1.86.94-3.58,2.03-5.07,1.33-1.82,2.69-3.66,4.45-5.07.9-.72,1.91-1.33,2.67-2.2.76-.86,1.25-1.96,1.38-3.1.11-.92.17-1.95.44-2.84.79-2.63,1.07-5.42.8-8.16s-.32-5.27-.95-7.83c-.25-1.04-.51-2.07-.76-3.11-.56-2.28-.72-4.75-1.5-6.97-1.24-3.52-2.15-7.16-2.71-10.85-.55-3.6-.11-7.28.14-10.92.16-2.39,1.29-4.1,1.85-6.43.54-2.26-.09-4.32,0-6.55.08-2.28-.11-4.34-.54-6.61-.64-3.4-1.29-6.8-1.93-10.2-.36-1.88-.32-3.79-.28-5.69.03-1.76-.27-3.59-.19-5.31.15-3.39,2.81-6.84,5.05-9.17,2.62-2.73,5.73-4.95,8.53-7.49,1.36-1.23,2.97-2.57,4.18-3.95.7-.79,1.22-1.73,1.67-2.68,3.19-6.62,3.58-14.2,3.9-21.54.09-2.13.21-4.12.54-6.22.33-2.04.66-4.1,1.42-6.03s1.97-3.73,3.72-4.83c.38-.24.8-.45,1.25-.51.46-.07.92.02,1.36.15,2.04.61,3.76,2.2,4.51,4.19.34.9.49,1.85.79,2.76.69,2.08,2.5-2.27,2.81-2.92,3.53-7.28,2.38-15.54,2.83-23.43.26-4.51.52-9.06-.18-13.52-.23-1.5-.39-3.01-.71-4.5-.64-2.96-2.14-5.67-3.16-8.5-.76-2.12-1.35-4.31-1.73-6.52-.36-2.08-.25-4-.79-6.05-1.25-4.72-2.23-9.52-2.93-14.35-.4-2.71-1.05-4.57-1.67-7.24-.89-3.84-.95-7.87-.18-11.74.19-.93.19-1.88.42-2.79.37-1.45.9-2.95,1.19-4.4s.13-3.11.14-4.62c0-1.85.08-3.61-.27-5.42-.38-1.94-1.24-3.75-1.73-5.66-.42-1.66-.57-3.39-1.04-5.03-.73-2.53-2.19-4.78-3.63-6.99,0-.68-.32-1.71-.66-2.29-1.05-1.76-3.65-4.64-2.99-6.46s4.4-3.48,6.03-4.11c.86-.33,1.74-.59,2.55-1.02,6.05-3.26,14.27-1.7,21.12-1.1,4.82.42,9.66,1.42,14.46.81,7.7-.98,14.13-4.79,20.81-8.75,2.04-1.21,4.02-2.55,5.71-4.23,2.87-2.86,5.77-5.22,8.24-8.54,3.57-4.79,6.98-9.7,10.24-14.71,2.74-4.21,4.5-8.4,7.03-12.74,1.15-1.98,2.31-3.97,3.78-5.73,4.28-5.15,10.73-7.89,16.99-10.25,3.5-1.32,7.06-3.18,10.44-4.78,1.12-.53,2.25-1.07,3.18-1.89.93-.82,1.6-1.89,2.41-2.82,1.24-1.43,3.48-3.41,5.46-3.61,2.27-.23,5.43.92,7.71,1.29,4.17.69,8.47.5,12.57,1.65,1.93.54,3.68,1.82,5.65,2.39,2.52.73,5.11,1.4,7.73,1.29,1.69-.07,3.72-.83,3.94-2.51.06-.46-.03-.92-.14-1.37-.47-1.92-1.29-3.76-2.4-5.39-1.05-1.54-2.36-2.88-3.66-4.22-2.02-2.08-4.04-4.15-6.06-6.23-.7-.72-.95-1.79-1.77-2.39-2.46-1.8-4.76-3.83-6.84-6.07-.35-.37-.81-.67-1.14-1.05-4.42-5.06-9.87-9.23-15.91-12.18s-12.65-5.45-18.43-8.91c-5.18-3.1-11.57-2.79-16.42-6.38-1.61-1.19-3.11-2.5-4.68-3.73-5.91-4.63-12.75-8.06-19.99-10.03-8.48-2.31-16.84-4.29-25.62-3.91-4.42.19-8.77,1.07-13.1,1.94-9.24,1.87-18.5,3.74-27.61,6.16-1.58-.29-3.27.74-4.7,1.46-3.43,1.73-7.44,2.42-9.88,5.38Z"/>
      <path class="cls-1" d="M1249.65,733.6c2.33-5.41,4.66-10.81,7-16.22.3-.69.37-1.64.61-2.35,2.82-8.3,5.54-16.64,8.15-25.02.67-2.13.48-3.86,1.18-5.99,2.17-6.59,4.37-13.38,3.96-20.3-.1-1.72-.36-3.42-.4-5.14-.07-4.03,1.63-8.68,3.54-12.23.63-1.17,1.34-2.31,2.11-3.4.62-.87,1.29-1.72,1.62-2.73.33-1,.3-2.07.27-3.13-.06-1.85.12-4.25-.27-6.06-1.49-6.91-3.79-15.42-1.09-21.95.85-2.06,1.7-4.11,2.55-6.17.96-2.32,1.92-4.65,2.5-7.1,1.16-4.88.79-10.14,2.84-14.72.99-2.21,2.48-4.11,3.79-6.13.67-1.04,1.14-2.23,1.81-3.25.39-.59-.02-.75.8-.82.42-.04,1.12.51,1.47.71,7.62,4.42,15.98,7.55,24.63,9.22,1.42.27,2.88.51,4.3.27.31.4.39.92.52,1.41,1.6,5.92,3.28,11.82,4.95,17.72.17.59.18,1.11.4,1.68,1.82,4.76,3.65,9.53,5.47,14.29.76,1.99.73,3.82,1.42,5.83,2.62,7.72.62,16.03.06,24.16-.6,8.73-1.5,18.7-4.44,26.99-1.4,3.94-3.98,7.33-5.16,11.46-1.13,3.95-1.59,8.12-.95,12.19.95,6.02,1.64,12.08,2.06,18.16.15,2.22.66,4.64.31,6.84-1.27,8.08-2.56,16.24-5.62,23.83-.8,1.99-1.07,4.1-1.95,6.06-2.47,5.52-6.38,10.62-11.78,13.35-1.99,1.01-4.14,1.67-6.27,2.32-5.08,1.56-9.73,5.03-15.02,4.52-8.33-.8-16.54-.53-24.79.85-1.23,10.15-1.77,20.38-1.62,30.61-5.54-7.68-9.04-16.26-12.89-24.91-4-8.98-4.42-19.49-1.16-28.76,1.03-2.93,2.43-5.82,2.46-8.93,4.3,2.4,7.87,6.35,10.88,10.25.9,1.16,1.52,2.5,2.15,3.82.7,1.47.33,2.53.8,3.98.32.99,1.13,1.77,2.04,2.28,1.89,1.05,4.95,1.53,7.07,1.87,3.9.63,7.88-.17,11.74-1.01,2.34-.51,4.71-1.05,6.87-2.08,1.77-.84,3.37-2,4.93-3.18,1.58-1.2,3.14-2.43,4.54-3.84,4.98-5.02,7.57-11.86,10.03-18.48,1.25-3.37,2.78-6.55,3.65-10.04,1.03-4.13,1.3-8.55.07-12.63-1.15-3.81-2.17-7.53-3.37-11.32.05,1.92-1.05,3.66-2.11,5.26-2.81,4.25-5.68,8.57-9.65,11.76-2.92,2.35-6.34,4-9.87,5.28-2,.73-4.1,1.36-5.79,2.65-1.57,1.2-2.58,2.99-2.64,4.98-.07,2.54-.59,4.3-1.9,6.52-2.14,3.63-4.46,7.44-8.18,9.43-3.07,1.64-4.75,5.28-6.68,8.18-.56.84-1.26,1.78-2.27,1.78-.61,0-1.15-.37-1.64-.72-3.67-2.61-7.41-5.36-9.75-9.2-.44-.73-.84-1.5-1.02-2.34-.39-1.82.29-3.69,1.07-5.38s.95-3.28,1.69-4.99Z"/>
      <path class="cls-17" d="M1575.44,381.63c-1.68.62-2.81,2.15-3.98,3.5-1.36,1.56-2.89,2.97-4.41,4.37-2.58,2.37-5.17,4.75-8.13,6.63-2.95,1.88-6.32,3.25-9.82,3.38-1.49.06-3.08-.09-4.36.68-.91.54-1.51,1.47-2.32,2.16-.73.61-1.62,1.03-2.28,1.72-1.45,1.51-1.4,3.87-1.27,5.96.28,4.24.36,8.28.43,12.53.03,2.06.06,4.13.36,6.18.26,1.76.72,3.5,1.36,5.16.39,1.01.86,2.01,1.59,2.81s1.73,1.4,2.82,1.42c1.89.04,3.37-1.58,5.14-2.26,1.13-.43,2.36-.48,3.57-.52,1.06-.03,2.14-.07,3.15.23.94.28,1.77.82,2.58,1.38,1.96,1.37,3.82,2.89,5.56,4.53,2.24,2.12,4.39,4.12,7.35,5.01,1.33.4,2.73.5,4.09.74,3.43.61,6.62,2.14,9.77,3.66.38.18.76.37,1.05.67.34.35.53.82.66,1.29.74,2.66-.06,5.47-.73,8.15-.65,2.62-1.17,5.27-1.55,7.95-.32,2.24.38,4.62,1.36,6.66s2.53,3.87,4.58,4.85c1.3.62,2.74.88,4.17,1.01,4.37.41,8.85-.28,13.13.7,2.44.56,4.74,1.67,6.71,3.21,2.84,2.24,4.48,5.6,6.27,8.74.75,1.32,1.51,2.64,2.26,3.97.47.82.95,1.65,1.63,2.31,1.21,1.17,2.95,1.65,4.63,1.79,1.76.14,3.37-.4,5.07-.41s2.74-.14,4.3-.87c3.55-1.66,7.09-3.32,10.64-4.98,1.65-.77,3.48-1.56,5.23-1.06.68.2,1.3.58,1.99.74,1.65.38,2.07-.8,2.1-2.17s.48-2.35,1.12-3.61c1.41-2.76,3.17-5.34,5.23-7.66.93-1.04,1.95-2.06,3.25-2.57,1.07-.42,2.24-.47,3.39-.51,1.48-.05,2.96-.1,4.44-.16,2.18-.08,4.04-.1,5.92,1,2.07,1.22,4.08,2.41,6.03,3.83,1.67,1.22,3.39,2.27,4.75,3.84,1.45,1.68,2.87,3.39,4.07,5.26,3.31,5.14,3.27,10.93,3.44,16.86.05,1.72,1.36,3.18,2.67,4.29.58.49,1.2.91,1.83,1.33,2.34,1.57,4.83,2.84,7.19,4.36s4.58,3.53,6.71,5.47c3.1,2.83,6.1,5.59,8.16,9.32.9,1.62,1.21,3.49,1.51,5.32.11.67.19,1.36.06,2.02-.25,1.29-1.21,2.3-1.87,3.43-.9,1.55-1.23,3.42-.93,5.18,2.12.1,4.09-.98,5.94-2.02,2.19-1.24,4.41-2.51,6.13-4.34.94-1.01,1.71-2.17,2.48-3.32.63-.95,1.59-1.64,2.39-2.46,3.23-3.28,5.75-7.19,8.94-10.49,3.2-3.3,7.37-6.07,11.96-6.08,4.22-.01,8.35,1.3,12.56,1.58,2.98.2,6,.4,8.93-.18,1.25-.25,2.49-.65,3.5-1.41,2.2-1.67,2.85-4.65,3.34-7.37.32-1.79.8-3.91.78-5.73-.02-1.6-.48-2.59.51-4.13.61-.94,1.41-1.73,2.02-2.66,2.63-3.97,1.07-9.44-.13-13.67-1.38-4.83-3.57-9.43-6.49-13.52-2.29-3.21-5.05-6.17-6.53-9.83-.5-1.24-.71-2.89-1.33-4.08-3.08-5.93-5.87-12.01-8.36-18.21-1.81-4.53-3.15-8.42-5.68-12.59-1.04-1.72-2.16-3.4-3.09-5.18-1.49-2.85-2.48-5.95-4.06-8.75-.59-1.05-1.06-2.13-1.87-3.03-5.11-5.64-7.8-13.05-12.33-19.17-.8-1.07-1.38-2.36-2.27-3.36-2.37-2.69-4.26-5.75-6.33-8.66-8.65-12.15-20.92-21.95-35.14-26.43-6.46-2.03-13.07-4.78-19.52-6.84s-13.18-3.58-19.94-3.24c-1.37.07-2.05.63-3.39.93-3.22.71-6.43,1.42-9.65,2.13-5.65,1.25-11.32,2.5-16.83,4.29-6.16,2-12.17,4.61-18,7.42-9.48,4.58-18.97,9.15-28.36,13.91-2.83,1.43-5.66,2.89-8.48,4.35-.55.29-1.12.59-1.48,1.1-.28.39-.4.89-.34,1.37-.75.28-.8.59-1.55.87Z"/>
      <path class="cls-7" d="M1132.74,511.14c-13.62-6-21.02-20.71-32.58-30.08-7.85-6.37-16.1-12.23-24.44-17.94-8.24-5.65-15.82-11.29-23.43-17.66-15.79-13.21-32.49-25.34-49.94-36.26-28.12-17.59-57.4-33.19-87.82-46.43-16.4-7.14-33.34-13.3-50.57-18.14-11.29-3.17-4.79,4.89-.02,8.99,6.91,5.94,13.71,12.02,20.1,18.52,9.32,9.47,18.91,20.43,32.05,22.35,25.38,3.69,45.37,24,67.55,36.87,15.01,8.71,30.82,15.64,44.58,26.22"/>
      <path class="cls-7" d="M1151.61,405.28c-1.29.32-2.66.54-3.88,1.36-2.58,1.72-4.22,4.94-4.61,7.96-.59,4.52,1.03,9.05,3.13,13.09,2.11,4.04,4.74,7.82,6.45,12.05,4.58,11.35-2.7,28.59-6.25,39.75-3.06,9.6-6.74,19-11.02,28.12-3.92,8.36-5.53,16.33-8.13,25.16-.61,2.09-1.46,4.23-2.3,6.25-5.35,12.93-7.38,27.75-13.2,40.13-4.75,10.11-3.54,21.57-6.75,32.02-3.86,12.56-8.85,24.56-11.96,37.4-6.04,24.9-8.6,50.65-7.52,76.25.81,19.2-.17,39.49,7.79,56.97,1.93,4.24,4.25,8.43,7.77,11.49,3.81,3.32,8.7,5.04,13.23,7.28,14.41,7.1,25.38,19.45,36.74,30.81.91.91,1.9,1.86,3.15,2.17,3.09.76,5.55-2.57,6.8-5.49,4.49-10.48,6.05-22.21,4.45-33.5-.73-5.19-2.07-10.72.13-15.48,1.63-3.52,4.94-5.95,7.22-9.09,5.73-7.92,4.09-18.86,1.47-28.28-2.62-9.42-5.97-19.43-2.91-28.72,3.25-9.85-1.25-20.94-1.26-31.31,0-3.68.01-7.47,1.4-10.89,3.25-8,12.9-11.56,17.26-19.01,2.52-4.32,3-9.49,3.43-14.47.54-6.33.55-12.78,2.78-18.73,1.05-2.8,3.23-5.99,6.17-5.46,2.88.51,3.87,4.08,4.25,6.98.96.79,2.51.32,3.29-.65s.99-2.26,1.18-3.49c.76-4.94,1.51-9.88,2.27-14.82,4.31-28.17-14.84-55.82-10.5-83.98,1.63-10.59.67-20.83-4.51-30.2-1.42-2.56-3.23-4.88-4.78-7.37-.38-.61-.75-1.34-.48-2,.15-.38.49-.65.81-.9,5.9-4.45,13.55-6.5,20.88-5.6,6.23.77,12.54.36,18.82.21s12.76-1.13,18.05-4.52c8.58-5.5,14.1-7.47,20.25-15.6,6.14-8.13,10.71-17.34,16.39-25.8,1.74-2.59,2.8-5.48,4.92-7.77,3.96-4.29,9.28-7.06,14.61-9.45,2.81-1.26,5.65-2.44,8.52-3.53,3.76-1.43,7.66-2.97,9.67-6.46.48-.83.87-1.73,1.54-2.41,1.5-1.52,3.9-1.57,6.04-1.44,3.49.21,6.96.62,10.41,1.22,6.78,1.18,13.15,4.33,20,5.05,1.51.16,3.16.23,4.42-.62,1.63-1.1,2.03-3.43,1.44-5.3s-1.94-3.4-3.26-4.85c-6.6-7.22-13.5-14.16-20.68-20.8-5.02-4.65-10.41-9.28-16.99-11.15-2.54-.72-5.21-1.02-7.62-2.08-4.42-1.94-7.73-6.3-12.48-7.08-12.45-2.04-20.03-12.65-31.82-17.14s-24.64-6.89-37.09-4.85c-19.54,3.21-40.97,6.23-55.46,19.73-4.08,3.79-7.57,8.32-12.31,11.23-8.33,5.12-14.44,13.65-14.21,23.51.12,5.17.08,10.34-.13,15.5-.08,2.06-.21,4.2-1.21,6.01-.93,1.7-2.31,2.2-3.8,2.58Z"/>
      <path class="cls-7" d="M865.53,354.67c-3.81,5.07-7.82,10.89-6.88,17.16.74,4.93,4.41,8.85,7.98,12.32,7.35,7.15,15.88,11.6,24.04,17.44,9.66,6.92,20.72,14.32,31.83,18.58,8.13,3.12,15.54,7.83,22.89,12.51,18.31,11.66,39.28,19.12,55.46,33.59"/>
      <path class="cls-7" d="M1151.96,438.33c.46,2.96,2.17,5.6,4.29,7.72s4.65,3.77,7.13,5.44c11.78,7.92,23.43,17,29.97,29.59"/>
      <path class="cls-7" d="M891.4,402.89c-1.03-.64-2.13-1.3-3.34-1.28s-2.48,1.04-2.29,2.23c.1.63.56,1.13,1.01,1.58,12.97,13.17,32.37,19.69,42.48,35.17,1.69,2.58,3.07,5.37,4.97,7.8,4.04,5.17,10.05,8.33,15.88,11.34,5.39,2.78,11.91,5.1,17.17,8.13,5.7,3.28,11.42,6.58,17.55,8.97,6.8,2.65,13.99,4.13,20.96,6.3,12.49,3.89,24.17,9.97,35.71,16.14,18.44,9.85,37.73,21,47.39,39.54"/>
      <path class="cls-7" d="M1359.51,399.98c-3.12,5.4-2.84,12.2-.96,18.15s5.21,11.31,8.06,16.86c.63,1.23,1.26,2.55,1.12,3.92-.13,1.27-.9,2.39-1.73,3.36-5.24,6.16-12.13,9.75-15.06,17.75-2.56,6.98-1.64,15.32,2.86,21.32,2.9,3.86,6.99,6.7,9.83,10.6s4.13,9.71.98,13.36c-1.32,1.53-3.21,2.43-5.11,3.13-3.12,1.14-7.5-.11-10.1,1.35-2.13,1.19-2.39,4.26-1.55,6.55s2.48,4.24,3.32,6.53c.27.73.39,1.7-.23,2.16-.35.26-.82.27-1.25.31-3.65.32-6.6,4.1-6.04,7.71.52,3.38,3.56,6.65,2.13,9.75-1.1,2.38-4.14,2.94-6.68,3.59-2.54.65-5.46,2.5-5,5.08.99,5.57-.2,8.69-3.66,13.17-2.82,3.64-7.3,5.71-11.83,6.52-13.33,2.39-23.35-3.19-34.42-9.6-18.01-10.42-34.53-25.67-45.78-43.2"/>
      <path class="cls-7" d="M937.31,451.66c-2.25-1.09-4.63-1.94-7.06-2.53-1.42-.35-2.94-.6-4.33-.15s-2.59,1.82-2.37,3.27c.17,1.12,1.09,1.96,1.95,2.7,4.12,3.55,8.24,7.09,12.36,10.64,5.97,5.14,12.24,10.73,14.31,18.33.41,1.51.66,3.12,1.54,4.42,3.23,4.78,13.34,4.49,18.33,5.68,8.03,1.93,15.79,4.81,23.52,7.68,8.97,3.33,17.95,6.67,26.92,10,4.94,1.83,9.89,3.68,14.5,6.22,7.01,3.87,13.18,9.41,17.33,16.25"/>
      <path class="cls-7" d="M1293.38,566.49c-5.1,4.2-8.67,10.21-9.93,16.69-.46,2.37-.62,4.79-1.11,7.16-.94,4.55-3.05,8.76-5.14,12.91-6.09,12.09,2.93,26.79-1.6,39.14-.93,2.53-2.57,4.73-3.7,7.18-2.75,5.91-2.37,12.72-2.84,19.22-.84,11.56-5.06,23.2-8.35,34.24-3.48,11.66-9.07,22.55-13.19,33.98-5.43,15.07-8.04,32.69.09,46.49,4.51,7.66,7.71,16.54,11.45,24.6.67-12.6.98-25.21.93-37.83-.01-3.68-.02-7.54,1.68-10.81-.87-5.19,3.6-9.65,7.57-13.1s8.54-7,9.59-12.16c.35-1.71.28-3.54,1.04-5.11.92-1.91,2.86-3.08,4.69-4.15,4.02-2.32,8.04-4.65,12.05-6.97,6.29-3.64,10.12-10.89,11.94-17.92,1.8,7.34,3.62,14.9,2.6,22.39-.57,4.23-2.04,8.28-3.56,12.27-3.11,8.13-6.83,16.57-13.91,21.63-6.06,4.33-13.81,5.58-21.27,5.67-3.82-.65-7.56-1.4-11.14-2.9"/>
      <path class="cls-7" d="M956.95,491.18c-1.6-1.1-3.4-1.91-5.28-2.37-1.54-.37-3.58-.26-4.15,1.21-.46,1.18.36,2.44,1.19,3.39,3.64,4.2,8.36,7.47,13.58,9.4,2.31.86,4.75,1.47,6.81,2.82,1.53,1,2.79,2.37,4,3.75,3.45,3.94,6.62,8.14,9.47,12.53,2.16,3.33,4.47,4.56,8.04,6.3,3.57,1.73,7.43,2.76,11.27,3.78,4.22,1.12,8.43,2.24,12.65,3.36,11.96,3.17,23.72,6.68,35.07,11.61,12.58,5.47,25.54,11.21,34.81,21.32"/>
      <path class="cls-7" d="M1322.63,580.45c-.11,14.14,8.19,26.86,11.58,40.58,2.04,8.23,2.28,16.9.72,25.23s-.83,16.31-4.25,24.34c-1.81,4.24-4.16,8.28-5.37,12.73-1.45,5.35-1.17,11-.79,16.53.78,11.38,1.91,23.05-1.3,33.99-2.88,9.8-3.19,20.85-10.69,27.79-6.63,6.12-15.84,8.64-24.81,9.55-8.97.91-18.06.41-27.01,1.51"/>
      <path class="cls-7" d="M988.79,527.37c-1.13.84-1.37,2.51-.9,3.84s1.51,2.37,2.6,3.26c1.42,1.16,2.97,2.15,4.62,2.94,3.99,1.92,8.81,2.9,11.34,6.53,1.76,2.52,1.98,5.76,2.83,8.71s2.92,6.06,5.99,6.2c13.34.64,23.78,5.68,34.9,13.08,2.06,1.37,4.07,2.84,6.3,3.9,2.61,1.24,5.46,1.9,8.3,2.5,4.22.88,8.47,1.64,12.73,2.28"/>
      <path class="cls-7" d="M1170.79,719.66c7.23,8.91,17.7,15.13,28.98,17.21,6.88,1.27,13.91,1.04,20.87,1.38,6.43.32,12.85.69,19.07-1.36,4.76-1.56,9.2-4.58,11.66-8.95.65-1.15.41-2.63,1.15-3.72"/>
      <path class="cls-7" d="M1014.02,559.23c-1.72,3.48-.55,7.82,1.82,10.9s5.76,5.17,9.02,7.27c3.26,2.1,6.57,4.38,8.64,7.66,1.24,1.96,1.98,4.19,3.23,6.14,1.81,2.82,4.68,4.94,7.91,5.83,14.1,3.91,27.73,6.03,42.35,5.48"/>
      <path class="cls-7" d="M1106.94,602.9c-8.45,3.94-16.76,8.17-24.93,12.67-.54.3-1.1.61-1.44,1.13-.38.59-.42,1.33-.44,2.03-.11,3.83-.2,7.7.56,11.46.84,4.12,2.68,7.97,4,11.96,3.33,10.09,3.25,20.95,3.13,31.57-.01,1.35.17,2.73.17,4.09"/>
      <path class="cls-7" d="M1290.07,569.31c11.28,8.43,25.89,10.62,39.84,12.55,5.29.73,8.94.28,14.14,1.52,10.31,2.47,20.61,4.94,30.92,7.4,7.03,1.68,10.65,1.9,17.36,4.6,21.39,8.64,41.89,23.43,49.78,45.11,3.88,10.66,11.87,19.68,14.93,30.61,3.36,11.97,4.05,25.81,13.16,34.26,11.57,10.74,22.53,22.23,31.16,35.44,1.23,1.89,2.85,4.03,5.11,3.94,1.88-15.42.59-31.22-3.76-46.13-.63-2.16-1.2-3.89-1.83-6.05-2.26-7.77-4.02-16.05-2.01-23.89,1.78-6.96,9.31-11.34,15.09-15.62,3.05-2.26,6.14-4.55,9.64-6.03,3.94-1.67,8.27-2.27,12.18-3.99,2.25.43,4.48-.91,6.36-2.21s3.46-3.01,5.24-4.45c3.04-2.47,6.66-4.15,10.39-5.34,4.24-1.35,9.04-2.02,13,.02,5.45,2.81,7.31,9.54,11.03,14.41"/>
      <path class="cls-7" d="M1040.57,596.05c-.65-.43-1.54-.44-2.2-.03,5.13,7.79,15.23,12.35,17.53,21.39.5,1.96.89,4.41,2.81,5.04.56.18,1.16.16,1.75.13,7.74-.44,15.34-3.06,21.72-7.48"/>
      <path class="cls-7" d="M1330.69,358.55c2.85-1.47,5-3.96,7.1-6.38,7.76-8.92,16.05-17.75,26.56-23.17,22.09-11.37,38.77-31.14,59.1-45.42,12.92-9.08,24.66-18.07,32.39-32.4.97-1.8,1.91-3.71,3.51-4.99,1.18-.94,2.8-1.48,4.24-1.03,7.49,2.34-5.41,34.96-7.75,40-5.97,12.86-14.02,24.64-22.27,36.18-7.86,10.99-17.03,22.58-30.18,25.66"/>
      <path class="cls-7" d="M1371.22,589.64c-1.16,14.51,4.52,28.56,8.52,42.56,4.27,14.93,6.71,30.38,7.23,45.89,1.39,40.84-.4,80.31-4.81,120.94-2.67,24.63-4.63,49.2-2.41,73.88,2.28,25.36,10,47.38,21.02,69.69,4.78,9.67,7.67,20.14,11.38,30.26,14.05,38.31,40.13,72.55,46.14,112.92"/>
      <path class="cls-7" d="M1464.02,263.89c-1.47,2.74.04,6.09,1.78,8.67s3.84,5.31,3.53,8.4c-.26,2.56-2.11,4.62-3.87,6.5-8.49,9.03-17.16,18.55-20.85,30.38-2.8,9-7.41,17.63-11.45,26.14-.8,1.68-1.63,3.39-2.92,4.73-1.32,1.37-3.05,2.28-4.77,3.11-3.6,1.76-7.3,3.34-11.06,4.74"/>
      <path class="cls-7" d="M1387.13,711.9c2.59.14,5.31.23,7.65-.87,2.73-1.29,4.5-3.98,5.94-6.64,1.81-3.31,3.36-6.77,5.58-9.82s5.25-5.69,8.91-6.56"/>
      <path class="cls-7" d="M1469.49,280.44c.05,3.41,2.21,6.37,3.48,9.54,3.65,9.11-.17,19.26-1.67,28.96-1.23,7.98-1.02,16.67-5.64,23.29-5.85,8.4-15.56,14.86-23.45,21.17-6.57,5.25-13.17,10.53-18.87,16.71-6.4,6.94-11.84,15.15-20.09,19.72"/>
      <path class="cls-7" d="M1114.31,800.24c3.91,32.3,16.66,63.2,18.76,95.66.82,12.63,1.56,23.44,2.58,36.05.33,4.08.65,8.24-.31,12.22-.97,4.06-3.21,7.67-5.31,11.27-15.31,26.19-25.23,55.52-28.96,85.62-.39,3.1-1.83,7.15-2.81,10.12-3.39,10.23-5.6,20.84-6.57,31.57"/>
      <path class="cls-7" d="M1466.79,338.41c3.48,8.4,4.46,17.83,2.77,26.77-1.35,7.16-4.37,14.14-3.96,21.41.13,2.21.56,4.51-.22,6.59-.75,1.99-2.49,3.41-4.15,4.74-11.53,9.17-23.06,18.35-34.59,27.52-2.68.18-4.29,2.52-6.4,4.18-7.79,6.14-14.95,13.09-21.32,20.69"/>
      <path class="cls-7" d="M1118.81,974.48c-11.94-16.72-25.89-31.9-38.26-48.3-12.37-16.4-23.31-34.39-28.03-54.38-10.93-46.3-22.95-93.56-25.65-141.06-.93-16.28-.54-29.8-.05-46.1s4.04-33.36,14.89-45.53c3.85-4.32,8.48-7.84,13.31-10.99,2.48-1.62,5.01-3.14,7.57-4.64,2.4-1.4,5.32-1.37,7.86-2.64"/>
      <path class="cls-7" d="M1464.41,393.31c4.75,17.35,4.02,36.16-2.05,53.1-2.13,5.94-4.93,11.78-5.46,18.07-.34,4.1.22,8.56-2.02,12.01-1.18,1.82-3,3.11-4.78,4.34-8.28,5.7-16.79,11.06-25.49,16.09-7.6,4.39-15.73,4.97-22.96,10-6,4.17-11.57,8.96-16.59,14.27"/>
      <path class="cls-7" d="M1397.97,708.37c1.38,5.63,2.79,11.27,4.93,16.66,1.83,4.59,4.17,8.96,6.52,13.31,8.11,15.07,16.22,30.15,24.33,45.22,11.55,21.47,26.82,40.92,42.72,59.4,15.44,17.95,37.98,30.48,61.63,31.6,4.71.22,9.64-.02,13.8-2.25,7.89-4.23,10.62-14.02,12.59-22.75,3.25-14.44,6.23-29.1,5.36-43.87-.46-7.75-1.39-16.3,3.22-22.55,3.82-5.18.83-12.67-3.38-17.54s-9.93-8.11-15.17-11.85-10.29-8.42-12.03-14.61c-1.22-4.36-.67-9-.1-13.49.91-7.25-.94-14.53-6-19.8"/>
      <path class="cls-7" d="M1457.16,471.37c-1.56,4.72-1.5,9.79-1.43,14.76.19,13,.38,26,.57,39,0,.35-.01.75-.28.98-.23.2-.56.2-.86.17-2.94-.25-5.48-2.05-8.24-3.09-10.29-3.91-21.12,4.18-30.27,7.85-7.19,2.88-14.9,4.01-22.29,6.2-1.74.52-3.74.97-5.34,1.83-1.41.75-2.58,2.19-3.83,3.22-2.7,2.24-5.74,4.24-9.24,4.93"/>
      <path class="cls-7" d="M1575.72,635.1c-.65-1.63.87-3.48,2.6-3.77s3.44.53,4.92,1.48c7.65,4.96,11.85,13.7,15.2,22.18,3.47,8.8,6.42,17.81,8.83,26.96,2.33,8.87,6.68,17,9.54,25.72.8,2.44,1.29,5.44-.47,7.31-1.64,1.74-4.59,1.58-6.62.32s-3.4-3.33-4.78-5.29c-5.95-8.42-13.31-15.74-20.62-23-3.27-3.24-6.69-6.59-11.03-8.12-10.21-3.61-13.18-17.07-17.66-26.93"/>
      <path class="cls-7" d="M1448.08,523.67c.29,5.38.57,10.83-.54,16.1s-3.79,10.43-8.29,13.38c-4.28,2.81-9.62,3.33-14.71,3.94-5.85.7-11.67,1.63-17.45,2.79-2.95.59-5.89,1.24-8.81,1.95-2.64.64-5.53.97-7.97,2.16-2.71,1.32-5.28,2.77-8.03,4.04"/>
      <path class="cls-7" d="M1507.26,683.54c-.78,2.44.38,5.15,2.16,6.98,1.79,1.83,4.12,3.01,6.32,4.32s4.38,2.88,5.54,5.17c1.1,2.16,1.19,4.79,2.62,6.74,2.45,3.34,7.98,2.98,10.98.12s3.89-7.31,3.81-11.45c-.05-2.82-2.21-4.9-4.55-6.47s-4.94-3.04-6.28-5.52c-.45-.83-.74-1.77-.61-2.7.11-.86.57-1.64,1.15-2.29,1.58-1.75,4.05-2.53,6.41-2.39s4.6,1.1,6.59,2.36c3.39,2.16,6.19,5.24,8.02,8.82,1.76,3.46,2.96,7.73,6.48,9.34,1.5.69,3.39.72,4.71-.27.75-.03,1-1.07,1.2-1.79.47-1.73.69-3.52.65-5.31-.03-1.64-.27-3.34.35-4.86.76-1.89,2.74-3.08,4.75-3.4s4.06.07,6.04.57c1.42.36,3,.75,4.29.06"/>
      <path class="cls-7" d="M1443.67,548.05c-1.7,2.21-2.14,5.17-1.95,7.95s.92,5.5,1.35,8.25c1.04,6.69.19,13.66-2.41,19.9-.65,1.55-1.43,3.1-2.71,4.19-3.06,2.62-8.69,2.33-12.47,2.34-5.54.02-11.08-.24-16.59-.77"/>
      <path class="cls-7" d="M1562.54,692.24c-1.49,3.17-1.28,6.96.03,10.2,1.31,3.25,3.62,6,6.21,8.35,2.9,2.63,6.18,4.84,9.72,6.52,4.16,1.97,8.62,3.21,12.92,4.84s8.56,3.71,11.75,7.03c3.19,3.32,5.17,8.07,4.23,12.57"/>
      <path class="cls-7" d="M1426.25,615.77c-.43-2.28.4-4.64,1.63-6.6,1.23-1.97,2.86-3.65,4.27-5.5,1.49-1.97,2.74-4.13,3.68-6.41.92-2.21,1.47-5.01-.13-6.79"/>
      <path class="cls-7" d="M1506.74,741.59c-.29,6.09-.58,12.19-.87,18.28-.13,2.7-.26,5.42-.91,8.05-.84,3.39-2.53,6.5-3.74,9.78-1.75,4.75-2.47,9.81-3.18,14.82-.84,5.9-.48,12.72.81,18.53,1.41,6.32,4.1,12.66,3,19.05"/>
      <path class="cls-7" d="M1574.41,775.53c3.71,11.71,12.25,21.81,23.18,27.43,2.29,1.17,5.05,2.16,7.35,1,1.82-.91,2.79-2.9,3.58-4.77,2.46-5.79,6.12-11.1,11.12-14.92,1.57-1.2,3.24-2.27,5.08-2.99,1.95-.77,4.04-1.12,6.11-1.47,3.33-.56,6.66-1.13,10-1.69,3.12-.53,6.7-.21,8.79-2.58,1.29-1.45,1.8-3.46,1.8-5.4,0-1.94-.47-3.85-.94-5.73-.51-2.04-1.01-4.09-1.52-6.13s.37-1.92-.31-3.85c-4.63-13.16-13.3-24.88-24.53-33.15-1.71-1.26-3.49-2.45-4.87-4.05-2.25-2.6-1.52-3.93-1.46-6.98"/>
      <path class="cls-7" d="M1558.11,866.3c7.19,5.66,15.43,9.97,24.17,12.67,11.63,3.59,23.51,7.22,33.4,14.31,9.89,7.09,19.39,15.21,30.9,19.15,6.22,2.13,12.85,2.96,18.95,5.41s11.92,7.06,13.28,13.49c.76,3.59.04,7.31.12,10.98s1.26,7.74,4.49,9.49c17.11,9.29,32.55,18.18,51.92,20.18,6.07.63,12.24.1,18.26,1.1,7.22,1.19,14.05,4.6,19.34,9.65,13.48,12.87,34.56,14.8,52.49,19.88.7.2,1.76.16,1.8-.56,11.38,2.44,22.85,4.21,34.45,3.32s23.46-5.63,30.3-15.04c6.35-8.73,7.58-20.09,7.88-30.87"/>
      <path class="cls-7" d="M1815.29,1001c-.04.42-.08.84-.12,1.26-.53,5.67.26,11.59-1.26,17.07-4.6,16.61-16.95,29.72-26.77,43.88-.86,1.25-.75,2.55-1.3,3.96-1.88,4.81-5.53,8.74-7.56,13.48-.19.45-.38.93-.35,1.42.04.65-.88.93-.5,1.46l146.19-2.36-.29-524.44c-21.87-18.97-56.59-24.18-84.47-19.83-9.81,1.53-19.82,3.67-29.29,6.64-3.15.99-6.27,2.08-9.39,3.18-4.13,1.45-8.59,2.5-12.43,4.61-18.81,10.31-30.57,25.47-42.36,43.39-1.36-.29-1.93,1.66-1.86,3.05.38,7.52,2.15,14.89,2.58,22.4.49,8.53-1.97,13.13-5.17,20.52-6.08,14.07-5.58,29.97-5.03,44.96.43,11.79.86,23.61,2.66,35.27.5,3.24.9,6.51,1.04,9.79.14,3.22-.41,6.15.59,9.21"/>
      <path class="cls-7" d="M1651.54,769.97c-.73,4.03-1.43,8.33.16,12.11,1.11,2.64,3.21,4.71,5.26,6.71,2.48,2.42,4.98,4.84,7.81,6.83,5.71,4,12.58,6.09,18.3,10.08,3.49,2.44,6.5,5.58,8.78,9.18,2.1,3.3,3.77,7.16,7.11,9.19,6.83,4.16,12.18,5.65,19.26,9.38,4.45,2.34,7.79,6.29,11.42,9.78,9.52,9.14,21.71,15.47,34.66,18,1.11.22,2.31.39,3.32-.1.9-.44,1.49-1.33,1.98-2.2,2.4-4.35,3.37-9.47,2.72-14.39-1.4-10.59.26-21.41-1.53-31.94-1.23-7.24-3.53-15.05-9.67-19.07-6.64-4.35-15.88-2.97-22.44-7.44-6.55-4.46-8.19-14.69-3.36-20.97,4.5-5.86,6.49-13.44,5.58-20.77-.3-2.38-.88-4.73-1.04-7.13"/>
      <path class="cls-7" d="M1565.61,842.53c.97-3.94,5.25-5.91,8.92-7.65,9.13-4.3,17.61-10.62,22.71-19.33,1.6-2.73,2.86-5.68,4.83-8.15,1.93-2.42,4.58-4.46,5.43-7.44.66-2.31,1.94-4.43,3.68-6.08"/>
      <path class="cls-7" d="M1754.51,580.42c1.13-8.25,3-16.48,6.63-23.98,3.63-7.5,9.11-14.25,16.32-18.42,4.25-2.46,8.99-3.97,13.73-5.27,7.91-2.17,15.96-3.82,24.09-4.94,15.7-2.15,30.07-4.16,45.91-3.81s31.87,3.23,45.9,10.58c3.86,2.02,7.63,4.44,10.29,7.89,4.39,5.71,5.14,13.33,5.72,20.51"/>
      <path class="cls-7" d="M1700.8,509.75c.05.35.13.7.25,1.03.99,2.81,4.35,4.48,6.76,5.83,7.58,4.25,14.73,9.73,19.16,17.2,1.99,3.36,3.38,7.6,1.65,11.09-.55,1.11-1.38,2.06-1.85,3.21s-.46,2.64.49,3.43c6.28-1.32,11.28-6.04,15.35-11,4.07-4.96,8.4-10.23,13.06-14.64,3.96-3.75,10.1-3.83,15.49-3.01,5.39.81,10.94,2.28,16.2.84,2.09-.57,4.13-1.67,5.31-3.48,2.71-4.16-.11-9.92,1.56-14.59.66-1.84,1.97-3.38,2.66-5.21,2.21-5.89-2.1-17.65-5.17-22.82-4.49-7.55-10.19-14.18-13.26-22.54-9.05-24.7-21.78-48.06-37.65-69.04-3.53-4.66-7.22-9.22-11.44-13.27-14.42-13.8-33.38-23.01-53.08-26.24-18.72-3.07-37.83,2.83-54.84,11.22-17.01,8.38-35.66,14.1-49.8,26.73-4.13,3.69-8.31,7.32-12.53,10.9-2.07,1.75-4.27,3.55-6.93,4.05-2.03.38-4.17-.04-6.18.45-4.63,1.13-6.8,6.44-7.57,11.14-.46,2.82-.06,3.73.2,6.57.4,4.23.8,8.46,1.2,12.69.27,2.85.87,6.19,3.45,7.42,3.36,1.6,7.02-1.67,10.73-1.92,3.19-.22,6.09,1.82,8.37,4.06s4.36,4.83,7.24,6.21c5.03,2.42,11.9.87,15.72,4.94,1.98.12,1.22-1.4,2.02.42s.82,3.88.59,5.84c-.42,3.68-1.66,7.22-2.13,10.89s-.02,7.73,2.46,10.47c2.76,3.05,7.26,3.71,11.37,3.72s8.39-.41,12.19,1.16c3.31,1.36,5.9,4.15,7.53,7.32,1.41,2.74,2.22,5.85,4.25,8.18,2.44,2.8,6.35,4,10.06,3.87s7.28-1.46,10.66-3.02c3.16-1.46,6.24-3.48,9.69-4.21,1.84-.39,6.24.15,5.74,3.3,1.07-6.72,2.57-14.16,8.11-18.1,3.47-2.46,8.05-3.05,12.21-2.16s7.93,3.14,11.17,5.9c5.07,4.32,9.1,10.5,9.91,17.21.31,2.59-.72,5.49-.36,7.96Z"/>
      <path class="cls-7" d="M1922.83,554.57c-1.1-7.28-4.62-13.94-8.1-20.43-2.29-4.28-4.61-8.59-7.67-12.36-8.07-9.95-20.46-15.27-32.64-19.26-11.12-3.65-22.9-6.53-34.45-4.65-8.84,1.44-17.88,1.19-26.58,3.28-2.64.63-5.46,1.49-7.09,3.66-1.5,1.99-1.67,4.68-1.37,7.15s1.02,4.89,1.09,7.38c.11,4.25-1.81,8.5-5.08,11.22"/>
      <path class="cls-7" d="M1405.29,473.25c4.87-1.75,9.38-4.5,13.16-8.04,4.5-4.23,8.19-9.7,13.9-12.03,2.44-1,5.1-1.35,7.55-2.33,2.45-.98,4.8-2.85,5.24-5.45"/>
      <path class="cls-7" d="M1548.69,437.04c-.55,4.56,1,9.15.65,13.73-.28,3.59-1.72,6.98-2.78,10.42-1.72,5.56-2.39,11.2-2.52,16.96s-1.38,11.3,1.37,16.79c1.69,3.37,4.55,6,6.51,9.22,2.84,4.67,3.61,10.56,2.07,15.8-3.24,10.98-10.45,21.32-9.61,32.75.14,1.93.87,4.12,2.69,4.78.59.21,1.23.24,1.86.22,4.25-.12,8.7-1.9,12.6-.22,2.92,1.26,4.79,4.28,5.49,7.38,1.04,4.62-2.43,12.12,1.67,15.3,1.62,1.25,3.65,1.81,5.54,2.6s3.8,1.96,4.57,3.86c1.03,2.54-.3,5.36-.46,8.1-.03.54-.01,1.1.22,1.58.65,1.37,2.48,1.51,3.97,1.78,3.12.55,5.96,2.53,7.56,5.26,1.6,2.73,1.93,6.18.88,9.17-1.54,4.38,2.52,7.96,6.7,9.98,7.94,3.83,19.6,3.15,27.45-.1,5.11-2.12,10.29-4.27,14.74-7.57,2.1-1.55,4.03-3.35,6.3-4.64,2.6-1.48,5.55-2.22,8.48-2.83,4.92-1.03,10.41-1.66,14.68,1,2.71-.24,5.35.97,7.76,2.24,9.47,5,18.83,10.33,28.95,13.83s21.2,5.1,31.57,2.42c3.17-.82,6.56-.93,9.07-3.02"/>
      <path class="cls-7" d="M1747.98,590.81c-2.36,3.41-3.77,7.46-4.04,11.6-.17,2.66.17,5.47,1.73,7.63,2.41,3.36,6.98,4.26,11.1,4.56,11.03.79,22.2-.94,32.54-4.86,5.2-1.97,10.05-4.55,14.76-7.48,4.32-2.69,7.39-5.9,12.42-7.65,4.8-1.67,9.81-2.91,14.89-2.98,12.84-.18,24.47,7.01,36.75,10.77,11.21,3.43,24.39,5.09,36.11,4.73,6.52-.2,13.1-1.4,18.94-4.32"/>
      <path class="cls-7" d="M1743.84,637.03c-.15,6.65,2.62,12.96,4.2,19.42,2.21,9.06,2.06,18.5,2.68,27.8.62,9.3,2.15,18.88,7.22,26.71,4.25,6.57,2.01,17.38,8.88,21.14,5.28,2.89,11.94,1.6,17.33-1.09s10.07-6.64,15.45-9.33c6.19-3.08,12.08-3.1,18.63-4.02,7.86-1.1,15.65-2.47,23.55-3.22,26.26-2.5,54.14.46,76.11,15.06,1.43.95,2.86,1.98,3.85,3.38,1.79,2.55,1.84,5.89,1.82,9.01"/>
      <path class="cls-7" d="M1120.2,828.76c36.5,20.19,80.03,22.08,121.74,22.36,24.66.17,50.03-.19,72.82-9.6,14.89-6.15,30.08-11.63,45.14-17.36,8.1-3.08,16.8-6.65,21.19-14.12"/>
      <path class="cls-7" d="M1775.09,733.57c.21,8.48,1.82,16.93,4.76,24.88.4,1.07,1.03,2.31,2.17,2.4.58.05,1.14-.23,1.65-.5,13.86-7.15,29.09-11.64,44.61-13.16,21.36-2.09,40.45.57,60.34,8.62,5.72,2.31,11.36,5.11,17.48,5.86s13.02-1.02,16.46-6.14"/>
      <path class="cls-7" d="M1123.03,841.41c6.42-.46,12.54,2.55,18.06,5.85,8.81,5.27,17.05,11.48,26.05,16.43,9,4.95,19.01,8.65,29.27,8.31"/>
      <path class="cls-7" d="M1212.43,866.58c5.28-2.44,9.68-6.51,14.97-8.93,5.49-2.52,11.64-3.14,17.66-3.73,13.9-1.35,27.81-2.71,41.71-4.06,15.39-1.5,31.12,4.06,46.21.69,6.68-1.49,12.79-4.9,19.38-6.75,8.76-2.45,18.3-1.99,26.79,1.28"/>
      <path class="cls-7" d="M1782.92,760.58c-.08,3.5,2.74,6.26,4.59,9.23,6.41,10.32,1.31,24.64,7.04,35.35,1.73-.67,1.35-3.17,1.82-4.97.59-2.25,2.8-3.62,4.88-4.66,4.66-2.32,9.58-4.1,14.64-5.29,4.52-1.07,6.68-.66,11.14-1.93,10.56-3.01,21.41-5.4,32.4-5.41,10.99-.01,22.19,2.49,31.32,8.6,5.37,3.59,11.78,5.88,18.06,7.36,4.79,1.13,10.05,1.63,14.47-.55"/>
      <path class="cls-7" d="M1131.11,878.53c7.77-2.54,16.17-3.15,24.23-1.76,12.14,2.09,23.36,8.59,35.65,9.4,7.3.48,14.53-1.11,21.4-3.47,2.97-1.02,5.75-2.45,8.9-2.68s5.83-.24,8.91-1.06c13.63-3.62,25.53-11.93,39.34-15.03,19.28-4.34,39.17,2.18,57.79,8.78,5.52,1.96,11.7,1.58,17.55,1.88,2.51.13,5.05.16,7.52-.33,9.8-1.95,16.44-11.62,26.03-14.45"/>
      <path class="cls-7" d="M1794.58,804.14c1.81,3.36,3.15,6.97,3.96,10.7.87,4.04,1.15,8.28,2.97,11.99,3.88-2.58,8.48-4.06,13.13-4.21,1.26-.04,2.6-.01,3.65-.7,20.72-.44,40.93.4,61.47,3.21,4.68.64,9.34,1.45,13.92,2.61,10.6,2.7,20.71,7.31,29.69,13.54"/>
      <path class="cls-7" d="M1133.86,916.25c14.48-5.62,30.54.3,46.01,1.8,14.12,1.37,28.29-1.04,42.43-2.09,14.14-1.06,28.98-.62,41.58,5.9,6.6,3.42,13.4,8.6,20.62,6.85"/>
      <path class="cls-7" d="M1226.87,903.65c10.32-1.65,20.88-3.3,31.18-1.51,7.42,1.3,14.41,4.34,21.62,6.54,35.15,10.75,69.97-3.46,102.09-16.92"/>
      <path class="cls-7" d="M1388.02,913.52c-13.77,11.81-32.59,15.8-50.69,17.13-18.1,1.33-36.47.43-54.2,4.3-24.35,5.31-50.32,5.38-75.13,7.8-24.57,2.4-50.58,2.87-72.83-7.83"/>
      <path class="cls-7" d="M1800.12,823.58c4.74,8.19,5.95,17.88,7.07,27.27.53,4.42,1.05,8.92.17,13.28-.73,3.63-2.41,7.04-2.83,10.72-.53,4.64.82,9.98-2.16,13.58s-.8,8.66,1.15,12.89c2.96,6.41,9.09,10.85,12.5,17.03,2,3.62,2.98,7.7,4.6,11.5s4.12,7.53,7.93,9.12c3.98,1.66,2.72,2,6.42,4.21,3.27,1.96,6.55,3.92,9.97,5.61,9.32,4.63,18.71,6.43,28.89,7.22,11.63.91,22.86,3.88,34.64,3.99,4.9.05,10.05-.3,14.2-2.9"/>
      <path class="cls-7" d="M1372.16,959.21c5.78.35,12.22,1.1,15.91,5.56,3.2,3.86,3.34,9.38,2.69,14.34-1.61,12.37-6.99,25.35-1.98,36.77,1.57,3.59,4.08,6.69,6.64,9.66,7.96,9.24,16.83,17.83,23.14,28.27,6.31,10.44,9.84,23.37,5.98,34.93"/>
      <path class="cls-7" d="M1371.85,977.5c-.79,13.35-1.5,27.24,3.66,39.58,3.25,7.77,8.65,14.44,12.61,21.88,6.05,11.38,8.61,24.59,7.24,37.4"/>
      <path class="cls-7" d="M1319.77,931.26c-.96,5.88-1.46,11.83-1.48,17.78-.02,5.32.48,11.03,3.79,15.19"/>
      <path class="cls-7" d="M1304.89,940.31c-2.91,25.55-4,52.79,8,75.54,5.39,10.22,13.15,18.96,19.65,28.5,6.5,9.55,11.9,20.51,11.53,32.06"/>
      <path class="cls-7" d="M1280.98,950.23c-3.04,10.21-6.09,21.21-2.73,31.32,3.52,10.61,13.29,17.82,19.06,27.4,13.2,21.88,3.29,50.67,10.78,75.1"/>
      <path class="cls-7" d="M1142.72,962.74c-2.35,13.74-4.71,27.48-7.06,41.23-1.58,9.21-3.16,18.45-3.72,27.78-.98,16.26,1.19,32.7,6.34,48.15"/>
      <path class="cls-7" d="M1161.77,1076.67c2.7-4.88,5.49-10.17,4.91-15.72-.28-2.66-1.33-5.17-2.36-7.64-1.49-3.54-2.97-7.08-4.46-10.62-3.79-9.03-7.65-18.7-5.86-28.32,1.42-7.63,6.23-14.13,10.9-20.32"/>
      <path class="cls-7" d="M1198.43,943.46c-.94,30.23-.24,60.51,2.08,90.67,1.24,16.11,2.79,33.12-4.22,47.67"/>
      <path class="cls-7" d="M1218.16,1082.21c-1.04-17.65-.53-35.39,1.52-52.96,1.21-10.38,2.96-20.76,2.73-31.2s-2.64-21.18-8.93-29.52c-3.36-4.45-8.06-9.53-6.06-14.74"/>
      <path class="cls-7" d="M1260.13,939.27c-5.35,10.34-6.52,22.48-5.05,34.03,1.48,11.55,5.45,22.63,9.95,33.38,3.86,9.23,8.21,18.7,7.92,28.7-.34,11.68-7.01,23.16-4.23,34.51.99,4.03-.22,8.47,1.25,12.35"/>
      <path class="cls-7" d="M1771.14,854.06c-.4,1.54.18,3.21,1.19,4.45s2.39,2.09,3.8,2.84c4.3,2.27,9.05,3.69,13.89,4.14,3.94.37,8,.11,11.76,1.36,1.05.35,2.14.88,2.64,1.87.75,1.47-.1,3.33.46,4.88"/>
      <path class="cls-7" d="M1804.22,834.55c-.11,2.68,1.4,5.22,3.44,6.96s4.57,2.78,7.08,3.71c2.56.95,5.16,1.81,7.79,2.57.5.14,1.32-.05,1.1-.52,26.56.94,48.3,11.35,73.95,4.39,8.39-2.27,17.15-2.83,25.17-6.18"/>
      <path class="cls-7" d="M1662.5,537.11c.2,2.54.64,5.49,2.86,6.75,2.03,1.15,4.58.31,6.68-.7,4.73-2.29,9.74-5.09,12.9-9.3,4.38-5.84,8.62-11.77,12.71-17.81,1.09-1.6,2.71-3.56,3.2-5.46s-.23-4.04.24-6.05"/>
      <path class="cls-7" d="M1824.7,499.46c-1.45.17-2.79.06-4.23.3-2.34.39-4.72.79-6.86,1.8-2.3,1.08-5.33,2.23-7.93,1.7-.94-.19-1.81-.62-2.65-1.07-1.13-.61-2.24-1.27-3.17-2.15-1.63-1.54-2.65-3.7-2.8-5.94-.16-2.39-.41-3.42-.89-5.77"/>
      <path class="cls-3" d="M1344.12,530.15c-3.92-1.57-6.48-2.66-10.66-2.02-1.35.21-3.98,1.23-5.28,1.67-1.63.55-2.54,2.68-4.26,2.82-2.21.19-4.39.02-5.62-.98-.65-.53-2.13-.47-2.64-.15-.71.44-.7,1.03-.71,1.87-.02,1.72.84,2.2,2.09,2.21,3.36.01,4.87,1.8,6.97,1.18s2.91-1.33,4.73-2.53c8.56-5.68,10.33-2.45,12.76,1.38.72,1.14,2.02,1.96,3.35,2.16.24.04.52.03.71-.12.3-.25.24-.72.14-1.1-.49-1.97-1.11-4.39-1.59-6.36Z"/>
      <path class="cls-3" d="M1357.95,455.82c.67-.17,1.33-.4,2.02-.44s1.44.14,1.89.67c.49.56.53,1.37.54,2.12,0,.35.01.72-.1,1.05-.14.41-.46.73-.79,1.02-2.53,2.15-6.22,2.44-9.44,1.67-.44-.1-.93-.28-1.09-.7-.41-1.07,1.12-3.98,2.11-4.59,1.29-.79,3.42-.51,4.86-.8Z"/>
      <path class="cls-3" d="M1308.78,448.06c2.8.25,5.77,1.05,8.54,1.59,2.98.58,5.95,1.25,8.97,1.65,2.3.3,4.62.44,6.93.26.99-.08,1.73-.12,2.63-.49s1.69-.93,2.7-.9c.73.02,1.42.35,2.01.77.88.63,1.66,1.6,1.59,2.68-.1,1.6-1.53,3.12-3.1,3.24-.8.06-1.6-.11-2.39-.28-5.53-1.17-10.95-2.55-16.42-3.89-3.05-.75-6.39-.96-9.52-1.11-1.83-.09-3.67.07-5.46.47-.69.15-1.42.35-2.1.15s-1.26-.94-.99-1.6c.1-.24.3-.43.5-.6,1.68-1.42,3.94-2.14,6.13-1.95Z"/>
      <path class="cls-3" d="M1299.55,465.03c2.71-.14,5.32-1.03,7.96-1.64,2.64-.61,5.48-.94,8.03.01,1.44.54,2.75,1.47,4.28,1.61,1.49.14,3.03-.57,3.89-1.79.69-.98,2.3-1.11,3.36-.53s1.62,1.93,1.3,3.09c-.35,1.25-1.53,2.07-2.7,2.64-1.81.87-3.9,1.38-5.82.83-1.46-.42-2.69-1.42-4.08-2.03-2.35-1.03-5.18-.89-7.42.36-.74.42-1.67.5-2.45.83-2.18.92-4.77,1.04-6.86-.06-.49-.26-.99-.64-1.07-1.18-.06-.44.16-.86.37-1.25.28-.51.66-1.07,1.22-.89Z"/>
      <path class="cls-3" d="M1549,500.03c1.29-3.58,5.23-5.99,9.01-5.51,2.25.29,4.31,1.47,6.57,1.71s4.69.19,7.04.25c1.53.04,3.1.07,4.56-.39s2.82-1.53,3.22-3.01c.24-.9.02-2.02-.8-2.47-1.1-.61-2.39.28-3.5.88-2.49,1.34-5.52,1.22-8.28.61s-5.42-1.67-8.22-2.1c-1.93-.3-3.91-.21-5.87-.28-.9-.04-1.81-.05-2.68.17-.83.21-1.6.62-2.33,1.07-.89.55-1.81,1.23-2.11,2.23-.29,1,.1,2.07.58,2.99.69,1.36,1.8,2.73,2.82,3.87Z"/>
      <path class="cls-3" d="M1567.11,511.19c1.4.66,2.66,1.6,4.08,2.23,2.43,1.08,5.17,1.17,7.83,1.19.73,0,1.49,0,2.16-.3s1.23-.98,1.14-1.71c-.1-.91-1.1-1.44-2-1.63-1.46-.3-2.98-.12-4.45-.37-1.78-.3-3.38-1.21-5.01-1.98-2.59-1.22-5.34-2.1-8.16-2.61-1.19-.22-2.44-.36-3.59,0s-2.18,1.37-2.21,2.57c-.07,2.5,2.41,1.74,3.85,1.57,2.16-.25,4.38.1,6.35,1.03Z"/>
      <path class="cls-3" d="M1564.38,555.74c1.01-.53,1.81-1.4,2.82-1.92s2.45-.55,3.1.38c.49.71.31,1.72-.19,2.42s-1.25,1.18-1.98,1.64-1.47.97-1.91,1.71c-.48.79-.56,1.81-.21,2.67-.62-2.24-2.35-4.13-4.51-4.97-.72-.27-1.88-.45-2.28-1.15.5-.37,1.25-.21,1.85-.2,1.16.02,2.26-.04,3.32-.59Z"/>
      <path class="cls-3" d="M1579.84,588.1c.37-1.51,1.82-2.46,3.17-3.22s2.83-1.63,3.33-3.1c.14-.41.19-.86.05-1.27-.82-2.29-6.19.43-7.51.95-2.22.86-4.63,1.24-7.01,1.11,0,.2.26.28.46.3,1.66.18,3.33.56,4.73,1.47s2.49,2.41,2.58,4.07"/>
      <path class="cls-3" d="M1744.89,640.47l-2.43-1.64c-.18-.12-.38-.26-.46-.47-.13-.34.11-.7.33-1,.95-1.3,3.21-8.43,4.42-8.19.06,1.72-.85,3.77-1.16,5.5-.12.67-1.2,5.46-.7,5.8Z"/>
    </g>
  </g>
  <g id="tekst">
    <text class="cls-13" transform="translate(226.44 253) rotate(3.65) scale(1.22 1)"><tspan x="0" y="0">H</tspan></text>
    <text class="cls-13" transform="translate(268.67 255.48) rotate(1.36) scale(1.22 1)"><tspan x="0" y="0">J</tspan></text>
    <text class="cls-13" transform="translate(291.09 256.31) rotate(-.98) scale(1.22 1)"><tspan x="0" y="0"></tspan></text>
    <text class="cls-13" transform="translate(342.76 255.23) rotate(-3.37) scale(1.22 1)"><tspan x="0" y="0">L</tspan></text>
    <text class="cls-13" transform="translate(378.21 253.12) rotate(-4.96) scale(1.22 1)"><tspan x="0" y="0">P</tspan></text>
    <text class="cls-13" transform="translate(408.33 250.45) rotate(-5.83) scale(1.22 1)"><tspan x="0" y="0"> </tspan></text>
    <text class="cls-13" transform="translate(422.75 249.08) rotate(-6.81) scale(1.22 1)"><tspan x="0" y="0">R</tspan></text>
    <text class="cls-13" transform="translate(461.31 244.47) rotate(-8.01) scale(1.22 1)"><tspan x="0" y="0">O</tspan></text>
    <text class="cls-13" transform="translate(503.02 238.62) rotate(-9.02) scale(1.22 1)"><tspan x="0" y="0">M</tspan></text>
    <text class="cls-13" transform="translate(554.26 230.46) rotate(-9.88) scale(1.22 1)"><tspan x="0" y="0">E</tspan></text>
    <text class="cls-13" transform="translate(589.26 224.47) rotate(-11.5) scale(1.22 1)"><tspan x="0" y="0">O</tspan></text>
    <text class="cls-13" transform="translate(630.37 215.92) rotate(-13.24) scale(1.22 1)"><tspan x="0" y="0"> </tspan></text>
    <text class="cls-13" transform="translate(644.87 212.5) rotate(-14.36) scale(1.22 1)"><tspan x="0" y="0"> </tspan></text>
    <text class="cls-13" transform="translate(659 209.03) rotate(-15.98) scale(1.22 1)"><tspan x="0" y="0">O</tspan></text>
    <text class="cls-13" transform="translate(699.46 197.27) rotate(-16.13) scale(1.22 1)"><tspan x="0" y="0">G</tspan></text>
    <text class="cls-13" transform="translate(739.89 185.7) rotate(-14.77) scale(1.22 1)"><tspan x="0" y="0"> </tspan></text>
    <text class="cls-13" transform="translate(753.77 181.86) rotate(-13.2) scale(1.22 1)"><tspan x="0" y="0">R</tspan></text>
    <text class="cls-13" transform="translate(791.47 173.05) rotate(-11.04) scale(1.22 1)"><tspan x="0" y="0">E</tspan></text>
    <text class="cls-13" transform="translate(826.22 166.21) rotate(-8.81) scale(1.22 1)"><tspan x="0" y="0">D</tspan></text>
    <text class="cls-13" transform="translate(867.77 159.96) rotate(-7.21) scale(1.22 1)"><tspan x="0" y="0"> </tspan></text>
    <text class="cls-11" transform="translate(882.12 158.1) rotate(-6.14) scale(1.22 1)"><tspan x="0" y="0">J</tspan></text>
    <text class="cls-11" transform="translate(905.42 155.42) rotate(-4.24) scale(1.22 1)"><tspan x="0" y="0">U</tspan></text>
    <text class="cls-11" transform="translate(948.99 152.25) rotate(-1.98) scale(1.22 1)"><tspan x="0" y="0">L</tspan></text>
    <text class="cls-11" transform="translate(985.96 151.09) rotate(-.37) scale(1.22 1)"><tspan x="0" y="0">I</tspan></text>
    <text class="cls-11" transform="translate(1006.03 150.83) rotate(1.24) scale(1.22 1)"><tspan x="0" y="0">E</tspan></text>
    <text class="cls-9" transform="translate(1042.99 151.76) rotate(2.83) scale(1.22 1)"><tspan x="0" y="0"> </tspan></text>
    <text class="cls-15" transform="translate(1061.97 152.74) rotate(3.44) scale(1.22 1)"><tspan class="cls-8" x="0" y="0"> </tspan><tspan class="cls-10" x="15.64" y="0"> </tspan></text>
    <text class="cls-12" transform="translate(212.59 553.08) rotate(2.79) scale(1.25 1)"><tspan x="0" y="0">F</tspan></text>
    <text class="cls-12" transform="translate(239.33 554.49) rotate(.95) scale(1.25 1)"><tspan x="0" y="0">A</tspan></text>
    <text class="cls-12" transform="translate(279.56 555.14) rotate(-.76) scale(1.25 1)"><tspan x="0" y="0">N</tspan></text>
    <text class="cls-12" transform="translate(319.86 554.59) rotate(-2.15) scale(1.25 1)"><tspan x="0" y="0">G</tspan></text>
    <text class="cls-12" transform="translate(360.17 552.99) rotate(-2.96) scale(1.25 1)"><tspan x="0" y="0"> </tspan></text>
    <text class="cls-12" transform="translate(374.1 552.3) rotate(-3.55) scale(1.25 1)"><tspan x="0" y="0">7</tspan></text>
    <text class="cls-12" transform="translate(401.97 550.54) rotate(-4.1) scale(1.25 1)"><tspan x="0" y="0"> </tspan></text>
    <text class="cls-12" transform="translate(415.88 549.58) rotate(-4.67) scale(1.25 1)"><tspan x="0" y="0">F</tspan></text>
    <text class="cls-12" transform="translate(446.84 547.06) rotate(-5.43) scale(1.25 1)"><tspan x="0" y="0">L</tspan></text>
    <text class="cls-12" transform="translate(480.82 543.85) rotate(-6.25) scale(1.25 1)"><tspan x="0" y="0">A</tspan></text>
    <text class="cls-12" transform="translate(520.96 539.42) rotate(-6.98) scale(1.25 1)"><tspan x="0" y="0">S</tspan></text>
    <text class="cls-12" transform="translate(551.8 535.67) rotate(-7.68) scale(1.25 1)"><tspan x="0" y="0">K</tspan></text>
    <text class="cls-12" transform="translate(591.81 530.26) rotate(-8.36) scale(1.25 1)"><tspan x="0" y="0">E</tspan></text>
    <text class="cls-12" transform="translate(625.61 525.3) rotate(-8.99) scale(1.25 1)"><tspan x="0" y="0">R</tspan></text>
    <text class="cls-12" transform="translate(662.46 519.42) rotate(-9.42) scale(1.25 1)"><tspan x="0" y="0"> </tspan></text>
    <text class="cls-12" transform="translate(676.23 517.22) rotate(-9.94) scale(1.25 1)"><tspan x="0" y="0">M</tspan></text>
    <text class="cls-12" transform="translate(725.22 508.6) rotate(-10.64) scale(1.25 1)"><tspan x="0" y="0">O</tspan></text>
    <text class="cls-12" transform="translate(764.9 501.15) rotate(-11.24) scale(1.25 1)"><tspan x="0" y="0">D</tspan></text>
    <text class="cls-12" transform="translate(804.52 493.27) rotate(-11.82) scale(1.25 1)"><tspan x="0" y="0">G</tspan></text>
    <text class="cls-12" transform="translate(844.06 484.95) rotate(-12.23) scale(1.25 1)"><tspan x="0" y="0">I</tspan></text>
    <text class="cls-12" transform="translate(862.28 481.02) rotate(-12.57) scale(1.25 1)"><tspan x="0" y="0">F</tspan></text>
    <text class="cls-12" transform="translate(892.63 474.26) rotate(-13) scale(1.25 1)"><tspan x="0" y="0">T</tspan></text>
    <text class="cls-14" transform="translate(925.94 466.55) rotate(-13.32) scale(1.25 1)"><tspan x="0" y="0"> </tspan></text>
    <text class="cls-14" transform="translate(941.86 462.78) rotate(-13.53) scale(1.25 1)"><tspan x="0" y="0"> </tspan></text>
  </g>
</svg>