<?xml version="1.0" encoding="UTF-8"?>
<svg id="Layer_3" data-name="Layer 3" xmlns="http://www.w3.org/2000/svg" viewBox="0 0 708.66 822.05">
  <defs>
    <style>
      .cls-1, .cls-2, .cls-3, .cls-4 {
        stroke: #000;
        stroke-miterlimit: 10;
      }

      .cls-1, .cls-3 {
        stroke-width: .27px;
      }

      .cls-2 {
        stroke-width: 1.08px;
      }

      .cls-2, .cls-3, .cls-4 {
        fill: none;
      }

      .cls-5 {
        fill: #c9eaff;
      }

      .cls-4 {
        stroke-width: 4.34px;
      }

      .cls-6 {
        fill: #502300;
      }
    </style>
  </defs>
  <path class="cls-6" d="M342.02,23.57c-19.56,9.09-42.98,6.95-64.27,11.83-1.38.32-2.82.7-3.84,1.61-1.13,1.01-1.55,2.48-1.86,3.89-2.78,12.8.08,25.99,2.97,38.76,5.16,22.78,10.46,45.53,15.9,68.26,2.06,8.61,3.03,18.1,10.85,23.3,7.82,5.2,17.66,7.09,27.25,8.32,19.11,2.46,38.54,2.84,57.74,1.13,14.24-1.27,28.64-1.62,42.01-6.28,2.22-.77,4.44-1.64,6.28-3.01,2.51-1.88,4.12-4.56,5.48-7.25,4.58-9.08,7.03-19.04,7.13-29.03.07-6.87,2.65-13.36,5.23-19.82,5.27-13.23,8.61-27.09,9.89-41.11.98-10.63.07-22.81-8.92-29.65-3.27-2.49-7.3-3.98-11.31-5.28-7.52-2.43-15.25-4.32-23.09-5.63-6.22.85-12.64.31-18.81-.79-20.11-3.58-38.51-5.67-58.62-9.25Z"/>
  <path class="cls-5" d="M274.43,241.03c7.77,11.21,3.99,24.86,2.15,38.45-.46,3.38-1.01,6.97-3.4,9.59-3.38,3.69-9.22,4.3-14.41,5.14-23.74,3.84-44.99,18.74-55.12,38.67-6.23,12.25-8.34,25.84-10.38,39.21-2.13,13.97-4.26,27.93-6.39,41.9-11.89,77.93,2.66,155.36,4.76,234.01.39,14.76.77,29.68-2.52,44.14-4.91,21.59-17.46,45.45-4.38,64,11.29,16,35.67,18.46,52.81,29.34,27.77,17.62,65.59,15.49,98.86,21.12,11.32,1.92,22.84,3.65,34.3,2.71,46.61-3.85,96.15-2.59,135.04-26.3,18.49-11.27,25.85-36.91,27.83-56.04,2.78-26.84-.19-55.75-.19-82.93,0-7.65-1.47-15.25-2.45-22.85-.88-6.75-1.75-13.6-.64-20.32.88-5.33,2.98-10.42,4.27-15.67,1.69-6.89,1.97-14,2.24-21.05.3-7.92.61-15.83.91-23.75.29-7.65,1.28-15.18.86-22.82-1.84-33.5-3.69-66.99-5.53-100.49-.93-16.82,2.7-33.72,1.17-50.5-1.22-13.35-5.64-26.44-12.86-38.11-12.67-20.47-36.18-34.88-61.43-39.75-3.18-.61-6.59-1.17-8.93-3.22-1.81-1.6-2.69-3.86-3.44-6.05-3.86-11.22-6.15-22.88-6.81-34.61-.18-3.17,3.88-4.74,6.84-6.44,5.48-3.15,11.36-5.75,16.55-9.29,5.19-3.53,9.78-8.22,11.36-13.94.79-2.86.79-5.84.79-8.78,0-3.88,0-7.77-.72-11.59-1.05-5.53-.01-11.34-1.69-16.73-2.55-8.17-11.89-12.78-20.62-15.77-2.72-.93-6.12-1.69-8.26.09-.95.79-1.43,1.93-2.02,2.97-3.16,5.58-9.86,8.65-16.34,10.81-11.98,3.99-24.71,6.08-37.46,6.16-28.26.18-59.41.86-84.79-10.45-4.17-1.86-8.24-4.07-11.43-7.14-1.81-1.74-3.34-3.75-5.5-5.11-3.64-2.28-8.47-2.31-12.8-1.47-11.39,2.23-25.81,11.44-28.29,22.22-1.13,4.91-.74,9.99-.21,14.97.66,6.09,2.44,12.24,3.8,18.25.98,4.32,2.13,8.77,5.05,12.3,3.39,4.08,8.61,5.21,12.69,8.28,2.87,2.16,5.07,4.46,6.74,6.87Z"/>
  <path class="cls-4" d="M451.39,289.71c31.04.24,61.07,18.32,73.44,44.25,12.1,25.35,7.67,54.32,9.91,81.89,4.49,55.31,2.19,110.79-1.41,166.09-1.63,25.07.67,49.54.72,74.75.05,29.09.11,58.18.16,87.27.01,7.66-.04,15.6-3.6,22.54-3.86,7.52-11.42,12.96-19.41,16.96-15.17,7.6-32.41,10.96-49.43,13.85-16.63,2.83-33.32,5.32-50.07,7.47-67.68,8.68-128.95-6.88-193.59-27.11-7.15-2.24-14.38-4.68-20.27-8.99-13.35-9.77-16.98-27.07-15.64-42.62,1.34-15.55,6.67-30.68,7.44-46.26,1.22-24.72.34-49.44-.24-74.16-.26-11.11-.77-22.23-1.39-33.24-.63-11.16,1.98-22.6,2.39-33.87,1.81-49.53-9.99-99.3-.88-148.61,4.28-23.18,3.44-44.11,18.76-63.03,15.32-18.92,39.18-31.92,64.73-35.27"/>
  <path class="cls-4" d="M273.26,41.28c.83,41.86,10.63,83.08,20.38,123.99.45,1.87.97,3.88,2.53,5.17,1.18.98,2.78,1.4,4.31,1.78,7.11,1.8,14.22,3.6,21.33,5.4,4.73,1.2,9.47,2.4,14.33,3.06,6.04.82,12.17.8,18.28.78,24.44-.09,49.3-.23,72.64-6.83,6.41-1.81,11.32-7.06,14.38-12.51,3.06-5.44,4.3-11.55,5.5-17.56,4.53-22.63,9.07-45.26,13.6-67.89,1-4.99,2.07-10.14,1.65-15.23-.17-2.11-1.59-4.9-1.34-6.91.21-1.71,3.49-1.86,2.34-4.56-.78-1.83-2.85-2.88-4.79-3.73-32.43-14.37-69.27-17.51-105.19-20.42-4.75-.38-9.51-.77-14.27-.56-5.17.23-10.27,1.17-15.35,2.1-9.67,1.78-19.34,3.55-29.01,5.33-4.6.85-21.48,1.08-22.89,5.78-.56,1.89.53,4.08,2.47,4.94,6.71,2.96,17.46,2.32,24.77,3.13,10.14,1.11,20.27,2.33,30.39,3.65,19.79,2.58,39.51,5.54,59.16,8.89,16.11,2.75,33.02,5.72,48.62,1.14,7.35-2.16,14.24-5.96,21.94-6.55"/>
  <path class="cls-4" d="M287.69,158.17c-3.85.41-7.7.82-11.55,1.23-1.71.18-3.43.37-5.08.83-1.84.51-3.54,1.35-5.23,2.2-3.73,1.87-7.43,3.78-11.11,5.74-4.54,2.41-11.43,5.27-11.09,10.04,1.05,15.06,2.11,30.13,3.16,45.19.03.42.06.86.28,1.24.2.34.53.6.87.84,1.21.84,2.3,1.4,3.77,1.74,1.18,1.69,3.33,2.56,5.36,3.32,29.21,10.9,60.24,17.79,91.69,20.34,27.72,2.25,56.42,1.02,82.13-8.7,7.68-2.9,15.55-4.12,22.47-8.18,5.36-3.15,10.6-6.27,16.53-8.47,3.16-1.17,6.39-1.96,7.32-5,1.2-3.91-.67-10.57-.91-14.68-.58-9.72-1.16-19.44-1.73-29.15-.04-.74-.1-1.5-.5-2.14-.34-.55-.91-.94-1.47-1.32-7.62-5.15-16.2-9.11-25.26-11.67"/>
  <path class="cls-4" d="M266.17,292.59c4.5.43,8.79-2.48,10.83-6.16,2.04-3.68,2.26-7.97,2.07-12.09-.51-11.05-3.67-22.01-2.69-33.04.11-1.24.09-2-.17-3.23"/>
  <path class="cls-4" d="M455.11,288.82c-2.67,1.18-6.01-.32-7.61-2.6-1.59-2.28-1.88-5.09-2.12-7.78-.29-3.21-.58-6.43-.87-9.64-.89-9.82-1.78-19.68-1.09-29.51"/>
  <path class="cls-4" d="M276.92,286c10.81,8.73,23.37,15.66,36.87,20.34,7.84,2.72,15.96,4.68,24.07,6.63,5.45,1.31,10.93,2.63,16.53,3.21,3.74.39,7.51.45,11.27.39,14.68-.22,29.33-2.24,43.43-5.99"/>
  <path class="cls-4" d="M332,197.98c10.09-.23,20.06,1.86,30.13,2.33,19.78.93,39.2-4.37,58.81-6.92,9.2-1.19,18.54-1.79,27.5-4.03s17.72-6.34,23.24-13.14"/>
  <path class="cls-4" d="M249.11,170.31c.22,2.64,2.51,4.72,4.78,6.38,8.55,6.29,18.87,10.56,29.7,12.29"/>
  <path class="cls-1" d="M444.81,341.84c1.49-1.1,3.32-1.74,5.12-2.35,3.13-1.07,6.26-2.14,9.4-3.2,3.37-1.14,6.96-2.28,10.49-1.67,3.21.55,5.9,2.47,8.45,4.32,2.06,1.5,4.13,3,6,4.7,2.07,1.88,4,4.45,3.23,7.01-.82,2.74-4.22,3.99-7.18,4.86-16.28,4.77-32.56,9.53-48.84,14.3-1.17.34-2.76.53-3.32-.46-.65-1.16,1-2.58.45-3.78-13.82.36-27.28,4.02-41.05,5.14-3.18.26-6.66.31-9.25-1.4-.21-.14-.41-.3-.48-.52-.14-.52.55-.88,1.12-1.01,1.67-.4,3.39-.54,5.1-.71,12.62-1.21,25.12-3.55,37.24-6.96.81-.23,1.72-.55,1.99-1.28-7.93-.99-15.9.98-23.88,1.5-2,.13-4.61-.24-5-2.03-.24-1.12.66-2.24,1.79-2.75s2.43-.56,3.68-.62c9.26-.48,18.37-2.31,27.42-4.15,3.69-.75,8.55-.97,11.95-2.46,2.69-1.18,3.19-4.72,5.57-6.48Z"/>
  <path class="cls-1" d="M246.06,355.82c-3.81-.77-7.55-1.8-11.2-3.07-1.07.87-.48,2.49.36,3.55s1.92,2.23,1.59,3.5c-.22.84-1.01,1.44-1.74,1.99-4.62,3.5-8.8,8.37-8.38,13.82.04.49.14,1.03.55,1.35.7.55,1.79.13,2.48-.43,2.26-1.82,3.01-4.7,4.69-6.98,2.32-3.15,6.56-5.05,10.72-4.78,2.34.15,4.58.92,6.77,1.69,4.68,1.63,9.37,3.26,14.05,4.89,13.85,4.82,27.41,10.18,41.61,14.08,1.13.31,2.4.59,3.44.08.94-.46,1.4-1.43,2.07-2.18s1.95-1.31,2.76-.68c6.12-.15,11.19,1.35,16.79,3.61-3.07-.2-6.17.11-9.12.9-.17.05-.35.1-.44.24-.15.21,0,.5.2.67.61.54,1.56.54,2.41.51,5.93-.2,11.85-.4,17.78-.6,12.59-.43,25.4.17,38,0,2.42-.03,4.86-.07,7.25-.43,2.99-.45,5.85-1.4,8.7-2.35,4.1-1.36,8.52-2.97,10.67-6.43-2.38-.6-4.65,1.02-6.68,2.3-5.48,3.46-12.23,4.92-18.89,5.18s-13.3-.63-19.9-1.51c-8.34-1.12-16.74-2.25-24.69-4.81-.74-.24-1.52-.5-2.3-.41s-1.57.63-1.58,1.35c0,.91,1.1,1.43,1.98,1.86s1.8,1.38,1.25,2.14c-2.29-1.05-4.67-1.95-7.11-2.68-2.72-.82-5.55-1.44-8.42-1.49-2.78-.05-5.76-.22-8.54-.41-.46-.03-.92-.06-1.35-.22-.47-.17-.85-.49-1.24-.78-4.4-3.42-9.78-5.59-15.13-7.6-8.44-3.16-17.03-6.03-25.86-8.15-8.34-2-15.12-5.99-23.54-7.7Z"/>
  <path class="cls-1" d="M277.69,252.45c1.03.34,2.18-.25,2.83-1.04s.95-1.78,1.4-2.68c.35-.69.98-1.44,1.81-1.35,2.15.24.48,4.56,2.62,4.79,1.56.17,2.12-2.45,3.68-2.31,4.62,10.58-1.77,23.46,3.88,33.62.71,1.28,2.05,2.65,3.57,2.26.86-.22,1.73-.98,2.49-.56.69,1.48,1.04,3.09,1.01,4.7-4.18-.27-8.08-2.84-9.67-6.37-.61-1.35-1-2.94-2.34-3.74-1.36-.81-3.13-.48-4.76-.42s-3.62-.49-3.91-1.94l-2.61-24.95Z"/>
  <path class="cls-1" d="M389.47,302.43c.09.43.21.9.61,1.13,1.01.58,1.87-.89,2.11-1.96.31-1.39.86-2.73,1.64-3.96.46-.72,1.42-1.48,2.16-1,.29.19.43.52.54.83.77,2.02,1.55,4.05,2.32,6.07.65-1.7,1.3-3.4,1.95-5.1,1.26,1.39,2.85,2.54,4.61,3.36,1.35-3.24,2.7-6.49,4.06-9.73.5,3.04,1.01,6.09,1.51,9.13.55-.44,1.1-.88,1.64-1.32-.89,2.1.07,4.72,2.17,5.91.21-2.09.41-4.18.62-6.26.02-.21.05-.43.18-.59.49-.61,1.49.09,1.93.72s1.51,1.27,1.93.62c1.88-4.58,1.84-9.6,1.78-14.49,2.15,3.59,3.07,7.77,2.61,11.83,1.29.48,2.53-.96,2.6-2.23s-.43-2.57-.04-3.79,2.49-1.98,3.12-.84c.29.52.52,1.43,1.09,1.17,1.25-2.88,1.88-5.98,1.85-9.07-.02-1.71.08-3.89,1.84-4.47,1.54-.51,3.17.8,3.63,2.23s.2,2.96.35,4.45.96,3.13,2.55,3.48c1.51.34,3.06-.7,3.7-1.99.64-1.29.58-2.76.52-4.18-.24-5.2-.48-10.4-.72-15.6-.38-8.21.04-16.35.43-24.6.02-.51.03-1.08-.33-1.48-.32-.36-.86-.47-1.37-.53-2.3-.27-4.72.35-6.53,1.68-1.82,1.33-3.17,3.38-5.44,3.86-1.96.42-4.29-.45-5.9.66-1.15.79-1.38,2.33-.99,3.6.39,1.26,1.28,2.35,2.04,3.46,2.65,3.88,3.93,8.53,3.6,13.09-.06.78-.37,1.76-1.23,1.82-1.06.07-1.38-1.25-1.5-2.21-.32-2.55-1.98-4.94-4.38-6.29.23,3.12.08,6.26-.46,9.35-.1.59-.45,1.35-1.11,1.26-.5-.07-.72-.59-.84-1.04-.54-1.9-1.07-3.81-1.61-5.71-1.19.4-1.21,1.9-1.09,3.05s-.15,2.69-1.41,2.84c.03-1.39-.6-2.77-1.68-3.75-.28,3.56-1.47,7.07-3.46,10.15-.05-4.71-.09-9.42-.14-14.14,0-.26-.01-.55-.19-.75-.36-.42-1.17-.19-1.46.27s-.23,1.04-.21,1.57c.1,2.61-1,5.25-2.97,7.15-.22-1.53-.44-3.06-.66-4.59-.58,3.84-1.16,7.68-1.73,11.52-.18,1.19-1.35,2.78-2.35,1.99.98-3.75.16-7.85-2.2-11.05-.17,5.52-.34,11.03-.51,16.55-3.1-2.8.94-8.75-2.5-11.21-.74,2.04-1.07,4.2-.95,6.34-1.01-.25-1.16-1.46-1.34-2.39s-1.19-2.04-2.04-1.49c.41,2.22.06,4.56-1,6.6-.22-1.66-.86-3.28-1.85-4.69-2.53,1.27-1.21,9.43-1.11,11.69.19,4.38.72,8.75,1.59,13.06Z"/>
  <path class="cls-1" d="M261.92,196.11c.12-.42.26-.85.61-1.14s.98-.33,1.25.03c.14.19.14.43.14.65,0,3.65,0,7.29,0,10.94.05-2.39.78-4.77,2.09-6.84.18-.29.4-.58.73-.71.9-.34,1.63.73,1.88,1.59,2.08,7.16,1.74,14.69,1.38,22.08-.06,1.25-.32,2.76-1.6,3.21-.14.05-.3.08-.44.02-.21-.08-.27-.32-.31-.52-.95-4.9-1.91-9.8-2.86-14.7-.16-.81-.42-1.74-1.26-2.04,1.26.47-.54,3.71-1.09,4.13-2.09-5.78-2.23-10.71-.54-16.69Z"/>
  <path class="cls-1" d="M460.69,188.28c-1.26,1.02-1.31,2.77-1.28,4.31.12,7.07-.32,14.14-.77,21.19-.04.69-.09,1.4-.42,2.02s-1,1.15-1.76,1.12-1.45-.37-1.31-1.05c.47-2.29-1.31-4.41-2.98-6.17-.2-.21-.4-.42-.67-.54-.64-.29-1.45.06-1.85.6s-.49,1.21-.58,1.86c-.54,4.19-1.07,8.39-1.61,12.58-.07.53-.14,1.08-.47,1.52s-.99.72-1.52.48c1.55-8.35,2.84-16.95.85-25.22-.06-.24-.14-.51-.36-.65-.14-.09-.32-.11-.49-.11-1.19-.03-2.22.83-2.69,1.82s-.48,2.11-.48,3.19c-.01,2.24-.02,4.47-.03,6.71,0,.73-.09,1.58-.77,1.95-.31.17-.7.19-1.06.17-2.27-.11-4.2-1.66-5.33-3.46-1.12-1.8-1.61-3.87-2.26-5.85-.13-.41-.3-.84-.67-1.09-.25-.17-.57-.23-.88-.26-4.44-.53-8.28,2.88-12.65,3.78-.33.74-1.39.88-2.27.91-23.29.75-45.58,5.04-68.3.31-.71-.15-1.59-.24-2.02.29-.43.51-.06,1.31.54,1.64s1.36.33,2.06.32c4.79-.04,9.59.27,14.33.93.83.11,1.92.65,1.57,1.34-.83-.08-1.69.1-2.4.52,1.13.55,2.47.52,3.75.48,19.25-.63,38.51-.84,57.77-.63.61,0,1.35.1,1.57.62-.98.49-1.96.97-2.95,1.46-.27.13-.56.29-.67.55-.24.61.63,1.06,1.32,1.22,1.13.26,2.25.52,3.38.79,3.57.83,7.37-.06,11.05.08.51.02,1.06.05,1.47.32.46.3.66.81.81,1.31,1.28,4.34-.22,8.95.27,13.42.15,1.36.55,2.81,1.72,3.67.27.2.59.36.93.35.69-.03,1.1-.7,1.33-1.29.57-1.47.92-3.02,1.04-4.58.05-.69.12-1.49.77-1.85.95-.53,2.07.4,2.63,1.27s1.37,1.93,2.46,1.73c.18-6.51.23-13.03.15-19.55,1.52.11,1.96,1.92,1.99,3.3.05,2.29.1,4.58.15,6.87.04,1.86.09,3.77.88,5.49.58-1.25,1.3-2.45,2.14-3.58.29,1.18.86,2.3,1.66,3.27,6.18,1.08,12.4-1.92,15.63-6.84,3.22-4.92,3.89-10.88,3.77-16.61-.15-7.71-1.6-15.42-4.66-22.6-.17-.41-.38-.84-.79-1.06-.61-.33-1.39-.06-2.03.22-3.3,1.47-6.4,3.3-9.23,5.45-.75.57-.62,1.16.23,1.6Z"/>
  <path class="cls-1" d="M433.84,228.56c-.68,1.58-2.12,2.79-3.64,3.78-4.7,3.06-10.56,4.08-16.04,5.4-5.94,1.44-12.08,2.02-18.17,2.6-15.17,1.43-30.43,2.87-45.64,1.84-4.5-.31-9.16-.88-12.96-3.11-.5-.29-1.04-.77-.85-1.28.29-.77,14.06.99,15.42,1.05,6.71.29,13.43.31,20.14.04,13.42-.54,26.79-2.19,39.88-4.94,3.58-.75,7.71-1.22,10.75-3.08,3-1.84,6.89-2.86,10.44-3.29.2-.02.42-.04.59.06.29.18.23.59.09.93Z"/>
  <path class="cls-1" d="M419.79,105.85c.26.78.55,1.55.85,2.32.08.2.16.41.34.54.22.16.52.17.8.18.65,0,1.32.02,1.92-.19.99-.35,1.64-1.21,2.12-2.08,1.43-2.58,2-7.96-2.44-8.45-4.26-.47-4.39,5.27-3.59,7.68Z"/>
  <path class="cls-1" d="M435.45,83.07c-.43.27-.85.57-1.17.95-.37.44-.59.97-.76,1.5-.35,1.13-.47,2.31-.35,3.48.12,1.15.51,2.35,1.47,3.12,1.36,1.09,3.39.99,5.2.83.24-.02.5-.05.68-.19.18-.14.25-.36.31-.56.53-1.87.46-3.87-.21-5.7,1.76.26,3.48.28,4.47-1.27.72-1.13.98-2.79-.15-3.74-2.47-2.1-7.35.22-9.5,1.59Z"/>
  <path class="cls-1" d="M213.01,324.85c-1.27,1.91-1.85,4.19-1.63,6.42,7.24-2.94,14.06-6.72,20.24-11.23-5.95,5.83-11.9,12.45-12.7,20.38-.08.84.27,2.01,1.18,1.89.27-.04.5-.19.71-.36,2.22-1.73,3.34-4.32,4.77-6.64,2.41-3.91,5.85-7.21,9.24-10.47,4.32-4.15,9.2-8.55,15.44-9.16-1.17,3.58-5.71,5.57-6.96,9.13.68.26,1.45,0,2.11-.31,4.24-2.02,6.65-6.2,10.33-8.97,3.78-2.85,8.67-4.07,13.19-5.81,2.37-.91,4.96-2.35,5.22-4.68.04-.38-.01-.82-.35-1.06-.21-.15-.48-.19-.74-.22-2.01-.26-4.08-.35-6.06.03-6.51,1.26-11.18,7.43-17.83,7.77-.15-.61.37-1.16.85-1.61,3.58-3.34,8.49-6.77,11.26-10.66-1.25-.78-1.81-1.7-3.5-1.84-5.03-.41-9.84,1.86-13.99,4.47-2.74,1.72-5.35,3.62-7.95,5.52-4.69,3.42-9.38,6.84-14.07,10.26-2.82,2.05-5.63,4.11-8.43,6.18"/>
  <path class="cls-1" d="M437.56,396.18c-.4.14-.85.33-.97.71-.12.39.2.81.6.98s.87.16,1.32.14c2.35-.08,4.69-.17,7.04-.25.44-.02.94,0,1.23.29.32.32.22.82.11,1.24-.25.95-.51,1.9-.76,2.85,4.91.97,10.37-1.69,12.21-5.94.12-.28.22-.63.01-.87-.14-.16-.38-.21-.6-.26-6.75-1.33-13.64-1.17-20.19,1.1Z"/>
  <path class="cls-1" d="M466.14,382.22c-.63,0-1.33.02-1.8.4-.53.43-.58,1.19-.3,1.78s.81,1.05,1.34,1.47c3.49,2.8,7.53,5,10.96,7.87.65.54,1.29,1.13,1.66,1.86.38.74.45,1.58.7,2.36.8,2.49,3.66,4.3,6.51,4.1,2.84-.19,5.19-2.1,6.92-4.17.48-.57.94-1.21.95-1.93,0-1.02-.92-1.85-1.92-2.31s-2.12-.67-3.09-1.18-1.82-1.44-1.65-2.45c.16-.93,1.1-1.57,2.04-1.97,1.15-.49,2.41-.78,3.68-.85,1.23-.07,2.47.07,3.7-.08s2.48-.68,3.03-1.69c.81-1.48-.39-3.37-2.17-3.55-.69-.07-1.43.24-2.11.33-1.21.15-2.46.07-3.68.06-5.3-.01-10.59-.03-15.89-.04-2.96,0-5.92-.02-8.88-.02Z"/>
  <path class="cls-2" d="M239.04,339.37c6.2-9.11,15.83-16.25,26.89-19.93"/>
  <path class="cls-2" d="M282.9,307.61c14.65,8.31,30.59,14.74,47.2,19.02"/>
  <path class="cls-2" d="M289.6,316.81c7.72,2.88,15.45,5.76,23.17,8.63,7.98,2.97,15.99,5.96,24.36,7.86,15.43,3.51,31.55,3.26,47.45,2.99-17.82-3.76-36.39-2.39-54.68-2.23-18.29.16-37.38-1.14-53.2-9.5"/>
  <path class="cls-2" d="M214.98,336.08c-1.23,3.83-2.95,7.51-4.46,11.25-12.99,32.07-10.86,67.31-9.69,101.48.15,4.49.29,9-.05,13.48-.24,3.18-.87,6.63-3.46,8.78"/>
  <path class="cls-2" d="M283.98,57.23c-.41,3.22-.17,6.5.71,9.64"/>
  <path class="cls-2" d="M294.9,72.75c-1.97,21.87,3.2,43.69,8.33,65.13.87,3.64,1.74,7.29,2.62,10.93"/>
  <path class="cls-2" d="M305.24,79.02c-.74,14.39-1.4,29.25,4.13,42.75"/>
  <path class="cls-2" d="M328.51,36.99c-5.16.39-10.38.09-15.44-.89-5.61-1.08-11.16-3.01-16.88-2.64.24.84.91,1.51,1.6,2.11,4.27,3.72,9.92,5.94,15.72,7s11.77,1.02,17.67.72c1.62-.08,3.47-.3,4.4-1.51"/>
  <path class="cls-2" d="M445.32,66.15c.39,2.79.04,5.67-1.01,8.31"/>
  <path class="cls-2" d="M425.53,161.87c-.12-11.15,4.29-21.87,8.11-32.47s7.14-21.85,4.78-32.8"/>
  <path class="cls-2" d="M469.08,372.31c-8.44-1.34-17.3-.49-25.25,2.43-7.21,2.65-13.56,6.89-20.41,10.24-20.64,10.09-44.9,11.7-68.33,11.97-29.99.34-60.01-1.17-89.78-4.52-10.06-1.13-20.64-2.69-28.49-8.54"/>
  <path class="cls-2" d="M466.8,318.04c20.84,15.02,34.01,37.61,40.15,61.16,6.14,23.54,5.73,48.12,3.13,72.2-3.87,35.92-3.5,74.59-4.5,110.67-1.24,44.69,4.7,89.34,14.07,133.22"/>
  <path class="cls-2" d="M199.07,711.73c-1.23,17.68-.63,36.63,10.24,51.32.82,1.11,1.73,2.21,3.03,2.85s3.05.65,4.09-.29"/>
  <path class="cls-2" d="M250.83,775.99c5.69,0,11.37,0,17.06,0"/>
  <path class="cls-2" d="M200.36,681.38c.07-12.89.69-25.78,1.85-38.63"/>
  <path class="cls-3" d="M199.09,525.73c-2,21.68-3.93,43.97,2.93,64.81"/>
  <path class="cls-1" d="M531.27,701.47c-4.99-.52-9.69,2.05-13.79,4.69-1.56,1-3.17,2.1-3.98,3.67s-.5,3.77,1.17,4.62c1.51.78,3.97.52,4.46,2.04-2.1.08-4.25.19-6.22.86s-3.78,2.01-4.41,3.84.26,4.12,2.22,4.82c1.54.54,3.53.14,4.68,1.21,1.51,1.42-.14,3.93-2.21,4.53s-4.34.15-6.47.53c-1.01.18-2.04.59-2.59,1.38s-.37,2.03.55,2.44c.58.26,1.27.15,1.92.18,1.36.07,2.65.88,3.21,2.01-2.41,1.5-5.11,2.61-7.94,3.26-1.42.32-2.9.55-4.13,1.27-1.03.61-1.79,1.54-2.55,2.42-5.28,6.05-12.31,10.82-20.18,13.71-4.58,1.68-10.63,3.67-15.14,5.49-19.35,7.82-41.14,8.6-62.31,8.67-11.15.03-22.3-.1-33.44-.4-.57-.02-1.16-.03-1.69.14-1.13.36-1.8,1.46-1.94,2.53-.3,2.36,1.56,4.6,3.87,5.7,2.31,1.1,5,1.29,7.61,1.4,22.99.95,45.85-2.9,68.47-6.74,7.4-1.26,14.83-2.52,21.95-4.75,15.95-4.99,30.11-14.75,46.76-17.2-7.04,6.95-16.36,11.59-25.59,15.93-6.11,2.87-12.3,5.68-18.85,7.56-14.15,4.06-29.81,3.75-43.03,9.88-.34.16-.7.34-.83.67-.38.95,1.35,1.3,2.43,1.06,23.98-5.4,47.96-10.79,71.95-16.19-.2,3.26-3.25,5.73-6.25,7.53-12.43,7.46-27.44,10.16-41.49,14.64-2.18.69-4.75,1.99-4.57,4.08,10.03-1.6,20.13-3.23,29.63-6.56,4.79-1.68,9.43-3.81,14.43-4.91,4.95-1.09,10.11-1.15,15.13-1.99,6.16-1.03,12.08-3.23,17.26-6.44,7.77-4.81,12.21-14.34,14.21-22.71.9-3.77,1.25-7.62,1.52-11.47.8-11.43.9-22.89.29-34.33-.12-2.23-.22-4.5-.77-6.68-.26-1.02-2.2-2.29-3.34-2.41Z"/>
  <path class="cls-1" d="M365.57,691.76c-3.73-2.77-7.28-5.73-10.63-8.88-1.45-1.36-2.86-2.76-4.29-4.13-6.94-6.65-14.26-11.79-22.3-17.32-1.8,0-3.61-.02-5.41-.02-.45,0-.91,0-1.31.17-.39.16-.69.47-.91.81-1.04,1.6-.33,3.69.8,5.25s2.67,2.89,3.43,4.62c-2.69.47-5.55.05-7.94-1.17-.83-.42-1.61-.94-2.52-1.21s-2-.22-2.68.39c-.36.32-.56.76-.68,1.21-.79,2.92,1.68,5.82,4.58,7.25,4.37,2.15,10.02,1.96,14.2-.48.95-.55,1.92-1.24,3.05-1.22,1.11.02,2.05.72,2.88,1.39,7.38,5.98,14.07,12.76,22.35,17.67,1.44.85-2.07,3.1-3.39,4.09-2.37,1.79-4.75,3.58-7.12,5.36-2.54,1.91-5.08,3.83-7.72,5.62-2.48,1.68-5.09,3.27-8.02,4.16-2.93.89-6.26,1.01-9.05-.2-2.59-1.12-5.04-3.39-7.82-2.73-2.12.5-3.29,2.51-4.21,4.31-.52,1.03-1.06,2.08-1.2,3.2-.15,1.12.15,2.36,1.07,3.12,1.01.83,2.54.93,3.85.62s2.5-.96,3.72-1.5c.48-.21,1-.41,1.52-.34,1.04.13,1.59,1.26,1.45,2.21s-.76,1.76-1.24,2.61-.83,1.86-.41,2.73c.45.95,1.65,1.39,2.76,1.6,2.27.43,4.68.26,6.85-.48,1.19-.41,2.39-1.06,2.89-2.13.62-1.33,0-2.91.45-4.29.61-1.84,2.83-2.71,4.68-3.64,2.84-1.43,5.25-3.47,7.7-5.4,5.55-4.38,11.51-8.33,17.78-11.8,1.02-.57,2.13-1.14,3.33-1.12,1.2.02,2.29.63,3.25,1.28,1.73,1.16,3.29,2.53,4.63,4.06,3.53,4.02,9.34,4.54,14.31,7,3.49,1.72,7,3.45,10.2,5.59,4.18,2.79,7.8,6.26,10.65,10.19.87,1.2,1.68,2.46,2.78,3.5s2.55,1.85,4.13,1.91c1.58.05,3.25-.82,3.65-2.22.59-2.04-1.57-4.03-1.26-6.12,1.86-.12,3.82-.68,4.92-2.04.62-.77.91-1.72,1.01-2.66.46-4.24-3.16-8.52-7.79-9.2-1.75-.26-3.83.09-4.73,1.48-.76,1.17-.42,2.68.18,3.92s1.44,2.43,1.66,3.77c.05.29.07.59-.04.86-.19.51-.78.83-1.36.92-2.8.41-3.01-2.43-4.57-3.79-7.11-6.15-14.91-11.63-23.24-16.32-3.05-1.72-6.19-3.35-8.94-5.45-.64-.49.1-1.26.44-1.95s.97-1.23,1.57-1.75c4.26-3.63,8.59-7.2,13.32-10.31,3.19-2.1,6.57-4,9.52-6.37,2.28-1.84,4.3-3.96,6.8-5.56.41-.26.85-.52,1.35-.6,1.27-.2,2.36.76,3.31,1.57s2.36,1.55,3.45.92c.55-.32.82-.9,1.16-1.41,1.52-2.27,5.01-3.24,7.66-2.11.59.25,1.17.59,1.81.57,1.1-.04,1.81-1.2,1.69-2.19s-.83-1.84-1.5-2.63-1.87-1.32-2.98-1.46-2.22-.02-3.33-.04c-.28,0-.57-.02-.8-.16-.29-.17-.42-.49-.54-.78-.26-.65-.53-1.31-.57-2.01-.15-2.42,2.4-4.33,2.8-6.73.03-.2.05-.41-.07-.58-.13-.18-.39-.25-.63-.28-2.27-.32-4.4.96-6.26,2.17-2.17,1.41-4.51,3.07-4.94,5.47-.12.67-.08,1.38-.41,2-.24.46-.66.82-1.08,1.17-11.25,9.41-23.76,17.57-37.16,24.26-.69,1.08-1.68,1.78-2.95,2.25-.7.26-1.38.24-1.6-.42Z"/>
  <path class="cls-1" d="M368.41,659.66c-1.66.91-3.44,1.63-5.29,2.13-.85.23-1.77.41-2.63.2-.64-.16-1.2-.53-1.8-.78-2.61-1.08-5.79.15-8.5-.71-1.57-.5-2.79-1.64-3.93-2.74-1.7-1.63-3.4-3.26-5.1-4.89-.58-.56-1.7-1.63-1.46-2.5.26-.96,1.23-.33,2.02-.18,2.29.45,4.69.39,6.95-.16.55-.13,1.12-.31,1.52-.68.85-.79.63-2.08.33-3.15-.55-1.96-1.2-3.92-1.24-5.94s.61-4.16,2.26-5.5c1.65-1.35,4.44-1.61,6.06-.23,1.44,1.24,1.56,3.23,2.02,4.98.46,1.75,1.9,3.69,3.86,3.43,1.62-.21,2.54-1.85,2.75-3.33s0-3.04.58-4.43c.6-1.42,2.07-2.5,3.71-2.75s3.41.34,4.49,1.5c1.18,1.28,1.47,3.03,1.71,4.68.44,3.02.85,6.23-.59,8.98-.57,1.09-1.42,2.06-2.01,3.14-1.14,2.1-1.28,4.51-1.4,6.85.94-.05,1.9.04,2.81.25.41.09.87.27.95.64.06.28-.12.54-.29.78-1.56,2.16-2.8,4.51-4.46,6.61s-3.83,3.99-6.54,4.75c-2.72.75-6.03.11-7.65-2.02-.39-.51-.68-1.11-.71-1.74-.05-.9.43-1.75.72-2.61.33-.98.61-2.29.46-3.31-2.07.11-4.16-.02-6.19-.39-.75-.14-1.59-.29-2.24.07-.65.36-.88,1.12-.99,1.81-.38,2.48.11,4.98.6,7.44.2,1,.4,2,.82,2.94,1.08,2.39,3.55,4.09,6.23,4.93,2.68.84,5.58.9,8.41.77,1.68-.08,3.39-.23,4.95-.82s2.97-1.66,3.53-3.11c.94-2.43,4.15-3.48,5.53-5.73,1.79-2.92,2.11-6.55.86-9.69-.32-.79-.73-1.58-.77-2.42-.08-1.68,1.33-3.08,2.65-4.27,2.67-2.42,6.09-4.39,7.72-7.48.66-1.24.92-2.63,1.09-4,.9-7.49-1.06-15.23-5.36-21.66-2.35-3.52-4.24-4.49-8.43-5.82-4.46-1.41-9.2-2.11-13.92-1.84-6.32.36-12.58,2.53-17.27,6.42-2.09,1.74-3.84,3.78-5.58,5.81-1.25,1.46-2.51,2.93-3.3,4.64-.81,1.75-1.09,3.68-1.18,5.58-.2,4.04.39,8.1,1.74,11.95.34.99.76,1.99,1.56,2.73.56.51,1.26.85,2.01,1.09.37-.82,1.44-1.47,2.37-1.73,1.82-.51,3.7-.86,5.6-1.04.36-.04.73-.06,1.09,0,.6.1,1.11.43,1.64.7,1.42.72,3.15.98,4.71.58s2.92-1.51,3.39-2.93c.31-.95.22-1.96.38-2.94s.7-2.02,1.72-2.34c1.2-.38,2.45.37,3.44,1.09.63.46,1.27.93,1.7,1.55,1.12,1.61.73,4,2.33,5.23,1.98.21,4.12-.18,5.78-1.2.76-.47,1.49-1.07,2.4-1.2.16-.02.32-.02.46.05.11.06.19.17.25.28,1.12,1.91.3,4.26-.55,6.28-.26.61-.52,1.22-.95,1.74-.38.46-.89.82-1.41,1.15-1.15.74-2.41,1.35-3.72,1.81-.43.15-.87.29-1.24.54-.36.24-.63.58-.89.91-.33.42-.66.83-.99,1.25-.35.44-.93.94-1.46.68"/>
  <path class="cls-2" d="M484.21,417.29c-9.49,1.9-18.34,5.78-27.43,8.91-33.28,11.46-69.58,12.68-105.14,13.78-43.26,1.33-87.83,2.48-128.37-11.32.28,27.19.51,53.89.79,81.08,2.46-1.65,3.12-4.65,4.32-7.21,1.2-2.55,4.04-5.11,6.9-4.16,1.7.57,2.67,2.17,3.4,3.68,5.6,11.55,6.04,25.1,1.18,36.92-1.17,2.85-3.1,5.95-6.39,6.5-1.36.23-2.83-.03-4.1.46-2.48.95-2.84,3.97-2.81,6.42.17,16.46.35,32.91.52,49.37.53,50.04-.23,97.87,2.42,147.86.58-1.86,3.57-1.48,5.53-.75,21.23,7.9,44.68,8.83,67.6,9.65,10.66.38,21.32.77,31.98,1.15,16.01.58,32.07,1.15,48.04-.06,21.59-1.64,42.73-6.53,63.46-12.27,8.98-2.49,18.02-5.19,25.86-9.89,5.45-3.27,10.21-7.47,13.99-12.31,4.67-5.98,3.64-10.56,3.55-17.71-.18-15.18-.49-30.35-.94-45.52-1.29-43.97-6.04-87.98-6.04-131.91-.41-19.23-.23-38.46.18-57.68.1-4.94-.68-54.53,1.5-54.97Z"/>
  <path class="cls-1" d="M256.66,606.24c-.98-6.12.88-12.3.93-18.48.02-2.3-.22-4.6-.39-6.9-.35-4.63.06-9.41-.57-13.96-.65-4.75-.59-9.67-.4-14.45.29-7.37-1.06-14.81.53-22.15.2-.92.45-1.87,1.04-2.64,1.7-2.23,5.28-2.16,8.25-1.85,5.58.58,4.36,6.23,4.31,9.93-.06,4.99-.08,9.98.39,14.95.55,5.94.4,11.91.4,17.87,0,8.63.83,17.14.36,25.76-.11,1.96-.26,4.04-1.47,5.66-.45.6-1.03,1.11-1.61,1.62-1.23,1.08-2.25,2.4-3.63,3.32-2.57,1.71-5.14,3.43-7.71,5.14-1.78,1.18-3.57,2.38-5.59,3.18-1.03.41-2.11.72-3.09,1.21s-2.26,1.1-2.14,2.12c2.11,18.12,3.16,36.34,3.12,54.56,3.4-.92,6.96-1.31,10.5-1.17-1.1-7.6-1.64-15.26-1.62-22.92.01-6.51-.75-12.78-.95-19.29-.13-4.27-.23-8.72,1.75-12.59,2.24-4.39,6.78-7.38,11.14-10.16,5.47-3.49,9.58-8.54,11.27-14.42s1.54-12.06,1.37-18.14c-.19-7.13.17-14.44-.07-21.57-.13-4.05-.79-7.89-1.39-11.89s-.66-7.37-2.47-11c-.91-1.83-2.13-3.61-3.95-4.75-1.98-1.24-4.46-1.6-6.86-1.72-6.63-.33-13.35.96-19.28,3.69-.97.45-1.94.95-2.67,1.69-1.64,1.67-1.69,4.13-1.65,6.37.07,3.84.14,7.69.2,11.53.2,11.6.22,23.05,1.55,34.58.25,2.14.52,4.27.6,6.42.24,5.95-.96,11.92-.35,17.85l10.16,2.59Z"/>
  <path class="cls-1" d="M295.04,593.42c-.3-4.12-.47-8.24-.5-12.36-.03-3.01-.52-7.22,3.45-8.51.57-.18,1.18-.24,1.78-.25,1.82-.03,3.64.3,5.31.96.09.03.18.07.23.14.06.08.06.18.06.27-.04,8.27-.25,16.57.65,24.81.11,1,.24,2.02.69,2.94.68,1.39,2.07,2.42,3.62,2.99,1.62.6,3.48.73,5.12.19s3.04-1.77,3.49-3.31c.18-.63.21-1.29.24-1.94.23-5.38.59-10.71.28-16.08s-.65-11.17-.97-16.75c-.61-10.54-.02-21.21-.55-31.8-.08-1.63-.16-3.29-.9-4.77s-2.07-2.82-3.8-3.24c-2.68-.64-5.48,1.12-6.71,3.37s-1.27,4.88-1.28,7.4c-.02,4.09-.05,8.17-.07,12.26-.03,5.96-.46,11.79-.41,17.74,0-.65-8.76-.74-9.89-1.41-.45-.27-.63-.78-.72-1.27-.34-1.74-.11-3.67-.15-5.44-.04-1.91-.09-3.83-.13-5.74-.09-3.83-.17-7.66-.26-11.48-.06-2.76.35-5.57,1.62-8.07s3.24-4.67,5.45-6.55c2.75-2.35,6.03-4.35,9.74-4.96,5.02-.83,10.35,1.07,13.83,4.46,1.54,1.5,3.25,3.55,3.61,5.58.49,2.75-.01,5.97-.04,8.77-.07,5.84-.21,11.68-.42,17.51-.48,12.91,1.7,26.2.89,39.1-.09,1.45-.59,2.68-1.32,3.97-1.1,1.94-2.07,3.78-4.21,4.78-2.53,1.18-5.08,2.4-7.83,3.13-2.89.77-6.05.99-8.9.09-2.69-.84-4.91-2.6-6.89-4.47-1.48-1.4-3.67-3.31-3.89-5.35-.24-2.17-.05-4.52-.21-6.74Z"/>
  <path class="cls-1" d="M335.01,595.63c.09,1.77.2,3.59.94,5.23s2.26,3.1,4.19,3.37c.84.12,1.75-.01,2.44-.47,1.39-.91,1.51-2.72,1.5-4.27-.05-9.37-.1-18.74-.15-28.11-.03-6.5-.64-12.93-.69-19.42-.06-6.82.29-13.65.75-20.46.12-1.78.25-3.58-.21-5.32-.45-1.73-1.58-3.41-3.35-4.16s-4.2-.29-5.14,1.27c-.4.67-.5,1.46-.59,2.22-.4,3.42-.92,6.87-1.09,10.31-.17,3.39.2,6.87.29,10.28.11,4.29.18,8.57.2,12.86.02,3.72-.55,7.49-.45,11.13.24,8.51.89,17.03,1.35,25.53Z"/>
  <path class="cls-1" d="M349.57,581.9c.11-1.77.44-3.53,1-5.22.21-.63.49-1.31,1.12-1.63,1.16-.59,2.56.43,3.12,1.53.82,1.62.79,3.49.66,5.27-.24,3.36-.75,6.75-.23,10.09.52,3.34,2.26,6.72,5.47,8.4,2.29,1.2,5.06,1.4,7.68,1.19,1.4-.11,2.81-.33,4.1-.85,3.1-1.25,5.14-4.17,5.7-7.22.55-3.05-.23-6.19-1.59-9.02-4.86-10.1-11.73-19.7-18.66-28.74-2.36-3.08-4.4-6.7-5.3-10.37-.37-1.5-.51-3.03-.63-4.56-.13-1.65-.25-3.29-.29-4.94-.15-6.33,3.39-11.17,9.09-14.65,1.58-.96,3.34-1.78,5.24-1.87,1.64-.08,3.25.4,4.74,1.02,4.92,2.05,8.95,5.79,11.11,10.31s2.4,9.76.69,14.43c-.29.8-.7,1.65-1.51,2.06-.97.49-2.25.17-3.06-.53-.81-.69-1.22-1.68-1.51-2.66-.43-1.45-.62-2.98-.43-4.47.29-2.25,1.43-4.4,1.31-6.66-.12-2.3-1.59-4.42-3.55-5.87-1.96-1.45-4.39-2.29-6.84-2.85-1.3-.3-2.77-.5-3.91.15-.42.24-.76.58-1.07.93-2.33,2.63-3.27,6.24-2.47,9.54.78,3.22,3.36,5.66,5.42,8.26,2.38,3.01,4.69,6.06,6.92,9.16,4.46,6.2,8.62,12.57,12.46,19.11,4.39,7.47,3.66,16.62.3,24.52-.42.98-.9,1.93-1.55,2.8-.84,1.11-1.93,2.05-3.08,2.9-4.45,3.28-10.43,5.36-15.93,3.95-5.8-1.49-10.88-5.49-13.07-10.6-.62-1.44-1.01-2.95-1.33-4.47-.59-2.78-.27-5.59-.1-8.41Z"/>
  <path class="cls-1" d="M415.53,536.88c-1.49,16.23,3.1,32.51,2.09,48.77-.19,3.04.12,6.28-.98,9.15s-3.43,5.51-6.62,6.41c-.84.24-1.75.35-2.61.18-1.91-.38-3.16-2.03-4.01-3.64-1.86-3.51-2.71-7.38-3.01-11.24-.31-3.9.62-8.02,0-11.86-1.32-8.07.54-16.53-.11-24.75-.53-6.76-1.92-13.91,1.22-20.05,1.34-2.62,6.31-2.29,8.78-.47,1.4,1.03,2.27,2.55,2.78,4.12.15.47.29.96.65,1.32.53.53,1.39.62,2.17.67,2.02.12,4.04.15,6.06.07,3.33-.12,1.95-6.98.69-8.79-1-1.44-3.57-2.55-5.22-3.31-4.81-2.22-10.77-2.2-15.57.04-2.09.97-3.93,2.33-5.66,3.76-1.56,1.29-3.06,2.69-4.03,4.4-2.15,3.79-1.31,8.34-1.89,12.57-.97,7.06-.22,14.18.27,21.25.49,7.07.05,14.09.41,21.15.28,5.51,1.97,11.34,6.57,14.93,2.59,2.03,5.88,3.16,9.19,3.95,2.92.7,4.74,1,7.62.04,2.63-.88,5.1-2.17,7.15-3.91,3.01-2.56,5.08-6.12,5.27-9.87.4-7.58.98-15.27.74-22.85-.2-6.16,0-12.33-.03-18.49-.01-2.97.22-6.16-.98-8.98-1.63-3.85-5.12-4.46-9.18-5-.67-.09-1.32,0-1.76.46Z"/>
  <path class="cls-1" d="M434.97,587.81c1.7,8.96,2.26,18.11,1.65,27.18-.11,1.6-.1,3.51,1.36,4.42.51.32,1.13.45,1.71.62,2.67.76,5.05,2.34,6.66,4.42,1.31-2.16,1.01-4.8.73-7.25-1.11-9.57-1.47-19.22-1.08-28.84.35-8.66-.65-17.33-1.09-25.99-.04-.79-.05-1.67.52-2.28.75-.8,2.21-.7,3.14-.08s1.45,1.61,1.94,2.56c2.07,4.04,4.1,8.1,6.1,12.17,1.66,3.39,3.31,6.83,5.85,9.72.95,1.08,2.02,2.09,2.81,3.27,1.91,2.88,1.91,6.45,1.85,9.82-.09,5.39-.19,10.77-.28,16.16-.22,12.67.9,25.53,1.63,38.19.07,1.19.15,2.44.79,3.48,1.22,2,4.08,2.72,5.51,4.61.71.94,1.01,2.11,1.86,2.95s2.64,1.05,3.17.02c.14-.28.16-.59.17-.89.58-10.75,1.27-21.67.15-32.41-.25-2.42-.65-4.84-.9-7.26-.41-3.83-.48-7.7-.21-11.54,1.1-15.81-.23-31.64.77-47.45.38-6.04.86-12.72-.31-18.71-1.12-5.76-.52-11.92-.72-17.81-.04-1.02-.08-2.07-.57-2.99-1.25-2.36-4.7-2.83-7.57-2.66-.71.04-1.49.13-1.97.62-.35.35-.46.83-.56,1.29-3.59,16.41-2.85,33.32-2.1,50.04,0,.01-2.86-2.05-3.14-2.39-.74-.87-1.48-1.96-1.96-2.97-1.45-3.06-2.65-5.67-4.74-8.49-3.55-4.79-6.15-10.09-8.32-15.5-1.07-2.67-2.2-5.39-3.08-8.11-.86-2.65-.72-5.37-2.31-7.86-1.5-2.35-4.45-4.15-7.38-3.61-.27.05-.54.12-.75.29-.35.29-.39.77-.4,1.2-.16,5.08-.08,10.16.24,15.23l.87,46.85Z"/>
  <path class="cls-1" d="M245.88,614.17c-.04,1.25-.06,2.54.43,3.71.1.24.24.48.47.62.2.11.45.13.69.14,1.27.07,2.54.14,3.8.21.99.06,2.03.1,2.9-.32,1.15-.56,1.7-1.77,2.05-2.91,1.15-3.72,1.94-10.59-1.02-13.85-1.16-1.28-3.79-1.81-5.52-1.4-3.07.74-3.48,2.09-3.55,4.74-.09,3.02-.17,6.03-.26,9.05Z"/>
  <path class="cls-1" d="M305.05,573.48c.11,1.8-1.2,3.52-2.85,4.43-1.41.78-3.07,1.1-4.72,1.19-.89.05-1.89,0-2.51-.58-.28-.26-.45-.6-.57-.94-.26-.72-.35-1.48-.42-2.23-.34-3.55-.39-7.13-.16-10.69.07-1.05.89-1.93,1.86-2.46.81-.44,1.72-.74,2.66-.87,1.4-.19,2.88,0,4.09.66,1.65.89,2.56,2.47,2.53,4.17-.05,2.44-.06,4.88.09,7.32Z"/>
  <path class="cls-1" d="M413.12,531.52c.04,1.93.97,3.73,1.88,5.47.52.99,1.04,1.99,1.8,2.84,1.55,1.75,3.91,2.72,6.26,3.42.72.21,1.52.4,2.22.13.69-.26,1.11-.93,1.23-1.6s-.01-1.36-.16-2.02c-.98-4.48-2.51-8.86-4.56-13.03-1.7-.06-3.6-.03-4.91.96-.37.28-.68.63-.99.98-.96,1.09-1.83,1.77-2.78,2.86Z"/>
  <path class="cls-1" d="M339.48,648.1c.28,1.11.97,2.12,1.82,2.95,1.61,1.57,3.88,2.59,6.24,2.72,1.05.06,2.2-.09,2.92-.78.28-.26.47-.59.61-.93,1.53-3.66-2.25-6.37-5.22-8.02-1.44-.8-2.59-1.31-4.2-.53-1.86.91-2.65,2.73-2.18,4.59Z"/>
  <path class="cls-1" d="M360.6,638.53c-.12.04-.24.08-.33.16-.14.11-.19.29-.23.45-.27,1.05-.36,2.15-.25,3.23.05.49.14,1,.39,1.44.55.97,1.8,1.48,3,1.51.44.01.88-.03,1.28-.19.67-.27,1.15-.85,1.39-1.49s.26-1.32.22-1.99c-.05-1.03-.14-2.95-1.21-3.44s-3.18-.02-4.26.32Z"/>
  <path class="cls-1" d="M376.09,646.47c-1.91,1.74-3.57,3.7-4.93,5.83-.5.78-.96,1.61-1.03,2.51s.35,1.88,1.24,2.28c.99.45,2.2.05,3.12-.52,1.69-1.03,2.94-2.58,3.79-4.26.85-1.68,1.32-3.5,1.68-5.32.56-2.83-2.62-1.66-3.87-.53Z"/>
</svg>