<?xml version="1.0" encoding="UTF-8"?>
<svg id="Layer_3" data-name="Layer 3" xmlns="http://www.w3.org/2000/svg" viewBox="0 0 708.66 822.05">
  <defs>
    <style>
      .cls-1, .cls-2 {
        stroke-width: .26px;
      }

      .cls-1, .cls-2, .cls-3 {
        stroke: #000;
        stroke-miterlimit: 10;
      }

      .cls-4 {
        fill: #ffeaef;
      }

      .cls-2, .cls-3 {
        fill: none;
      }

      .cls-3 {
        stroke-width: 2.08px;
      }

      .cls-5 {
        fill: #c20015;
      }

      .cls-6 {
        fill: #ddf1ff;
      }
    </style>
  </defs>
  <path class="cls-4" d="M361.31,17.06c4.23,1.03,7.9,3.51,11.39,6.03,11.86,8.55,23,18.03,33.26,28.32,9.02,9.05,18.13,18.08,25.46,28.3,6.79,9.47,15.92,17.1,23.17,26.22,3.42,4.31,7.61,9.75,8.75,15.19,1.15,5.46-4.47,11.76-5.76,17.45-.39,1.73-.68,3.5-1.33,5.16-.84,2.16-2.27,4.07-3.68,5.94-2.17,2.89-4.15,6.02-6.48,8.77-5.13,6.04-10.25,12.08-15.38,18.12-5.49,6.46-11.02,13.81-12.22,22.07s-.31,16.66.57,24.96c.18,1.66.7,3.71,2.4,4.05.56.11,1.14,0,1.7-.11,10.43-1.81,21.75,4.23,25.68,13.7,1.67,4.03.84,9.77-.89,13.78-1.57,3.63-4.71,6.36-7.35,9.36-10.43,11.82-13.28,29.36-7.12,43.68,5.4,12.54,8.56,26.28,16.43,37.55,1.57,2.24,3.25,4.47,5.48,6.11,4.37,3.21,10.28,3.76,15.76,3.27,8.81-.79,16.91.19,25.65,1.49,22.19,3.32,42.9,13.04,60.56,26.21,17.52,13.07,30.45,34.55,39.24,54.05,4.01,8.9,6.92,18.27,8.64,27.83,1.81,10.04,3.24,21.76,3.34,31.96.05,4.75-.84,9.45-1.73,14.13-.83,4.37-1.66,8.74-2.85,13.03-1.68,6.08-4.08,11.98-7.12,17.54-12.03,21.99-19.33,45.97-30.35,68.4-10.65,21.67-29.35,41.28-46.25,58.72-18.02,18.58-32.39,40.15-49.44,59.55-5.26,5.98-11.46,10.46-18.44,14.5,7.6,5.98,15.21,11.95,22.81,17.93,2.45,1.92,5.14,4.42,4.7,7.42-.21,1.42-1.11,2.65-1.99,3.82-7.28,9.69-15.16,19.73-26.5,24.62-13.43,5.79-29.2,3.28-43.31,7.28-3.73,1.06-7.31,2.56-11.07,3.5-5.77,1.45-11.8,1.54-17.76,1.63-30.26.44-61.78-.8-91.89-3.78-7.88-.78-15.76-1.63-23.57-2.86-4.49-.71-9.01-1.56-13.2-3.27-5.23-2.13-9.78-5.52-14.27-8.88-5.34-3.99-10.67-7.98-16.01-11.97-1.63-1.22-1.17-4.05-.67-5.98.5-1.93,1.61-3.65,2.7-5.34,4.02-6.2,8.22-12.53,14.37-16.83,2.58-1.81,5.59-3.34,7.11-6.04-4.87-1.6-9.3-4.43-12.71-8.13-7.15-7.75-14.12-15.76-19.06-24.96-7.8-14.53-20.07-27.46-29.16-41.28-19.15-29.09-38.77-57.71-56.89-87.38-6.25-10.23-9.88-22.6-14.47-33.61-10.62-25.45-10.85-53.95-8.27-81.26,2.58-27.29,7.8-55.24,29.83-72.63,10.78-8.51,19.11-19.8,30.89-27,10.55-6.45,22.86-9.86,35.25-11.48,12.39-1.62,24.95-1.51,37.45-1.4,6.74.06,12.98-1.88,19.54-3.35,5.06-1.13,10.25-2.36,14.46-5.29,5.75-4,8.85-10.63,10.74-17.2,1.89-6.57,2.82-13.42,5.47-19.75,2.31-5.53,3.76-12.16,4.29-18.09s-.41-12.14-3.65-17.21c-3.34-5.22-8.82-8.86-12.46-13.89-4.53-6.26-5.82-14.58-3.4-21.84,2.72-8.16,11.74-12.31,20.61-13.1,2.17-.19,4.47-.18,6.33-1.27,2.76-1.62,3.59-5.03,4.17-8.08,1.48-7.74,2.97-15.49,4.45-23.23.36-1.86-.31-3.71-1.55-5.19s-2.82-2.63-4.3-3.88c-1.98-1.68-3.79-3.57-5.28-5.67-1.3-1.83-2.37-3.82-3.84-5.52-3.12-3.63-7.93-5.91-10.12-10.11-12.75-7.99-17.76-24.19-13.27-38.17,1.07-3.32,2.66-6.5,3.36-9.91.4-1.95,5.57-5.75,7.01-7.39,2.4-2.74,4.68-5.57,6.91-8.44,4.61-5.94,8.93-12.08,13.45-18.08,4.32-5.73,8.79-11.38,13.83-16.56s11.05-9.28,15.66-14.49c5.32-6.01,10.91-11.8,16.76-17.34,1.54-1.46,13.86-14.8,15.41-14.42Z"/>
  <path class="cls-6" d="M105.89,518.07c1.27,7.55,4.25,15.38,4.9,22.95.57,6.61,1.12,11.58,4.05,17.92,7.79,16.86,16.82,33.2,26.99,48.84,1.35,2.07,3.1,3.3,5.42,4.29,9.12,3.89,18.76,6.64,28.61,8.16,22.1,3.42,44.27,5.81,66.28,9.37,12.63,2.05,25.26,4.09,37.89,6.14,20.72,3.36,41.56,6.52,62.57,6.91,40.09.73,79.69,2.84,119.32-3.07,24.49-3.65,46.91-10.73,70.58-17.82,3.06-.92,6.19-1.89,8.73-3.77,3.92.14,5.09.48,8.74-.9,7.02-2.64,14.32-5.69,18.86-11.48,3.98-5.07,5.31-11.58,8.3-17.24,11.58-21.9,21.21-46.06,27.74-69.81,4.48-16.28,5.22-33.91.38-50.09-.19-.64-.52-1.38-1.2-1.47-.39-.05-.76.14-1.11.32-17.47,9.3-34.94,18.6-52.41,27.89-27.86,14.83-61.61,19.93-93.06,24.71-13.8,2.1-27.83,3.62-41.8,3.77-10.6.11-21.19-.5-31.77-1.12-34.36-1.99-68.72-3.98-103.08-5.97-36-2.08-71.73-7.3-105.86-18.51-23.41-7.69-46.1-15.36-67.91-26.85-2.04-1.07-4.82-2.09-6.44-.49.71-.7,1.68,8.14,1.68,8.46.08,4.24.26,8.47.54,12.7.59,8.76,1.61,17.5,3.07,26.16Z"/>
  <path class="cls-1" d="M245.39,752.32c-1.58,1.8-3.17,3.64-4.05,5.84-.16.42-.21,1.03.24,1.16.28.08.56-.12.78-.3,3.6-3.01,6.76-6.5,9.38-10.34.3-.44.61-.91.64-1.44.06-.89-.69-1.38-1.52-1.08-.64.23-.83.68-1.17,1.2-1.17,1.78-2.88,3.35-4.3,4.95Z"/>
  <path class="cls-1" d="M232.44,765.84c.59-.82,1.18-1.65,1.92-2.34s1.65-1.26,2.67-1.43c.11-.02.23-.03.32.03.09.06.11.18.12.29.06.73-.25,1.44-.62,2.07-.71,1.19-1.68,2.22-2.53,3.33-2.38,3.1-3.91,6.9-7.06,9.28-.65.49-1.38.92-2.19,1.07-.29.05-.62.06-.83-.14-.15-.14-.19-.36-.2-.56-.06-1.14.63-1.61,1.32-2.36.88-.96,1.64-2.04,2.43-3.06,1.59-2.04,3.13-4.1,4.64-6.19Z"/>
  <path class="cls-1" d="M249.64,776.25c-1.91,2.74-3.94,5.59-4.31,8.87-.07.65.07,1.51.74,1.64.52.1.97-.32,1.3-.72,3.84-4.57,6.25-10.73,11.79-13.21-1.36,5.9-6.68,10.57-7.37,16.57,1.98-.47,3.2-2.32,4.22-4.01,4.58-7.64,9.16-15.27,13.74-22.91.49-.82,1.31-1.77,2.25-1.48-.5,3.96-4.06,7.07-4.59,11.03,1.25-1.06,2.5-2.12,3.76-3.18-.3.68-.59,1.36-.89,2.04.89-.03,1.78-.06,2.66-.09-.9,2.43-1.8,4.87-2.7,7.3,2.58-2.3,4.25-5.36,6.14-8.22,1.88-2.86,4.16-5.68,7.37-7.05-1.4,2.82-2.8,5.64-4.2,8.47-2.13,4.28-4.27,8.61-5.38,13.23,1.23-.12,2.07-1.23,2.72-2.24,2.59-4.07,4.78-8.37,7.47-12.38s5.93-7.79,10.14-10.32c-1.67,3.3-3.51,6.53-5.49,9.66,1.33-.31,2.56-1,3.5-1.96.12.6-.03,1.24-.41,1.73.34.09.68.17,1.02.26-1.96,3.64-3.35,7.57-4.11,11.61.91.37,1.9-.34,2.55-1.06s1.38-1.57,2.38-1.55c-.91,2.35-1.19,4.91-.82,7.39.96-.05,1.32-1.21,1.55-2.11.72-2.85,2.69-5.38,5.32-6.85-.2,1.44-.15,2.91.16,4.33,1.59-3.02,3.82-5.73,6.52-7.91-.98,3.45-1.96,6.9-2.95,10.36.97-.38,1.5-1.39,1.93-2.31,1.78-3.79,3.49-7.62,5.13-11.47,1.07-2.51,2.11-5.03,2.85-7.65.37-1.31.64-2.75.02-3.97-.91-1.8-3.29-2.29-5.35-2.57-8.13-1.1-16.27-2.2-24.4-3.3-5.22-.71-10.44-1.41-15.63-2.31-2.9-.5-3.44,1.44-4.59,3.57-1.41,2.61-2.87,5.2-4.38,7.75-3.02,5.12-6.24,10.12-9.65,15.01Z"/>
  <path class="cls-1" d="M300.95,793.64c-.12,3.87-.75,7.72-1.87,11.44-.08.26-.18.54-.42.66-.31.16-.72-.03-.9-.33s-.2-.65-.21-.99c-.07-2.11-.14-4.23-.2-6.34-.03-.93-.06-1.89-.4-2.76s-1.03-1.68-1.97-1.92c-.12-.03-.24-.05-.36-.02-.29.08-.38.42-.43.7-.26,1.52-.52,3.03-.78,4.55-.15.89-.35,1.86-1.07,2.44-.13.1-.29.19-.45.13-.17-.06-.22-.26-.25-.43-.28-1.57-.56-3.15-.84-4.72-.13-.72-.51-1.63-1.26-1.56-1.97,1.77-2.82,4.4-3.44,6.93-.11.43-.22.89-.52,1.22s-.87.49-1.24.22c-.32-.24-.36-.67-.37-1.05-.06-1.6-.13-3.21-.19-4.81-.03-.75-.07-1.54-.45-2.2s-1.21-1.14-1.95-.9c-.87,1.54-1.38,3.27-1.5,5.02-.12,1.86.1,4.03-1.35,5.27-1.36-3.18-1.01-6.76-1.34-10.18-.06-.67-.46-1.55-1.13-1.36-.34.09-.52.44-.67.75-1.12,2.47-1.92,5.06-2.39,7.71-.13.73-.45,1.66-1.22,1.66-.93-2.33-1.44-4.81-1.51-7.3-.02-.65,0-1.32-.28-1.92s-.9-1.1-1.57-1c-.99.15-1.31,1.35-1.4,2.3-.2,2.05-.41,4.1-.61,6.15-.06.62-.82,1.12-1.36.77s-.68-1.04-.76-1.66c-.36-2.75-.44-5.53-.26-8.3.01-.2.03-.42.17-.58.21-.24.6-.23.92-.2,11.81,1.08,23.96,2.27,35.82,2.62Z"/>
  <path class="cls-1" d="M254.7,800.02c-.86-2.44-1.04-5.1-.51-7.62.17-.82.42-1.65.28-2.48s-.8-1.65-1.67-1.65c-1.1,0-1.73,1.17-2.13,2.15-.86,2.1-1.85,4.16-2.95,6.15-.16.28-.37.6-.7.62-.21.01-.41-.11-.58-.22-4.82-3.16-9.59-6.39-14.35-9.62-1.33-.9-2.66-1.81-3.88-2.85-1.97-1.68-3.62-3.71-4.72-6.01,6.06,1.21,11.52,4.27,17.23,6.56,5.34,2.14,10.93,3.24,16.37,5.02,2.28.75,2.61,1.79,1.75,3.94-.46,1.15-1.05,2.25-1.76,3.27-.24.35-2.42,2.61-2.37,2.73Z"/>
  <path class="cls-1" d="M383.14,795.15c-1.86,4.76-3.72,9.52-5.58,14.28,2.63.06,5.26,0,7.88-.18.76-.05,1.56-.14,2.14-.6.45-.36.7-.9.92-1.42,2.04-4.68,3.83-9.46,5.37-14.32-4.26.79-8.44,1.93-12.5,3.41"/>
  <path class="cls-1" d="M398.84,799.69c-.05.12-.09.25-.06.38.07.28.45.35.75.35.26,0,.52.01.78.02.12,0,.26,0,.36-.07.09-.07.14-.18.18-.28.55-1.47,1.1-2.93,1.65-4.4.43-1.14,1.23-5.37-.68-2.63-1.33,1.91-2.15,4.49-2.97,6.63Z"/>
  <path class="cls-1" d="M372.55,801c-1.19,2.03-2.11,4.28-2.13,6.61.5,0,1.01-.01,1.51-.02.72-2.35,1.67-4.63,2.83-6.81.83-1.55,3.12-3.83,3.35-5.46-2.51-.68-4.67,4.14-5.57,5.67Z"/>
  <path class="cls-1" d="M459.63,760.1c1.34,2.37,2.28,4.94,3.15,7.5,1.27,3.73,2.44,7.49,3.49,11.27-1.16.05-2.28.61-2.99,1.49.1-3.12-1.32-6.08-2.77-8.87-2.7-5.21-5.67-10.37-9.81-14.61-4.14-4.24-9.62-7.52-15.64-8.12,2.89-.72,5.68-1.78,8.55-2.51,2.53-.65,3.7,1.01,5.58,2.54,4.01,3.26,7.88,6.83,10.42,11.31Z"/>
  <path class="cls-1" d="M400.9,767.66c.81,1.8,5.37,15.7,2.73,15.94-.55.05-1.09-.27-1.43-.7-1.29-1.63-.85-4.17-1.38-6.08-.63-2.29-1.7-4.45-2.75-6.58-2.58-5.2-5.39-10.31-10.74-13.29,3.52-.23,5.02,0,7.75,2.49,2.52,2.29,4.44,5.16,5.81,8.21Z"/>
  <path class="cls-1" d="M386.78,761.18c.72,1.77.85,3.7.96,5.59-.58,0-1.16,0-1.74,0-.16-3.54-2.31-6.95-5.52-8.7-.2-.11-.43-.28-.37-.49.05-.19.31-.24.52-.25,2.96-.17,5.03,1.09,6.15,3.84Z"/>
  <path class="cls-1" d="M408.92,402.74c.58.34,1.31-.05,1.86-.43,10.29-7.13,20.6-14.27,30.13-22.31.88-.74,1.91-1.66,1.87-2.84-6.11,1.28-10.8,5.97-15.39,9.7-6.3,5.13-12.46,10.42-18.47,15.87Z"/>
  <path class="cls-1" d="M489.51,370.29c-11.12,8.15-22.24,16.32-33.34,24.49-.97.72-1.98,1.47-2.54,2.52,1.35.18,2.64-.52,3.81-1.2,9.91-5.81,19.39-12.3,28.34-19.42,2.88-2.3,5.74-4.68,7.98-7.57-2.52.4-4.91,1.52-6.79,3.18"/>
  <path class="cls-1" d="M516,367.14c-4.86,2.08-9.14,5.22-13.36,8.35-10.77,7.97-21.49,16.01-32.21,24.05,1.16.37,2.39-.2,3.45-.78,2.68-1.45,5.28-3.05,7.77-4.78,5.12-3.54,9.81-7.62,14.94-11.14,6.46-4.44,13.92-8.31,17.64-15.05-.96-.14-1.97.17-2.68.8,1.22-1.22,2.55-1.12,4.26-1.49.33.23.22.75-.07,1.02s-.7.38-1.05.58c-.39.22-.69.55-.98.88-.71.79-1.43,1.57-2.14,2.36,1.74-1.32,3.29-3.14,4.24-5.07-.74-.37-1.65-.26-2.4.08s-1.37.89-1.99,1.42c-2.01,1.72-4.11,3.34-6.28,4.86"/>
  <path class="cls-1" d="M573.37,399.66c-1.87-3.52-4.48-6.67-7.62-9.21-1.04-.84-2.16-1.63-3.4-2.16-1.06-.45-2.19-.7-3.27-1.08-8.02-2.8-12.46-11.94-20.71-14.03-2.36.59-4.84,2.48-6.52,4.17-7.82,7.83-16.82,14.57-26.63,19.93-2.06,1.13-4.36,2.45-4.87,4.67,1.41.99,3.28-.22,4.72-1.16,3.35-2.19,7.44-3.04,11.08-4.74,5.21-2.44,9.33-6.53,13.51-10.4,2.08-1.92,4.35-3.88,7.17-4.43,2.82-.55,6.28.95,6.7,3.69.36,2.33-1.47,4.4-3.17,6.1-8.32,8.31-16.95,16.83-27.96,21.4-6.18,2.57-13.41,4.13-17.34,9.39,2.09.18,3.97-1.08,5.85-1.97,4.02-1.92,8.61-2.33,12.92-3.52,11.5-3.19,20.41-11.79,28.37-20.39,2.19-2.36,4.58-4.89,7.8-5.55,5.16-1.06,9.83,3.02,13.14,6.97,1.11,1.32,2.23,2.77,2.44,4.46.18,1.43-.33,2.86-.89,4.19-4.86,11.66-14.63,21.34-26.59,26.39-5.14,2.16-11.15,3.91-13.78,8.67,1.62.39,3.31-.06,4.9-.56,19.14-6,35.49-19.78,44.19-37.24,2.07,4.06,4.95,7.72,6.85,11.85,1.9,4.14,2.72,9.1.53,13.1-1.52,2.78-4.28,4.74-7.1,6.33-10.9,6.13-24.03,8.29-34.19,15.51-3.25,2.31-6.44,5.23-10.47,5.55,1.08,0,2.16,0,3.24,0-.91.31-3.35.57-4.26.88-.37,1.14.7,2.34,1.91,2.61,1.21.27,2.46-.12,3.62-.55,11-4.03,20.48-11.23,31.37-15.53,4.98-1.97,10.29-3.35,14.73-6.27,4.44-2.93,7.94-7.96,6.98-13.05,2.36-.3,3.65,2.54,4.09,4.79,1.29,6.64,2.16,13.35,2.6,20.09.07,1.14.13,2.33-.35,3.37-.43.93-1.23,1.65-2.02,2.33-9.35,8.18-19.25,16.39-31.31,20.02-4.24,1.28-8.75,1.99-12.53,4.24-.38.23-.78.5-.92.91-.27.78.61,1.56,1.46,1.59.85.04,1.63-.41,2.39-.79,3.88-1.99,8.3-2.75,12.56-3.8,6.47-1.6,12.74-3.92,18.64-6.92,7.67-3.89,15.31-9.8,16.61-18.05.92-5.84-1.56-11.63-3.98-17.06-2.97-6.66-5.94-13.31-8.91-19.97-.32-.72-.88-1.31-1.39-1.93-3.33-4.03-7.71-8.27-10.15-12.85Z"/>
  <path class="cls-1" d="M178.35,648.2c19.14,30.54,42.48,58.64,69.22,83.35-.2-5.1-3.65-9.48-6.95-13.48-12.35-14.99-24.71-29.97-37.06-44.96-3.2-3.89-6.41-7.78-9.42-11.8-4.34-5.8-8.27-11.89-11.77-18.19-1.71-3.1-3.34-6.28-5.69-8.96-2.18-2.5-5.54-5.11-9.07-5.18-.14,2.74,2.36,5.55,3.77,7.82,2.35,3.79,4.59,7.64,6.96,11.42Z"/>
  <path class="cls-1" d="M252.92,714.5c3.25,5.3,6.25,10.75,10.04,15.7,1.06,1.39,2.21,2.76,3.72,3.7,1.77,1.1,3.89,1.51,5.96,1.91,12.65,2.41,25.29,4.83,37.94,7.24.97.18,2.13.31,2.79-.4.44-.47.49-1.16.51-1.79.26-8.28-.54-16.59-2.36-24.69-.4,4.71-.98,9.79-4.32,13.25,0-3.82-.61-7.64-1.83-11.28.47,4.03-.78,8.21-3.39,11.39-3.68-13.9-7.37-27.8-11.05-41.7-1.23-4.63-2.46-9.27-4.33-13.7-.99.59-1.16,1.88-1.2,3-.57,15.85,4.99,31.28,6.73,47.05-1.75.29-2.39-2.11-2.46-3.82-.24-6.05-2.78-11.77-4.94-17.46-3.4-8.98-5.9-18.28-7.48-27.72-.59-.74-1.59.49-1.67,1.42-1.2,13.69,1.12,27.4,3.26,40.98.2,1.26-.1,3.08-1.42,3.01-2.49-12.28-5.32-24.5-8.48-36.63-1.21,1.08-1.32,3.11-.23,4.3-.6-.36-1.19-.73-1.79-1.09.12,8.68.23,17.36.35,26.04-.33-3.33-.66-6.65-.99-9.98-.63,4.54-.88,9.13-.74,13.71-.73.87-2.03-.4-2.39-1.46-7.09-20.6-11.44-42.08-19.92-62.19-.08,17.76,5.08,35.11,10.2,52.18-2.21.17-2.84-2.75-3.34-4.82-.99-4.1-4.41-7.18-7.65-10-.33-.29-.76-.59-1.18-.45s-.28.96.13.79c-5.12-6.18-10.24-12.35-15.36-18.53-4-4.83-8.01-9.67-11.58-14.8-4.01-5.77-10.07-19.28-17.54-21.25.25,3.71,4.16,8.04,6.24,11.04,3.84,5.54,7.9,10.95,12.03,16.29,8.21,10.61,16.75,20.97,24.73,31.74,4.58,6.18,8.97,12.5,12.98,19.04Z"/>
  <path class="cls-1" d="M475.3,661.37c-7.24,25.36-25.03,47.47-29.37,73.44.87.89,2.41.25,3.45-.44,23.21-15.25,43.1-35.14,58.05-58.03,3.36-5.14,6.48-10.44,10.05-15.45,5.24-7.34,11.42-14.01,17.94-20.32,4.29-4.15,8.86-8.34,11.08-13.79-2.51-.28-4.72,1.46-6.54,3.14-20.4,18.83-33.32,43.95-52.41,64.01,2.6-3.56,5.21-7.12,7.81-10.68,4.72-6.45,9.46-12.94,12.86-20.11-11.07,11.41-20.68,24.13-28.52,37.79-2.38,4.14-4.66,8.45-8.21,11.72,7.55-21.54,23.45-40.5,26.1-63.09-1.33,3.49-2.77,6.94-4.3,10.35-2.89,6.4-6.13,12.64-9.37,18.88-7.17,13.8-14.41,27.72-24.35,39.83,2.01-5.33,4.03-10.66,6.04-15.99-3.29,4.79-6.57,9.59-9.86,14.38,3.47-9.02,6.94-18.03,10.41-27.05,2.11-5.49,4.24-11.02,7.38-16.04,3.63-5.8,8.77-11.49,8.36-18.25-.03-.56-.43-1.31-.95-1.07-.17.08-.28.24-.37.4-1.55,2.57-3.1,5.14-4.66,7.71-6.3,10.43-12.65,20.97-16.3,32.5-2.33,7.35-3.76,15.45-9.35,20.94,3.14-14.85,6.29-29.7,9.43-44.54-.81.2-1.25,1.03-1.58,1.77-8.32,18.82-13.18,39.05-14.27,59.47,1.44.49,3.07.41,4.45-.22"/>
  <path class="cls-2" d="M544.82,391.77v-.47"/>
  <path class="cls-1" d="M536.57,373.67c-.64.75-1.3,1.75-.86,2.63.33.65,1.13.92,1.84,1.17,4.61,1.62,8.25,5.01,12.09,7.95,3.84,2.94,8.39,5.59,13.28,5.29.36-1.86-.68-3.69-1.79-5.26-3.04-4.28-6.89-8.01-11.29-10.99-2.18-1.48-4.52-2.88-6.98-3.89-3.27-1.35-4.18.63-6.29,3.1Z"/>
  <path class="cls-1" d="M597.42,470.89c2.2-.62,4.34-1.43,6.39-2.41.26-.12.52-.25.7-.47.48-.56.22-1.38-.05-2.05-1.15-2.84-2.49-12.71-5.2-13.77-.48,6.31-.43,12.45-1.83,18.7Z"/>
  <path class="cls-1" d="M151.82,387.86c-5.95,5.61-11.9,11.21-17.85,16.82-1.11,1.05-2.24,2.12-2.91,3.46-.89,1.77-.89,3.81-.74,5.77.34,4.51,1.43,8.96,3.21,13.14,2.59-5.3-3.03-11.63-1.09-17.18.35-1,1.37-2.07,2.37-1.63-.34,3.52.46,7.13,2.28,10.2,1.2-2.78.69-5.93.68-8.95-.01-3.01.79-6.44,3.52-7.92-.47,3.92.38,7.97,2.39,11.4,1.1-2.91-.12-6.09-.42-9.17-.29-3.08,1.22-6.97,4.43-7.08-.19,3.82.65,7.68,2.42,11.09,2.74-3.33.23-8.15.37-12.39.14-4.14,3.25-8.04,7.38-9.22.04,3.51.08,7.03.12,10.54,0,.73.03,1.49.42,2.11s1.32.99,1.93.57c-.21-3.57-.43-7.14-.64-10.71-.09-1.52-.17-3.12.55-4.47s2.51-2.31,3.91-1.62c2.74,1.34.94,6.55,3.81,7.61-.39-2.6.14-5.33,1.46-7.63.39,1.72,1.41,3.3,2.84,4.4-.62-2.64.06-5.54,1.81-7.67.43,1.23,1.16,2.37,2.12,3.28.42-.94.4-2.05-.05-2.97.41-2.17-1.56-4.57-3.86-4.68-1.63-.08-3.14.77-4.51,1.62-5.79,3.57-11.04,6.64-15.95,11.27Z"/>
  <path class="cls-1" d="M113.04,464.47c-.03,1.8.23,3.92,1.87,4.8.85-1.81,1.01-3.85,1.14-5.83.64-9.41,1.14-19.04,4.9-27.74,1.84-4.27,5.25-9.12,4.74-13.92-6.17,3.29-5.62,9.08-6.97,14.8-2.19,9.28-5.51,18.26-5.68,27.88Z"/>
  <path class="cls-1" d="M324.67,415.75c.46-.15.54-.73.54-1.19,0-1.9.28-4.08-.1-5.92-2.37.56-.96,7.26-.44,7.12Z"/>
  <path class="cls-1" d="M317.8,411.16c0,.96,0,1.96.44,2.83.14.28.36.55.68.59.61.08.89-.69.95-1.28.11-1.24.91-8.91-.3-9.31-2.18-.72-1.75,6.26-1.76,7.16Z"/>
  <path class="cls-1" d="M310.1,405.01c0,1.04,0,2.08.24,3.09.13.56.34,1.1.61,1.61.09.17.22.35.42.35.18,0,.31-.16.4-.31.47-.8.5-1.76.52-2.68.03-1.44.68-12.83-1.39-12.81-1.46.02-.79,9.74-.79,10.74Z"/>
  <path class="cls-1" d="M303.2,401.69c-.02,1.12-.03,2.27.38,3.33.09.23.21.48.44.6.32.17.75.03,1-.24s.34-.63.42-.98c.3-1.39.36-2.82.41-4.24.1-2.47.2-4.95.05-7.41-.06-1,.18-4.85-1.29-4.05-1.43.78-1.18,3.99-1.22,5.2-.09,2.6-.16,5.2-.2,7.8Z"/>
  <path class="cls-1" d="M298.15,384.12c-.72,5.47-1.17,11.27,1.19,16.3.69-.3.8-1.18.82-1.91.12-5.27.23-10.54-.19-15.8-.09-1.08-.26-2.28-1.14-2.96-.73,2.29-1.06,4.7-.96,7.09"/>
  <path class="cls-1" d="M289.61,398.79c0,1.13,0,2.27.37,3.35.09.26.23.55.5.63.57.18.9-.61.93-1.19.29-5.73.49-12.37-1.08-17.94-.71,4.9-.7,10.21-.73,15.16Z"/>
  <path class="cls-1" d="M281.08,397.82c0,.1.02.2.07.28.26.44.91-.08,1.1-.55.92-2.31,5.08-19.88,1.55-20.07-3.98-.21-2.91,17.81-2.71,20.34Z"/>
  <path class="cls-1" d="M275.28,389.13c.01.18.03.37.13.52.25.38.9.31,1.21-.03s.37-.81.42-1.26c.43-4.37.73-9.41-.43-13.7-1.32,4.44-1.62,9.86-1.32,14.47Z"/>
  <path class="cls-1" d="M267.62,375.57c-.48,2.49-.5,5.11.35,7.5.25.7.59,1.4,1.17,1.89.18.15.4.28.64.29.54,0,.85-.57,1.02-1.07,1.36-4.02,2.69-10.87,1.18-15-1.45-3.96-4.15,5.23-4.37,6.39Z"/>
  <path class="cls-1" d="M259.56,391.99c.03.56.33,1.31.89,1.17.28-.07.44-.35.56-.61,1.85-4.07,1.89-8.65,1.88-13.09,0-1.05.43-4.88-1.02-5.06-1.75-.22-1.66,3.46-1.79,4.42-.58,4.36-.75,8.77-.51,13.16Z"/>
  <path class="cls-1" d="M250.76,381.51c0,1.63,0,3.28.45,4.85.12.42.31.88.73,1.06.44.19.97,0,1.29-.35s.47-.8.61-1.24c.69-2.19,4.69-17.7.46-18.04-1.65-.13-2.81,3.47-3.11,4.52-.84,2.93-.43,6.2-.43,9.21Z"/>
  <path class="cls-1" d="M248.57,381.51c.81-1.67.66-5.8-.41-7.27-1.01.74-1.18,2.5-1.25,3.66-.04.63.33,6.36,1.66,3.61Z"/>
  <path class="cls-1" d="M238.3,385.71c.03,1.39.14,2.86.98,3.99.2.28.47.54.82.6.47.08.93-.25,1.13-.67s.21-.89.21-1.35c-.03-6.79-1.31-13.39-1.06-20.13.01-.29.02-.59-.13-.84s-.52-.4-.76-.22c-.17.13-.21.36-.23.57-.68,6.02-1.05,12.01-.95,18.06Z"/>
  <path class="cls-1" d="M232.37,387.58c.12.44.43.97.89.86.2-.05.34-.23.45-.41.38-.67.44-1.47.49-2.24.14-2.32.25-4.64.33-6.97.04-1.12.54-3.87-1.58-2.87-2.75,1.3-1.19,9.43-.58,11.63Z"/>
  <path class="cls-1" d="M225.8,381.83c.23.79.61,1.62,1.37,2,.25.13.58.19.8.02.18-.13.23-.36.27-.57.18-1,.26-2.01.34-3.02.17-2.21.34-4.42.51-6.64.1-1.33,1.01-5.89-.52-6.59s-2.38,1.23-2.49,2.24c-.19,1.66.12,3.28-.16,4.97-.43,2.54-.84,5.06-.11,7.59Z"/>
  <path class="cls-1" d="M220.91,382.36c0,3.26.01,6.53.02,9.79,0,.66.19,1.53.87,1.58.7.05,1.02-.82,1.08-1.5.53-5.42.25-10.91-.84-16.25-.57,1.43-1.47,3.09-3.06,3.18.42-.02-.37-10.81-.96-11.85-1.12,1.87-.76,5.27-.8,7.38-.03,1.94,0,3.9.27,5.82.11.81.08,2.1,1.08,2.4.82.25,1.53-1,2.35-.55Z"/>
  <path class="cls-1" d="M213.24,397.81h1.13c.32-.74.27-1.56.21-2.35-.31-4.19-.61-8.37-.92-12.56-.25-3.39.29-8.26-.96-11.39-2.53,1.94-1.15,8.52-1.02,11.19.25,5.06.78,10.1,1.56,15.11Z"/>
  <path class="cls-1" d="M205.45,372.35c-.74,6.15.26,12.49,2.87,18.15,1.02-1.36,1.07-3.17,1.06-4.85-.01-4.33-.12-8.73-1.51-12.85-.25-.73-.84-1.62-1.61-1.38-.72,1.69-1.57,3.33-2.53,4.91"/>
  <path class="cls-1" d="M197.57,404.42c.15.69.53,1.54,1.26,1.49.82-.83.81-2.11.75-3.25-.24-4.69-.49-9.38-1.02-14.05-.41-3.64-.41-10.42-2.69-13.48-1.67-2.23-1.63,1.11-1.74,2.69-.26,3.67.22,7.32.69,10.95.68,5.25,1.6,10.47,2.74,15.64Z"/>
  <path class="cls-1" d="M202.97,406.7c.09.38.34.86.74.78.2-.04.33-.22.42-.4.76-1.35.79-2.95.74-4.49-.08-2.69-.34-5.37-.77-8.02-.3-1.87-.44-3.69-2.01-1.57-2.21,2.98.11,10.46.88,13.7Z"/>
  <path class="cls-1" d="M189.12,421.15c.08.32.18.67.47.83.65.37,1.3-.52,1.46-1.23.52-2.4.3-4.89.04-7.32-.5-4.73-1.12-9.45-1.87-14.15-.55-3.46-.49-9.89-2.55-12.71-3.23,2.6-1.15,11.41-.83,14.81.62,6.65,1.72,13.26,3.29,19.77Z"/>
  <path class="cls-1" d="M191.95,398.15c.2-.88,1.48-6.2-.65-5.53-2.25.71.88,4.51.65,5.53Z"/>
  <path class="cls-1" d="M194.07,407.11c-.21,2.16-.05,4.36.48,6.47.1.39.38.87.77.75.18-.06.29-.24.37-.4.59-1.21.63-2.65.12-3.89"/>
  <path class="cls-1" d="M189.31,385.95c-.26,1.33.06,2.75.87,3.85,1.06-1.14.63-3.22-.8-3.88"/>
  <path class="cls-1" d="M194.11,407.41c1.11.8,1.76,2.15,1.69,3.49"/>
  <path class="cls-1" d="M184.31,435.95c.13.63.34,1.37.96,1.61.95-1.11.59-2.75.2-4.14-1.72-6.1-3.05-12.31-3.98-18.57-.47-3.13-.83-6.27-1.09-9.43-.16-1.86.45-6.26-.86-7.67-.76.92-.55,2.8-.52,3.95.07,2.79.38,5.58.7,8.35.65,5.62,1.63,11.2,2.73,16.75.6,3.05,1.24,6.1,1.87,9.14Z"/>
  <path class="cls-1" d="M174.75,422.45c.2,1.36.48,2.79,1.42,3.82.93-2.02.34-4.34-.07-6.52-1.15-5.95-.94-12.06-.74-18.11.07-2.07.9-5.67.09-7.53-2.81,2.03-1.72,8.78-1.73,11.59-.02,5.59.2,11.2,1.03,16.74Z"/>
  <path class="cls-1" d="M175.41,433.05c-.45,3.85,1.4,7.75.59,11.54-.49,2.27-1.88,4.25-3.21,6.18-1.41,2.04-2.78,4.09-4.15,6.15-1.38,2.07-2.8,4.24-3.09,6.69,1.08-.37,1.76-1.39,2.35-2.34,1.82-2.92,3.63-5.83,5.45-8.75,1.18-1.89,2.37-3.8,3.97-5.39.46-.46.97-.91,1.19-1.5.18-.49.15-1.02.1-1.54-.42-4.59-1.89-9.1-4.27-13.1-.06,2.8.56,5.61,1.79,8.14"/>
  <path class="cls-1" d="M169.62,442.57c.16.84.78,1.94,1.6,1.59.7-2.24.09-4.63-.46-6.91-1.34-5.57-2.26-11.23-2.75-16.92-.24-2.82-.38-5.65-.42-8.48-.02-1.98.66-5.43-.48-7.15-2.54,1.84-.93,9.36-.76,11.86.37,5.63.95,11.25,1.75,16.83.44,3.07.95,6.13,1.52,9.17Z"/>
  <path class="cls-1" d="M160.65,433.3c1.42,7.49,2.71,15.03,3.22,22.63.02.35.06.73.31.99.45.45,1.31.16,1.62-.39s.23-1.22.13-1.83c-1.57-10.63-3.97-21.14-5.01-31.84-.26-2.71-.44-5.42-.49-8.14-.02-1.3-.02-2.61.02-3.91.04-1.2.57-3.11.25-4.24-.55-1.96-2.33-.33-2.64,1.09-.5,2.3-.25,4.98-.13,7.3.31,6.19,1.55,12.28,2.71,18.36Z"/>
  <path class="cls-1" d="M167.19,471.92c.05,7,.11,14,.16,21-1.05-.31-1.36-1.58-1.49-2.63-.47-3.74-.93-7.49-1.4-11.23-.13-1.04-.55-2.36-1.64-2.39-.24,3.13-.97,6.23-2.17,9.15-.47-1.76-.94-3.52-1.41-5.27-.3,0-.59.09-.82.27-.95-2.02-1.3-4.3-1-6.5.02-.17.05-.35.16-.49.29-.39.91-.24,1.4-.18,1.08.14,2.23-.38,2.8-1.28s.54-2.11-.07-2.98c-1.43-2.02-1.27-4.75-2.23-7.01-1.28-3.01-2.56-6.01-3.85-9.02-1.04-2.43-2.81-5.13-2.85-7.74-.08-6.05-2.24-11.82-2.36-17.85.26-.24.72-.14.96.11s.33.61.41.95c1.83,8.14,3.03,16.39,5.25,24.4,1.47,5.32,3.56,10.49,6.21,15.36.4.73.94,1.54,1.79,1.63.27.03.55-.03.82.05.57.17,1.32,1.08,1.33,1.65Z"/>
  <path class="cls-1" d="M151.05,465.75c.17.5.41,1.07.93,1.22.91-2.39.46-5.07-.43-7.47-.89-2.4-2.2-4.64-3.04-7.05-1.76-4.99-1.46-10.41-2.23-15.63-.59-4.09-1.75-8.28-3.22-12.15-.54,2.13-.1,4.98-.01,7.17.12,2.78.42,5.55.87,8.29.92,5.59,2.42,11.08,4.12,16.5.96,3.05,1.98,6.08,3,9.11Z"/>
  <path class="cls-1" d="M152.49,484.98c.09.14.2.29.35.37.34.18.79-.07.94-.41s.07-.74-.03-1.1c-.89-3.02-3.72-5.15-5.1-8-.49-1-.78-2.08-1.06-3.15-1.04-4.02-1.84-8.1-2.39-12.21-.13-.98-.41-7.32-2.08-4.85-1.27,1.88-.57,5.53-.11,7.53.85,3.65,2.01,7.23,3.47,10.69,1.64,3.88,3.65,7.61,6.01,11.13Z"/>
  <path class="cls-1" d="M150.79,488.48c.85,1.82,1.66,3.72,1.69,5.71-.42-1.11-.98-2.17-1.66-3.15-.78-1.13-1.71-2.15-2.53-3.26-1.18-1.61-2.09-3.39-2.98-5.17-3.58-7.19-6.84-14.52-9.76-21.98-1.26-3.23-3.49-7.73-2.81-11.25,1.18,1.63,1.4,4.43,2.05,6.33.96,2.8,2.1,5.54,3.36,8.22,2.51,5.39,5.44,10.58,8.24,15.83,1.53,2.87,3.03,5.76,4.4,8.7Z"/>
  <path class="cls-1" d="M139.17,452.9c-.72-.3-1.04-1.09-1.3-1.79-.41-1.12-2.38-4.8-1.17-5.62.72.9,1.14,2.46,1.55,3.58.15.42.8,3.78.93,3.83Z"/>
  <path class="cls-1" d="M149.13,498.64c-.93.03-1.58-.84-2.11-1.57-1.4-1.92-3.2-3.51-4.88-5.21-7.35-7.41-13.53-17.5-16.84-27.25-.6-1.76.17-2.17,1.97-1.55,2.17.74,3.26,2.66,4.51,4.38,3.32,4.55,6.52,9.19,9.37,14.03,3.22,5.46,6.01,11.18,7.98,17.17Z"/>
  <path class="cls-1" d="M422.76,460.5c-.97.39-2.13,1.23-1.7,2.15,1.97.63,3.97-.68,5.84-1.55,3.54-1.66,7.63-1.86,11.36-3.07,6.62-2.13,12.25-7.42,19.23-7.53,4.04-.06,5.82-5.01,1.95-6.91-5.41-2.65-3.2,3.06-4.67,4.99-2.27,3-12.28,4.51-16.13,5.88-5.34,1.9-10.64,3.91-15.89,6.04Z"/>
  <path class="cls-1" d="M468.4,459.1c-.27-.74-1.52-.63-1.96.02s-.33,1.51-.19,2.28c.36,2.01.76,4.01,1.2,6,.2.93,1.02,2.13,1.85,1.62.26-.16.39-.45.5-.72,1.04-2.68.7-5.82-.9-8.24"/>
  <path class="cls-1" d="M437.29,498.17c-1.27.02-2.91.27-3.13,1.47-.15.8.55,1.56,1.35,1.82s1.67.13,2.51,0c3.71-.55,7.41-1.11,11.12-1.66,7.32-1.09,27.56-1.77,31.84-7.99-5.23-2.6-14.43.91-19.76,2.19-7.87,1.89-15.76,4.06-23.93,4.17Z"/>
  <path class="cls-1" d="M470.84,474.74c-3.93.44-7.77,1.51-11.35,3.13-.45.21-.93.45-1.14.89-.5,1.03,1.01,2.05,2.15,1.76s1.92-1.26,2.83-1.98c1.91-1.52,4.49-2,6.96-2.13,1.23-.07,2.98-.82,2.39-1.86-1.08-.02-2.15-.04-3.23-.06"/>
  <path class="cls-1" d="M389.16,450.68c-1.04.37-2.31,1.15-1.99,2.18,3.89.15,7.6-1.38,11.24-2.7,12.64-4.57,26.04-6.76,39.23-9.5,4.48-.93,10.45-2.27,12.72-6.52-7.76-1.91-20.85,4.1-28.25,6.13-11.12,3.05-22.12,6.53-32.96,10.41Z"/>
  <path class="cls-1" d="M275.63,243.77c.8-.96.81-2.32,1.28-3.47s1.96-2.17,2.96-1.41c.6.45.66,1.29.68,2.02.03,1.23.06,2.45.09,3.68.03,1.06-.18,2.42-1.25,2.65-.77.17-1.48-.4-2.05-.93-.96-.89-2.01-1.97-1.87-3.24"/>
  <path class="cls-1" d="M284.88,260.69c-.46-8.38-.1-16.8,1.09-25.11.21-1.47,1.25-3.42,2.67-2.84.91,7.15,1,14.4.28,21.58-.34,3.36-.85,6.81.03,10.08.5,1.84,1.81,3.82,3.79,3.87,2.31.06,3.69-2.45,4.24-4.61.83-3.27,1.07-6.69.69-10.03-.1-.93.03-2.23,1-2.32.79,1.02.67,2.42.7,3.7s.42,2.77,1.66,3.22c.65-2.69,1.3-5.38,1.95-8.07.67,2.13,1.9,4.67,4.21,4.71.18-6.96.36-13.92.55-20.88.88-.64,1.83.72,2.02,1.76,1.37,7.31,2.42,14.67,3.13,22.07.18,1.9.66,4.2,2.54,4.79,3.81-9.5,1.18-20.19,2.49-30.29.08-.64.2-1.31.61-1.82s1.23-.78,1.78-.41c0,4.24,0,8.49,0,12.73,0,4.38,0,8.76.17,13.14.14,3.43.42,7,2.24,9.96,2.97-4.23.89-10.21,3.1-14.85,1.18,4.14,1.79,8.43,1.79,12.73,0,.92-.02,1.87.39,2.7s1.38,1.49,2.29,1.22c.44-.13.79-.43,1.1-.75,2.71-2.81,3.26-6.92,3.44-10.75.28-5.84.03-11.7-.7-17.51-.11-.86-.22-1.76.12-2.57s1.3-1.43,2.14-1.11c2.06,9.95,2.36,20.24.87,30.28-.17,1.12-.32,2.38.38,3.3s2.6.84,2.73-.29c.78-.64,1.75-.83,2.77-.73s2.01.37,3.03.4c1.5.05,2.96-.43,4.44-.69,2.11-.37,4.27-.29,6.41-.21,1.81.07,1.41,2.63,1.52,4.37s-.13,3.76,1.18,4.97c.65.6,1.56.85,2.43,1.09,2.04.54,4.08,1.09,6.12,1.63-6.92.47-13.89.19-20.75-.85-5.03-.76-9.99-1.92-15.06-2.41-3.17-.3-6.35-.34-9.52-.6-4.36-.36-8.67-1.13-12.97-1.91-8.4-1.51-17.08-3.14-24.07-7.86-1.82-1.23-2.36-3.08-1.04-4.8Z"/>
  <path class="cls-1" d="M426.91,275.73c-.4.88-.85,1.8-1.68,2.33-.73.47-1.65.56-2.53.63-7.39.59-14.81.8-22.23.63-.36-2.79-.18-5.64.53-8.36.37-1.42,1-2.94,2.37-3.59.78-.36,1.67-.38,2.54-.4,6.51-.14,13.02-.67,19.46-1.6,2.38-.34,6.93-2.15,5.62,1.46-1.09,3.02-2.74,5.96-4.09,8.89Z"/>
  <path class="cls-1" d="M436.67,234.66c1.76,1.96,3.17,4.18,4.42,6.47.7,1.27,1.35,2.83.63,4.09-.91,1.6-3.69,2.05-3.74,3.87-.03,1.22,1.31,2.16,1.28,3.38-2.37,1.34-4.84,2.53-7.38,3.55-2.66,1.07-5.72,1.96-8.37.84,1.28-1.14,3.01-1.67,4.7-2.08s3.44-.74,4.94-1.6,2.73-2.39,2.63-4.06c-.02-.35-.1-.71-.01-1.06.32-1.32,2.58-1.37,3.05-2.65-3.02-.4-5.72,1.59-8.4,2.98-2.93,1.53-6.21,2.42-9.53,2.6,3.04-2.93,6.89-5.08,11.05-6.16,1.19-.31,2.45-.56,3.42-1.28s1.54-2.14.86-3.13c-2,0-3.99.47-5.78,1.34-1.67.81-3.26,2-5.13,2-.19,0-.4-.02-.56-.11-.44-.26-.33-.97.08-1.28s.96-.35,1.48-.4c1.79-.18,3.55-.66,5.18-1.4,1.53-.71,3.14-2.06,2.8-3.66-.2-.98-1.12-1.71-2.12-1.97s-2.06-.12-3.07.12c-2.89.68-5.7,2.18-8.66,1.86-.05-.79.89-1.24,1.67-1.49,1.58-.5,3.16-.99,4.73-1.49.79-.25,1.72-.67,1.76-1.46.05-.87-.99-1.38-1.86-1.64-1.5-.46-3-.92-4.49-1.38-2.51-.77,1.08-1.5,1.84-1.63,1.59-.27,2.69.11,4.16.76,3.19,1.42,6.14,3.5,8.41,6.08Z"/>
  <path class="cls-1" d="M396.26,258.3c-.03.64-.07,1.3-.39,1.87s-1,.99-1.64.82c-.28-4.89-.56-9.79-.61-14.69,0-.72-.2-5.56,1.01-5.54,1,.02,1.31,2.75,1.39,3.39.61,4.62.44,9.5.23,14.15Z"/>
  <path class="cls-1" d="M386.71,237.47c-.04-.6-.09-1.24-.42-1.75s-1.03-.87-1.6-.62c-1.13,2.55-1.29,5.49-.43,8.14.22.69.73,1.49,1.48,1.39.4-.06.76-.39,1.16-.33.56.09.69.81.68,1.35-.07,3.4-.14,6.81-.21,10.21,0,.49.16,1.16.67,1.13.45-.02.6-.58.63-1.01.21-3.07.3-6.15.26-9.23-.01-.74-.02-1.52.37-2.15,1.14-1.84-.9-1.64-1.82-2.47-1.02-.92-.68-3.41-.77-4.68Z"/>
  <path class="cls-1" d="M424.46,292.93c.21,12.19,1.07,24.51,4.77,36.17,3.7,11.66,10.47,22.73,20.7,29.95.45.32.97.84.7,1.31-.09.16-.26.27-.42.37-1.26.77-2.51,1.54-3.77,2.32-.19.11-.4.23-.62.19-.18-.03-.31-.17-.44-.3-3.09-3.29-5.78-6.93-8-10.81-.63-1.1-1.43-2.36-2.72-2.47-1.22,2.68-3.13,5.07-5.52,6.9.13-1.25,1.14-2.21,1.89-3.23,2.41-3.3,2.09-8.18-.72-11.17-1.37-1.46-3.36-2.69-3.6-4.64-.07-.58.02-1.18-.19-1.73s-.92-.99-1.42-.66c-.26.17-.37.49-.47.78-1.21,3.48-4.2,6.34-7.82,7.49.71-1.44,1.64-2.78,2.77-3.95,1.44-1.51,3.19-2.76,4.42-4.44,1.74-2.4,2.24-5.47,1.98-8.39s-1.22-5.72-2.17-8.5c-.29-.86-.82-1.88-1.76-1.86-.75.02-1.25.71-1.73,1.26-1.13,1.3-2.8,2.14-4.55,2.28,1.72-1.96,3.44-3.93,5.16-5.89-.15-3.46.18-7.09.38-10.55.39-6.48-.52-12.97-1.42-19.4.9-.53,1.99-.75,3.03-.62.4,4,1.49,5.57,1.56,9.59Z"/>
  <path class="cls-1" d="M296.16,286.71c.91,7.07-.95,14.19-3.32,20.94-1.97,5.59-4.33,11.6-2.46,17.22-1.53-.14-3.19-.24-4.46.59-1.72,1.12-1.97,3.39-2.56,5.3-.59,1.91-2.44,3.97-4.36,3.23,6.4-14.23,10.08-29.59,10.79-45.08.14-3.07.15-6.23-.93-9.13-1.16-3.11-4.15-6.11-4.27-9.49,2.85-.27,6.38,4.19,7.8,6.28,2.06,3.03,3.32,6.56,3.78,10.14Z"/>
  <path class="cls-1" d="M299.29,273.16c-.28,11.78,2.71,23.79-.29,35.22-.91,3.47-2.38,6.91-2.14,10.48.02.35.08.73.37.94.57.41,1.32-.21,1.69-.79,1.12-1.78,1.78-3.79,2.89-5.57s2.86-3.39,5.02-3.56c-2.93,9.41-6.31,18.68-10.13,27.79-3.33,7.93-6.84,15.8-11,23.36,3.95.23,7.73,1.61,11.35,3.18,4.92,2.13,9.66,4.62,14.18,7.45,2.86,1.79,5.63,3.7,8.39,5.62,2.34,1.62,4.68,3.24,7.02,4.86.53-.94-.1-2.08-.72-2.98-3.96-5.73-7.92-11.46-11.88-17.18.5-.44,1.3-.08,1.85.3,8.54,5.96,14.67,14.8,23.63,20.18-5.45-9.12-16.58-13.85-22.74-22.54-.69-.98-1.33-2.06-1.36-3.24s.77-2.46,1.98-2.61c.85-.11,1.66.32,2.39.75,3.77,2.21,7.29,4.82,10.47,7.77,2.89,2.67,5.61,5.69,9.26,7.28.05-3.86-3.84-6.57-7.37-8.41s-7.57-4.07-8.22-7.88c-.19-1.12-.05-2.26.09-3.38.96-7.81,1.91-15.62,2.87-23.43.08-.63.52-1.48,1.12-1.21.31.14.41.52.46.84.43,2.59.86,5.18,1.29,7.77.29,1.75.6,3.56,1.55,5.08.85,1.37,2.16,2.41,3.45,3.42,2.71,2.13,5.41,4.26,8.12,6.39.49-1.9-.93-3.8-2.57-4.96s-3.6-1.93-5.01-3.34c-1.35-1.34-2.08-3.12-2.78-4.86-.85-2.11-1.72-4.27-1.86-6.54-.2-3.21,1.15-6.47,3.58-8.67,1.47-1.33,1-4.23-.08-5.88-.31-.48-.72-.91-.89-1.46-.25-.83.15-1.73.72-2.4s1.31-1.2,1.9-1.85c1.01-1.1,1.57-2.57,1.56-4.04,0-.53-.23-1.2-.78-1.23-.86-3.94-1.2-8.59-.03-12.46,1.43-4.75,5.83-8.87,5.12-13.77-6.76-.18-13.53-.37-20.29-.55-5.36-.15-10.79-.3-15.95-1.72-2.31-.64-4.66-.43-6.25-2.16Z"/>
  <path class="cls-1" d="M378.81,211.99c0,.43-.28,1.05-.67.85-.81-1.31-.86-2.91-.91-4.43-.18-5.06-.62-10.11-1.34-15.13-.04-.26-.08-.54-.27-.73-.19-.19-.49-.25-.76-.29-1.51-.22-3.04-.3-4.56-.22-.25,8.22-.63,16.44-1.14,24.65-.06,1.03-.41,2.34-1.47,2.43-.39-8.28-.78-16.56-1.17-24.84-.02-.44-.04-.9.12-1.31.48-1.23,2.18-1.44,3.55-1.44,1.57,0,6.1-.8,7.38,0,1.66,1.04,1.04,3.6,1.06,5.45.06,5,.18,10.01.18,15.02Z"/>
  <path class="cls-1" d="M413.95,217.89c.04,1.05.07,2.13-.32,3.11s-1.31,1.85-2.41,1.85c-.28-6.62-.55-13.24-.83-19.86-.08-1.8-.17-3.68-1.11-5.25-1.85-3.1-6.1-3.8-9.15-5.84.53-1.04,1.98-1.18,3.18-1.18,1.72,0,8.26-.95,9.46.14s.44,6.98.5,8.52c.22,6.15.67,12.34.67,18.49Z"/>
  <path class="cls-1" d="M283.67,156.65c.84,1.21,1.88,2.48,3.37,2.72-.25-3.93-2.55-7.41-4.44-10.9-3.1-5.71-5.25-11.89-6.37-18.24,5.57,1.19,11.1,2.53,16.6,4,1.02.27,2.08.58,2.83,1.29.63.6.96,1.43,1.28,2.23,2.58,6.58,5.16,13.15,7.73,19.73,1.58-2.55.89-5.81-.12-8.62s-2.32-5.7-1.82-8.63c1.05.84,1.56,2.13,2.02,3.37,5.49,14.55,10.67,29.21,15.52,43.96.25.76.51,1.54,1.05,2.14,1.44,1.62,4.08,1.31,6.24.86-.18-9.97-6.7-19.26-5.95-29.21,3.98,9.33,7.95,18.66,11.93,27.98.32.75.68,1.55,1.41,1.95.6.33,1.33.32,2.02.3,3.75-.1,7.5-.2,11.25-.31-4.18-11.95-10.81-22.95-17.4-33.85,7.41,4.29,8.7,15.34,16.64,18.63.54-4.93-2.95-9.32-6.1-13.24-5.43-6.75-10.5-13.93-13.35-22.01-.39-1.11-.76-2.27-1.54-3.18-1.46-1.7-3.97-2.1-6.25-2.38-10.3,0-21.3-2.62-31.52-3.87-2.67-.33-12.46-3.05-14.41-1.14s1.45,10.09,2.22,12.32c1.72,4.98,4.13,9.74,7.16,14.1Z"/>
  <path class="cls-1" d="M313.5,200.28c-1.11,5.63-1.65,11.34-2.18,17.04-.03.34-.04.74.23.96.55.45,1.26-.36,1.48-1.01,2.05-5.99,3.23-12.24,3.52-18.54.05-1.04.73-7.92-1.31-6.97-1.16.54-1.46,7.12-1.74,8.52Z"/>
  <path class="cls-1" d="M419.99,154.65c-1.45,2.35-2.96,4.98-2.43,7.67.91.37,1.79-.52,2.34-1.31,1.66-2.37,3.33-4.75,4.99-7.13,1.32-1.88,2.64-3.78,3.54-5.88.86-2,1.65-4.86.63-6.87-3.83,1.83-6.89,9.99-9.06,13.51Z"/>
  <path class="cls-1" d="M431.56,153.25c-5.27,9.07-10.16,18.33-15.06,27.59,1.36.06,2.5-.92,3.45-1.85,7.96-7.82,14.27-17.16,18.52-27.31.7-1.67,5.46-13.64,2.99-13.48-1.5.09-4.54,6.23-5.26,7.36-1.61,2.53-3.14,5.1-4.64,7.69Z"/>
  <path class="cls-1" d="M447.68,151.41c-2.01,4.28-4.23,8.82-8.37,11.31,5.49-8.49,9-18.16,10.21-28.09.27-2.2.55-5,2.68-6.27.58,3.9,1.36,6.45.35,10.58-1.06,4.33-2.97,8.42-4.86,12.47Z"/>
  <path class="cls-1" d="M452.55,124.66c.56,1.59,1.06,3.35.43,4.91s-2.87,2.59-4.19,1.48c1.93-5.39.54-11.44-2.13-16.53-2.67-5.09-6.54-9.5-9.94-14.18-6.73-9.28-11.64-19.76-14.4-30.75,1.18,3.79,4.51,6.29,7.58,8.66,3.16,2.44,4.45,3.67,5.1,7.43,1.54,8.84,6.95,17.12,11.11,25,2.4,4.54,4.72,9.14,6.43,13.97Z"/>
  <path class="cls-1" d="M309.93,77.15c5.89-6.09,11.81-12.15,17.75-18.19,1.09-1.1,2.21-2.24,3.66-2.85-2.73,9.96-10.25,17.96-15.31,27.04-2.5,4.5-4.43,9.31-7.43,13.52-.82,1.16-2.05,2.39-3.48,2.13.39-3.69,2.49-6.97,4.44-10.17,3.86-6.31,7.33-12.83,10.4-19.53-.68.07-1.22.57-1.7,1.05-7.92,7.84-15.85,15.68-23.77,23.52,4.18-8,10.3-15.05,17.74-20.44"/>
  <path class="cls-3" d="M362.59,438.7c2.98-16.57,17.33-28.72,30.8-39.46,22.65-18.05,46.55-36.7,75.36-42.43,44.33-8.81,90.91,16.98,113.93,54.46,6.6,10.74,11.59,22.31,15.85,34.09,6.14,16.99,9.12,33.97,9.24,51.93.12,17.49-8.33,34.53-14.04,51.17-5.44,15.84-10.9,31.75-18.72,46.65-9.61,18.32-22.58,34.78-35.65,50.99-21.65,26.88-43.76,53.42-66.31,79.6-7.02,8.15-15.01,15.02-25.51,18.19-57.4,17.31-119.42,16.32-178.6,5.95-11.67-2.04-23.67-4.61-33.25-11.35-7.88-5.55-13.49-13.49-18.94-21.28-15.43-22.02-30.86-44.05-46.29-66.07-8.14-11.62-15.54-23.72-23.52-35.44-5.67-8.33-11.35-16.67-16.36-25.37-14.31-24.86-23.07-52.66-25.5-80.98-2.85-33.12-6.82-69.22,12.07-97.05,7.41-10.92,17.72-19.7,27.89-28.33,11.27-9.56,22.9-19.33,37.04-24.23,9.8-3.39,20.34-4.26,30.74-4.6,17.62-.57,35.28.31,52.74,2.63,9,1.2,18.01,2.79,26.49,5.9,9.78,3.58,18.64,9.1,27.41,14.6,11.38,7.14,22.91,14.49,31.52,24.59,8.61,10.11,14.5,23.07,11.6,35.83Z"/>
  <path class="cls-3" d="M419.25,188.06c1.5-1.06,2.64-2.59,3.69-4.09,4.75-6.81,10.38-13,16.13-19.03,5.66-5.95,10.03-11.95,14.61-18.74,3.79-5.62,6.6-11.84,8.28-18.34.77-2.97,1.28-6.2.06-9.03-5.45-12.62-15.74-22.55-25-32.63-11.3-12.3-22.21-24.93-34.13-36.68-12.43-12.25-25.28-24.64-41.25-32.19-5.74,2.52-10.37,6.61-14.4,11.27-11.31,13.11-23.42,25.59-36.25,37.35s-22.74,26.79-33.15,41.63c-3.69,5.26-7.44,10.66-9,16.82-2.25,8.88.39,18.39,5.17,26.3,4.78,7.9,11.56,14.49,18.26,20.97,6.24,6.04,8.46,13.96,16.8,16.83,3.9,1.34,8.09,1.6,12.22,1.84,7.51.45,15.01.9,22.52,1.34,8.1-.4,16.19-.81,24.29-1.21,7.13-.36,14.26-.71,21.39-1.07,7.57-.38,15.27.54,22.91.33,1.94-.05,3.95-.15,5.69-.97.42-.2.8-.43,1.17-.69Z"/>
  <path class="cls-3" d="M421.59,226.58c10.6-1.14,21.63,4.66,26.34,13.86,1.51,2.95,2.42,6.28,1.95,9.54-1.19,8.2-10.11,12.93-14.96,19.77-6.92,9.77-4.91,22.79-2.63,34.4,2.52,12.81,7.71,25.52,13.54,37.28,2.38,4.8,5.2,9.78,10.02,12.39,5.06,2.74,11.25,2.32,17.03,1.81"/>
  <path class="cls-3" d="M308.46,189.47c-1.87,10.5-3.73,21-5.6,31.5-.15.87-.35,1.8-1.03,2.39-.85.73-2.13.66-3.26.6-6.49-.35-13.07,1.06-18.8,4.01-2.46,1.27-4.82,2.87-6.4,5.1-1.52,2.15-2.21,4.74-2.68,7.29-1.06,5.68-1.18,11.78,1.44,16.97,2.53,5.01,7.28,8.57,11.14,12.72,8.14,8.75,5.53,20.65,3.99,31.43-1.7,11.88-4.84,23.57-9.35,34.75-1.02,2.52-2.12,5.04-3.81,7.2-3.76,4.79-10.01,7.22-16.17,8.14-6.17.92-12.46.53-18.69.87-5.18.28-10.34,1.06-15.36,2.33"/>
  <path class="cls-3" d="M420.96,185.01c-3.53,10.1-3.52,20.97-3.49,31.63.01,2.93.03,5.89.8,8.72.15.54.36,1.12.84,1.42.38.24.86.26,1.32.27,1.57.03,3.14-.03,4.7-.16,1.96-.17,3.95-.45,5.87-.04"/>
  <path class="cls-3" d="M244.16,743.64c-7.76,6.74-14.79,14.26-20.94,22.39-1.73,2.29-3.45,4.81-3.51,7.64-.07,3.62,2.6,6.72,5.31,9.24,10.69,9.91,24.61,16.54,39.28,18.73,18.9,2.82,35.97,5.57,55.08,6.31,5.65.22,11.31.29,16.97.35,15.57.15,31.13.12,46.7-.07,7.01-.09,14.25-.25,20.67-2.97,17.18-7.27,38.38-2.8,54.02-12.78,8.06-5.15,14.52-12.29,20.38-19.7.89-1.12,1.79-2.3,2.1-3.68.8-3.49-2.29-6.59-5.09-8.93-7.37-6.17-14.75-12.33-22.12-18.5"/>
  <path class="cls-3" d="M296.59,222.7c18.11,7.53,38.83,3.76,58.55,4.47,5.15.19,10.28.69,15.42,1.05,17.91,1.27,35.95.82,53.76-1.32"/>
  <path class="cls-3" d="M278.32,242.67c-1.15,11.8,7.75,22.83,18.72,28.23,10.97,5.4,23.67,6.33,35.98,6.91,27.71,1.32,55.48,1.44,83.22.76,3.57-.09,7.44-.1,10.3,1.96,4.88,3.51,4,9.57,4,14.69"/>
  <path class="cls-3" d="M219.8,774.01c11.56,8.17,25.38,13.01,39.45,15.73,14.07,2.72,28.46,3.42,42.8,3.97,20.33.77,40.67,1.26,61.01,1.45,19.69.18,38.69-4.76,58.27-6.71,10.17-1.01,20.43-1.52,30.42-3.58s19.87-5.79,27.41-12.43"/>
  <path class="cls-3" d="M322.12,267.63c29.43-.59,58.85-1.17,88.28-1.76,8.38-.17,16.85-.34,24.96-2.36,5.03-1.25,10.44-3.77,11.94-8.55,1.26-.6,2.16-1.75,2.46-3.07"/>
  <path class="cls-3" d="M267.66,128.36c4.5-.56,9.03.54,13.45,1.52,52.84,11.66,107.91,6.79,161.87,1.86,6.59-.6,13.23-2.61,18.42-6.56.51-.39,1.23-.46,1.63-.95"/>
  <path class="cls-3" d="M361.37,18.37c3.5,5.04,7.01,10.08,10.51,15.12,15.4,22.16,30.87,44.45,42.15,68.79,4.89,10.55,13.02,19.44,18.03,29.93"/>
  <path class="cls-3" d="M297.31,133c12.16-26.41,27.19-51.61,44.76-75.04,6.72-8.97,12.45-18.44,16.63-28.74,1.13-2.79,2.15-5.67,3.94-8.13.44-.61-.02-1.08.11-1.81"/>
  <path class="cls-3" d="M382.87,136.27c.68-21.15-7.38-42.04-5.49-63.11,1.69-18.82-8.64-36.95-14.95-54.84"/>
  <path class="cls-3" d="M340.85,135.8c2.24-10.8,4.74-21.55,7.51-32.24,1.21-4.66,2.38-8.52,2.03-13.24s.55-9.76,1.51-14.45c3.89-18.91,13.65-37.51,10.89-57.22"/>
  <path class="cls-5" d="M151.93,552.45c-1.07,5.1-2.15,10.19-3.33,15.27-.23,1-.47,2.02-.45,3.04.06,3.42,3.37,6.48,6.93,6.4-.16.57-.33,1.13-.49,1.7-5.73-1.29-11.51-2.26-17.35-2.99-.66-.08-1.39-.19-1.83-.68s-.26-1.46.41-1.51c1.99,1.16,4.7.49,6.41-1.01s2.63-3.67,3.34-5.8c.73-2.18,1.29-4.41,1.7-6.66,1.87-10.5,4.56-20.87,7.25-31.22.48-1.83-1.31-3.48-2.98-4.47-1.92-1.13-4.05-1.92-6.26-2.31,1.4-.28,2.85-.02,4.26.25,6.56,1.25,13.09,2.61,19.6,4.09,1.73.39,2.05,2.8,2.4,4.47s.34,3.4.43,5.1c.52,9.84,4.37,19.25,5.62,29.03,1.84-1.93,3.83-3.87,5.41-6,1.41-1.91,2.29-4.21,3.67-6.2,1.35-1.96,2.7-3.91,4.06-5.87.57-.82,1.15-1.66,1.93-2.3.34-1.04,1.19-1.77,1.96-2.57,1.72-1.8,3.03-3.91,4.34-6.01.4-.65.8-1.29,1.21-1.94-.31-.67-.36-.96.36-1.2s1.5-.07,2.24.09c6.7,1.49,13.41,2.97,20.11,4.46l-.31,1.37c.18-.81-6.45-.8-7.28,0-.78.76-1.06,2.73-1.41,3.75-.53,1.53-1.03,3.06-1.51,4.61-1.91,6.17-3.42,12.47-4.5,18.83-.96,5.65-2.8,11.18-2.44,16.89.09,1.35.26,2.76,1.1,3.85,1.3,1.68,3.73,2.02,5.91,2.23-.17.38-.34.77-.52,1.15-.26.59-12.14-2.52-13.15-2.72-4.97-1-9.98-1.82-15.01-2.47-.9-.11-2.08-.61-1.84-1.45.13-.46.69-.69,1.18-.67s.95.25,1.41.42c1.69.63,4.32.53,5.68-.77.57-.54.86-1.29,1.14-2.02,3.73-9.75,5.19-20.47,7.42-30.65.8-3.66,1.25-7.12,1.92-10.8-5.33,5.33-10.01,11.25-13.92,17.61-5.49,8.93-12.16,17.32-18.37,25.81-2.96-11.78-4.97-23.78-5.99-35.86-.5-5.86-3.02-10.95-5.02-16.5-.24-.09-.42.21-.48.45-1.85,7.23-3.39,14.52-4.92,21.81Z"/>
  <path class="cls-5" d="M274.63,551.96c-2.39-2.32-4.84-4.69-7.92-6.09-2.79-1.26-5.92-1.63-8.98-1.99-3.65-.42-7.37-.84-10.98-.18-2.11.39-4.13,1.15-6.05,2.08-3.54,1.72-6.81,3.99-9.47,6.82-4.45,4.75-7.55,11.13-7.2,17.51.26,4.68.56,9.52,2.8,13.69.99,1.85,2.34,3.49,3.69,5.12,3.04,3.66,6.26,7.39,10.62,9.49,2.6,1.25,5.47,1.86,8.35,2.23,2.74.36,5.56.52,8.25-.09,2.78-.62,5.72-.68,8.26-1.94,2.59-1.28,4.8-3.15,6.98-5,2.35-1.99,4.73-4.03,6.35-6.6,2.18-3.47,2.21-7.27,3.48-10.99-4.14-1.9-10.15-2.18-14.7-2.66-.47,3.15-.48,6.41-1.37,9.48-1.2,4.18-3.27,8.26-6.68,11.1-3.41,2.84-8.33,4.23-12.58,2.78-5.03-1.71-7.96-6.79-9.37-11.74-.71-2.49-1.55-5.08-1.25-7.64.68-5.7,1.38-11.49,3.64-16.8.91-2.13,2.06-4.15,3.3-6.12,2.07-3.28,4.68-6.62,8.51-7.68,4.6-1.28,9.77.49,12.94,3.94,3.18,3.45,4.47,8.2,4.52,12.8s-1.05,9.14-2.14,13.62c3.51.67,7.02,1.35,10.53,2.02.74.14,1.52.28,2.22.02.77-.29,1.27-1.01,1.65-1.73,1.84-3.52,1.79-7.74.71-11.54-1.08-3.8-3.1-7.28-5.11-10.72-.81-1.4-1.86-2.04-3.03-3.18Z"/>
  <path class="cls-5" d="M299,560.8c-2.01,12.1-2.98,24.37-2.88,36.63.01,1.47.02,3.01-.71,4.3-.82,1.45-2.47,2.32-4.15,2.64-1.68.32-3.41.17-5.12.02-.03.3-.06.6-.09.9,11.4.72,22.8,1.43,34.19,2.15,1.24.08,2.48.16,3.71,0,1.08-.14,2.13-.46,3.16-.83,7.83-2.83,14.39-8.76,17.79-16.11,1.22-2.63.96-5.35,1.22-8.23.22-2.47-.41-4.94-1.03-7.35-1.22-4.75-2.55-9.69-5.89-13.37-11.21-12.36-30-7.73-44.73-10.12-1.63-.27-6.99,1.14-2.96,1.75,4.79.72,9.67.67,14.52.91,4.85.25,9.76.83,14.19,2.73,4.43,1.9,8.36,5.3,9.87,9.73.76,2.24.88,4.63.99,6.98.17,3.49.33,6.98.5,10.47.15,3.11-1.39,6.13-2.6,9.02-1.53,3.63-3.56,7.23-6.87,9.52s-8.15,2.88-11.39.51c-.53-.39-1.02-.86-1.28-1.46-.31-.69-.27-1.47-.23-2.22.72-13.21,3.37-26.22,3.59-39.47.02-1.41.15-2.64.26-4.04.04-.49.06-1.03-.27-1.41-.3-.36-.81-.46-1.29-.54-2.6-.43-5.22-.73-7.85-.9-1.01-.06-2.02-.11-3.01.08-.44.08-.9.23-1.16.58-.2.28-.23.64-.25.97-.19,2.65.22,3.52-.22,6.14Z"/>
  <path class="cls-5" d="M407.32,557.12c-.08,6.36-.16,12.73-.23,19.09-.64-.41-.96-1.14-1.27-1.82-2.26-4.88-6-9.12-10.62-12.09-1.16-.74-2.38-1.41-3.71-1.83-1.48-.46-3.05-.6-4.6-.62-3.25-.03-6.59.49-9.39,2.08-4.85,2.73-7.57,7.42-8.73,12.59-.81,3.65-.91,7.4-1.01,11.13-.06,2.2-.11,4.4-.09,6.61.02,2.4.15,4.86,1.09,7.09.91,2.16,2.53,3.97,4.11,5.73,3.17,3.52,7.98,6.09,12.92,6.14,3.25.03,6.71-1.53,7.92-4.43.39-.93.53-1.94.64-2.94.29-2.67.36-5.36.22-8.04-.06-1.16-.19-2.39-.92-3.31-.41-.53-.99-.91-1.59-1.22-1.31-.68-2.78-1.06-4.27-1.1-.46-.01-.97-.02-1.29-.33s-.12-1.02.33-.93c9.08,1.86,18.54-.35,27.83-.5.37.66-.08,1.51-.71,1.94s-1.43.6-2.14.89c-2.41.98-3.89,3.4-4.47,5.86s-.39,5-.4,7.52c0,.74-.03,1.5-.3,2.2-1.06,2.7-4.83,3.76-7.38,4.62-3.15,1.06-6.43,1.74-9.76,2.04-6.64.6-13.45-.32-19.61-2.79-5.13-2.06-9.66-5.39-13.45-9.29-1.04-1.07-2.02-2.2-2.75-3.48-2.11-3.74-1.8-8.25-1.43-12.49.26-2.95-.31-6.17.62-8.99.52-1.57,1.34-3.03,2.25-4.41,3.2-4.85,7.56-8.99,12.66-11.98,3.92-2.3,7.49-3.24,12.04-3.89,3.17-.45,6.44-.77,9.54,0,2.17.54,4.15,1.59,6.11,2.63,1.21.64,2.38,1.33,3.69,1.74,1.31.42,2.81.49,4.05-.1,1.72-.82,2.6-2.68,3.14-4.46.09-.29.26-.64.57-.61.26.03.39.33.38.58s.02.9.01,1.16Z"/>
  <path class="cls-5" d="M449.13,555.9c-9.58,1.56-19.39-.3-29.1-.08v1.19c2.5.09,5.29.3,6.94,2.11.94,1.03,1.33,2.42,1.59,3.78.63,3.38.58,6.84.37,10.26-.2,3.17-.02,6.19-.08,9.36-.13,7.36-.34,14.72-.62,22.07-.04.96-.11,2.01-.8,2.7-.41.41-.97.63-1.53.8-1.5.46-3.09.65-4.66.55-.64-.04-1.57.2-1.39.78.12.36.61.44,1.01.44,9.73.11,19.46.21,29.19.32.56-.38.24-1.31-.37-1.6s-1.33-.2-2.02-.2c-2.16,0-4.35-1.15-5.29-3.02-.47-.93-.62-1.97-.74-3-.5-4.39-.43-8.84.2-13.21,1.27-8.77-.06-17.34.02-26.19,0-.94-.18-1.82.29-2.65.24-.42.59-.78.98-1.09,1.19-.96,2.73-1.52,4.28-1.54.53,0,1.08.04,1.59-.09s1.01-.51,1.06-1.02-.4-.77-.92-.68Z"/>
  <path class="cls-5" d="M456.27,553.39c-.13.52.35,1.03.89,1.18s1.11.05,1.67.03c2.56-.1,5.1,1.55,5.95,3.88.33.9.42,1.87.49,2.82.47,6.16.04,12.26.41,18.42.39,6.59.78,13.18,1.18,19.77.11,1.89.04,4.02-1.3,5.4-1.48,1.53-3.95,1.47-6.11,1.67-.17.02-.35.04-.46.15-.21.2-.08.57.17.72s.57.14.86.13c9.8-.37,19.61-.74,29.41-1.1.54-.57-.05-1.55-.82-1.76s-1.58.06-2.36.2c-2.25.4-4.87-.47-5.84-2.46-.46-.94-.51-2.01-.56-3.04-.09-1.9-.18-3.8-.26-5.7-.18-3.9-.29-7.92-.36-11.82,0-.23,0-.47.07-.69.18-.54.78-.86,1.36-.94s1.17.04,1.76.1c.97.09,1.95.02,2.91.16,2.57.36,4.73,2.2,6,4.38,1.27,2.18,1.78,4.69,2.14,7.17.08.53.32,1.2.87,1.19.6-.01.76-.8.74-1.38-.07-1.44-.13-2.88-.2-4.32-.25-5.37-.61-10.73-.91-16.1-.1-1.82-.31-3.64-.4-5.47-.03-.61-.43-1.45-1.01-1.19.57,3.45-.65,7.12-3.19,9.62-2.54,2.49-6.34,3.74-9.94,3.27-.19-.03-.41-.07-.53-.21-.1-.13-.11-.3-.12-.46-.22-6.91-.44-13.82-.65-20.74,0-.25,0-.54.19-.72.14-.13.35-.16.55-.18.71-.09,1.41-.17,2.12-.26,4.05-.5,7.84-.8,11.84-.06,4.01.74,7.94,3.05,9.43,6.71.58,1.42.76,2.95,1.17,4.42.09.31.29.69.62.65.36-.04.44-.51.42-.86-.24-4.54-.48-9.08-.72-13.62-.01-.25-.04-.53-.24-.69-.16-.12-.38-.14-.58-.14-2.36-.08-4.74-.2-7.1-.16-2.33.04-4.67.38-7,.55-2.43.17-4.87.32-7.3.43-2.37.11-4.81.03-7.16.27-4.77.49-9.51.87-14.31.85-.37,0-3.69-.25-3.77-.07Z"/>
  <path class="cls-5" d="M529.06,560.46c.42,9.59.84,19.18,1.65,28.75.14,1.62.32,3.15.32,4.78,0,.5-.01,1.01-.2,1.47-.2.49-.59.88-1,1.23-1.25,1.04-2.81,1.74-4.45,1.98-1.1.16-2.26.13-3.29.55-.2.08-.42.22-.4.42.02.26.38.33.65.32,8.25-.14,16.45-1.59,24.69-1.27,1.66.06,3.32.2,4.98.21.41,0,.84,0,1.19-.2s.61-.62.46-.98c-.17-.42-.72-.52-1.19-.56-1.27-.12-2.53-.24-3.8-.35-1.06-.1-2.17-.22-3.02-.83-1.33-.96-1.56-2.75-1.69-4.34-.18-2.27-.35-4.55-.53-6.82-.76-9.79-.65-19.17-1.07-28.98-.1-2.31-.25-4.55-.25-6.86,0-.33.03-.73.33-.9.15-.09.32-.1.5-.11,1.48-.08,2.96-.16,4.44-.24,1.17-.06,2.36-.12,3.48.18,1.78.48,3.16,1.79,4.45,3.05,1.93,1.88,3.97,3.95,4.36,6.57.1.65.09,1.33.36,1.94.08.18.22.37.42.4.39.04.51-.48.48-.86-.16-2.11-.38-4.22-.66-6.32s-.2-4.23-.28-6.35c-.01-.27-.02-.54-.14-.78-.24-.51-.85-.74-1.42-.87-3.55-.81-7.49.06-11.06.3-4.08.27-8.18.19-12.26.34-1.6.06-3.2.16-4.8.26-5.34.33-10.68.65-16.02.98-.88.04-1.77.03-2.65.06-.21,0-.43.02-.62.12-.23.13-.36.38-.45.63-.57,1.5-.37,3.15-.24,4.74.24,2.9.23,5.83-.02,8.73-.03.4,0,.92.4,1.04.26.08.56-.09.7-.32s.17-.51.2-.77c.26-2.38.84-4.76,2.09-6.83s3.23-3.8,5.62-4.44c1.07-.29,2.18-.35,3.29-.42,1.33-.08,2.67-.16,4-.23.34-.02.71-.03.99.15.32.2.44.58.54.94.96,3.49.75,6.89.91,10.49Z"/>
  <path class="cls-3" d="M605.6,465.67c-12.66,5.41-24.18,12.97-36.22,19.57-41.83,22.94-89.84,34.18-137.88,37.38-47.32,3.15-94.57-2.76-141.45-5.62-44.73-2.73-89.45-9.92-131.79-24.36-19.37-6.61-38.18-14.74-56.02-24.55-2.48,24.41,1.7,52.34,9.65,75.65,7.95,23.31,19.44,45.35,31.6,66.91,1.63,2.89,13.25,5.21,16.46,6.17,6.44,1.93,13.03,3.36,19.67,4.53,13.42,2.36,27.04,3.48,40.58,4.94,27.21,2.94,54.5,8.45,81.75,12.21,17.06,2.35,34.14,4.62,51.32,5.86,49,3.53,98.65-1.48,145.82-14.7,14.75-4.13,27.47-6.73,42.12-11.19,9.53-2.9,19.45-6.02,26.49-12.84,5.92-5.73,9.16-13.46,12.26-20.97,7.52-18.23,15.03-36.47,22.55-54.7,7.94-19.27,7.46-43.99,3.09-64.29Z"/>
</svg>