<?xml version="1.0" encoding="UTF-8"?>
<svg id="Layer_3" data-name="Layer 3" xmlns="http://www.w3.org/2000/svg" viewBox="0 0 708.66 822.05">
  <defs>
    <style>
      .cls-1 {
        fill: #b3b3b3;
      }

      .cls-1, .cls-2, .cls-3, .cls-4, .cls-5 {
        stroke: #000;
        stroke-miterlimit: 10;
      }

      .cls-1, .cls-5 {
        stroke-width: 3px;
      }

      .cls-2, .cls-3 {
        stroke-width: .75px;
      }

      .cls-6 {
        font-family: TimesNewRomanPS-BoldMT, 'Times New Roman';
        font-size: 30px;
        font-weight: 700;
      }

      .cls-3, .cls-4, .cls-5 {
        fill: none;
      }

      .cls-4 {
        stroke-width: 5px;
      }

      .cls-7 {
        letter-spacing: -.07em;
      }
    </style>
  </defs>
  <path class="cls-1" d="M125.91,508.25s1.13,51.24-71.93,48.62c0,0-45.93-37.36-36.5-70.49,0,0,15.43-69.13,41.43-88.13,0,0,24.97-29.66,39.99-33.33l5.01-2.67v-4l5.01-3.47,3.74-6.6,9.25-2.38,10.25-3.09,82.18-18.14,24.66-1.54,2.52-3.62-5.01-19.17-1.24-13-.36-13-9.46-5.07-6.01,3.18,2.6,6.95-7.4-.76,1.14-10.78,12.52-3.66,10.15,4.5,9.47,18.65,10.46-.99s32.52-20.82,46.53,11.08l-.12,5s-11.35,12.11-36.11-1.99l-9.76,1.9,9.76,8.31,6.24,14.69,41.65,1.78,3.35.22,4.43-8.67,4.71,2.63,1.85,6.04,207,3v-10.68l6,.68,6,10,124.73.97,10.59-2.17,6.68,8.53v30.67l-6.03,9.79-6.86-1.79-8.98.56-4.77,7.77-5.35-7.47-128.42,1.57-186.58,3.57-5,3-36-1-42.25.97-34.5,19.81-4.2,7.43,5.78,8.18-12.96-.62-5.16-6.32,5.16-10.44.71-3.48-8.05-1.04-4.03-5.49-14.27,2.81-23.81,5.68-34.16,23.63-17.25,20.03-5.99,20.97s-9.01,16.89,16.99,41.89Z"/>
  <path class="cls-1" d="M165.06,405.25l11.85,4.34,12.72,9.25,6.44,11.65-3.54,7.1-9.51-3.6-9.11-2.74-4.5,2.44,6.3,9.81,17.55,3.26,12.65-4.51s35.72,11.32,52.86-4.34c17.14-15.66,23.14-23.66,23.14-23.66l6.92-18.69,15.08-11.31-24.85.57-8.59,15.32-13.56,24.11-16,11-22.97-.93-16-10.47-9.19-15.57-5.39-12.08"/>
  <path class="cls-4" d="M52.41,556.75s68,7,76-48c0,0-37-24-12-66,0,0,6.5-15.5,43.5-35.5,0,0,25-4,36,22,0,0,2,9-7,9,0,0-9-8-15-7,0,0-13,5,5,14,0,0,10,6,27-3,0,0,21,8,42,1,0,0,24-8,34-31,0,0,1-19,22-28l36,1,5-3,314-6h1.3s3.35,19,10.02,0h8.78s5.89,10,12.89-8v-30.67s-4-14.33-14-6.33l-128-1s-4-17-12-9c0,0-2,1,0,9l-207-3s-4-21-11,0l-45-3s-6-20-16-22c0,0,9-5,18,1,0,0,16,11,30-2,0,0-4-22-31-21,0,0-7-2-17,7h-11s0-6-5-9c0,0,2-13-18-13,0,0-15,2-10,14,0,0,11,8,6-3l-2-1s-3-4,8-5c0,0,12-1,8,19v7s9,21,6,27c0,0-26-5-115,23,0,0-15-5-15,8l-7,4v4s-72.67,33.51-87.09,128.16c-.32,2.09-.91,36.84,35.59,66.34Z"/>
  <line class="cls-5" x1="677.91" y1="332.25" x2="679.02" y2="376.25"/>
  <path class="cls-5" d="M274.91,325.25s13,47-24,54c0,0-22,3-21-20,0,0-3-3,11-36"/>
  <path class="cls-5" d="M277.91,336.25h25.1s9.9,17,20.9,16l17.93-.94h1.85s5.23-15.06,12.23-2.06l1,1h11s16,6.64,0,12.82c0,0-10,9.18-42,13.18l-70.21,1.79"/>
  <path class="cls-5" d="M235.43,336.85s-43.52,4.4-62.52,31.4c0,0,30,17,73,12l17.06-2.21"/>
  <path class="cls-5" d="M103.91,362.25s13,20,35,1c0,0,13,1,13-12,0,0,5.61-11.02,85.31-19.01"/>
  <path class="cls-5" d="M306.59,341.4s1.32-14.16,22.32-12.16c0,0,13,4,15,17v2.38l-.23,2.68"/>
  <path class="cls-4" d="M279.02,385.59s.02.05.03.08c.09.39-.55.82-.8,1.07-.74.74-1.43,1.53-2.08,2.35-2.2,2.72-4.06,5.72-5.7,8.81-2.25,4.25-4.09,8.7-5.65,13.25,0,0-5.91,26.11-37.91,25.11,0,0-23-1-32-24l-6-11s-5-9,17-7c0,0-1,8,14,5-.81.16-2.11,1.9-2.65,2.45-1.78,1.79-3.45,3.74-4.74,5.91s-2.28,4.59-1.79,7.05c.62,3.06,3.49,4.83,6.21,5.86,2,.76,4.1,1.21,6.2,1.55,1.35.21,2.72.37,4.08.49,1.18.1,2.55.59,3.73.3,1.35-.32.9-1.09-.22-1.32-.72-.15-1.38-.51-2.01-.89-1.3-.78-2.48-1.78-3.57-2.83-1.74-1.66-3-3.87-2.55-6.34.48-2.65,2.56-4.78,4.54-6.43,4.05-3.37,8.96-5.71,13.75-7.78,0,0,10.78-2,18.39-12,5.97,0,11.95,0,17.92,0,.42,0,1.58-.17,1.8.34Z"/>
  <path class="cls-4" d="M188.42,396.23s-11.51-.99-28.51,11.01"/>
  <path class="cls-5" d="M172.91,368.25s-161,44-96,161c0,0,13,24-24.5,27.5"/>
  <path class="cls-5" d="M125.91,508.25s-6.97,38.16-47.49,25.08"/>
  <line class="cls-5" x1="234.91" y1="292.07" x2="249.42" y2="287.25"/>
  <path class="cls-5" d="M273.6,292.07s7.3-13.83,14.3,1.17c0,0-8.61,11.65-14.3-1.17Z"/>
  <path class="cls-5" d="M305.91,300.25s-5-5-18-7"/>
  <path class="cls-5" d="M253.92,319.51c-.31.1-.59.27-.87.44-.61.36-.73,1.71-.96,2.42-.28.88-.57,1.75-.88,2.62-1.61,4.64-3.48,9.2-5.56,13.65-1.65,3.53-3.44,7-5.36,10.39-1.82,3.21-3.99,6.14-3.92,10,.05,2.76.85,5.6,2.12,8.06,1.11,2.14,2.79,4.1,5.17,4.79,3.29.96,6.77-.6,9.52-2.31,4.03-2.5,7.5-5.88,10.71-9.33.11-.12.2-.28.3-.41,1.05-1.53,1.89-3.23,2.57-4.95,1.18-3.01,1.84-6.23,1.89-9.47.07-4.38-1.01-8.7-2.93-12.62-1.23-2.52-2.79-4.88-4.56-7.06-1.03-1.27-2.13-2.49-3.28-3.65-.62-.63-1.27-1.24-1.92-1.84-.54-.49-1.08-.96-1.87-.78-.06.01-.13.03-.19.05Z"/>
  <path class="cls-5" d="M252.38,350.92c1.79.1,3.54.97,4.65,2.38,1.52,1.92,1.72,4.73.69,6.95s-3.2,3.83-5.58,4.42c-1.85.46-3.89.31-5.57-.6s-2.94-2.64-3.09-4.54c-.11-1.44.39-2.87,1.1-4.12,1.46-2.57,4.78-4.66,7.79-4.48Z"/>
  <line class="cls-5" x1="677.91" y1="356.16" x2="593.41" y2="356.16"/>
  <line class="cls-5" x1="375.02" y1="357.88" x2="413.04" y2="357.88"/>
  <line class="cls-3" x1="678.43" y1="353.05" x2="623.9" y2="354.25"/>
  <line class="cls-3" x1="676.91" y1="351.25" x2="637.91" y2="352.25"/>
  <line class="cls-3" x1="676.91" y1="349.19" x2="642.91" y2="350.25"/>
  <line class="cls-3" x1="676.91" y1="346.94" x2="655.43" y2="346.94"/>
  <line class="cls-3" x1="676.91" y1="345.01" x2="661.22" y2="345.01"/>
  <line class="cls-3" x1="676.91" y1="343.24" x2="659.91" y2="343.24"/>
  <line class="cls-3" x1="676.91" y1="341.15" x2="657.41" y2="341.15"/>
  <line class="cls-3" x1="676.91" y1="339.22" x2="653.34" y2="339.22"/>
  <line class="cls-3" x1="676.91" y1="336.65" x2="651.17" y2="336.65"/>
  <line class="cls-3" x1="677.91" y1="334.72" x2="641.91" y2="335.25"/>
  <line class="cls-3" x1="677.91" y1="359.33" x2="631.49" y2="359.33"/>
  <line class="cls-3" x1="677.91" y1="360.88" x2="634.61" y2="360.88"/>
  <line class="cls-3" x1="677.91" y1="362.66" x2="639.16" y2="362.66"/>
  <line class="cls-3" x1="677.91" y1="363.99" x2="644.61" y2="363.99"/>
  <line class="cls-3" x1="677.91" y1="366" x2="648.94" y2="366"/>
  <line class="cls-3" x1="677.91" y1="367.55" x2="652.61" y2="367.55"/>
  <line class="cls-3" x1="677.91" y1="369.33" x2="647.91" y2="369.25"/>
  <line class="cls-3" x1="677.91" y1="371.33" x2="642.91" y2="371.25"/>
  <path class="cls-3" d="M309.49,344.79s19.98-27.22,29.7,6.12"/>
  <path class="cls-3" d="M359.28,354.79c1.53.17,2.55,1.82,2.52,3.35-.02,1.02-.49,2.11-1.41,2.56-.48.23-1.03.27-1.56.28-.88.02-1.8-.04-2.56-.49-.94-.57-1.45-1.73-1.33-2.83.25-2.23,2.32-3.1,4.34-2.88Z"/>
  <path class="cls-3" d="M295.27,354.91c.42.03.81.24,1.15.49,1.61,1.21,2.06,3.7.98,5.39-.39.61-.97,1.13-1.66,1.35-.44.14-.9.16-1.36.17-.84.02-1.71.02-2.49-.29-1.22-.48-2.1-1.77-2.03-3.08.12-2,3.52-4.16,5.41-4.02Z"/>
  <path class="cls-3" d="M200.04,351.28c1.03.03,2.05.36,2.86,1s1.38,1.59,1.48,2.61c.16,1.48-.69,2.97-1.95,3.78s-2.85.97-4.31.67c-.52-.11-1.04-.28-1.43-.64-.42-.37-.65-.91-.8-1.45-.26-.91-.32-1.89-.05-2.79.48-1.61,2.5-3.22,4.19-3.17Z"/>
  <path class="cls-3" d="M204.49,370.13c.28.69.34,1.52-.03,2.17-.21.36-.53.65-.88.88-1.29.85-3,1.03-4.43.46-.31-.12-.61-.28-.87-.5-.55-.48-.83-1.23-.82-1.97.07-4.16,5.6-4.6,7.03-1.04Z"/>
  <path class="cls-3" d="M289.37,341.86c-3.89,0-7.78,0-11.67,0"/>
  <path class="cls-3" d="M290.04,344.86l-7.04-.35c-1.86-.09-3.72-.18-5.59-.16"/>
  <path class="cls-3" d="M290.43,347.05c-4.28.13-8.56.33-12.83.61"/>
  <path class="cls-3" d="M292.93,351.13c-5.37-.16-10.75-.02-16.1.43"/>
  <path class="cls-3" d="M287.34,356.23h-11.48"/>
  <path class="cls-3" d="M283.48,360.27c-2.96.03-5.92.03-8.87-.02"/>
  <path class="cls-3" d="M283.58,364.59c-1.84.12-3.7.04-5.53-.19-1.72-.21-3.45-.55-5.17-.32"/>
  <path class="cls-3" d="M284.26,367.61h-13.79"/>
  <path class="cls-3" d="M281.36,371.72c-4.69-.1-9.39-.19-14.08-.29"/>
  <path class="cls-3" d="M352.2,364.01s-7.29,9.18-46.29,9.21"/>
  <line class="cls-3" x1="299.78" y1="373.21" x2="283.53" y2="374.13"/>
  <line class="cls-3" x1="292.93" y1="370.29" x2="315.36" y2="369.56"/>
  <line class="cls-3" x1="301.61" y1="368.61" x2="308.18" y2="368.61"/>
  <path class="cls-3" d="M347.69,353.97c-.13-.93.02-1.91.52-2.7s1.36-1.37,2.29-1.44,1.91.4,2.36,1.22"/>
  <path class="cls-3" d="M232.41,342.71l-5.97-.33"/>
  <path class="cls-3" d="M231.56,346.17c-2.52.18-5.07.03-7.56-.43"/>
  <path class="cls-3" d="M230.57,348.78c-2.37.01-4.75-.11-7.1-.37"/>
  <path class="cls-3" d="M229.57,352.06c-3.27-.02-6.54-.19-9.79-.49-.18-.02-.42-.16-.32-.3"/>
  <path class="cls-3" d="M229.43,354.71c-4.32.16-8.64.05-12.95-.33"/>
  <path class="cls-3" d="M230.14,357.05c-5.15-.06-10.3-.12-15.45-.17-.18,0-.44-.15-.32-.29"/>
  <path class="cls-3" d="M229.45,359.79c-5.73.6-11.56-1.4-17.23-.42"/>
  <path class="cls-3" d="M228.29,362.52c-5.69.04-11.38.08-17.07.11"/>
  <path class="cls-3" d="M229.43,365.26h-14.79"/>
  <path class="cls-3" d="M230.42,368.52c-4.88.04-9.77.03-14.65-.03"/>
  <path class="cls-3" d="M232.13,370.63c-3.65.07-7.3.14-10.95.21"/>
  <path class="cls-3" d="M232.7,372.43l-7.25.29"/>
  <path class="cls-3" d="M234.97,374.19c-2.91-.03-5.83.25-8.69.82"/>
  <path class="cls-3" d="M236.11,376.51c-1.97-.22-3.99.09-5.81.88"/>
  <path class="cls-2" d="M294.78,293.84c1.81.27,3.73-.36,5.47.23.72.24,1.35.67,1.97,1.1,1.73,1.18,3.6,2.58,3.99,4.64.12.66.05,1.4-.4,1.89-.57.62-1.55.65-2.21,1.16-.71-2.11-2.32-3.82-4.18-5.04s-3.96-2.02-6.04-2.81c3.31,2.27,6.28,5.03,8.84,8.11.16.19.35.41.61.41.14,0,.27-.06.4-.12.56-.29,1.08-.65,1.56-1.06"/>
  <path class="cls-3" d="M354.57,345.86c6.76-.28,13.54-.2,20.29.24"/>
  <path class="cls-3" d="M369.68,350.43c8.89.15,17.79.3,26.68.45"/>
  <path class="cls-3" d="M374.72,353.96c10.57.31,21.14.45,31.72.41"/>
  <path class="cls-3" d="M293.92,340.18h7.68s8.17,17.02,22.73,16.04h14.85"/>
  <path class="cls-3" d="M237.21,325.03s-17.58-3.8-34.44,7.21"/>
  <path class="cls-3" d="M134.91,350.25s-8,14-23,10"/>
  <path class="cls-3" d="M137.91,352.25s-7,13-16,11"/>
  <path class="cls-2" d="M122.97,347.47c-1.91,1.66-3.8,3.35-5.66,5.06-.42.39-.85.79-1.08,1.32s-.18,1.21.26,1.58c.2.17.45.25.7.31,2.47.64,5.09-.45,7.13-2,1.13-.86,2.16-1.87,2.9-3.09,1.03-1.7,1.66-3.96,3.53-4.63"/>
  <path class="cls-3" d="M108.16,368.25S7.91,435.25,29.91,506.25"/>
  <path class="cls-3" d="M36.91,459.25s11.03-38.03,41.51-57.52"/>
  <path class="cls-3" d="M31.91,512.25s20,46,42,31"/>
  <path class="cls-3" d="M69.91,538.25s-3,6.21-17-3.4"/>
  <path class="cls-3" d="M48.91,530.25s-22-18-15-63"/>
  <path class="cls-3" d="M46.45,522.15s4.95,12.3,18.7,12.7"/>
  <path class="cls-3" d="M52.91,524.74s1,5.51,8.5,5.51"/>
  <path class="cls-3" d="M50.91,501.25s-1.5,8.48,6.25,16.74"/>
  <path class="cls-3" d="M68.83,530.25s-9.4-9.5-11.16-19.25"/>
  <path class="cls-3" d="M72.68,527.49s-18.25-19.71-15.01-43.98"/>
  <path class="cls-3" d="M55.8,503.48s-10.89-31.23,3.11-49.23"/>
  <path class="cls-3" d="M68.83,430.49s6.08-14.24,24.08-25.24"/>
  <path class="cls-3" d="M72.68,417.87s3.15-5.83,8.19-6.73"/>
  <path class="cls-3" d="M116.1,388.85s10.06-10.9,28.93-14.25"/>
  <path class="cls-3" d="M225.45,338.54s-38.73.3-70.63,30"/>
  <path class="cls-3" d="M70.91,513.25s11.5,26.51,37.25,18.76"/>
  <path class="cls-3" d="M82.51,522.15s17.39,19.09,32.39-2.91"/>
  <path class="cls-3" d="M68.83,494.18s-2.89,11.94,9.6,23"/>
  <path class="cls-3" d="M75.69,505.51s1.99,13.73,19.1,19.24"/>
  <path class="cls-3" d="M103.96,523.34s10.61-4.09.78-15.09"/>
  <path class="cls-3" d="M113.9,506.25s-33.99-35.52,8.01-75.76"/>
  <path class="cls-3" d="M108.16,503.48s-28.25-35.23,9.75-74.23"/>
  <path class="cls-3" d="M103.91,505.51s-13-13.26-11-38.26"/>
  <path class="cls-3" d="M92.7,488.88s-9.21-21.88,0-35.76"/>
  <path class="cls-3" d="M123.42,423.33s16.49-23.08,53.49-30.08"/>
  <path class="cls-3" d="M111.41,432.27s4.5-22.02,41.5-34.02"/>
  <path class="cls-3" d="M98.06,436.28s-2.15-8.31,13.35-16.67"/>
  <text class="cls-6" transform="translate(414.1 364.36)"><tspan x="0" y="0">MON</tspan><tspan class="cls-7" x="73.32" y="0">T</tspan><tspan x="91.1" y="0">AGUE</tspan></text>
  <text/>
</svg>