<?xml version="1.0" encoding="UTF-8"?>
<svg xmlns="http://www.w3.org/2000/svg" viewBox="0 0 1920 1080">
  <defs>
    <style>
      .cls-1, .cls-2, .cls-3, .cls-4 {
        fill: none;
      }

      .cls-5 {
        fill: #fae9d9;
      }

      .cls-5, .cls-2, .cls-3, .cls-6, .cls-4 {
        stroke-miterlimit: 10;
      }

      .cls-5, .cls-4 {
        stroke: #000;
      }

      .cls-2, .cls-3 {
        stroke: #998675;
        stroke-width: 5px;
      }

      .cls-7 {
        fill: #ddc6c5;
      }

      .cls-3 {
        opacity: .85;
      }

      .cls-6 {
        fill: #fff;
        stroke: #fff;
      }

      .cls-8 {
        fill: #51342f;
      }

      .cls-9 {
        fill: #fff0dd;
      }

      .cls-4 {
        stroke-width: 3px;
      }
    </style>
  </defs>
  <g id="Layer_1" data-name="Layer 1">
    <rect class="cls-5" width="1920" height="1080"/>
    <polygon class="cls-6" points="0 0 0 168.7 1906.52 168.7 1920 168.7 1920 0 0 0"/>
  </g>
  <g id="Layer_4" data-name="Layer 4">
    <g>
      <path class="cls-2" d="M1143,512c-49.06-136.55-118.33-204.43-156-235-15.85-12.86-27.16-19.97-42-22-100.18-13.69-200.91,226.04-212,253l-2.26,4"/>
      <path class="cls-2" d="M697.43,512s38.07-228.5,245.07-306.5c0,0,195.27,92,236.64,306.5"/>
      <path class="cls-2" d="M679.91,512s13.59-201.5,267.59-330.5c0,0,216.66,111,256.33,330.5"/>
      <path class="cls-2" d="M667.5,469.5s51-208,226-282l-226,3.69v278.31Z"/>
      <path class="cls-2" d="M1218.5,482.5s-76.99-216-226.49-295h226.49v295Z"/>
      <path class="cls-3" d="M646.97,529.76h106.37c25.84-7.74,0-17.76,0-17.76h-106.37V168.7l592.53,3.89v340.91h-104.13s-27.13,13.44,0,21.22h104.13"/>
      <path class="cls-2" d="M1241.5,602.5h-71.26s-22.74-6,.26-14l69,1.64"/>
      <path class="cls-2" d="M1135.37,534.72c-2.69,1.06-4.78,5.56-5.37,8.4s.35,5.93,2.4,7.97c3.03,3,7.74,3.39,12,3.21,3.92-.17,7.83-.67,11.66-1.5,1.21-.26,2.48-.56,3.68-.24,2.48.67,3.54,3.54,4.22,6.02,2.28,8.29,4.47,17.55.43,25.15-1.33,2.5-3.34,4.93-3.07,7.75"/>
      <path class="cls-2" d="M1167.41,542.13c.81-3.65,5.35-4.88,9.08-5.13,4.63-.31,10.15.26,12.44,4.29,1.96,3.46.56,7.78-.88,11.48.79-3.01,3.4-5.3,6.31-6.39s6.11-1.14,9.21-.94c1.14.07,2.32.19,3.29.79,1.97,1.21,2.39,3.9,2.22,6.21-.44,5.82-3.49,11.4-8.14,14.92,2.23-1.58,5.55-4.05,8.16-4.89s5.64-.8,7.89.76c1.28.89,2.21,2.2,3.07,3.51,1.23,1.89,2.38,3.92,2.74,6.15s-.21,4.73-1.94,6.19c-2.06,1.74-5.03,1.1-7.14,2.39,1.36.21,2.82.35,4.09.99,1.81.91,3.17,3.06,2.5,4.97"/>
      <path class="cls-2" d="M1167.71,566.58c3.38-1.69,6.12-4.62,7.59-8.1.9-2.14,1.21-4.91-.45-6.54-1.25-1.22-3.17-1.37-4.92-1.29"/>
      <path class="cls-2" d="M1168.2,572.51c6.84-3.53,13.46-7.48,19.82-11.83"/>
      <path class="cls-2" d="M1167.54,580.33c1.79.36,3.54-.65,5.18-1.45,6.17-2.98,13.36-3.3,19.54-6.26"/>
      <path class="cls-2" d="M1178.09,602.5l3.32,439s-40.09,7.65,0,16.83l60.09.17"/>
      <polyline class="cls-2" points="1181.41 1041.5 1239.5 1040.5 1242.73 1040.5"/>
      <path class="cls-2" d="M1239.5,1077.43l-75.91,1.59s-42.91-9.23,0-21.38l17.82.68"/>
      <path class="cls-2" d="M1192.01,1029.38l6.49-7.88-3.25-397.25s3.25-16.75-10.75-4.75"/>
      <path class="cls-2" d="M1212.07,1030.64l7.43-9.14-1-393.75s5-18.25-14-6.25"/>
      <path class="cls-2" d="M1231.11,1029.38l8.39-12.17,2-392.96s4-15.75-14-4.75"/>
      <path class="cls-2" d="M752.39,530.43c3.45,1.3,6.1,4.52,6.7,8.16s-.87,7.54-3.72,9.88c-3.25,2.67-7.76,3.16-11.97,3.16-1.57,0-3.5-.3-4.05-1.77-.41-1.09.16-2.42-.45-3.41-.38-.62-1.12-.91-1.82-1.1-6.73-1.84-12.91,1.18-18.17,4.81-1.52,1.05-2.62,1.3-3.76,2.7-.97,1.19-1.58,2.97-2.12,4.39-1.09,2.86-1.77,6.07-2.17,8.96-.45,3.35-.36,6.98,1.49,9.81,2.21,3.39,6.36,4.86,10.24,6"/>
      <path class="cls-2" d="M655.5,584.5h74.09s10.91,14-12.09,14h-62"/>
      <path class="cls-2" d="M647.5,1038.5h68.01s26.01,9.42,0,17.71h-68.01"/>
      <path class="cls-2" d="M647.5,1076.1h80.92s34.92-4.39,0-18.5l-16.4-1.4"/>
      <line class="cls-2" x1="710.63" y1="598.5" x2="715.51" y2="1038.5"/>
      <path class="cls-2" d="M701.5,1027.5l-7.66-8.79v-394.48s-1.34-15.98,7.66-10.36"/>
      <path class="cls-2" d="M679.5,1024.5l-8-13v-390.76s1.9-19.88,11.95-8.06"/>
      <path class="cls-2" d="M660.12,1024.5l-8.62-17v-390.75s-1.53-20.75,12.74,0"/>
      <path class="cls-2" d="M673.76,583.15c-2.37-2.46-4.28-5.53-4.64-8.93s1.12-7.11,4.12-8.75c1.28-.7,7.98-1.41,7.25,1.4-.53-.38-.91-1.06-1.28-1.6-1.75-2.57-3.34-5.35-3.87-8.41s.18-6.49,2.45-8.61c1.7-1.59,4.2-2.3,6.48-1.84s4.31,2.08,5.26,4.21c-.94-1.93-2.42-5.56-2.8-7.66s-.12-4.42,1.17-6.13c.88-1.17,2.17-1.96,3.42-2.72,3.97-2.42,8.9-4.9,13.03-2.76,2.75,1.43,3.54,3.9,4.4,6.59,1.01,3.17,2.09.1,3.23-1.33,1.24-1.57,2.95-2.78,4.78-3.58,3.52-1.53,7.46-1.71,11.3-1.86,1.16-.05,2.37-.08,3.41.42,2.27,1.1,2.69,4.1,2.81,6.62"/>
      <path class="cls-2" d="M709.32,575.54c-2.49.31-4.95-.85-6.91-2.42s-3.53-3.55-5.33-5.3-3.94-3.3-6.41-3.69"/>
      <path class="cls-2" d="M699.98,582.7c-2.41-3.4-5.95-5.99-9.92-7.28"/>
      <path class="cls-2" d="M712.07,557.82c-1.76.09-3.38-.9-4.75-2-2.65-2.12-4.93-4.92-5.64-8.23"/>
      <path class="cls-2" d="M708.9,576.69c.7.3,1.56.2,2.17-.26"/>
      <path class="cls-2" d="M1042.58,221.17s3.57-26.67,41.25-33.67"/>
      <path class="cls-2" d="M1019.93,204.33s.98-16.83,23.78-16.83"/>
      <path class="cls-2" d="M1152.06,349.46s52.44,5.5,66.44-35.73"/>
      <path class="cls-2" d="M1172.01,383.22s29.49,22.99,46.49-13.36"/>
      <path class="cls-2" d="M1152.06,259.65s27.44-7.15,38.44,16.85c1.84,4.01,2.96,8.48,3.34,12.86.83,9.79-4.97,20.9-12.76,26.83-8.57,6.54-20.71,5.61-30.58,3.3,0,0-23-2-23-22,0,0-1.87-30.69,24.56-37.85Z"/>
      <path class="cls-2" d="M1104.06,209.02s27.44-7.15,38.44,16.85c1.84,4.01,2.96,8.48,3.34,12.86.83,9.79-4.97,20.9-12.76,26.83-8.57,6.54-20.71,5.61-30.58,3.3,0,0-23-2-23-22,0,0-1.87-30.69,24.56-37.85Z"/>
      <path class="cls-2" d="M1173.64,189.08s29.08-7.73,40.74,18.2c1.95,4.33,3.14,9.16,3.54,13.9.88,10.57-5.27,22.57-13.52,28.98-9.09,7.06-21.95,6.06-32.41,3.57,0,0-24.38-2.16-24.38-23.76,0,0-1.99-33.15,26.03-40.88Z"/>
      <path class="cls-2" d="M707.22,257.51s27.44-7.15,38.44,16.85c1.84,4.01,2.96,8.48,3.34,12.86.83,9.79-4.97,20.9-12.76,26.83-8.57,6.54-20.71,5.61-30.58,3.3,0,0-23-2-23-22,0,0-1.87-30.69,24.56-37.85Z"/>
      <path class="cls-2" d="M765.79,192.5s27.44-7.15,38.44,16.85c1.84,4.01,2.96,8.48,3.34,12.86.83,9.79-4.97,20.9-12.76,26.83-8.57,6.54-20.71,5.61-30.58,3.3,0,0-23-2-23-22,0,0-1.87-30.69,24.56-37.85Z"/>
      <path class="cls-2" d="M696.79,194.5s27.44-7.15,38.44,16.85c1.84,4.01,2.96,8.48,3.34,12.86.83,9.79-4.97,20.9-12.76,26.83-8.57,6.54-20.71,5.61-30.58,3.3,0,0-23-2-23-22,0,0-1.87-30.69,24.56-37.85Z"/>
      <path class="cls-2" d="M813.32,187.5s28.1,9.37,22.64,31.68"/>
      <path class="cls-2" d="M667.5,310.5s7.32,34.94,52.16,37.47"/>
      <path class="cls-2" d="M667.5,354.13s9.21,19.31,39.11,17.34"/>
    </g>
    <g>
      <path class="cls-2" d="M1747.58,516.27c-49.06-136.55-118.33-204.43-156-235-15.85-12.86-27.16-19.97-42-22-100.18-13.69-200.91,226.04-212,253l-2.26,4"/>
      <path class="cls-2" d="M1302.01,516.27s38.07-228.5,245.07-306.5c0,0,195.27,92,236.64,306.5"/>
      <path class="cls-2" d="M1284.49,516.27s13.59-201.5,267.59-330.5c0,0,216.66,111,256.33,330.5"/>
      <path class="cls-2" d="M1272.08,473.77s51-208,226-282l-226,3.69v278.31Z"/>
      <path class="cls-2" d="M1823.08,486.77s-76.99-216-226.49-295h226.49v295Z"/>
      <path class="cls-3" d="M1251.55,534.03h106.37c25.84-7.74,0-17.76,0-17.76h-106.37V172.97l592.53,3.89v340.91h-104.13s-27.13,13.44,0,21.22h104.13"/>
      <path class="cls-2" d="M1846.08,606.77h-71.26s-22.74-6,.26-14l69,1.64"/>
      <path class="cls-2" d="M1739.95,538.98c-2.69,1.06-4.78,5.56-5.37,8.4s.35,5.93,2.4,7.97c3.03,3,7.74,3.39,12,3.21,3.92-.17,7.83-.67,11.66-1.5,1.21-.26,2.48-.56,3.68-.24,2.48.67,3.54,3.54,4.22,6.02,2.28,8.29,4.47,17.55.43,25.15-1.33,2.5-3.34,4.93-3.07,7.75"/>
      <path class="cls-2" d="M1772,546.39c.81-3.65,5.35-4.88,9.08-5.13,4.63-.31,10.15.26,12.44,4.29,1.96,3.46.56,7.78-.88,11.48.79-3.01,3.4-5.3,6.31-6.39s6.11-1.14,9.21-.94c1.14.07,2.32.19,3.29.79,1.97,1.21,2.39,3.9,2.22,6.21-.44,5.82-3.49,11.4-8.14,14.92,2.23-1.58,5.55-4.05,8.16-4.89s5.64-.8,7.89.76c1.28.89,2.21,2.2,3.07,3.51,1.23,1.89,2.38,3.92,2.74,6.15s-.21,4.73-1.94,6.19c-2.06,1.74-5.03,1.1-7.14,2.39,1.36.21,2.82.35,4.09.99,1.81.91,3.17,3.06,2.5,4.97"/>
      <path class="cls-2" d="M1772.29,570.84c3.38-1.69,6.12-4.62,7.59-8.1.9-2.14,1.21-4.91-.45-6.54-1.25-1.22-3.17-1.37-4.92-1.29"/>
      <path class="cls-2" d="M1772.78,576.78c6.84-3.53,13.46-7.48,19.82-11.83"/>
      <path class="cls-2" d="M1772.13,584.6c1.79.36,3.54-.65,5.18-1.45,6.17-2.98,13.36-3.3,19.54-6.26"/>
      <path class="cls-2" d="M1782.67,606.77l3.32,439s-40.09,7.65,0,16.83l60.09.17"/>
      <polyline class="cls-2" points="1785.99 1045.77 1844.08 1044.77 1847.31 1044.77"/>
      <path class="cls-2" d="M1844.08,1081.69l-75.91,1.59s-42.91-9.23,0-21.38l17.82.68"/>
      <path class="cls-2" d="M1796.59,1033.65l6.49-7.88-3.25-397.25s3.25-16.75-10.75-4.75"/>
      <path class="cls-2" d="M1816.65,1034.91l7.43-9.14-1-393.75s5-18.25-14-6.25"/>
      <path class="cls-2" d="M1835.69,1033.65l8.39-12.17,2-392.96s4-15.75-14-4.75"/>
      <path class="cls-2" d="M1356.97,534.69c3.45,1.3,6.1,4.52,6.7,8.16s-.87,7.54-3.72,9.88c-3.25,2.67-7.76,3.16-11.97,3.16-1.57,0-3.5-.3-4.05-1.77-.41-1.09.16-2.42-.45-3.41-.38-.62-1.12-.91-1.82-1.1-6.73-1.84-12.91,1.18-18.17,4.81-1.52,1.05-2.62,1.3-3.76,2.7-.97,1.19-1.58,2.97-2.12,4.39-1.09,2.86-1.77,6.07-2.17,8.96-.45,3.35-.36,6.98,1.49,9.81,2.21,3.39,6.36,4.86,10.24,6"/>
      <path class="cls-2" d="M1260.08,588.77h74.09s10.91,14-12.09,14h-62"/>
      <path class="cls-2" d="M1252.08,1042.77h68.01s26.01,9.42,0,17.71h-68.01"/>
      <path class="cls-2" d="M1252.08,1080.37h80.92s34.92-4.39,0-18.5l-16.4-1.4"/>
      <line class="cls-2" x1="1315.21" y1="602.77" x2="1320.09" y2="1042.77"/>
      <path class="cls-2" d="M1306.08,1031.77l-7.66-8.79v-394.48s-1.34-15.98,7.66-10.36"/>
      <path class="cls-2" d="M1284.08,1028.77l-8-13v-390.76s1.9-19.88,11.95-8.06"/>
      <path class="cls-2" d="M1264.7,1028.77l-8.62-17v-390.75s-1.53-20.75,12.74,0"/>
      <path class="cls-2" d="M1278.34,587.41c-2.37-2.46-4.28-5.53-4.64-8.93s1.12-7.11,4.12-8.75c1.28-.7,7.98-1.41,7.25,1.4-.53-.38-.91-1.06-1.28-1.6-1.75-2.57-3.34-5.35-3.87-8.41s.18-6.49,2.45-8.61c1.7-1.59,4.2-2.3,6.48-1.84s4.31,2.08,5.26,4.21c-.94-1.93-2.42-5.56-2.8-7.66s-.12-4.42,1.17-6.13c.88-1.17,2.17-1.96,3.42-2.72,3.97-2.42,8.9-4.9,13.03-2.76,2.75,1.43,3.54,3.9,4.4,6.59,1.01,3.17,2.09.1,3.23-1.33,1.24-1.57,2.95-2.78,4.78-3.58,3.52-1.53,7.46-1.71,11.3-1.86,1.16-.05,2.37-.08,3.41.42,2.27,1.1,2.69,4.1,2.81,6.62"/>
      <path class="cls-2" d="M1313.91,579.81c-2.49.31-4.95-.85-6.91-2.42s-3.53-3.55-5.33-5.3-3.94-3.3-6.41-3.69"/>
      <path class="cls-2" d="M1304.56,586.96c-2.41-3.4-5.95-5.99-9.92-7.28"/>
      <path class="cls-2" d="M1316.65,562.09c-1.76.09-3.38-.9-4.75-2-2.65-2.12-4.93-4.92-5.64-8.23"/>
      <path class="cls-2" d="M1313.48,580.96c.7.3,1.56.2,2.17-.26"/>
      <path class="cls-2" d="M1647.17,225.43s3.57-26.67,41.25-33.67"/>
      <path class="cls-2" d="M1624.51,208.6s.98-16.83,23.78-16.83"/>
      <path class="cls-2" d="M1756.64,353.73s52.44,5.5,66.44-35.73"/>
      <path class="cls-2" d="M1776.59,387.48s29.49,22.99,46.49-13.36"/>
      <path class="cls-2" d="M1756.64,263.92s27.44-7.15,38.44,16.85c1.84,4.01,2.96,8.48,3.34,12.86.83,9.79-4.97,20.9-12.76,26.83-8.57,6.54-20.71,5.61-30.58,3.3,0,0-23-2-23-22,0,0-1.87-30.69,24.56-37.85Z"/>
      <path class="cls-2" d="M1708.64,213.29s27.44-7.15,38.44,16.85c1.84,4.01,2.96,8.48,3.34,12.86.83,9.79-4.97,20.9-12.76,26.83-8.57,6.54-20.71,5.61-30.58,3.3,0,0-23-2-23-22,0,0-1.87-30.69,24.56-37.85Z"/>
      <path class="cls-2" d="M1778.22,193.34s29.08-7.73,40.74,18.2c1.95,4.33,3.14,9.16,3.54,13.9.88,10.57-5.27,22.57-13.52,28.98-9.09,7.06-21.95,6.06-32.41,3.57,0,0-24.38-2.16-24.38-23.76,0,0-1.99-33.15,26.03-40.88Z"/>
      <path class="cls-2" d="M1311.81,261.78s27.44-7.15,38.44,16.85c1.84,4.01,2.96,8.48,3.34,12.86.83,9.79-4.97,20.9-12.76,26.83-8.57,6.54-20.71,5.61-30.58,3.3,0,0-23-2-23-22,0,0-1.87-30.69,24.56-37.85Z"/>
      <path class="cls-2" d="M1370.37,196.77s27.44-7.15,38.44,16.85c1.84,4.01,2.96,8.48,3.34,12.86.83,9.79-4.97,20.9-12.76,26.83-8.57,6.54-20.71,5.61-30.58,3.3,0,0-23-2-23-22,0,0-1.87-30.69,24.56-37.85Z"/>
      <path class="cls-2" d="M1301.37,198.77s27.44-7.15,38.44,16.85c1.84,4.01,2.96,8.48,3.34,12.86.83,9.79-4.97,20.9-12.76,26.83-8.57,6.54-20.71,5.61-30.58,3.3,0,0-23-2-23-22,0,0-1.87-30.69,24.56-37.85Z"/>
      <path class="cls-2" d="M1417.9,191.77s28.1,9.37,22.64,31.68"/>
      <path class="cls-2" d="M1272.08,314.77s7.32,34.94,52.16,37.47"/>
      <path class="cls-2" d="M1272.08,358.39s9.21,19.31,39.11,17.34"/>
    </g>
    <g>
      <path class="cls-2" d="M544.53,509.14c-49.06-136.55-118.33-204.43-156-235-15.85-12.86-27.16-19.97-42-22-100.18-13.69-200.91,226.04-212,253l-2.26,4"/>
      <path class="cls-2" d="M98.96,509.14s38.07-228.5,245.07-306.5c0,0,195.27,92,236.64,306.5"/>
      <path class="cls-2" d="M81.44,509.14s13.59-201.5,267.59-330.5c0,0,216.66,111,256.33,330.5"/>
      <path class="cls-2" d="M69.03,466.64s51-208,226-282l-226,3.69v278.31Z"/>
      <path class="cls-2" d="M620.03,479.64s-76.99-216-226.49-295h226.49v295Z"/>
      <path class="cls-3" d="M48.5,526.9h106.37c25.84-7.74,0-17.76,0-17.76H48.5V165.84l592.53,3.89v340.91h-104.13s-27.13,13.44,0,21.22h104.13"/>
      <path class="cls-2" d="M643.03,599.64h-71.26s-22.74-6,.26-14l69,1.64"/>
      <path class="cls-2" d="M536.9,531.85c-2.69,1.06-4.78,5.56-5.37,8.4s.35,5.93,2.4,7.97c3.03,3,7.74,3.39,12,3.21,3.92-.17,7.83-.67,11.66-1.5,1.21-.26,2.48-.56,3.68-.24,2.48.67,3.54,3.54,4.22,6.02,2.28,8.29,4.47,17.55.43,25.15-1.33,2.5-3.34,4.93-3.07,7.75"/>
      <path class="cls-2" d="M568.95,539.26c.81-3.65,5.35-4.88,9.08-5.13,4.63-.31,10.15.26,12.44,4.29,1.96,3.46.56,7.78-.88,11.48.79-3.01,3.4-5.3,6.31-6.39s6.11-1.14,9.21-.94c1.14.07,2.32.19,3.29.79,1.97,1.21,2.39,3.9,2.22,6.21-.44,5.82-3.49,11.4-8.14,14.92,2.23-1.58,5.55-4.05,8.16-4.89s5.64-.8,7.89.76c1.28.89,2.21,2.2,3.07,3.51,1.23,1.89,2.38,3.92,2.74,6.15s-.21,4.73-1.94,6.19c-2.06,1.74-5.03,1.1-7.14,2.39,1.36.21,2.82.35,4.09.99,1.81.91,3.17,3.06,2.5,4.97"/>
      <path class="cls-2" d="M569.24,563.71c3.38-1.69,6.12-4.62,7.59-8.1.9-2.14,1.21-4.91-.45-6.54-1.25-1.22-3.17-1.37-4.92-1.29"/>
      <path class="cls-2" d="M569.73,569.65c6.84-3.53,13.46-7.48,19.82-11.83"/>
      <path class="cls-2" d="M569.08,577.47c1.79.36,3.54-.65,5.18-1.45,6.17-2.98,13.36-3.3,19.54-6.26"/>
      <path class="cls-2" d="M579.62,599.64l3.32,439s-40.09,7.65,0,16.83l60.09.17"/>
      <polyline class="cls-2" points="582.94 1038.64 641.03 1037.64 644.26 1037.64"/>
      <path class="cls-2" d="M641.03,1074.56l-75.91,1.59s-42.91-9.23,0-21.38l17.82.68"/>
      <path class="cls-2" d="M593.54,1026.52l6.49-7.88-3.25-397.25s3.25-16.75-10.75-4.75"/>
      <path class="cls-2" d="M613.6,1027.78l7.43-9.14-1-393.75s5-18.25-14-6.25"/>
      <path class="cls-2" d="M632.64,1026.52l8.39-12.17,2-392.96s4-15.75-14-4.75"/>
      <path class="cls-2" d="M153.92,527.56c3.45,1.3,6.1,4.52,6.7,8.16s-.87,7.54-3.72,9.88c-3.25,2.67-7.76,3.16-11.97,3.16-1.57,0-3.5-.3-4.05-1.77-.41-1.09.16-2.42-.45-3.41-.38-.62-1.12-.91-1.82-1.1-6.73-1.84-12.91,1.18-18.17,4.81-1.52,1.05-2.62,1.3-3.76,2.7-.97,1.19-1.58,2.97-2.12,4.39-1.09,2.86-1.77,6.07-2.17,8.96-.45,3.35-.36,6.98,1.49,9.81,2.21,3.39,6.36,4.86,10.24,6"/>
      <path class="cls-2" d="M57.03,581.64h74.09s10.91,14-12.09,14h-62"/>
      <path class="cls-2" d="M49.03,1035.64h68.01s26.01,9.42,0,17.71H49.03"/>
      <path class="cls-2" d="M49.03,1073.24h80.92s34.92-4.39,0-18.5l-16.4-1.4"/>
      <line class="cls-2" x1="112.16" y1="595.64" x2="117.04" y2="1035.64"/>
      <path class="cls-2" d="M103.03,1024.64l-7.66-8.79v-394.48s-1.34-15.98,7.66-10.36"/>
      <path class="cls-2" d="M81.03,1021.64l-8-13v-390.76s1.9-19.88,11.95-8.06"/>
      <path class="cls-2" d="M61.65,1021.64l-8.62-17v-390.75s-1.53-20.75,12.74,0"/>
      <path class="cls-2" d="M75.29,580.28c-2.37-2.46-4.28-5.53-4.64-8.93s1.12-7.11,4.12-8.75c1.28-.7,7.98-1.41,7.25,1.4-.53-.38-.91-1.06-1.28-1.6-1.75-2.57-3.34-5.35-3.87-8.41s.18-6.49,2.45-8.61c1.7-1.59,4.2-2.3,6.48-1.84s4.31,2.08,5.26,4.21c-.94-1.93-2.42-5.56-2.8-7.66s-.12-4.42,1.17-6.13c.88-1.17,2.17-1.96,3.42-2.72,3.97-2.42,8.9-4.9,13.03-2.76,2.75,1.43,3.54,3.9,4.4,6.59,1.01,3.17,2.09.1,3.23-1.33,1.24-1.57,2.95-2.78,4.78-3.58,3.52-1.53,7.46-1.71,11.3-1.86,1.16-.05,2.37-.08,3.41.42,2.27,1.1,2.69,4.1,2.81,6.62"/>
      <path class="cls-2" d="M110.86,572.68c-2.49.31-4.95-.85-6.91-2.42s-3.53-3.55-5.33-5.3-3.94-3.3-6.41-3.69"/>
      <path class="cls-2" d="M101.51,579.83c-2.41-3.4-5.95-5.99-9.92-7.28"/>
      <path class="cls-2" d="M113.6,554.96c-1.76.09-3.38-.9-4.75-2-2.65-2.12-4.93-4.92-5.64-8.23"/>
      <path class="cls-2" d="M110.43,573.83c.7.3,1.56.2,2.17-.26"/>
      <path class="cls-2" d="M444.12,218.3s3.57-26.67,41.25-33.67"/>
      <path class="cls-2" d="M421.46,201.47s.98-16.83,23.78-16.83"/>
      <path class="cls-2" d="M553.59,346.6s52.44,5.5,66.44-35.73"/>
      <path class="cls-2" d="M573.54,380.35s29.49,22.99,46.49-13.36"/>
      <path class="cls-2" d="M553.59,256.79s27.44-7.15,38.44,16.85c1.84,4.01,2.96,8.48,3.34,12.86.83,9.79-4.97,20.9-12.76,26.83-8.57,6.54-20.71,5.61-30.58,3.3,0,0-23-2-23-22,0,0-1.87-30.69,24.56-37.85Z"/>
      <path class="cls-2" d="M505.59,206.16s27.44-7.15,38.44,16.85c1.84,4.01,2.96,8.48,3.34,12.86.83,9.79-4.97,20.9-12.76,26.83-8.57,6.54-20.71,5.61-30.58,3.3,0,0-23-2-23-22,0,0-1.87-30.69,24.56-37.85Z"/>
      <path class="cls-2" d="M575.17,186.21s29.08-7.73,40.74,18.2c1.95,4.33,3.14,9.16,3.54,13.9.88,10.57-5.27,22.57-13.52,28.98-9.09,7.06-21.95,6.06-32.41,3.57,0,0-24.38-2.16-24.38-23.76,0,0-1.99-33.15,26.03-40.88Z"/>
      <path class="cls-2" d="M108.76,254.65s27.44-7.15,38.44,16.85c1.84,4.01,2.96,8.48,3.34,12.86.83,9.79-4.97,20.9-12.76,26.83-8.57,6.54-20.71,5.61-30.58,3.3,0,0-23-2-23-22,0,0-1.87-30.69,24.56-37.85Z"/>
      <path class="cls-2" d="M167.32,189.64s27.44-7.15,38.44,16.85c1.84,4.01,2.96,8.48,3.34,12.86.83,9.79-4.97,20.9-12.76,26.83-8.57,6.54-20.71,5.61-30.58,3.3,0,0-23-2-23-22,0,0-1.87-30.69,24.56-37.85Z"/>
      <path class="cls-2" d="M98.32,191.64s27.44-7.15,38.44,16.85c1.84,4.01,2.96,8.48,3.34,12.86.83,9.79-4.97,20.9-12.76,26.83-8.57,6.54-20.71,5.61-30.58,3.3,0,0-23-2-23-22,0,0-1.87-30.69,24.56-37.85Z"/>
      <path class="cls-2" d="M214.85,184.64s28.1,9.37,22.64,31.68"/>
      <path class="cls-2" d="M69.03,307.63s7.32,34.94,52.16,37.47"/>
      <path class="cls-2" d="M69.03,351.26s9.21,19.31,39.11,17.34"/>
    </g>
  </g>
  <g id="Layer_2" data-name="Layer 2">
    <g>
      <path class="cls-8" d="M1496.82,639.81c-.65.78-1.37,1.52-1.84,2.42s-.65,2.03-.16,2.92c.25.46.65.82,1.05,1.16,1.54,1.32,3.18,2.52,4.9,3.59.34.21.69.42,1.08.49.87.15,1.68-.42,2.36-.98,2.49-2.06,4.68-4.48,6.49-7.16.27-.4.19-.97.43-1.39,3.69-6.48,9.43-11.5,14.37-17.09,2.4-2.72,4.6-5.17,7.5-7.36,2.21-1.67,4.48-3.31,7.04-4.39,5.4-2.28,11.5-1.83,17.34-1.35,7.61.63,14.99,3.42,21.61,7.24,1.82,1.05,3.63,2.25,4.8,4,1.23,1.85,1.6,4.12,1.83,6.33.31,2.91.43,5.84.37,8.77-.14,6.39-.04,12.63.84,18.96.39,2.83.78,5.65,1.17,8.48.27,1.93.55,3.91,1.53,5.59,1.55,2.66,4.68,4.24,5.83,7.1-1.58,10.22-2.73,20.77-.23,30.81.54,2.15,1.15,3.65,2.3,5.55,1.01,1.67,2.02,3.34,3.03,5.01.55.9,1.1,1.82,1.86,2.55.99.95,2.28,1.53,3.57,1.99,3.01,1.08,6.19,1.62,9.16,2.79,2.97,1.18,5.83,3.15,7.04,6.1.74,1.8.8,3.82.55,5.75-.33,2.51-1.57,4.98-2.26,7.41-.61,2.18-.74,4.46-.79,6.73-.15,7.19.53,14.4,2,21.44.89,4.26-.41,7.66-.16,12.01.39,6.82.79,13.68-.04,20.46-.33,2.72,0,5.55.44,8.26s1.55,5.4,3.59,7.23c1.84,1.65,4.28,2.48,6.68,3.06.89.21,1.81.4,2.72.32,1.17-.1,2.25-.62,3.29-1.16,3.84-1.96,7.78-4.37,9.61-8.27,1.36-2.89,1.28-6.02,2.7-8.88.99-2.02,2.12-3.96,3.25-5.9,2.64-4.49,5.38-8.92,8.23-13.29,1.41-2.16,3.2-3.12,5.12-4.86,2.51-2.28,5.14-4.53,8.28-5.8,3.6-1.46,7.58-1.55,11.46-1.61,6.68-.11,12.85,0,19.18-2.15.66-.22,1.45-.66,1.36-1.35-3.76-.88-7.6-1.8-10.83-3.92s-5.75-5.73-5.49-9.58c.49-7.15-.17-14.73-2.03-21.65-.58-2.17-1.35-4.34-1.33-6.59.02-3.03-.37-5.65-1.47-8.48-1.92-4.95-6.32-8.85-7.31-14.07-.6-3.16.15-6.44-.17-9.64-.6-5.96-.42-12.44.24-18.39.21-1.92.52-3.83.64-5.76.41-6.43-.39-12.65-2.95-18.55-1.19-2.75-2.39-5.52-4.12-7.96-1.43-2.02-3.2-3.78-4.96-5.52-5.96-5.9-11.95-11.76-17.97-17.59-3.8-3.67-6.08-5.46-9.92-9.09-1.59-1.51-3.19-3.02-4.9-4.4-3.9-3.15-8.33-5.57-12.84-7.72-2.03-.97-4.38-2.45-6.59-2.85-2.38-.43-4.64-.71-7.02-1.49-5.35-1.75-10.69-3.5-16.04-5.25-2.16-.71-4.33-.97-6.54-1.51-2.65-.66-5.46-.96-8.1-.06-5.29,1.81-11.29-.71-16.62.99-1.6.51-3.09,1.31-4.67,1.85-2.53.87-5.26,1.12-7.69,2.23s-5.76,1.57-8.13,2.78c-4.07,2.08-8.02,4.4-11.82,6.93-2.3,1.53-4.56,3.14-6.55,5.05-2.64,2.53-4.77,5.54-7.11,8.36-1.37,1.65-2.81,3.24-4.32,4.76-1.77,1.79-3.52,3.19-5.76,4.28-1.92.93-4.31,2.51-4.98,4.65-.78,2.51-1.36,4.47-3.13,6.6Z"/>
      <path class="cls-8" d="M1759.33,842.68c-.23,4.82.75,9.61,1.56,14.37,1.83,10.82,2.79,21.78,2.85,32.75.05,7.81-.86,15.65.02,23.43s3.88,15.37,4.41,23.33c.06.85.24,1.88,1.05,2.14.34.11.72.04,1.07-.03,6.77-1.4,13.3-3.93,19.25-7.44,2.2-1.3,4.35-2.76,6-4.71,1.64-1.96,2.74-4.48,2.54-7.03-.12-1.51-.68-2.95-1.26-4.35-3.38-8.24-7.45-16.18-11.72-23.99s-5.9-17.17-7.29-26.12c-.13-.87-.25-1.76-.65-2.54-.28-.54-.68-1.01-1.08-1.47-1.48-1.7-2.97-3.41-4.45-5.11-3.91-4.49-8.45-8.68-12.3-13.22Z"/>
      <path class="cls-8" d="M1535.02,790.07c-12.47,3.39-25.2,5.79-38.05,7.16,2.32,7.91,4.66,15.86,5.9,24.01.75,4.91,1.11,9.87,1.46,14.82.38,5.27.75,10.53,1.13,15.8.83,11.58,1.45,23.09.56,34.69-.57,7.44,1.46,14.7,2.04,22.07.28,3.59-.37,6.62-.73,10.07-.39,3.73.56,7.73.9,11.48,1.83,20.25,10.35,39.15,11.82,59.45.52,7.15.6,15.12,5.57,20.28,2.4,2.49,5.65,3.96,8.42,6.03,4.96,3.69,8.37,9.41,9.25,15.53,2.44.84,5.31.11,7.84-.4,7.61-1.54,15.21-3.08,22.82-4.62,11.09-2.24,22.39-3.43,33.32-6.37.97-.26,2.15-.82,2.06-1.81-.05-.62-.6-1.06-1.12-1.39-7.16-4.54-16.6-2.05-24.84-4.04-17.49-4.23-22.61-22.13-33.99-33.78-6.02-6.17-7.08-15.67-10.19-23.71-1.66-4.29-3.2-8.74-3.16-13.33.04-4,1.29-7.87,2.52-11.68,2.21-6.82,3.46-14.28,3.23-21.45-.11-3.41-.55-6.79-1-10.17-.68-5.18-1.36-10.36-2.05-15.54-.51-3.91-.56-7.88-1.01-11.8-1.17-10.31-2.34-20.68-1.84-31.04.23-4.77,1.25-9.17,3.15-13.55.6-1.37,1.27-2.72,1.6-4.18.92-3.99-.76-8.09-2.64-11.73-3.17-6.13-1.85-13.99-2.99-20.79Z"/>
      <path class="cls-7" d="M1737.6,981.74c-1.21.86-2.14,1.91-3.73,3.2-5.41,4.37-12.89,5.23-18.21,9.84-5.31,4.6-7.4,11.81-9.21,18.6-3.74,14.03-7.43,28.7-4.52,42.93,2.76,2.12,6.71,2.23,9.95.94s5.86-3.78,8.07-6.48c.97-1.19,1.9-2.46,3.2-3.26,1.26-.78,2.76-1.06,4.23-1.33,6.67-1.21,13.34-2.42,20.01-3.62,2.55-.46,5.21-.97,7.26-2.55s3.27-4.57,2.01-6.84c-.56-1-1.56-1.82-1.69-2.96-.24-1.99,2.1-3.13,3.87-4.08,2.81-1.5,5.14-4.16,5.63-7.31s-1.21-6.68-4.22-7.74c3.16-.88,6.16-2.3,7.71-5.19,1.55-2.9,1.24-6.89-1.25-9.03-.76-.66-1.78-1.72-1.08-2.45.15-.16.36-.25.57-.31,1.45-.44,2.97.28,4.34.94,3.02,1.44,6.15,2.65,9.35,3.62,2.49.75,5.34,1.31,7.58-.02,1.84-1.09,2.84-3.38,2.55-5.51s-1.78-4-3.7-4.94c-1.92-3.13-4.18-6.48-6.1-9.62-.71-1.16-1.53-2.41-2.83-2.8-1.5-.46-3.05.38-4.49.99-5.01,2.13-10.59,1.69-15.87,1.19s-10.66.69-16,2.21c-1.52.43-2.54.95-3.42,1.58Z"/>
      <path class="cls-7" d="M1498.24,796.52c-9.33-.28-18.32,3.25-26.88,6.98-8.1,3.54-16.59,7.75-21.05,15.38-3.07,5.26-3.84,11.5-4.55,17.55-.65,5.58-1.3,11.2-.82,16.79.64,7.35,2.95,15.06,5.13,22.04,2.32,7.4,6.79,13.97,9.23,21.35,1.93,5.85,2.69,12.02,4.43,17.93,1.27,4.34,3.07,8.51,4.85,12.67,1.96,4.57,3.93,9.14,5.89,13.71-2.04,2.66-2.09,6.27-1.22,9.51s2.6,6.16,4.03,9.2c3,6.35,4.72,13.29,5.04,20.3.53,11.86-2.91,23.81-1.02,35.54.64,3.96-1.8,7.96-3.48,11.6-1.84,3.98-2.5,8.4-2.91,12.76-.41,4.36-.57,8.81.42,13.08,2.01,8.66,8.63,15.68,16.32,20.15,7.69,4.47,16.43,6.72,25.06,8.82,5.85,1.42,11.75,2.8,17.77,2.95,3.38.08,6.22-1.05,8.39-3.65s3.5-5.79,4.51-9.02c1.16-3.74,1.94-7.64,1.85-11.55-.09-4.16-1.13-8.23-2.17-12.26-1.56-6.04-3.11-12.09-4.67-18.13-.34-1.31-.68-2.63-1.17-3.9-1.1-2.87-3.05-5.51-5.78-6.9s-4.23-3.42-6.7-5.48c-4.52-3.77-6.35-9.79-7.95-15.46-1.63-5.78-3.27-11.6-3.66-17.59-.25-3.87-.39-7.13-1.25-10.91-2.48-10.94-4.95-21.88-7.43-32.82-.79-3.49-.49-7.18-1.11-10.71-1.23-7-.64-14.18-.06-21.26.27-3.24-1.22-5.93-1.79-9.13-.33-1.87-.43-3.77-.53-5.67-.38-7.3-.76-14.6-1.14-21.9-.81-15.67-1.24-31.66-3.58-47.17-1.27-8.37-1.79-16.32-2.03-24.79Z"/>
      <path class="cls-7" d="M1501.12,652.22c-1.42,1.82-1.54,4.35-1.11,6.62s1.33,4.42,1.76,6.69c.72,3.85-.02,7.96-2.05,11.32-2.6,4.32-7.37,7.89-7.27,12.93.05,2.4,1.29,4.67,3.03,6.33.97.93,2.1,1.7,2.93,2.75s1.32,2.53.77,3.75c-.49,1.09-1.65,1.69-2.6,2.42-3.16,2.42-5.04,7.98-3.93,11.87,1.29,4.53,5.08,7.07,2.6,12.34-1.4,2.98-4.27,5.1-5.47,8.16-.86,2.19-.74,4.74.31,6.84,2,4,6.68,5.71,10.79,7.49,13.47,5.82,24.98,16.09,32.28,28.83,1.58,2.75,1.62,6.43,2.47,9.49,1.45,5.27.18,11.07,2.01,16.22.98,2.74,2.79,5.13,3.76,7.87s.85,6.25-1.45,8.04c.42,2.96-1.69,5.84-2.38,8.76-2.15,9.02-1.59,17.89-.59,27.03,1.04,9.51,2.08,19.01,3.12,28.52.62,5.71.7,11.79,1.33,17.5.62,5.73,1.24,11.59-.02,17.21-.65,2.9-1.79,5.72-1.9,8.69-.19,5.14,2.73,9.85,5.87,13.93,2.99,3.89,6.27,7.54,9.81,10.93,12.32,11.78,31.49,15.15,48.14,11.48,5.94-1.31,12.25.54,18.28-.31s11.99-2.69,17.08-6.02c4.3.06,8.4-1.74,12.23-3.69,1.79-.91,3.62-1.85,5.02-3.31,1.26-1.31,2.09-2.97,2.76-4.66,1.59-3.97,2.43-8.25,2.45-12.53.02-4.02,1.02-7.33,2.74-10.96s3.32-7.77,2.04-11.59c-.57-1.69-1.66-3.14-2.45-4.74-1.8-3.62-2.02-7.8-2.19-11.85-.13-2.94-1.59-5.16-2.14-8.05-1.36-7.17-2.73-14.37-4.97-21.32-2.33-7.25-4.96-14.13-7.66-21.19-2.58-6.75-1.29-15.19-6.22-20.47-3.61,2.01-8.26,2.03-11.89.05s-6.13-5.89-6.4-10.02c-1-15.53.75-29.92-2.75-45.08-1.35-5.83-2.06-10.63-1.17-16.55,1.06-7.01,4.64-13.8,3.62-20.81-.13-.89-.34-1.8-.86-2.54-.88-1.24-2.43-1.78-3.88-2.24-4.59-1.45-9.26-2.93-13.24-5.64-3.98-2.71-7.25-6.87-7.71-11.67-.67-7-4.62-13.71-3.82-20.7.31-2.66,1.3-5.19,1.81-7.81s.45-5.56-1.14-7.71c-1.51-2.05-4.32-3.38-4.56-5.91-1.54-1.77-2.35-3.98-2.78-6.28-1.34-7.24-.7-14.68-.06-22.01.31-3.49.28-7.02.16-10.52s-1-7.22-3.61-9.56c-1.26-1.13-2.83-1.85-4.39-2.53-4.28-1.85-8.65-3.5-13.09-4.91-3.33-1.07-6.73-2.01-10.21-2.35-9.46-.94-19.27,2.88-25.6,9.97-9.41,10.52-18.91,20.39-27.59,31.51Z"/>
      <path class="cls-7" d="M1616.81,1018.55c-19.82,4.13-39.63,8.27-59.45,12.4-3.51.73-7.17.64-10.67,1.42-1.55.35-3.15.76-4.41,1.72-1.19.91-1.98,2.25-2.61,3.61-1.39,3.01-2.11,6.28-2.68,9.55-1.54,8.78-2.1,17.73-1.67,26.63.14,2.95.47,6.08,2.33,8.37,2.5,3.07,6.92,3.65,10.88,3.67,14.13.06,28.08-3.84,42.18-1.32,6.82,1.22,14.11.4,21.12.47,19.65.21,39.46,1.08,59.1,1.91,2.69.11,5.44.22,8.04-.48s5.1-2.34,6.14-4.83c2.73-6.51,8.07-11.58,12.93-16.7,1.56-1.65,3.18-3.25,4.51-5.1,4.44-6.17,5.15-14.18,5.7-21.76.7-9.54,3.27-18.8,6.2-27.86s5.09-18.36,9.54-26.31c5.38-9.6,7.91-20.39,10.77-30.92,1.45-5.33,2.99-10.65,5.05-15.79,2.1-5.23,2.05-11.36,3.12-16.93.72-3.74,1.57-7.45,2.57-11.13.9-3.34,2.34-6.57,2.27-10.01-.22-10.06,2.84-19.35,4.21-29.18,1.38-9.96,2.35-20.3.35-30.25-1.42-7.05-2.25-14.21-2.46-21.4-.11-3.62-.12-7.12-1.17-10.59-.68-2.25-1.91-4.28-3.14-6.29-3.46-5.68-6.93-11.35-10.39-17.03-2.36-3.86-6.73-6.02-10.86-7.86-4.08-1.81-8.57-2.39-13-2.95-1.97-.25-3.95-.5-5.93-.36-1.92.13-3.8.63-5.65,1.16-4.05,1.16-8.07,2.49-12.22,3.16-5.16.83-10.15,4.73-14.17,8.06-1.45,1.2-2.84,2.52-3.79,4.15-1.15,1.96-1.59,4.24-1.94,6.49-1.32,8.3-1.75,16.73-1.28,25.12.97,17.27,1.07,33.98,2.41,51.22.76,9.77.18,19.61.45,29.4.06,2.16.12,4.33-.09,6.48-.48,4.91-2.37,9.56-4.23,14.13-.63,1.54-1.26,3.09-2.19,4.46-.56,7.69-1.22,15.38-1.78,23.07-.28,3.89-.57,7.79-1.21,11.64-.46,2.77-1.11,5.51-1.93,8.19-2.88,9.39-2.4,19.17-3,28.98-.19,3.11-.44,6.48-2.49,8.83-4.56,5.24-10.64,10.6-17.59,10.54-2.9-.03-5.76-.73-8.66-.66-3.34.08-5.92.17-9.19.85Z"/>
      <path class="cls-9" d="M1446.03,669.12c2.12,3.74,4.24,7.47,6.38,11.21,1.98,3.46,4.6,7.34,8.58,7.59.77.05,1.61-.03,2.23.43.74.55.81,1.6.84,2.52.11,4.14.57,8.41,2.58,12.04s5.89,6.48,10.03,6.16c2.56-.2,4.96-1.56,7.53-1.48-2.13,3.74-2.86,8.25-2.03,12.48,1.05,5.32,3.06,10.44,6.27,14.81.17.22.35.46.62.54.36.1.72-.12,1.02-.35,3.74-2.76,6.61-7.68,4.89-12-.43-1.09-1.12-2.05-1.62-3.11-1.4-2.97-1.19-6.42-.96-9.69.16-2.19,1.21-3.63,2.92-4.94,1.01-.78,2.09-1.54,2.79-2.61s.95-2.56.21-3.61c-.26-.38-.63-.67-.97-.97-.84-.76-1.55-1.66-2.1-2.65-.33-.6-.77-.92-1.19-1.45-.9-1.14-1.83-2.32-2.17-3.73-.28-1.17.12-2.3.36-3.43.28-1.31,1.17-2.45,1.97-3.5,1.45-1.92,2.9-3.83,4.34-5.75,1.29-1.7,2.64-3.59,2.56-5.73-.03-.97-.03-1.85-.15-2.81-.28-2.33-1.21-4.53-1.71-6.82-.45-2.04-.55-4.16-.3-6.23.18-1.52.57-3.06,1.53-4.25-.97-1.66-2.5-2.73-3.95-4-3.08-2.7-6.16-5.4-9.24-8.09-4.82-4.23-10.19-8.44-15.09-12.58-5.64-4.78-11.78-8.97-18.28-12.48-7.38-3.98-13.67-9.04-20.57-13.8-7.35-5.08-15.71-8.46-23.99-11.81-12.18-4.92-22.81-12.38-34.8-17.76-4.65-2.08-9.47-3.76-14.28-5.43s-9.82-3.98-15.05-4.56c-.42-.05-1.02.09-.98.51.02.14.11.25.19.36,1.2,1.49,2.41,2.97,3.61,4.46.22.27.45.58.43.93-.05.72-1.02.91-1.57,1.38-1.1.93-.33,2.75.69,3.76,1.78,1.76,4.1,2.86,6.36,3.93,7.74,3.67,15.42,7.49,23.03,11.44,2.23,1.16,4.47,2.34,6.39,3.96.71.59,1.38,1.72.68,2.33-.24.21-.57.26-.89.31-2.37.35-4.74.69-7.11,1.04,1.83,1.16,3.44,2.66,4.71,4.4,2.26,3.09,5.51,5.53,8.31,8.12,3.21,2.97,6.42,5.93,9.63,8.9,1.13,1.05,2.26,2.09,3.35,3.18,3.99,3.98,7.42,8.51,10.18,13.42l33.76,35.42Z"/>
      <path class="cls-9" d="M1610.9,966.92c5.37.27,10.92.38,15.93-1.57,1.6-.62,3.12-1.45,4.7-2.12,2.36-1.01,5.27-1.73,7.77-2.32,5.57-1.3,11.35-2.7,15.77-6.33,1.69-1.38,3.48-3.19,5.65-2.93-1.09,7.17-5.27,13.8-4.41,20.99.34,2.85-.49,5.69-1.15,8.48-.88,3.74-1.46,7.55-1.73,11.39-.13,1.81.42,2.76.45,4.57.04,3.22-.51,6.44-1.6,9.46-.44,1.21-.98,2.41-1.79,3.42-.73.91-1.67,1.64-2.63,2.32-2.27,1.6-4.6,3.55-7.35,3.91-1.76.23-3.53.3-5.31.37-4.41.17-8.83.34-13.24.51-1.82.07-4.33-.29-6.02.42-1.54.64-2.64,1.42-4.42,1.53-.48.03-.97.02-1.42-.13-.89-.28-1.54-1.01-2.22-1.64-2.05-1.89-4.72-3.01-7.45-3.61s-4.94-.22-7.72-.48-5.63-.53-8.45-.79c-.99-.09-1.99-.19-2.96-.4-1.88-.41-3.67-1.28-5.14-2.53-1.61-1.37-3.32-2.42-4.81-3.95-1.64-1.67-3.06-3.54-4.48-5.39-3.62-4.74-6.8-9.81-10.77-14.26-6.4-7.15-11.72-14.9-14.74-24.01-1.22-3.68-2.33-7.4-3.33-11.15-1.05-3.97-1.98-8.17-.92-12.13.5-1.85,1.42-3.61,1.53-5.52.66.14.71.68.97,1.3,2.96,6.91,7.09,13.32,12.16,18.87,2.53,2.77,4.84,5.54,8.11,7.38s6.83,3.07,10.38,4.25c2.99.99,6.03,1.95,9.17,2.17,3.46.24,6.88.71,10.33,1.08,2.45.27,4.92.26,7.39.25,3.48,0,6.95-.02,10.43-.03,1.12,0,2.57-.56,3.33-1.37Z"/>
      <path class="cls-9" d="M1647.07,818.51c-2.61,1.04-4.23,3.83-4.52,6.62s.53,5.59,1.63,8.17,2.49,5.05,3.42,7.7c1.17,3.35,1.58,6.91,2.66,10.29,1.16,3.61,2.04,7.17,2.89,10.89,1.16,5.08,2.33,10.15,3.53,15.22.6,2.53,1.21,5.07,1.81,7.6.5,2.1.69,4.5,2.01,6.29,2.14,2.92,1.5,7.04,2.06,10.62.56,3.58,1.43,7.23,3.58,10.14.16.22.37.46.64.47.32.02.57-.26.74-.53,1.2-1.86,1.14-4.23,1.07-6.43-.27-7.88-.27-15.77,0-23.64.44-13.17-3.37-25.79-2.19-38.92.8-8.95-1.16-18.1-1.08-27.09.06-6.63.69-13.26,1.83-19.79.22-1.27.47-2.53.88-3.75,1.1-3.27,3.64-5.82,6.46-7.81s5.92-3.58,8.58-5.78c.42-.35.85-.74,1.07-1.25s.17-1.17-.26-1.52c-.3-.25-.71-.3-1.09-.32-2.67-.13-5.3.74-7.72,1.88-6.9,3.26-12.65,8.88-16.06,15.7-4.44,8.86-8.52,15.93-11.92,25.24Z"/>
      <path class="cls-9" d="M1726.05,1080.62c-12.97-.61-26.03,2.81-38.87.88-.43-1.3.39-2.65,1.19-3.77,4.76-6.63,10.25-12.69,15.72-18.74,2.78-.15,5.28-.35,7.87-1.38.96-.38,1.87-.87,2.78-1.36,1.87-1.01,3.76-2.04,5.3-3.51,1.28-1.23,2.26-2.72,3.23-4.21,3.77-1.19,7.75-2.13,11.65-2.82,2.18-.39,4.39-.61,6.59-.83,2.49-.25,4.97-.51,7.46-.76s5.41-1.97,7.31-3.72,3.02-4.6,1.99-6.97c-.51-1.17-1.47-2.08-2.12-3.18-.11-.18-.21-.38-.17-.58.04-.23.22-.4.4-.54,1.53-1.24,3.23-2.27,5.05-3.03,2.52-1.06,3.84-4.09,4.29-6.79.11-.63.15-1.27.03-1.89-.46-2.36-3.16-3.85-3.44-6.24,1.84-.45,3.81-.97,5.04-2.41,2.56-2.99,2.57-6.96,1.07-10.6-.21-.52-.48-1.02-.58-1.57s.04-1.19.49-1.52c.76-.56,1.8.03,2.58.57,3.22,2.23,7.02,3.62,10.92,4.01,1.22.12,2.48.02,3.71.05s2.57-.21,3.36-1.15c.27-.33.46-.72.75-1.03.86-.92,2.4-.86,3.5-.23s1.86,1.69,2.65,2.67,1.7,1.96,2.91,2.33c2.31.7,4.31,1.1,6.48,2.17,10.36,5.12,20.72,10.24,31.08,15.35,2.46-.16,5.13.74,7.42,1.65,12.97,5.21,24.89,13.02,34.84,22.82,3.36,3.31,5.21,8.06,9.01,10.86,1.93,1.42,4.11,2.45,6.24,3.55,5.97,3.09,11.59,6.82,17.04,10.75,2.72,1.96,5.42,3.99,7.71,6.44-4.33,1.45-9.08,1.6-13.49.44l-178.96,4.29Z"/>
      <path class="cls-9" d="M1761.36,869.6c-1.15-7.28-2.31-14.56-3.46-21.85-.25-1.56-.5-3.13-.83-4.68-.62-2.87-1.52-5.68-2.7-8.38-.38-.87-1.01-1.87-1.96-1.83-.15,7.12.33,14.24.99,21.33.69,7.44-.39,14.69-1.75,22.04-.95,5.18-1.91,10.35-2.86,15.53-.37,2.02-.75,4.05-.88,6.1-.12,1.88.05,3.44-.33,5.3-.81,3.94-1.63,7.87-2.44,11.81-.46,2.21.46,3.19-.17,5.37-1.36,4.67-1.8,9.59-3.53,14.07-1.98,5.12-3.45,10.51-5.15,15.73-1.01,3.1-1.63,6.12-3.08,9.02s-2.32,5.86-3.2,8.87c-1.67,5.75-3.01,11.74-6.31,16.82-.86,1.33-1.86,3.09-.9,4.35,4.36-1.76,8.57-4.24,12.64-6.58,8.15-4.68,17.98-5.13,27.38-5.31,3.54-.07,7.2-.14,10.44-1.59.75-.33,1.53-.82,1.76-1.61.16-.54.02-1.12-.12-1.67-.66-2.57-1.31-5.13-1.97-7.7-.19-.76-.41-1.94-.61-2.7-1.27-4.74-2.53-9.49-3.8-14.23-1.32-4.94-2.65-9.96-2.48-15.07.07-2.13-.23-3.42-.34-5.55-.08-1.56-.16-3.13-.37-4.68-.57-4.2-2.12-8.26-2.29-12.52-.07-1.84.51-3.44.54-5.21.03-1.92-.57-3.89-.88-5.77-1.4-8.51.86-17.72-1.36-26.05-.32-1.2.2-2.17,0-3.39Z"/>
      <path class="cls-9" d="M1750.1,817.3c6.15-2.09,12.3-4.17,18.45-6.26,2.11-.72,4.25-1.45,6.11-2.67,2.27-1.49,4.07-3.7,5.05-6.24.51-1.3.82-2.71,1.63-3.86.72-1.01,1.77-1.73,2.75-2.5,2.44-1.93,4.51-4.32,6.08-7,2.01-3.46,5.28-6.58,5.64-10.56.16-1.77-.17-3.63.49-5.28.73-1.83,2.61-3.28,2.5-5.25-5.16-.22-9.29-4.17-12.9-7.88-2-2.06-4.16-4.91-2.93-7.51,9.34-5.24,18.59-10.44,27.08-16.96,1.92-1.48,3.82-3.03,5.97-4.14,5.83-3,12.76-2.42,19.32-2.57,2.82-.06,5.78-.32,8.14-1.87,2.35-1.54,3.81-4.29,3.93-7.1.07-1.6-.3-3.28-1.33-4.51s-2.78-1.92-4.3-1.4c.56-.38,1.11-.76,1.67-1.14,5.39-3.67,10.22-8.82,11.34-15.25.58-3.32-.04-7.14-2.68-9.24-.77-.61-1.69-1.06-2.31-1.82-.86-1.04-1.01-2.6-.37-3.78-.71-2.51.15-5.18,1.16-7.58s2.41-4.63,3.39-7.04c.52-1.28.88-2.9-.04-3.94-.66-.74-1.73-.91-2.7-1.13-1.82-.41-3.55-1.19-5.07-2.28-.68-.49-1.35-1.09-1.56-1.9-.36-1.4.74-2.69,1.6-3.85,2.83-3.81,3.56-9.08,1.88-13.51-4.05.28-8.04,1.37-11.67,3.17-.28-.62.27-1.28.79-1.71,2.31-1.93,5.01-3.35,7.28-5.32s4.14-4.76,3.93-7.76c-1.27-.76-2.55-1.53-3.82-2.29.02-.94-.21-1.83-.18-2.78.89.52,2.09,0,2.65-.87s.62-1.95.62-2.97c0-2.87-.4-5.75-1.16-8.52-.31-1.14-.77-2.36-1.81-2.92-.52-.28-1.12-.36-1.66-.6s-1.03-.76-.94-1.35c.06-.36.33-.65.59-.91,3.55-3.58,7.19-7.44,8.43-12.32.45-1.77-.08-3.68-.46-5.47-.23-1.07-.57-2.15-1.3-2.98-1.38-1.57-3.74-1.77-5.83-1.69-3.11.13-6.21.64-9.19,1.56-.84.26-2.12.29-2.21-.59-.03-.34.17-.65.36-.93,2.93-4.23,5.86-8.47,8.8-12.7,1.81-2.61,3.42-4.14,4.81-7,.29-.59.56-1.3.24-1.87-.36-.66-1.26-.74-2-.74-5.62,0-11.23,0-16.85,0,5.93-3.27,10.39-9.1,11.98-15.68-3.16.88-6.21,2.1-9.25,3.31-4.59,1.83-9.18,3.63-13.76,5.48-3.78,1.53-6.28,4.76-9.95,6.41-2.33,1.05-4.96,1.17-7.51,1.28-.73.03-1.61,0-2.01-.62-.5-.77.13-1.76.73-2.45,3.05-3.53,5.96-7.18,8.73-10.94,1.62-2.2,3.22-4.49,3.96-7.12-3.56.97-7.11,1.94-10.67,2.91-1.91.52-3.84,1.05-5.54,2.07-1.51.91-2.39,1.78-3.03,3.3-.7,1.66-1.6,3.04-3.3,3.86-.12.06-.24.11-.37.1-.39-.05-.44-.58-.4-.97.12-1.31-.04-2.64-.46-3.89-.27-.81-.79-1.68-1.64-1.78-.4-.05-.8.1-1.18.23-2.08.75-4.22,1.34-6.39,1.78-5.34,1.08-10.55,4.23-14.73,7.73-7.41,6.18-14.47,12.77-21.15,19.73-13.38,13.93-23.03,31.83-33.17,48.27-5.16,8.37-11.54,15.47-17.26,23.47-1.03,1.45-2.07,2.9-2.91,4.47-.81,1.51-1.43,3.11-2.14,4.67-1.23,2.72-3.33,5.29-4.34,8.06s-1.02,6.26-1.35,9.14c-.75,6.4-1.12,12.84-1.12,19.28,0,2.96-.1,5.55.05,8.5.08,1.56.2,3.13.63,4.62.47,1.62,1.91,3.26,2.15,4.87.11.73-.22,1.49-.04,2.29.19.85.59,1.66,1.06,2.39.87,1.36,2.01,2.55,2.8,3.96.84,1.52,1.25,3.25,1.63,4.95.81,3.62,1.56,7.25,2.31,10.88.64,3.07.88,5.78,1.52,8.85,1.15,5.57-.27,11.51,1.41,16.94,1.02,3.29,5.14,4.7,8.3,6.09,4.29,1.89,8.71,3.48,13.23,4.73,2.19.61,4.32.41,6.38,1.38s3.97,2.23,5.98,3.29c1.77.93,3.64,1.71,5.28,2.85,6.64,4.6,9.48,13.23,13.58,19.85,1.02,1.65,2.08,3.28,2.88,5.04,1.72,3.74,2.23,8.03,1.46,12.07"/>
      <path class="cls-4" d="M1601.1,595.15c11.31,3.54,22.57,7.7,32.4,14.46,4.65,3.2,9.12,7.12,13.38,10.87,4.61,4.07,8.85,8.52,13.03,13.02,2.62,2.82,5.21,5.67,7.86,8.47,4.25,4.5,8.66,9.26,10.28,15.23.67,2.48.84,5.07.87,7.64.06,4.57.18,7.92-.03,12.48l-.35,7.65c-.07,1.58-.15,3.16-.15,4.74,0,5.6.42,11.5,1.2,17.04.93,6.59,4.94,12.29,7.13,18.57,2.25,6.46,1.55,12.26,3.23,18.89,1.57,6.17-1.33,13.38,2.11,18.75,2.03,3.17,5.76,4.75,9.34,5.9s7.38,2.1,10.23,4.56c-.82-.03-1.65-.2-2.47-.14-8.2.55-16.4,1.11-24.61,1.66-2.48.17-4.98.34-7.36,1.03-5.8,1.69-10.25,6.25-14.41,10.64-3.12,3.28-5.02,7.28-7.38,11.15-3.18,5.22-4.66,11.3-7.39,16.77-2.73,5.47-7.36,10.66-13.44,11.34-5.98.67-12.08-3.91-13.11-9.84-.55-3.21-.03-6.72.02-9.97.24-16.13.58-31.38-2.99-47.11-1.83-8.07,4.56-15.85,4.52-24.12-.01-2.12-.51-4.34-1.94-5.91-.8-.87-1.83-1.49-2.89-2.02-1.79-.89-3.69-1.55-5.64-1.97-2.42-.52-4.94-.66-7.28-1.46-4.89-1.68-7.48-5.77-8.74-10.78-1.19-4.72-2.28-9.46-3.26-14.23-.66-3.22-1.28-6.56-.49-9.75.82-3.34,3.15-6.61,2.14-9.89-.57-1.83-2.07-3.18-3.34-4.63-4.3-4.9-5.1-11.76-5.32-18.28-.26-7.93-.53-15.87-.79-23.8-.1-3.15-.25-6.44-1.8-9.19-1.97-3.48-5.82-5.4-9.51-6.95-7.7-3.24-15.95-5.81-24.28-5.19-4.38-1.27-10.09-.16-14.07,2.09-3.45,1.95-6.11,5.01-8.64,8.06-8.48,10.21-16.12,20.98-25.02,30.72-3.13-2.42-6.25-4.84-9.38-7.27,2.37-2.49,4.86-5.12,6.81-7.97,1.66-2.43,2.53-4.4,4.98-6.34,7.11-5.66,11.94-13.64,19.13-19.22,7.59-5.89,16.22-11.52,25.36-14.6,3.59-1.21,7.32-2,11.07-2.59,12.39-1.97,27.1-2.8,39.23.95.59.18,1.18.36,1.77.55Z"/>
      <path class="cls-4" d="M1703.78,1057.43c4.61.63,9.64-.01,13.22-2.97,1.56-1.29,2.78-2.95,4.28-4.31,3.82-3.46,9.17-4.66,14.3-5.1s10.37-.27,15.36-1.55c3.11-.8,5.78-3.3,6.73-6.37,1.04-3.33-.32-7.52-3.54-8.85-1.57-.65-3.34-.57-5.04-.48-4.3.23-8.61.45-12.91.68-3.67.19-7.55.45-10.62,2.47"/>
      <path class="cls-4" d="M1721.17,992.33c2.45-.57,4.7-1.97,6.3-3.92.98-1.19,1.72-2.58,2.87-3.6,1.2-1.06,2.75-1.64,4.27-2.16,8.96-3.06,18.33-4.92,27.78-5.51,8.1-.51,15.67,4.83,22.22,9.62,2.07,1.52,4.07,3.32,5.04,5.7s.65,5.45-1.34,7.07c-1.4,1.13-3.35,1.37-5.12,1.04s-3.4-1.15-5-1.96c-2.61-1.32-5.23-2.65-7.84-3.97-1.6-.81-3.24-1.63-5.01-1.92-1.59-.26-3.21-.07-4.8.12-5.69.67-11.38,1.34-17.07,2.02-3.25-.37-6.61.16-9.65,1.34"/>
      <path class="cls-4" d="M1750.43,1027.64c2.23-.09,4.43-.57,6.6-1.13,1.59-.41,3.18-.88,4.61-1.71s2.67-2.04,3.25-3.58c.83-2.23.09-4.84-1.48-6.62s-3.86-2.8-6.19-3.27-4.73-.42-7.1-.38c-1.16.02-2.33.04-3.49.07-1.03.02-2.07.04-3.08.25-1.09.23-2.13.68-3.22.93-1.04.24-2.11.29-3.16.41-2.03.23-4.03.71-6.02,1.18"/>
      <path class="cls-4" d="M1766.74,977.01c1.63.95,3.7,1.11,5.46.44,1.14-.43,2.14-1.19,3.26-1.68s2.5-.68,3.52.01c.47.32.81.79,1.12,1.27,1.55,2.44,2.39,5.32,2.41,8.22"/>
      <path class="cls-4" d="M1758.44,992.98c2-.14,4.14-.25,5.88.73,2.21,1.24,3.19,3.89,3.68,6.37.4,2.01.58,4.05.56,6.1,0,.34-.02.69-.16,1.01-.18.39-.54.67-.89.91-3.46,2.39-7.83,3.41-11.98,2.8-.76.16-1.39,0-2.16-.04"/>
      <path class="cls-4" d="M1502.59,651.37c-1.28,1.41-2.95,3.12-3.26,5.08-.34,2.18.95,4.45,1.56,6.46.54,1.79.77,3.67.66,5.53-.24,4-1.98,7.69-3.82,11.18-1.51,2.86-4.77,4.32-4.76,7.99.01,3.15,2.51,5.63,4.55,8.03,1.24,1.45,2.43,3.21,2.17,5.1-.21,1.51-1.3,2.74-2.45,3.73s-2.44,1.88-3.29,3.15c-1.25,1.88-1.33,4.27-1.36,6.53-.04,2.71.57,4.87,2.09,7.11.95,1.39,2.2,2.68,2.46,4.33.31,2.01-.96,3.94-2.45,5.34s-3.27,2.51-4.46,4.16c-1.24,1.71-1.92,4.4-1.49,6.51.47,2.29,3.05,4.7,4.58,6.38,1.2,1.33,2.49,2.61,4,3.58,1.58,1.02,3.36,1.66,5.13,2.3,1.92.69,3.83,1.38,5.79,1.92,3.2.89,6.3.99,9.57,1.35s6.79.99,10.22,1.14c1.68.07,3.35.03,5.03,0,1.83-.04,3.66-.09,5.5-.13,8.55-.2,17.11-.4,25.66-.6,5.02-.12,10.29-1.49,13.53-5.32"/>
      <path class="cls-4" d="M1642.29,822.05c.32,4.66,1.55,9.21,2.77,13.72,2.53,9.31,5.06,18.63,7.59,27.94,1.64,6.04,3.72,11.89,5.38,17.92,1.69,6.13,1.98,12.51,3.16,18.74.55,2.88,1.36,5.72,2.18,8.52s2.63,5.54,2.66,8.58c.01,1.17-.26,2.33-.53,3.47-.69,2.96-1.39,5.92-2.08,8.89-2.02,8.63-2.13,17.19-3.48,25.95-.36,2.32-.71,4.64-1.07,6.97-1.05,6.83-2.1,13.66-3.15,20.49s-.46,13.2-2.15,19.6c-1.24,4.66-3.73,9.16-7.72,11.86-4.6,3.12-10.55,3.48-16.07,2.82-8.23-.99-15.07,1.13-23.17,2.9-8.45,1.85-16.9,3.69-25.34,5.54-4.06.89-8.03,1.06-12.13,1.66-2.82.42-5.64.83-8.45,1.33-11.09,1.96-22.09,5.17-33.35,5.04-6.88.49-13.86-.51-20.08-3.48-1.23-.59-2.48-1.29-3.21-2.43-1.23-1.93-.6-4.49.38-6.56,1.61-3.41.72-9.25.57-13-.2-4.89-.82-9.8-2.4-14.45-1.37-4.03-3.46-7.82-6.13-11.14-1.09-1.36-.3-3.65-.28-5.39.01-1.33.23-2.65.29-3.99.3-6.23-2.79-12.07-5.79-17.54-1.96-3.58-5.18-6.34-8.12-9.16-1.97-1.89-4.33-3.68-7.06-3.79-.81-.03-1.64.09-2.33.51-1.43.88-1.86,2.84-1.48,4.47s1.4,3.03,2.34,4.42c2.99,4.41,5.46,9.31,6.17,14.59.76,5.66,1.84,11.21,1.01,16.86-.22,1.49-.62,2.95-.84,4.44-.41,2.8-.15,5.65.1,8.47.32,3.55.65,7.11.97,10.66.51,5.58.52,10.02-1.35,15.3-.74,2.1-1.92,4-2.9,6-3.71,7.56-4.43,16.53-2,24.58,4,13.23,17.48,20.43,30.48,25.11,26.92,9.7,56.98,5.22,85.59,5.92,25.45.62,50.9,1.24,76.35,1.86,6.22.15,13.4-.12,17.25-5.01,7.47-9.5,16.21-18.34,20.31-29.71.92-2.55,1.7-5.15,2.47-7.75,2.64-8.86,3.11-17.48,5.24-26.48.53-2.25,1.12-4.57,2.53-6.4-.14-1.96.62-3.81,1.3-5.65,2.64-7.13,5.28-14.26,7.92-21.38,4.98-13.44,8.64-27.15,13.04-40.73,4.62-14.26,7.62-29.04,8.91-43.97,1.2-13.82,4.69-25.59,5.62-39.42.29-4.29.78-8.6.68-12.91-.08-3.13-.5-6.23-.93-9.33-1.32-9.58-2.63-19.17-3.95-28.75-.33-2.42-1.68-4.7-2.52-6.99-2.91-7.88-7.58-15.21-14.08-20.53s-14.89-8.5-23.27-8"/>
      <path class="cls-4" d="M1504.16,754.84c9.52,5.76,19.37,11.83,25.38,21.19,2.4,3.73,4.11,7.89,5.02,12.23.8,3.77.47,7.55,1.16,11.34,2.34,12.84,8.3,25.03,15.28,35.89"/>
      <path class="cls-4" d="M1694.88,774.14c-5.85,1.96-11.55,4.41-17,7.31-2.54,1.35-5.09,2.86-6.82,5.15-1.31,1.73-2.07,3.8-2.67,5.89-3.02,10.4-2.55,21.46-2.04,32.28.89,19.12-.09,37.56,2.11,56.57,1.52,13.12.68,26.78-2.91,39.49"/>
      <path class="cls-4" d="M1750.31,823.25c8.64,13.9,10.18,30.91,11.51,47.22.26,3.17.52,6.35.77,9.52,1.28,15.75,2.55,31.74,3.71,47.5.29,3.87.57,7.74,1.1,11.59,1.28,9.21,3.65,18.69,6.07,27.63,1.18,4.35,4.67,8.57,7.09,12.35,2.93,4.57,5.97,9.07,9.13,13.49,2.73,3.81,5.71,8.39,9.89,10.6,5.19,2.74,10.98,4.77,16.35,7.16,11.21,4.97,22.42,9.94,33.63,14.91,12.3,5.45,25.33,11.52,32.42,22.96,2.33,3.76,5.45,7.19,9.26,9.44,2.82,1.67,6.07,2.45,9.11,3.69,7.76,3.19,13.9,9.37,19.21,15.87l-234.7,4.08"/>
      <path class="cls-4" d="M1489.28,737.26c-3.13-5.94-5.58-12.24-7.27-18.74-.32-1.24-.62-2.53-.45-3.8.19-1.32.87-2.52,1.54-3.67,1.25-2.15,2.5-4.31,3.76-6.46-4.6,1.79-9.14,3.75-13.61,5.87-2.36-3.18-4.88-6.51-7.25-9.69-1.89-2.54-3.89-5.54-3.17-8.63.41-1.76,1.65-3.18,2.84-4.53-2.72.79-5.59,1.06-8.4.8-1.95-4.39-4.41-8.56-7.32-12.39-1.89-2.49-3.09-5.41-5.03-7.82-1.84-2.27-4.28-3.96-6.31-6.04-2.9-2.97-5.53-6.19-8.34-9.24-2.06-2.24-4.32-4.29-6.45-6.46-2.58-2.63-4.99-5.44-7.39-8.24-6.04-7.05-12.09-14.11-18.13-21.16-7.95-9.28-16.91-16.97-27.66-22.78,5.79.55,11.58,1.1,17.37,1.65-.12-.72-.73-1.24-1.31-1.68-10.54-8.09-23.55-12.15-35.29-18.38-2.68-1.42-5.35-3-7.32-5.31,2.31-.1,4.61-.37,6.88-.8-3.37-3.02-6.55-6.22-9.92-9.23,10.68,2.1,21.12,5.44,31.04,9.91,16.44,7.42,31.57,16.68,48.16,23.75,3.8,1.62,7.4,3.65,10.85,5.92s6.9,3.68,10.11,6.29c4.3,3.49,8.85,6.55,13.47,9.59,5.56,3.65,10.71,7.84,16.15,11.63,6.06,4.23,12.26,8.33,17.78,13.27,1.89,1.69,3.71,3.51,5.95,4.7"/>
      <path class="cls-1" d="M1882.2,1048.67c4.06,5.81,7.36,12.14,9.8,18.79,1.29,3.52,2.36,7.15,4.12,10.47"/>
      <path class="cls-4" d="M1835.2,1018.75c-.88,3.3,1.32,6.56,3.4,9.28,1.16,1.51,2.31,3.02,3.47,4.54,1.27,1.66,2.54,3.32,4.08,4.74,1.52,1.4,3.28,2.54,4.79,3.96,2.26,2.13,3.93,4.88,4.76,7.87.54,1.93.75,3.99,1.68,5.77,1.43,2.74,2.53,5.61,3.66,8.49,1.82,4.61,3.35,9.33,4.76,14.09"/>
      <path class="cls-4" d="M1755.09,832.69c1.41,4.34,4.66,7.79,7.64,11.24,4.77,5.52,9.1,11.44,12.91,17.67,3.03,4.96,3.58,11.28,5.49,16.77,1.94,5.58,3.9,11.2,6.74,16.38,2.24,4.09,5.03,7.92,6.58,12.31.97,2.78,1.43,5.74,2.74,8.38,3.63,7.35-6.23,15.86-13.81,18.97-1.44.59-2.95,1.03-4.44,1.46-3.73,1.08-7.46,2.16-11.2,3.24"/>
      <path class="cls-4" d="M1749.13,817.2c2.69-1.01,5.39-2.02,8.08-3.02,2.6-.97,5.22-1.95,7.95-2.49,3.77-.74,7.98-.73,10.92-3.2,2.41-2.03,3.37-5.25,4.34-8.24.31-.97.65-1.96,1.31-2.75.68-.82,1.64-1.34,2.51-1.94,1.71-1.18,3.15-2.75,4.18-4.56,1.91-3.34,6.06-5.42,6.78-9.2.55-2.89-.33-6.15,1.2-8.66.6-.98,1.5-1.73,2.15-2.67s.98-2.27.34-3.21c-.75-1.1-2.32-1.09-3.64-1.26-3.06-.39-5.74-2.34-7.68-4.73s-3.23-5.24-4.51-8.05c2.35-4.16,7.02-5.6,11.29-7.75,5.33-2.68,10.04-6.42,15.02-9.7,4.98-3.28,10.43-6.18,16.35-6.84,4.96-.56,9.82,1.04,14.66-.16,1.94-.48,3.9-1.2,5.31-2.61,2.7-2.7,2.66-7.02,2.43-10.84-2.21-.96-4.8-1.01-7.05-.15-2.12-.77,0-1.51.92-2.25s2.02-1.22,3.04-1.82c3.43-2.03,5.77-5.55,7.15-9.29s1.88-7.74,2.37-11.69c.06-.5.11-1.06-.22-1.45-.23-.28-.6-.39-.94-.5-1.68-.5-3.36-1.01-5.04-1.51.58-3.56,1.16-7.13,1.74-10.69.41-2.48,2.07-4.48,3.1-6.77s1.65-4.88,1.09-7.34c-2.69-.16-5.34-1.03-7.61-2.5-.58-.38-1.17-.83-1.4-1.48-.31-.87.09-1.84.69-2.55s1.37-1.24,1.99-1.92c2.4-2.68,1.8-6.81,1.04-10.34.4-.93-.78-2.22-1.77-2.43s-2,.18-2.94.56c-3.85,1.55-7.7,3.1-11.55,4.65,4.36-3.29,8.72-6.59,13.09-9.88,1.31-.99,2.74-2.18,2.9-3.82.2-2.1-1.75-3.71-3.49-4.89s-3.7-2.76-3.56-4.86c1.79.61,3.58,1.22,5.37,1.83.64.22,1.41.42,1.95,0,.53-.4.54-1.18.5-1.84-.25-3.75-.89-7.46-1.91-11.08-.17-.61-.36-1.23-.75-1.73-1.39-1.78-4.23-1.06-6.34-1.86,3.56-1.95,6.37-4.81,8.76-8.09.66-.91,1.27-1.87,1.62-2.93.33-1.03.4-2.13.47-3.21.15-2.44.31-4.88.46-7.32-3.03-2.78-7.25-4.11-11.3-3.43-4.24.71-7.86,3.36-11.3,5.93,5.69-7.09,10.93-14.54,15.68-22.28,1.05-1.71,2.22-3.16,2.54-5.14-7.16-.86-14.34,1.01-21.32,2.87,5.63-7.34,13.38-13.19,17.3-21.56-3.93,2.12-7.87,4.23-11.8,6.35-5.43,2.92-11.16,4.44-16.58,7.56-5.19,2.99-10.61,6.32-16.79,6.44-1.04-.99-.12-2.71.82-3.8,3.45-4.03,6.9-8.07,10.36-12.1,1.51-1.76,3.08-3.66,3.4-5.96.03-.25.05-.52-.08-.74-.27-.44-.93-.35-1.43-.21-3.88,1.12-7.77,2.24-11.65,3.36-2.52.73-5.15,1.52-7.01,3.37-2.05,2.04-2.91,5.13-5.22,6.88-.56-.23-.63-1.07-.65-1.68-.04-1.16-.55-2.24-1.04-3.29-.15-.31-.3-.63-.57-.85-.49-.41-1.21-.35-1.85-.26-3.54.48-7.07,1.12-10.56,1.9-1.93.43-3.93,1.45-5.48,2.67-15.11,11.94-28.56,25.97-39.85,41.57-6.01,8.31-11,17.66-16.92,26.03-3.62,5.11-7.24,10.22-10.85,15.33-7.82,11.04-14.08,23.15-20.73,34.94"/>
      <path class="cls-4" d="M1475.15,943.14c-6.81-17.95-12.88-36.19-18.18-54.64-.98-3.41-3-6.56-4.15-9.92-3.01-8.75-5.79-17.58-8.32-26.48-.83-2.93-1.65-5.96-1.27-8.97.49-3.89.79-7.37,2.03-11.09,2.59-7.76,6.13-15.58,12.44-20.79,2.36-1.95,5.04-3.47,7.7-4.98,3.3-1.87,6.73-4.47,10.21-5.93s7.51-2.43,11.02-3.36c3-.79,6.12-1,9.21-1.25,12.3-1,24.54-2.76,36.62-5.26"/>
      <path class="cls-4" d="M1541.46,818.11c-2.95,4.17-4.91,9.03-5.7,14.08-1.44,9.27,1.08,18.66,1.41,28.04.39,10.99,1.16,21.97,2.83,32.84.37,2.42.77,4.84,1.05,7.27.79,6.83.63,13.78-.49,20.57-.66,4.02-2.69,8.24-3.77,12.17-1.77,6.41-.36,13.22,1.2,19.68,2.77,11.47,9.15,21,15.31,30.95,6.24,10.08,13.38,19.78,22.63,27.31.96.78,1.97,1.55,3.15,1.92,1.38.42,2.86.26,4.29.17,7-.4,13.93,1.32,20.73,3.02,2.9.73,5.79,1.5,8.66,2.36.18.05.49-.11.32-.21"/>
      <path class="cls-4" d="M1544.18,1031.76c.58-2.77-1.2-5.45-2.99-7.65-3.23-3.96-6.84-7.67-11.11-10.47-1.27-.84-2.61-1.59-3.75-2.61-3.14-2.79-4.35-7.13-5.14-11.26-3.97-20.88-7.73-41.94-11.41-62.98-.9-5.16-1.81-10.32-2.25-15.54-.38-4.48.37-8.6.26-13-.14-5.42-.72-10.82-1.31-16.21-.99-9.13-1.32-17.15-1.38-26.34-.05-8.15-.35-16.14-1.08-24.29-.8-8.98-2.16-17.91-2.42-26.93-.19-6.57-2.94-12.32-3.23-18.89"/>
      <path class="cls-4" d="M1538.74,928.5c4.32,10.41,10.01,20.44,18.14,28.24,3.15,3.03,6.94,5.81,11.3,6.08,3.81.23,6.65,2.1,10.39,2.83,1.59.31,3.22.37,4.84.43,6.59.24,13.17.47,19.76.71,2.81.1,5.63.2,8.44.06,3.84-.19,7.67-.83,11.36-1.9,11.74-3.4,23.24-5.76,33.19-12.86,1.9-1.35,3.62-2.98,4.86-4.96"/>
      <path class="cls-4" d="M1442.84,665.65l9.33,4.23c1.54.7,3.09,1.4,4.59,2.19,1.29.67,2.54,1.41,3.85,2.02,1.57.73,3.21,1.26,4.85,1.8,4.92,1.61,9.84,3.22,14.76,4.83.39.13.79.11,1.15.3"/>
      <path class="cls-4" d="M1415.02,636.34c.48.27,1.05.42,1.6.35-.51-.2-.19.17-.73.13,10.88,1.98,20.43,8.3,30.89,11.87,1.61.55,2.26.47,3.85,1.09,9.59,3.77,18.85,8.35,27.66,13.69"/>
      <path class="cls-4" d="M1461.5,643.12c-5.01-1.53-9.06-5.14-13.53-7.85-1.61-.98-3.29-1.84-4.96-2.7-10.13-5.18-20.38-10.11-30.74-14.8-2.45-1.11-4.41-2.41-6.66-3.88-.26-.17-.52-.34-.81-.43-.51-.16-1.07-.07-1.61,0-2.47.37-4.98.46-7.47.27"/>
      <path class="cls-4" d="M1442.02,620.81c-.17.1-.38,0-.55-.11-2.85-1.74-5.82-3.29-8.88-4.63-1.65-.72-3.25-1.29-4.91-2.11-1.74-.87-3.51-1.67-5.28-2.48-3.45-1.58-6.92-3.18-10.14-5.21-2.07-1.31-4.15-2.61-6.22-3.92-1.54-.97-3.09-1.94-4.7-2.79-1.75-.92-3.58-1.7-5.39-2.5-6.05-2.68-11.96-5.66-17.7-8.94-.42,0-.55.15-.93-.05-.81-.44-1.61-.87-2.42-1.31"/>
      <path class="cls-4" d="M1350.51,569.26c4.19,1.62,8.38,3.23,12.58,4.85,2.17.84,4.34,1.67,6.47,2.61,2.66,1.18,5.26,2.52,7.76,4.02,5.71,3.42,11.87,4.72,17.84,7.66,4.64,2.28,9.24,4.63,13.83,6.99,2.06,1.06,4.12,2.11,6.19,3.17,1.17.6,2.51.64,3.57,1.43"/>
      <path class="cls-4" d="M1758.93,776.59c12.04.83,24.08,1.53,36.13,2.11"/>
      <path class="cls-4" d="M1729.76,779.55c18.36-9.71,36.72-19.42,55.09-29.13.8-.42,1.2-.53,1.97-1.01"/>
      <path class="cls-4" d="M1757.98,748.2c5.5-3.73,11-7.45,16.73-10.82,2.87-1.69,5.8-3.29,8.63-5.05,5.65-3.51,10.95-7.68,17.07-10.28,4.6-1.95,9.23-2.73,14.11-3.8,8.78-1.94,17.66-3.72,26.64-3.83"/>
      <path class="cls-4" d="M1767.83,720.62c4.21-1.39,8.31-3.09,12.26-5.09,4.87-2.46,9.52-5.38,14.58-7.42,6.26-2.52,13.08-3.67,19-6.9,6.69-3.66,13.48-6.49,20.41-9.67,4.61-2.11,9.41-3.75,14.2-5.39"/>
      <path class="cls-4" d="M1768.51,707.41c13.71-11.51,27.16-23.34,40.31-35.49,6.07-.19,11.72-1.81,17.07-4.69,6.91-3.72,12.37-6.56,19.16-10.5"/>
      <path class="cls-4" d="M1755.6,701.87c4.64-3.22,9.27-6.43,13.91-9.65,13.38-9.28,26.84-18.63,38.5-30.01,7.98-7.79,17.95-11.8,27.17-18.08"/>
      <path class="cls-4" d="M1768.95,659.53c12.88-6.77,25.03-14.95,36.14-24.35,3.08-2.61,6.16-4.8,9.35-7.26,1.47-1.13,2.93-2.26,4.4-3.39,7.46-5.75,14.92-11.5,22.38-17.25"/>
      <path class="cls-4" d="M1745.27,665.76c4.85-4.33,9.71-8.66,14.56-13,6.3-5.62,12.61-11.25,18.5-17.32s13.03-10.77,19.12-16.62c2.06-1.98,4.07-4.01,6.09-6.02,8.75-8.71,17.76-17.17,27.01-25.35"/>
      <path class="cls-4" d="M1755.33,634.64c4.48-4.09,8.96-8.17,13.44-12.26,3.54-3.23,7.08-6.46,10.4-9.91,3-3.12,5.82-6.42,8.72-9.63,4.77-5.27,9.78-10.31,15.03-15.1,8.34-7.62,15.04-16.9,23.73-24.11"/>
      <path class="cls-4" d="M1732.42,634.15c15.62-14.96,28.86-31.86,43-48.12,3.9-4.49,7.36-9.83,11.83-13.78,4.53-4.01,8.49-8.86,12.35-13.54"/>
      <path class="cls-4" d="M1788.22,553.01c-7.25,8.2-14.86,16.08-22.79,23.62-3.84,3.65-8,7.02-11.55,10.94-3.85,4.26-7.7,8.52-11.54,12.77-2.77,3.07-5.54,6.13-8.31,9.2-1.86,2.06-3.74,4.14-6.02,5.72"/>
    </g>
    <g>
      <path class="cls-8" d="M411.73,643.2c.65.78,1.37,1.52,1.84,2.42s.65,2.03.16,2.92c-.25.46-.65.82-1.05,1.16-1.54,1.32-3.18,2.52-4.9,3.59-.34.21-.69.42-1.08.49-.87.15-1.68-.42-2.36-.98-2.49-2.06-4.68-4.48-6.49-7.16-.27-.4-.19-.97-.43-1.39-3.69-6.48-9.43-11.5-14.37-17.09-2.4-2.72-4.6-5.17-7.5-7.36-2.21-1.67-4.48-3.31-7.04-4.39-5.4-2.28-11.5-1.83-17.34-1.35-7.61.63-14.99,3.42-21.61,7.24-1.82,1.05-3.63,2.25-4.8,4-1.23,1.85-1.6,4.12-1.83,6.33-.31,2.91-.43,5.84-.37,8.77.14,6.39.04,12.63-.84,18.96-.39,2.83-.78,5.65-1.17,8.48-.27,1.93-.55,3.91-1.53,5.59-1.55,2.66-4.68,4.24-5.83,7.1,1.58,10.22,2.73,20.77.23,30.81-.54,2.15-1.15,3.65-2.3,5.55-1.01,1.67-2.02,3.34-3.03,5.01-.55.9-1.1,1.82-1.86,2.55-.99.95-2.28,1.53-3.57,1.99-3.01,1.08-6.19,1.62-9.16,2.79-2.97,1.18-5.83,3.15-7.04,6.1-.74,1.8-.8,3.82-.55,5.75.33,2.51,1.57,4.98,2.26,7.41.61,2.18.74,4.46.79,6.73.15,7.19-.53,14.4-2,21.44-.89,4.26.41,7.66.16,12.01-.39,6.82-.79,13.68.04,20.46.33,2.72,0,5.55-.44,8.26s-1.55,5.4-3.59,7.23c-1.84,1.65-4.28,2.48-6.68,3.06-.89.21-1.81.4-2.72.32-1.17-.1-2.25-.62-3.29-1.16-3.84-1.96-7.78-4.37-9.61-8.27-1.36-2.89-1.28-6.02-2.7-8.88-.99-2.02-2.12-3.96-3.25-5.9-2.64-4.49-5.38-8.92-8.23-13.29-1.41-2.16-3.2-3.12-5.12-4.86-2.51-2.28-5.14-4.53-8.28-5.8-3.6-1.46-7.58-1.55-11.46-1.61-6.68-.11-12.85,0-19.18-2.15-.66-.22-1.45-.66-1.36-1.35,3.76-.88,7.6-1.8,10.83-3.92s5.75-5.73,5.49-9.58c-.49-7.15.17-14.73,2.03-21.65.58-2.17,1.35-4.34,1.33-6.59-.02-3.03.37-5.65,1.47-8.48,1.92-4.95,6.32-8.85,7.31-14.07.6-3.16-.15-6.44.17-9.64.6-5.96.42-12.44-.24-18.39-.21-1.92-.52-3.83-.64-5.76-.41-6.43.39-12.65,2.95-18.55,1.19-2.75,2.39-5.52,4.12-7.96,1.43-2.02,3.2-3.78,4.96-5.52,5.96-5.9,11.95-11.76,17.97-17.59,3.8-3.67,6.08-5.46,9.92-9.09,1.59-1.51,3.19-3.02,4.9-4.4,3.9-3.15,8.33-5.57,12.84-7.72,2.03-.97,4.38-2.45,6.59-2.85,2.38-.43,4.64-.71,7.02-1.49,5.35-1.75,10.69-3.5,16.04-5.25,2.16-.71,4.33-.97,6.54-1.51,2.65-.66,5.46-.96,8.1-.06,5.29,1.81,11.29-.71,16.62.99,1.6.51,3.09,1.31,4.67,1.85,2.53.87,5.26,1.12,7.69,2.23s5.76,1.57,8.13,2.78c4.07,2.08,8.02,4.4,11.82,6.93,2.3,1.53,4.56,3.14,6.55,5.05,2.64,2.53,4.77,5.54,7.11,8.36,1.37,1.65,2.81,3.24,4.32,4.76,1.77,1.79,3.52,3.19,5.76,4.28,1.92.93,4.31,2.51,4.98,4.65.78,2.51,1.36,4.47,3.13,6.6Z"/>
      <path class="cls-8" d="M149.22,846.07c.23,4.82-.75,9.61-1.56,14.37-1.83,10.82-2.79,21.78-2.85,32.75-.05,7.81.86,15.65-.02,23.43s-3.88,15.37-4.41,23.33c-.06.85-.24,1.88-1.05,2.14-.34.11-.72.04-1.07-.03-6.77-1.4-13.3-3.93-19.25-7.44-2.2-1.3-4.35-2.76-6-4.71-1.64-1.96-2.74-4.48-2.54-7.03.12-1.51.68-2.95,1.26-4.35,3.38-8.24,7.45-16.18,11.72-23.99s5.9-17.17,7.29-26.12c.13-.87.25-1.76.65-2.54.28-.54.68-1.01,1.08-1.47,1.48-1.7,2.97-3.41,4.45-5.11,3.91-4.49,8.45-8.68,12.3-13.22Z"/>
      <path class="cls-8" d="M373.53,793.45c12.47,3.39,25.2,5.79,38.05,7.16-2.32,7.91-4.66,15.86-5.9,24.01-.75,4.91-1.11,9.87-1.46,14.82-.38,5.27-.75,10.53-1.13,15.8-.83,11.58-1.45,23.09-.56,34.69.57,7.44-1.46,14.7-2.04,22.07-.28,3.59.37,6.62.73,10.07.39,3.73-.56,7.73-.9,11.48-1.83,20.25-10.35,39.15-11.82,59.45-.52,7.15-.6,15.12-5.57,20.28-2.4,2.49-5.65,3.96-8.42,6.03-4.96,3.69-8.37,9.41-9.25,15.53-2.44.84-5.31.11-7.84-.4-7.61-1.54-15.21-3.08-22.82-4.62-11.09-2.24-22.39-3.43-33.32-6.37-.97-.26-2.15-.82-2.06-1.81.05-.62.6-1.06,1.12-1.39,7.16-4.54,16.6-2.05,24.84-4.04,17.49-4.23,22.61-22.13,33.99-33.78,6.02-6.17,7.08-15.67,10.19-23.71,1.66-4.29,3.2-8.74,3.16-13.33-.04-4-1.29-7.87-2.52-11.68-2.21-6.82-3.46-14.28-3.23-21.45.11-3.41.55-6.79,1-10.17.68-5.18,1.36-10.36,2.05-15.54.51-3.91.56-7.88,1.01-11.8,1.17-10.31,2.34-20.68,1.84-31.04-.23-4.77-1.25-9.17-3.15-13.55-.6-1.37-1.27-2.72-1.6-4.18-.92-3.99.76-8.09,2.64-11.73,3.17-6.13,1.85-13.99,2.99-20.79Z"/>
      <path class="cls-7" d="M170.96,985.13c1.21.86,2.14,1.91,3.73,3.2,5.41,4.37,12.89,5.23,18.21,9.84,5.31,4.6,7.4,11.81,9.21,18.6,3.74,14.03,7.43,28.7,4.52,42.93-2.76,2.12-6.71,2.23-9.95.94s-5.86-3.78-8.07-6.48c-.97-1.19-1.9-2.46-3.2-3.26-1.26-.78-2.76-1.06-4.23-1.33-6.67-1.21-13.34-2.42-20.01-3.62-2.55-.46-5.21-.97-7.26-2.55s-3.27-4.57-2.01-6.84c.56-1,1.56-1.82,1.69-2.96.24-1.99-2.1-3.13-3.87-4.08-2.81-1.5-5.14-4.16-5.63-7.31s1.21-6.68,4.22-7.74c-3.16-.88-6.16-2.3-7.71-5.19-1.55-2.9-1.24-6.89,1.25-9.03.76-.66,1.78-1.72,1.08-2.45-.15-.16-.36-.25-.57-.31-1.45-.44-2.97.28-4.34.94-3.02,1.44-6.15,2.65-9.35,3.62-2.49.75-5.34,1.31-7.58-.02-1.84-1.09-2.84-3.38-2.55-5.51s1.78-4,3.7-4.94c1.92-3.13,4.18-6.48,6.1-9.62.71-1.16,1.53-2.41,2.83-2.8,1.5-.46,3.05.38,4.49.99,5.01,2.13,10.59,1.69,15.87,1.19s10.66.69,16,2.21c1.52.43,2.54.95,3.42,1.58Z"/>
      <path class="cls-7" d="M410.31,799.91c9.33-.28,18.32,3.25,26.88,6.98,8.1,3.54,16.59,7.75,21.05,15.38,3.07,5.26,3.84,11.5,4.55,17.55.65,5.58,1.3,11.2.82,16.79-.64,7.35-2.95,15.06-5.13,22.04-2.32,7.4-6.79,13.97-9.23,21.35-1.93,5.85-2.69,12.02-4.43,17.93-1.27,4.34-3.07,8.51-4.85,12.67-1.96,4.57-3.93,9.14-5.89,13.71,2.04,2.66,2.09,6.27,1.22,9.51s-2.6,6.16-4.03,9.2c-3,6.35-4.72,13.29-5.04,20.3-.53,11.86,2.91,23.81,1.02,35.54-.64,3.96,1.8,7.96,3.48,11.6,1.84,3.98,2.5,8.4,2.91,12.76.41,4.36.57,8.81-.42,13.08-2.01,8.66-8.63,15.68-16.32,20.15-7.69,4.47-16.43,6.72-25.06,8.82-5.85,1.42-11.75,2.8-17.77,2.95-3.38.08-6.22-1.05-8.39-3.65s-3.5-5.79-4.51-9.02c-1.16-3.74-1.94-7.64-1.85-11.55.09-4.16,1.13-8.23,2.17-12.26,1.56-6.04,3.11-12.09,4.67-18.13.34-1.31.68-2.63,1.17-3.9,1.1-2.87,3.05-5.51,5.78-6.9s4.23-3.42,6.7-5.48c4.52-3.77,6.35-9.79,7.95-15.46,1.63-5.78,3.27-11.6,3.66-17.59.25-3.87.39-7.13,1.25-10.91,2.48-10.94,4.95-21.88,7.43-32.82.79-3.49.49-7.18,1.11-10.71,1.23-7,.64-14.18.06-21.26-.27-3.24,1.22-5.93,1.79-9.13.33-1.87.43-3.77.53-5.67.38-7.3.76-14.6,1.14-21.9.81-15.67,1.24-31.66,3.58-47.17,1.27-8.37,1.79-16.32,2.03-24.79Z"/>
      <path class="cls-7" d="M407.43,655.61c1.42,1.82,1.54,4.35,1.11,6.62s-1.33,4.42-1.76,6.69c-.72,3.85.02,7.96,2.05,11.32,2.6,4.32,7.37,7.89,7.27,12.93-.05,2.4-1.29,4.67-3.03,6.33-.97.93-2.1,1.7-2.93,2.75s-1.32,2.53-.77,3.75c.49,1.09,1.65,1.69,2.6,2.42,3.16,2.42,5.04,7.98,3.93,11.87-1.29,4.53-5.08,7.07-2.6,12.34,1.4,2.98,4.27,5.1,5.47,8.16.86,2.19.74,4.74-.31,6.84-2,4-6.68,5.71-10.79,7.49-13.47,5.82-24.98,16.09-32.28,28.83-1.58,2.75-1.62,6.43-2.47,9.49-1.45,5.27-.18,11.07-2.01,16.22-.98,2.74-2.79,5.13-3.76,7.87s-.85,6.25,1.45,8.04c-.42,2.96,1.69,5.84,2.38,8.76,2.15,9.02,1.59,17.89.59,27.03-1.04,9.51-2.08,19.01-3.12,28.52-.62,5.71-.7,11.79-1.33,17.5-.62,5.73-1.24,11.59.02,17.21.65,2.9,1.79,5.72,1.9,8.69.19,5.14-2.73,9.85-5.87,13.93-2.99,3.89-6.27,7.54-9.81,10.93-12.32,11.78-31.49,15.15-48.14,11.48-5.94-1.31-12.25.54-18.28-.31s-11.99-2.69-17.08-6.02c-4.3.06-8.4-1.74-12.23-3.69-1.79-.91-3.62-1.85-5.02-3.31-1.26-1.31-2.09-2.97-2.76-4.66-1.59-3.97-2.43-8.25-2.45-12.53-.02-4.02-1.02-7.33-2.74-10.96s-3.32-7.77-2.04-11.59c.57-1.69,1.66-3.14,2.45-4.74,1.8-3.62,2.02-7.8,2.19-11.85.13-2.94,1.59-5.16,2.14-8.05,1.36-7.17,2.73-14.37,4.97-21.32,2.33-7.25,4.96-14.13,7.66-21.19,2.58-6.75,1.29-15.19,6.22-20.47,3.61,2.01,8.26,2.03,11.89.05s6.13-5.89,6.4-10.02c1-15.53-.75-29.92,2.75-45.08,1.35-5.83,2.06-10.63,1.17-16.55-1.06-7.01-4.64-13.8-3.62-20.81.13-.89.34-1.8.86-2.54.88-1.24,2.43-1.78,3.88-2.24,4.59-1.45,9.26-2.93,13.24-5.64,3.98-2.71,7.25-6.87,7.71-11.67.67-7,4.62-13.71,3.82-20.7-.31-2.66-1.3-5.19-1.81-7.81s-.45-5.56,1.14-7.71c1.51-2.05,4.32-3.38,4.56-5.91,1.54-1.77,2.35-3.98,2.78-6.28,1.34-7.24.7-14.68.06-22.01-.31-3.49-.28-7.02-.16-10.52s1-7.22,3.61-9.56c1.26-1.13,2.83-1.85,4.39-2.53,4.28-1.85,8.65-3.5,13.09-4.91,3.33-1.07,6.73-2.01,10.21-2.35,9.46-.94,19.27,2.88,25.6,9.97,9.41,10.52,18.91,20.39,27.59,31.51Z"/>
      <path class="cls-7" d="M291.74,1021.94c19.82,4.13,39.63,8.27,59.45,12.4,3.51.73,7.17.64,10.67,1.42,1.55.35,3.15.76,4.41,1.72,1.19.91,1.98,2.25,2.61,3.61,1.39,3.01,2.11,6.28,2.68,9.55,1.54,8.78,2.1,17.73,1.67,26.63-.14,2.95-.47,6.08-2.33,8.37-2.5,3.07-6.92,3.65-10.88,3.67-14.13.06-28.08-3.84-42.18-1.32-6.82,1.22-14.11.4-21.12.47-19.65.21-39.46,1.08-59.1,1.91-2.69.11-5.44.22-8.04-.48s-5.1-2.34-6.14-4.83c-2.73-6.51-8.07-11.58-12.93-16.7-1.56-1.65-3.18-3.25-4.51-5.1-4.44-6.17-5.15-14.18-5.7-21.76-.7-9.54-3.27-18.8-6.2-27.86s-5.09-18.36-9.54-26.31c-5.38-9.6-7.91-20.39-10.77-30.92-1.45-5.33-2.99-10.65-5.05-15.79-2.1-5.23-2.05-11.36-3.12-16.93-.72-3.74-1.57-7.45-2.57-11.13-.9-3.34-2.34-6.57-2.27-10.01.22-10.06-2.84-19.35-4.21-29.18-1.38-9.96-2.35-20.3-.35-30.25,1.42-7.05,2.25-14.21,2.46-21.4.11-3.62.12-7.12,1.17-10.59.68-2.25,1.91-4.28,3.14-6.29,3.46-5.68,6.93-11.35,10.39-17.03,2.36-3.86,6.73-6.02,10.86-7.86,4.08-1.81,8.57-2.39,13-2.95,1.97-.25,3.95-.5,5.93-.36,1.92.13,3.8.63,5.65,1.16,4.05,1.16,8.07,2.49,12.22,3.16,5.16.83,10.15,4.73,14.17,8.06,1.45,1.2,2.84,2.52,3.79,4.15,1.15,1.96,1.59,4.24,1.94,6.49,1.32,8.3,1.75,16.73,1.28,25.12-.97,17.27-1.07,33.98-2.41,51.22-.76,9.77-.18,19.61-.45,29.4-.06,2.16-.12,4.33.09,6.48.48,4.91,2.37,9.56,4.23,14.13.63,1.54,1.26,3.09,2.19,4.46.56,7.69,1.22,15.38,1.78,23.07.28,3.89.57,7.79,1.21,11.64.46,2.77,1.11,5.51,1.93,8.19,2.88,9.39,2.4,19.17,3,28.98.19,3.11.44,6.48,2.49,8.83,4.56,5.24,10.64,10.6,17.59,10.54,2.9-.03,5.76-.73,8.66-.66,3.34.08,5.92.17,9.19.85Z"/>
      <path class="cls-9" d="M462.52,672.51c-2.12,3.74-4.24,7.47-6.38,11.21-1.98,3.46-4.6,7.34-8.58,7.59-.77.05-1.61-.03-2.23.43-.74.55-.81,1.6-.84,2.52-.11,4.14-.57,8.41-2.58,12.04s-5.89,6.48-10.03,6.16c-2.56-.2-4.96-1.56-7.53-1.48,2.13,3.74,2.86,8.25,2.03,12.48-1.05,5.32-3.06,10.44-6.27,14.81-.17.22-.35.46-.62.54-.36.1-.72-.12-1.02-.35-3.74-2.76-6.61-7.68-4.89-12,.43-1.09,1.12-2.05,1.62-3.11,1.4-2.97,1.19-6.42.96-9.69-.16-2.19-1.21-3.63-2.92-4.94-1.01-.78-2.09-1.54-2.79-2.61s-.95-2.56-.21-3.61c.26-.38.63-.67.97-.97.84-.76,1.55-1.66,2.1-2.65.33-.6.77-.92,1.19-1.45.9-1.14,1.83-2.32,2.17-3.73.28-1.17-.12-2.3-.36-3.43-.28-1.31-1.17-2.45-1.97-3.5-1.45-1.92-2.9-3.83-4.34-5.75-1.29-1.7-2.64-3.59-2.56-5.73.03-.97.03-1.85.15-2.81.28-2.33,1.21-4.53,1.71-6.82.45-2.04.55-4.16.3-6.23-.18-1.52-.57-3.06-1.53-4.25.97-1.66,2.5-2.73,3.95-4,3.08-2.7,6.16-5.4,9.24-8.09,4.82-4.23,10.19-8.44,15.09-12.58,5.64-4.78,11.78-8.97,18.28-12.48,7.38-3.98,13.67-9.04,20.57-13.8,7.35-5.08,15.71-8.46,23.99-11.81,12.18-4.92,22.81-12.38,34.8-17.76,4.65-2.08,9.47-3.76,14.28-5.43s9.82-3.98,15.05-4.56c.42-.05,1.02.09.98.51-.02.14-.11.25-.19.36-1.2,1.49-2.41,2.97-3.61,4.46-.22.27-.45.58-.43.93.05.72,1.02.91,1.57,1.38,1.1.93.33,2.75-.69,3.76-1.78,1.76-4.1,2.86-6.36,3.93-7.74,3.67-15.42,7.49-23.03,11.44-2.23,1.16-4.47,2.34-6.39,3.96-.71.59-1.38,1.72-.68,2.33.24.21.57.26.89.31,2.37.35,4.74.69,7.11,1.04-1.83,1.16-3.44,2.66-4.71,4.4-2.26,3.09-5.51,5.53-8.31,8.12-3.21,2.97-6.42,5.93-9.63,8.9-1.13,1.05-2.26,2.09-3.35,3.18-3.99,3.98-7.42,8.51-10.18,13.42l-33.76,35.42Z"/>
      <path class="cls-9" d="M297.65,970.31c-5.37.27-10.92.38-15.93-1.57-1.6-.62-3.12-1.45-4.7-2.12-2.36-1.01-5.27-1.73-7.77-2.32-5.57-1.3-11.35-2.7-15.77-6.33-1.69-1.38-3.48-3.19-5.65-2.93,1.09,7.17,5.27,13.8,4.41,20.99-.34,2.85.49,5.69,1.15,8.48.88,3.74,1.46,7.55,1.73,11.39.13,1.81-.42,2.76-.45,4.57-.04,3.22.51,6.44,1.6,9.46.44,1.21.98,2.41,1.79,3.42.73.91,1.67,1.64,2.63,2.32,2.27,1.6,4.6,3.55,7.35,3.91,1.76.23,3.53.3,5.31.37,4.41.17,8.83.34,13.24.51,1.82.07,4.33-.29,6.02.42,1.54.64,2.64,1.42,4.42,1.53.48.03.97.02,1.42-.13.89-.28,1.54-1.01,2.22-1.64,2.05-1.89,4.72-3.01,7.45-3.61s4.94-.22,7.72-.48,5.63-.53,8.45-.79c.99-.09,1.99-.19,2.96-.4,1.88-.41,3.67-1.28,5.14-2.53,1.61-1.37,3.32-2.42,4.81-3.95,1.64-1.67,3.06-3.54,4.48-5.39,3.62-4.74,6.8-9.81,10.77-14.26,6.4-7.15,11.72-14.9,14.74-24.01,1.22-3.68,2.33-7.4,3.33-11.15,1.05-3.97,1.98-8.17.92-12.13-.5-1.85-1.42-3.61-1.53-5.52-.66.14-.71.68-.97,1.3-2.96,6.91-7.09,13.32-12.16,18.87-2.53,2.77-4.84,5.54-8.11,7.38s-6.83,3.07-10.38,4.25c-2.99.99-6.03,1.95-9.17,2.17-3.46.24-6.88.71-10.33,1.08-2.45.27-4.92.26-7.39.25-3.48,0-6.95-.02-10.43-.03-1.12,0-2.57-.56-3.33-1.37Z"/>
      <path class="cls-9" d="M261.48,821.9c2.61,1.04,4.23,3.83,4.52,6.62s-.53,5.59-1.63,8.17-2.49,5.05-3.42,7.7c-1.17,3.35-1.58,6.91-2.66,10.29-1.16,3.61-2.04,7.17-2.89,10.89-1.16,5.08-2.33,10.15-3.53,15.22-.6,2.53-1.21,5.07-1.81,7.6-.5,2.1-.69,4.5-2.01,6.29-2.14,2.92-1.5,7.04-2.06,10.62-.56,3.58-1.43,7.23-3.58,10.14-.16.22-.37.46-.64.47-.32.02-.57-.26-.74-.53-1.2-1.86-1.14-4.23-1.07-6.43.27-7.88.27-15.77,0-23.64-.44-13.17,3.37-25.79,2.19-38.92-.8-8.95,1.16-18.1,1.08-27.09-.06-6.63-.69-13.26-1.83-19.79-.22-1.27-.47-2.53-.88-3.75-1.1-3.27-3.64-5.82-6.46-7.81s-5.92-3.58-8.58-5.78c-.42-.35-.85-.74-1.07-1.25s-.17-1.17.26-1.52c.3-.25.71-.3,1.09-.32,2.67-.13,5.3.74,7.72,1.88,6.9,3.26,12.65,8.88,16.06,15.7,4.44,8.86,8.52,15.93,11.92,25.24Z"/>
      <path class="cls-9" d="M182.51,1084.01c12.97-.61,26.03,2.81,38.87.88.43-1.3-.39-2.65-1.19-3.77-4.76-6.63-10.25-12.69-15.72-18.74-2.78-.15-5.28-.35-7.87-1.38-.96-.38-1.87-.87-2.78-1.36-1.87-1.01-3.76-2.04-5.3-3.51-1.28-1.23-2.26-2.72-3.23-4.21-3.77-1.19-7.75-2.13-11.65-2.82-2.18-.39-4.39-.61-6.59-.83-2.49-.25-4.97-.51-7.46-.76s-5.41-1.97-7.31-3.72-3.02-4.6-1.99-6.97c.51-1.17,1.47-2.08,2.12-3.18.11-.18.21-.38.17-.58-.04-.23-.22-.4-.4-.54-1.53-1.24-3.23-2.27-5.05-3.03-2.52-1.06-3.84-4.09-4.29-6.79-.11-.63-.15-1.27-.03-1.89.46-2.36,3.16-3.85,3.44-6.24-1.84-.45-3.81-.97-5.04-2.41-2.56-2.99-2.57-6.96-1.07-10.6.21-.52.48-1.02.58-1.57s-.04-1.19-.49-1.52c-.76-.56-1.8.03-2.58.57-3.22,2.23-7.02,3.62-10.92,4.01-1.22.12-2.48.02-3.71.05s-2.57-.21-3.36-1.15c-.27-.33-.46-.72-.75-1.03-.86-.92-2.4-.86-3.5-.23s-1.86,1.69-2.65,2.67-1.7,1.96-2.91,2.33c-2.31.7-4.31,1.1-6.48,2.17-10.36,5.12-20.72,10.24-31.08,15.35-2.46-.16-5.13.74-7.42,1.65-12.97,5.21-24.89,13.02-34.84,22.82-3.36,3.31-5.21,8.06-9.01,10.86-1.93,1.42-4.11,2.45-6.24,3.55-5.97,3.09-11.59,6.82-17.04,10.75-2.72,1.96-5.42,3.99-7.71,6.44,4.33,1.45,9.08,1.6,13.49.44l178.96,4.29Z"/>
      <path class="cls-9" d="M147.19,872.99c1.15-7.28,2.31-14.56,3.46-21.85.25-1.56.5-3.13.83-4.68.62-2.87,1.52-5.68,2.7-8.38.38-.87,1.01-1.87,1.96-1.83.15,7.12-.33,14.24-.99,21.33-.69,7.44.39,14.69,1.75,22.04.95,5.18,1.91,10.35,2.86,15.53.37,2.02.75,4.05.88,6.1.12,1.88-.05,3.44.33,5.3.81,3.94,1.63,7.87,2.44,11.81.46,2.21-.46,3.19.17,5.37,1.36,4.67,1.8,9.59,3.53,14.07,1.98,5.12,3.45,10.51,5.15,15.73,1.01,3.1,1.63,6.12,3.08,9.02s2.32,5.86,3.2,8.87c1.67,5.75,3.01,11.74,6.31,16.82.86,1.33,1.86,3.09.9,4.35-4.36-1.76-8.57-4.24-12.64-6.58-8.15-4.68-17.98-5.13-27.38-5.31-3.54-.07-7.2-.14-10.44-1.59-.75-.33-1.53-.82-1.76-1.61-.16-.54-.02-1.12.12-1.67.66-2.57,1.31-5.13,1.97-7.7.19-.76.41-1.94.61-2.7,1.27-4.74,2.53-9.49,3.8-14.23,1.32-4.94,2.65-9.96,2.48-15.07-.07-2.13.23-3.42.34-5.55.08-1.56.16-3.13.37-4.68.57-4.2,2.12-8.26,2.29-12.52.07-1.84-.51-3.44-.54-5.21-.03-1.92.57-3.89.88-5.77,1.4-8.51-.86-17.72,1.36-26.05.32-1.2-.2-2.17,0-3.39Z"/>
      <path class="cls-9" d="M158.45,820.69c-6.15-2.09-12.3-4.17-18.45-6.26-2.11-.72-4.25-1.45-6.11-2.67-2.27-1.49-4.07-3.7-5.05-6.24-.51-1.3-.82-2.71-1.63-3.86-.72-1.01-1.77-1.73-2.75-2.5-2.44-1.93-4.51-4.32-6.08-7-2.01-3.46-5.28-6.58-5.64-10.56-.16-1.77.17-3.63-.49-5.28-.73-1.83-2.61-3.28-2.5-5.25,5.16-.22,9.29-4.17,12.9-7.88,2-2.06,4.16-4.91,2.93-7.51-9.34-5.24-18.59-10.44-27.08-16.96-1.92-1.48-3.82-3.03-5.97-4.14-5.83-3-12.76-2.42-19.32-2.57-2.82-.06-5.78-.32-8.14-1.87-2.35-1.54-3.81-4.29-3.93-7.1-.07-1.6.3-3.28,1.33-4.51s2.78-1.92,4.3-1.4c-.56-.38-1.11-.76-1.67-1.14-5.39-3.67-10.22-8.82-11.34-15.25-.58-3.32.04-7.14,2.68-9.24.77-.61,1.69-1.06,2.31-1.82.86-1.04,1.01-2.6.37-3.78.71-2.51-.15-5.18-1.16-7.58s-2.41-4.63-3.39-7.04c-.52-1.28-.88-2.9.04-3.94.66-.74,1.73-.91,2.7-1.13,1.82-.41,3.55-1.19,5.07-2.28.68-.49,1.35-1.09,1.56-1.9.36-1.4-.74-2.69-1.6-3.85-2.83-3.81-3.56-9.08-1.88-13.51,4.05.28,8.04,1.37,11.67,3.17.28-.62-.27-1.28-.79-1.71-2.31-1.93-5.01-3.35-7.28-5.32s-4.14-4.76-3.93-7.76c1.27-.76,2.55-1.53,3.82-2.29-.02-.94.21-1.83.18-2.78-.89.52-2.09,0-2.65-.87s-.62-1.95-.62-2.97c0-2.87.4-5.75,1.16-8.52.31-1.14.77-2.36,1.81-2.92.52-.28,1.12-.36,1.66-.6s1.03-.76.94-1.35c-.06-.36-.33-.65-.59-.91-3.55-3.58-7.19-7.44-8.43-12.32-.45-1.77.08-3.68.46-5.47.23-1.07.57-2.15,1.3-2.98,1.38-1.57,3.74-1.77,5.83-1.69,3.11.13,6.21.64,9.19,1.56.84.26,2.12.29,2.21-.59.03-.34-.17-.65-.36-.93-2.93-4.23-5.86-8.47-8.8-12.7-1.81-2.61-3.42-4.14-4.81-7-.29-.59-.56-1.3-.24-1.87.36-.66,1.26-.74,2-.74,5.62,0,11.23,0,16.85,0-5.93-3.27-10.39-9.1-11.98-15.68,3.16.88,6.21,2.1,9.25,3.31,4.59,1.83,9.18,3.63,13.76,5.48,3.78,1.53,6.28,4.76,9.95,6.41,2.33,1.05,4.96,1.17,7.51,1.28.73.03,1.61,0,2.01-.62.5-.77-.13-1.76-.73-2.45-3.05-3.53-5.96-7.18-8.73-10.94-1.62-2.2-3.22-4.49-3.96-7.12,3.56.97,7.11,1.94,10.67,2.91,1.91.52,3.84,1.05,5.54,2.07,1.51.91,2.39,1.78,3.03,3.3.7,1.66,1.6,3.04,3.3,3.86.12.06.24.11.37.1.39-.05.44-.58.4-.97-.12-1.31.04-2.64.46-3.89.27-.81.79-1.68,1.64-1.78.4-.05.8.1,1.18.23,2.08.75,4.22,1.34,6.39,1.78,5.34,1.08,10.55,4.23,14.73,7.73,7.41,6.18,14.47,12.77,21.15,19.73,13.38,13.93,23.03,31.83,33.17,48.27,5.16,8.37,11.54,15.47,17.26,23.47,1.03,1.45,2.07,2.9,2.91,4.47.81,1.51,1.43,3.11,2.14,4.67,1.23,2.72,3.33,5.29,4.34,8.06s1.02,6.26,1.35,9.14c.75,6.4,1.12,12.84,1.12,19.28,0,2.96.1,5.55-.05,8.5-.08,1.56-.2,3.13-.63,4.62-.47,1.62-1.91,3.26-2.15,4.87-.11.73.22,1.49.04,2.29-.19.85-.59,1.66-1.06,2.39-.87,1.36-2.01,2.55-2.8,3.96-.84,1.52-1.25,3.25-1.63,4.95-.81,3.62-1.56,7.25-2.31,10.88-.64,3.07-.88,5.78-1.52,8.85-1.15,5.57.27,11.51-1.41,16.94-1.02,3.29-5.14,4.7-8.3,6.09-4.29,1.89-8.71,3.48-13.23,4.73-2.19.61-4.32.41-6.38,1.38s-3.97,2.23-5.98,3.29c-1.77.93-3.64,1.71-5.28,2.85-6.64,4.6-9.48,13.23-13.58,19.85-1.02,1.65-2.08,3.28-2.88,5.04-1.72,3.74-2.23,8.03-1.46,12.07"/>
      <path class="cls-4" d="M307.46,598.54c-11.31,3.54-22.57,7.7-32.4,14.46-4.65,3.2-9.12,7.12-13.38,10.87-4.61,4.07-8.85,8.52-13.03,13.02-2.62,2.82-5.21,5.67-7.86,8.47-4.25,4.5-8.66,9.26-10.28,15.23-.67,2.48-.84,5.07-.87,7.64-.06,4.57-.18,7.92.03,12.48l.35,7.65c.07,1.58.15,3.16.15,4.74,0,5.6-.42,11.5-1.2,17.04-.93,6.59-4.94,12.29-7.13,18.57-2.25,6.46-1.55,12.26-3.23,18.89-1.57,6.17,1.33,13.38-2.11,18.75-2.03,3.17-5.76,4.75-9.34,5.9s-7.38,2.1-10.23,4.56c.82-.03,1.65-.2,2.47-.14,8.2.55,16.4,1.11,24.61,1.66,2.48.17,4.98.34,7.36,1.03,5.8,1.69,10.25,6.25,14.41,10.64,3.12,3.28,5.02,7.28,7.38,11.15,3.18,5.22,4.66,11.3,7.39,16.77,2.73,5.47,7.36,10.66,13.44,11.34,5.98.67,12.08-3.91,13.11-9.84.55-3.21.03-6.72-.02-9.97-.24-16.13-.58-31.38,2.99-47.11,1.83-8.07-4.56-15.85-4.52-24.12.01-2.12.51-4.34,1.94-5.91.8-.87,1.83-1.49,2.89-2.02,1.79-.89,3.69-1.55,5.64-1.97,2.42-.52,4.94-.66,7.28-1.46,4.89-1.68,7.48-5.77,8.74-10.78,1.19-4.72,2.28-9.46,3.26-14.23.66-3.22,1.28-6.56.49-9.75-.82-3.34-3.15-6.61-2.14-9.89.57-1.83,2.07-3.18,3.34-4.63,4.3-4.9,5.1-11.76,5.32-18.28.26-7.93.53-15.87.79-23.8.1-3.15.25-6.44,1.8-9.19,1.97-3.48,5.82-5.4,9.51-6.95,7.7-3.24,15.95-5.81,24.28-5.19,4.38-1.27,10.09-.16,14.07,2.09,3.45,1.95,6.11,5.01,8.64,8.06,8.48,10.21,16.12,20.98,25.02,30.72,3.13-2.42,6.25-4.84,9.38-7.27-2.37-2.49-4.86-5.12-6.81-7.97-1.66-2.43-2.53-4.4-4.98-6.34-7.11-5.66-11.94-13.64-19.13-19.22-7.59-5.89-16.22-11.52-25.36-14.6-3.59-1.21-7.32-2-11.07-2.59-12.39-1.97-27.1-2.8-39.23.95-.59.18-1.18.36-1.77.55Z"/>
      <path class="cls-4" d="M204.77,1060.82c-4.61.63-9.64-.01-13.22-2.97-1.56-1.29-2.78-2.95-4.28-4.31-3.82-3.46-9.17-4.66-14.3-5.1s-10.37-.27-15.36-1.55c-3.11-.8-5.78-3.3-6.73-6.37-1.04-3.33.32-7.52,3.54-8.85,1.57-.65,3.34-.57,5.04-.48,4.3.23,8.61.45,12.91.68,3.67.19,7.55.45,10.62,2.47"/>
      <path class="cls-4" d="M187.38,995.72c-2.45-.57-4.7-1.97-6.3-3.92-.98-1.19-1.72-2.58-2.87-3.6-1.2-1.06-2.75-1.64-4.27-2.16-8.96-3.06-18.33-4.92-27.78-5.51-8.1-.51-15.67,4.83-22.22,9.62-2.07,1.52-4.07,3.32-5.04,5.7s-.65,5.45,1.34,7.07c1.4,1.13,3.35,1.37,5.12,1.04s3.4-1.15,5-1.96c2.61-1.32,5.23-2.65,7.84-3.97,1.6-.81,3.24-1.63,5.01-1.92,1.59-.26,3.21-.07,4.8.12,5.69.67,11.38,1.34,17.07,2.02,3.25-.37,6.61.16,9.65,1.34"/>
      <path class="cls-4" d="M158.12,1031.03c-2.23-.09-4.43-.57-6.6-1.13-1.59-.41-3.18-.88-4.61-1.71s-2.67-2.04-3.25-3.58c-.83-2.23-.09-4.84,1.48-6.62s3.86-2.8,6.19-3.27,4.73-.42,7.1-.38c1.16.02,2.33.04,3.49.07,1.03.02,2.07.04,3.08.25,1.09.23,2.13.68,3.22.93,1.04.24,2.11.29,3.16.41,2.03.23,4.03.71,6.02,1.18"/>
      <path class="cls-4" d="M141.82,980.4c-1.63.95-3.7,1.11-5.46.44-1.14-.43-2.14-1.19-3.26-1.68s-2.5-.68-3.52.01c-.47.32-.81.79-1.12,1.27-1.55,2.44-2.39,5.32-2.41,8.22"/>
      <path class="cls-4" d="M150.11,996.37c-2-.14-4.14-.25-5.88.73-2.21,1.24-3.19,3.89-3.68,6.37-.4,2.01-.58,4.05-.56,6.1,0,.34.02.69.16,1.01.18.39.54.67.89.91,3.46,2.39,7.83,3.41,11.98,2.8.76.16,1.39,0,2.16-.04"/>
      <path class="cls-4" d="M405.97,654.76c1.28,1.41,2.95,3.12,3.26,5.08.34,2.18-.95,4.45-1.56,6.46-.54,1.79-.77,3.67-.66,5.53.24,4,1.98,7.69,3.82,11.18,1.51,2.86,4.77,4.32,4.76,7.99-.01,3.15-2.51,5.63-4.55,8.03-1.24,1.45-2.43,3.21-2.17,5.1.21,1.51,1.3,2.74,2.45,3.73s2.44,1.88,3.29,3.15c1.25,1.88,1.33,4.27,1.36,6.53.04,2.71-.57,4.87-2.09,7.11-.95,1.39-2.2,2.68-2.46,4.33-.31,2.01.96,3.94,2.45,5.34s3.27,2.51,4.46,4.16c1.24,1.71,1.92,4.4,1.49,6.51-.47,2.29-3.05,4.7-4.58,6.38-1.2,1.33-2.49,2.61-4,3.58-1.58,1.02-3.36,1.66-5.13,2.3-1.92.69-3.83,1.38-5.79,1.92-3.2.89-6.3.99-9.57,1.35s-6.79.99-10.22,1.14c-1.68.07-3.35.03-5.03,0-1.83-.04-3.66-.09-5.5-.13-8.55-.2-17.11-.4-25.66-.6-5.02-.12-10.29-1.49-13.53-5.32"/>
      <path class="cls-4" d="M266.27,825.44c-.32,4.66-1.55,9.21-2.77,13.72-2.53,9.31-5.06,18.63-7.59,27.94-1.64,6.04-3.72,11.89-5.38,17.92-1.69,6.13-1.98,12.51-3.16,18.74-.55,2.88-1.36,5.72-2.18,8.52s-2.63,5.54-2.66,8.58c-.01,1.17.26,2.33.53,3.47.69,2.96,1.39,5.92,2.08,8.89,2.02,8.63,2.13,17.19,3.48,25.95.36,2.32.71,4.64,1.07,6.97,1.05,6.83,2.1,13.66,3.15,20.49s.46,13.2,2.15,19.6c1.24,4.66,3.73,9.16,7.72,11.86,4.6,3.12,10.55,3.48,16.07,2.82,8.23-.99,15.07,1.13,23.17,2.9,8.45,1.85,16.9,3.69,25.34,5.54,4.06.89,8.03,1.06,12.13,1.66,2.82.42,5.64.83,8.45,1.33,11.09,1.96,22.09,5.17,33.35,5.04,6.88.49,13.86-.51,20.08-3.48,1.23-.59,2.48-1.29,3.21-2.43,1.23-1.93.6-4.49-.38-6.56-1.61-3.41-.72-9.25-.57-13,.2-4.89.82-9.8,2.4-14.45,1.37-4.03,3.46-7.82,6.13-11.14,1.09-1.36.3-3.65.28-5.39-.01-1.33-.23-2.65-.29-3.99-.3-6.23,2.79-12.07,5.79-17.54,1.96-3.58,5.18-6.34,8.12-9.16,1.97-1.89,4.33-3.68,7.06-3.79.81-.03,1.64.09,2.33.51,1.43.88,1.86,2.84,1.48,4.47s-1.4,3.03-2.34,4.42c-2.99,4.41-5.46,9.31-6.17,14.59-.76,5.66-1.84,11.21-1.01,16.86.22,1.49.62,2.95.84,4.44.41,2.8.15,5.65-.1,8.47-.32,3.55-.65,7.11-.97,10.66-.51,5.58-.52,10.02,1.35,15.3.74,2.1,1.92,4,2.9,6,3.71,7.56,4.43,16.53,2,24.58-4,13.23-17.48,20.43-30.48,25.11-26.92,9.7-56.98,5.22-85.59,5.92-25.45.62-50.9,1.24-76.35,1.86-6.22.15-13.4-.12-17.25-5.01-7.47-9.5-16.21-18.34-20.31-29.71-.92-2.55-1.7-5.15-2.47-7.75-2.64-8.86-3.11-17.48-5.24-26.48-.53-2.25-1.12-4.57-2.53-6.4.14-1.96-.62-3.81-1.3-5.65-2.64-7.13-5.28-14.26-7.92-21.38-4.98-13.44-8.64-27.15-13.04-40.73-4.62-14.26-7.62-29.04-8.91-43.97-1.2-13.82-4.69-25.59-5.62-39.42-.29-4.29-.78-8.6-.68-12.91.08-3.13.5-6.23.93-9.33,1.32-9.58,2.63-19.17,3.95-28.75.33-2.42,1.68-4.7,2.52-6.99,2.91-7.88,7.58-15.21,14.08-20.53s14.89-8.5,23.27-8"/>
      <path class="cls-4" d="M404.39,758.23c-9.52,5.76-19.37,11.83-25.38,21.19-2.4,3.73-4.11,7.89-5.02,12.23-.8,3.77-.47,7.55-1.16,11.34-2.34,12.84-8.3,25.03-15.28,35.89"/>
      <path class="cls-4" d="M213.68,777.53c5.85,1.96,11.55,4.41,17,7.31,2.54,1.35,5.09,2.86,6.82,5.15,1.31,1.73,2.07,3.8,2.67,5.89,3.02,10.4,2.55,21.46,2.04,32.28-.89,19.12.09,37.56-2.11,56.57-1.52,13.12-.68,26.78,2.91,39.49"/>
      <path class="cls-4" d="M158.24,826.64c-8.64,13.9-10.18,30.91-11.51,47.22-.26,3.17-.52,6.35-.77,9.52-1.28,15.75-2.55,31.74-3.71,47.5-.29,3.87-.57,7.74-1.1,11.59-1.28,9.21-3.65,18.69-6.07,27.63-1.18,4.35-4.67,8.57-7.09,12.35-2.93,4.57-5.97,9.07-9.13,13.49-2.73,3.81-5.71,8.39-9.89,10.6-5.19,2.74-10.98,4.77-16.35,7.16-11.21,4.97-22.42,9.94-33.63,14.91-12.3,5.45-25.33,11.52-32.42,22.96-2.33,3.76-5.45,7.19-9.26,9.44-2.82,1.67-6.07,2.45-9.11,3.69-7.76,3.19-13.9,9.37-19.21,15.87l234.7,4.08"/>
      <path class="cls-4" d="M419.27,740.64c3.13-5.94,5.58-12.24,7.27-18.74.32-1.24.62-2.53.45-3.8-.19-1.32-.87-2.52-1.54-3.67-1.25-2.15-2.5-4.31-3.76-6.46,4.6,1.79,9.14,3.75,13.61,5.87,2.36-3.18,4.88-6.51,7.25-9.69,1.89-2.54,3.89-5.54,3.17-8.63-.41-1.76-1.65-3.18-2.84-4.53,2.72.79,5.59,1.06,8.4.8,1.95-4.39,4.41-8.56,7.32-12.39,1.89-2.49,3.09-5.41,5.03-7.82,1.84-2.27,4.28-3.96,6.31-6.04,2.9-2.97,5.53-6.19,8.34-9.24,2.06-2.24,4.32-4.29,6.45-6.46,2.58-2.63,4.99-5.44,7.39-8.24,6.04-7.05,12.09-14.11,18.13-21.16,7.95-9.28,16.91-16.97,27.66-22.78-5.79.55-11.58,1.1-17.37,1.65.12-.72.73-1.24,1.31-1.68,10.54-8.09,23.55-12.15,35.29-18.38,2.68-1.42,5.35-3,7.32-5.31-2.31-.1-4.61-.37-6.88-.8,3.37-3.02,6.55-6.22,9.92-9.23-10.68,2.1-21.12,5.44-31.04,9.91-16.44,7.42-31.57,16.68-48.16,23.75-3.8,1.62-7.4,3.65-10.85,5.92s-6.9,3.68-10.11,6.29c-4.3,3.49-8.85,6.55-13.47,9.59-5.56,3.65-10.71,7.84-16.15,11.63-6.06,4.23-12.26,8.33-17.78,13.27-1.89,1.69-3.71,3.51-5.95,4.7"/>
      <path class="cls-1" d="M26.35,1052.05c-4.06,5.81-7.36,12.14-9.8,18.79-1.29,3.52-2.36,7.15-4.12,10.47"/>
      <path class="cls-4" d="M73.35,1022.14c.88,3.3-1.32,6.56-3.4,9.28-1.16,1.51-2.31,3.02-3.47,4.54-1.27,1.66-2.54,3.32-4.08,4.74-1.52,1.4-3.28,2.54-4.79,3.96-2.26,2.13-3.93,4.88-4.76,7.87-.54,1.93-.75,3.99-1.68,5.77-1.43,2.74-2.53,5.61-3.66,8.49-1.82,4.61-3.35,9.33-4.76,14.09"/>
      <path class="cls-4" d="M153.47,836.08c-1.41,4.34-4.66,7.79-7.64,11.24-4.77,5.52-9.1,11.44-12.91,17.67-3.03,4.96-3.58,11.28-5.49,16.77-1.94,5.58-3.9,11.2-6.74,16.38-2.24,4.09-5.03,7.92-6.58,12.31-.97,2.78-1.43,5.74-2.74,8.38-3.63,7.35,6.23,15.86,13.81,18.97,1.44.59,2.95,1.03,4.44,1.46,3.73,1.08,7.46,2.16,11.2,3.24"/>
      <path class="cls-4" d="M159.43,820.59c-2.69-1.01-5.39-2.02-8.08-3.02-2.6-.97-5.22-1.95-7.95-2.49-3.77-.74-7.98-.73-10.92-3.2-2.41-2.03-3.37-5.25-4.34-8.24-.31-.97-.65-1.96-1.31-2.75-.68-.82-1.64-1.34-2.51-1.94-1.71-1.18-3.15-2.75-4.18-4.56-1.91-3.34-6.06-5.42-6.78-9.2-.55-2.89.33-6.15-1.2-8.66-.6-.98-1.5-1.73-2.15-2.67s-.98-2.27-.34-3.21c.75-1.1,2.32-1.09,3.64-1.26,3.06-.39,5.74-2.34,7.68-4.73s3.23-5.24,4.51-8.05c-2.35-4.16-7.02-5.6-11.29-7.75-5.33-2.68-10.04-6.42-15.02-9.7-4.98-3.28-10.43-6.18-16.35-6.84-4.96-.56-9.82,1.04-14.66-.16-1.94-.48-3.9-1.2-5.31-2.61-2.7-2.7-2.66-7.02-2.43-10.84,2.21-.96,4.8-1.01,7.05-.15,2.12-.77,0-1.51-.92-2.25s-2.02-1.22-3.04-1.82c-3.43-2.03-5.77-5.55-7.15-9.29s-1.88-7.74-2.37-11.69c-.06-.5-.11-1.06.22-1.45.23-.28.6-.39.94-.5,1.68-.5,3.36-1.01,5.04-1.51-.58-3.56-1.16-7.13-1.74-10.69-.41-2.48-2.07-4.48-3.1-6.77s-1.65-4.88-1.09-7.34c2.69-.16,5.34-1.03,7.61-2.5.58-.38,1.17-.83,1.4-1.48.31-.87-.09-1.84-.69-2.55s-1.37-1.24-1.99-1.92c-2.4-2.68-1.8-6.81-1.04-10.34-.4-.93.78-2.22,1.77-2.43s2,.18,2.94.56c3.85,1.55,7.7,3.1,11.55,4.65-4.36-3.29-8.72-6.59-13.09-9.88-1.31-.99-2.74-2.18-2.9-3.82-.2-2.1,1.75-3.71,3.49-4.89s3.7-2.76,3.56-4.86c-1.79.61-3.58,1.22-5.37,1.83-.64.22-1.41.42-1.95,0-.53-.4-.54-1.18-.5-1.84.25-3.75.89-7.46,1.91-11.08.17-.61.36-1.23.75-1.73,1.39-1.78,4.23-1.06,6.34-1.86-3.56-1.95-6.37-4.81-8.76-8.09-.66-.91-1.27-1.87-1.62-2.93-.33-1.03-.4-2.13-.47-3.21-.15-2.44-.31-4.88-.46-7.32,3.03-2.78,7.25-4.11,11.3-3.43,4.24.71,7.86,3.36,11.3,5.93-5.69-7.09-10.93-14.54-15.68-22.28-1.05-1.71-2.22-3.16-2.54-5.14,7.16-.86,14.34,1.01,21.32,2.87-5.63-7.34-13.38-13.19-17.3-21.56,3.93,2.12,7.87,4.23,11.8,6.35,5.43,2.92,11.16,4.44,16.58,7.56,5.19,2.99,10.61,6.32,16.79,6.44,1.04-.99.12-2.71-.82-3.8-3.45-4.03-6.9-8.07-10.36-12.1-1.51-1.76-3.08-3.66-3.4-5.96-.03-.25-.05-.52.08-.74.27-.44.93-.35,1.43-.21,3.88,1.12,7.77,2.24,11.65,3.36,2.52.73,5.15,1.52,7.01,3.37,2.05,2.04,2.91,5.13,5.22,6.88.56-.23.63-1.07.65-1.68.04-1.16.55-2.24,1.04-3.29.15-.31.3-.63.57-.85.49-.41,1.21-.35,1.85-.26,3.54.48,7.07,1.12,10.56,1.9,1.93.43,3.93,1.45,5.48,2.67,15.11,11.94,28.56,25.97,39.85,41.57,6.01,8.31,11,17.66,16.92,26.03,3.62,5.11,7.24,10.22,10.85,15.33,7.82,11.04,14.08,23.15,20.73,34.94"/>
      <path class="cls-4" d="M433.4,946.53c6.81-17.95,12.88-36.19,18.18-54.64.98-3.41,3-6.56,4.15-9.92,3.01-8.75,5.79-17.58,8.32-26.48.83-2.93,1.65-5.96,1.27-8.97-.49-3.89-.79-7.37-2.03-11.09-2.59-7.76-6.13-15.58-12.44-20.79-2.36-1.95-5.04-3.47-7.7-4.98-3.3-1.87-6.73-4.47-10.21-5.93s-7.51-2.43-11.02-3.36c-3-.79-6.12-1-9.21-1.25-12.3-1-24.54-2.76-36.62-5.26"/>
      <path class="cls-4" d="M367.09,821.5c2.95,4.17,4.91,9.03,5.7,14.08,1.44,9.27-1.08,18.66-1.41,28.04-.39,10.99-1.16,21.97-2.83,32.84-.37,2.42-.77,4.84-1.05,7.27-.79,6.83-.63,13.78.49,20.57.66,4.02,2.69,8.24,3.77,12.17,1.77,6.41.36,13.22-1.2,19.68-2.77,11.47-9.15,21-15.31,30.95-6.24,10.08-13.38,19.78-22.63,27.31-.96.78-1.97,1.55-3.15,1.92-1.38.42-2.86.26-4.29.17-7-.4-13.93,1.32-20.73,3.02-2.9.73-5.79,1.5-8.66,2.36-.18.05-.49-.11-.32-.21"/>
      <path class="cls-4" d="M364.37,1035.15c-.58-2.77,1.2-5.45,2.99-7.65,3.23-3.96,6.84-7.67,11.11-10.47,1.27-.84,2.61-1.59,3.75-2.61,3.14-2.79,4.35-7.13,5.14-11.26,3.97-20.88,7.73-41.94,11.41-62.98.9-5.16,1.81-10.32,2.25-15.54.38-4.48-.37-8.6-.26-13,.14-5.42.72-10.82,1.31-16.21.99-9.13,1.32-17.15,1.38-26.34.05-8.15.35-16.14,1.08-24.29.8-8.98,2.16-17.91,2.42-26.93.19-6.57,2.94-12.32,3.23-18.89"/>
      <path class="cls-4" d="M369.81,931.89c-4.32,10.41-10.01,20.44-18.14,28.24-3.15,3.03-6.94,5.81-11.3,6.08-3.81.23-6.65,2.1-10.39,2.83-1.59.31-3.22.37-4.84.43-6.59.24-13.17.47-19.76.71-2.81.1-5.63.2-8.44.06-3.84-.19-7.67-.83-11.36-1.9-11.74-3.4-23.24-5.76-33.19-12.86-1.9-1.35-3.62-2.98-4.86-4.96"/>
      <path class="cls-4" d="M465.72,669.04l-9.33,4.23c-1.54.7-3.09,1.4-4.59,2.19-1.29.67-2.54,1.41-3.85,2.02-1.57.73-3.21,1.26-4.85,1.8-4.92,1.61-9.84,3.22-14.76,4.83-.39.13-.79.11-1.15.3"/>
      <path class="cls-4" d="M493.53,639.72c-.48.27-1.05.42-1.6.35.51-.2.19.17.73.13-10.88,1.98-20.43,8.3-30.89,11.87-1.61.55-2.26.47-3.85,1.09-9.59,3.77-18.85,8.35-27.66,13.69"/>
      <path class="cls-4" d="M447.05,646.51c5.01-1.53,9.06-5.14,13.53-7.85,1.61-.98,3.29-1.84,4.96-2.7,10.13-5.18,20.38-10.11,30.74-14.8,2.45-1.11,4.41-2.41,6.66-3.88.26-.17.52-.34.81-.43.51-.16,1.07-.07,1.61,0,2.47.37,4.98.46,7.47.27"/>
      <path class="cls-4" d="M466.53,624.2c.17.1.38,0,.55-.11,2.85-1.74,5.82-3.29,8.88-4.63,1.65-.72,3.25-1.29,4.91-2.11,1.74-.87,3.51-1.67,5.28-2.48,3.45-1.58,6.92-3.18,10.14-5.21,2.07-1.31,4.15-2.61,6.22-3.92,1.54-.97,3.09-1.94,4.7-2.79,1.75-.92,3.58-1.7,5.39-2.5,6.05-2.68,11.96-5.66,17.7-8.94.42,0,.55.15.93-.05.81-.44,1.61-.87,2.42-1.31"/>
      <path class="cls-4" d="M558.04,572.65c-4.19,1.62-8.38,3.23-12.58,4.85-2.17.84-4.34,1.67-6.47,2.61-2.66,1.18-5.26,2.52-7.76,4.02-5.71,3.42-11.87,4.72-17.84,7.66-4.64,2.28-9.24,4.63-13.83,6.99-2.06,1.06-4.12,2.11-6.19,3.17-1.17.6-2.51.64-3.57,1.43"/>
      <path class="cls-4" d="M149.62,779.98c-12.04.83-24.08,1.53-36.13,2.11"/>
      <path class="cls-4" d="M178.79,782.94c-18.36-9.71-36.72-19.42-55.09-29.13-.8-.42-1.2-.53-1.97-1.01"/>
      <path class="cls-4" d="M150.57,751.59c-5.5-3.73-11-7.45-16.73-10.82-2.87-1.69-5.8-3.29-8.63-5.05-5.65-3.51-10.95-7.68-17.07-10.28-4.6-1.95-9.23-2.73-14.11-3.8-8.78-1.94-17.66-3.72-26.64-3.83"/>
      <path class="cls-4" d="M140.72,724.01c-4.21-1.39-8.31-3.09-12.26-5.09-4.87-2.46-9.52-5.38-14.58-7.42-6.26-2.52-13.08-3.67-19-6.9-6.69-3.66-13.48-6.49-20.41-9.67-4.61-2.11-9.41-3.75-14.2-5.39"/>
      <path class="cls-4" d="M140.05,710.8c-13.71-11.51-27.16-23.34-40.31-35.49-6.07-.19-11.72-1.81-17.07-4.69-6.91-3.72-12.37-6.56-19.16-10.5"/>
      <path class="cls-4" d="M152.95,705.25c-4.64-3.22-9.27-6.43-13.91-9.65-13.38-9.28-26.84-18.63-38.5-30.01-7.98-7.79-17.95-11.8-27.17-18.08"/>
      <path class="cls-4" d="M139.6,662.92c-12.88-6.77-25.03-14.95-36.14-24.35-3.08-2.61-6.16-4.8-9.35-7.26-1.47-1.13-2.93-2.26-4.4-3.39-7.46-5.75-14.92-11.5-22.38-17.25"/>
      <path class="cls-4" d="M163.28,669.15c-4.85-4.33-9.71-8.66-14.56-13-6.3-5.62-12.61-11.25-18.5-17.32s-13.03-10.77-19.12-16.62c-2.06-1.98-4.07-4.01-6.09-6.02-8.75-8.71-17.76-17.17-27.01-25.35"/>
      <path class="cls-4" d="M153.23,638.03c-4.48-4.09-8.96-8.17-13.44-12.26-3.54-3.23-7.08-6.46-10.4-9.91-3-3.12-5.82-6.42-8.72-9.63-4.77-5.27-9.78-10.31-15.03-15.1-8.34-7.62-15.04-16.9-23.73-24.11"/>
      <path class="cls-4" d="M176.13,637.54c-15.62-14.96-28.86-31.86-43-48.12-3.9-4.49-7.36-9.83-11.83-13.78-4.53-4.01-8.49-8.86-12.35-13.54"/>
      <path class="cls-4" d="M120.33,556.4c7.25,8.2,14.86,16.08,22.79,23.62,3.84,3.65,8,7.02,11.55,10.94,3.85,4.26,7.7,8.52,11.54,12.77,2.77,3.07,5.54,6.13,8.31,9.2,1.86,2.06,3.74,4.14,6.02,5.72"/>
    </g>
  </g>
</svg>