<?xml version="1.0" encoding="UTF-8"?>
<svg xmlns="http://www.w3.org/2000/svg" xmlns:xlink="http://www.w3.org/1999/xlink" viewBox="0 0 513 433">
  <defs>
    <style>
      .cls-1 {
        letter-spacing: 0em;
      }

      .cls-2 {
        fill: #58595b;
      }

      .cls-3 {
        fill: #f3d3e1;
      }

      .cls-4 {
        fill: url(#radial-gradient-2);
      }

      .cls-5 {
        fill: #942a26;
        font-family: IvyPrestoDisplay-Light, 'IvyPresto Display';
        font-size: 90px;
        font-weight: 300;
      }

      .cls-6 {
        fill: #414042;
      }

      .cls-7 {
        fill: url(#radial-gradient);
      }

      .cls-8 {
        fill: #949598;
      }

      .cls-9 {
        letter-spacing: 0em;
      }

      .cls-10 {
        letter-spacing: -.02em;
      }

      .cls-11 {
        letter-spacing: -.02em;
      }

      .cls-12 {
        letter-spacing: -.03em;
      }

      .cls-13 {
        letter-spacing: 0em;
      }
    </style>
    <radialGradient id="radial-gradient" cx="257.8" cy="373.21" fx="257.8" fy="373.21" r="176.09" gradientUnits="userSpaceOnUse">
      <stop offset="0" stop-color="#fff"/>
      <stop offset="1" stop-color="#949598"/>
    </radialGradient>
    <radialGradient id="radial-gradient-2" cx="257.37" cy="369.83" fx="257.37" fy="369.83" r="22.45" xlink:href="#radial-gradient"/>
  </defs>
  <g id="Layer_5" data-name="Layer 5">
    <path class="cls-6" d="M47.57,88.29l-.21,268.44h77.24l343.22-.05V88.29s.33-6.34-7.83-6.18H52.47s-5.92.01-4.9,6.18Z"/>
    <path class="cls-3" d="M53.54,95.47l-.26,256.56v1.33l409.86-.66-.75-259.35s1.51-6.02-5.08-4.89l-175.18-.14s-.12,3.31-5.87,3.9l-39.08-.23s-7.04.88-6.45-3.67H58.6s-5.58-.6-5.32,3.71l.26,3.43Z"/>
    <path class="cls-2" d="M46.98,365.59c0,.44-.01.74-.01.86,0-.5,17.17-.58,18.54-.57,4.25,0,8.51,0,12.76,0,5.16,0,10.31,0,15.47.01h17.85c6.64.02,13.27.02,19.91.03,7.21,0,14.42.01,21.63.02,7.68,0,15.35.01,23.03.02,8.03,0,16.07.01,24.1.02,8.28,0,41.69.03,50.11.04s16.9.01,25.35.02,16.74.01,25.11.02c8.18,0,16.36.01,24.55.02s15.77.01,23.65.02c7.48,0,14.95.01,22.43.02,6.96,0,13.92.01,20.88.02,6.34,0,12.67,0,19.01.01,5.6,0,11.2,0,16.8.01,4.76,0,9.51,0,14.27.01,3.8,0,7.61,0,11.41,0h8.23c1.57,0,3.14,0,4.72,0,.05,0,1.04,0,1.04,0v-9.49s-419.88.05-420.46.05c-.19.02-.34,6.42-.38,8.85Z"/>
    <path class="cls-7" d="M46.97,366.45H8.86v8.57s1.98,3.96,6.74,4.56,16.65,0,16.65,0l30.92.26,96.14-.46h130.82s114.97.4,114.97.4l95.94.2s4.56-.2,5.35-4.56,0-8.96,0-8.96H46.97Z"/>
    <path class="cls-4" d="M231.58,373.66h51.31s4.32-.14,6-4.88v-2.74l-63.02-.05s-.56,6.55,5.72,7.67Z"/>
    <path class="cls-8" d="M31.44,380.04c.89.92,1.85,1.88,3.08,2.25.65.19,1.34.2,2.02.21,2.04.03,4.07.06,6.11.09,5.52.08,10.79-.09,16.3.12.71.03,1.5.03,2.03-.45.62-.56.61-1.51.55-2.34-10.11-.82-20.31.35-30.42-.5-.04.16.36.45.32.61Z"/>
    <path class="cls-8" d="M482.57,379.86c-.55.82-1.14,1.67-2,2.16-.93.53-2.01.45-3.05.49-6.29.26-12.64.23-18.94,0-.65-.02-1.31-.05-1.94-.24-1.14-.34-2.1-1.21-2.55-2.31-.05-.12-.09-.24-.06-.36.06-.2.29-.29.49-.34,1.52-.41,3.08-.66,4.65-.75,5.19-.29,9.69.25,14.88.54,2.78.15,5.73.67,8.51.82Z"/>
  </g>
  <g id="Layer_8" data-name="Layer 8">
    <text class="cls-5" transform="translate(167.54 206.35)"><tspan x="0" y="0">mine</tspan><tspan x="-80.32" y="80" xml:space="preserve"> p</tspan><tspan class="cls-12" x="-14" y="80">r</tspan><tspan class="cls-1" x="12.37" y="80">oje</tspan><tspan class="cls-13" x="119.11" y="80">k</tspan><tspan class="cls-11" x="160.33" y="80">t</tspan><tspan class="cls-9" x="188.14" y="80">e</tspan><tspan class="cls-10" x="229.18" y="80">r</tspan></text>
  </g>
</svg>