<?xml version="1.0" encoding="UTF-8"?>
<svg id="Layer_3" data-name="Layer 3" xmlns="http://www.w3.org/2000/svg" viewBox="0 0 361.68 290.51">
  <defs>
    <style>
      .cls-1 {
        fill: #721d1f;
      }

      .cls-2 {
        fill: #942a26;
      }
    </style>
  </defs>
  <path class="cls-2" d="M5.81,71.76c.04.51.47,1.44.93,1.66s7.47,4.16,7.47,4.16c0,0,2.17.98,3.57-.25s2.97-4.46,2.97-6.16c1.7-.17,3.36,0,5.07.04.91.02,1.82.07,2.72-.06s1.79-.46,2.45-1.09c1.95-1.89,5.03-.58,7.48-1.75.88-.42,1.65-.42,2.6-.23s1.84.63,2.76.95c1.66.57,3.45.74,5.18.51,2.09-.29,4.07-.79,6.16-1.06s4.33-.19,6.15.87c.35.2.61.49.96.68,2.5,1.37,4.44,3.61,5.83,6.09s2.26,5.23,2.99,7.98c.19.72.49,1.56,1.21,1.75.2-.65.08-1.35-.04-2.01-.59-3.13-1.27-6.25-2.03-9.34-.46-1.87-.07-4.04.17-5.96.46-3.66.19-7.26-1.67-10.53-1.12-1.96-2.49-3.8-3.25-5.93-.69-1.91-1.22-3.4-1.79-5.35-.68-2.33-.75-4.79-.73-7.21,0-.55.01-1.14-.25-1.63-.09-.17-.23-.33-.41-.37-.4-.08-.65.42-.76.81-.82,2.8-2.61,5.3-5,6.98-2.65,1.86-6.58.17-9.74-.54-.05.62.75.9,1.37.96,3.28.34,6.66.56,9.63,1.98,2,.96,3.85,2.65,4.14,4.85.17,1.31-.24,2.61-.64,3.86-.61,1.92-1.01,3.61-2.33,5.15-1.29,1.5-3.01,2.86-4.99,2.83-3.24.19-6.67.57-9.87.07-1.16-.18-2.32-.45-3.49-.35-.94.09-2.17.86-2.29,1.8-.03.19-.01.38-.06.56-.18.68-1.06.82-1.75.89-2.2.21-4.35.95-6.22,2.15-.47.3-1.07.44-1.63.52-.87.13-1.65-.75-1.68-1.63s.51-1.69,1.16-2.28c1.19-1.07,2.8-1.62,4.4-1.63s3.18.5,4.55,1.32c.6.36,1.2.79,1.89.93s1.53-.14,1.76-.81c.14-.42.01-.88-.17-1.29-.35-.79-.89-1.5-1.57-2.05-2.12-1.73-3.83-3.9-5.75-5.85-.5-.51-1.04-1.14-.9-1.84.09-.43.42-.76.78-1.01,1.11-.76,2.72-1.13,3.07-2.43-.78-.08-1.43.55-1.98,1.11-2.05,2.09-4.38,3.91-6.9,5.4-.49.29-1.24.73-1.56,1.2-.08.12-.16.26-.15.4,0,.12.08.24.18.32.42.37,1.08.17,1.58-.09s1.06-.58,1.59-.39c.44.17.69.68.64,1.15s-.36.88-.74,1.16-.83.43-1.29.57c-.29.09-.58.16-.87.23-2.95-.26-5.75.37-8.47,1.53-.34.15-.69.31-.92.6-.51.65-.24,1.58,0,2.37.47,1.59.43,4.43-1.45,5.15-.86.33-1.93.04-2.47-.7-.52-.71-.52-1.67-.45-2.55.03-.37.07-.74.11-1.1.03-.26.06-.55-.1-.75-.32-.41-3.59,2.02-4.05,2.32s-3.15,1.72-3.09,2.38Z"/>
  <path class="cls-1" d="M2.3,52.87C2.14,55.66-.05,58.07,0,60.85c0,.3.05.62.24.85.26.31.74.36,1.13.23s.7-.42,1-.69c.51-.47,1.03-.94,1.54-1.41.21-.19.44-.39.72-.39.47,0,.74.56.71,1.03-.07,1.09-1.08,1.84-1.78,2.68-1.07,1.27-1.53,3.03-1.24,4.66.11.6.57,1.31,1.14,1.12.41-.14.53-.66.66-1.08.16-.51.44-.99.81-1.38.58-.6,1.34-.97,1.99-1.5.59-.47,1.8-1.51,1.91-2.27.07-.49-.06-.98-.19-1.46-.36-1.32-.73-2.64-1.33-3.87-.31-.62-.72-1.25-1.36-1.52-.59-.25-1.26-.15-1.88-.32-.52-.14-1.07-.84-1-1.4.07-.59.83-1.12,1.26-1.48,1.67-1.39,3.42-2.69,5.24-3.88,1.13-.74,2.11-1.67,3.25-2.4.9-.58,2.15-.44,2.88-1.22.1-.11.2-.25.18-.4-.03-.37-.57-.38-.92-.28-.83,0-2.02.74-2.75,1.1-.88.45-1.73.97-2.52,1.56-1.67,1.25-3.28,2.59-4.92,3.89-.53.42-1.01.72-1.59,1.03-.31.17-.87.41-.89.8Z"/>
  <path class="cls-1" d="M13.18,49.65l-1.5.82c-.56.3-1.12.61-1.74.77-.93.24-1.92.12-2.87.3-.11.02-.23.05-.31.14-.17.2.02.5.19.69,1.29,1.42,2.46,2.95,3.48,4.57.16.25.32.51.56.68s.59.23.82.05c.36-.26.26-.79.29-1.23.04-.68.5-1.32,1.13-1.59.15-.78.22-.9.87-1.34,2.03-1.37,3.94-2.91,5.71-4.6,1.19-1.14,2.42-2.32,3.62-3.45s2.33-2.45,2.72-4.06c-.76-.22-1.38.58-1.9,1.18-1.2,1.38-2.97,2.08-4.51,3.07-2.22,1.42-4.25,2.75-6.57,4.01Z"/>
  <path class="cls-2" d="M37.05,31.78c-.41,2.83-2.15,5.43-4.6,6.9-.31.18-.68.51-.5.83.09.15.28.21.46.22.53.03,1.01-.28,1.43-.61,1.59-1.25,2.77-3.01,3.33-4.96.09-.3.21-.66.52-.73.22-.04.43.09.6.23.72.6,1.2,1.5,1.28,2.43s-.21,1.9-.81,2.63c-.14.17-.3.35-.29.56.03.41.64.48.99.27s.64-.57,1.05-.62c.94-.12,1.6-.27,2.53-.43,1.79-.3,3.44-1.33,4.5-2.81,1.25-1.74,4.31-.66,6.18-1.69.14-.08.3-.2.31-.36,0-.15-.11-.27-.23-.37-.44-.39-1.05-.81-1.56-.52-.36.21-.46.67-.73.98-.44.52-1.22.55-1.9.53-.39,0-.78-.02-1.14-.14-1.04-.34-1.62-1.47-2.61-1.93-1.96-.91-3.94-1.47-6.09-1.5-.58,0-1.17,0-1.71.21s-.91.29-.99.86Z"/>
  <path class="cls-2" d="M119.89,52.54c5.61.51,11.7-.1,16.03-3.7,6.14-5.11,14.87-7.49,21.95-11.17,4.3-2.24,8.76-4.61,11.66-8.5-2.98.72-5.96,1.44-8.94,2.15,1.56-1.84,3.53-3.33,5.73-4.32,3.23-1.45,7-1.72,10.48-1.06,1.92.36,3.73,1.18,5.45,2.11,3.25,1.77,6.28,4.03,8.52,6.98s3.64,6.61,3.45,10.31c-.05.9.27,2.22,1.14,1.99.26-3.25.51-6.62-.64-9.68-.95-2.53-2.77-4.62-4.65-6.55-2-2.05-4.1-3.98-6.21-5.92-4.96-4.55-10.29-9.3-16.9-10.54-1.84-1.62-4.12-3.11-6.12-4.52-.89-.63-1.82-1.24-2.86-1.57-1.17-.37-2.42-.35-3.65-.3-4.14.19-8.27.85-12.27,1.94-1.53.42-3.48,1.23-4.85,2.05-4.17,2.5-8.15,5.3-11.91,8.39-1.59,1.31-3.17,2.68-5.06,3.48-3.73,1.57-8.55,1.79-12.59,2.09-1.43.11-2.97.13-4.19-.63-.14-.71.33-1.42.95-1.8s1.36-.48,2.07-.61c3.18-.56,6.32-1.56,9.05-3.3s5.02-4.24,6.16-7.27,4.8-4.63,7.93-5.44,6.56-.38,9.4,1.17c.53.29,1.07.63,1.68.67s1.29-.38,1.3-.99c0-.33-.18-.62-.36-.89-1.45-2.19-3.1-4.53-5.61-5.29-1.16-.35-2.39-.32-3.6-.22-2.81.24-5.64.9-8.08,2.31-2.52,1.45-4.52,3.64-6.48,5.78-2.25,2.47-4.51,4.94-6.76,7.41-4.5,4.94-11.81,6.58-18.37,7.84,8.19,3.85,17.7,3.79,26.63,2.29,2.59-.43,5.31-1.06,7.2-2.89,3.51-3.41,7.85-4.85,12.04-7.37,1.68-1.01,3.38-2.02,5.22-2.71,3.55-1.34,7.42-1.46,11.21-1.57,2.14-.06,4.38-.1,6.32.81.44.21.92.56.9,1.05-13.22-.25-26.45,4.93-35.98,14.09-2.93,2.82-7.85,3.62-11.61,5.19-2.04.85-4.2,1.45-6.39,1.76-1.46.21-2.97.29-4.4-.1-1.4-.39-2.63-1.21-3.83-2.03-4.12-2.78-8.24-5.56-12.36-8.34-2.69-1.81-5.39-3.42-7.55-5.83,1.91-1.03,4.23-.26,6.3.4,4.8,1.55,10.08,2.46,14.85.83,2.9-.99,5.55-2.89,8.61-3.12.87-.06,1.76,0,2.59-.22s1.65-.87,1.73-1.73-.96-1.72-1.69-1.24c.38-.65.77-1.29,1.15-1.94,1.3-2.19,2.88-4.35,2.36-6.84s-2.43-4.64-4.84-5.45c-.08.93.47,1.78.83,2.65.79,1.88.63,4.09-.28,5.9-1.2,2.41-3.06,2.79-5.19,4.04-4.81,2.81-10.26,4.5-15.82,4.9-1.02.07-2.07.1-3.02-.27-4.12.33-8.52.51-12.36-1.03-1.61-.64-3.08-1.59-4.52-2.56-2.89-1.93-5.71-3.95-8.47-6.07-1.26-.97-2.4-2.42-3.61-3.46-1.74-1.49-3.77-3.02-6.05-2.83-.19,1.51.41,3,.85,4.46,1.03,3.41,1.23,7.07.58,10.57-.37,2.02-3.35,3.57-5.27,4.31-6.92,2.68-11.65,9.06-18.1,12.73-.65.37-1.16.99-1.4,1.7.57.13,1.13-.19,1.63-.5,1.99-1.24,3.97-2.48,5.96-3.72,2.63-1.64,4.88-3.48,7.66-4.85,1.9-.94,3.55-2.25,5.32-3.41s3.68-2.19,5.76-2.57c.14-.03.3-.05.43,0,.18.08.27.27.35.44.54,1.21,1.09,2.45,1.22,3.77.11,1.18-.12,2.4.28,3.52.09.25.23.51.48.61.19.08.42.04.62.12.36.13.5.56.58.93.13.62.24,1.24.32,1.87.03.28.13.57.38.72s.61.09.74-.16c.06-.11.06-.24.06-.37.02-2.11-.74-4.18-.69-6.29.02-1.1-.23-2.18-.23-3.28s.32-2.3,1.23-2.92c1.46-.98.47-3.38.44-5.15,0-.36.1-.83.45-.87.19-.02.36.11.51.23,1.48,1.31,2.04,3.55,1.36,5.4-.22.58-.54,1.12-.76,1.7-.16.44-.27.9-.3,1.37-.03.39.03.85.37,1.03.27.15.63.04.87-.16s.39-.48.56-.74c.23-.35.5-.66.81-.95.12-.11.26-.22.42-.23.39-.01.53.51.49.89-.12,1.06-.68,2.01-1.24,2.92s-.89,1.72-1.34,2.68-.69,2.11-.26,3.08c.14.31.34.59.52.87.27.43.51.88.7,1.34.49,1.18-.01,2.67.14,3.94.06.5.13,1.01.39,1.44.16.27.39.5.57.76,1,1.39.65,3.35-.12,4.87-.26.51-.56,1.07-.4,1.61.2.19.55.15.78-.02s.35-.44.46-.7c.47-1.03.91-2.09,1.06-3.2.34-2.5-.78-4.93-1.2-7.42-.11-.63-.29-1.27-.23-1.91.08-.9.76-1.72,1.63-1.97.95-.27,2.06.08,2.92-.42s1.43-1.26,1.91-2.13.84-1.82,1.45-2.61c.56-.73,1.33-1.3,2.18-1.65.63-.25.93-.32,1.61-.28,1.2.06,2.34.51,3.44.99,1.07.46,2.12.95,3.18,1.44,1.15.53,2.37,1.13,2.99,2.23,1.59,2.83,4.61,4.28,6.64,6.81,3.53,4.4,7.74,9.02,13.19,10.48,1.99.53,4.09.63,6.06,1.22.47.14.99.36,1.16.82.26.71-.44,1.37-.76,2.05-.44.96-.09,2.14.59,2.95s1.63,1.33,2.56,1.84c4.49,2.43,6.01,8.39,9.8,11.8.66.59,1.35,1.2,1.69,2.01.25.6.3,1.26.52,1.87s.71,1.21,1.36,1.23c2.09,2.53,3.82,5.14,6.53,6.99,1.41.96,3.12,1.95,3.35,3.64-.63.07-1.24-.24-1.8-.54-2.51-1.34-5.03-2.69-7.54-4.03-1.96-1.05-4.19-2.52-4.2-4.75,0-1.07.47-2.35-.33-3.06-.25-.22-.57-.33-.89-.43-2.27-.72-4.53-1.44-6.8-2.15-1.41.28-1.43-.13-2.46-1.13s-1.85-2.23-2.96-3.14c-.89-.73-1.95-1.24-2.98-1.75-3-1.5-5.91-3.16-8.72-4.99-.83-.54-1.78-1.6-2.45-2.33-.91-.98-1.84-2.03-2.16-3.33-.12-.49-.15-1-.2-1.5-.25-2.29-1.1-4.52-2.44-6.39-1.14-1.59-1.46-3.71-3.13-4.73-1.34-.81-3.07-.87-4.31-1.83-1.04-.8-1.55-2.09-2.23-3.21s-1.76-2.22-3.07-2.15c.28,1.15,1.21,2.01,1.95,2.95,2.48,3.13,2.99,7.33,4.32,11.1,1.36,3.82,3.66,7.31,6.64,10.07.97.9,1.59,2.53,2.63,3.34,1.44,1.12,3.24,1.63,4.9,2.37s3.34,1.84,3.94,3.56c.26.75.3,1.56.48,2.34s.57,1.57,1.28,1.93c.7.35,1.55.21,2.26.53.95.42,1.4,1.72.9,2.64-.87,1.62-2.55,2.85-3.72,4.27-.96,1.16-1.47,2.64-1.67,4.13s-.09,3,.07,4.5c.08.77-.41,1.5-.82,2.16-.4.65-1.06,1.13-1.41,1.79-.33.61-.48,1.25-.86,1.86-.94,1.47-2.14,2.75-3.21,4.13-1.55,2.01-2.83,4.21-4.1,6.41-.47.82-.96,1.7-.92,2.64.84,0,1.51-.66,2.06-1.3,1.88-2.19,3.49-4.63,5.61-6.58,1.6-1.48,3.52-2.72,4.57-4.62.42-.76,1.02-1.42,1.32-2.22.33-.88.53-1.48,1.16-2.25,1.79-2.19,3.08-4.8,3.73-7.55.2-.86.44-1.86,1.25-2.23.35-.16.76-.17,1.15-.17.96,0,1.93.02,2.87-.2s1.85-.73,2.34-1.55c.12-.21.23-.43.42-.58.49-.38,1.33.25,1.1.83,1.83,2.52,4.12,4.38,6.58,6.28,1.67,1.29,3.43,2.6,5.49,3.04,1.13.24,2.3.19,3.45.31s2.34.41,3.18,1.2c.63.58,1.01,1.56.57,2.3-1.21,2.03-3.73,2.99-5.81,4.13-1.45.8-2.89,1.59-4.34,2.39-9.47,5.2-20.38,8.42-29,14.93-6.16,4.64-13.34,8.73-17.43,15.27-1.48,2.37-2.64,5.1-2.43,7.89,1.61-.91,2.55-2.64,3.5-4.23,4.56-7.64,11.31-13.97,19.24-18.02,3.73-1.91,7-3.22,11.06-4.28,7.54-1.98,14.19-6.97,21.93-7.94,5.65-.71,9.13-7.04,14.82-7.36.59-.03,1.19-.01,1.75-.21s1.06-.69,1.04-1.28c0-.28-.13-.55-.25-.8-1.82-3.77-4.35-7.2-7.41-10.05-.72-.67-1.51-1.39-1.64-2.37-.11-.8.32-1.64,1.03-2.03s1.65-.29,2.26.22c2.74-1.23,5.67-.42,8.57.35s5.56,2.24,8.1,3.83c.52.33,1.11.67,1.71.52.78-.2,1.12-1.2.88-1.97s-.86-1.35-1.47-1.87c-1.65-1.44-3.36-2.81-5.13-4.11-1.67-1.23-3.41-2.41-5.38-3.05-4.9-1.6-10.25.35-15.36-.27-.88-.11-2.02-.92-1.45-1.61.13-.16.32-.24.51-.32,3.52-1.51,7.24-2.55,11.02-3.1s7.33-1.59,11.09-1.9c1.06-.09,2.14-.13,3.18.08,1.26.26,2.41.89,3.45,1.63,1.23.89,2.34,1.95,3.27,3.16,1.28,1.66,2.48,3.75,4.55,4.1,0-6.09-3.22-12.09-8.29-15.47-6.48-4.32-14.2-4.09-21.47-2.25s-13.84,6.93-21.51,5.89c-.52-.07-1.04-.17-1.48-.44-.56-.34-.93-.91-1.35-1.42-1.08-1.32-2.64-1.61-3.74-2.68-1.3-1.25-1.63-4.04-1.73-5.73-.08-1.29-.25-2.61-1.04-3.63-.33-.43-.76-.84-.81-1.38-.05-.54.29-1.04.64-1.45,2.41-2.87,5.98-4.45,9.46-5.85,10.87-4.36,18.56-13.37,30.1-15.35,3.35-.58,6.83-.84,10.11.05.46.12,1.03.47.87.92-.08.22-.3.35-.52.44-1.31.55-2.77.54-4.19.61-6.19.31-12.29,2.33-17.44,5.78-2.41,1.62-4.67,3.56-7.4,4.55-6.65,2.4-12.76,5.69-18.9,9.19-.48.27-.97.56-1.25,1.03-.43.72-.25,1.62-.06,2.43.42,1.76.85,3.54,1.67,5.15s2.12,3.06,3.81,3.71"/>
  <path class="cls-2" d="M75.53,94.85c-.4-1.18-.84-2.34-1.32-3.49-.27-.66-.77-1.43-1.47-1.3-.28,1.52,1.02,2.85,1.43,4.34.32,1.16.09,2.39.05,3.59-.09,2.94,1.01,5.77,2.09,8.51,1.42,3.6,3.25,6.67,3.08,10.54-.05,1.02-.34,2.01-.64,2.98-.3.99-.6,1.98-.89,2.97-.41,1.38-.7,2.92-1.04,4.32-.26,1.06-.46,2.13-.66,3.19-.47,2.49-.94,4.99-1.41,7.48-.32,1.7-.74,3.39-.81,5.11-.07,1.7.31,3.72,1.86,4.41,1.18-1.98,1.39-4.36,1.7-6.64.6-4.49,1.66-8.92,3.15-13.19,1.64-4.69,4.56-8.8,5.74-13.62.77-3.15,2.53-5.97,4.1-8.8.71-1.28,1.47-2.55,1.97-3.93.67-1.85.86-3.83,1.04-5.79-1.98,1.45-3.33,3.57-4.64,5.63-2.54,4.02-5.09,8.05-7.63,12.07-.17.27-.46.59-.76.46-.14-.06-.23-.21-.28-.36-.31-.82-.12-1.74-.08-2.62.13-3.58-2.48-6.61-3.59-10.01-.6-1.83-.37-4.02-.98-5.84Z"/>
  <path class="cls-2" d="M85.42,164.84c.74-.02,1.1-1.03.8-1.71s-.99-1.09-1.61-1.49c-4.24-2.76-7.18-7.51-7.53-12.55-.02-.36,0-.8.31-.99.45-.28,1.03.1,1.33.54.71.27.95,1.13,1.15,1.86,1.15,4.18,3.95,7.89,7.67,10.13.6.36,1.04.88,1.72.99,1.25.2,2.29-.87,3.19-1.75,2.77-2.71,6.47-4.46,10.33-4.88,1.53-.16,2.47-1.87,3.58-2.93,1.08-1.04,2.34-1.9,3.7-2.53.15-.07.33-.14.48-.07.09.04.16.13.2.22.26.55-.12,1.17-.48,1.65-1.78,2.31-3.75,4.48-5.89,6.46-.58.54-1.18,1.07-1.91,1.39-1.19.52-2.73.48-3.55,1.49-2.3,2.85-6.27,4.34-9.37,6.28-2.29,1.43-4.7,2.87-7.39,3.14-4.52,3.43-10.31,5.5-15.98,5.59-.61,0-1.25,0-1.79-.31-.23-.12-.44-.32-.47-.58-.07-.57.69-.81,1.26-.85,3.77-.27,7.54-.89,11.06-2.27s6.92-3.8,9.19-6.82Z"/>
  <path class="cls-2" d="M59.12,176.4c-.07.07-.14.18-.08.26.02.03.06.04.1.05.04.01.07.02.11.03.47.11,1.72.08,1.43-.64-.34-.83-1.24-.02-1.56.3Z"/>
  <path class="cls-2" d="M53.98,183.13c-.57-.38-1.41,0-1.72.61s-.25,1.34-.13,2.02c.31,1.66.95,3.28,1.02,4.97,0,.23,0,.48-.14.66-.14.17-.38.24-.59.3-1.39.39-2.69,1.13-3.73,2.14-.46.44-1.02.98-1.63.8-.71-.21-.8-1.16-.75-1.9.04-.62.08-1.25.3-1.83.26-.71.76-.92,1.24-1.41s.84-1.21,1.23-1.76c.83-1.17,1.64-2.4,1.94-3.83.21-1,.16-2.08.67-2.97.48-.83,1.37-1.33,2.27-1.64s1.86-.46,2.75-.79c.26-.09.53-.23.62-.48.12-.31-.12-.67-.43-.81s-.53-.51-.83-.38c-1.32.59-2.61,1.23-3.87,1.93-.87.48-1.79,1.07-2.09,2.01-.28.89.06,1.85.05,2.78-.02,1.67-1.19,3.12-2.56,4.09-.73.52-1.57.98-2.03,1.75-.23.39-.35.84-.44,1.28-.2,1.08-.2,2.2,0,3.28.4,2.06,1.15,4.08,1.72,6.1.24.86.49,1.72.65,2.6.17.92.24,1.85.32,2.78.17,2.14.35,4.29.52,6.43.02.27.05.55.19.79s.44.39.69.29c.33-.13.37-.57.36-.93-.04-1.28-.07-2.57-.11-3.85-.01-.47-.02-.95.17-1.37s.66-.76,1.11-.64c.63.16.78.99.79,1.64.02,1,.05,2,.07,3,.05,1.96-.37,4-.44,5.97-.02.51.11,1.19.62,1.23.37.02.62-.34.85-.64s.63-.58.93-.36c-.71,2.87-1.86,5.64-3.4,8.17.33.36.94.32,1.34.04s.63-.74.84-1.18c1.6-3.36,2.69-6.96,3.23-10.64.08-.57.4-1.31.95-1.17.38.1.51.55.57.94.24,1.37.47,2.77.36,4.16s-.64,2.8-1.69,3.72c-.41.36-.93.69-1.06,1.22-.13.57.26,1.14.72,1.5s1.02.6,1.44,1.01c.66.64.89,1.68.57,2.54-.9.53-1.86.57-2.84.22-.47-.17-.91-.44-1.41-.54s-1.09.05-1.31.5c-.14.28-.09.62-.08.93.03.71-.09,1.44.1,2.13.11.39.32.75.52,1.1.31.53.62,1.06,1.05,1.5s.99.78,1.6.81c.82.05,1.6-.43,2.41-.35.42.39.3,1.08.45,1.63.74,2.75,2.07,5.34,3.88,7.53.12.15.28.31.48.3.19-.82.24-1.71-.1-2.49-.23-.53-.63-.96-.96-1.43-.94-1.32-1.4-2.92-1.85-4.48-.14-.48-.11-.99-.2-1.48-.05-.29-.09-.62.1-.84.11-.13.27-.19.43-.24,1.21-.36,2.55-.11,3.64.52s1.96,1.6,2.61,2.67c.26.43.6.48,1.1.49s1-.12,1.5-.23c1.26-.29,2.54-.47,3.83-.52.29-.01.65.03.74.3.11.32-.26.59-.58.69-.86.28-1.83.32-2.55.86-.6.45-.92,1.18-1.22,1.87-.38.88-.76,1.77-1.13,2.65-.3.7-.6,1.44-.49,2.19s.81,1.47,1.56,1.3c.55-.13.9-.66,1.18-1.15.61-1.04,1.22-2.09,1.83-3.13.19-.32.4-.66.75-.79s.84.13.77.5c.55.67.65,1.63,1.09,2.38.91,1.57,1.26,3.42,1.2,5.23s-.52,3.59-1.16,5.28c-.18.49-.36,1.1,0,1.48.31.32.87.25,1.22-.03s.55-.69.76-1.09c.77-1.43,1.82-2.7,2.63-4.11s1.37-3.07,1.04-4.66c-.42-2.02-.2-4.3-.75-6.29-.6-2.16-1.8-4.12-3.27-5.82-.54-.62-1.15-1.23-1.93-1.51-1.1-.39-2.38-.07-3.44-.57-1.3-.6-2.58-1.14-3.6-2.14-.73-.72-1.46-1.44-2.18-2.18-1.3-1.34-2.65-2.89-2.71-4.76-.09-2.87.46-5.8-.75-8.41-.45-.96-1.18-1.78-1.52-2.78-.6-1.77-1.59-3.18-2.49-4.82-1.42-2.59-1.81-5.73-1.08-8.59.07-.26.24-.53.48-.66s.52-.17.78-.21c1.54-.23,3.05-.63,4.51-1.19,2.6-.99,5.12-2.26,7.73-3.2.91-.32,1.91-.7,2.34-1.57.11-.22.15-.54-.04-.69-.1-.07-.22-.08-.34-.09-2.37-.19-4.76-.14-7.12.14-1.18.14-2.47.32-3.48-.31-.3-.19-.59-.5-.52-.85.04-.22.22-.39.38-.55.99-.93,1.97-1.85,2.96-2.78.33-.31.66-.61,1.05-.83.8-.43,1.76-.42,2.67-.39,1.73.05,3.52-.34,5.23-.62.31-.05.66-.14.79-.42.14-.3-.09-.67-.39-.81s-.65-.11-.98-.07c-1.67.2-3.33.57-5.01.55-1.18-.02-2.43-.21-3.47.34-2.87-.03-5.77.12-8.64.09-.65,0-.63.23-1.29.26Z"/>
  <path class="cls-2" d="M70.46,249.73c.79.71,1.58,1.42,2.18,2.29.12.17.23.36.24.57s-.11.44-.31.48c-.2.04-.39-.11-.54-.25-.15-.14-.31-.29-.46-.43-2.24-2.12-4.48-4.25-6.71-6.37-.48-.45-.84-1.35.2-1.02.56.18,1.05.82,1.47,1.2l3.94,3.54Z"/>
  <path class="cls-2" d="M109.12,141.03c-.18,1-1.25,1.61-2.26,1.68s-2-.27-2.99-.47c-3.14-.63-6.47.11-9.23,1.73s-4.97,4.08-6.59,6.84c-.19.32-.38.67-.36,1.05s.32.77.69.73c.29-.02.5-.27.69-.49,1.28-1.48,3.04-2.44,4.77-3.36,1.74-.94,3.55-1.89,5.51-1.99,2.32-.12,4.56.98,6.88.97,1.52,0,3.03-.49,4.26-1.38,1.43-1.03,3.27-1.22,4.37-2.59.47-.59.81-1.27,1.21-1.91.8-1.29,1.86-2.43,3.09-3.32,4.02-2.93,7.01-6.12,10.36-9.81.7-.78,1.4-1.56,2.17-2.27,1.79-1.64,4.12-3.04,4.71-5.39-3.04,1.76-5.34,4.53-7.97,6.85-1.33,1.17-2.76,2.23-4.18,3.31-2.2,1.67-4.38,3.36-6.54,5.08-.94.75-1.89,1.51-2.66,2.43-.85,1.01-1.79,2.35-3.09,2.15-.61-.1-1.13-.54-1.74-.64s-1.44.3-1.09.81Z"/>
  <path class="cls-2" d="M129.53,237.73c-.94.72-1.92,1.46-3.08,1.69-.23.05-.47.07-.67.19-.53.32-.51,1.12-.21,1.65s.81.93,1.15,1.44c.74,1.14.41,2.84-.7,3.63-.5.35-1.12.54-1.54.98-.86.93-.34,2.56.71,3.26s2.41.71,3.67.66c1.99-.09,4.01-.3,5.95.13.19.04.4.08.55-.04.19-.15.14-.48-.05-.65s-.44-.21-.68-.26c-1.74-.35-3.38-1.12-4.75-2.24-.3-.24-.61-.56-.61-.94,0-.68.87-.92,1.5-1.15,1.1-.4,1.97-1.36,2.28-2.49.12-.44.23-1,.68-1.12.47-.13.87.34,1.24.66.98.82,2.41.68,3.68.54s2.75-.12,3.56.87c1.1,1.35.17,3.6,1.22,4.99.22.29.6.54.93.38.3-.14.37-.53.41-.86.13-1.19.27-2.39.4-3.58.03-.28.27.06.54.1s.5.23.72.41c1.96,1.63,3.69,3.54,5.13,5.65.16.24.33.51.31.8-.04.52-.65.79-1.16.9-.81.18-1.65.25-2.44.52s-1.54.78-1.87,1.54c.56.62,1.47.8,2.31.8,1.15,0,2.28-.23,3.4-.46,1.18-.25,2.36-.49,3.54-.74.31-.06.64-.14.88-.34.57-.47.44-1.36.26-2.07-.79-3.03-1.73-6.01-2.8-8.95-.93-2.55-2.7-4.84-5.21-5.86s-5.47-.88-7.87.38c-.86.45-1.65,1.03-2.53,1.43-1.13.5-2.41.69-3.63.52-.61.05-1.16.1-1.73-.11-.68-.25-1.18-.83-1.7-1.34s-1.07-.91-1.79-.93Z"/>
  <path class="cls-2" d="M139.84,253.24c.31.27.64.64.53,1.04-.41.14-.85-.1-1.22-.34-.47-.3-2.45-1.14-1.94-1.69.73-.79,2.19.59,2.64.99Z"/>
  <path class="cls-2" d="M202.94,167.46c.44-.22.68-.7.96-1.1s.72-.8,1.21-.7c.21.04.4.18.57.31,5.33,3.99,10.57,8.1,15.72,12.31.21.17.43.38.42.65-.01.29-.3.48-.56.62-2.64,1.44-5.43,3.04-8.34,3.78-5.7,1.45-11.67,1.84-17.52,1.15-1.38-.16-2.53-.47-3.92-.35s-2.91.28-4.36.44c-2.92.31-5.86.58-8.8.47-4.56-.18-9.14-.07-13.69.32-4.22.36-8.42-.45-12.68-.55-3.2-.07-7.44-.65-10.3.94-4.53,2.53-6.87,7.65-10.96,10.83-4.43,3.43-7.06,7.67-11.38,11.24-.66.55-1.37,1.16-1.54,2.01-.1.49,0,1.02-.22,1.48-.18.4-.57.67-.97.85-.57.27-1.19.41-1.81.41-.31,0-.63-.03-.94.02s-.65-.06-.74.23c-.46,1.5.52,3.23-.14,4.65-.34.74-1.09,1.28-1.24,2.08-.18.98.62,1.85,1.36,2.53s1.67,1.34,1.55,2.34c1.71,1.84,3.42,3.67,5.13,5.51,1.27,1.36,2.63,2.78,4.41,3.3.52.15,1.1.24,1.48.63.64.66.29,1.87-.48,2.38s-1.76.51-2.68.42-1.89-.33-2.78-.09c-.75.2-1.49.6-1.92,1.26s-.44,1.61.11,2.17,1.67.44,1.96-.28c.17-.41.07-.93.36-1.27.35-.41,1.07-.25,1.44.14s.54.94.8,1.42c.36.66.91,1.2,1.21,1.88s.24,1.63-.41,2c-.32.18-.71.18-1.08.25s-.76.27-.84.63c-.03.15,0,.3.03.44.24.89.93,1.78.58,2.63-.19.46-.67.76-1.15.87s-1,.06-1.5.02c-.45-.04-.93-.1-1.27-.4-.32-.28-.43-.73-.51-1.15-.24-1.25.14-2.58-.16-3.82-.52-2.08-1.24-4.11-2.13-6.06-.74-1.6-1.61-3.15-2.8-4.44-1.12-1.2-2.55-2.03-3.57-3.32s-1.75-2.89-2.66-4.3c-.29-.46-.62-.91-1.06-1.22s-1.03-.47-1.54-.28c-.53.2-1.06.74-1.56.47-.32-.17-.4-.62-.29-.96s.34-.64.53-.95c.34-.58.51-1.25.48-1.92-.1-1.96-.25-3.95-.94-5.79-.07-.18-.14-.36-.3-.47-.25-.18-.62-.07-.84.15s-.32.53-.44.81c-.27.65-.62,1.26-1.05,1.81-.17.22-.39.45-.67.47-1.8.15-.99-4.95-.61-5.74.32-.67.8-1.24,1.25-1.83,1.26-1.66,2.25-3.53,2.92-5.5.27-.81.31-1.32.78-2.04,2.22-3.39,4.77-6.62,6.23-10.4.26-.67.42-1.55-.15-1.98-.21-.16-.48-.21-.74-.26-1.96-.35-3.94-.61-5.93-.8-3.97-.37-8.25.15-12.23.36-3.22-.2-6.29.38-9.48.83-2.13.3-4.26.75-6.41.62-.87-.05-1.79-.22-2.47-.77.16-.23.46-.3.74-.36,5.44-1.14,11.01-1.71,16.57-1.7,4.6.01,8.56-2.43,11.25-6.15.43-.6.83-1.23,1.44-1.66s1.48-.56,2.05-.11c.32.25.5.65.66,1.02.53,1.21,1.06,2.42,1.59,3.64,1.35.58,2.5,1.09,3.95,1.31.89.14,1.84.22,2.59.73.76.52,1.23,1.44,2.09,1.78,1.04.41,2.21-.21,2.99-1,3-3.04,4.91-6.91,5.84-11.07.24-1.09.71-2.13.9-3.23.02-.14.04-.28-.01-.41-.09-.21-.36-.28-.58-.23s-.4.21-.57.35c-1.56,1.37-2.99,2.88-4.26,4.51-.39.5-.83,1.04-1.45,1.13-.17.02-.36,0-.46-.14-.05-.08-.06-.18-.07-.28-.08-1.58.21-3.19.83-4.65.58-1.35.64-2.7,1.1-4.1.41-1.22.82-2.44,1.45-3.55,1.23-2.15,3.22-3.74,5.16-5.28.89-.71,1.84-1.44,2.97-1.6,1.69-.25,3.26.84,4.63,1.87.89.67,1.84,1.43,2.1,2.51.46,1.86,1.01,3.92,1.9,5.63,1.03,2,3.3,3.4,5.17,4.51,2.15,1.28,4.42,2.44,6.17,4.23.33.34.62.96.21,1.21-.12.07-.27.08-.41.07-.88-.03-1.72-.34-2.53-.66-4.05-1.58-8.07-3.35-12.34-4.17-.31-.06-.64-.12-.94-.02s-.57.4-.51.71c.04.23.24.4.43.54,2.05,1.58,4.4,2.78,6.89,3.51,1.5.44,3.05.71,4.59.97,2.92.51,5.84,1.01,8.76,1.52,7.75,1.34,15.47,1.68,23.25.54,8.38-1.22,15.57-6.78,22.97-10.91,1.8-1,3.28-1.58,4.18-3.43Z"/>
  <path class="cls-2" d="M79.9,181.29c.36-.03.72-.07,1.06.04s.65.4.67.75c-1.7.23-3.4.46-5.1.69-.97.13-1.94.26-2.92.3-.35.01-2.18.04-1.26-.58,1.23-.83,2.91-.77,4.32-.9,1.07-.1,2.15-.2,3.22-.3Z"/>
  <path class="cls-2" d="M127.05,159.49c1.11.05,2.17-.62,2.83-1.51s1.01-1.98,1.26-3.07.42-2.19.79-3.24c.19-.52.25-1.04.48-1.54.59-1.31,1.18-2.61,1.77-3.92,1.2-2.67,2.69-5.14,4.29-7.58,2.08-3.19,4.17-6.38,6.25-9.57,1.47-2.25,3.25-4.33,5.42-5.93.32.57.2,1.3-.11,1.88s-.78,1.05-1.18,1.57c-.83,1.08-1.37,2.35-1.93,3.59-1.22,2.69-2.58,5.31-4.08,7.85-.51.86-.75,1.85-1.23,2.72-.56,1.01-1.12,2.02-1.53,3.1-1.59,4.21-.73,8.98-1.98,13.3-.44,1.51-.52,3.17-1.67,4.24-.26.24-.54.46-.87.58-.27.1-.56.14-.85.18-.55.07-1.1.14-1.65.2-1.03.13-2.21.09-3.15-.35-.56-.26-1.03-.68-1.49-1.1-.51-.46-.88-.96-1.39-1.42Z"/>
  <path class="cls-2" d="M215.23,151.22c-2.66,4.13-5.61,8.07-8.82,11.78-.56.65-1.15,1.34-1.28,2.19-.23,1.55,1.13,2.82,2.36,3.78,2.85,2.23,5.7,4.47,8.55,6.7,1.18.92,2.49,1.59,3.67,2.47s2.05,1.45,3.08,0c1.07-1.52,2.98-2.23,4.21-3.63.86-.98,1.52-1.05,2.45-1.96.88-.86,1.76-1.76,2.25-2.9.9-2.11.23-4.5-.25-6.74s-.66-4.86.91-6.53c1.83-1.94,3.55-3.97,4.99-6.21.53-.83,1.07-1.68,1.38-2.62.37-1.12.39-2.33.41-3.51.05-3.37-.18-6.79-1.43-9.92-.5-1.25-1.4-2.63-2.75-2.62-.24,0-.49.06-.67.22-.27.24-.31.64-.3,1,.08,1.93,1.19,3.7,1.3,5.62.09,1.6-.51,3.14-1.15,4.61-.72,1.66-1.57,3.38-3.08,4.38-.46.31-1.04.55-1.57.36-.6-.21-.91-.92-.86-1.56s.37-1.22.68-1.78c.57-1.01,1.13-2.01,1.7-3.02.32-.57.65-1.24.41-1.85-.21-.53-.78-.81-1.31-1.04-1.55-.68-3.09-1.35-4.64-2.03-.16-.07-.35-.14-.51-.07-.13.05-.21.18-.28.3-1.16,1.98-2.33,3.96-3.49,5.94-1.9,3.24-3.94,5.49-5.97,8.64Z"/>
  <path class="cls-2" d="M232.47,199.49c-.27.93-.81,1.76-1.21,2.64-1.12,2.47-1.1,5.32-2.12,7.82-.09.23-.23.48-.47.53-.24.05-.48-.15-.57-.38s-.06-.49-.03-.74c.51-4.14,1.38-8.23,2.59-12.22,1.63-5.38,1.6-11.18,3.87-16.33,1.23-2.77-.18-5.98-1.9-8.48-.74-1.07-1.79-2.06-1.87-3.36-.02-.23,0-.48.11-.69.34-.66,1.36-.63,1.91-.14s.77,1.24,1.01,1.94c.42,1.21.97,2.37,1.66,3.44.13.21.33.44.57.4.23-.04.35-.3.42-.53.28-.86.56-1.72.85-2.58,1.7-5.17,9.08-7.2,14.5-6.75.39.03.86.14.99.51.11.3-.07.63-.26.89-1.51,2.08-3.86,3.35-6.02,4.74-2.21,1.42-4.32,3.04-6,5.06s-2.91,4.47-3.19,7.09c-.16,1.53-1.37,2.73-2,4.13-.75,1.65-1.11,3.45-1.47,5.23-.6,2.98-.55,4.83-1.38,7.75Z"/>
  <path class="cls-2" d="M272.7,142.96c.93-2.23.99-4.59,1.64-6.85.16-.57-.1-.8-.1-1.36,0-1.79-.81-3.4-1.01-5.14-.17-1.48-.44-2.63-.98-4.07-1.23-3.25-2.6-6.44-4.1-9.57-.29-.61-.77-1.32-1.44-1.22-.45.07-.76.51-.82.96s.08.9.23,1.32c.98,2.73,2.6,5.23,3.26,8.07.29,1.23.07,2.37.2,3.58.16,1.55.74,2.8.35,4.41-.66,2.73-1.48,5.73-2.67,8.27-.54,1.16-1.08,2.33-1.62,3.49-.48,1.03-.96,2.06-1.63,2.97-.81,1.11-1.87,2.01-2.92,2.89-2.31,1.95-4.62,3.9-6.93,5.85-.38.32-.77.66-.92,1.13s.05,1.09.53,1.2c.42.1.81-.21,1.13-.5,3.04-2.75,6.13-5.51,9.72-7.49,1.11-.62,2.27-1.16,3.32-1.88,2.15-1.47,3.77-3.65,4.77-6.06Z"/>
  <path class="cls-2" d="M220.58,92.62c1.37.14,2.76.29,4.14.38.93.06,1.05.47,1.97.38,4.07-.38,8.06-2.26,12.1-1.65.85.13,1.7.37,2.39.88.81.6,1.33,1.5,1.83,2.38.45.8.91,1.65.83,2.56-.96.13-1.9.36-2.81.68-3.6,1.23-6.71,3.55-9.76,5.84-1.36,1.02-2.96.9-3.65,2.45-.99,2.23-3.22,3.62-4.68,5.57-.26.34-.5.71-.53,1.14-.06.8.6,1.43,1.09,2.06,1.27,1.63,1.74,3.57,1.81,5.63.02.73.15,1.45.39,2.13.1.28.23.58.48.74.38.25.89.1,1.3-.09,1.37-.65,2.44-1.78,3.66-2.67s2.8-1.54,4.24-1.06c1.03.35,1.78,1.21,2.48,2.04.57.67,1.13,1.34,1.63,2.06.5.73.95,1.59.78,2.46-.05.25-.15.49-.33.67-.38.36-1.01.32-1.48.08s-.84-.63-1.26-.95c-1.42-1.05-3.39-1.12-5.08-.61s-3.17,1.55-4.61,2.59c-1.71,1.23-3.22,1.92-4.44,3.64-2.38,3.37-4.77,6.73-7.15,10.1-.25.36-.52.73-.88.97s-.85.36-1.25.16-.81-.3-.54-.64c.27-4.03.1-8.09-.53-12.08-.09-.58-.39-1.33-.98-1.26-.22.03-.4.17-.56.32-1.61,1.47-2.15,3.74-2.62,5.86-.47,2.12-.94,4.26-1.05,6.43-.14,2.67.26,5.33.61,7.97.06.48.05,1.09-.39,1.29-.3.13-.67-.03-.87-.28s-.29-.59-.36-.91c-.77-3.23-1.5-6.49-1.7-9.8s.12-6.71,1.38-9.78c.53-1.28,1.24-1.87,1.42-3.24.34-2.48,1.67-4.7,2.98-6.84.86-1.41,1.6-2.8,2.46-4.21.46.04.73-.59.55-1.01s-.59-.7-.95-.99-.69-.72-.6-1.17c.1-.5.64-.76,1.1-.98.46-.23.9-.51,1.2-.93s.41-.99.18-1.45c-.36-.73-1.34-.83-2.15-.86s-1.79-.2-2.09-.95c-.07-.19-.09-.4-.16-.59-.21-.58-.84-.89-1.42-1.11-1.91-.72-3.26-.84-5.21-1.44-2.96-.9-6.1-1.24-9.18-1-1.07.09-2.14.24-3.21.39-2.72.39-5.27.88-8.02.99-1.53.06-3.05.11-4.58.17-1.54.06-3.09.12-4.57.54-1.22.34-2.41.94-3.67.85.65-.97,1.64-1.66,2.62-2.31,2.26-1.51,4.56-2.96,6.9-4.34.59-.35,1.27-.93,1.03-1.57-.15-.38-.6-.58-1.01-.55s-.79.22-1.15.41c-3.68,1.94-6.2,4.67-10.27,5.56-6.61,1.44-12.47,4.36-18.47,7.49-2.36,1.23-4.76,2.41-7.17,3.53-.75.35-1.54.7-2.38.69-.19-.63.23-1.28.68-1.77.55-.6,1.18-1.14,1.85-1.6.89-.61,1.88-1.08,2.85-1.54,3.21-1.53,6.91-1.7,9.42-4.22,1.5-1.5,3.34-2.67,5.33-3.4,1.22-.44,2.5-.73,3.65-1.33.93-.48,1.73-1.42,2.66-1.92,1.69-.92,3.21-2.12,4.49-3.56.53-.6,1.04-1.5.56-2.14-.29-.39-.83-.49-1.31-.56-1.47-.19-2.94-.3-4.42-.33-.99-.02-2,0-2.97.24-1.39.35-2.62,1.14-3.83,1.92-.66.43-1.1.94-1.88,1.06-2.06.33-4.16-.22-6.25-.19-4.01.06-7.98,2.26-11.88,1.29-.23-.06-.49-.15-.6-.37-.08-.17-.05-.37.03-.54.36-.81,1.4-1.01,2.29-1.1l8.58-.87c2.63-2.34,5.26-3.92,8.61-5.01.43-.14.88-.28,1.21-.59s.48-.86.21-1.22c-.12-.16-.29-.26-.46-.35-2.48-1.35-5.19-2.27-7.98-2.71.02-1.53-1.44-2.86-1.54-4.39,0-.1,0-.22.07-.29.06-.06.16-.08.26-.08,1.11-.03,2.11.62,3.13,1.06,1.49.64,3.13.84,4.64,1.41,2.2.83,4.03,2.38,5.81,3.91,1.74.26,3.5-.33,5.25-.26,2,.08,3.71,1.37,5.29,2.59.71.55,1.47.68,2.24,1.15,4.3,2.58,9.45,3.7,14.43,3.15,2.85-.32,5.47.79,8.24,1.52,1.31.34,2.63.73,3.99.73,1.94,0,3.79-.78,5.57-1.54,3.53-1.52,7.85-1.57,11.6-.97,1.77.28,3.68.03,5.49-.03,2.08-.07,4.18-.2,6.2-.74.76-.2,1.33.06,2.12.06"/>
  <path class="cls-2" d="M259.41,93.68c2.53.06,5.19.67,7,2.43,2.63,2.56,2.83,6.86,5.34,9.54.1.11.21.21.35.23.46.07.52-.65.36-1.09-1.34-3.79-2.86-7.52-4.76-11.06-.59-1.09-1.24-2.21-2.27-2.9-1.09-.74-2.46-.93-3.77-1.09-.93-.12-1.87-.23-2.8-.35-2.66-.33-5.16-.23-7.81.13-2.58.35-5.08,1.18-7.67,1.4-1.92.16-3.88-.03-5.75.43-.29.07-.61.18-.76.44-.32.54.3,1.13.72,1.6.74.84.96,2.06,1.72,2.88.83.9,2.16,1.17,3.37,1.02s2.35-.65,3.48-1.09c4.18-1.62,8.77-2.49,13.25-2.51Z"/>
  <path class="cls-2" d="M234.85,91.83c-3.41-.18-6.79.7-10.2.71-2.25,0-4.61-.35-6.65.59.91.31,1.81.63,2.72.94,1.92.67,3.9,1.34,5.93,1.23,3.36-.18,6.26-2.46,9.57-3.08,1.1-.21,2.26-.23,3.27-.7-2.28-.34-4.63-.2-6.85.4"/>
  <path class="cls-2" d="M282.04,91.2l-4.5-.12c-.44-.01-1.06.18-.96.61,1.18.63,2.57.71,3.91.81,3.72.28,7.63.94,10.5,3.33,3.31,2.75,7.6,4.12,11.43,6.09,1.73.89,3.49,1.8,4.91,3.12,2.86,2.65,4.04,6.61,6.11,9.91,1.77-.07,3.11-.14,4.88-.16,3.52-.03,7,1.13,9.96,3.04s5.39,4.57,7.28,7.54c1.6,2.51,2.46,5.64,1.95,8.57-.17.98-.54,1.92-.9,2.85-.5,1.29-1,2.58-1.51,3.87-1.52,3.9-5.11,6.94-7.99,9.98-1.37,1.44-2.83,2.91-3.48,4.78-.04.13-.08.27-.04.39.07.19.29.26.49.27.86.05,1.59-.59,2.22-1.19,4.43-4.25,8.91-8.56,12.18-13.76,1.35-2.14,2.66-4.37,3.36-6.8,1.19-4.14.1-8.86-2.77-12.07-1.52-1.7-2.16-4.04-3.34-5.98.72-.34,1.53.2,2.11.74,4.52,4.22,6.88,10.65,6.15,16.79-.31,2.61-2.08,4.96-3.43,7.22-1.55,2.59-3.09,5.17-4.64,7.76-2.08,3.47-4.17,6.96-6.77,10.05-3.47,4.11-8.76,6.44-11.99,10.74-.48.64-.92,1.61-.33,2.16.49.45,1.29.18,1.84-.21,1.05-.74,1.84-1.78,2.71-2.73,3.07-3.33,7.17-5.5,10.64-8.41,3.66-3.07,6.63-6.97,10.61-9.63.77-.51,1.5-1.14,1.77-2.02s.27-1.82.39-2.74c.05-.41.13-.83.35-1.18.67-1.06,2.2-1.02,3.31-1.61,2.05-1.09,3.99-2.23,5.63-3.88,1.33-1.34,2.7-2.73,3.44-4.46s.74-3.93-.52-5.35c-.27-.31-.61-.59-.72-.99-.17-.62.32-1.25.88-1.56s1.22-.43,1.79-.73c1.26-.67,1.92-2.15,1.98-3.57s-.36-2.82-.78-4.18c-.76-2.45-1.54-4.84-2.95-6.99-.5-.76-1.13-1.59-2.04-1.63-1.12-.05-1.87,1.16-2.08,2.25-.25,1.32-.07,2.72.5,3.94.63,1.33,1.71,2.43,2.18,3.82.48,1.42.28,3-.27,4.4s-1.41,2.64-2.27,3.87c.42-1.73-.1-3.53-.46-5.28s-.51-3.71.5-5.17c.31-.45.72-.84.9-1.35.37-1.1-.46-2.21-1.27-3.04-.46-.47-.94-.93-1.43-1.37-.43-.39-1.12-.77-1.53-.35-.15.15-.2.37-.23.58-.15,1.17.3,2.32.57,3.47.93,3.92-.24,8-.39,12.03-.06,1.61.04,3.24-.28,4.81s-1.16,3.15-2.6,3.87c.49-5.38.92-10.76,1.01-16.16.04-2.23-.03-4.62-1.31-6.45-.18-.26-.39-.51-.41-.83-.04-.48.39-.9.86-1s.96.04,1.41.21c.97.36,1.89.87,2.89,1.13s2.14.24,2.98-.37,1.16-1.94.48-2.71c-.74-.83-2.48-.87-3.48-1.31-1.33-.59-2.58-1.42-4.07-1.51-.86-.05-1.75.15-2.56-.15-.42-.16-.78-.43-1.16-.66-1.02-.59-2.25-.78-3.4-.53-5.33,1.17-11.34.58-16.79.85-.72.04-1.65-.07-1.85-.76-.23-.79.73-1.37,1.52-1.63,2.32-.77,4.63-1.55,6.95-2.32,4.8-1.6,9.6-2.88,14.6-2.07,4.4.71,8.28,3.24,11.87,5.88,1.5,1.11,2.52,2.85,3.11,4.61.16.48.29.98.56,1.41s.74.77,1.25.73c.56-1.89-.07-3.97-1.19-5.59s-2.69-2.87-4.22-4.11-3.07-2.53-4.13-4.19c-1.39-2.19-2.64-4.16-3.23-6.69-.18-.77-.33-1.6-.83-2.21s-1.5-.92-2.1-.4c-.72.62-.36,1.78.04,2.64s.76,2.02.04,2.64c-.29.25-.69.33-1.08.39-2.36.36-4.79.31-7.14-.14,2.34-1.78,4.85-3.62,7.78-3.9.88-.08,1.92-.09,2.44-.81.24-.32.31-.74.32-1.14.03-1-.63-2.53-1.34-3.19-.54-.5-1.25-.86-1.98-.8s-1.44.62-1.5,1.35c-.02.31.06.62.07.93,0,.79-.56,1.49-1.25,1.88s-1.48.52-2.26.64c-2.49,3.51-7.46,5.19-11.58,3.96.92-.72,1.98-1.2,3.04-1.69,2.72-1.24,5.44-2.48,8.16-3.71,1.42-.65,2.89-1.31,4.46-1.38,1.01-.05,2.92.11,3.71-.67.86-.84.6-2.68.43-3.71-.46-2.7.19-5.09.25-7.82.01-.49.01-1.01-.18-1.46-.21-.49-.62-.86-1.01-1.21-2.12-1.88-4.24-3.77-6.35-5.65-.96.86-2.08,2.01-2.05,3.3.04,1.99,2.57,3.2,2.74,5.19.1,1.12-.59,2.13-1.25,3.04-1.77,2.45-3.54,4.9-5.31,7.35-.06.08-.12.17-.21.23-.37.28-.94-.07-1.05-.52s.08-.91.25-1.34c.76-1.86,1.34-3.79,1.73-5.76.47-2.34.9-5.08,3-6.24.45-.25.97-.42,1.3-.81.19-.22.29-.49.4-.76.53-1.4.93-3.01.25-4.34-.43-.84-1.24-1.41-1.93-2.06-1.01-.94-1.92-2.12-3.26-2.46-1.29-.33-2.64.23-3.8.87-.79.44-1.57,1.1-2.41,1.4-.91.32-1.89.37-2.81.77-.37.16-.74.35-.96.69-.21.33-.24.74-.26,1.13-.1,1.99-.16,4.08.73,5.86.47.94,1.34,1.81,2.39,1.8,1.13-.02,1.97-1.02,2.68-1.91,1.13-1.41,2.64-2.86,4.44-2.7.39,1.84-1.18,3.42-2.06,5.08-1.2,2.25-1.16,4.92-1.55,7.44-.07.47-.35,1.07-.81.95-.33-2.54-.67-5.08-1-7.62-.15-1.14-.34-2.36-1.13-3.2-.27-.28-.61-.51-.99-.55-.84-.09-1.52.77-1.59,1.61s.27,1.65.54,2.44c.8,2.33,1.01,4.87.62,7.3-.32,1.99-1.07,4.23-2.15,5.93-.91,1.44-2.05,2.72-3.18,4-2.46,2.77-4.91,5.54-7.37,8.3-.95,1.07-2.22,2.06-3.49,2.71-.22.11-.45.21-.69.2-.25-.02-.47-.15-.68-.29-3.24-2.09-6.47-4.18-9.71-6.26s-6.68-3.01-10.28-4.39c-2.62-1-5.12-1.79-7.92-1.87Z"/>
  <path class="cls-2" d="M298.25,104.61c-.69,1.42-.62,3.11-.2,4.63s1.17,2.93,1.85,4.36c2.17,4.6,3.55,9.57,4.08,14.63.3,2.94.16,6.31-2.05,8.29-1.51,1.35-3.65,1.72-5.67,1.8-2.26-.55-4.98.55-6.44,2.37-1.4,1.75-2.04,4.42-4.18,5.1-.55.17-1.14.19-1.69.35-1.18.35-2.05,1.33-2.85,2.26-.93,1.08-1.86,2.16-2.79,3.25-3.41,3.97-7.15,6.61-10.82,10.35-2.88,2.94-5.86,5.95-9.65,7.57-4.3,1.84-7.61,4.22-11.69,6.49,1.74,1.26,4.15.25,6.03-.78,3.54-1.94,7.09-3.88,10.63-5.82-3.26,2.6-6.18,5.62-8.69,8.95,1.84,0,3.47-1.09,5.05-2.03,2.46-1.47,5.07-2.68,7.78-3.61.87-.3,1.94-.54,2.63.07.37.33.54.84.55,1.33.04,1.72-1.5,3.02-2.94,3.96-2.54,1.65-5.24,3.06-8.05,4.19-1.79.72-3.66,1.35-5.6,1.43s-3.96-.4-5.41-1.68c-.53-.47-1.45-.99-1.78-.37-.08.15-.09.33-.09.5-.02,1.42-.05,2.85-.07,4.27-.11,6.87-5.72,12.66-8.94,18.72-.67,1.26-1.35,2.52-2.28,3.59-1.34,1.55-3.28,2.94-3.34,4.99-.11,3.57-2.84,6.96-4.06,10.32,1.19.03,2.08-1.03,2.78-1.99,2.15-2.96,4.3-5.93,6.45-8.89.44-.6,1.04-1.28,1.78-1.14-.19,3.68-5.33,5.71-5.32,9.39,0,.95.38,1.93.09,2.84-.32,1.01-1.34,1.6-2.2,2.22-1.17.83-2.2,1.88-3.01,3.06-.23.34-.46.7-.8.91-.64.4-1.52.17-2.09-.33s-.89-1.22-1.2-1.91c-1.03,2.39-2.12,4.87-3,7.31.41.42,1.01-.26,1.21-.81.35-.94.82-1.83,1.38-2.66.1-.15.22-.31.4-.36.49-.13.7.62,1.11.91.3.21.7.16,1.06.22,1.02.17,1.67,1.25,1.82,2.27s-.03,2.08.06,3.11c.22,2.63,2.64,5.03,5.27,4.79.93-.08,1.81-.46,2.61-.94,2.75-1.65,4.73-4.91,4.03-8.04-.97-.14-1.94-.29-2.9-.43-.21-.03-.43-.07-.58-.22-.15-.15-.18-.38-.2-.59-.16-1.99.51-4.04,1.81-5.56,1.98-2.3,3.55-4.93,5.35-7.37.39-.53,1.2-1.06,1.58-.53.11.16.12.37.13.56.07,1.51.13,3.07-.32,4.51-.42,1.33-1.26,2.48-2.08,3.6-1.49,2.04-2.98,4.07-4.47,6.11-.33.45-.67.92-.8,1.47s.02,1.2.49,1.5c.81.53,1.83-.24,2.48-.96,2.19-2.42,4.29-4.92,6.29-7.5.41-.53.82-1.06,1.1-1.66,1.38-2.94-.45-6.71,1.13-9.54.88-1.56,1.85-2.34,2.98-3.73,2.85-3.5,1.3-9.02,3.67-12.86,1.88-3.05,3.76-5.56,6.04-8.33.55-.67,1.25-1.39,2.12-1.32.52.04.96.37,1.36.7,3.68,2.96,6.68,6.66,9.64,10.33.72.89,1.46,1.84,1.66,2.97.21,1.23-.27,2.45-.74,3.61-.57,1.39-1.14,2.79-1.71,4.18-1.13,2.76-3.05,5.25-5.25,7.26-1.76,1.6-3.51,3.2-5.27,4.81.96.46,2.13.29,3.09-.18s1.75-1.21,2.52-1.94c3.72-3.51,7.61-7.3,8.88-12.25.48-1.88.79-3.79,1.4-5.64.21-.63.61-1.38,1.27-1.33.27.02.51.18.73.33,1.7,1.16,3.39,2.32,5.09,3.48.33.23.68.48.8.86.11.35,0,.74-.13,1.09-.86,2.29-2.47,4.29-4.52,5.63-.87-.79-1.35-2.01-1.25-3.18-.51-.21-1.11.18-1.34.68s-.21,1.08-.2,1.63c.08,3.89-.8,7.8-2.54,11.28,1.27,1.03,3.2.18,4.39-.95,2.54-2.41,5.54-4.75,8.4-6.83,1.46-1.06,3.11-1.84,4.74-2.6,1.77-.83,3.55-1.66,5.32-2.5.94-.44,1.92-.89,2.96-.89.33,0,.67.04.97-.09.55-.24.72-.94.77-1.54.48-5.77-2.85-11.21-6.88-15.36-1.81-1.86-4.12-3.09-5.24-5.43s-1.69-4.9-2.1-7.46c-.25-1.57-.45-3.17-.23-4.74s.92-3.13,2.18-4.11c2.58-2,4.68-4.44,7.41-6.21,1.89-1.23,3.93-2.31,5.44-3.98,2.33-2.56,3.23-6.2,5.23-9.04s4.47-5.66,5.68-9.07c1.37-3.86,1.02-8.08.65-12.16s-.22-8.58-1.66-12.56c-2.22,2.4-.09,6.78-2.13,9.34-1.04-3.3-1.85-6.68-2.4-10.09-.29-1.81-.52-3.64-1.16-5.36s-1.76-3.33-3.4-4.15c-.14-.07-.3-.14-.46-.12-.29.04-.46.36-.53.64-.28,1.2.38,2.39.96,3.48,2.56,4.8,4.05,10.17,4.31,15.6.19,3.97-1.79,7.73-3.26,11.43s-3.57,7.21-6.54,9.85c-.98.87-2.38.93-3.57,1.47-.89.4-1.82.82-2.8.81s-2.03-.58-2.27-1.53c-.2-.79.19-1.61.58-2.33.98-1.85,2.12-3.86,4.09-4.57,1.76-.63,3.69-.05,5.56-.07.25,0,.53-.03.68-.23.1-.14.11-.32.12-.5.26-5.12,3.86-9.74,3.57-14.86-.33-5.81-2.95-11.29-5.38-16.58-.98-2.15-2.8-5.28-3.04-7.63Z"/>
  <path class="cls-2" d="M180.59,277.1c0,.13.13.23.25.28.67.27,2.31-.95,1.7-1.52-.54-.5-1.97.72-1.95,1.24Z"/>
  <path class="cls-2" d="M189.93,268.74l-5.11,4.27c-.42.35-.89.91-.62,1.39.65.13,1.25-.36,1.74-.82,3-2.81,6.01-5.62,9.01-8.43,1.67-1.56,3.25-3.15,5.01-4.61.86-.72,1.64-1.54,2.41-2.35.77-.81,1.53-1.62,2.3-2.44,2.24-2.38,4.65-4.55,6.76-7.05,1.72-2.04,3.29-4.25,5.4-5.89,1.95-1.51,3.44-3.58,4.75-5.68.67-1.07.71-2.25,1.08-3.45-.15-.1-.33.06-.44.2-1.88,2.36-3.76,4.71-5.64,7.07-1.31,1.64-3.07,3.04-4.37,4.7-.47.6-.96,1.18-1.45,1.76-.96,1.12-1.91,2.25-2.87,3.37-2.48,2.92-5.69,5.73-8.32,8.51-.32.34-.72.7-1.17.62-.47-.09-.9-.64-1.32-.42-1.6.85-3.36,2.21-3.76,3.98-.15.66-.17,1.36-.48,1.95-.27.51-.72.89-1.15,1.27-.8.73-.91,1.35-1.74,2.04Z"/>
  <path class="cls-2" d="M205.29,268.44c-.6.63-1.2,1.26-1.8,1.89-.39.41-.78.82-1.26,1.11-1.11.68-2.53.62-3.79.29-1.41-.37-2.85-1.08-4.26-.72-1.42.35-2.07,2.05-3.22,2.96-.57.46-1.07,1-1.47,1.61-.25.38-.48.81-.48,1.27,0,.61.38,1.15.75,1.64.52.7,1.04,1.4,1.57,2.1.28.38.56.94.22,1.27-.11.11-.25.16-.4.21-2.59.87-5.67,1.26-8.37.88-1.88-.26-3.84.08-5.52.97.39.23.79.47,1.11.79s.57.75.58,1.2c0,.19-.03.39-.16.54-.17.2-.45.25-.71.28-1.19.16-2.39.28-3.59.36-.39.02-.81.03-1.11-.21-.45-.36-.38-1.05-.2-1.6.18-.53.45-1.05.9-1.39.26-.2.56-.32.88-.37.65-.09,1.3.16,1.93.35.6.18,1.22.3,1.84.37.59.07,1.2.08,1.78-.07.22-.06.45-.15.57-.33.13-.2.11-.48.03-.71-.25-.71-.95-1.14-1.61-1.52-1.11-.64-2.18-1.27-3.29-1.91-.76.43-1.45.98-2.05,1.61-.53.56-.97,1.2-1.42,1.83-.39.55-.78,1.11-1.17,1.66-.28.39-.56.79-.74,1.23-.18.43-.26.93-.05,1.35.16.32.47.55.78.74.44.27.91.49,1.4.67.63.23,1.3.37,1.96.52,2.61.57,5.25,1.14,7.91,1.05,1.94-.06,3.34.22,5.28.14,1.06-.04,2.14-.12,3.09-.59.66-.33,1.22-.84,1.74-1.38.74-.76,1.41-1.59,2-2.47.62-.91,1.17-2,.89-3.07-.23-.87-.5-1.74-1.01-2.48-.18-.26-.38-.52-.46-.83-.13-.49.06-1.03.39-1.42s.77-.67,1.2-.95c1.04,0,2.02.05,3.06.05.35,0,.71,0,1.05-.07,1.02-.22,1.79-1.06,2.35-1.95s.98-1.86,1.67-2.65c2.96-3.34,5.69-6.17,8.85-9.33,2.75-2.75,5.02-5.33,7.9-7.94.37-.33.73-.67,1.04-1.06.67-.84,1.09-1.87,1.84-2.63,1.41-1.44,2.82-2.19,4.32-3.54,1.64-1.47,3.28-2.96,4.58-4.74.15-.21.3-.43.37-.68.12-.47-.07-.97-.33-1.38-.8-1.26-2.27-2.06-3.76-2.06-.4,0-.8.05-1.16.22-.84.37-1.33,1.23-1.8,2.01-1.83,3.02-4.23,5.67-6.04,8.7-.41.69-.8,1.42-1.38,1.99s-1.37.98-2.17.88c-.69-.09-1.31.17-1.87.59s-1,.97-1.42,1.53c-2.34,3.12-4.42,6.43-6.2,9.89.02.31-.13.63-.28.9-.57,1.06-.46,1.52-1.29,2.39Z"/>
  <path class="cls-2" d="M249.67,241.08c-.31-.31-.89-.17-1.12.2s-.16.86.06,1.24.56.66.9.94c.66.54,1.31,1.08,1.97,1.62.41.33.84.71.94,1.23.17.89-.71,1.6-1.48,2.08-.46.28-.91.57-1.37.85-.21.13-.43.27-.68.27-.46.01-.8-.42-1.05-.82-.66-1.07-1.21-2.2-1.64-3.38-.19-.13-.39.14-.44.36-.51,2.06.47,4.16.9,6.23.1.5.17,1.02.09,1.52-.07.45-.27.87-.44,1.29-.78,1.94-1.04,4.09-.75,6.16.71,5.06,2.95,9.93,6.67,13.44.43.4.88.8,1.43,1.01s1.21.21,1.68-.15c.52-.39.68-1.07.87-1.69.51-1.65,1.44-3.16,2.68-4.36,1.65-1.59,1.5-3.93,2.71-5.87.86-1.39,1.84-2.75,2.25-4.33.3-1.16.28-2.4-.05-3.54-.15-.51-.41-1.05-.9-1.27-.41-.18-.89-.09-1.34-.07-1.48.07-2.97-.75-3.69-2.04.32-.67,1.19-.8,1.91-.95s1.58-.61,1.51-1.35c-.07-.81-1.12-1.04-1.81-1.47-.77-.48-1.19-1.45-1.03-2.34.09-.51.47-1.05.99-1.04,1.25.02,2.27-.99,2.72-2.16.18-.47.2-.99.37-1.47.2-.58.61-1.06,1.01-1.53.75-.88,1.54-1.79,2.62-2.19,1.12-.42,2.58-.34,3.24-1.33,1.09-1.64,2.24-2.88,3.7-4.19,1.35-1.22,2.72-2.42,4.1-3.61.91-.78,1.89-1.68,1.98-2.87-1.47-.38-2.89.64-4.06,1.61-4.55,3.74-9.1,7.48-13.66,11.22-.56.46-1.26.95-1.95.72-.14-1.03.27-2.08.9-2.91s1.47-1.47,2.3-2.11c3.93-3.02,7.86-6.04,11.79-9.06.35-.27.73-.58.8-1.02-1.09.25-2.01.94-2.91,1.61-2.77,2.07-5.61,4.06-8.51,5.96-1.94,1.27-3.93,2.51-6.14,3.17-1.42.43-2.99.09-4.47.13-.31,0-.62.01-.92-.05-.41-.09-.79-.29-1.19-.43-1.15-.38-2.42-.09-3.53.4-.88.39-1.81,1.11-1.72,2.06.83.49,1.82-.19,2.7-.56,1.5-.62,3.36-.27,4.52.87.54.52.94,1.31.68,2.02-.13.35-.41.63-.71.86-1.03.79-2.15,1.3-3.43,1.08Z"/>
</svg>