<?xml version="1.0" encoding="UTF-8"?>
<svg xmlns="http://www.w3.org/2000/svg" xmlns:xlink="http://www.w3.org/1999/xlink" viewBox="0 0 595.28 841.89">
  <defs>
    <style>
      .cls-1 {
        fill: url(#New_Gradient_Swatch);
      }

      .cls-2 {
        fill: url(#radial-gradient);
      }

      .cls-3 {
        fill: #221f20;
      }

      .cls-4 {
        fill: url(#New_Gradient_Swatch-23);
      }

      .cls-5 {
        fill: url(#New_Gradient_Swatch-24);
      }

      .cls-6 {
        fill: url(#New_Gradient_Swatch-21);
      }

      .cls-7 {
        fill: url(#New_Gradient_Swatch-22);
      }

      .cls-8 {
        fill: url(#New_Gradient_Swatch-28);
      }

      .cls-9 {
        fill: url(#New_Gradient_Swatch-26);
      }

      .cls-10 {
        fill: url(#New_Gradient_Swatch-20);
      }

      .cls-11 {
        fill: url(#New_Gradient_Swatch-27);
      }

      .cls-12 {
        fill: url(#New_Gradient_Swatch-25);
      }

      .cls-13 {
        fill: url(#New_Gradient_Swatch-29);
      }

      .cls-14 {
        fill: url(#New_Gradient_Swatch-12);
      }

      .cls-15 {
        fill: url(#New_Gradient_Swatch-15);
      }

      .cls-16 {
        fill: url(#New_Gradient_Swatch-18);
      }

      .cls-17 {
        fill: url(#New_Gradient_Swatch-16);
      }

      .cls-18 {
        fill: url(#New_Gradient_Swatch-14);
      }

      .cls-19 {
        fill: url(#New_Gradient_Swatch-11);
      }

      .cls-20 {
        fill: url(#New_Gradient_Swatch-19);
      }

      .cls-21 {
        fill: url(#New_Gradient_Swatch-17);
      }

      .cls-22 {
        fill: url(#New_Gradient_Swatch-13);
      }

      .cls-23 {
        fill: url(#New_Gradient_Swatch-10);
      }

      .cls-24 {
        fill: url(#New_Gradient_Swatch-56);
      }

      .cls-25 {
        fill: url(#New_Gradient_Swatch-55);
      }

      .cls-26 {
        fill: url(#New_Gradient_Swatch-54);
      }

      .cls-27 {
        fill: url(#New_Gradient_Swatch-57);
      }

      .cls-28 {
        fill: url(#New_Gradient_Swatch-58);
      }

      .cls-29 {
        fill: url(#New_Gradient_Swatch-59);
      }

      .cls-30 {
        fill: url(#New_Gradient_Swatch-53);
      }

      .cls-31 {
        fill: url(#New_Gradient_Swatch-52);
      }

      .cls-32 {
        fill: url(#New_Gradient_Swatch-51);
      }

      .cls-33 {
        fill: url(#New_Gradient_Swatch-50);
      }

      .cls-34 {
        fill: url(#New_Gradient_Swatch-47);
      }

      .cls-35 {
        fill: url(#New_Gradient_Swatch-46);
      }

      .cls-36 {
        fill: url(#New_Gradient_Swatch-45);
      }

      .cls-37 {
        fill: url(#New_Gradient_Swatch-44);
      }

      .cls-38 {
        fill: url(#New_Gradient_Swatch-48);
      }

      .cls-39 {
        fill: url(#New_Gradient_Swatch-49);
      }

      .cls-40 {
        fill: url(#New_Gradient_Swatch-43);
      }

      .cls-41 {
        fill: url(#New_Gradient_Swatch-42);
      }

      .cls-42 {
        fill: url(#New_Gradient_Swatch-41);
      }

      .cls-43 {
        fill: url(#New_Gradient_Swatch-40);
      }

      .cls-44 {
        fill: url(#New_Gradient_Swatch-34);
      }

      .cls-45 {
        fill: url(#New_Gradient_Swatch-35);
      }

      .cls-46 {
        fill: url(#New_Gradient_Swatch-30);
      }

      .cls-47 {
        fill: url(#New_Gradient_Swatch-38);
      }

      .cls-48 {
        fill: url(#New_Gradient_Swatch-31);
      }

      .cls-49 {
        fill: url(#New_Gradient_Swatch-32);
      }

      .cls-50 {
        fill: url(#New_Gradient_Swatch-36);
      }

      .cls-51 {
        fill: url(#New_Gradient_Swatch-33);
      }

      .cls-52 {
        fill: url(#New_Gradient_Swatch-39);
      }

      .cls-53 {
        fill: url(#New_Gradient_Swatch-37);
      }

      .cls-54 {
        fill: url(#New_Gradient_Swatch-60);
      }

      .cls-55 {
        fill: url(#New_Gradient_Swatch-61);
      }

      .cls-56 {
        fill: url(#New_Gradient_Swatch-62);
      }

      .cls-57 {
        fill: url(#New_Gradient_Swatch-5);
      }

      .cls-58 {
        fill: url(#New_Gradient_Swatch-7);
      }

      .cls-59 {
        fill: url(#New_Gradient_Swatch-4);
      }

      .cls-60 {
        fill: url(#New_Gradient_Swatch-6);
      }

      .cls-61 {
        fill: url(#New_Gradient_Swatch-9);
      }

      .cls-62 {
        fill: url(#New_Gradient_Swatch-8);
      }

      .cls-63 {
        fill: url(#New_Gradient_Swatch-3);
      }

      .cls-64 {
        fill: url(#New_Gradient_Swatch-2);
      }

      .cls-65 {
        fill: none;
        stroke: #221f20;
        stroke-miterlimit: 10;
      }

      .cls-66 {
        fill: #f2bb57;
      }

      .cls-66, .cls-67 {
        stroke: #010101;
        stroke-width: 4px;
      }

      .cls-67 {
        fill: #9f2e2a;
      }
    </style>
    <radialGradient id="radial-gradient" cx="241.22" cy="370.16" fx="241.22" fy="370.16" r="16.91" gradientUnits="userSpaceOnUse">
      <stop offset="0" stop-color="#120d0e" stop-opacity="0"/>
      <stop offset=".08" stop-color="#120d0e" stop-opacity=".65"/>
      <stop offset=".63" stop-color="#120d0e" stop-opacity=".7"/>
      <stop offset="1" stop-color="#120d0e" stop-opacity=".95"/>
    </radialGradient>
    <radialGradient id="New_Gradient_Swatch" data-name="New Gradient Swatch" cx="237.62" cy="392.1" fx="237.62" fy="392.1" r="21.33" gradientUnits="userSpaceOnUse">
      <stop offset="0" stop-color="#120d0e" stop-opacity="0"/>
      <stop offset="0" stop-color="#120d0e" stop-opacity=".65"/>
      <stop offset=".48" stop-color="#120d0e" stop-opacity=".7"/>
      <stop offset="1" stop-color="#120d0e" stop-opacity=".95"/>
    </radialGradient>
    <radialGradient id="New_Gradient_Swatch-2" data-name="New Gradient Swatch" cx="237.02" cy="418.28" fx="237.02" fy="418.28" r="9.1" xlink:href="#New_Gradient_Swatch"/>
    <radialGradient id="New_Gradient_Swatch-3" data-name="New Gradient Swatch" cx="246.35" cy="418.74" fx="246.35" fy="418.74" r="2.71" xlink:href="#New_Gradient_Swatch"/>
    <radialGradient id="New_Gradient_Swatch-4" data-name="New Gradient Swatch" cx="256.91" cy="415.07" fx="256.91" fy="415.07" r="10.52" xlink:href="#New_Gradient_Swatch"/>
    <radialGradient id="New_Gradient_Swatch-5" data-name="New Gradient Swatch" cx="270.4" cy="406.34" fx="270.4" fy="406.34" r="5.94" xlink:href="#New_Gradient_Swatch"/>
    <radialGradient id="New_Gradient_Swatch-6" data-name="New Gradient Swatch" cx="280.37" cy="396.37" fx="280.37" fy="396.37" r="6.4" xlink:href="#New_Gradient_Swatch"/>
    <radialGradient id="New_Gradient_Swatch-7" data-name="New Gradient Swatch" cx="294.66" cy="395.46" fx="294.66" fy="395.46" r="6.27" xlink:href="#New_Gradient_Swatch"/>
    <radialGradient id="New_Gradient_Swatch-8" data-name="New Gradient Swatch" cx="287.51" cy="401.34" fx="287.51" fy="401.34" r="3.88" xlink:href="#New_Gradient_Swatch"/>
    <radialGradient id="New_Gradient_Swatch-9" data-name="New Gradient Swatch" cx="304.77" cy="404.76" fx="304.77" fy="404.76" r="6.09" xlink:href="#New_Gradient_Swatch"/>
    <radialGradient id="New_Gradient_Swatch-10" data-name="New Gradient Swatch" cx="319.02" cy="411.75" fx="319.02" fy="411.75" r="10.24" xlink:href="#New_Gradient_Swatch"/>
    <radialGradient id="New_Gradient_Swatch-11" data-name="New Gradient Swatch" cx="328.81" cy="413.15" fx="328.81" fy="413.15" r="2" xlink:href="#New_Gradient_Swatch"/>
    <radialGradient id="New_Gradient_Swatch-12" data-name="New Gradient Swatch" cx="338.15" cy="412.82" fx="338.15" fy="412.82" r="9.02" xlink:href="#New_Gradient_Swatch"/>
    <radialGradient id="New_Gradient_Swatch-13" data-name="New Gradient Swatch" cx="332.75" cy="379.51" fx="332.75" fy="379.51" r="25.51" xlink:href="#New_Gradient_Swatch"/>
    <radialGradient id="New_Gradient_Swatch-14" data-name="New Gradient Swatch" cx="288.49" cy="417.58" fx="288.49" fy="417.58" r="18.29" xlink:href="#New_Gradient_Swatch"/>
    <radialGradient id="New_Gradient_Swatch-15" data-name="New Gradient Swatch" cx="289.07" cy="437.41" fx="289.07" fy="437.41" r="17.08" xlink:href="#New_Gradient_Swatch"/>
    <radialGradient id="New_Gradient_Swatch-16" data-name="New Gradient Swatch" cx="289.85" cy="453.39" fx="289.85" fy="453.39" r="16.65" xlink:href="#New_Gradient_Swatch"/>
    <radialGradient id="New_Gradient_Swatch-17" data-name="New Gradient Swatch" cx="291.13" cy="467.83" fx="291.13" fy="467.83" r="15.72" xlink:href="#New_Gradient_Swatch"/>
    <radialGradient id="New_Gradient_Swatch-18" data-name="New Gradient Swatch" cx="292.27" cy="481.47" fx="292.27" fy="481.47" r="14.53" xlink:href="#New_Gradient_Swatch"/>
    <radialGradient id="New_Gradient_Swatch-19" data-name="New Gradient Swatch" cx="292.26" cy="493.23" fx="292.26" fy="493.23" r="11.41" xlink:href="#New_Gradient_Swatch"/>
    <radialGradient id="New_Gradient_Swatch-20" data-name="New Gradient Swatch" cx="292.9" cy="502.95" fx="292.9" fy="502.95" r="9.82" xlink:href="#New_Gradient_Swatch"/>
    <radialGradient id="New_Gradient_Swatch-21" data-name="New Gradient Swatch" cx="294.58" cy="513.77" fx="294.58" fy="513.77" r="8.77" xlink:href="#New_Gradient_Swatch"/>
    <radialGradient id="New_Gradient_Swatch-22" data-name="New Gradient Swatch" cx="303.59" cy="526.86" fx="303.59" fy="526.86" r="9.02" xlink:href="#New_Gradient_Swatch"/>
    <radialGradient id="New_Gradient_Swatch-23" data-name="New Gradient Swatch" cx="314.03" cy="537.47" fx="314.03" fy="537.47" r="8.4" xlink:href="#New_Gradient_Swatch"/>
    <radialGradient id="New_Gradient_Swatch-24" data-name="New Gradient Swatch" cx="323.21" cy="550.27" fx="323.21" fy="550.27" r="9.01" xlink:href="#New_Gradient_Swatch"/>
    <radialGradient id="New_Gradient_Swatch-25" data-name="New Gradient Swatch" cx="324.63" cy="566.94" fx="324.63" fy="566.94" r="8.04" xlink:href="#New_Gradient_Swatch"/>
    <radialGradient id="New_Gradient_Swatch-26" data-name="New Gradient Swatch" cx="318.37" cy="581.86" fx="318.37" fy="581.86" r="7.99" xlink:href="#New_Gradient_Swatch"/>
    <radialGradient id="New_Gradient_Swatch-27" data-name="New Gradient Swatch" cx="302.93" cy="589.9" fx="302.93" fy="589.9" r="9.98" xlink:href="#New_Gradient_Swatch"/>
    <radialGradient id="New_Gradient_Swatch-28" data-name="New Gradient Swatch" cx="283.44" cy="587.61" fx="283.44" fy="587.61" r="7.7" xlink:href="#New_Gradient_Swatch"/>
    <radialGradient id="New_Gradient_Swatch-29" data-name="New Gradient Swatch" cx="273.2" cy="577.55" fx="273.2" fy="577.55" r="6.62" xlink:href="#New_Gradient_Swatch"/>
    <radialGradient id="New_Gradient_Swatch-30" data-name="New Gradient Swatch" cx="271.16" cy="564.59" fx="271.16" fy="564.59" r="6.14" xlink:href="#New_Gradient_Swatch"/>
    <radialGradient id="New_Gradient_Swatch-31" data-name="New Gradient Swatch" cx="277.47" cy="544.16" fx="277.47" fy="544.16" r="13.61" xlink:href="#New_Gradient_Swatch"/>
    <radialGradient id="New_Gradient_Swatch-32" data-name="New Gradient Swatch" cx="262.2" cy="438.65" fx="262.2" fy="438.65" r="10.45" xlink:href="#New_Gradient_Swatch"/>
    <radialGradient id="New_Gradient_Swatch-33" data-name="New Gradient Swatch" cx="240.98" cy="446.77" fx="240.98" fy="446.77" r="9.72" xlink:href="#New_Gradient_Swatch"/>
    <radialGradient id="New_Gradient_Swatch-34" data-name="New Gradient Swatch" cx="254.46" cy="450.49" fx="254.46" fy="450.49" r="2.66" xlink:href="#New_Gradient_Swatch"/>
    <radialGradient id="New_Gradient_Swatch-35" data-name="New Gradient Swatch" cx="264.29" cy="457.95" fx="264.29" fy="457.95" r="9.34" xlink:href="#New_Gradient_Swatch"/>
    <radialGradient id="New_Gradient_Swatch-36" data-name="New Gradient Swatch" cx="255.93" cy="469.23" fx="255.93" fy="469.23" r="2.69" xlink:href="#New_Gradient_Swatch"/>
    <radialGradient id="New_Gradient_Swatch-37" data-name="New Gradient Swatch" cx="249.72" cy="474.54" fx="249.72" fy="474.54" r="5.9" xlink:href="#New_Gradient_Swatch"/>
    <radialGradient id="New_Gradient_Swatch-38" data-name="New Gradient Swatch" cx="237.9" cy="475.59" fx="237.9" fy="475.59" r="4.4" xlink:href="#New_Gradient_Swatch"/>
    <radialGradient id="New_Gradient_Swatch-39" data-name="New Gradient Swatch" cx="267.53" cy="472.89" fx="267.53" fy="472.89" r="8.94" xlink:href="#New_Gradient_Swatch"/>
    <radialGradient id="New_Gradient_Swatch-40" data-name="New Gradient Swatch" cx="262.01" cy="484.29" fx="262.01" fy="484.29" r="2.39" xlink:href="#New_Gradient_Swatch"/>
    <radialGradient id="New_Gradient_Swatch-41" data-name="New Gradient Swatch" cx="256" cy="491.85" fx="256" fy="491.85" r="6.25" xlink:href="#New_Gradient_Swatch"/>
    <radialGradient id="New_Gradient_Swatch-42" data-name="New Gradient Swatch" cx="242.84" cy="495.74" fx="242.84" fy="495.74" r="4.49" xlink:href="#New_Gradient_Swatch"/>
    <radialGradient id="New_Gradient_Swatch-43" data-name="New Gradient Swatch" cx="269.91" cy="494.17" fx="269.91" fy="494.17" r="9.78" xlink:href="#New_Gradient_Swatch"/>
    <radialGradient id="New_Gradient_Swatch-44" data-name="New Gradient Swatch" cx="267.72" cy="507.06" fx="267.72" fy="507.06" r="2.53" xlink:href="#New_Gradient_Swatch"/>
    <radialGradient id="New_Gradient_Swatch-45" data-name="New Gradient Swatch" cx="261.01" cy="515.73" fx="261.01" fy="515.73" r="7.61" xlink:href="#New_Gradient_Swatch"/>
    <radialGradient id="New_Gradient_Swatch-46" data-name="New Gradient Swatch" cx="247.37" cy="523.91" fx="247.37" fy="523.91" r="5.07" xlink:href="#New_Gradient_Swatch"/>
    <radialGradient id="New_Gradient_Swatch-47" data-name="New Gradient Swatch" cx="315.24" cy="435.75" fx="315.24" fy="435.75" r="10.29" xlink:href="#New_Gradient_Swatch"/>
    <radialGradient id="New_Gradient_Swatch-48" data-name="New Gradient Swatch" cx="324.57" cy="445.89" fx="324.57" fy="445.89" r="2.6" xlink:href="#New_Gradient_Swatch"/>
    <radialGradient id="New_Gradient_Swatch-49" data-name="New Gradient Swatch" cx="334.37" cy="444.7" fx="334.37" fy="444.7" r="6.93" xlink:href="#New_Gradient_Swatch"/>
    <radialGradient id="New_Gradient_Swatch-50" data-name="New Gradient Swatch" cx="344.82" cy="437.64" fx="344.82" fy="437.64" r="4.02" xlink:href="#New_Gradient_Swatch"/>
    <radialGradient id="New_Gradient_Swatch-51" data-name="New Gradient Swatch" cx="315.58" cy="454.42" fx="315.58" fy="454.42" r="8.88" xlink:href="#New_Gradient_Swatch"/>
    <radialGradient id="New_Gradient_Swatch-52" data-name="New Gradient Swatch" cx="324.65" cy="464.53" fx="324.65" fy="464.53" r="2.37" xlink:href="#New_Gradient_Swatch"/>
    <radialGradient id="New_Gradient_Swatch-53" data-name="New Gradient Swatch" cx="331.41" cy="468.88" fx="331.41" fy="468.88" r="5.72" xlink:href="#New_Gradient_Swatch"/>
    <radialGradient id="New_Gradient_Swatch-54" data-name="New Gradient Swatch" cx="343.25" cy="469.33" fx="343.25" fy="469.33" r="4.1" xlink:href="#New_Gradient_Swatch"/>
    <radialGradient id="New_Gradient_Swatch-55" data-name="New Gradient Swatch" cx="313.87" cy="469.96" fx="313.87" fy="469.96" r="8.95" xlink:href="#New_Gradient_Swatch"/>
    <radialGradient id="New_Gradient_Swatch-56" data-name="New Gradient Swatch" cx="320.56" cy="480.14" fx="320.56" fy="480.14" r="2.35" xlink:href="#New_Gradient_Swatch"/>
    <radialGradient id="New_Gradient_Swatch-57" data-name="New Gradient Swatch" cx="327.67" cy="486.7" fx="327.67" fy="486.7" r="6.38" xlink:href="#New_Gradient_Swatch"/>
    <radialGradient id="New_Gradient_Swatch-58" data-name="New Gradient Swatch" cx="341.25" cy="489.02" fx="341.25" fy="489.02" r="4.21" xlink:href="#New_Gradient_Swatch"/>
    <radialGradient id="New_Gradient_Swatch-59" data-name="New Gradient Swatch" cx="313.92" cy="491.26" fx="313.92" fy="491.26" r="9.51" xlink:href="#New_Gradient_Swatch"/>
    <radialGradient id="New_Gradient_Swatch-60" data-name="New Gradient Swatch" cx="317.62" cy="502.55" fx="317.62" fy="502.55" r="2" xlink:href="#New_Gradient_Swatch"/>
    <radialGradient id="New_Gradient_Swatch-61" data-name="New Gradient Swatch" cx="324.83" cy="511.12" fx="324.83" fy="511.12" r="8.16" xlink:href="#New_Gradient_Swatch"/>
    <radialGradient id="New_Gradient_Swatch-62" data-name="New Gradient Swatch" cx="339.02" cy="516.86" fx="339.02" fy="516.86" r="4.45" xlink:href="#New_Gradient_Swatch"/>
  </defs>
  <g id="Layer_1" data-name="Layer 1">
    <g id="Layer_4" data-name="Layer 4">
      <path class="cls-66" d="M252.44,290.68c-.78,3.91-1.56,7.82-1.08,11.8.6,5.12,3.31,9.75,6.5,13.78,1.44,1.75,3.07,3.49,5.18,4.33,1.38.54,2.83.6,4.33.66,1.2,0,2.47,0,3.37-.72.66-.54.96-1.32,1.26-2.05.54-1.56.9-3.25.96-4.93.06-1.99-.18-4.03,0-6.02s.84-4.09,2.47-5.3c.72-2.95,1.5-5.36,2.95-8,.72-1.26,1.56-2.59,2.95-3.07,2.41-.84,4.75,1.32,7.22,1.81,2.23.48,4.69-.54,5.96-2.47s1.26-4.57,0-6.44c-1.99-2.95-1.44-5.84-2.23-9.33-.78-3.49-1.02-7.16.18-10.47,2.71-7.76,3.91-14.92,7.52-22.33-2.77,3.55-3.25,8.49-2.11,12.88,1.14,4.39,3.61,8.24,6.38,11.8,6.74,8.73,9.81,18.05,15.77,27.32.24.36.66.78,1.02.54,1.87-3.73,3.67-7.52,5.54-11.25s2.71-6.32,5.42-8.61c1.14-.96,2.41-1.75,3.55-2.77,3.01-2.59,4.87-6.26,6.62-9.87s1.81-4.87,3.13-7.1c2.65-4.57,4.87-9.45,6.56-14.5-.24,3.31,1.02,6.56,2.23,9.69,1.81,4.63,3.49,9.39,4.15,14.32.9,6.38.48,13.66,6.38,17.75.96.66,2.05,1.2,3.19,1.14,1.08-.06,2.05-.66,2.77-1.44s1.26-1.75,1.75-2.65c1.99-3.73,2.59-7.7,3.91-11.73,1.08-3.25,2.05-6.5,3.19-9.75,1.81-5.12,3.97-10.11,6.56-14.92-.24,5.96.3,11.92,1.44,17.75,2.11,10.23,5.78,19.02,11.55,27.74,1.26,1.93,2.71,3.79,4.63,5.06s4.39,1.93,6.56,1.2c.84-.3,1.62-.78,2.35-1.2,2.17-1.32,4.39-2.71,6.56-4.03,5.06-3.13,10.17-3.79,14.56-7.82s7.82-8.97,11.07-14.02c1.32-2.05,2.65-4.15,4.75-5.36-1.08.3-1.62,1.38-2.11,2.41-1.38,3.13-2.83,6.32-3.19,9.69-.24,2.11,0,4.21-.24,6.32-.12,1.38-.48,2.77-.42,4.21.06,1.99.9,3.79,1.26,5.78.54,3.13-.18,6.38-1.56,9.27-1.38,2.89-3.25,5.42-5.18,8-3.49,4.69-5.54,10.83-5.36,16.67,0,1.5.3,3.07,1.14,4.33,1.26,1.87,3.55,2.77,5.78,2.83s4.39-.54,6.56-1.14c2.95-.84,5.84-1.69,8.79-2.53s2.47-.3,3.91-.9c5.6-2.47,11.19-5.06,15.83-9.03,4.63-3.91,8.3-9.39,8.91-15.47-.96,3.91-1.62,7.88-1.99,11.86-.12,1.81-.24,3.61-.72,5.3-.42,1.44-1.14,2.77-1.87,4.03-2.77,4.99-5.78,9.93-9.09,14.62-5.84,8.43-11.86,17.15-13.06,27.38-2.17,18.17-1.99,35.69-10.29,52.05.48-.36.9-.9,1.32-1.32,2.29-2.35,5.84-2.65,9.03-3.31,12.04-2.47,22.45-11.49,26.6-23.05-3.97,6.08-6.44,12.94-8.85,19.74-.96,2.77-1.93,5.48-2.95,8.24-1.99,5.54-4.81,9.93-7.7,14.98-1.14,2.05-2.35,4.15-2.41,6.44,0,1.14.36,2.47,1.38,3.01,1.14.54,2.47,0,3.55-.66,3.19-1.99,5.66-4.93,8.06-7.82,2.23-2.65,4.45-5.36,6.68-8-5.18,6.26-3.55,16.19-8.61,22.57-8.36,10.59-21.06,16.01-33.52,21.3-1.5.6-3.01,1.26-4.09,2.41-.72.78-1.2,1.75-1.5,2.77-.42,1.38-.48,2.95.24,4.15.66,1.08,1.81,1.81,2.95,2.35,1.93.96,3.97,1.75,6.08,2.35,10.59,3.07,19.5,7.28,30.51,7.46,6.98.12,14.02-.6,20.58-3.01-1.26-.36-2.53.54-3.55,1.38-7.16,5.96-14.32,11.92-21.48,17.81s-12.88,10.05-20.76,12.04c-1.93.48-3.97.78-5.9,1.32-2.35.66-4.57,1.62-6.8,2.65-4.15,1.93-8.18,4.15-11.8,6.98-3.61,2.83-8.79,5.12-11.67,9.51-1.87,2.83-2.89,6.26-2.89,9.63,0,.96.06,1.93.48,2.71.36.66.96,1.2,1.56,1.68,2.53,1.81,5.72,2.35,8.85,2.23s6.14-.84,9.21-1.26c7.52-1.08,15.35-.54,22.75-2.41-1.93,1.62-3.97,3.31-5.9,4.93-1.68,1.5-3.43,2.95-5.18,4.39-4.33,3.43-9.03,6.5-13.96,8.97s-2.71,1.87-4.09,2.89c-2.83,2.11-5.72,4.15-8.91,5.72-2.59,1.26-5.36,2.11-8.12,2.95-6.68,2.05-13.36,4.15-20.16,5.84-2.11.54-4.27,1.02-6.44.9,7.58,1.08,15.17,2.17,22.69,3.67,1.62.3,3.19.66,4.75,1.26,6.32,2.53,10.05,9.21,16.19,12.1-8.49-2.59-17.69-2.65-26.18-.12s-3.25,1.32-4.99,1.99c-5.84,2.17-11.92,3.85-18.17,4.33s-12.64-.3-18.29-2.95c1.5,5.36,4.99,9.99,9.15,13.72,3.49,3.13,7.58,5.96,11.73,8s7.34,5.66,11.07,8.18c2.41,1.62,4.87,3.19,7.46,4.45-14.08-2.29-28.22-4.15-42.43-5.72-5.72-.6-10.89-2.53-16.25-4.57-1.02-.42-2.17-.78-3.25-.48-1.14.36-1.93,1.38-2.83,2.17-3.67,3.19-9.63,1.99-13.66,4.69s-7.1,3.97-8.18,7.76c-1.08,3.79-.6,7.94.66,11.67-.54-1.68-1.93-2.95-3.25-4.09-4.21-3.61-8.73-6.92-13.48-9.81-7.16-4.45-10.71-12.4-18.11-16.37-1.2-.66-2.65-1.26-3.97-.96-1.56.3-2.65,1.68-3.49,3.01-3.67,5.84-5.36,13.06-10.53,17.63-2.35,2.11-5.48,3.61-6.68,6.56,2.89-3.13,4.57-7.4,4.51-11.67s-1.81-8.55-4.81-11.61-.54-2.11-1.26-3.07c-2.17-2.71-3.91-5.78-5.06-9.03-.84-2.47-1.44-4.99-2.29-7.46s-2.17-4.81-4.21-6.44c-2.59-2.05-6.08-2.65-9.33-3.13s-6.68-.18-10.05-.36c-1.26-.06-2.53-.12-3.73,0-3.67.54-6.62,3.25-9.33,5.84-2.23,2.11-4.45,4.21-6.68,6.38-2.11,1.99-4.21,4.09-5.3,6.8,2.23-3.13,4.27-6.5,4.87-10.23,1.02-6.32-2.17-12.46-5.24-18.11-3.07-5.66-1.69-4.81-3.55-7.04-6.74-8.12-18.72-12.4-28.46-8.24-3.13,1.32-5.9,3.43-8.91,5.06s-6.5,2.83-9.81,2.11c-3.55.54-5.9-.84-9.09-2.47-6.68-3.49-13.06-7.52-19.08-12.1,4.39,2.17,9.21,4.33,14.02,3.31,5.42-1.14,9.15-6.02,12.7-10.23s8.36-8.55,13.84-7.88c10.53,1.32,21.36-.18,31.71,2.23,2.41.54,5.12,1.44,6.2,3.67-5.06-11.49-12.94-22.45-24.37-27.62-2.83-1.26-5.96-2.29-8.18-4.51-5.36-5.54-12.7-8.67-17.33-14.8-1.62-2.17-3.19-4.57-5.48-6.08-1.75-1.14-3.91-1.75-5.42-3.25-1.99-1.99-2.59-5.18-4.81-6.8-2.83-2.11-6.8-.84-10.35-.6-5.72.36-11.55-2.71-14.56-7.58,3.07,2.05,7.1,2.59,10.59,1.38s6.38-4.09,7.52-7.58c1.75-5.12-5.66-8.3-9.93-11.73-5.54-4.45-11.67-8.18-18.23-11.01,6.56,4.81,14.8,7.22,22.87,6.74,1.2-.06,2.47-.24,3.43-.84,2.47-1.62,2.23-5.54.48-7.88s-4.57-3.73-6.98-5.48c-4.99-3.61-8.49-9.27-9.57-15.41,1.44.42,2.59,1.56,3.73,2.53,1.14.96,2.59,1.87,4.09,1.68s2.83-1.93,2.05-3.19c.66-2.77.36-5.96-.9-8.49-.48-1.02-1.14-1.99-1.81-2.95-2.59-3.85-5.12-7.7-7.7-11.55-4.99-7.46-12.88-12.04-19.5-18.17-2.05-1.93-4.15-3.85-5.6-6.32-1.32-2.29-1.99-4.87-2.53-7.4-1.32-5.84-2.35-11.73-3.37-17.57,1.26,2.65,2.59,5.3,4.03,7.82,2.77,4.99,6.56,10.23,12.16,11.25,1.2.24,2.59.12,3.31-.78.36-.48.48-1.08.6-1.75.96-6.56-1.87-10.89-4.69-16.43s-4.45-12.16-4.45-18.54c0-1.56.12-3.19.48-4.69.48-2.11,1.56-4.09,2.53-6.02,2.29-4.33,4.51-8.61,6.8-12.94s1.02-11.67-1.38-16.73c3.61,6.68,1.32,14.86,0,22.39-1.44,8.18-1.62,16.55-.48,24.79.12.9.66,2.11,1.5,1.87,1.62,3.25,3.31,6.38,5.66,9.15s5.6,4.87,9.21,5.24c3.13.3,6.26-.72,9.03-2.23,4.93-2.71,9.09-6.8,11.8-11.73s7.94-8.36,7.94-13.9c0-7.22-5.54-13.24-6.98-20.34s2.35-16.55,5.3-24.61c-.96,1.5-.12,3.49,1.02,4.81s2.71,2.35,3.61,3.85c.84,1.5.96,3.31,1.38,4.99,1.02,4.03,3.91,7.58,7.76,9.33,3.85,1.75,8.36,1.62,12.1-.24s5.96-1.87,8.43-3.73c2.65-1.99,4.99-4.57,6.5-7.52s2.11-6.5,1.38-9.75c-1.44-6.44-5.3-10.53-5.12-17.15.06-3.73,1.26-7.34,2.47-10.83,3.85-10.83,7.22-22.39,6.08-33.82,1.32,3.85,3.07,7.58,5.18,11.07,3.31,5.6,7.52,10.71,9.63,16.85,1.38,4.03,1.87,8.3,3.25,12.34,2.53,7.58,8,13.78,13.36,19.74s12.1,11.43,18.54,17.27c1.02.96,2.17,1.93,3.61,1.93,1.62-5.12-2.71-10.41-2.05-15.71.9-6.98,9.81-10.53,11.49-17.39s2.11-7.58,3.55-11.25c.18-.42.3-.78.66-1.02.24-.18.6-.24.9-.3,1.68-.36,3.13-1.56,4.09-3.01s1.62-3.07,2.23-4.69c2.59-6.92,6.8-13.3,11.37-19.08-3.49,9.33-7.04,19.02-6.02,28.89,2.23-1.99,4.51-3.97,6.74-5.96-6.02,6.02-9.99,13.84-11.67,22.21l.66-.12Z"/>
    </g>
    <g id="hjerte">
      <path class="cls-67" d="M277.6,353.69c-1.56-2.11-3.43-3.97-5.3-5.84-4.69-4.69-9.51-9.51-15.59-12.28s-6.68-3.07-10.05-4.39c-1.81-.66-3.67-1.32-5.54-1.93-1.93-.66-3.79-1.26-5.72-1.93-1.56-.54-3.13-1.02-4.75-1.44-2.83-.66-5.72-.9-8.61-1.14-6.56-.54-13.42,0-19.98.66-2.35.24-4.69.54-6.98,1.26-1.69.54-3.25,1.26-4.87,1.99-2.29,1.02-4.57,2.11-6.86,3.13-8.67,3.97-15.77,10.47-23.29,16.37s-14.44,12.88-18.78,21.36-7.58,15.23-10.23,23.95c-2.53,8.18-3.25,16.19-3.19,24.67s0,6.92.96,10.65,2.65,7.88,4.39,11.67c2.71,5.72,5.9,11.25,9.45,16.55,3.55,5.3,7.94,9.21,10.53,14.44s7.88,10.83,11.8,15.77,8.67,10.65,13.06,15.89c4.45,5.24,9.03,10.41,13.66,15.53,4.51,4.93,9.03,9.63,13.48,14.62s9.57,10.83,14.38,16.19,9.63,10.77,14.5,16.19,8.85,10.41,14.2,14.62c10.17,8,19.92,16.61,30.21,24.43,9.39,7.16,19.74,12.76,28.65,20.64.3.3.54.18.54-.18.9.18,1.02.12,1.81-.6s1.87-1.75,2.77-2.65l13.48-14.14,9.99-11.67,5.3-5.96,12.7-16.67,31.23-45.01,14.5-25.09c1.93-3.73,3.91-7.46,5.84-11.19l4.45-8.49c1.38-2.65,2.29-5.66,3.79-8.12,5.36-8.85,8.36-18.66,11.55-28.4,3.31-10.05,6.26-20.22,9.03-30.45.72-2.77.42-4.51,1.08-7.22,3.01-12.34,4.03-25.15,3.07-37.85-.84-11.19-5.66-20.88-11.61-30.27-2.77-4.39-5.9-8.61-9.63-12.28s-8-6.26-12.1-9.39c-3.79-2.89-7.7-5.54-11.92-7.76s-8.79-3.55-13.12-5.48c-3.61-1.62-7.46-2.71-11.37-3.37s-6.98-.3-10.53-.48c-7.7-.42-15.77-.12-23.05,2.47-2.17.78-4.39,1.56-6.56,2.35-3.49,1.26-6.86,2.77-10.29,4.27-2.41,1.02-4.75,2.05-6.98,3.43-3.67,2.23-6.8,5.3-9.15,8.97-6.62,10.41-19.92,18.35-24.37,29.85v-.24Z"/>
    </g>
    <path class="cls-2" d="M255.35,350.87c-2.82.5-5.61,1.24-8.3,2.21-3.36,1.21-6.4,3.24-9.07,5.6-.82.72-1.35,1.47-1.88,2.4-2.39,4.22-5.52,7.82-6.93,12.59.16.03.32.05.48.08-2.1,4.77-2.95,10.06-2.39,15.23.02.14.04.3.15.39s.32.07.34-.08c2.93-2.05,5.95-3.9,9-5.78.67-.41,1.37-.85,1.7-1.56.38-.81.19-1.77-.12-2.61s-.75-1.65-.83-2.54.1-2.09.18-2.95c.25-2.49.57-5.17,2.24-7.03,2.51-2.8,4.09-6.43,7.02-8.8s5.58-4.72,8.43-7.18Z"/>
    <path class="cls-1" d="M224.21,395.78l-1.01,2.56c-1.06,2.67-2.24,6.21-1.62,9.12.74,3.45,2.55,6.85,4.67,9.64.13.17.27.35.47.41.4.13.78-.22,1.06-.53.86-.98,1.77-2.05,1.88-3.35.09-.97-.27-2.06.28-2.87.56-.83,1.76-.89,2.55-1.5,1.42-1.1,2.64-2.62,3.94-3.87s2.47-2.74,2.84-4.5c.25-1.18.13-2.43.57-3.55.88-2.22,2.35-4.17,3.54-6.24.47-.81.95-1.64,1.64-2.28.14-.64.71-1.33,1.24-1.71s1.13-.68,1.63-1.1c.9-.77,1.41-1.9,1.89-2.98.78-1.76,1.55-3.52,2.33-5.28.33-.75.44-1.58.7-2.36.92-2.71.85-5.87,1-8.71-1.39,1.42-1.29,3.92-2.85,5.15-3.27,2.58-5.98,5.86-9.62,7.89-3.34,1.86-6.41,4.73-9.58,6.87-3.37,2.27-6.07,5.44-7.57,9.21Z"/>
    <path class="cls-64" d="M234.53,410.49l3.41,2.95c.91.78,1.83,1.58,2.9,2.12.64.33,1.33.56,1.96.9,1.51.82,2.64,2.25,3.34,3.83s.99,3.3,1.14,5.02c.02.25.01.55-.2.68-.11.06-.23.06-.36.06-3.16-.04-6.32-.07-9.49-.11-3,.25-6.14-.48-8.59-2.24-.72-.52-1.42-1.15-1.71-1.99-.34-.98-.07-2.07.37-3s1.04-1.79,1.42-2.76c.43-1.1,1.38-1.84,2.16-2.74.41-.47.72-1.03,1.15-1.49.71-.76,1.47-1.24,2.51-1.25Z"/>
    <path class="cls-63" d="M248.58,415.68c-1.29-.07-2.6-.14-3.83.24-.28-.11-.57.21-.62.5s.08.59.2.87c.66,1.42,1.35,2.83,2.08,4.22.08.15.19.32.36.33.22,0,.33-.25.39-.45.53-1.83.89-3.88,1.42-5.71Z"/>
    <path class="cls-59" d="M255.98,409.36c-1.65.38-2.98,1.56-4.17,2.76-.49.5-.97,1.01-1.44,1.53-2.29,2.55-2.64,6.33-2.96,9.74-.07.75-.09,1.55.31,2.18.54.83,1.68,1.07,2.64.83s1.77-.85,2.55-1.45c.92-.7,1.9-1.35,2.65-2.21.8-.91,1.41-1.91,2.1-2.91,2.2-3.2,5.38-5.58,8.5-7.88.3-.22.35-.61.21-.95s-.42-.6-.65-.89c-.74-.95-.95-2.24-.81-3.43.12-1.01.46-1.99.43-3,0-.25-2.21.77-2.44.91-1.23.78-2.05,2-3.23,2.78s-2.3,1.67-3.68,1.99Z"/>
    <path class="cls-57" d="M272.23,400.18c-1.06-.51-2.29-.66-3.45-.42-1.44.29-1.52,1.81-2.25,2.95-.35.55-.75,1.07-.98,1.69-.25.71-.25,1.47-.24,2.22.02,1.24.05,2.52.6,3.63.5,1,1.37,1.75,2.25,2.44.2.15.41.31.66.35.35.05.7-.16.92-.44s.34-.63.46-.96c.71-1.89,1.83-3.62,3.27-5.03.52-.52,1.1-1,1.51-1.61s.64-1.4.39-2.09c-.5-1.43-1.87-2.1-3.15-2.71Z"/>
    <path class="cls-60" d="M280.76,388.81c-2.75,1.45-4.31,5.57-3.43,8.51.09.29.19.58.16.87-.06.5-.48.85-.83,1.21-1.12,1.19-1.5,3.02-.96,4.56.74-.18,1.35-.69,2.03-1.05,1.66-.88,3.81-.76,5.36.3.96-1.84,1.94-3.73,2.15-5.79.06-.55.05-1.15-.23-1.63s-.91-.8-1.42-.56c-.48.23-.78.89-1.31.84-.28-.03-.5-.26-.67-.49-1.44-1.93-1.77-4.63-.83-6.85"/>
    <path class="cls-58" d="M294.37,391.5c.07.82.04,1.72-.48,2.35-.57.7-1.58.89-2.48.86-.35,0-.73-.03-1,.19-.3.24-.33.67-.34,1.06-.02,1.9.14,3.8.49,5.67.08.42.18.86.5,1.15.43.39,1.11.32,1.65.09s1-.61,1.55-.8c1.16-.42,2.43.02,3.55.54.31.14.68.29.96.09.15-.11.23-.3.28-.48.35-1.18.24-2.49-.29-3.61-.32-.66-.78-1.27-.87-2-.06-.46.04-.92.12-1.38.25-1.5.22-3.1-.41-4.49-.35-.76-.95-1.66-1.71-2.05-.81-.42-1.84-.42-2.73-.82.55,1.22,1.1,2.28,1.23,3.64Z"/>
    <path class="cls-62" d="M289.12,397.62c-.88-.13-1.75-.58-2.61-.34-.91.26-1.43,1.2-1.76,2.09-.42,1.14-.7,2.33-.81,3.54-.05.51-.06,1.07.24,1.48.25.34.65.52,1.05.66,1.01.35,2.09.53,3.15.37s2.08-.66,2.75-1.49c.04-.64-.29-1.26-.54-1.85-.44-1.05-.71-2.17-.8-3.3-.04-.44-.34-.86-.67-1.16Z"/>
    <path class="cls-61" d="M304.51,398.13c-.93-.07-1.84.32-2.57.9s-1.3,1.32-1.86,2.06c-.31.41-.64.87-.61,1.38.02.34.2.64.38.92,1.48,2.39,3.87,4.07,4.9,6.8.12.32.23.65.43.92s.54.48.88.42c.18-.03.34-.13.49-.23,1.54-1.04,2.7-2.64,3.21-4.44s.36-3.76-.41-5.46c-.32-.71-.67-1.27-1.16-1.87-.48-.58-.98-1.18-1.68-1.48-.63-.26-1.33.12-2.01.07Z"/>
    <path class="cls-23" d="M315.01,403.39c-.75-.05-1.41-.49-2.06-.86-.88-.5-1.82-.91-2.79-1.22.08,1.15.14,2.3.22,3.46.07.98.12,2.04-.45,2.84-.21.29-.5.53-.71.83s-.33.7-.16,1.02c.17.34.59.46.95.58,1.56.51,2.95,1.52,3.92,2.84,1.38.57,2.4,1.89,3.41,2.98,1.96,2.11,4.18,3.98,6.6,5.56.45.3.92.58,1.45.71.9.21,1.83-.1,2.69-.41.27-.1.55-.2.73-.42.27-.33.24-.8.18-1.22-.38-2.89-1.26-5.72-2.6-8.31s-3.87-4.21-6.39-5.66c-1.78-1.03-2.95-2.57-5.01-2.71Z"/>
    <path class="cls-19" d="M330.84,411.78c-1.09-.3-2.21-.5-3.34-.61-.22-.02-.44.02-.65.1-.16.45,0,.95.24,1.35s.57.76.8,1.17c.2.35.32.73.51,1.08.08.14.2.28.35.26.1-.01.18-.1.24-.17.79-.94,1.21-2.12,1.84-3.18Z"/>
    <path class="cls-14" d="M344.78,407.57c-.88-.7-1.78-1.38-2.68-2.06-.41-.3-.83-.61-1.31-.77-.71-.24-1.52-.14-2.14.26-.34.22-.63.52-.91.82-.38.4-.76.81-1.14,1.21-.31.33-.63.68-.82,1.09-2.42,1.22-3.88,3.65-5.93,5.43-.7.61-1.55,1.31-1.44,2.23.04.36.23.69.37,1.02.43,1.07.32,2.27.37,3.42,0,.2.03.41.15.57.25.33.76.24,1.16.13,3.29-.93,6.73-1.37,10.15-1.3,2.29.05,4.54-.68,5.97-2.47s1.79-4.42.73-6.46c-.59-1.12-1.52-2.35-2.52-3.14Z"/>
    <path class="cls-22" d="M333,393.72c.58,1.15,1.51,2.07,2.42,2.97,2.49,2.47,4.99,4.93,7.48,7.4.8.79.99,1.9,1.45,2.88.52,1.12,1.54,1.71,2.3,2.64.19.24.4.48.67.61.09.05.2.08.3.06.31-.06.37-.5.62-.7,2.86-2.24,3.65-6.69,3.22-10.3-.19-1.58-.63-3.08-1.21-4.56-1.01-2.61-2.04-5.24-3.56-7.6-.7-1.09-1.69-1.89-2.18-3.09-.74-1.81-.68-3.83-.61-5.78.18-5.15-2.57-9.99-5.23-14.41-2-3.33-4.51-6.07-7.57-8.45-1.02-.79-2.04-1.7-3.28-2.08-1.46-.45-2.85-1.09-4.25-1.7-1.11-.48-2.23-.96-3.37-1.37-2.03-.73-4.14-1.24-6.28-1.51,3.4,2.08,6.75,4.27,9.74,6.89s5.63,5.73,7.36,9.31c1.48,3.06,1.51,7.05,1.26,10.39,0,.13-.02.27-.08.38-.12.23-.42.32-.67.29s-.49-.17-.72-.3c-1.75-1-3.55-1.88-5.41-2.66-1.08-.45-1.82-1.46-2.83-2.05-.46-.27-.9-.28-1.34-.58-2.19-1.46-4.04-3.42-5.4-5.67-.18,1.03.07,2.09.36,3.1.58,2.08,1.29,4.13,2.13,6.12,1.46,3.48,3.95,5.67,6.47,8.48,2.53,2.83,5.47,5.46,6.91,8.97.37.89.85,1.44,1.28,2.3Z"/>
    <path class="cls-18" d="M275.51,404.67c-.73.91-1.59,1.61-2.3,2.54-.77,1-1.41,2.09-1.95,3.22-1.09,2.27-1.8,4.7-2.5,7.11-1.24,4.29-1.35,8.94-.47,13.32-.2.57.19,1.22.7,1.54s1.13.39,1.73.45c1.78.15,3.57.17,5.35.06,3.86-.24,7.4-1.62,10.48-3.95.61-.46,1.47-.54,2.01-1.09.18-.18.4-.4.65-.34.13.03.23.12.33.22.37.37.72.75,1.06,1.15,1.03-.02,2.01.87,2.99,1.2,2.71.92,5.52,1.5,8.37,1.74,1.63.13,3.19-.41,4.77-.81.29-.07.59-.16.81-.37.21-.21.3-.5.38-.79.51-1.79.93-3.61,1.25-5.45.58-3.31-1.16-6.6-2.18-9.8-.28-.89-.45-1.81-.81-2.67-.79-1.85-1.61-3.75-3.03-5.16-.61-.61-1.32-1.11-2.03-1.6-.96-.66-1.92-1.3-2.91-1.91-1.15-.7-2.51-1.37-3.78-.93-1.05.37-2.25.92-3.14,1.58-.48.36-.94.75-1.47,1.03-1.04.55-2.3.58-3.44.27s-2.17-.93-3.11-1.63c-1.14-.85-2.84-1.29-4.25-1.16s-2.61,1.13-3.49,2.24Z"/>
    <path class="cls-15" d="M280.03,445.92c-1.73.16-3.24,1.23-4.95,1.54-.6.11-1.16.09-1.75.07-.7-.02-1.38.19-2.08.23s-1.48-.12-1.94-.66c-.76-.2-1.07-1.12-1.29-1.87-.52-1.76-.9-3.59-.74-5.41.09-1.07.37-2.11.64-3.15.16-.59.31-1.18.47-1.77.12-.44-.06-.93.02-1.38.04-.22.1-.46.27-.61.19-.16.47-.16.73-.15.5.02,1,.04,1.5.06,4.82.19,9.54.26,13.77-2.06,1.64-.9,2.94-2.29,4.15-3.72.81.82,1.63,1.64,2.44,2.46,1.1,1.11,3.01,1,4.52,1.38,3.86.97,7.97,1.52,11.81.47.65,1.25,1.41,2.63,2.06,3.88.39.74.78,1.49.98,2.3.18.73.2,1.49.22,2.24.04,1.32.07,2.65-.24,3.93-.21.87-.64,1.76-1.43,2.18-.44.23-.95.29-1.45.33-1.1.07-2.21.04-3.3-.11-2.56.29-4.99-.87-7.48-1.53-2.72-.72-5.61-.61-8.35-1.26-1.03-.24-2.46.36-3.42.8-1.78.8-3.21,1.64-5.16,1.82Z"/>
    <path class="cls-17" d="M269.29,450.83c-.5,3.04-1,6.14-.6,9.2.12.92.36,1.89,1.04,2.52.32.29.71.49,1.12.62,1.46.47,3.04.15,4.54-.17,2.65-.57,5.31-1.15,7.8-2.21,1.95-.83,3.5-1.76,5.6-2.01s4.22-.15,6.34-.05,4.32,1.07,6.3,1.85c1.47.58,3.03.93,4.6,1.04.78.06,1.6.04,2.27-.35.56-.33.96-.88,1.29-1.44.66-1.12,1.13-2.34,1.41-3.61.38-1.72,0-3.49-.65-5.09-.33-.8-.87-1.54-1.16-2.34-.23-.65-.33-1.27-.66-1.9-.1-.18-.21-.37-.41-.44-.11-.04-.24-.03-.35-.02-.84.06-1.76.26-2.58,0-.72-.22-1.4-.58-2.14-.79-1.85-.52-4.07-.29-5.9-.9-1.05-.35-2.08-.79-3.16-1.04-1.66-.39-3.39-.33-5.1-.27-5.35.2-10.26,4.35-15.61,4.08-.63-.03-1.26.04-1.89.04-.18,0-.36,0-.52.07-.29.13-.43.45-.54.74-.38.97-.89,1.44-1.06,2.47Z"/>
    <path class="cls-21" d="M271.97,464.53c-.41,1.98-.77,3.98-.78,6s.38,4.08,1.38,5.83c.24.42.53.84.95,1.07.53.29,1.18.26,1.77.13,1.01-.22,1.94-.7,2.9-1.08,1.02-.4,2.08-.69,3.16-.87,1.2-.19,2.11-.46,3.23-.94,2.91-1.24,6.11-1.99,9.24-1.55,1.23.17,2.31.33,3.49.74,2.72.95,5.61,1.4,8.48,1.32.76-.02,1.54-.09,2.24-.4.94-.42,1.64-1.24,2.17-2.12s.93-1.95.84-2.98c-.08-.92-.63-1.71-1.09-2.51-.92-1.59-1.53-3.37-1.78-5.19-1.86.32-3.76-.44-5.48-1.21s-3.43-1.69-5.3-1.91c-.53-.06-1.12-.1-1.46-.5-3.58-1.05-7.02.43-10.62,1.38-1.2.31-2.4.63-3.54,1.1-2.21.92-4.61,1.81-7,2.02-.69.06-1.4.09-2.02.39s-.64.59-.78,1.27Z"/>
    <path class="cls-16" d="M274.19,480.36c-.23,1.13-.37,2.27-.42,3.42-.06,1.37.01,2.78.57,4.04s1.68,2.33,3.04,2.51c1.46.19,2.83-.62,4.18-1.18,1-.41,2.04-.7,3.11-.89,2.93-.54,5.97-1.46,8.91-1.92,3.56-.56,7.29.62,10.67,1.86,1.5.55,3.33.33,4.7-.49,1.07-.64,1.78-1.84,1.84-3.08.07-1.58-.83-3.06-.98-4.64-.13-1.38-.7-2.68-1.12-4-.08-.25-.16-.5-.34-.69-.4-.44-1.08-.39-1.67-.32-1.96.22-3.95.27-5.92.16-.33-.02-.77-.15-.75-.49-.95.02-1.15-.03-1.97-.5-1.36-.77-2.84-1.36-4.39-1.52s-3.18.15-4.47,1.03c-1.01,0-1.68.24-2.65.52-2.82.83-5.63,1.66-8.45,2.5-1.07.31-2.43.37-3.45.81-.25.11-.51.25-.62.49-.07.17-.06.36-.05.54.04.65.36,1.21.23,1.84Z"/>
    <path class="cls-20" d="M278.16,493.72c-.24,1.76.02,3.59.73,5.22.11.25.24.5.43.69.23.22.54.33.84.4,1.21.29,2.48.02,3.65-.39,1.05-.38,2.06-.87,3.06-1.37,3.09-1.53,6.93-1.15,10.38-1.35,1.95-.11,3.75.68,5.58,1.2,1.56.44,2.93.42,3.73-1.25.44-.92.23-1.63.02-2.54-.25-1.09-.41-1.99-.95-3.01-.41-.78-.68-1.57-1.01-2.38-.3-.72-.96-.77-1.7-1.03-2.85-1.01-5.86-1.55-8.88-1.62-1.42-.03-2.7.41-4.09.72l-4.76,1.08c-.85.19-1.7.38-2.53.64-.78.23-1.57.54-2.1,1.16-.29,0-.5.17-.76.31-.33.18-.67.37-.94.63-.63.6-.85,1.52-1.03,2.37-.1.47-.2.95-.13,1.42l.44-.9Z"/>
    <path class="cls-10" d="M280.42,504.9c-.03.79-.06,1.59.17,2.35s.77,1.46,1.52,1.68c.65.19,1.34,0,1.99-.21.99-.3,1.97-.62,2.95-.95,2.13-.71,4.31-1.42,6.55-1.42,2.97,0,5.89.8,8.85.97.93.05,2.01-.02,2.55-.77.3-.41.37-.94.39-1.45.04-1.09-.13-2.2-.48-3.23-.41-1.2-.68-2.5-1.7-3.27s-2.27-1.12-3.52-1.35c-2.82-.52-5.74-.46-8.53.17-1.63.37-3.22.93-4.88,1.08-.6.05-1.23.25-1.79.48-.63.26-1.26.52-1.89.78-.42.17-.85.35-1.16.69-.18.2-.31.44-.42.69-.56,1.21-.54,2.44-.59,3.77Z"/>
    <path class="cls-6" d="M285.26,510.29c.04.13.08.28.13.45.57,2.12,1.01,4.16,1.95,6.16.65,1.38,1.46,2.73,2.65,3.69s2.82,1.47,4.28,1.03c.63-.19,1.19-.54,1.78-.83,1.81-.87,3.84-1.12,5.83-1.36.87-.1,1.64-.8,1.93-1.62s.21-1.74.09-2.61c-.15-1.09-.78-1.98-.97-3.05-.22-1.27-.67-2.46-1.25-3.61-.24-.48-.53-.97-.98-1.27-.33-.22-.72-.32-1.1-.41-1.87-.46-4.46-1.39-6.37-1.04-2,.37-4.05.57-6.01,1.14-1.01.29-1.35.8-1.82,1.68-.4.75-.34,1.03-.16,1.64Z"/>
    <path class="cls-7" d="M295.94,527.15c1.37,2.36,2.77,4.76,4.79,6.6.66.6,1.41,1.14,2.28,1.35s1.88,0,2.45-.68c.88-1.05.54-2.91,1.69-3.67.37-.25.82-.32,1.26-.38,1.08-.16,2.16-.31,3.23-.47.51-.41,1-.98,1.31-1.55s.43-1.28.16-1.87c-.23-.52-.72-.87-1.18-1.21-2.35-1.72-4.58-3.61-6.67-5.63-.4-.39-.81-.79-1.34-.97-.4-.14-.83-.13-1.25-.07-.7.1-1.38.33-2.04.57-2.03.71-4.05,1.42-6.08,2.12-.22.08-.45.16-.56.36-.11.2-.07.44-.02.66.62,2.88,1.91,5.62,3.76,7.92"/>
    <path class="cls-4" d="M307.07,538.59c.65,1.69,1.52,3.32,2.77,4.63s2.92,2.27,4.72,2.45c.49.05,1.01.03,1.43-.24.58-.37.77-1.1,1.05-1.73.64-1.4,1.96-2.47,3.46-2.81,1.27-.28,2.2-1.53,2.09-2.82s-.96-2.39-1.83-3.35c-1.69-1.83-3.64-3.42-5.78-4.7-.57-.34-1.17-.67-1.83-.76-.79-.11-1.58.11-2.35.34-.96.28-1.93.57-2.89.85-.34.1-.69.21-.95.45-.26.25-.39.6-.51.94-.24.68-.48,1.37-.72,2.05-.15.44-.31.88-.29,1.34.02.46.21.9.41,1.31.39.81.89,1.2,1.21,2.03Z"/>
    <path class="cls-5" d="M317.6,558.62c.79.91,1.86,1.7,3.07,1.68.7-.01,1.36-.29,2.02-.53,1.28-.47,2.62-.78,3.98-.95.39-.05.78-.08,1.16-.21.58-.19,1.07-.6,1.48-1.05,1.07-1.17,1.71-2.73,1.76-4.31.08-2.33-.77-4.56-1.98-6.56s-2.79-3.74-4.39-5.44c-.32-.34-.65-.68-1.08-.85-.33-.13-.7-.15-1.05-.16-1.1-.02-2.28.08-3.16.74-.49.37-.86.88-1.21,1.38-.55.79-1.01,1.87-1.67,2.55s-1.15.72-1.16,1.91c-.02,2.13.06,4.27.15,6.38.08,1.97.81,3.92,2.1,5.41Z"/>
    <path class="cls-12" d="M319.06,572.52c.22.48.49.94.88,1.29.67.58,1.6.73,2.48.85.88.12,1.77.25,2.65.37.57.08,1.21.2,1.54.68.12.18.19.41.37.54.25.18.62.09.84-.12s.33-.52.43-.81c.45-1.4.77-2.83.96-4.29.34-2.64,1.72-5.07,1.78-7.73.05-1.92-.43-3.93-1.29-5.65-.02-.04-.04-.08-.07-.1-.12-.09-.28.04-.38.16-.92,1.11-1.54.73-2.82,1.06-1.16.29-2.21.92-3.36,1.24-.61.17-1.25.26-1.84.49s-1.15.65-1.35,1.25c-.12.34-.11.72-.13,1.08-.12,1.66-1.19,3.07-1.41,4.74s0,3.41.71,4.95Z"/>
    <path class="cls-9" d="M312.72,577.93c-.92.56-1.78,1.27-2.29,2.22s-.63,2.15-.09,3.08c.28.47.7.84,1.09,1.22,1.27,1.22,2.35,2.64,3.19,4.19.12.22.25.46.46.6.15.1.33.13.51.16,1.71.24,3.45-.52,4.74-1.67s2.19-2.68,2.99-4.21,1.52-3.12,2.55-4.52c.5-.68.74-1.53.85-2.36.03-.25.05-.52-.06-.75-.2-.42-.73-.56-1.2-.64-1.54-.28-3.08-.55-4.62-.83-.55-.1-1.12-.2-1.68-.11-.62.1-1.18.44-1.72.77-1.63.99-3.1,1.85-4.73,2.85Z"/>
    <path class="cls-11" d="M308.37,583.19c-4.39.38-8.79.76-13.18,1.15-.64.06-1.3.12-1.89.38-.75.33-1.33.94-1.9,1.53-.39.41-.81.87-.88,1.43-.11.89.65,1.61,1.03,2.42.49,1.05.31,2.38-.44,3.26-.41.12-.47.84-.28,1.23s.58.62.95.84c.55.32,1.11.64,1.72.84.79.25,1.63.29,2.45.32,4.7.15,9.72,0,13.6-2.66,1.67-1.14,2.99-2.44,4.56-3.7.35-.28.7-.57.93-.95.37-.62.35-1.43.09-2.1s-.74-1.25-1.25-1.77c-1.54-1.57-3.34-2.39-5.53-2.2Z"/>
    <path class="cls-8" d="M285.7,584.41c-1.33-2.03-3.56-3.44-5.96-3.77-.49-.07-1.01-.08-1.43.18-.61.39-.75,1.2-1.13,1.82-.55.89-1.67,1.4-1.98,2.4-.18.57-.05,1.2.17,1.76,1.05,2.79,3.84,4.48,6.47,5.87,2.24,1.19,4.75,2.37,7.23,1.83.96-.21,2.01-.47,2.43-1.36s.3-1.97-.1-2.87-1.06-1.66-1.74-2.38c-1.28-1.35-2.95-1.92-3.97-3.48Z"/>
    <path class="cls-13" d="M274.07,570.02c-.49-.17-1.02.03-1.46.3s-.82.63-1.3.82c-.85.33-1.89.09-2.67.57-1,.61-1.06,2.06-.74,3.19.46,1.62,1.43,3.03,2.38,4.42.76,1.11,1.52,2.22,2.29,3.32.42.61.81,1.22,1.22,1.84.14.22.3.45.53.56.48.24,1.05-.08,1.44-.46,1.08-1.03,1.69-2.45,2.27-3.82.37-.87.74-1.78.64-2.71-.09-.8-.52-1.52-.94-2.22-1.19-1.96-2.33-3.95-3.64-5.83Z"/>
    <path class="cls-46" d="M272.85,558.92c-1.93.21-3.79-.65-5.66-1.19-.11-.03-.22-.06-.33-.02-.13.05-.2.18-.25.3-.86,1.87-.76,4.03-.63,6.08.13,2.09.31,4.33,1.62,5.96-.03.75.9,1.32,1.64,1.42s1.49-.2,2.15-.55,1.32-.76,2.05-.92c.25-.06.51-.08.72-.22.23-.15.37-.4.49-.65,1.52-3.07,2.09-6.6,1.62-10-.02-.11-.04-.23-.12-.32-.1-.11-.26-.12-.41-.12-.92-.01-1.98.12-2.89.22Z"/>
    <path class="cls-48" d="M266.42,544.71c-1.42,2.64-1.79,5.79-1.24,8.73.19,1.01.2,2.02.53,3,.17.5.42,1.04.91,1.22.33.12.7.05,1.06.05.72,0,1.39.3,2.07.53,5.28,1.77,11.89-1.12,13.01-6.85.21-1.05.29-2.02.61-3.04.22-.71.17-1.47.22-2.21s.24-1.53.81-2.01c2.9-2.4,4.73-6.71,5.5-10.33.08-.37.15-.75.06-1.12-.11-.47-.44-.84-.8-1.16-1.21-1.1-2.78-1.8-4.4-1.98.18,1.16.9,2.17,1.15,3.32.41,1.85-.6,3.92-2.31,4.74-1.83.88-4,.35-6.01.67-4.46.71-8.9,2.21-11.18,6.43Z"/>
    <path class="cls-49" d="M256.79,451.07c.18.37.43.77.84.86.33.07.67-.09.95-.28,1.08-.76,1.63-2.04,2.34-3.16,1.84-2.91,4.95-4.98,6.25-8.17.92-2.25,1.57-4.9,1.5-7.32-.08-2.6-1.69-5.05-1.42-7.64-.04.43-1.28,1.19-1.63,1.42-.64.42-1.22.84-1.79,1.37-1.18,1.08-2.25,2.28-3.19,3.57-1.98,2.72-3.23,5.81-4.16,9.01s-1.13,7.32.32,10.34Z"/>
    <path class="cls-51" d="M235.26,448.69c.71.58,1.47,1.12,2.29,1.56,1.59.84,3.37,1.26,5.13,1.64,3.08.66,6.19,1.23,9.31,1.71.18.03.38.05.55-.02.27-.12.36-.45.37-.75.02-.86-.46-1.65-.92-2.37-.54-.86-1.1-1.72-1.85-2.4-.86-.78-1.95-1.27-3.05-1.63-3.37-1.1-7.13-1.05-10.42.28-.05.02-2.47-2.89-2.73-3.15-1.02-1.02-2.12-1.96-3.29-2.82-.32-.24-1.19-1.11-1.51-.68-.28.36.48,1.48.65,1.82.63,1.23,1.37,2.4,2.23,3.49.96,1.23,2.06,2.35,3.26,3.34Z"/>
    <path class="cls-44" d="M255.46,447.83c-1.06-.08-2.14.07-3.15.44-.43.16-.53.69-.45,1.14.11.66.47,1.26.82,1.83.3.49.6.99.9,1.48.08.13.16.27.3.35.11.06.23.08.35.09.88.08,1.77-.04,2.59-.35.08-.03.16-.07.22-.14.06-.08.07-.19.06-.29-.05-.73-.52-1.35-.85-2-.39-.79-.83-1.67-.78-2.55Z"/>
    <path class="cls-45" d="M268.18,446.11c-2.72,1.83-5.17,4.09-6.96,6.84s-2.87,5.99-2.8,9.26c.06,2.48.8,4.93.81,7.41,0,.06.01.14.07.16s.08-.11.02-.09c2.28-1.62,4.05-3.21,5.57-5.55.66-1.02,1.25-2.1,2.05-3,.41-.46.88-.88,1.19-1.42.34-.58.48-1.26.62-1.92.43-2.12.86-4.25,1.29-6.37.22-1.09.06-2.24.09-3.35,0-.19,0-.39-.06-.57-.07-.18-.22-.33-.36-.46-.53-.48-.89-.63-1.53-.94Z"/>
    <path class="cls-50" d="M253.28,469.66c-.07.08-.13.17-.14.27-.03.27.3.43.56.51.88.27,1.73.67,2.51,1.16.15.1.3.2.48.21.1,0,.21-.02.3-.05.92-.3,1.56-1.21,1.71-2.16.12-.75-.02-1.65-.4-2.31-.5-.87-1.03-.71-1.91-.27-1.12.56-2.34,1.68-3.11,2.65Z"/>
    <path class="cls-3" d="M259.3,469.14c.03.06.06.12.11.15.17.09.31-.16.33-.35.07-.6.06-5.25-1.07-4.93-.44.13-.14,1.97-.09,2.37.11.95.32,1.89.72,2.76Z"/>
    <path class="cls-53" d="M256.9,471.44c-1.3-.25-2.56-.69-3.86-.95s-2.69-.32-3.92.16c-.63.25-1.19.62-1.75,1-.81.54-1.62,1.09-2.42,1.63-1.26.85-1.57,2.6-2.25,3.97-.12.24-.24.53-.11.77.08.16.24.25.4.33,1.1.53,2.42.57,3.55.1.78-.33,1.44-.87,2.18-1.29.61-.34,1.26-.6,1.88-.92,1.02-.52,1.94-1.2,2.86-1.87,1.12-.82,2.34-2.12,3.46-2.94Z"/>
    <path class="cls-47" d="M240.5,473.5c-2.94.18-5.85,1-8.46,2.37,1.48.43,3.06.23,4.59.39,1.67.18,3.26.79,4.86,1.33.15.05.3.1.45.07.17-.03.31-.15.43-.27.8-.8,1.11-1.95,1.39-3.05-1.37-.28-2.75-.57-4.12-.85"/>
    <path class="cls-52" d="M269.22,461.25c-.87.85-1.25,1.94-1.94,2.9s-1.39,1.73-1.94,2.74c-.89,1.64-1.34,3.42-2.02,5.13-.72,1.82-.89,3.84-.65,5.78.31,2.37,1.22,4.64,2.41,6.72.45-.83,1.17-1.43,1.77-2.17,1.02-1.26,1.35-2.92,2-4.4.57-1.3,1.39-2.47,2.04-3.72s1.14-2.66.97-4.07c-.26-2.11.86-4.26.56-6.36-.05-.36-.13-.72-.33-1.02-.69-1.06-2.18-.47-2.87-1.53Z"/>
    <path class="cls-43" d="M259.85,485.68c-.07.21-.1.5.09.61.05.03.11.04.16.05.56.12,1.12.25,1.68.37.44.1.9.19,1.33.06.81-.24,1.2-1.23,1.1-2.07s-.56-1.59-.95-2.35c-.13-.27-.3-.57-.6-.61-.32-.05-.57.24-.77.49-.81,1.07-1.62,2.14-2.04,3.44Z"/>
    <path class="cls-42" d="M252.12,489.86c-2.34,1.5-3.64,4.46-3.17,7.2,2.25-.2,4.35-1.25,6.21-2.54s3.54-2.82,5.37-4.15c.64-.47,1.03-1.18,1.64-1.69s1.15-1.28.94-2.04c-1.45.06-2.9.13-4.35.19-1.29.06-2.61.12-3.84.51s-2.2,1.37-2.79,2.52Z"/>
    <path class="cls-41" d="M237.75,496.49c-.46.32-.96.76-.91,1.32,3.55-.88,7.26-1.17,10.91-.85.18.02.38.03.52-.08.1-.08.15-.2.2-.32.29-.77.42-1.6.38-2.43-.01-.3-2.66-.44-2.95-.44-.9,0-1.81.09-2.69.3-1.94.48-3.81,1.38-5.46,2.5Z"/>
    <path class="cls-40" d="M273.82,481.13c-1.78,1-3.59,2.01-5.05,3.43-2.61,2.55-3.9,6.38-3.37,9.98.63,4.27,2.21,8.16,4.13,12.03.14.29.34.61.66.62.56-.77.54-1.79.56-2.74.05-3.07.67-6.09,1.28-9.1.51-2.5,1.05-5.07,2.5-7.17-.13-2.35-.53-4.72-.71-7.06Z"/>
    <path class="cls-37" d="M269.71,508.99c.17-.1.34-.24.36-.43.02-.15-.06-.3-.14-.43-.37-.62-1.93-3.84-2.61-3.76-.62.07-1.46,1.75-1.62,2.3-.18.62-.58,2.64-.08,2.98.36.25,1.72.02,2.15-.04.68-.08,1.36-.26,1.95-.62Z"/>
    <path class="cls-36" d="M258.78,511.56c-2.16.89-3.45,3.08-4.58,5.13-.92,1.66-1.87,3.49-1.53,5.35.02.11.05.22.13.29.07.05.16.07.24.08,1.76.2,3.46-.65,5.03-1.47,2.5-1.31,5.13-2.75,6.53-5.21s4.07-4.01,4.82-6.72c-1.97.14-3.93.45-5.89.76-1.81.29-3.05,1.09-4.75,1.8Z"/>
    <path class="cls-35" d="M241.8,528.43c3-2.17,6.36-3.79,9.74-5.31.21-.09.42-.19.57-.36.12-.13.19-.31.26-.47.33-.88.53-1.81.58-2.75.03-.59-3.49.63-3.78.79-1.02.56-2.05,1.16-2.96,1.88-2.03,1.59-3.59,3.77-4.4,6.22Z"/>
    <path class="cls-34" d="M308.93,423.34c1.03.04,1.88.79,2.63,1.51,1.94,1.85,3.84,3.74,5.71,5.67,1.73,1.78,3.47,3.67,4.25,6.03.68,2.08.55,4.34,1.13,6.45.46,1.68-.02,3.46-.36,5.17-.82-.65-1.88-.92-2.83-1.36-2.12-.98-3.7-2.8-5.22-4.57-2.38-2.76-4.8-5.6-6.09-9.01-1.22-3.22.11-6.51.78-9.89Z"/>
    <path class="cls-38" d="M326.2,443.49c.26.13.5.31.63.57.09.18.11.39.1.59-.03.83-.45,1.59-.9,2.29-.41.63-.87,1.27-1.55,1.6s-1.62.21-2.01-.43c-.2-.33-.23-.74-.24-1.13-.03-.7-.06-1.4.05-2.1.12-.69.36-1.63,1.12-1.75.88-.14,2-.03,2.79.37Z"/>
    <path class="cls-39" d="M341.24,441.35c-1.9-.13-3.78-.51-5.68-.43-1.97.08-3.91.65-5.61,1.65-.34,0-.6.24-.85.46-.72.65-1.44,1.3-2.16,1.95-.19.18-.39.36-.51.59-.24.47-.2.9-.49,1.35-.3.47-.51,1.02-.61,1.57,1.8-.26,3.59-.63,5.35-1.09.63-.17,1.26-.34,1.9-.42.49-.06.98-.05,1.47-.08.99-.07,1.97-.29,2.9-.66,2.19-.88,4.31-1.92,6.25-3.26.11-.07.23-.18.21-.31-.02-.11-.13-.18-.23-.23-.74-.37-1.1-1.04-1.93-1.09Z"/>
    <path class="cls-33" d="M344.21,435.33c-1.12,1-2.08,2.23-2.56,3.65-.09.25-.16.52-.14.79.03.55.42,1.01.83,1.39.3.29.62.55.96.8.19.14.4.27.63.3.59.07,1-.54,1.26-1.07,1.06-2.17,1.98-4.41,2.75-6.7.4-1.19.28-1.92-.98-1.17-.97.58-1.91,1.26-2.74,2.01Z"/>
    <path class="cls-32" d="M310.35,443.97c2.79,1.08,5.2,3.02,7.11,5.33s3.34,4.98,4.52,7.73c.92,2.15.49,4.65.3,6.98-.03.34-.12.76-.45.85-.19.05-.39-.03-.57-.12-2.29-1.13-4.78-3.36-6.3-5.36s-4.07-3.45-5.05-5.97c-.27-.69-.4-1.42-.52-2.15-.26-1.49-.52-2.97-.78-4.46.48-1.08.98-1.92,1.74-2.83Z"/>
    <path class="cls-31" d="M323.73,466.65c-.17.07-.36.13-.54.11-.49-.04-.76-.58-.88-1.05-.19-.75-.22-1.54-.09-2.31.07-.43.26-.92.67-1.06.28-.09.58,0,.86.1.6.21,1.19.45,1.77.72.43.2.87.42,1.2.77.93.99.15,1.15-.68,1.5s-1.5.9-2.31,1.23Z"/>
    <path class="cls-30" d="M338.4,470.11c.14.22.28.46.28.72,0,.21-.11.41-.23.58-.68.92-1.99,1.11-3.13,1.01-1.19-.11-2.35-.46-3.48-.84-2.63-.88-5.38-2.23-7.48-4.09-.1-.08-.2-.18-.21-.31-.02-.2.18-.34.36-.43,2.32-1.19,5.38-1.81,7.95-1.17,2.39.59,4.62,2.5,5.94,4.53Z"/>
    <path class="cls-26" d="M347.78,468.16c-1.31-.22-2.62-.39-3.94-.53-1.96-.2-4.14-.23-5.66,1.04-.24.2-.48.48-.44.8.02.21.16.38.29.54.43.53.95,1.11,1.63,1.13.4.01.78-.17,1.14-.34,1.71-.82,3.53-1.55,5.43-1.6.76-.02,1.53.06,2.27-.12.1-.02.21-.06.25-.16.06-.13-.06-.27-.17-.36-.46-.38-1.01-.66-1.59-.8"/>
    <path class="cls-25" d="M310.72,458.71c4.41,3.52,7.56,8.59,8.76,14.1.56,2.56-.09,5.26-.58,7.83-.04.22-.12.48-.33.54-.25.08-.48-.17-.64-.39-2.25-3.25-4.61-6.44-7.05-9.55-.33-.42-.67-.85-.89-1.33-.61-1.33-.3-2.9-.64-4.32-.2-.87-.66-1.68-.99-2.52-.23-.58-.46-1.24-.21-1.82.2-.46.65-.75,1.05-1.06.73-.56,1.08-.68,1.52-1.49Z"/>
    <path class="cls-24" d="M320.88,478.55c.78.81,1.52,1.75,1.6,2.87.02.25,0,.52-.15.73-.09.14-.22.24-.36.33-.62.38-1.43.47-2.1.19s-1.18-.94-1.24-1.67c-.1-1.16.85-2.18.96-3.34,0-.07.01-.15.07-.2.09-.07.22.01.3.1.56.55,1.07,1.15,1.53,1.79"/>
    <path class="cls-27" d="M326.68,482.43c2.16-.29,4.37.7,5.9,2.25s2.45,3.62,3.01,5.73c-.88.48-1.91.68-2.91.59-1.79-.17-3.34-1.25-5.03-1.85-.42-.15-.85-.27-1.22-.51s-.68-.64-.67-1.08c-.73-.37-1.38-.84-2.03-1.35-1.32-1.02-2.64-2.04-3.96-3.06,1.19-.67,2.62-.71,3.99-.74,1.13-.02,1.82.18,2.93.03Z"/>
    <path class="cls-28" d="M338.97,487.25c1.94.17,3.85.63,5.66,1.34.96.38,1.97.92,2.31,1.89-3.64.33-7.3.4-10.95.21-.1,0-.2-.01-.27-.08-.07-.07-.08-.18-.09-.29-.02-.6-.04-1.21-.07-1.81,0-.12,0-.24.06-.34.11-.16.34-.17.54-.16,1.27.05,2.56-.21,3.71-.76"/>
    <path class="cls-29" d="M309.88,486.58c1.2,1.01,1.64,2.63,2.03,4.14.97,3.79,1.93,7.58,2.9,11.37.15.59.3,1.19.48,1.78.82-1.13,1.23-2.5,1.61-3.84.85-2.95,1.71-5.95,1.71-9.02,0-4.56-3.11-8.84-6.86-11.44-.73-.5-1.55-.96-2.43-.92-.42,1.61.78,3.17,1.02,4.81.16,1.05-.18,2.1-.47,3.12Z"/>
    <path class="cls-54" d="M319.43,503.81c.02.09.04.19.02.29-.06.24-.37.31-.62.33-1.02.09-2.03.18-3.05.27-.02-.6.08-1.2.29-1.76.17-.44.4-.86.64-1.27.11-.19.53-1.21.73-1.25.35-.07.63.57.81.86.5.79.95,1.62,1.18,2.54Z"/>
    <path class="cls-55" d="M334.27,516.09c.08.31.15.68-.05.94-.17.22-.46.28-.73.33-1.24.23-2.53.45-3.73.09-.82-.25-1.54-.76-2.24-1.27-1.22-.88-2.45-1.76-3.67-2.64-.7-.51-1.16-1.32-1.78-1.93-1-.99-2.03-1.82-3.02-2.87-1.25-1.33-2.5-2.65-3.75-3.98,2.29-.34,4.62-.11,6.88.34,2.08.41,4.26.77,5.98,2.04,2.95,2.19,5.16,5.39,6.1,8.94Z"/>
    <path class="cls-56" d="M344.42,520.07c-2.73-1.34-5.69-2.2-8.71-2.53-.48-.05-.99-.11-1.34-.43-.3-.28-.42-.69-.53-1.09-.12-.45-.25-.91-.22-1.37.12-2.26,4.61-.1,5.71.49,2.11,1.13,3.91,2.84,5.1,4.92Z"/>
  </g>
  <g id="Layer_2" data-name="Layer 2">
    <path class="cls-65" d="M269.36,412.97c-1.75,0-2.96-1.12-2.96-1.12-4.65,2.25-8.83,9-12.42,12.66s-7.82,1.49-7.82,1.49c0,0-4.38-.63-10.26-.06s-7.89-3.16-7.89-3.16c-1.51-.86-.94-5.02-.94-5.02-12.12-12.16,0-27.65,0-27.65-.15-38.68,29.78-39.41,29.78-39.41,0,0-25.41,13.59-17.93,30.69,0,0,13.09-7.88,15.63-16.96,0,0-1.35,17.9-9.02,23.37,0,0-4.87,7.48-5.67,11.09s-3.67,6.42-6.34,8.81c-1.77,1.58-4.01,3.53-3.81,6.16,1.73-.54,2.24-3.18,4.03-3.45,1.1-.16,2.06.68,2.84,1.48,1.19,1.22,2.37,2.5,3.86,3.32.81.45,1.69.75,2.48,1.22,1.79,1.05,2.43,3.43,3.32,5.21.29.57.57,1.15.8,1.75.42,1.12.6,2.33.53,3.53"/>
    <path class="cls-65" d="M282.61,386.92s-7.38,3.76-5.24,11.36c0,0-3.1,2.73-1.84,5.68.05.12-2.06,2.37-2.29,2.67-.8,1.07-1.52,2.21-2.16,3.39-1.26,2.37-2.17,4.92-2.69,7.55-.96,4.87-1.06,10.18.32,14.98,0,0-3.19,9.93,0,14.24.87,1.17,2.49,1.26,3.82,1.14,1.99-.17,3.93-.79,5.81-1.41,2.04-.67,4.06-1.44,6.11-2.08,1.11-.35,2.2-.71,3.36-.87s2.41-.11,3.61,0c2.52.22,4.99.8,7.44,1.38.8.19,1.37.36,2.17.56,1.04.27,2.09.55,3.16.69,1.23.16,2.47.13,3.7-.01.44-.05.88-.11,1.27-.31s.73-.54.81-.97c.64-3.38.92-6.87-.3-10.08-.39-1.01-.79-1.91-1.35-2.84-.18-.29-.36-.58-.45-.91-.22-.8.18-1.63.56-2.36.33-.63.08-1.06.19-1.77.15-.96.29-1.93.33-2.9.03-.94-.03-1.88-.2-2.81-.61-3.34-1.6-6.65-2.86-9.79-.64-1.59-1.57-2.89-2.59-4.26-1.17-1.59-2.76-3.02-4.43-4.07.47-.96.65-2.06.51-3.12-.13-1-.52-1.79-1.31-2.41,0,0,1.87-8.96-5.39-9.95,0,0,4.24,5.1-.41,7.4-.24.12-.51.05-.73-.1-.1-.07-.17-.16-.26-.24-.17-.16-.4-.26-.64-.27-.14,0-.28.02-.39.1-.12.09-.19.23-.24.37-.1.31-.12.64-.13.96-.03.9,0,1.81.09,2.71.14,1.47.25,2.88.92,4.2.17.34.37.72.23,1.07-.05.12-.13.22-.22.32-.87.95-2.16,1.5-3.45,1.47s-2.55-.65-3.37-1.65c-.27-.33-.57-.65-.55-1.08.01-.32.16-.61.29-.9.52-1.12.96-2.28,1.3-3.47.1-.36.03-.76.05-1.14.03-.54.06-1.11-.18-1.6s-.83-.85-1.33-.63c-.45.19-.72.79-1.21.78-.23,0-.43-.15-.6-.3-.3-.26-.57-.56-.8-.88-.86-1.19-.76-2.72-.39-4.14s.89-2.68,1.95-3.7Z"/>
    <path class="cls-65" d="M229.6,413.83c-.77,1.49-1.6,2.95-2.49,4.38.04-.06.09-.13.13-.19"/>
    <path class="cls-65" d="M227.07,390.13s7.92-6.52,11.84-8.72"/>
    <path class="cls-65" d="M268.72,432.57s12.49,2.99,20.2-5.64c0,0,3.25,6.71,18.96,4.17"/>
    <path class="cls-65" d="M267.09,412.19c-.68-.38-1.14-1.06-1.46-1.77-.7-1.52-.87-3.26-.58-4.91s1.02-3.2,2.02-4.54c1.09-1.47,3.18-1.95,4.89-1.29s2.9,2.32,3.3,4.11c.06.28.1.38.39.32s.49-.29.7-.49c1.55-1.5,4.1-1.84,5.99-.8.71.39,1.32.95,1.92,1.51"/>
    <path class="cls-65" d="M285.33,397.79c1.34-.67,2.98-.91,4.33-.25"/>
    <path class="cls-65" d="M291.31,403.83c1.25-1.51,3.42-2.17,5.3-1.62.87.25,1.73.75,2.62.58.58-.94,1.11-1.78,1.79-2.65,1.4-1.79,3.69-2.99,5.97-1.91.59.28,1.05.76,1.45,1.28,1.39,1.83,1.99,4.24,1.63,6.51-.1.62-.26,1.03-.57,1.58-.89,1.61-2.07,3.21-3.8,3.81"/>
    <path class="cls-65" d="M247.02,423.4s.21-11.65,8.88-14.16c1.63-.47,2.69-1.75,4.21-2.49,1.9-.92,3.26-2.81,5.31-3.32"/>
    <path class="cls-65" d="M243.64,416.74c.37-.5.95-.83,1.55-.99s1.23-.2,1.86-.21c.48,0,1.02,0,1.38.33"/>
    <path class="cls-65" d="M267.3,439.54c-1.15,3.46-6.39,9-6.39,9-2.31,5-7.54,4.62-7.54,4.62-3.62-11.31-16.54-6.39-16.54-6.39-.85-3.15-8.47-7.93-8.47-7.93,0,0,3.47,7.39,7.78,10.54s14.3,3.84,16.39,3.78c.41-.01.36.09.76.12"/>
    <path class="cls-65" d="M267.68,425.07s-9.68,5.16-11.46,17.39c0,0-1.74,5.4.97,9.89"/>
    <path class="cls-65" d="M251.49,449.05c.98-.78,2.23-1.21,3.48-1.23.2,0,.41,0,.58.12"/>
    <path class="cls-65" d="M344.32,406.07c-2.28-2.74-10.84-10.84-10.84-10.84-1.37-5.48-7.19-11.3-7.19-11.3-9.82-9.36-11.76-21.8-11.76-21.8,4.11,9.25,17.24,14.15,17.24,14.15,3.99-20.09-20.77-28.02-20.77-28.02,0,0,32.53,1.43,33.33,35.67,0,0,13.7,15.07,2.97,26.71,0,0,3.31,9.36-7.53,8.9-1.45.09-2.79.24-4.24.33-.63.04-1.26.08-1.88.21-1.43.29-2.75,1.01-4.2,1.18-1.58.19-3.13,1.07-4.64.59-.55-.17-1.03-.52-1.5-.87-1.76-1.32-3.44-2.74-5.12-4.17-3.17-2.69-5.67-5.89-9.47-7.56"/>
    <path class="cls-65" d="M309.24,423.14c3.38,2.69,6.52,5.66,9.4,8.88.89,1,1.77,2.04,2.36,3.25.62,1.27.91,2.68,1.13,4.07.46,2.89.69,5.86.09,8.72"/>
    <path class="cls-65" d="M348.89,432c-1.06,2.47-2.12,4.94-3.18,7.41-.38.89-.77,1.79-1.38,2.55-.81,1-1.94,1.67-3.05,2.31-1.33.78-2.56,1.08-3.98,1.68-1.13.48-2.33.74-3.53,1.01-3.44.76-6.9,1.51-10.41,1.65-2.47-.45-4.5-1.91-6.25-3.71-1.39-1.42-2.68-2.94-3.87-4.53-1-1.34-2.27-2.42-3.17-3.86"/>
    <path class="cls-65" d="M309.09,401.16c2.88.9,5.68,2.08,8.34,3.52,1.35.73,2.67,1.52,3.94,2.37,1.01.67,2.19,1.26,3.05,2.11.56.56,1.07,1.17,1.53,1.81,2.06,2.88,3.15,6.44,3.07,9.98"/>
    <path class="cls-65" d="M347.32,410.78c-1.31-1.83-2.88-3.48-4.65-4.87-.62-.49-1.28-.96-2-1.29-.56-.26-1.23-.42-1.77-.13-.22.12-.4.31-.57.49-1.24,1.33-2.48,2.65-3.72,3.98-1.84,1.97-4.1,2.94-5.39,5.3-.5.91-.91,1.95-.7,2.96"/>
    <path class="cls-65" d="M326.29,411.48c1.16-.42,2.43-.53,3.64-.29.51.1.98.35,1.42.61"/>
    <path class="cls-65" d="M348.55,432.05l-1.71,1.25c-.51.37-1.01.74-1.48,1.15-1.21,1.07-2.15,2.42-3.07,3.76-.43.63-.88,1.28-1.03,2.03-.04.19-.05.4.05.56.06.1.16.16.26.22.58.39,1.17.77,1.75,1.16"/>
    <path class="cls-65" d="M325.38,448.15c1.18-2.22,2.47-4.55,4.63-5.85,1.06-.63,2.2-.96,3.39-1.27,1.09-.28,2.22-.34,3.34-.4.85-.04,1.7-.08,2.55.04,1.51.22,2.88.96,4.22,1.7"/>
    <path class="cls-65" d="M322.69,443.19c.79-.02,1.59.08,2.35.3.72.2,1.37.58,2.03.93"/>
    <path class="cls-65" d="M270.1,448.05c-1.29,3.51-1.86,7.28-1.67,11.02.04.84.13,1.72.6,2.43.38.58.98.99,1.59,1.32,1.03.55,2.39.89,3.3.17"/>
    <path class="cls-65" d="M308.22,446.61c1.48,2.28,2.38,4.94,2.6,7.65.17,2.1-.11,4.33-1.35,6.03-.37.5-.84.96-1.42,1.18-.42.15-.87.17-1.31.16-2.87-.08-5.52-1.43-8.25-2.29-2.48-.78-4.83-1.07-7.41-.82-1.59.15-3.15.48-4.69.87-.77.2-1.54.41-2.3.63-.59.17-1,.52-1.56.76-1.61.7-3.26,1.1-4.96,1.51-.7.17-1.41.22-2.12.41-.79.21-1.59.48-2.42.45-.29-.01-.54,0-.81.08,0,0-3.34,15.69,3.05,14.15,3.61-.87,7.1-2.16,10.68-3.13,2.97-.8,6.93-1.98,9.95-.82,4.02,1.56,8.36,2.09,12.63,1.36.38-.07.63-.51.87-.8.36-.43.65-.92.87-1.44.61-1.47.56-3.15.15-4.69s-1.13-2.97-1.88-4.38c-.32-.6-.23-1.24-.32-1.91"/>
    <path class="cls-65" d="M268.42,459.06l-4.53,6.19s-2.66,2.96-6.22,6.09c-4.74,4.17-11.07,8.64-14.8,6.78-6.52-3.26-12.62-1.47-12.62-1.47,0,0,8.31-5.46,13.85-1.63"/>
    <path class="cls-65" d="M268.26,446.06s-13.74,6.25-9.22,24.04"/>
    <path class="cls-65" d="M256.8,471.12s-9.86-4.15-14.17,6.27"/>
    <path class="cls-65" d="M257.78,466.72s-3.23.65-4.26,2.93"/>
    <path class="cls-65" d="M271.4,472.83s-3.26,6.26-3.74,7.79-11.83,17.23-18.92,16.34-13.2,1.29-13.2,1.29c0,0,6.28-6.04,13.28-3.86"/>
    <path class="cls-65" d="M269.02,461.49s-11.2,11.95-4.27,23.42"/>
    <path class="cls-65" d="M263.19,481.49s-3.86,2.01-3.02,4.93"/>
    <path class="cls-65" d="M248.74,496.96c-.04-2.12.71-4.39,2.19-5.9,1.63-1.67,2.74-3.32,4.96-4.05.7-.23,1.42-.34,2.15-.44,1.72-.23,3.5-.35,5.17.1"/>
    <path class="cls-65" d="M274.15,477.89c.15,1.58-.12,3.16-.3,4.73s-.24,3.21.28,4.7,1.77,2.83,3.34,3.05c1.02.14,2.04-.19,3.01-.56,1.02-.39,2.03-.83,3.03-1.27,1.06-.46,2.1-.55,3.22-.84,1.58-.42,3.17-.84,4.79-1.08,3.33-.51,6.77-.27,9.99.7,1.44.43,2.87,1.01,4.37,1.13s3.16-.32,4.04-1.55c1-1.4.7-3.31.36-5-.46-2.26-1.85-4.24-2.26-6.51"/>
    <path class="cls-65" d="M274.62,488.32c-1.99,0-3.72,14.64-4.1,18.54s-9.88,15.11-16.44,15.59-13.59,7.22-13.59,7.22c0,0,5.16-9.82,12.98-10.26"/>
    <path class="cls-65" d="M273.73,480.92s-16.84,6.58-3.42,26.86"/>
    <path class="cls-65" d="M252.62,522.65c.02-1.83.63-3.59,1.53-5.16.84-1.46,1.33-3.05,2.41-4.41,1.87-2.35,5.12-3.24,8.03-3.48,1.81-.15,3.97-.35,5.42-1.57"/>
    <path class="cls-65" d="M267.82,503.76c-.11-.02-.21.08-.28.18-.55.76-1.1,1.53-1.46,2.4-.36.87-.51,1.82-.43,2.75"/>
    <path class="cls-65" d="M278.83,490.78c-.84,2.09-1.02,4.45-.51,6.64.16.69.4,1.39.92,1.87.6.55,1.47.7,2.27.61s1.56-.4,2.32-.68c2.35-.87,4.8-1.5,7.28-1.88,3.88-.59,7.61-.45,11.36.73.91.28,1.91.62,2.78.23,1.16-.52,1.45-2.03,1.37-3.29-.06-.93.04-1.89-.22-2.79-.36-1.23-1.08-2.33-1.36-3.58"/>
    <path class="cls-65" d="M266.65,557.99c-3.38-2.79-1.01-11.65-1.01-11.65,3.55-9.96,17.31-8.36,17.31-8.36,6.67-4.39.76-8.7.76-8.7,0,0,13.59.25.08,15.45,0,0,.34,11.14-7.6,13.76"/>
    <path class="cls-65" d="M310.82,454.26s-.02,2.35,10.36,10.84,16.38,7.07,16.38,7.07c7.43-4.03,12.44-3.13,12.44-3.13,0,0-7.07-3.4-12.62-.18"/>
    <path class="cls-65" d="M310.06,443.81s14.82,6.38,11.98,21.98"/>
    <path class="cls-65" d="M322.69,462.33s4.17.18,4.38,2.69"/>
    <path class="cls-65" d="M338.99,471.45s-6.18-10.96-15.33-4.44"/>
    <path class="cls-65" d="M280.95,500.47c-.55,2.03-.66,4.19-.32,6.26.09.54.22,1.1.61,1.49.86.88,2.33.38,3.46-.1,3.88-1.62,8.15-2.3,12.34-1.95,1.89.16,3.01.6,4.88.91.57.09,1.15.19,1.72.12s1.15-.32,1.47-.8c.3-.44.35-1,.35-1.53,0-2.07-.57-4.14-1.66-5.9-.1-.16.13-.47.22-.63"/>
    <path class="cls-65" d="M276.55,558.33c-2.38.78-5.02.73-7.36-.14-.44-.16-.88-.36-1.35-.41s-.99.08-1.28.45c-.2.26-.26.59-.32.91-.38,2.28-.4,4.62-.08,6.91.21,1.51.86,2.94,1.55,4.3.17.34.37.7.7.9.36.22.8.22,1.22.21.45,0,.9-.01,1.35-.02.23,0,.46,0,.66-.11.42-.21.58-.76,1-.96.39-.19.91-.02,1.27-.27.21-.14.32-.4.41-.63,1.21-3.06,2.45-6.32,1.87-9.56-.09-.5.08-1.16.37-1.58Z"/>
    <path class="cls-65" d="M285.39,508.36c.22,3.04.99,6.04,2.26,8.81.93,2.03,2.4,4.12,4.61,4.48,2.57.42,4.84-1.68,7.4-2.19,1.38-.27,3.01-.16,3.94-1.21.56-.63.7-1.55.56-2.38-.19-1.13-.58-2.5-1.01-3.57-.7-1.72-1.41-3.44-2.11-5.15"/>
    <path class="cls-65" d="M268.5,571.86c-.69.83-.97,1.97-.75,3.03.15.73.52,1.38.9,2.02,1.54,2.61,3.26,5.12,5.14,7.49.32.4.76.84,1.25.71.22-.06.39-.22.55-.37.94-.9,1.93-1.88,2.17-3.16.09-.49.08-1.04.41-1.41.11-.12.25-.21.35-.34.16-.21.2-.48.19-.75,0-1.12-.55-2.16-1.08-3.14-.83-1.53-1.65-3.06-2.48-4.58-.24-.45-.57-.96-1.08-.99"/>
    <path class="cls-65" d="M293.82,521.87c.8,4.16,2.88,8.07,5.89,11.07.83.82,1.77,1.6,2.9,1.87s2.49-.1,3.05-1.12c.57-1.03.32-2.6,1.36-3.15.32-.17.7-.19,1.07-.21,1.17-.06,2.38-.21,3.37-.82s1.71-1.83,1.4-2.96c-.24-.9-1.04-1.53-1.78-2.08-2.58-1.93-5.16-3.86-7.75-5.79"/>
    <path class="cls-65" d="M274.75,585.42c.62,2.23,2.19,4.11,4.06,5.48s4.04,2.26,6.21,3.06c.91.33,1.85.65,2.82.7.91.05,1.83-.15,2.64-.57.32-.17.64-.38.78-.71.11-.23.11-.5.12-.76.02-.63.03-1.26-.08-1.88-.38-2.04-2.07-3.55-3.65-4.88s-2.96-2.87-4.73-3.91c-1.44-.84-3.11-1.54-4.73-1.18"/>
    <path class="cls-65" d="M305.32,534.42c.15.71.46,1.37.76,2.03,1.58,3.45,3.44,7.19,6.92,8.72.94.41,2.08.62,2.94.08,1.22-.76,1.31-2.58,2.4-3.53,1.16-1.02,3.2-.81,4.03-2.11.74-1.16,0-2.67-.74-3.83-.23-.37-.39-.83-.68-1.15-2.43-2.62-5.68-4.31-8.98-5.7"/>
    <path class="cls-65" d="M290.71,588.46c-.05-1.66,1.22-3.14,2.73-3.83s3.22-.78,4.88-.83c3.65-.11,7.27-.32,10.91-.55.34-.02.7-.04,1.01.09.29.12.52.36.74.6,1.32,1.41,2.63,2.82,3.95,4.24.14.15.29.32.34.52.18.8-3.31,3.03-3.92,3.56-.71.62-1.42,1.24-2.21,1.76-2.77,1.82-6.22,2.18-9.52,2.49-1.35.13-2.63,0-3.98.04-.44.01-.89.02-1.32-.04-1.34-.21-2.45-1.12-3.41-2.07"/>
    <path class="cls-65" d="M315.35,545.9c.41,1.98.29,4.02.35,6.04s.31,4.11,1.38,5.82,3.1,2.96,5.08,2.55c1.2-.25,2.21-1.06,3.39-1.36.81-.21,1.67-.18,2.46-.46,1.15-.41,2-1.46,2.41-2.62s.47-2.4.44-3.63c-.03-1.42-.22-2.94-.84-4.22s-1.49-2.41-2.38-3.51c-.74-.93-1.5-1.85-2.27-2.76-.76-.9-1.64-1.85-2.8-2.05"/>
    <path class="cls-65" d="M310.4,582.91c-.69-1.69.47-3.61,1.96-4.66s3.29-1.56,4.81-2.58c.58-.39,1.12-.85,1.76-1.12,2.38-1,5.01.93,7.59.76.4,1.04.02,2.12-.44,3.12-.51,1.11-1.05,2.21-1.6,3.3-1,1.98-2.09,3.97-3.72,5.48s-3.9,2.48-6.07,2.05"/>
    <path class="cls-65" d="M320.07,560.77c.46,2.99-2.03,5.8-1.74,8.81.16,1.62.56,3.24,1.64,4.46"/>
    <path class="cls-65" d="M329.69,557.44c.75,1.82,1.49,3.69,1.57,5.66.08,1.96-.49,3.87-1.05,5.75-.45,1.48-.89,2.96-1.38,4.42-.4,1.19-.92,2.48-2.04,3.05"/>
    <path class="cls-65" d="M310.68,470.59l6.19,9.1s10.62,12.37,17.57,11.32,13.71,0,13.71,0c0,0-7.94-6.15-12.84-2.37"/>
    <path class="cls-65" d="M310.6,458.57s12.69,9.05,8.02,22.27"/>
    <path class="cls-65" d="M319.65,477.5s3.03,1.85,3.04,4.41"/>
    <path class="cls-65" d="M319.91,482.89s11.93-4.75,16,7.93"/>
    <path class="cls-65" d="M309.91,486.89c1.56-1.18,5.44,17.78,5.44,17.78,0,0,12.61,14.71,17.04,12.72s14.24,4.2,14.24,4.2c0,0-8.64-9.45-13.31-7.7"/>
    <path class="cls-65" d="M309.03,478.4c1.16.28,2.28.82,3.28,1.45,2.32,1.45,4.11,3.63,5.08,6.19,1.66,4.37,1,9.3-.28,13.67-.26.9-.56,1.79-.87,2.67-.15.43-.93,1.5-.73,1.93.18.4.88.22,1.24.2.62-.04,1.23-.06,1.85-.04,1.7.03,3.4.25,5.04.7,4.5,1.24,8.06,4.33,9.81,8.68.33.81.59,1.65.81,2.49"/>
    <path class="cls-65" d="M317.05,499.93s3.05,1.94,2.6,4.74"/>
  </g>
</svg>