<?xml version="1.0" encoding="UTF-8"?>
<svg id="Layer_6" data-name="Layer 6" xmlns="http://www.w3.org/2000/svg" viewBox="0 0 690.77 730.59">
  <defs>
    <style>
      .cls-1 {
        fill: #efbfd5;
      }
    </style>
  </defs>
  <path class="cls-1" d="M112.07.39c1.63,10.79,9.04,19.83,17.27,26.99,8.23,7.16,17.57,13.07,25.1,20.96,17.43,18.25,23.69,45.4,42.42,62.31,26.11,23.58,66.42,22.64,94.51,43.81,5.77,4.35,11.37,8.97,17.57,12.7,17.35,10.44,38.36,13.23,58.6,12.44,15.87-.62,30.91.86,43.39,10.69,12.47,9.83,21.56,23.22,30.48,36.36,8.92,13.14,18.1,26.48,30.7,36.15,6.25,4.8,13.2,8.58,20.12,12.34,7.25,3.94,14.51,7.88,21.76,11.83,5.12-.19,10.21,1.01,14.91,3.05,25.58,11.1,43.45,37.53,70.63,43.73,20.45,4.66,38.08,3.7,57.68,11.19,5.04,1.93,10.12,4.17,13.9,8.01,6.56,6.66,8,16.88,7.22,26.19-1.52,18.04-9.94,36.35-4.35,53.57,1.38,4.26,3.58,8.21,5.76,12.13,3.67,6.6,7.35,13.2,11.02,19.8-1.61,21.12-10.18,44.08-23.06,60.88-3.68,4.8-7.83,9.41-9.95,15.07-1.4,3.74-1.85,7.77-2.92,11.62-2.66,9.5-9.01,17.49-13,26.52s-5.07,20.74,1.84,27.78c13.55,13.79-1.35,39.8-7.3,58.2-5.75,17.81-11.7,36.01-23.1,50.87-6.28,8.18-15.34,15.63-25.63,14.97-13.03-.83-23.21-14.31-36.24-13.46-56.44-1.53-111.96-10.62-165.21-29.37-10.47-3.68-21.25-7.98-28.58-16.32-26.57-30.24-71.27-43.07-111.51-42.16-7.02.16-14.15,1-20.98-.63-9.64-2.3-17.63-9.3-27.26-11.65-35.95-8.77-69.73-28.89-106.4-33.86-10.99-1.49-22.33-1.34-32.81-4.95-10.39-3.57-19.24-10.62-26.93-18.48-2.52-2.58-5.06-5.33-8.41-6.66-2.71-1.07-5.72-1.12-8.49-2.01-6.23-2-10.43-8.12-11.97-14.48-1.54-6.36-.87-13.03-.19-19.54,1.5-14.37.72-25.33,4.52-39.27s8.77-27.65,10.48-42c1.61-13.5-2.28-25.99-2.38-39.42-.13-15.89-.26-31.79-.39-47.68-.03-3.5-.06-7.03-.96-10.41-1.17-4.43-3.75-8.33-5.89-12.38-6.69-12.62-9.35-27.34-7.5-41.5,2.29-17.5-2.66-33.3,2.76-50.1,5.18-16.06,15.92-31.01,15.11-47.86-.56-11.64,3.92-22.9,7.91-33.86,4.88-13.42,9.79-26.91,16.76-39.37,3.73-6.66,8.14-13.29,9.02-20.88,1.3-11.18,3.06-22.15,6.64-32.82,3.03-9.03,6.06-18.05,9.08-27.08,1.59-4.74,3.2-9.51,5.7-13.83C80.98,5.74,97.45-1.86,112.07.39Z"/>
</svg>