<?xml version="1.0" encoding="UTF-8"?>
<svg id="Layer_4" data-name="Layer 4" xmlns="http://www.w3.org/2000/svg" xmlns:xlink="http://www.w3.org/1999/xlink" viewBox="0 0 660.31 723.41">
  <defs>
    <style>
      .cls-1 {
        fill: #382517;
        stroke: #382517;
        stroke-miterlimit: 10;
      }

      .cls-2 {
        fill: url(#radial-gradient-2);
      }

      .cls-3 {
        fill: url(#radial-gradient);
      }
    </style>
    <radialGradient id="radial-gradient" cx="501.64" cy="478.46" fx="501.64" fy="478.46" r="154.35" gradientUnits="userSpaceOnUse">
      <stop offset="0" stop-color="#b16d59"/>
      <stop offset="0" stop-color="#942a26"/>
      <stop offset=".12" stop-color="#8c2a26"/>
      <stop offset=".44" stop-color="#892925"/>
      <stop offset=".6" stop-color="#822724"/>
      <stop offset=".72" stop-color="#752422"/>
      <stop offset=".82" stop-color="#621f1f"/>
      <stop offset=".91" stop-color="#4a1a1b"/>
      <stop offset=".99" stop-color="#2d1216"/>
      <stop offset="1" stop-color="#2a1216"/>
    </radialGradient>
    <radialGradient id="radial-gradient-2" cx="163.8" cy="570.69" fx="163.8" fy="570.69" r="158.36" xlink:href="#radial-gradient"/>
  </defs>
  <path class="cls-1" d="M220.1,439.05c.09,4.72.05,9.45-.11,14.17-1.24-.48-2.6-.66-3.92-.52-.28.03-.6.1-.75.34-.12.19-.1.43-.09.65.04,1.12-.33,2.26-1.02,3.14-6.37-.71-12.23-3.38-16.79-7.88-.47-.46-.93-.97-1.11-1.6-.25-.88.11-1.81.46-2.66,2.32-5.6,4.65-11.21,6.97-16.81,3-1.34,6.39.82,8.63,3.23s4.55,7.15,7.74,7.95Z"/>
  <path class="cls-1" d="M214.96,476.01s6.71-3.36-.21-12.76l-16.42-5.25s-9.3,1.39-7.72,9.01,24.34,9.01,24.34,9.01Z"/>
  <path class="cls-1" d="M430.65,22.63s4.72-37.06-26.16-15.26c0,0-20.35,4.36-14.17,18.17,0,0-21.95,12.99-12.61,30.29s31.5,8.28,31.5,8.28c0,0,11.26-2.96,9.81-17.13,0,0,14.59-5.85,11.63-24.34Z"/>
  <path class="cls-1" d="M379.65,66.83s-174.29,205.28-178.94,392.53c0,0,2.31,9.75,14.05,3.88,0,0,50.06-275.31,182.92-389.64l1.51-3.64-17.3-5.86-2.23,2.73Z"/>
  <path class="cls-1" d="M370.23,54.3c1.22-2.04,1.94-3.09,1.94-3.09l5.54,4.62v5.08c0,5.37-3.8,12.61-5.25,17.86-1.59,5.78-3.08,11.59-4.45,17.43-2.47,10.57-4.54,21.23-6.07,31.97-2.66,18.72-4.46,38.59-2.82,57.5.41,4.71,1.07,9.46,2.46,14.01,4.58,15.07,9.99,29.89,16.2,44.37,3.11,7.24,6.41,14.39,9.91,21.45,3.12,6.3,7.72,11.34,11.76,17.11,2.58,3.69,5.16,7.39,7.68,11.13,2.81,4.17,6.73,7.34,10.28,10.95,9.28,9.43,18.68,18.74,28.2,27.93,5.14,4.96,13.12,8.48,19.27,12.27,6.85,4.23,13.79,8.31,20.79,12.29,7.14,4.06,14.33,8.04,21.63,11.81,1.34,12.29-19.51,10.15-23.51,10.15s-3.97-9.02-3.97-9.02c-63.43-32.54-123.94-101.29-133.83-183.92-4.47-37.38-.26-76.08,14.02-111.03,3.5-8.55,7.54-20.44,15.15-25.81,2.1-1.48,4.25-2.95,6.67-3.84s5.16-1.14,7.54-.18c.26.1.54.25.62.52.08.28-.09.57-.26.81-5.77,8.32-11.41,16.74-16.91,25.25,7.98-2.93,11.36-13.64,19.03-17.32,3-1.44,6.49-1.46,9.81-1.14.66.06,1.39.17,1.83.67.29.33.41.78.49,1.21.55,2.79.26,5.74-.82,8.37-.75,1.83-1.87,3.48-3.02,5.08-2.32,3.22-4.94,6.41-8.53,8.11-3.87,1.84-8.35,1.7-12.62,1.37-2.65-.2-5.73-.75-6.94-3.11"/>
  <path class="cls-3" d="M516.38,339.33c-.4.3-.82.58-1.24.86-7.34,4.92-15.5,8.74-23.79,11.75-6.89,2.5-14.01,4.44-21.24,5.65-7.89,1.33-15.93-1.91-23.63-3.18-7.17-1.19-14.57-.87-21.66.74-2.11.48-4.24.32-6.26.98-2.89.95-5.72,2.07-8.51,3.28-4.38,1.91-8.65,4.09-12.77,6.51-5.23,3.06-10.23,6.51-14.93,10.34-5.45,4.44-10.49,9.38-14.99,14.79-5.06,6.09-9.42,12.75-12.95,19.84-4.02,8.08-6.94,16.68-8.8,25.51-2.2,10.43-2.94,21.14-2.55,31.78.47,13.05,2.61,26.01,5.8,38.67,31.27,123.96,174.77,128.42,194.87,117.81s91.57-20.1,112.79-126.75-49.69-202.13-140.15-158.57Z"/>
  <path class="cls-2" d="M219.59,452.81l-34.01-15.28s-92.15-67.51-164.33,48.26,61.97,225.4,71.5,221.32c0,0,78.31,40.86,144.37-6.81s97.38-92.61,89.21-175.01-106.74-72.48-106.74-72.48Z"/>
</svg>